<?xml version="1.0" encoding="UTF-8" standalone="no"?>
<!-- Generator: Adobe Illustrator 21.0.0, SVG Export Plug-In . SVG Version: 6.00 Build 0)  -->

<svg
   xmlns:dc="http://purl.org/dc/elements/1.1/"
   xmlns:cc="http://creativecommons.org/ns#"
   xmlns:rdf="http://www.w3.org/1999/02/22-rdf-syntax-ns#"
   xmlns:svg="http://www.w3.org/2000/svg"
   xmlns="http://www.w3.org/2000/svg"
   xmlns:sodipodi="http://sodipodi.sourceforge.net/DTD/sodipodi-0.dtd"
   xmlns:inkscape="http://www.inkscape.org/namespaces/inkscape"
   version="1.1"
   id="Layer_1"
   x="0px"
   y="0px"
   viewBox="0 0 551.16099 551.16102"
   xml:space="preserve"
   sodipodi:docname="contact3.svg"
   width="551.16101"
   height="551.16101"
   inkscape:version="0.92.2 (5c3e80d, 2017-08-06)"><metadata
     id="metadata839"><rdf:RDF><cc:Work
         rdf:about=""><dc:format>image/svg+xml</dc:format><dc:type
           rdf:resource="http://purl.org/dc/dcmitype/StillImage" /></cc:Work></rdf:RDF></metadata><sodipodi:namedview
     pagecolor="#ffffff"
     bordercolor="#666666"
     borderopacity="1"
     objecttolerance="10"
     gridtolerance="10"
     guidetolerance="10"
     inkscape:pageopacity="0"
     inkscape:pageshadow="2"
     inkscape:window-width="640"
     inkscape:window-height="480"
     id="namedview837"
     showgrid="false"
     inkscape:zoom="0.3729659"
     inkscape:cx="275.63052"
     inkscape:cy="275.53051"
     inkscape:window-x="99"
     inkscape:window-y="33"
     inkscape:window-maximized="0"
     inkscape:current-layer="Layer_1" /><defs
     id="defs732"><style
       type="text/css"
       id="style730"><![CDATA[
		path {
			fill:white;
		}
		]]></style></defs><g
     id="g834"
     style="fill:#ffffff"
     transform="translate(-145.31949,-22.019494)"><g
       id="g832"
       style="fill:#ffffff"><g
         id="g830"
         style="fill:#ffffff"><g
           id="g744"
           style="fill:#ffffff"><path
             d="m 649.6,367.9 c -0.6,-1.2 -0.1,-2.7 0.8,-3.2 1.7,-0.7 3.4,-1.5 5,-2.4 2.3,-1.1 4.6,-2.3 6.8,-3.5 0.2,-0.1 0.6,-0.2 0.7,-0.1 0.6,0.7 1.3,1.4 1.8,2.1 0.4,0.6 0.5,1.4 0.7,2.1 0.3,1 0.1,2.1 -0.7,2.7 -1.2,0.9 -2.5,1.7 -3.9,2.4 -1.2,0.6 -2.5,1 -3.7,1.5 -2,0.8 -4.1,1.6 -6.2,2.3 -1.2,0.4 -2.4,0.8 -3.6,1.2 -0.7,0.2 -1.4,0.5 -2.1,0.8 -0.3,0.1 -0.6,0.2 -0.9,0.3 -0.3,0.1 -0.5,0.3 -0.7,0.3 -0.4,0.1 -0.9,0.2 -1.3,0 -0.5,-0.2 -0.4,0.8 -1,0.3 -0.1,-0.1 -0.7,0.3 -1,0.6 -0.1,0.1 -0.1,0.3 -0.2,0.4 -0.8,0.6 -1,1.7 -0.5,2.5 0.2,0.3 0.4,0.5 0.6,0.7 0,0.1 -0.1,0.2 -0.1,0.3 0.1,0.3 0.4,0.6 0.5,0.9 0.1,0.2 0.1,0.5 0.1,0.7 0.6,1.5 1.3,3 2,4.5 0.1,0.3 0.2,0.7 0.3,1.1 0.3,0.7 0.7,1.3 1,2 0,0.1 -0.1,0.4 -0.2,0.4 -0.4,0.1 -0.8,0.1 -1.2,0.2 -1.2,0.3 -2.3,0.6 -3.5,0.8 -1,0.2 -2,0.3 -3,0.4 -1.4,0.3 -2.7,0.5 -4.1,0.8 -0.1,0 -0.3,0.1 -0.4,0.1 0.1,0.1 0.1,0.2 0.2,0.3 0,0.1 0,0.2 0,0.3 0,0 0,0 -0.1,0 0,-0.1 0,-0.1 -0.1,-0.2 -0.3,-0.2 -0.5,-0.7 -0.9,-0.2 0,0 -0.1,0 -0.2,0 0,0 0,-0.1 0,-0.1 0,-0.1 0.1,-0.1 0.2,-0.1 -0.1,0 -0.2,0 -0.3,0 -1.6,0.4 -2.9,1 -3.7,2.3 -0.6,0.9 -0.2,2.4 0.7,3.2 0.5,0.5 0.9,1.2 1.2,1.8 0.3,0.7 0.5,1.4 0.7,2.1 0,0 -0.1,0.1 -0.1,0.1 -0.6,0 -0.6,0.4 -0.5,0.8 0.2,0.5 0.3,1 0.5,1.4 0,0.1 0,0.2 -0.1,0.2 -1.4,0.4 -2.3,1.3 -3.2,2.2 -0.9,0.8 -1.4,1.7 -1.7,2.6 -0.3,1 -0.4,2 -0.1,3.2 0.2,0.9 0.6,1.8 0.9,2.8 0.5,1.6 1.1,3.3 1.6,4.9 0.1,0.4 0.1,0.7 -0.5,0.7 -0.9,0 -1.9,0 -2.8,0 -0.9,0 -1.9,0 -2.8,0.1 -0.4,0 -1.1,-0.2 -1.2,0.5 0,0 -0.1,0 -0.2,0.1 0,0 0,-0.1 -0.1,-0.1 -0.1,-0.1 -0.2,-0.2 -0.2,-0.2 -0.2,0 -0.4,0.2 -0.6,0.2 -1.2,-0.2 -2.2,1.1 -2.1,2.1 0.1,0.7 0.2,1.5 0.4,2.2 0.4,1.9 0.8,3.9 1.2,5.8 0.1,0.3 0.3,0.6 0.3,0.9 0,0.6 0,1.3 0,1.9 0,0.2 -0.2,0.5 -0.4,0.5 -0.9,0 -1.8,0 -2.7,0 -0.8,0 -1.6,0 -2.3,0 -0.9,0 -1.9,0 -2.8,0 -1.3,0.1 -2.2,0.7 -2.6,1.7 -0.3,0.8 -0.4,1.9 -0.3,2.8 0.2,1.9 0.5,3.9 0.7,5.9 0.2,1.9 0.4,3.8 0.5,5.7 0,0.2 -0.3,0.5 -0.4,0.5 -0.8,-0.1 -1.6,-0.2 -2.3,-0.4 -1.1,-0.2 -2.2,-0.4 -3.3,-0.6 -0.7,-0.1 -1.5,-0.1 -2.2,-0.2 -1.1,-0.2 -2.2,-0.4 -3.3,-0.5 -1,-0.2 -2,-0.3 -3,-0.5 -0.6,-0.1 -1.2,-0.4 -1.7,-0.4 -0.9,0.1 -1.9,-0.2 -2.8,0.3 -0.9,0.4 -1.4,1 -1.8,1.7 -1,1.8 -0.5,4 -0.7,6.1 -0.1,1.4 -0.1,2.8 -0.1,4.2 0,1.1 0.2,2.3 0.3,3.5 0,0.1 0.1,0.1 0.2,0.2 0.1,-0.1 0.2,-0.1 0.2,-0.2 0.1,-0.7 0.2,-1.4 0.1,-2.1 -0.3,-2.6 1.4,-3.7 3,-3.7 1.5,0 3.2,0.3 4.8,0.6 2.1,0.4 4.2,0.7 6.4,1.1 1.4,0.2 2.8,0.4 4.2,0.8 2.2,0.5 4.4,1.1 6.6,1.6 0.6,0.1 0.6,0.5 0.3,0.8 -1.1,1 -2.2,2 -3.2,3 -0.3,0.3 -0.5,0.7 -0.5,1.1 0.1,1.8 0.1,3.6 0.1,5.4 0,1 -0.2,2 -0.2,3 0,0.7 0.1,1.4 0.1,2.1 0,0.1 0.1,0.2 0.1,0.2 0,0 0.1,-0.1 0.1,-0.1 0.7,-0.6 1.3,-1.3 2,-1.9 0.4,-0.4 0.9,-0.8 1.4,-1.2 1.3,-1.1 2.5,-2.4 3.7,-3.6 1,-1 1.9,-2.1 2.9,-3.2 1.3,-1.3 2.6,-2.6 3.8,-3.8 0.2,-0.2 0.5,-0.3 0.7,-0.3 0.9,0 1.9,0.2 2.8,0.2 2.6,0.1 5.2,0.2 7.9,0.1 2.3,-0.1 4.6,-0.2 6.8,-0.6 1.7,-0.3 3.3,-1.2 4.8,-2 1.1,-0.6 2.1,-1.5 2.9,-2.4 1.3,-1.7 2.2,-3.6 1.9,-5.8 -0.1,-0.8 -0.1,-1.6 -0.2,-2.4 -0.2,-1 -0.4,-1.9 -0.6,-2.8 -0.4,-2 -0.9,-3.9 -1.3,-5.9 -0.1,-0.3 -0.3,-0.5 -0.4,-0.8 0,0.3 -0.1,0.6 -0.1,0.9 0,0 0,0.1 0,0.1 0.7,2.6 0.2,4.9 -1.8,6.8 -1.4,1.3 -2.9,2.4 -4.8,2.9 -0.7,0.2 -1.4,0.5 -2.1,0.7 -0.7,0.2 -1.4,0.2 -2.1,0.2 -1.6,0.2 -3.1,0.3 -4.7,0.4 -0.3,0 -0.9,-0.3 -0.9,-0.5 -0.3,-1.9 -0.5,-3.8 -0.9,-5.7 -0.5,-2.3 -1.2,-4.6 -1.7,-6.8 -0.2,-0.8 -0.4,-1.6 -0.5,-2.4 -0.2,-0.8 -0.4,-1.6 -0.6,-2.4 -0.1,-0.3 -0.5,-0.8 -0.7,-0.8 -1.6,-0.1 -3.1,0 -4.7,-0.1 -0.5,0 -1,0 -1.6,0 -0.7,-0.1 -1.4,-0.2 -2.1,-0.4 -0.1,0 -0.2,-0.1 -0.3,-0.2 -0.5,-0.8 0,-2.7 0.8,-2.9 1.3,-0.3 2.7,-0.5 4,-0.7 0.8,-0.1 1.7,-0.2 2.5,-0.2 0.3,0 0.7,0.2 1.1,0.2 0.8,0.1 1.6,0.1 2.4,0.1 2.3,0 4.7,0.1 7,-0.1 0.8,-0.1 1.6,-0.2 2.4,-0.3 0.8,-0.1 1.5,-0.3 2.3,-0.4 1.5,-0.3 3.1,-0.6 4.6,-1 1.4,-0.3 2.9,-0.8 3.9,-2 0.9,-1 1.4,-2.2 1.9,-3.5 0.5,-1.2 0.4,-2.5 0.4,-3.7 0,-2.4 -0.9,-4.5 -1.7,-6.7 -0.2,-0.5 -0.5,-0.9 -0.6,-1.4 -0.4,-1.7 -0.9,-3.4 -2,-4.9 -0.1,-0.1 -0.3,-0.1 -0.4,-0.1 0,0.1 0,0.3 0,0.4 0.3,0.9 0.7,1.9 1,2.8 0.5,1.6 -0.1,3.1 -0.5,4.5 -0.4,1.2 -1,2.4 -2.3,3 -0.2,0.1 -0.7,0 -0.7,0 -0.5,-1.5 -1,-3 -1.5,-4.6 -0.5,-1.4 -1,-2.7 -1.5,-4.1 -0.5,-1.2 -1,-2.3 -2.3,-3 -0.2,-0.1 -0.5,-0.1 -0.7,-0.3 -0.5,-0.4 -1,-0.9 -1.6,-1.2 -0.6,-0.3 -1.3,-0.4 -1.9,-0.5 -0.5,-0.1 -0.9,-0.2 -1.4,-0.2 -0.9,0 -1.7,-0.1 -2.6,-0.1 -0.1,0 -0.1,0 -0.2,0 0,-0.1 0,-0.2 0,-0.2 0.2,-0.2 0.5,-0.6 0.8,-0.7 1.4,-0.4 2.8,-0.9 4.2,-1.1 2.8,-0.5 5.8,-1 8.7,-1.5 1.2,-0.2 2.4,-0.5 3.5,-0.7 1.6,-0.3 3.2,-0.6 4.8,-0.9 0.2,0 0.4,0 0.6,0 0,0.2 0,0.4 0,0.5 -0.4,1 -0.7,1.9 -0.1,3.1 0.7,1.4 1,2.9 1.6,4.4 0.5,1.4 1.1,2.9 1.6,4.4 0,0.1 0.1,0.2 0.2,0.3 0.1,-0.1 0.2,-0.2 0.3,-0.3 0.4,-1 0.8,-2 1.3,-3 1,-2 2,-3.9 3.1,-5.8 1.1,-2 2,-4.1 3,-6.2 0.2,-0.4 0.6,-1 1.1,-1.1 2,-0.8 4.1,-1.4 6.2,-2.2 3.3,-1.1 6.2,-2.8 9.1,-4.6 2.2,-1.4 3.6,-3.3 3.5,-6 0,-0.6 -0.1,-1.2 -0.1,-1.8 -0.1,-0.6 -0.2,-1.2 -0.4,-1.8 -0.3,-0.9 -1,-1.7 -1.5,-2.5 -1.2,-1.9 -2.5,-3.9 -3.7,-5.7 -0.1,-0.2 -0.3,-0.4 -0.4,-0.6 -0.1,-0.1 -0.2,-0.1 -0.3,-0.1 0,0.1 -0.1,0.2 -0.1,0.3 0.2,0.9 0.5,1.8 0.7,2.7 0.3,1.3 0,2.7 -0.8,3.6 -0.5,0.6 -1.2,1.1 -1.8,1.6 -0.7,0.5 -1.4,0.9 -2.1,1.4 -1.3,0.9 -2.7,1.7 -4.2,2.3 -1.3,0.6 -2.6,1 -4,1.4 0,0 -0.2,0 -0.2,-0.1 -0.6,-0.9 -1.2,-1.8 -1.8,-2.8 -0.1,-0.1 0,-0.6 0.2,-0.6 1,-0.5 2.1,-1 3.2,-1.6 0.6,-0.3 1.1,-0.7 1.6,-1.1 0.3,-0.2 0.7,-0.5 1,-0.7 0.2,-0.2 0.4,-0.4 0.6,-0.6 0.3,-0.4 0.9,-0.8 0.9,-1.3 0.1,-0.6 -0.2,-1.3 -0.2,-2 0.1,-1.9 -1.1,-3.3 -1.8,-4.8 -0.4,-1 -1.1,-2 -1.7,-2.9 -0.7,-1 -1.3,-2.1 -2,-3.1 -0.5,-0.6 -1,-1.3 -1.5,-1.9 -0.4,-0.5 -0.4,-1 0.3,-1.3 0.3,-0.2 0.6,-0.5 0.8,-0.8 1.1,-1.4 1,-3.1 0.3,-4.6 -0.6,-1.3 -1.6,-2.4 -2.4,-3.5 -0.3,-0.4 -0.7,-0.6 -1.1,-0.9 -0.5,-0.4 -1,-0.7 -1.4,-1.2 -0.6,-0.7 -1.1,-1.5 -1.7,-2.2 -0.1,-0.1 -0.2,-0.1 -0.4,-0.2 0,0.1 0,0.3 0,0.4 0.6,1.4 0.7,2.8 -0.6,3.9 -0.6,0.5 -1.1,0.9 -1.8,1.3 -2,1.2 -4,2.3 -6,3.3 -0.8,0.4 -1.6,0.8 -2.4,1.2 -0.2,0.1 -0.3,0.3 -0.5,0.5 0,0 -0.1,0 -0.2,0 -0.2,0 -0.4,-0.1 -0.5,0 -0.6,0.3 -1.1,0.6 -1.6,0.8 -1.9,0.9 -2.4,2.6 -1.3,4.3 0.7,1.1 1.4,2.2 2.1,3.4 0.9,1.4 1.8,2.8 2.7,4.2 0.3,0.5 0.8,0.9 1.2,1.4 0.2,0.3 0.1,0 0,-0.2 z m -36.8,75.9 c 2.2,0.1 4.4,0.3 6.5,0.5 1.2,0.1 2.5,0.4 3.8,0.5 1.4,0.1 2.9,0.2 4.3,0.3 0.1,0 0.3,0.3 0.3,0.4 -0.6,0.8 -1.2,1.7 -1.8,2.5 -0.4,0.5 -0.9,1.1 -1.3,1.6 -0.5,0.5 -0.9,1 -1.4,1.6 -0.8,0.9 -1.4,1.8 -3,1.4 -1.5,-0.4 -3.1,-0.3 -4.7,-0.4 -0.8,-0.1 -1.6,-0.2 -2.4,-0.3 -0.9,-0.2 -1.7,-0.4 -2.6,-0.6 -0.4,-0.1 -0.9,-0.2 -1.3,-0.3 -0.1,0 -0.3,-0.2 -0.3,-0.3 0,-0.8 -0.1,-1.6 -0.1,-2.4 0,-0.5 -0.1,-1 0,-1.5 0.1,-0.6 0.3,-1.1 0.5,-1.6 1,-1 2.2,-1.5 3.5,-1.4 z m 31,-27.4 c 0.6,0.7 0.4,1.3 -0.5,1.5 -0.5,0.1 -1,0.3 -1.5,0.4 -0.6,0.2 -1.1,0.4 -1.7,0.5 -1.5,0.3 -2.9,0.5 -4.4,0.7 -1.3,0.2 -2.6,0.4 -3.9,0.4 -1.2,0 -2.4,-0.1 -3.5,-0.2 -0.1,0 -0.4,-0.3 -0.4,-0.5 0.1,-1.5 0.8,-2.6 1.9,-3.5 0.8,-0.6 1.4,-1.4 2.3,-1.9 1.6,-0.8 3.4,-1.1 5.3,-0.9 1.3,0.1 2.5,0.6 3.9,0.9 0.8,1 1.7,1.8 2.5,2.6 z m 16.6,-32.6 c -0.8,0.8 -2.1,1.1 -3.3,1.6 -1.2,0.5 -2.4,0.8 -3.7,1.2 -1,0.3 -2.1,0.6 -3.1,0.8 -1.5,0.4 -3,0.7 -4.5,1.1 -1.1,0.3 -1.6,-0.3 -1.6,-1.7 0.1,-1.6 1.2,-2.3 2.8,-2.6 2,-0.5 4.1,-1.1 6.1,-1.7 2.1,-0.6 4.2,-1.2 6.3,-1.9 0.6,-0.2 1.2,-0.5 1.8,-0.7 0.2,-0.1 0.5,-0.1 0.8,-0.1 0,0.3 0,0.6 0,0.9 0,0 0,0.1 -0.1,0.3 -0.5,0.8 -0.7,2 -1.5,2.8 z"
             id="path734"
             style="fill:#ffffff"
             inkscape:connector-curvature="0" /><path
             d="m 654.3,332.5 c 0.8,1.3 1.7,2.5 2.7,3.7 1,1.3 2.2,2.6 3.2,4 1.2,1.5 2.4,3 3.7,4.6 0.9,1.1 1.9,2.3 2.9,3.4 0.7,0.8 1.5,1.6 2.2,2.5 0.8,1 1.6,1.9 2.3,2.9 1,1.3 2,2.7 3.1,4.1 0.3,0.3 0.9,0.4 1.4,0.5 0.1,0 0.2,-0.5 0.3,-0.8 0.2,-0.8 0.4,-1.6 0.6,-2.4 0.3,-1 0.5,-2 0.8,-3 0.1,-0.6 0.3,-1.1 0.4,-1.7 l 0.3,-1.7 c 0.1,-0.5 0.3,-1 0.4,-1.5 0.2,-1.7 0.4,-3.5 0.7,-5.2 0.3,-1.5 0.8,-2.9 1.3,-4.4 0.2,-0.7 0.5,-1.5 0.5,-2.2 0,-2.4 0,-4.9 -0.3,-7.3 -0.1,-0.9 -0.8,-1.8 -1.4,-2.5 -0.6,-0.7 -1.3,-1.2 -2,-1.9 -1.5,-1.5 -3,-2.9 -4.5,-4.3 -0.1,-0.1 -0.4,0 -0.6,0 -0.2,0 -0.4,0.1 -0.6,0 -0.3,-0.1 -0.5,-0.4 -0.7,-0.6 -1.1,-1 -2.2,-2 -3.3,-3 -0.1,-0.1 -0.4,-0.1 -0.6,-0.2 0.1,0.1 0.1,0.3 0.2,0.4 0.3,0.4 0.7,0.9 1,1.3 0.7,0.9 0.8,1.9 0.2,2.7 -0.8,1 -1.7,2 -2.7,2.7 -2,1.3 -4.2,2.4 -6.2,3.5 -1.3,0.7 -2.6,1.4 -4,2.1 -0.9,0.4 -1.6,0.9 -2.1,2.1 0.1,0.5 0.3,1.4 0.8,2.2 z m 8.8,3.7 c 1,-0.5 2.1,-0.9 3,-1.5 1.9,-1 3.8,-2 5.7,-3 0.1,0 0.3,-0.1 0.3,0 0.1,0 0.1,0.2 0.1,0.3 l -0.6,4.3 c -0.3,1.4 -0.5,2.9 -0.8,4.3 -0.5,2.2 -1,4.3 -1.6,6.5 -0.2,0.6 -0.8,0.8 -1.2,0.2 -1.3,-1.4 -2.5,-2.8 -3.8,-4.2 -0.9,-0.9 -1.8,-1.8 -2.6,-2.8 -0.5,-0.7 -0.7,-1.5 -1,-2.1 0.5,-1.1 1.5,-1.5 2.5,-2 z"
             id="path736"
             style="fill:#ffffff"
             inkscape:connector-curvature="0" /><path
             d="m 673.4,314.1 c 0.4,-1.6 0.9,-3.1 1.2,-4.6 0.1,-0.7 0.2,-1.5 0.2,-2.2 0,-0.2 -0.2,-0.4 -0.3,-0.6 -0.2,0.1 -0.4,0.2 -0.5,0.3 -1.4,1.1 -2.8,2.1 -4.3,3.2 -1.5,1 -2.9,2.1 -4.4,3.1 -1.6,1.1 -3.1,2.3 -4.5,3.4 -0.9,0.7 -0.7,1.3 0.2,2.1 0.7,0.6 1.3,1.3 1.9,2 0.1,0.1 0,0.4 0,0.4 -0.2,0 -0.5,0.1 -0.6,0 -0.7,-0.5 -1.5,-1 -2,-1.6 -1.5,-1.5 -2.9,-3.1 -4.4,-4.7 -0.9,-1 -1.9,-1.9 -2.7,-3 -1.1,-1.4 -1.1,-2 0.2,-3.3 1.2,-1.2 2.6,-2.2 4,-3.2 1.7,-1.3 3.4,-2.6 5.2,-3.9 1.6,-1.2 3.2,-2.3 4.8,-3.5 0.6,-0.4 1.1,-0.6 1.8,0.1 0.6,0.6 1.3,1 1.3,1.9 0,0 0.1,0.1 0.2,0.1 1.7,0.3 2.3,1.7 3.5,2.6 0.8,0.6 1.5,1.3 2.2,2 1.2,1.2 2.5,2.5 3.7,3.8 0.5,0.5 0.9,1 1.4,1.4 1.2,1 1.6,2.1 1.6,3.6 0.1,3.1 -1,5.9 -1.7,8.8 0,0.1 -0.4,0.2 -0.5,0.2 -0.7,-0.7 -1.3,-1.4 -1.9,-2.1 -0.5,-0.6 -1.1,-1.2 -1.6,-1.8 -0.6,-0.6 -1.1,-1.3 -1.7,-1.9 -0.6,-0.6 -1.2,-1.2 -1.8,-1.8 -0.4,-0.3 -0.4,-0.6 -0.5,-0.8 z"
             id="path738"
             style="fill:#ffffff"
             inkscape:connector-curvature="0" /><path
             d="m 657.1,345.5 c -0.3,0 -0.5,0 -0.5,0 -0.2,-0.1 -0.4,-0.3 -0.5,-0.5 -0.7,-1.1 -1.6,-0.7 -2.3,-0.1 -1.5,1.4 -3.1,2.9 -4.9,4.1 -0.5,0.3 -1.7,0.2 -2.4,-0.1 -0.8,-0.4 -1.6,-1.2 -2.2,-1.9 -1,-1.3 -1.9,-2.6 -2.8,-3.9 -0.6,-0.8 -1.3,-1.6 -2,-2.4 -0.6,-0.7 -1.1,-1.3 -1.7,-2 0,0 0,-0.1 0,-0.2 0,0 0.1,0.1 0.1,0.1 0.3,0.3 0.6,0.7 0.9,0.9 2.1,1.5 3.3,1.3 4.8,-0.2 1.2,-1.2 2.4,-2.3 3.7,-3.4 0.6,-0.5 1.9,-0.5 2.7,0.4 0.3,0.4 0.8,0.8 1.1,1.2 1.7,2.1 3.3,4.4 4.9,6.6 0.4,0.6 0.7,0.9 1.1,1.4 z"
             id="path740"
             style="fill:#ffffff"
             inkscape:connector-curvature="0" /><path
             d="m 646.3,447.5 c -0.2,-0.2 -0.4,-0.3 -0.4,-0.5 -0.2,-1.2 -1.3,-0.9 -2,-1 -0.9,0 -1.7,0.3 -2.6,0.4 -1.8,0.2 -3.5,0.5 -5.2,0.6 -0.8,0.1 -1.2,-0.7 -1.3,-1.4 -0.1,-1 -0.4,-1.9 -0.7,-2.9 -0.2,-0.9 -0.6,-1.7 -0.8,-2.5 -0.3,-1.4 -0.6,-2.8 -0.9,-4.2 -0.2,-0.9 -0.2,-1.8 -0.2,-2.7 0,0 0,-0.1 0,-0.1 0.1,0.1 0.1,0.1 0.1,0.2 0.1,0.4 0.2,0.8 0.3,1.2 0.4,1.3 1.2,1.8 2.5,1.5 0.6,-0.1 1.3,0 1.9,0 1,-0.1 2.1,-0.4 3.1,-0.6 1.2,-0.1 2.4,-0.6 3.5,0.1 0.4,0.2 0.5,0.9 0.7,1.4 0.3,1.2 0.6,2.4 0.9,3.6 0.4,1.9 0.8,3.8 1.2,5.7 0.1,0.3 0.1,0.6 0.1,0.9 0,0 -0.1,0.1 -0.2,0.3 z"
             id="path742"
             style="fill:#ffffff"
             inkscape:connector-curvature="0" /></g><g
           id="g756"
           style="fill:#ffffff"><path
             d="m 532.9,508.9 c 0.4,-1.2 1.9,-1.9 2.9,-1.6 1.7,0.6 3.4,1.3 5.2,1.9 2.4,0.8 4.8,1.6 7.2,2.3 0.2,0.1 0.6,0.3 0.6,0.5 0,0.9 -0.1,1.9 -0.3,2.7 -0.2,0.7 -0.6,1.3 -1,2 -0.5,0.9 -1.4,1.6 -2.4,1.5 -1.5,-0.2 -3,-0.5 -4.5,-1 -1.2,-0.4 -2.5,-1.1 -3.7,-1.6 -2,-0.9 -4,-1.8 -6,-2.7 -1.1,-0.5 -2.2,-1.1 -3.3,-1.7 -0.7,-0.3 -1.3,-0.6 -2,-0.9 -0.3,-0.1 -0.5,-0.3 -0.8,-0.4 -0.2,-0.1 -0.5,-0.1 -0.7,-0.3 -0.4,-0.3 -0.8,-0.5 -1,-0.9 -0.2,-0.5 -0.9,0.3 -0.9,-0.5 0,-0.1 -0.7,-0.3 -1.1,-0.4 -0.1,0 -0.3,0.1 -0.4,0.1 -1,-0.2 -1.9,0.4 -2.2,1.3 -0.1,0.3 0,0.6 -0.1,1 0,0.1 -0.3,0.1 -0.3,0.2 -0.1,0.3 -0.2,0.7 -0.3,1 -0.1,0.2 -0.3,0.4 -0.4,0.6 -0.6,1.5 -1.2,3.1 -1.8,4.6 -0.1,0.3 -0.4,0.6 -0.5,1 -0.3,0.7 -0.4,1.5 -0.7,2.1 0,0.1 -0.3,0.2 -0.5,0.1 -0.4,-0.2 -0.7,-0.5 -1,-0.8 -1,-0.7 -2.1,-1.3 -3.1,-1.9 -0.8,-0.6 -1.6,-1.2 -2.4,-1.8 -1.2,-0.8 -2.3,-1.5 -3.4,-2.3 -0.1,-0.1 -0.2,-0.1 -0.4,-0.2 0,0.1 0,0.3 -0.1,0.4 0,0.1 -0.1,0.2 -0.2,0.2 0,0 0,0 -0.1,0 0,-0.1 0.1,-0.1 0.1,-0.2 0,-0.4 0.2,-0.9 -0.5,-0.8 0,0 -0.1,-0.1 -0.2,-0.1 0,0 0,-0.1 0.1,-0.1 0.1,0 0.1,0 0.2,0 -0.1,-0.1 -0.1,-0.2 -0.2,-0.2 -1.4,-0.8 -2.8,-1.2 -4.2,-0.9 -1.1,0.2 -1.9,1.4 -1.9,2.7 0,0.7 -0.2,1.5 -0.4,2.2 -0.2,0.7 -0.6,1.3 -0.9,2 0,0 -0.1,0.1 -0.2,0 -0.4,-0.4 -0.7,-0.1 -0.9,0.3 -0.2,0.5 -0.4,0.9 -0.6,1.4 0,0.1 -0.2,0.1 -0.2,0.1 -1.2,-0.7 -2.5,-0.7 -3.8,-0.7 -2.4,-0.2 -4.1,0.7 -5.4,2.7 -0.5,0.8 -0.9,1.7 -1.3,2.6 -0.8,1.5 -1.5,3.1 -2.3,4.6 -0.2,0.4 -0.4,0.6 -0.8,0.1 -0.7,-0.7 -1.3,-1.4 -2,-2 -0.7,-0.7 -1.3,-1.4 -2,-2 -0.3,-0.3 -0.6,-0.9 -1.2,-0.5 0,0 -0.1,0 -0.2,-0.1 0,0 0,-0.1 0,-0.1 0,-0.1 0,-0.3 0,-0.3 -0.2,-0.1 -0.4,-0.1 -0.5,-0.3 -0.7,-1 -2.3,-0.8 -3,0 -0.4,0.6 -0.9,1.2 -1.3,1.9 -1.1,1.7 -2.2,3.3 -3.3,4.9 -0.2,0.3 -0.3,0.6 -0.5,0.9 -0.4,0.5 -0.9,0.9 -1.4,1.4 -0.1,0.1 -0.5,0.2 -0.6,0.1 -0.7,-0.6 -1.3,-1.3 -1.9,-1.9 -0.6,-0.5 -1.1,-1.1 -1.7,-1.6 -0.7,-0.7 -1.3,-1.4 -2,-2 -0.9,-0.8 -2,-1 -3,-0.6 -0.8,0.3 -1.6,1 -2.2,1.8 -1.3,1.5 -2.4,3.2 -3.7,4.7 -1.2,1.5 -2.4,3 -3.6,4.4 -0.1,0.1 -0.5,0.2 -0.6,0.1 -0.5,-0.6 -0.9,-1.3 -1.4,-2 -0.6,-0.9 -1.3,-1.9 -1.9,-2.8 -0.4,-0.6 -0.9,-1.1 -1.4,-1.7 -0.7,-0.9 -1.3,-1.8 -2,-2.7 -0.6,-0.8 -1.2,-1.7 -1.8,-2.5 -0.3,-0.5 -0.6,-1.2 -1,-1.5 -0.7,-0.6 -1.2,-1.5 -2.2,-1.8 -0.9,-0.3 -1.7,-0.4 -2.5,-0.1 -2,0.6 -3.2,2.4 -4.7,3.8 -1,0.9 -2.1,1.9 -3.1,3 -0.8,0.8 -1.5,1.8 -2.2,2.7 0,0.1 0,0.2 0,0.3 0.1,0 0.2,0 0.3,0 0.5,-0.5 1.1,-0.9 1.6,-1.4 1.6,-2 3.5,-1.6 4.7,-0.5 1.1,1.1 2,2.5 2.9,3.8 1.3,1.7 2.5,3.6 3.7,5.3 0.8,1.2 1.7,2.3 2.5,3.5 1.2,1.9 2.3,3.9 3.5,5.8 0.4,0.6 0.1,0.8 -0.3,0.8 -1.5,0 -2.9,-0.1 -4.4,-0.1 -0.4,0 -0.9,0.1 -1.1,0.4 -1.2,1.3 -2.4,2.6 -3.7,3.9 -0.7,0.7 -1.6,1.3 -2.3,2 -0.5,0.5 -0.9,1 -1.4,1.6 -0.1,0.1 0,0.2 -0.1,0.3 0,0 0.1,0 0.1,0 0.9,0 1.8,0 2.7,0.1 0.6,0 1.2,0.1 1.8,0.2 0.9,0 1.7,0.1 2.6,0.1 0.9,0 1.7,0 2.6,0 1.4,0 2.9,-0.2 4.3,-0.2 1.8,0 3.6,0 5.4,0 0.2,0 0.6,0.1 0.7,0.3 0.6,0.7 1.2,1.5 1.9,2.2 1.8,1.9 3.5,3.8 5.5,5.6 1.6,1.5 3.3,3.1 5.3,4.4 1.4,0.9 3.2,1.6 4.9,2.1 1.2,0.3 2.5,0.5 3.8,0.3 2.1,-0.3 4.1,-1 5.4,-2.8 0.5,-0.6 1.1,-1.2 1.5,-1.8 0.6,-0.8 1.1,-1.6 1.6,-2.4 1.1,-1.7 2.2,-3.4 3.2,-5.1 0.1,-0.2 0.2,-0.6 0.3,-0.8 -0.2,0.2 -0.5,0.4 -0.7,0.6 0,0 0,0 0,0.1 -1.3,2.3 -3.3,3.7 -6.1,3.5 -1.9,-0.1 -3.7,-0.3 -5.4,-1.3 -0.6,-0.4 -1.4,-0.6 -2,-1 -0.6,-0.4 -1.1,-0.9 -1.7,-1.3 -1.2,-1 -2.4,-2 -3.6,-3 -0.2,-0.2 -0.5,-0.8 -0.3,-1 1.1,-1.6 2.4,-3.1 3.4,-4.7 1.3,-2 2.4,-4.1 3.6,-6.1 0.8,-1.4 1.8,-2.7 2.6,-4.1 0.2,-0.3 0.2,-0.9 0.1,-1 -1.1,-1.2 -2.2,-2.3 -3.3,-3.4 -0.4,-0.4 -0.8,-0.7 -1.1,-1.1 -0.4,-0.6 -0.8,-1.2 -1.2,-1.8 -0.1,-0.1 -0.1,-0.2 0,-0.3 0.2,-0.9 1.8,-2 2.6,-1.5 1.2,0.7 2.3,1.6 3.4,2.4 0.7,0.5 1.3,1 1.9,1.6 0.2,0.2 0.3,0.7 0.6,0.9 0.5,0.6 1.1,1.2 1.6,1.7 1.6,1.6 3.3,3.4 5.1,4.8 1.2,1 2.5,1.9 3.8,2.9 0.7,0.5 1.3,0.9 2,1.4 0.7,0.4 1.3,0.8 2,1.3 1.2,0.8 2.6,1.4 4.1,1.3 1.3,-0.1 2.6,-0.6 3.8,-1.2 1.2,-0.5 2.1,-1.4 3,-2.2 1.7,-1.7 2.5,-3.9 3.5,-6 0.2,-0.5 0.3,-1 0.5,-1.4 0.9,-1.5 1.8,-3.1 2.1,-4.9 0,-0.1 -0.1,-0.2 -0.2,-0.4 -0.1,0.1 -0.2,0.1 -0.3,0.2 -0.4,0.9 -0.8,1.8 -1.2,2.7 -0.7,1.5 -2.2,2.2 -3.5,2.9 -1.1,0.6 -2.4,1 -3.7,0.5 -0.2,-0.1 -0.5,-0.5 -0.5,-0.5 0.7,-1.4 1.5,-2.8 2.1,-4.3 0.6,-1.3 1.2,-2.6 1.8,-4 0.5,-1.2 0.9,-2.4 0.5,-3.8 -0.1,-0.3 -0.3,-0.5 -0.3,-0.7 -0.1,-0.7 -0.1,-1.3 -0.3,-2 -0.2,-0.6 -0.6,-1.2 -1,-1.7 -0.3,-0.4 -0.6,-0.8 -0.9,-1.1 -0.6,-0.6 -1.1,-1.3 -1.7,-1.9 -0.1,-0.1 -0.1,-0.1 -0.2,-0.1 0.1,0 0.1,-0.1 0.2,-0.1 0.3,0 0.7,-0.1 1,0.1 1.3,0.7 2.6,1.3 3.8,2.1 2.4,1.7 4.8,3.5 7.2,5.1 1,0.7 2,1.3 3,2 1.3,0.9 2.7,1.8 4.1,2.7 0.2,0.1 0.3,0.3 0.4,0.4 -0.1,0.1 -0.2,0.3 -0.4,0.4 -1,0.4 -1.9,0.8 -2.2,2.1 -0.4,1.5 -1.3,2.8 -2,4.2 -0.7,1.4 -1.3,2.8 -2,4.2 -0.1,0.1 -0.1,0.2 -0.1,0.4 0.1,0 0.3,0 0.4,0 1,-0.4 2,-0.7 3.1,-1.1 2.1,-0.7 4.2,-1.4 6.3,-2.1 2.2,-0.7 4.4,-1.4 6.5,-2.2 0.5,-0.2 1.1,-0.3 1.5,-0.1 2,0.9 3.9,1.9 5.9,2.8 3.1,1.4 6.4,2.5 9.7,3.3 2.6,0.6 4.9,0.2 6.7,-1.8 0.8,-0.9 1.6,-1.9 2.2,-3 0.4,-0.8 0.5,-1.8 0.7,-2.8 0.5,-2.3 1,-4.5 1.4,-6.7 0,-0.2 0.1,-0.5 0.1,-0.7 0,-0.1 -0.1,-0.2 -0.1,-0.3 -0.1,0.1 -0.2,0.1 -0.3,0.2 -0.5,0.8 -0.9,1.7 -1.4,2.4 -0.7,1.1 -1.9,1.9 -3.1,1.9 -1.6,0 -3.3,-0.3 -4.9,-0.7 -1.6,-0.3 -3.1,-0.7 -4.6,-1.3 -1.3,-0.5 -2.5,-1.2 -3.8,-1.8 0,0 -0.1,-0.1 -0.1,-0.2 0.2,-1.1 0.4,-2.2 0.7,-3.2 0,-0.2 0.4,-0.4 0.6,-0.3 1.1,0.3 2.2,0.8 3.4,1.1 0.6,0.2 1.3,0.2 1.9,0.4 0.4,0.1 0.8,0.2 1.2,0.2 0.3,0 0.6,0 0.9,0 0.5,0 1.2,0 1.6,-0.2 0.5,-0.4 0.8,-1 1.3,-1.5 1.3,-1.3 1.5,-3.1 2.1,-4.7 0.4,-1 0.6,-2.2 0.8,-3.3 0.3,-1.2 0.5,-2.4 0.7,-3.6 0.1,-0.8 0.2,-1.6 0.3,-2.3 0.1,-0.6 0.4,-0.9 1.2,-0.7 0.4,0.1 0.8,0.1 1.2,0 1.8,-0.3 2.9,-1.5 3.4,-3.1 0.5,-1.3 0.6,-2.8 0.8,-4.2 0.1,-0.5 -0.1,-1 -0.1,-1.4 -0.1,-0.6 -0.2,-1.2 -0.2,-1.8 0.1,-0.9 0.3,-1.8 0.4,-2.6 0,-0.1 -0.1,-0.3 -0.1,-0.4 -0.1,0.1 -0.2,0.2 -0.3,0.3 -0.7,1.4 -1.6,2.4 -3.3,2.3 -0.7,-0.1 -1.5,-0.1 -2.2,-0.3 -2.2,-0.6 -4.4,-1.2 -6.6,-1.8 -0.9,-0.3 -1.7,-0.6 -2.6,-0.9 -0.2,-0.1 -0.5,0 -0.7,0 0,0 -0.1,0 -0.1,-0.1 -0.1,-0.1 -0.2,-0.3 -0.3,-0.4 -0.6,-0.2 -1.2,-0.4 -1.8,-0.6 -2,-0.7 -3.6,0.2 -4,2.2 -0.3,1.3 -0.6,2.6 -0.9,3.9 -0.3,1.6 -0.7,3.2 -1.1,4.8 -0.1,0.6 -0.1,1.2 -0.2,1.8 0.2,-0.8 0.3,-1 0.4,-1.3 z m -79.6,27.7 c 1.4,1.6 2.8,3.3 4.2,5 0.8,1 1.5,2.1 2.3,3.1 0.9,1.1 1.9,2.1 2.9,3.2 0.1,0.1 0,0.4 -0.1,0.5 -1,0.2 -2,0.4 -3,0.5 -1.4,0.1 -2.8,0.2 -4.2,0.2 -1.2,0.1 -2.2,0.3 -3.1,-1.1 -0.8,-1.3 -2,-2.4 -3,-3.6 -0.5,-0.6 -1,-1.3 -1.5,-1.9 -0.5,-0.7 -0.9,-1.5 -1.4,-2.2 -0.2,-0.4 -0.5,-0.8 -0.7,-1.2 0,-0.1 0,-0.3 0,-0.4 0.6,-0.6 1.1,-1.2 1.6,-1.8 0.3,-0.4 0.6,-0.8 1,-1.1 0.5,-0.3 1,-0.5 1.5,-0.8 1.5,0.2 2.6,0.6 3.5,1.6 z m 41.2,2.7 c -0.1,0.9 -0.7,1.1 -1.4,0.6 -0.4,-0.3 -0.9,-0.5 -1.3,-0.8 -0.5,-0.3 -1.1,-0.5 -1.6,-0.9 -1.2,-0.8 -2.4,-1.7 -3.6,-2.6 -1,-0.8 -2.1,-1.6 -3,-2.4 -0.9,-0.8 -1.6,-1.7 -2.4,-2.6 -0.1,-0.1 0,-0.5 0.1,-0.6 1.1,-1 2.4,-1.3 3.8,-1.2 1,0.1 2,0 2.9,0.3 1.7,0.5 3.2,1.7 4.4,3.1 0.8,1 1.4,2.2 2.1,3.5 0,1.2 0.1,2.4 0,3.6 z m 34.9,-11.4 c -1.2,-0.1 -2.3,-0.8 -3.5,-1.3 -1.2,-0.5 -2.3,-1.1 -3.4,-1.7 -0.9,-0.5 -1.9,-1.1 -2.8,-1.6 -1.3,-0.8 -2.6,-1.6 -3.9,-2.4 -1,-0.6 -1,-1.3 0.1,-2.3 1.2,-1.1 2.5,-0.8 3.8,0 1.8,1.1 3.7,2.1 5.5,3.1 1.9,1.1 3.9,2.2 5.8,3.2 0.6,0.3 1.1,0.5 1.7,0.7 0.2,0.1 0.4,0.3 0.6,0.5 -0.2,0.2 -0.4,0.4 -0.6,0.6 0,0 -0.1,0 -0.3,0.2 -0.9,0.4 -2,1 -3,1 z"
             id="path746"
             style="fill:#ffffff"
             inkscape:connector-curvature="0" /><path
             d="m 561.4,487.3 c -0.4,1.4 -0.6,3 -0.8,4.5 -0.2,1.7 -0.3,3.4 -0.5,5.1 -0.2,2 -0.4,3.9 -0.6,5.9 -0.2,1.5 -0.3,2.9 -0.5,4.4 -0.1,1.1 -0.1,2.2 -0.2,3.3 -0.1,1.2 -0.3,2.5 -0.4,3.7 -0.2,1.7 -0.5,3.4 -0.7,5.1 0,0.4 0.4,0.9 0.6,1.3 0,0 0.5,-0.2 0.7,-0.3 0.7,-0.4 1.4,-0.9 2.1,-1.3 0.9,-0.5 1.8,-1 2.6,-1.6 l 2.9,-1.9 c 0.4,-0.3 1,-0.5 1.4,-0.8 1.4,-1.1 2.7,-2.2 4.1,-3.2 1.3,-0.9 2.7,-1.5 4,-2.3 0.7,-0.4 1.4,-0.6 2,-1.2 1.7,-1.8 3.4,-3.5 4.9,-5.4 0.6,-0.7 0.7,-1.8 0.8,-2.8 0.1,-0.9 -0.1,-1.9 -0.1,-2.8 0,-2 0,-4.2 -0.1,-6.2 0,-0.1 -0.3,-0.3 -0.4,-0.5 -0.1,-0.1 -0.4,-0.2 -0.4,-0.4 -0.1,-0.3 -0.1,-0.6 -0.1,-0.9 -0.1,-1.5 -0.1,-3 -0.2,-4.4 0,-0.2 -0.2,-0.4 -0.3,-0.5 0,0.1 -0.1,0.3 -0.1,0.4 -0.1,0.5 -0.1,1.1 -0.2,1.7 -0.1,1.1 -0.7,1.9 -1.8,2.1 -1.2,0.2 -2.6,0.2 -3.8,-0.1 -2.3,-0.5 -4.6,-1.3 -6.9,-1.9 -1.4,-0.4 -2.9,-0.8 -4.3,-1.4 -1,-0.4 -1.8,-0.5 -2.9,0.1 -0.1,0.6 -0.6,1.4 -0.8,2.3 z m 3.5,8.8 c 1.1,0.3 2.1,0.8 3.2,1.1 2.1,0.7 4.1,1.3 6.1,1.9 0.1,0 0.2,0.1 0.3,0.2 0,0.1 -0.1,0.2 -0.2,0.3 l -1.7,1.3 -1.8,1.3 c -1.2,0.8 -2.4,1.7 -3.6,2.5 -1.9,1.2 -3.8,2.4 -5.7,3.5 -0.6,0.3 -1.1,0 -1.1,-0.7 0.1,-0.9 0.1,-1.8 0.2,-2.8 l 0.1,-2.8 c 0,-1.3 0,-2.6 0.1,-3.8 0.1,-0.8 0.6,-1.6 0.8,-2.1 1.3,-0.7 2.3,-0.2 3.3,0.1 z"
             id="path748"
             style="fill:#ffffff"
             inkscape:connector-curvature="0" /><path
             d="m 587.8,487.8 c 1.4,-0.8 2.8,-1.5 4.1,-2.4 0.6,-0.4 1.1,-0.9 1.7,-1.4 0.1,-0.1 0.2,-0.4 0.3,-0.6 -0.2,-0.1 -0.4,-0.1 -0.5,-0.2 -1.8,-0.2 -3.5,-0.5 -5.3,-0.8 -1.8,-0.3 -3.5,-0.6 -5.3,-0.9 -1.9,-0.3 -3.8,-0.6 -5.6,-0.7 -1.1,-0.1 -1.4,0.5 -1.3,1.6 0.1,0.9 0,1.9 -0.1,2.8 0,0.1 -0.3,0.3 -0.3,0.3 -0.2,-0.1 -0.4,-0.3 -0.5,-0.5 -0.1,-0.8 -0.3,-1.7 -0.3,-2.6 0,-2.2 0.1,-4.3 0.2,-6.4 0,-1.4 0,-2.7 0.2,-4 0.2,-1.8 0.6,-2.2 2.5,-2.2 1.6,0 3.4,0.3 5.1,0.5 2.1,0.3 4.3,0.6 6.4,0.9 1.9,0.3 3.9,0.6 5.9,0.9 0.7,0.1 1.2,0.3 1.2,1.3 0,0.8 0.2,1.6 -0.4,2.3 0,0 0,0.2 0,0.2 1,1.4 0.5,2.8 0.6,4.3 0.1,1 0.1,2 0.1,3 0,1.7 0,3.5 0,5.3 0,0.7 -0.1,1.3 0,2 0.1,1.5 -0.4,2.6 -1.4,3.7 -2.1,2.3 -4.8,3.5 -7.4,5 -0.1,0 -0.4,-0.2 -0.4,-0.2 0,-1 0.1,-1.9 0.1,-2.9 0,-0.8 0,-1.6 0.1,-2.4 0,-0.9 0.2,-1.7 0.2,-2.5 0,-0.8 0,-1.7 0,-2.5 -0.2,-0.5 0,-0.7 0.1,-0.9 z"
             id="path750"
             style="fill:#ffffff"
             inkscape:connector-curvature="0" /><path
             d="m 554,498.4 c -0.2,-0.2 -0.4,-0.3 -0.4,-0.4 0,-0.2 -0.1,-0.5 0,-0.7 0.3,-1.3 -0.6,-1.7 -1.6,-1.7 -2.1,-0.1 -4.2,-0.1 -6.3,-0.5 -0.6,-0.1 -1.3,-1.1 -1.6,-1.8 -0.3,-0.9 -0.3,-1.9 -0.2,-2.9 0.2,-1.6 0.5,-3.2 0.7,-4.8 0.1,-1 0.2,-2 0.3,-3 0.1,-0.8 0.2,-1.7 0.2,-2.6 0,-0.1 0.1,-0.1 0.1,-0.1 0,0.1 0,0.1 0,0.2 0,0.4 -0.1,0.9 0,1.3 0.4,2.5 1.4,3.2 3.6,3.2 1.6,0 3.3,0 5,0.1 0.8,0 1.7,0.9 1.6,2.2 -0.1,0.5 0,1.1 -0.1,1.7 -0.3,2.7 -0.7,5.5 -1.2,8.2 0,0.6 0,1 -0.1,1.6 z"
             id="path752"
             style="fill:#ffffff"
             inkscape:connector-curvature="0" /><path
             d="m 474.3,562.9 c 0,-0.3 0,-0.5 0.1,-0.6 0.7,-1 -0.2,-1.6 -0.7,-2.1 -0.6,-0.6 -1.5,-1.1 -2.2,-1.6 -1.4,-1.1 -2.8,-2.1 -4.2,-3.2 -0.6,-0.5 -0.4,-1.4 0.1,-2 0.6,-0.8 1.1,-1.7 1.6,-2.5 0.4,-0.8 0.8,-1.6 1.2,-2.3 0.8,-1.2 1.6,-2.3 2.4,-3.5 0.5,-0.8 1.2,-1.4 1.7,-2.1 0,0 0.1,0 0.1,-0.1 0,0.1 0,0.2 0,0.2 -0.2,0.4 -0.4,0.7 -0.6,1.1 -0.6,1.2 -0.4,2.1 0.7,2.9 0.5,0.4 0.9,0.9 1.4,1.3 0.8,0.6 1.7,1.1 2.6,1.8 0.9,0.7 2.1,1.2 2.4,2.5 0.1,0.4 -0.3,1 -0.5,1.5 -0.6,1.1 -1.3,2.1 -1.9,3.2 -1,1.6 -2.1,3.3 -3.2,4.9 -0.2,0.2 -0.3,0.5 -0.6,0.7 0,0 -0.2,-0.1 -0.4,-0.1 z"
             id="path754"
             style="fill:#ffffff"
             inkscape:connector-curvature="0" /></g><g
           id="g768"
           style="fill:#ffffff"><path
             d="m 350.7,526.3 c 1.2,-0.6 2.7,-0.1 3.2,0.8 0.7,1.7 1.5,3.4 2.4,5 1.1,2.3 2.3,4.6 3.5,6.8 0.1,0.2 0.2,0.6 0.1,0.7 -0.7,0.6 -1.4,1.3 -2.1,1.8 -0.6,0.4 -1.4,0.5 -2.1,0.7 -1,0.3 -2.1,0.1 -2.7,-0.7 -0.9,-1.2 -1.7,-2.5 -2.4,-3.9 -0.6,-1.2 -1,-2.5 -1.5,-3.7 -0.8,-2 -1.6,-4.1 -2.3,-6.2 -0.4,-1.2 -0.8,-2.4 -1.2,-3.6 -0.2,-0.7 -0.5,-1.4 -0.8,-2.1 -0.1,-0.3 -0.2,-0.6 -0.3,-0.9 -0.1,-0.3 -0.3,-0.5 -0.3,-0.7 -0.1,-0.4 -0.2,-0.9 0,-1.3 0.2,-0.5 -0.8,-0.4 -0.3,-1 0.1,-0.1 -0.3,-0.7 -0.6,-1 -0.1,-0.1 -0.3,-0.1 -0.4,-0.2 -0.6,-0.8 -1.7,-1 -2.5,-0.5 -0.3,0.2 -0.5,0.4 -0.7,0.6 -0.1,0 -0.2,-0.1 -0.3,-0.1 -0.3,0.1 -0.6,0.4 -0.9,0.5 -0.2,0.1 -0.5,0.1 -0.7,0.1 -1.5,0.6 -3,1.3 -4.5,2 -0.3,0.1 -0.7,0.2 -1.1,0.3 -0.7,0.3 -1.3,0.7 -2,1 -0.1,0 -0.4,-0.1 -0.4,-0.2 -0.1,-0.4 -0.1,-0.8 -0.2,-1.2 -0.3,-1.2 -0.6,-2.3 -0.8,-3.5 -0.2,-1 -0.3,-2 -0.4,-3 -0.3,-1.4 -0.5,-2.7 -0.8,-4.1 0,-0.1 -0.1,-0.3 -0.1,-0.4 -0.1,0.1 -0.2,0.1 -0.3,0.2 -0.1,0 -0.2,0 -0.3,0 0,0 0,0 0,-0.1 0.1,0 0.1,0 0.2,-0.1 0.2,-0.3 0.7,-0.5 0.2,-0.9 0,0 0,-0.1 0,-0.2 0,0 0.1,0 0.1,0 0.1,0 0.1,0.1 0.1,0.2 0,-0.1 0,-0.2 0,-0.3 -0.4,-1.6 -1,-2.9 -2.3,-3.7 -0.9,-0.6 -2.4,-0.2 -3.2,0.7 -0.5,0.5 -1.2,0.9 -1.8,1.2 -0.7,0.3 -1.4,0.5 -2.1,0.7 0,0 -0.1,-0.1 -0.1,-0.1 0,-0.6 -0.4,-0.6 -0.8,-0.5 -0.5,0.2 -1,0.3 -1.4,0.5 -0.1,0 -0.2,0 -0.2,-0.1 -0.4,-1.4 -1.3,-2.3 -2.2,-3.2 -0.8,-0.9 -1.7,-1.4 -2.6,-1.7 -1,-0.3 -2,-0.4 -3.2,-0.1 -0.9,0.2 -1.8,0.6 -2.8,0.9 -1.6,0.5 -3.3,1.1 -4.9,1.6 -0.4,0.1 -0.7,0.1 -0.7,-0.5 0,-0.9 0,-1.9 0,-2.8 0,-0.9 0,-1.9 -0.1,-2.8 0,-0.4 0.2,-1.1 -0.5,-1.2 0,0 0,-0.1 -0.1,-0.2 0,0 0.1,0 0.1,-0.1 0.1,-0.1 0.2,-0.2 0.2,-0.2 0,-0.2 -0.2,-0.4 -0.2,-0.6 0.2,-1.2 -1.1,-2.2 -2.1,-2.1 -0.7,0.1 -1.5,0.2 -2.2,0.4 -1.9,0.4 -3.9,0.8 -5.8,1.2 -0.3,0.1 -0.6,0.3 -0.9,0.3 -0.6,0 -1.3,0 -1.9,0 -0.2,0 -0.5,-0.2 -0.5,-0.4 0,-0.9 0,-1.8 0,-2.7 0,-0.8 0,-1.6 0,-2.3 0,-0.9 0,-1.9 0,-2.8 -0.1,-1.3 -0.7,-2.2 -1.7,-2.6 -0.8,-0.3 -1.9,-0.4 -2.8,-0.3 -1.9,0.2 -3.9,0.5 -5.9,0.7 -1.9,0.2 -3.8,0.4 -5.7,0.5 -0.2,0 -0.5,-0.3 -0.5,-0.4 0.1,-0.8 0.2,-1.6 0.4,-2.3 0.2,-1.1 0.4,-2.2 0.6,-3.3 0.1,-0.7 0.1,-1.5 0.2,-2.2 0.2,-1.1 0.4,-2.2 0.5,-3.3 0.2,-1 0.3,-2 0.5,-3 0.1,-0.6 0.4,-1.2 0.4,-1.7 -0.1,-0.9 0.2,-1.9 -0.3,-2.8 -0.4,-0.9 -1,-1.4 -1.7,-1.8 -1.8,-1 -4,-0.5 -6.1,-0.7 -1.4,-0.1 -2.8,-0.1 -4.2,-0.1 -1.1,0 -2.3,0.2 -3.5,0.3 -0.1,0 -0.1,0.1 -0.2,0.2 0.1,0.1 0.1,0.2 0.2,0.2 0.7,0.1 1.4,0.2 2.1,0.1 2.6,-0.3 3.7,1.4 3.7,3 0,1.5 -0.3,3.2 -0.6,4.8 -0.4,2.1 -0.7,4.2 -1.1,6.4 -0.2,1.4 -0.4,2.8 -0.8,4.2 -0.5,2.2 -1.1,4.4 -1.6,6.6 -0.1,0.6 -0.5,0.6 -0.8,0.3 -1,-1.1 -2,-2.2 -3,-3.2 -0.3,-0.3 -0.7,-0.5 -1.1,-0.5 -1.8,0.1 -3.6,0.1 -5.4,0.1 -1,0 -2,-0.2 -3,-0.2 -0.7,0 -1.4,0.1 -2.1,0.1 -0.1,0 -0.2,0.1 -0.2,0.1 0,0 0.1,0.1 0.1,0.1 0.6,0.7 1.3,1.3 1.9,2 0.4,0.4 0.8,0.9 1.2,1.4 1.1,1.3 2.4,2.5 3.6,3.7 1,1 2.1,1.9 3.2,2.9 1.3,1.3 2.6,2.6 3.8,3.8 0.2,0.2 0.3,0.5 0.3,0.7 0,0.9 -0.2,1.9 -0.2,2.8 -0.1,2.6 -0.2,5.2 -0.1,7.9 0.1,2.3 0.2,4.6 0.6,6.8 0.3,1.7 1.2,3.3 2,4.8 0.6,1.1 1.5,2.1 2.4,2.9 1.7,1.3 3.6,2.2 5.8,1.9 0.8,-0.1 1.6,-0.1 2.4,-0.2 1,-0.2 1.9,-0.4 2.8,-0.6 2,-0.4 3.9,-0.9 5.9,-1.3 0.3,-0.1 0.5,-0.3 0.8,-0.4 -0.3,0 -0.6,-0.1 -0.9,-0.1 0,0 -0.1,0 -0.1,0 -2.6,0.7 -4.9,0.2 -6.8,-1.8 -1.3,-1.4 -2.4,-2.9 -2.9,-4.8 -0.2,-0.7 -0.5,-1.4 -0.7,-2.1 -0.2,-0.7 -0.2,-1.4 -0.2,-2.1 -0.2,-1.6 -0.3,-3.1 -0.4,-4.7 0,-0.3 0.3,-0.9 0.5,-0.9 1.9,-0.3 3.8,-0.5 5.7,-0.9 2.3,-0.5 4.6,-1.2 6.8,-1.7 0.8,-0.2 1.6,-0.4 2.4,-0.5 0.8,-0.2 1.6,-0.4 2.4,-0.6 0.3,-0.1 0.8,-0.5 0.8,-0.7 0.1,-1.6 0,-3.1 0.1,-4.7 0,-0.5 0,-1 0,-1.6 0.1,-0.7 0.2,-1.4 0.4,-2.1 0,-0.1 0.1,-0.2 0.2,-0.3 0.8,-0.5 2.7,0 2.9,0.8 0.3,1.3 0.5,2.7 0.7,4 0.1,0.8 0.2,1.7 0.2,2.5 0,0.3 -0.2,0.7 -0.2,1.1 -0.1,0.8 -0.1,1.6 -0.1,2.4 0,2.3 -0.1,4.7 0.1,7 0.1,0.8 0.2,1.6 0.3,2.4 0.1,0.8 0.3,1.5 0.4,2.3 0.3,1.5 0.6,3.1 1,4.6 0.3,1.4 0.8,2.9 2,3.9 1,0.9 2.2,1.4 3.5,1.9 1.2,0.5 2.5,0.4 3.7,0.4 2.4,0 4.5,-0.9 6.7,-1.7 0.5,-0.2 0.9,-0.5 1.4,-0.6 1.7,-0.4 3.4,-0.9 4.9,-2 0.1,-0.1 0.1,-0.3 0.1,-0.4 -0.1,0 -0.3,0 -0.4,0 -0.9,0.3 -1.9,0.7 -2.8,1 -1.6,0.5 -3.1,-0.1 -4.5,-0.5 -1.2,-0.4 -2.4,-1 -3,-2.3 -0.1,-0.2 0,-0.7 0,-0.7 1.5,-0.5 3,-1 4.6,-1.5 1.4,-0.5 2.7,-1 4.1,-1.5 1.2,-0.5 2.3,-1 3,-2.3 0.1,-0.2 0.1,-0.5 0.3,-0.7 0.4,-0.5 0.9,-1 1.2,-1.6 0.3,-0.6 0.4,-1.3 0.5,-1.9 0.1,-0.5 0.2,-0.9 0.2,-1.4 0,-0.9 0.1,-1.7 0.1,-2.6 0,-0.1 0,-0.1 0,-0.2 0.1,0 0.2,0 0.2,0 0.2,0.2 0.6,0.5 0.7,0.8 0.4,1.4 0.9,2.8 1.1,4.2 0.5,2.8 1,5.8 1.5,8.7 0.2,1.2 0.5,2.4 0.7,3.5 0.3,1.6 0.6,3.2 0.9,4.8 0,0.2 0,0.4 0,0.6 -0.2,0 -0.4,0 -0.5,0 -1,-0.4 -1.9,-0.7 -3.1,-0.1 -1.4,0.7 -2.9,1 -4.4,1.6 -1.4,0.5 -2.9,1.1 -4.4,1.6 -0.1,0 -0.2,0.1 -0.3,0.2 0.1,0.1 0.2,0.2 0.3,0.3 1,0.4 2,0.8 3,1.3 2,1 3.9,2 5.8,3.1 2,1.1 4.1,2 6.2,3 0.4,0.2 1,0.6 1.1,1.1 0.8,2 1.4,4.1 2.2,6.2 1.1,3.3 2.8,6.2 4.6,9.1 1.4,2.2 3.3,3.6 6,3.5 0.6,0 1.2,-0.1 1.8,-0.1 0.6,-0.1 1.2,-0.2 1.8,-0.4 0.9,-0.3 1.7,-1 2.5,-1.5 1.9,-1.2 3.9,-2.5 5.7,-3.7 0.2,-0.1 0.4,-0.3 0.6,-0.4 0.1,-0.1 0.1,-0.2 0.1,-0.3 -0.1,0 -0.2,-0.1 -0.3,-0.1 -0.9,0.2 -1.8,0.5 -2.7,0.7 -1.3,0.3 -2.7,0 -3.6,-0.8 -0.6,-0.5 -1.1,-1.2 -1.6,-1.8 -0.5,-0.7 -0.9,-1.4 -1.4,-2.1 -0.9,-1.3 -1.7,-2.7 -2.3,-4.2 -0.6,-1.3 -1,-2.6 -1.4,-4 0,0 0,-0.2 0.1,-0.2 0.9,-0.6 1.8,-1.2 2.8,-1.8 0.1,-0.1 0.6,0 0.6,0.2 0.5,1 1,2.1 1.6,3.2 0.3,0.6 0.7,1.1 1.1,1.6 0.2,0.3 0.5,0.7 0.7,1 0.2,0.2 0.4,0.4 0.6,0.6 0.4,0.3 0.8,0.9 1.3,0.9 0.6,0.1 1.3,-0.2 2,-0.2 1.9,0.1 3.3,-1.1 4.8,-1.8 1,-0.4 2,-1.1 2.9,-1.7 1,-0.7 2.1,-1.3 3.1,-2 0.6,-0.5 1.3,-1 1.9,-1.5 0.5,-0.4 1,-0.4 1.3,0.3 0.2,0.3 0.5,0.6 0.8,0.8 1.4,1.1 3.1,1 4.6,0.3 1.3,-0.6 2.4,-1.6 3.5,-2.4 0.4,-0.3 0.6,-0.7 0.9,-1.1 0.4,-0.5 0.7,-1 1.2,-1.4 0.7,-0.6 1.5,-1.1 2.2,-1.7 0.1,-0.1 0.1,-0.2 0.2,-0.4 -0.1,0 -0.3,0 -0.4,0 -1.4,0.6 -2.8,0.7 -3.9,-0.6 -0.5,-0.6 -0.9,-1.1 -1.3,-1.8 -1.2,-2 -2.3,-4 -3.3,-6 -0.4,-0.8 -0.8,-1.6 -1.2,-2.4 -0.1,-0.2 -0.3,-0.3 -0.5,-0.5 0,0 0,-0.1 0,-0.2 0,-0.2 0.1,-0.4 0,-0.5 -0.3,-0.6 -0.6,-1.1 -0.8,-1.6 -0.9,-1.9 -2.6,-2.4 -4.3,-1.3 -1.1,0.7 -2.2,1.4 -3.4,2.1 -1.4,0.9 -2.8,1.8 -4.2,2.7 -0.5,0.3 -0.9,0.8 -1.4,1.2 -0.3,0.2 0,0.1 0.2,0 z m -75.9,-36.8 c -0.1,2.2 -0.3,4.4 -0.5,6.5 -0.1,1.2 -0.4,2.5 -0.5,3.8 -0.1,1.4 -0.2,2.9 -0.3,4.3 0,0.1 -0.3,0.3 -0.4,0.3 -0.8,-0.6 -1.7,-1.2 -2.5,-1.8 -0.5,-0.4 -1.1,-0.9 -1.6,-1.3 -0.5,-0.5 -1,-0.9 -1.6,-1.4 -0.9,-0.8 -1.8,-1.4 -1.4,-3 0.4,-1.5 0.3,-3.1 0.4,-4.7 0.1,-0.8 0.2,-1.6 0.3,-2.4 0.2,-0.9 0.4,-1.7 0.6,-2.6 0.1,-0.4 0.2,-0.9 0.3,-1.3 0,-0.1 0.2,-0.3 0.3,-0.3 0.8,0 1.6,-0.1 2.4,-0.1 0.5,0 1,-0.1 1.5,0 0.6,0.1 1.1,0.3 1.6,0.5 1,1 1.5,2.2 1.4,3.5 z m 27.3,31 c -0.7,0.6 -1.3,0.4 -1.5,-0.5 -0.1,-0.5 -0.3,-1 -0.4,-1.5 -0.2,-0.6 -0.4,-1.1 -0.5,-1.7 -0.3,-1.5 -0.5,-2.9 -0.7,-4.4 -0.2,-1.3 -0.4,-2.6 -0.4,-3.9 0,-1.2 0.1,-2.4 0.2,-3.5 0,-0.1 0.3,-0.4 0.5,-0.4 1.5,0.1 2.6,0.8 3.5,1.9 0.6,0.8 1.4,1.4 1.9,2.3 0.8,1.6 1.1,3.4 0.9,5.3 -0.1,1.3 -0.6,2.5 -0.9,3.9 -0.9,0.8 -1.7,1.7 -2.6,2.5 z m 32.7,16.6 c -0.8,-0.8 -1.1,-2.1 -1.6,-3.3 -0.5,-1.2 -0.8,-2.4 -1.2,-3.7 -0.3,-1 -0.6,-2.1 -0.8,-3.1 -0.4,-1.5 -0.7,-3 -1.1,-4.5 -0.3,-1.1 0.3,-1.6 1.7,-1.6 1.6,0.1 2.3,1.2 2.6,2.8 0.5,2 1.1,4.1 1.7,6.1 0.6,2.1 1.2,4.2 1.9,6.3 0.2,0.6 0.5,1.2 0.7,1.8 0.1,0.2 0.1,0.5 0.1,0.8 -0.3,0 -0.6,0 -0.9,0 0,0 -0.1,0 -0.3,-0.1 -0.8,-0.5 -2.1,-0.7 -2.8,-1.5 z"
             id="path758"
             style="fill:#ffffff"
             inkscape:connector-curvature="0" /><path
             d="m 386.1,531 c -1.3,0.8 -2.5,1.7 -3.7,2.7 -1.3,1 -2.6,2.2 -4,3.2 -1.5,1.2 -3,2.4 -4.6,3.7 -1.1,0.9 -2.3,1.9 -3.4,2.9 -0.8,0.7 -1.6,1.5 -2.5,2.2 -1,0.8 -1.9,1.6 -2.9,2.3 -1.3,1 -2.7,2 -4.1,3.1 -0.3,0.3 -0.4,0.9 -0.5,1.4 0,0.1 0.5,0.2 0.8,0.3 0.8,0.2 1.6,0.4 2.4,0.6 1,0.3 2,0.5 3,0.8 0.6,0.1 1.1,0.3 1.7,0.4 l 1.7,0.3 c 0.5,0.1 1,0.3 1.5,0.4 1.7,0.2 3.5,0.4 5.2,0.7 1.5,0.3 2.9,0.8 4.4,1.3 0.7,0.2 1.5,0.5 2.2,0.5 2.4,0 4.9,0 7.3,-0.3 0.9,-0.1 1.8,-0.8 2.5,-1.4 0.7,-0.6 1.2,-1.3 1.9,-2 1.5,-1.5 2.9,-3 4.3,-4.5 0.1,-0.1 0,-0.4 0,-0.6 0,-0.2 -0.1,-0.4 0,-0.6 0.1,-0.3 0.4,-0.5 0.6,-0.7 1,-1.1 2,-2.2 3,-3.3 0.1,-0.1 0.1,-0.4 0.2,-0.6 -0.1,0.1 -0.3,0.1 -0.4,0.2 -0.4,0.3 -0.9,0.7 -1.3,1 -0.9,0.7 -1.9,0.8 -2.7,0.2 -1,-0.8 -2,-1.7 -2.7,-2.7 -1.3,-2 -2.4,-4.2 -3.5,-6.2 -0.7,-1.3 -1.4,-2.6 -2.1,-4 -0.4,-0.9 -0.9,-1.6 -2.1,-2.1 -0.5,0.1 -1.4,0.3 -2.2,0.8 z m -3.7,8.8 c 0.5,1 0.9,2.1 1.5,3 1,1.9 2,3.8 3,5.7 0,0.1 0.1,0.3 0,0.3 0,0.1 -0.2,0.1 -0.3,0.1 l -4.3,-0.6 c -1.4,-0.3 -2.9,-0.5 -4.3,-0.8 -2.2,-0.5 -4.3,-1 -6.5,-1.6 -0.6,-0.2 -0.8,-0.8 -0.2,-1.2 1.4,-1.3 2.8,-2.5 4.2,-3.8 0.9,-0.9 1.8,-1.8 2.8,-2.6 0.7,-0.5 1.5,-0.7 2.1,-1 1.1,0.5 1.5,1.5 2,2.5 z"
             id="path760"
             style="fill:#ffffff"
             inkscape:connector-curvature="0" /><path
             d="m 404.5,550.1 c 1.6,0.4 3.1,0.9 4.6,1.2 0.7,0.1 1.5,0.2 2.2,0.2 0.2,0 0.4,-0.2 0.6,-0.3 -0.1,-0.2 -0.2,-0.4 -0.3,-0.5 -1.1,-1.4 -2.1,-2.8 -3.2,-4.3 -1,-1.5 -2.1,-2.9 -3.1,-4.4 -1.1,-1.6 -2.3,-3.1 -3.4,-4.5 -0.7,-0.9 -1.3,-0.7 -2.1,0.2 -0.6,0.7 -1.3,1.3 -2,1.9 -0.1,0.1 -0.4,0 -0.4,0 0,-0.2 -0.1,-0.5 0,-0.6 0.5,-0.7 1,-1.5 1.6,-2 1.5,-1.5 3.1,-2.9 4.7,-4.4 1,-0.9 1.9,-1.9 3,-2.7 1.4,-1.1 2,-1.1 3.3,0.2 1.2,1.2 2.2,2.6 3.2,4 1.3,1.7 2.6,3.4 3.9,5.2 1.2,1.6 2.3,3.2 3.5,4.8 0.4,0.6 0.6,1.1 -0.1,1.8 -0.6,0.6 -1,1.3 -1.9,1.3 0,0 -0.1,0.1 -0.1,0.2 -0.3,1.7 -1.7,2.3 -2.6,3.5 -0.6,0.8 -1.3,1.5 -2,2.2 -1.2,1.2 -2.5,2.5 -3.8,3.7 -0.5,0.5 -1,0.9 -1.4,1.4 -1,1.2 -2.1,1.6 -3.6,1.6 -3.1,0.1 -5.9,-1 -8.8,-1.7 -0.1,0 -0.2,-0.4 -0.2,-0.5 0.7,-0.7 1.4,-1.3 2.1,-1.9 0.6,-0.5 1.2,-1.1 1.8,-1.6 0.6,-0.6 1.3,-1.1 1.9,-1.7 0.6,-0.6 1.2,-1.2 1.8,-1.8 0.3,-0.4 0.6,-0.4 0.8,-0.5 z"
             id="path762"
             style="fill:#ffffff"
             inkscape:connector-curvature="0" /><path
             d="m 373.1,533.8 c 0,-0.3 0,-0.5 0,-0.5 0.1,-0.2 0.3,-0.4 0.5,-0.5 1.1,-0.7 0.7,-1.6 0.1,-2.3 -1.4,-1.5 -2.9,-3.1 -4.1,-4.9 -0.3,-0.5 -0.2,-1.7 0.1,-2.4 0.4,-0.8 1.2,-1.6 1.9,-2.2 1.3,-1 2.6,-1.9 3.9,-2.8 0.8,-0.6 1.6,-1.3 2.4,-2 0.7,-0.6 1.3,-1.1 2,-1.7 0,0 0.1,0 0.2,0 0,0 -0.1,0.1 -0.1,0.1 -0.3,0.3 -0.7,0.6 -0.9,0.9 -1.5,2.1 -1.3,3.3 0.2,4.8 1.2,1.2 2.3,2.4 3.4,3.7 0.5,0.6 0.5,1.9 -0.4,2.7 -0.4,0.3 -0.8,0.8 -1.2,1.1 -2.1,1.7 -4.4,3.3 -6.6,4.9 -0.6,0.4 -0.9,0.7 -1.4,1.1 z"
             id="path764"
             style="fill:#ffffff"
             inkscape:connector-curvature="0" /><path
             d="m 271.1,522.9 c 0.2,-0.2 0.3,-0.4 0.5,-0.4 1.2,-0.2 0.9,-1.3 1,-2 0,-0.9 -0.3,-1.7 -0.4,-2.6 -0.2,-1.8 -0.5,-3.5 -0.6,-5.2 -0.1,-0.8 0.7,-1.2 1.4,-1.3 1,-0.1 1.9,-0.4 2.9,-0.7 0.9,-0.2 1.7,-0.6 2.5,-0.8 1.4,-0.3 2.8,-0.6 4.2,-0.9 0.9,-0.2 1.8,-0.2 2.7,-0.2 0,0 0.1,0 0.1,0 -0.1,0.1 -0.1,0.1 -0.2,0.1 -0.4,0.1 -0.8,0.2 -1.2,0.3 -1.3,0.4 -1.8,1.2 -1.5,2.5 0.1,0.6 0,1.3 0,1.9 0.1,1 0.4,2.1 0.6,3.1 0.1,1.2 0.6,2.4 -0.1,3.5 -0.2,0.4 -0.9,0.5 -1.4,0.7 -1.2,0.3 -2.4,0.6 -3.6,0.9 -1.9,0.4 -3.8,0.8 -5.7,1.2 -0.3,0.1 -0.6,0.1 -0.9,0.1 -0.1,0.1 -0.2,-0.1 -0.3,-0.2 z"
             id="path766"
             style="fill:#ffffff"
             inkscape:connector-curvature="0" /></g><g
           id="g780"
           style="fill:#ffffff"><path
             d="m 209.6,409.6 c 1.2,0.4 1.9,1.9 1.6,2.9 -0.6,1.7 -1.3,3.4 -1.9,5.2 -0.8,2.4 -1.6,4.8 -2.3,7.2 -0.1,0.2 -0.3,0.6 -0.5,0.6 -0.9,0 -1.9,-0.1 -2.7,-0.3 -0.7,-0.2 -1.3,-0.6 -2,-1 -0.9,-0.5 -1.6,-1.4 -1.5,-2.4 0.2,-1.5 0.5,-3 1,-4.5 0.4,-1.2 1.1,-2.5 1.6,-3.7 0.9,-2 1.8,-4 2.7,-6 0.5,-1.1 1.1,-2.2 1.7,-3.3 0.3,-0.7 0.6,-1.3 0.9,-2 0.1,-0.3 0.3,-0.5 0.4,-0.8 0.1,-0.2 0.1,-0.5 0.3,-0.7 0.3,-0.4 0.5,-0.8 0.9,-1 0.5,-0.2 -0.3,-0.9 0.5,-0.9 0.1,0 0.3,-0.7 0.4,-1.1 0,-0.1 -0.1,-0.3 -0.1,-0.4 0.2,-1 -0.4,-1.9 -1.3,-2.2 -0.3,-0.1 -0.6,0 -1,-0.1 -0.1,0 -0.1,-0.3 -0.2,-0.3 -0.3,-0.1 -0.7,-0.2 -1,-0.3 -0.2,-0.1 -0.4,-0.3 -0.6,-0.4 -1.5,-0.6 -3.1,-1.2 -4.6,-1.8 -0.3,-0.1 -0.6,-0.4 -1,-0.5 -0.7,-0.3 -1.5,-0.4 -2.1,-0.7 -0.1,0 -0.2,-0.3 -0.1,-0.5 0.2,-0.4 0.5,-0.7 0.8,-1 0.7,-1 1.3,-2.1 1.9,-3.1 0.6,-0.8 1.2,-1.6 1.8,-2.4 0.8,-1.2 1.5,-2.3 2.3,-3.4 0.1,-0.1 0.1,-0.2 0.2,-0.4 -0.1,0 -0.3,0 -0.4,-0.1 -0.1,0 -0.2,-0.1 -0.2,-0.2 0,0 0,0 0,-0.1 0.1,0 0.1,0.1 0.2,0.1 0.4,0 0.9,0.2 0.8,-0.5 0,0 0.1,-0.1 0.1,-0.2 0,0 0.1,0 0.1,0.1 0,0.1 0,0.1 0,0.2 0.1,-0.1 0.2,-0.1 0.2,-0.2 0.8,-1.4 1.2,-2.8 0.9,-4.2 -0.2,-1.1 -1.4,-1.9 -2.7,-1.9 -0.7,0 -1.5,-0.2 -2.2,-0.4 -0.7,-0.2 -1.3,-0.6 -2,-0.9 0,0 -0.1,-0.1 0,-0.2 0.4,-0.4 0.1,-0.7 -0.3,-0.9 -0.5,-0.2 -0.9,-0.4 -1.4,-0.6 -0.1,0 -0.1,-0.2 -0.1,-0.2 0.7,-1.2 0.7,-2.5 0.7,-3.8 0.2,-2.4 -0.7,-4.1 -2.7,-5.4 -0.8,-0.5 -1.7,-0.9 -2.6,-1.3 -1.5,-0.8 -3.1,-1.5 -4.6,-2.3 -0.4,-0.2 -0.6,-0.4 -0.1,-0.8 0.7,-0.7 1.4,-1.3 2,-2 0.7,-0.7 1.4,-1.3 2,-2 0.3,-0.3 0.9,-0.6 0.5,-1.2 0,0 0,-0.1 0.1,-0.2 0,0 0.1,0 0.1,0 0.1,0 0.3,0 0.3,0 0.1,-0.2 0.1,-0.4 0.3,-0.5 1,-0.7 0.8,-2.3 0,-3 -0.6,-0.4 -1.2,-0.9 -1.9,-1.3 -1.7,-1.1 -3.3,-2.2 -4.9,-3.3 -0.3,-0.2 -0.6,-0.3 -0.9,-0.5 -0.5,-0.4 -0.9,-0.9 -1.4,-1.4 -0.1,-0.1 -0.2,-0.5 -0.1,-0.6 0.6,-0.7 1.3,-1.3 1.9,-1.9 0.5,-0.6 1.1,-1.1 1.6,-1.7 0.7,-0.7 1.4,-1.3 2,-2 0.8,-0.9 1,-2 0.6,-3 -0.3,-0.8 -1,-1.6 -1.8,-2.2 -1.5,-1.3 -3.2,-2.4 -4.7,-3.7 -1.5,-1.2 -3,-2.4 -4.4,-3.6 -0.1,-0.1 -0.2,-0.5 -0.1,-0.6 0.6,-0.5 1.3,-0.9 2,-1.4 0.9,-0.6 1.9,-1.3 2.8,-1.9 0.6,-0.4 1.1,-0.9 1.7,-1.4 0.9,-0.7 1.8,-1.3 2.7,-2 0.8,-0.6 1.7,-1.2 2.5,-1.8 0.5,-0.3 1.2,-0.6 1.5,-1 0.6,-0.7 1.5,-1.2 1.8,-2.2 0.3,-0.9 0.4,-1.7 0.1,-2.5 -0.6,-2 -2.4,-3.2 -3.8,-4.7 -0.9,-1 -1.9,-2.1 -3,-3.1 -0.8,-0.8 -1.8,-1.5 -2.7,-2.2 -0.1,0 -0.2,0 -0.3,0 0,0.1 0,0.2 0,0.3 0.5,0.5 0.9,1.1 1.4,1.6 2,1.6 1.6,3.5 0.5,4.7 -1.1,1.1 -2.5,2 -3.8,2.9 -1.7,1.3 -3.6,2.5 -5.3,3.7 -1.2,0.8 -2.3,1.7 -3.5,2.5 -1.9,1.2 -3.9,2.3 -5.8,3.5 -0.6,0.4 -0.8,0.1 -0.8,-0.3 0,-1.5 0.1,-2.9 0.1,-4.4 0,-0.4 -0.1,-0.9 -0.4,-1.1 -1.3,-1.2 -2.6,-2.4 -3.9,-3.7 -0.7,-0.7 -1.3,-1.6 -2,-2.3 -0.5,-0.5 -1,-0.9 -1.6,-1.4 -0.1,-0.1 -0.2,0 -0.3,-0.1 0,0 0,0.1 0,0.1 0,0.9 0,1.8 -0.1,2.7 0,0.6 -0.1,1.2 -0.2,1.8 0,0.9 -0.1,1.7 -0.1,2.6 0,0.9 0,1.7 0,2.6 0,1.4 0.2,2.9 0.2,4.3 0,1.8 0,3.6 0,5.4 0,0.2 -0.1,0.6 -0.3,0.7 -0.7,0.6 -1.5,1.2 -2.2,1.9 -1.9,1.8 -3.8,3.5 -5.6,5.5 -1.5,1.6 -3.1,3.3 -4.4,5.3 -0.9,1.4 -1.6,3.2 -2.1,4.9 -0.3,1.2 -0.5,2.5 -0.3,3.8 0.3,2.1 1,4.1 2.8,5.4 0.6,0.5 1.2,1.1 1.8,1.5 0.8,0.6 1.6,1.1 2.4,1.6 1.7,1.1 3.4,2.2 5.1,3.2 0.2,0.1 0.6,0.2 0.8,0.3 -0.2,-0.2 -0.4,-0.5 -0.6,-0.7 0,0 0,0 -0.1,0 -2.3,-1.3 -3.7,-3.3 -3.5,-6.1 0.1,-1.9 0.3,-3.7 1.3,-5.4 0.4,-0.6 0.6,-1.4 1,-2 0.4,-0.6 0.9,-1.1 1.3,-1.7 1,-1.2 2,-2.4 3,-3.6 0.2,-0.2 0.8,-0.5 1,-0.3 1.6,1.1 3.1,2.4 4.7,3.4 2,1.3 4.1,2.4 6.1,3.6 1.4,0.8 2.7,1.8 4.1,2.6 0.3,0.2 0.9,0.2 1,0.1 1.2,-1.1 2.3,-2.2 3.4,-3.3 0.4,-0.4 0.7,-0.8 1.1,-1.1 0.6,-0.4 1.2,-0.8 1.8,-1.2 0.1,-0.1 0.2,-0.1 0.3,0 0.9,0.2 2,1.8 1.5,2.6 -0.7,1.2 -1.6,2.3 -2.4,3.4 -0.5,0.7 -1,1.3 -1.6,1.9 -0.2,0.2 -0.7,0.3 -0.9,0.6 -0.6,0.5 -1.2,1.1 -1.7,1.6 -1.6,1.6 -3.4,3.3 -4.8,5.1 -1,1.2 -1.9,2.5 -2.9,3.8 -0.5,0.7 -0.9,1.3 -1.4,2 -0.4,0.7 -0.8,1.3 -1.3,2 -0.8,1.2 -1.4,2.6 -1.3,4.1 0.1,1.3 0.6,2.6 1.2,3.8 0.5,1.2 1.4,2.1 2.2,3 1.7,1.7 3.9,2.5 6,3.5 0.5,0.2 1,0.3 1.4,0.5 1.5,0.9 3.1,1.8 4.9,2.1 0.1,0 0.2,-0.1 0.4,-0.2 -0.1,-0.1 -0.1,-0.2 -0.2,-0.3 -0.9,-0.4 -1.8,-0.8 -2.7,-1.2 -1.5,-0.7 -2.2,-2.2 -2.9,-3.5 -0.6,-1.1 -1,-2.4 -0.5,-3.7 0.1,-0.2 0.5,-0.5 0.5,-0.5 1.4,0.7 2.8,1.5 4.3,2.1 1.3,0.6 2.6,1.2 4,1.8 1.2,0.5 2.4,0.9 3.8,0.5 0.3,-0.1 0.5,-0.3 0.7,-0.3 0.7,-0.1 1.3,-0.1 2,-0.3 0.6,-0.2 1.2,-0.6 1.7,-1 0.4,-0.3 0.8,-0.6 1.1,-0.9 0.6,-0.6 1.3,-1.1 1.9,-1.7 0.1,-0.1 0.1,-0.1 0.1,-0.2 0,0.1 0.1,0.1 0.1,0.2 0,0.3 0.1,0.7 -0.1,1 -0.7,1.3 -1.3,2.6 -2.1,3.8 -1.7,2.4 -3.5,4.8 -5.1,7.2 -0.7,1 -1.3,2 -2,3 -0.9,1.3 -1.8,2.7 -2.7,4.1 -0.1,0.2 -0.3,0.3 -0.4,0.4 -0.1,-0.1 -0.3,-0.2 -0.4,-0.4 -0.4,-1 -0.8,-1.9 -2.1,-2.2 -1.5,-0.4 -2.8,-1.3 -4.2,-2 -1.4,-0.7 -2.8,-1.3 -4.2,-2 -0.1,-0.1 -0.2,-0.1 -0.4,-0.1 0,0.1 0,0.3 0,0.4 0.4,1 0.7,2 1.1,3.1 0.7,2.1 1.4,4.2 2.1,6.3 0.7,2.2 1.4,4.4 2.2,6.5 0.2,0.5 0.3,1.1 0.1,1.5 -0.9,2 -1.9,3.9 -2.8,5.9 -1.4,3.1 -2.5,6.4 -3.3,9.7 -0.6,2.6 -0.2,4.9 1.8,6.7 0.9,0.8 1.9,1.6 3,2.2 0.8,0.4 1.8,0.5 2.8,0.7 2.3,0.5 4.5,1 6.7,1.4 0.2,0 0.5,0.1 0.7,0.1 0.1,0 0.2,-0.1 0.3,-0.1 -0.1,-0.1 -0.1,-0.2 -0.2,-0.3 -0.8,-0.5 -1.7,-0.9 -2.4,-1.4 -1.1,-0.7 -1.9,-1.9 -1.9,-3.1 0,-1.6 0.3,-3.3 0.7,-4.9 0.3,-1.6 0.7,-3.1 1.3,-4.6 0.5,-1.3 1.2,-2.5 1.8,-3.8 0,0 0.1,-0.1 0.2,-0.1 1.1,0.2 2.2,0.4 3.2,0.7 0.2,0 0.4,0.4 0.3,0.6 -0.3,1.1 -0.8,2.2 -1.1,3.4 -0.2,0.6 -0.2,1.3 -0.4,1.9 -0.1,0.4 -0.2,0.8 -0.2,1.2 0,0.3 0,0.6 0,0.9 0,0.5 0,1.2 0.2,1.6 0.4,0.5 1,0.8 1.5,1.3 1.3,1.3 3.1,1.5 4.7,2.1 1,0.4 2.2,0.6 3.3,0.8 1.2,0.3 2.4,0.5 3.6,0.7 0.8,0.1 1.6,0.2 2.3,0.3 0.6,0.1 0.9,0.4 0.7,1.2 -0.1,0.4 -0.1,0.8 0,1.2 0.3,1.8 1.5,2.9 3.1,3.4 1.3,0.5 2.8,0.6 4.2,0.8 0.5,0.1 1,-0.1 1.4,-0.1 0.6,-0.1 1.2,-0.2 1.8,-0.2 0.9,0.1 1.8,0.3 2.6,0.4 0.1,0 0.3,-0.1 0.4,-0.1 -0.1,-0.1 -0.2,-0.2 -0.3,-0.3 -1.4,-0.7 -2.4,-1.6 -2.3,-3.3 0.1,-0.7 0.1,-1.5 0.3,-2.2 0.6,-2.2 1.2,-4.4 1.8,-6.6 0.3,-0.9 0.6,-1.7 0.9,-2.6 0.1,-0.2 0,-0.5 0,-0.7 0,0 0,-0.1 0.1,-0.1 0.1,-0.1 0.3,-0.2 0.4,-0.3 0.2,-0.6 0.4,-1.2 0.6,-1.8 0.7,-2 -0.2,-3.6 -2.2,-4 -1.3,-0.3 -2.6,-0.6 -3.9,-0.9 -1.6,-0.3 -3.2,-0.7 -4.8,-1.1 -0.6,-0.1 -1.2,-0.1 -1.8,-0.2 0.9,0.2 1.1,0.3 1.3,0.4 z M 182,330 c -1.6,1.4 -3.3,2.8 -5,4.2 -1,0.8 -2.1,1.5 -3.1,2.3 -1.1,0.9 -2.1,1.9 -3.2,2.9 -0.1,0.1 -0.4,0 -0.5,-0.1 -0.2,-1 -0.4,-2 -0.5,-3 -0.1,-1.4 -0.2,-2.8 -0.2,-4.2 -0.1,-1.2 -0.3,-2.2 1.1,-3.1 1.3,-0.8 2.4,-2 3.6,-3 0.6,-0.5 1.3,-1 1.9,-1.5 0.7,-0.5 1.5,-0.9 2.2,-1.4 0.4,-0.2 0.8,-0.5 1.2,-0.7 0.1,0 0.3,0 0.4,0 0.6,0.6 1.2,1.1 1.8,1.6 0.4,0.3 0.8,0.6 1.1,1 0.3,0.5 0.5,1 0.8,1.5 -0.2,1.4 -0.6,2.6 -1.6,3.5 z m -2.7,41.2 c -0.9,-0.1 -1.1,-0.7 -0.6,-1.4 0.3,-0.4 0.5,-0.9 0.8,-1.3 0.3,-0.5 0.5,-1.1 0.9,-1.6 0.8,-1.2 1.7,-2.4 2.6,-3.6 0.8,-1 1.6,-2.1 2.4,-3 0.8,-0.9 1.7,-1.6 2.6,-2.4 0.1,-0.1 0.5,0 0.6,0.1 1,1.1 1.3,2.4 1.2,3.8 -0.1,1 0,2 -0.3,2.9 -0.5,1.7 -1.7,3.2 -3.1,4.4 -1,0.8 -2.2,1.4 -3.5,2.1 -1.2,0 -2.4,0.1 -3.6,0 z m 11.4,34.8 c 0.1,-1.2 0.8,-2.3 1.3,-3.5 0.5,-1.2 1.1,-2.3 1.7,-3.4 0.5,-0.9 1.1,-1.9 1.6,-2.8 0.8,-1.3 1.6,-2.6 2.4,-3.9 0.6,-1 1.3,-1 2.3,0.1 1.1,1.2 0.8,2.5 0,3.8 -1.1,1.8 -2.1,3.7 -3.1,5.5 -1.1,1.9 -2.2,3.9 -3.2,5.8 -0.3,0.6 -0.5,1.1 -0.7,1.7 -0.1,0.2 -0.3,0.4 -0.5,0.6 -0.2,-0.2 -0.4,-0.4 -0.6,-0.6 0,0 0,-0.1 -0.2,-0.3 -0.4,-0.8 -1,-1.9 -1,-3 z"
             id="path770"
             style="fill:#ffffff"
             inkscape:connector-curvature="0" /><path
             d="m 231.3,438 c -1.4,-0.4 -3,-0.6 -4.5,-0.8 -1.7,-0.2 -3.4,-0.3 -5.1,-0.5 -2,-0.2 -3.9,-0.4 -5.9,-0.6 -1.5,-0.2 -2.9,-0.3 -4.4,-0.5 -1.1,-0.1 -2.2,-0.1 -3.3,-0.2 -1.2,-0.1 -2.5,-0.3 -3.7,-0.4 -1.7,-0.2 -3.4,-0.5 -5.1,-0.7 -0.4,0 -0.9,0.4 -1.3,0.6 0,0 0.2,0.5 0.3,0.7 0.4,0.7 0.9,1.4 1.3,2.1 0.5,0.9 1,1.8 1.6,2.6 l 1.9,2.9 c 0.3,0.4 0.5,1 0.8,1.4 1.1,1.4 2.2,2.7 3.2,4.1 0.9,1.3 1.5,2.7 2.3,4 0.4,0.7 0.6,1.4 1.2,2 1.8,1.7 3.5,3.4 5.4,4.9 0.7,0.6 1.8,0.7 2.8,0.8 0.9,0.1 1.9,-0.1 2.8,-0.1 2,0 4.2,0 6.2,-0.1 0.1,0 0.3,-0.3 0.5,-0.4 0.1,-0.1 0.2,-0.4 0.4,-0.4 0.3,-0.1 0.6,-0.1 0.9,-0.1 1.5,-0.1 3,-0.1 4.4,-0.2 0.2,0 0.4,-0.2 0.5,-0.3 -0.1,0 -0.3,-0.1 -0.4,-0.1 -0.5,-0.1 -1.1,-0.1 -1.7,-0.2 -1.1,-0.1 -1.9,-0.7 -2.1,-1.8 -0.2,-1.2 -0.2,-2.6 0.1,-3.8 0.5,-2.3 1.3,-4.6 1.9,-6.9 0.4,-1.4 0.8,-2.9 1.4,-4.3 0.4,-1 0.5,-1.8 -0.1,-2.9 -0.6,0 -1.4,-0.5 -2.3,-0.8 z m -8.8,3.5 c -0.3,1.1 -0.8,2.1 -1.1,3.2 -0.7,2.1 -1.3,4.1 -1.9,6.1 0,0.1 -0.1,0.2 -0.2,0.3 -0.1,0 -0.2,-0.1 -0.3,-0.2 l -1.3,-1.7 -1.3,-1.8 c -0.8,-1.2 -1.7,-2.4 -2.5,-3.6 -1.2,-1.9 -2.4,-3.8 -3.5,-5.7 -0.3,-0.6 0,-1.1 0.7,-1.1 0.9,0.1 1.8,0.1 2.8,0.2 l 2.8,0.1 c 1.3,0 2.6,0 3.8,0.1 0.8,0.1 1.6,0.6 2.1,0.8 0.7,1.3 0.2,2.4 -0.1,3.3 z"
             id="path772"
             style="fill:#ffffff"
             inkscape:connector-curvature="0" /><path
             d="m 230.8,464.5 c 0.8,1.4 1.5,2.8 2.4,4.1 0.4,0.6 0.9,1.1 1.4,1.7 0.1,0.1 0.4,0.2 0.6,0.3 0.1,-0.2 0.1,-0.4 0.2,-0.5 0.2,-1.8 0.5,-3.5 0.8,-5.3 0.3,-1.8 0.6,-3.5 0.9,-5.3 0.3,-1.9 0.6,-3.8 0.7,-5.6 0.1,-1.1 -0.5,-1.4 -1.6,-1.3 -0.9,0.1 -1.9,0 -2.8,-0.1 -0.1,0 -0.3,-0.3 -0.3,-0.3 0.1,-0.2 0.3,-0.4 0.5,-0.5 0.8,-0.1 1.7,-0.3 2.6,-0.3 2.2,0 4.3,0.1 6.4,0.2 1.4,0 2.7,0 4,0.2 1.8,0.2 2.2,0.6 2.2,2.5 0,1.6 -0.3,3.4 -0.5,5.1 -0.3,2.1 -0.6,4.3 -0.9,6.4 -0.3,1.9 -0.6,3.9 -0.9,5.9 -0.1,0.7 -0.3,1.2 -1.3,1.2 -0.8,0 -1.6,0.2 -2.3,-0.4 0,0 -0.2,0 -0.2,0 -1.4,1 -2.8,0.5 -4.3,0.6 -1,0.1 -2,0.1 -3,0.1 -1.7,0 -3.5,0 -5.3,0 -0.7,0 -1.3,-0.1 -2,0 -1.5,0.1 -2.6,-0.4 -3.7,-1.4 -2.3,-2.1 -3.5,-4.8 -5,-7.4 0,-0.1 0.2,-0.4 0.2,-0.4 1,0 1.9,0.1 2.9,0.1 0.8,0 1.6,0 2.4,0.1 0.9,0 1.7,0.2 2.5,0.2 0.8,0 1.7,0 2.5,0 0.5,-0.2 0.7,0 0.9,0.1 z"
             id="path774"
             style="fill:#ffffff"
             inkscape:connector-curvature="0" /><path
             d="m 220.2,430.7 c 0.2,-0.2 0.3,-0.4 0.4,-0.4 0.2,0 0.5,-0.1 0.7,0 1.3,0.3 1.7,-0.6 1.7,-1.6 0.1,-2.1 0.1,-4.2 0.5,-6.3 0.1,-0.6 1.1,-1.3 1.8,-1.6 0.9,-0.3 1.9,-0.3 2.9,-0.2 1.6,0.2 3.2,0.5 4.8,0.7 1,0.1 2,0.2 3,0.3 0.8,0.1 1.7,0.2 2.6,0.2 0.1,0 0.1,0.1 0.1,0.1 -0.1,0 -0.1,0 -0.2,0 -0.4,0 -0.9,-0.1 -1.3,0 -2.5,0.4 -3.2,1.4 -3.2,3.6 0,1.6 0,3.3 -0.1,5 0,0.8 -0.9,1.7 -2.2,1.6 -0.5,-0.1 -1.1,0 -1.7,-0.1 -2.7,-0.3 -5.5,-0.7 -8.2,-1.2 -0.6,0 -1,0 -1.6,-0.1 z"
             id="path776"
             style="fill:#ffffff"
             inkscape:connector-curvature="0" /><path
             d="m 155.7,351 c 0.3,0 0.5,0 0.6,0.1 1,0.7 1.6,-0.2 2.1,-0.7 0.6,-0.6 1.1,-1.5 1.6,-2.2 1.1,-1.4 2.1,-2.8 3.2,-4.2 0.5,-0.6 1.4,-0.4 2,0.1 0.8,0.6 1.7,1.1 2.5,1.6 0.8,0.4 1.6,0.8 2.3,1.2 1.2,0.8 2.3,1.6 3.5,2.4 0.8,0.5 1.4,1.2 2.1,1.7 0,0 0,0.1 0.1,0.1 -0.1,0 -0.2,0 -0.2,0 -0.4,-0.2 -0.7,-0.4 -1.1,-0.6 -1.2,-0.6 -2.1,-0.4 -2.9,0.7 -0.4,0.5 -0.9,0.9 -1.3,1.4 -0.6,0.8 -1.1,1.7 -1.8,2.6 -0.7,0.9 -1.2,2.1 -2.5,2.4 -0.4,0.1 -1,-0.3 -1.5,-0.5 -1.1,-0.6 -2.1,-1.3 -3.2,-1.9 -1.6,-1 -3.3,-2.1 -4.9,-3.2 -0.2,-0.2 -0.5,-0.3 -0.7,-0.6 0,0 0.1,-0.2 0.1,-0.4 z"
             id="path778"
             style="fill:#ffffff"
             inkscape:connector-curvature="0" /></g><g
           id="g792"
           style="fill:#ffffff"><path
             d="m 192.3,227.4 c 0.6,1.2 0.1,2.7 -0.8,3.2 -1.7,0.7 -3.4,1.5 -5,2.4 -2.3,1.1 -4.6,2.3 -6.8,3.5 -0.2,0.1 -0.6,0.2 -0.7,0.1 -0.6,-0.7 -1.3,-1.4 -1.8,-2.1 -0.4,-0.6 -0.5,-1.4 -0.7,-2.1 -0.3,-1 -0.1,-2.1 0.7,-2.7 1.2,-0.9 2.5,-1.7 3.9,-2.4 1.2,-0.6 2.5,-1 3.7,-1.5 2,-0.8 4.1,-1.6 6.2,-2.3 1.2,-0.4 2.4,-0.8 3.6,-1.2 0.7,-0.2 1.4,-0.5 2.1,-0.8 0.3,-0.1 0.6,-0.2 0.9,-0.3 0.3,-0.1 0.5,-0.3 0.7,-0.3 0.4,-0.1 0.9,-0.2 1.3,0 0.5,0.2 0.4,-0.8 1,-0.3 0.1,0.1 0.7,-0.3 1,-0.6 0.1,-0.1 0.1,-0.3 0.2,-0.4 0.8,-0.6 1,-1.7 0.5,-2.5 -0.2,-0.3 -0.4,-0.5 -0.6,-0.7 0,-0.1 0.1,-0.2 0.1,-0.3 -0.1,-0.3 -0.4,-0.6 -0.5,-0.9 -0.1,-0.2 -0.1,-0.5 -0.1,-0.7 -0.6,-1.5 -1.3,-3 -2,-4.5 -0.1,-0.3 -0.2,-0.7 -0.3,-1.1 -0.3,-0.7 -0.7,-1.3 -1,-2 0,-0.1 0.1,-0.4 0.2,-0.4 0.4,-0.1 0.8,-0.1 1.2,-0.2 1.2,-0.3 2.3,-0.6 3.5,-0.8 1,-0.2 2,-0.3 3,-0.4 1.4,-0.3 2.7,-0.5 4.1,-0.8 0.1,0 0.3,-0.1 0.4,-0.1 -0.1,-0.1 -0.1,-0.2 -0.2,-0.3 0,-0.1 0,-0.2 0,-0.3 0,0 0,0 0.1,0 0,0.1 0,0.1 0.1,0.2 0.3,0.2 0.5,0.7 0.9,0.2 0,0 0.1,0 0.2,0 0,0 0,0.1 0,0.1 0,0.1 -0.1,0.1 -0.2,0.1 0.1,0 0.2,0 0.3,0 1.6,-0.4 2.9,-1 3.7,-2.3 0.6,-0.9 0.2,-2.4 -0.7,-3.2 -0.5,-0.5 -0.9,-1.2 -1.2,-1.8 -0.3,-0.7 -0.5,-1.4 -0.7,-2.1 0,0 0.1,-0.1 0.1,-0.1 0.6,0 0.6,-0.4 0.5,-0.8 -0.2,-0.5 -0.3,-1 -0.5,-1.4 0,-0.1 0,-0.2 0.1,-0.2 1.4,-0.4 2.3,-1.3 3.2,-2.2 0.9,-0.8 1.4,-1.7 1.7,-2.6 0.3,-1 0.4,-2 0.1,-3.2 -0.2,-0.9 -0.6,-1.8 -0.9,-2.8 -0.5,-1.6 -1.1,-3.3 -1.6,-4.9 -0.1,-0.4 -0.1,-0.7 0.5,-0.7 0.9,0 1.9,0 2.8,0 0.9,0 1.9,0 2.8,-0.1 0.4,0 1.1,0.2 1.2,-0.5 0,0 0.1,0 0.2,-0.1 0,0 0,0.1 0.1,0.1 0.1,0.1 0.2,0.2 0.2,0.2 0.2,0 0.4,-0.2 0.6,-0.2 1.2,0.2 2.2,-1.1 2.1,-2.1 -0.1,-0.7 -0.2,-1.5 -0.4,-2.2 -0.4,-1.9 -0.8,-3.9 -1.2,-5.8 -0.1,-0.3 -0.3,-0.6 -0.3,-0.9 0,-0.6 0,-1.3 0,-1.9 0,-0.2 0.2,-0.5 0.4,-0.5 0.9,0 1.8,0 2.7,0 0.8,0 1.6,0 2.3,0 0.9,0 1.9,0 2.8,0 1.3,-0.1 2.2,-0.7 2.6,-1.7 0.3,-0.8 0.4,-1.9 0.3,-2.8 -0.2,-1.9 -0.5,-3.9 -0.7,-5.9 -0.2,-1.9 -0.4,-3.8 -0.5,-5.7 0,-0.2 0.3,-0.5 0.4,-0.5 0.8,0.1 1.6,0.2 2.3,0.4 1.1,0.2 2.2,0.4 3.3,0.6 0.7,0.1 1.5,0.1 2.2,0.2 1.1,0.2 2.2,0.4 3.3,0.5 1,0.2 2,0.3 3,0.5 0.6,0.1 1.2,0.4 1.7,0.4 0.9,-0.1 1.9,0.2 2.8,-0.3 0.9,-0.4 1.4,-1 1.8,-1.7 1,-1.8 0.5,-4 0.7,-6.1 0.1,-1.4 0.1,-2.8 0.1,-4.2 0,-1.1 -0.2,-2.3 -0.3,-3.5 0,-0.1 -0.1,-0.1 -0.2,-0.2 -0.1,0.1 -0.2,0.1 -0.2,0.2 -0.1,0.7 -0.2,1.4 -0.1,2.1 0.3,2.6 -1.4,3.7 -3,3.7 -1.5,0 -3.2,-0.3 -4.8,-0.6 -2.1,-0.4 -4.2,-0.7 -6.4,-1.1 -1.4,-0.2 -2.8,-0.4 -4.2,-0.8 -2.2,-0.5 -4.4,-1.1 -6.6,-1.6 -0.6,-0.1 -0.6,-0.5 -0.3,-0.8 1.1,-1 2.2,-2 3.2,-3 0.3,-0.3 0.5,-0.7 0.5,-1.1 -0.1,-1.8 -0.1,-3.6 -0.1,-5.4 0,-1 0.2,-2 0.2,-3 0,-0.7 -0.1,-1.4 -0.1,-2.1 0,-0.1 -0.1,-0.2 -0.1,-0.2 0,0 -0.1,0.1 -0.1,0.1 -0.7,0.6 -1.3,1.3 -2,1.9 -0.4,0.4 -0.9,0.8 -1.4,1.2 -1.3,1.1 -2.5,2.4 -3.7,3.6 -1,1 -1.9,2.1 -2.9,3.2 -1.3,1.3 -2.6,2.6 -3.8,3.8 -0.2,0.2 -0.5,0.3 -0.7,0.3 -0.9,0 -1.9,-0.2 -2.8,-0.2 -2.6,-0.1 -5.2,-0.2 -7.9,-0.1 -2.3,0.1 -4.6,0.2 -6.8,0.6 -1.7,0.3 -3.3,1.2 -4.8,2 -1.1,0.6 -2.1,1.5 -2.9,2.4 -1.3,1.7 -2.2,3.6 -1.9,5.8 0.1,0.8 0.1,1.6 0.2,2.4 0.2,1 0.4,1.9 0.6,2.8 0.4,2 0.9,3.9 1.3,5.9 0.1,0.3 0.3,0.5 0.4,0.8 0,-0.3 0.1,-0.6 0.1,-0.9 0,0 0,-0.1 0,-0.1 -0.7,-2.6 -0.2,-4.9 1.8,-6.8 1.4,-1.3 2.9,-2.4 4.8,-2.9 0.7,-0.2 1.4,-0.5 2.1,-0.7 0.7,-0.2 1.4,-0.2 2.1,-0.2 1.6,-0.2 3.1,-0.3 4.7,-0.4 0.3,0 0.9,0.3 0.9,0.5 0.3,1.9 0.5,3.8 0.9,5.7 0.5,2.3 1.2,4.6 1.7,6.8 0.2,0.8 0.4,1.6 0.5,2.4 0.2,0.8 0.4,1.6 0.6,2.4 0.1,0.3 0.5,0.8 0.7,0.8 1.6,0.1 3.1,0 4.7,0.1 0.5,0 1,0 1.6,0 0.7,0.1 1.4,0.2 2.1,0.4 0.1,0 0.2,0.1 0.3,0.2 0.5,0.8 0,2.7 -0.8,2.9 -1.3,0.3 -2.7,0.5 -4,0.7 -0.8,0.1 -1.7,0.2 -2.5,0.2 -0.3,0 -0.7,-0.2 -1.1,-0.2 -0.8,-0.1 -1.6,-0.1 -2.4,-0.1 -2.3,0 -4.7,-0.1 -7,0.1 -0.8,0.1 -1.6,0.2 -2.4,0.3 -0.8,0.1 -1.5,0.3 -2.3,0.4 -1.5,0.3 -3.1,0.6 -4.6,1 -1.4,0.3 -2.9,0.8 -3.9,2 -0.9,1 -1.4,2.2 -1.9,3.5 -0.5,1.2 -0.4,2.5 -0.4,3.7 0,2.4 0.9,4.5 1.7,6.7 0.2,0.5 0.5,0.9 0.6,1.4 0.4,1.7 0.9,3.4 2,4.9 0.1,0.1 0.3,0.1 0.4,0.1 0,-0.1 0,-0.3 0,-0.4 -0.3,-0.9 -0.7,-1.9 -1,-2.8 -0.5,-1.6 0.1,-3.1 0.5,-4.5 0.4,-1.2 1,-2.4 2.3,-3 0.2,-0.1 0.7,0 0.7,0 0.5,1.5 1,3 1.5,4.6 0.5,1.4 1,2.7 1.5,4.1 0.5,1.2 1,2.3 2.3,3 0.2,0.1 0.5,0.1 0.7,0.3 0.5,0.4 1,0.9 1.6,1.2 0.6,0.3 1.3,0.4 1.9,0.5 0.5,0.1 0.9,0.2 1.4,0.2 0.9,0 1.7,0.1 2.6,0.1 0.1,0 0.1,0 0.2,0 0,0.1 0,0.2 0,0.2 -0.2,0.2 -0.5,0.6 -0.8,0.7 -1.4,0.4 -2.8,0.9 -4.2,1.1 -2.8,0.5 -5.8,1 -8.7,1.5 -1.2,0.2 -2.4,0.5 -3.5,0.7 -1.6,0.3 -3.2,0.6 -4.8,0.9 -0.2,0 -0.4,0 -0.6,0 0,-0.2 0,-0.4 0,-0.5 0.4,-1 0.7,-1.9 0.1,-3.1 -0.7,-1.4 -1,-2.9 -1.6,-4.4 -0.5,-1.4 -1.1,-2.9 -1.6,-4.4 0,-0.1 -0.1,-0.2 -0.2,-0.3 -0.1,0.1 -0.2,0.2 -0.3,0.3 -0.4,1 -0.8,2 -1.3,3 -1,2 -2,3.9 -3.1,5.8 -1.1,2 -2,4.1 -3,6.2 -0.2,0.4 -0.6,1 -1.1,1.1 -2,0.8 -4.1,1.4 -6.2,2.2 -3.3,1.1 -6.2,2.8 -9.1,4.6 -2.2,1.4 -3.6,3.3 -3.5,6 0,0.6 0.1,1.2 0.1,1.8 0.1,0.6 0.2,1.2 0.4,1.8 0.3,0.9 1,1.7 1.5,2.5 1.2,1.9 2.5,3.9 3.7,5.7 0.1,0.2 0.3,0.4 0.4,0.6 0.1,0.1 0.2,0.1 0.3,0.1 0,-0.1 0.1,-0.2 0.1,-0.3 -0.2,-0.9 -0.5,-1.8 -0.7,-2.7 -0.3,-1.3 0,-2.7 0.8,-3.6 0.5,-0.6 1.2,-1.1 1.8,-1.6 0.7,-0.5 1.4,-0.9 2.1,-1.4 1.3,-0.9 2.7,-1.7 4.2,-2.3 1.3,-0.6 2.6,-1 4,-1.4 0,0 0.2,0 0.2,0.1 0.6,0.9 1.2,1.8 1.8,2.8 0.1,0.1 0,0.6 -0.2,0.6 -1,0.5 -2.1,1 -3.2,1.6 -0.6,0.3 -1.1,0.7 -1.6,1.1 -0.3,0.2 -0.7,0.5 -1,0.7 -0.2,0.2 -0.4,0.4 -0.6,0.6 -0.3,0.4 -0.9,0.8 -0.9,1.3 -0.1,0.6 0.2,1.3 0.2,2 -0.1,1.9 1.1,3.3 1.8,4.8 0.4,1 1.1,2 1.7,2.9 0.7,1 1.3,2.1 2,3.1 0.5,0.6 1,1.3 1.5,1.9 0.4,0.5 0.4,1 -0.3,1.3 -0.3,0.2 -0.6,0.5 -0.8,0.8 -1.1,1.4 -1,3.1 -0.3,4.6 0.6,1.3 1.6,2.4 2.4,3.5 0.3,0.4 0.7,0.6 1.1,0.9 0.5,0.4 1,0.7 1.4,1.2 0.6,0.7 1.1,1.5 1.7,2.2 0.1,0.1 0.2,0.1 0.4,0.2 0,-0.1 0,-0.3 0,-0.4 -0.6,-1.4 -0.7,-2.8 0.6,-3.9 0.6,-0.5 1.1,-0.9 1.8,-1.3 2,-1.2 4,-2.3 6,-3.3 0.8,-0.4 1.6,-0.8 2.4,-1.2 0.2,-0.1 0.3,-0.3 0.5,-0.5 0,0 0.1,0 0.2,0 0.2,0 0.4,0.1 0.5,0 0.6,-0.3 1.1,-0.6 1.6,-0.8 1.9,-0.9 2.4,-2.6 1.3,-4.3 -0.7,-1.1 -1.4,-2.2 -2.1,-3.4 -0.9,-1.4 -1.8,-2.8 -2.7,-4.2 -0.3,-0.5 -0.8,-0.9 -1.2,-1.4 -0.2,-0.3 -0.1,0 0,0.2 z m 36.8,-75.9 c -2.2,-0.1 -4.4,-0.3 -6.5,-0.5 -1.2,-0.1 -2.5,-0.4 -3.8,-0.5 -1.4,-0.1 -2.9,-0.2 -4.3,-0.3 -0.1,0 -0.3,-0.3 -0.3,-0.4 0.6,-0.8 1.2,-1.7 1.8,-2.5 0.4,-0.5 0.9,-1.1 1.3,-1.6 0.5,-0.5 0.9,-1 1.4,-1.6 0.8,-0.9 1.4,-1.8 3,-1.4 1.5,0.4 3.1,0.3 4.7,0.4 0.8,0.1 1.6,0.2 2.4,0.3 0.9,0.2 1.7,0.4 2.6,0.6 0.4,0.1 0.9,0.2 1.3,0.3 0.1,0 0.3,0.2 0.3,0.3 0,0.8 0.1,1.6 0.1,2.4 0,0.5 0.1,1 0,1.5 -0.1,0.6 -0.3,1.1 -0.5,1.6 -1,1 -2.2,1.5 -3.5,1.4 z m -31,27.3 c -0.6,-0.7 -0.4,-1.3 0.5,-1.5 0.5,-0.1 1,-0.3 1.5,-0.4 0.6,-0.2 1.1,-0.4 1.7,-0.5 1.5,-0.3 2.9,-0.5 4.4,-0.7 1.3,-0.2 2.6,-0.4 3.9,-0.4 1.2,0 2.4,0.1 3.5,0.2 0.1,0 0.4,0.3 0.4,0.5 -0.1,1.5 -0.8,2.6 -1.9,3.5 -0.8,0.6 -1.4,1.4 -2.3,1.9 -1.6,0.8 -3.4,1.1 -5.3,0.9 -1.3,-0.1 -2.5,-0.6 -3.9,-0.9 -0.8,-0.9 -1.7,-1.7 -2.5,-2.6 z m -16.6,32.7 c 0.8,-0.8 2.1,-1.1 3.3,-1.6 1.2,-0.5 2.4,-0.8 3.7,-1.2 1,-0.3 2.1,-0.6 3.1,-0.8 1.5,-0.4 3,-0.7 4.5,-1.1 1.1,-0.3 1.6,0.3 1.6,1.7 -0.1,1.6 -1.2,2.3 -2.8,2.6 -2,0.5 -4.1,1.1 -6.1,1.7 -2.1,0.6 -4.2,1.2 -6.3,1.9 -0.6,0.2 -1.2,0.5 -1.8,0.7 -0.2,0.1 -0.5,0.1 -0.8,0.1 0,-0.3 0,-0.6 0,-0.9 0,0 0,-0.1 0.1,-0.3 0.4,-0.8 0.7,-2.1 1.5,-2.8 z"
             id="path782"
             style="fill:#ffffff"
             inkscape:connector-curvature="0" /><path
             d="m 187.6,262.8 c -0.8,-1.3 -1.7,-2.5 -2.7,-3.7 -1,-1.3 -2.2,-2.6 -3.2,-4 -1.2,-1.5 -2.4,-3 -3.7,-4.6 -0.9,-1.1 -1.9,-2.3 -2.9,-3.4 -0.7,-0.8 -1.5,-1.6 -2.2,-2.5 -0.8,-1 -1.6,-1.9 -2.3,-2.9 -1,-1.3 -2,-2.7 -3.1,-4.1 -0.3,-0.3 -0.9,-0.4 -1.4,-0.5 -0.1,0 -0.2,0.5 -0.3,0.8 -0.2,0.8 -0.4,1.6 -0.6,2.4 -0.3,1 -0.5,2 -0.8,3 -0.1,0.6 -0.3,1.1 -0.4,1.7 l -0.3,1.7 c -0.1,0.5 -0.3,1 -0.4,1.5 -0.2,1.7 -0.4,3.5 -0.7,5.2 -0.3,1.5 -0.8,2.9 -1.3,4.4 -0.2,0.7 -0.5,1.5 -0.5,2.2 0,2.4 0,4.9 0.3,7.3 0.1,0.9 0.8,1.8 1.4,2.5 0.6,0.7 1.3,1.2 2,1.9 1.5,1.5 3,2.9 4.5,4.3 0.1,0.1 0.4,0 0.6,0 0.2,0 0.4,-0.1 0.6,0 0.3,0.1 0.5,0.4 0.7,0.6 1.1,1 2.2,2 3.3,3 0.1,0.1 0.4,0.1 0.6,0.2 -0.1,-0.1 -0.1,-0.3 -0.2,-0.4 -0.3,-0.4 -0.7,-0.9 -1,-1.3 -0.7,-0.9 -0.8,-1.9 -0.2,-2.7 0.8,-1 1.7,-2 2.7,-2.7 2,-1.3 4.2,-2.4 6.2,-3.5 1.3,-0.7 2.6,-1.4 4,-2.1 0.9,-0.4 1.6,-0.9 2.1,-2.1 -0.1,-0.5 -0.3,-1.4 -0.8,-2.2 z m -8.8,-3.7 c -1,0.5 -2.1,0.9 -3,1.5 -1.9,1 -3.8,2 -5.7,3 -0.1,0 -0.3,0.1 -0.3,0 -0.1,0 -0.1,-0.2 -0.1,-0.3 l 0.6,-4.3 c 0.3,-1.4 0.5,-2.9 0.8,-4.3 0.5,-2.2 1,-4.3 1.6,-6.5 0.2,-0.6 0.8,-0.8 1.2,-0.2 1.3,1.4 2.5,2.8 3.8,4.2 0.9,0.9 1.8,1.8 2.6,2.8 0.5,0.7 0.7,1.5 1,2.1 -0.5,1.1 -1.6,1.5 -2.5,2 z"
             id="path784"
             style="fill:#ffffff"
             inkscape:connector-curvature="0" /><path
             d="m 168.5,281.2 c -0.4,1.6 -0.9,3.1 -1.2,4.6 -0.1,0.7 -0.2,1.5 -0.2,2.2 0,0.2 0.2,0.4 0.3,0.6 0.2,-0.1 0.4,-0.2 0.5,-0.3 1.4,-1.1 2.8,-2.1 4.3,-3.2 1.5,-1 2.9,-2.1 4.4,-3.1 1.6,-1.1 3.1,-2.3 4.5,-3.4 0.9,-0.7 0.7,-1.3 -0.2,-2.1 -0.7,-0.6 -1.3,-1.3 -1.9,-2 -0.1,-0.1 0,-0.4 0,-0.4 0.2,0 0.5,-0.1 0.6,0 0.7,0.5 1.5,1 2,1.6 1.5,1.5 2.9,3.1 4.4,4.7 0.9,1 1.9,1.9 2.7,3 1.1,1.4 1.1,2 -0.2,3.3 -1.2,1.2 -2.6,2.2 -4,3.2 -1.7,1.3 -3.4,2.6 -5.2,3.9 -1.6,1.2 -3.2,2.3 -4.8,3.5 -0.6,0.4 -1.1,0.6 -1.8,-0.1 -0.6,-0.6 -1.3,-1 -1.3,-1.9 0,0 -0.1,-0.1 -0.2,-0.1 -1.7,-0.3 -2.3,-1.7 -3.5,-2.6 -0.8,-0.6 -1.5,-1.3 -2.2,-2 -1.2,-1.2 -2.5,-2.5 -3.7,-3.8 -0.5,-0.5 -0.9,-1 -1.4,-1.4 -1.2,-1 -1.6,-2.1 -1.6,-3.6 -0.1,-3.1 1,-5.9 1.7,-8.8 0,-0.1 0.4,-0.2 0.5,-0.2 0.7,0.7 1.3,1.4 1.9,2.1 0.5,0.6 1.1,1.2 1.6,1.8 0.6,0.6 1.1,1.3 1.7,1.9 0.6,0.6 1.2,1.2 1.8,1.8 0.4,0.3 0.4,0.6 0.5,0.8 z"
             id="path786"
             style="fill:#ffffff"
             inkscape:connector-curvature="0" /><path
             d="m 184.8,249.8 c 0.3,0 0.5,0 0.5,0 0.2,0.1 0.4,0.3 0.5,0.5 0.7,1.1 1.6,0.7 2.3,0.1 1.5,-1.4 3.1,-2.9 4.9,-4.1 0.5,-0.3 1.7,-0.2 2.4,0.1 0.8,0.4 1.6,1.2 2.2,1.9 1,1.3 1.9,2.6 2.8,3.9 0.6,0.8 1.3,1.6 2,2.4 0.6,0.7 1.1,1.3 1.7,2 0,0 0,0.1 0,0.2 0,0 -0.1,-0.1 -0.1,-0.1 -0.3,-0.3 -0.6,-0.7 -0.9,-0.9 -2.1,-1.5 -3.3,-1.3 -4.8,0.2 -1.2,1.2 -2.4,2.3 -3.7,3.4 -0.6,0.5 -1.9,0.5 -2.7,-0.4 -0.3,-0.4 -0.8,-0.8 -1.1,-1.2 -1.7,-2.1 -3.3,-4.4 -4.9,-6.6 -0.4,-0.6 -0.7,-0.9 -1.1,-1.4 z"
             id="path788"
             style="fill:#ffffff"
             inkscape:connector-curvature="0" /><path
             d="m 195.6,147.8 c 0.2,0.2 0.4,0.3 0.4,0.5 0.2,1.2 1.3,0.9 2,1 0.9,0 1.7,-0.3 2.6,-0.4 1.8,-0.2 3.5,-0.5 5.2,-0.6 0.8,-0.1 1.2,0.7 1.3,1.4 0.1,1 0.4,1.9 0.7,2.9 0.2,0.9 0.6,1.7 0.8,2.5 0.3,1.4 0.6,2.8 0.9,4.2 0.2,0.9 0.2,1.8 0.2,2.7 0,0 0,0.1 0,0.1 -0.1,-0.1 -0.1,-0.1 -0.1,-0.2 -0.1,-0.4 -0.2,-0.8 -0.3,-1.2 -0.4,-1.3 -1.2,-1.8 -2.5,-1.5 -0.6,0.1 -1.3,0 -1.9,0 -1,0.1 -2.1,0.4 -3.1,0.6 -1.2,0.1 -2.4,0.6 -3.5,-0.1 -0.4,-0.2 -0.5,-0.9 -0.7,-1.4 -0.3,-1.2 -0.6,-2.4 -0.9,-3.6 -0.4,-1.9 -0.8,-3.8 -1.2,-5.7 -0.1,-0.3 -0.1,-0.6 -0.1,-0.9 0,-0.1 0.1,-0.2 0.2,-0.3 z"
             id="path790"
             style="fill:#ffffff"
             inkscape:connector-curvature="0" /></g><g
           id="g804"
           style="fill:#ffffff"><path
             d="m 309,86.3 c -0.4,1.2 -1.9,1.9 -2.9,1.6 -1.7,-0.6 -3.4,-1.3 -5.2,-1.9 -2.4,-0.8 -4.8,-1.6 -7.2,-2.3 -0.2,-0.1 -0.6,-0.3 -0.6,-0.5 0,-0.9 0.1,-1.9 0.3,-2.7 0.2,-0.7 0.6,-1.3 1,-2 0.5,-0.9 1.4,-1.6 2.4,-1.5 1.5,0.2 3,0.5 4.5,1 1.2,0.4 2.5,1.1 3.7,1.6 2,0.9 4,1.8 6,2.7 1.1,0.5 2.2,1.1 3.3,1.7 0.7,0.3 1.3,0.6 2,0.9 0.3,0.1 0.5,0.3 0.8,0.4 0.2,0.1 0.5,0.1 0.7,0.3 0.4,0.3 0.8,0.5 1,0.9 0.2,0.5 0.9,-0.3 0.9,0.5 0,0.1 0.7,0.3 1.1,0.4 0.1,0 0.3,-0.1 0.4,-0.1 1,0.2 1.9,-0.4 2.2,-1.3 0.1,-0.3 0,-0.6 0.1,-1 0,-0.1 0.3,-0.1 0.3,-0.2 0.1,-0.3 0.2,-0.7 0.3,-1 0.1,-0.2 0.3,-0.4 0.4,-0.6 0.6,-1.5 1.2,-3.1 1.8,-4.6 0.1,-0.3 0.4,-0.6 0.5,-1 0.3,-0.7 0.4,-1.5 0.7,-2.1 0,-0.1 0.3,-0.2 0.5,-0.1 0.4,0.2 0.7,0.5 1,0.8 1,0.7 2.1,1.3 3.1,1.9 0.8,0.6 1.6,1.2 2.4,1.8 1.2,0.8 2.3,1.5 3.4,2.3 0.1,0.1 0.2,0.1 0.4,0.2 0,-0.1 0,-0.3 0.1,-0.4 0,-0.1 0.1,-0.2 0.2,-0.2 0,0 0,0 0.1,0 0,0.1 -0.1,0.1 -0.1,0.2 0,0.4 -0.2,0.9 0.5,0.8 0,0 0.1,0.1 0.2,0.1 0,0 0,0.1 -0.1,0.1 -0.1,0 -0.1,0 -0.2,0 0.1,0.1 0.1,0.2 0.2,0.2 1.4,0.8 2.8,1.2 4.2,0.9 1.1,-0.2 1.9,-1.4 1.9,-2.7 0,-0.7 0.2,-1.5 0.4,-2.2 0.2,-0.7 0.6,-1.3 0.9,-2 0,0 0.1,-0.1 0.2,0 0.4,0.4 0.7,0.1 0.9,-0.3 0.2,-0.5 0.4,-0.9 0.6,-1.4 0,-0.1 0.2,-0.1 0.2,-0.1 1.2,0.7 2.5,0.7 3.8,0.7 2.4,0.2 4.1,-0.7 5.4,-2.7 0.5,-0.8 0.9,-1.7 1.3,-2.6 0.8,-1.5 1.5,-3.1 2.3,-4.6 0.2,-0.4 0.4,-0.6 0.8,-0.1 0.7,0.7 1.3,1.4 2,2 0.7,0.7 1.3,1.4 2,2 0.3,0.3 0.6,0.9 1.2,0.5 0,0 0.1,0 0.2,0.1 0,0 0,0.1 0,0.1 0,0.1 0,0.3 0,0.3 0.2,0.1 0.4,0.1 0.5,0.3 0.7,1 2.3,0.8 3,0 0.4,-0.6 0.9,-1.2 1.3,-1.9 1.1,-1.7 2.2,-3.3 3.3,-4.9 0.2,-0.3 0.3,-0.6 0.5,-0.9 0.4,-0.5 0.9,-0.9 1.4,-1.4 0.1,-0.1 0.5,-0.2 0.6,-0.1 0.7,0.6 1.3,1.3 1.9,1.9 0.6,0.5 1.1,1.1 1.7,1.6 0.7,0.7 1.3,1.4 2,2 0.9,0.8 2,1 3,0.6 0.8,-0.3 1.6,-1 2.2,-1.8 1.3,-1.5 2.4,-3.2 3.7,-4.7 1.2,-1.5 2.4,-3 3.6,-4.4 0.1,-0.1 0.5,-0.2 0.6,-0.1 0.5,0.6 0.9,1.3 1.4,2 0.6,0.9 1.3,1.9 1.9,2.8 0.4,0.6 0.9,1.1 1.4,1.7 0.7,0.9 1.3,1.8 2,2.7 0.6,0.8 1.2,1.7 1.8,2.5 0.3,0.5 0.6,1.2 1,1.5 0.7,0.6 1.2,1.5 2.2,1.8 0.9,0.3 1.7,0.4 2.5,0.1 2,-0.6 3.2,-2.4 4.7,-3.8 1,-0.9 2.1,-1.9 3.1,-3 0.8,-0.8 1.5,-1.8 2.2,-2.7 0,-0.1 0,-0.2 0,-0.3 -0.1,0 -0.2,0 -0.3,0 -0.5,0.5 -1.1,0.9 -1.6,1.4 -1.6,2 -3.5,1.6 -4.7,0.5 -1.1,-1.1 -2,-2.5 -2.9,-3.8 -1.3,-1.7 -2.5,-3.6 -3.7,-5.3 -0.8,-1.2 -1.7,-2.3 -2.5,-3.5 -1.2,-1.9 -2.3,-3.9 -3.5,-5.8 -0.4,-0.6 -0.1,-0.8 0.3,-0.8 1.5,0 2.9,0.1 4.4,0.1 0.4,0 0.9,-0.1 1.1,-0.4 1.2,-1.3 2.4,-2.6 3.7,-3.9 0.7,-0.7 1.6,-1.3 2.3,-2 0.5,-0.5 0.9,-1 1.4,-1.6 0.1,-0.1 0,-0.2 0.1,-0.3 0,0 -0.1,0 -0.1,0 -0.9,0 -1.8,0 -2.7,-0.1 -0.6,0 -1.2,-0.1 -1.8,-0.2 -0.9,0 -1.7,-0.1 -2.6,-0.1 -0.9,0 -1.7,0 -2.6,0 -1.4,0 -2.9,0.2 -4.3,0.2 -1.8,0 -3.6,0 -5.4,0 -0.2,0 -0.6,-0.1 -0.7,-0.3 -0.6,-0.7 -1.2,-1.5 -1.9,-2.2 -1.8,-1.9 -3.5,-3.8 -5.5,-5.6 -1.6,-1.5 -3.3,-3.1 -5.3,-4.4 -1.4,-0.9 -3.2,-1.6 -4.9,-2.1 -1.2,-0.3 -2.5,-0.5 -3.8,-0.3 -2.1,0.3 -4.1,1 -5.4,2.8 -0.5,0.6 -1.1,1.2 -1.5,1.8 -0.6,0.8 -1.1,1.6 -1.6,2.4 -1.1,1.7 -2.2,3.4 -3.2,5.1 -0.1,0.2 -0.2,0.6 -0.3,0.8 0.2,-0.2 0.5,-0.4 0.7,-0.6 0,0 0,0 0,-0.1 1.3,-2.3 3.3,-3.7 6.1,-3.5 1.9,0.1 3.7,0.3 5.4,1.3 0.6,0.4 1.4,0.6 2,1 0.6,0.4 1.1,0.9 1.7,1.3 1.2,1 2.4,2 3.6,3 0.2,0.2 0.5,0.8 0.3,1 -1.1,1.6 -2.4,3.1 -3.4,4.7 -1.3,2 -2.4,4.1 -3.6,6.1 -0.8,1.4 -1.8,2.7 -2.6,4.1 -0.2,0.3 -0.2,0.9 -0.1,1 1.1,1.2 2.2,2.3 3.3,3.4 0.4,0.4 0.8,0.7 1.1,1.1 0.4,0.6 0.8,1.2 1.2,1.8 0.1,0.1 0.1,0.2 0,0.3 -0.2,0.9 -1.8,2 -2.6,1.5 -1.2,-0.7 -2.3,-1.6 -3.4,-2.4 -0.7,-0.5 -1.3,-1 -1.9,-1.6 -0.2,-0.2 -0.3,-0.7 -0.6,-0.9 -0.5,-0.6 -1.1,-1.2 -1.6,-1.7 -1.6,-1.6 -3.3,-3.4 -5.1,-4.8 -1.2,-1 -2.5,-1.9 -3.8,-2.9 -0.7,-0.5 -1.3,-0.9 -2,-1.4 -0.7,-0.4 -1.3,-0.8 -2,-1.3 -1.2,-0.8 -2.6,-1.4 -4.1,-1.3 -1.3,0.1 -2.6,0.6 -3.8,1.2 -1.2,0.5 -2.1,1.4 -3,2.2 -1.7,1.7 -2.5,3.9 -3.5,6 -0.2,0.5 -0.3,1 -0.5,1.4 -0.9,1.5 -1.8,3.1 -2.1,4.9 0,0.1 0.1,0.2 0.2,0.4 0.1,-0.1 0.2,-0.1 0.3,-0.2 0.4,-0.9 0.8,-1.8 1.2,-2.7 0.7,-1.5 2.2,-2.2 3.5,-2.9 1.1,-0.6 2.4,-1 3.7,-0.5 0.2,0.1 0.5,0.5 0.5,0.5 -0.7,1.4 -1.5,2.8 -2.1,4.3 -0.6,1.3 -1.2,2.6 -1.8,4 -0.5,1.2 -0.9,2.4 -0.5,3.8 0.1,0.3 0.3,0.5 0.3,0.7 0.1,0.7 0.1,1.3 0.3,2 0.2,0.6 0.6,1.2 1,1.7 0.3,0.4 0.6,0.8 0.9,1.1 0.6,0.6 1.1,1.3 1.7,1.9 0.1,0.1 0.1,0.1 0.2,0.1 -0.1,0 -0.1,0.1 -0.2,0.1 -0.3,0 -0.7,0.1 -1,-0.1 -1.3,-0.7 -2.6,-1.3 -3.8,-2.1 -2.4,-1.7 -4.8,-3.5 -7.2,-5.1 -1,-0.7 -2,-1.3 -3,-2 -1.3,-0.9 -2.7,-1.8 -4.1,-2.7 -0.2,-0.1 -0.3,-0.3 -0.4,-0.4 0.1,-0.1 0.2,-0.3 0.4,-0.4 1,-0.4 1.9,-0.8 2.2,-2.1 0.4,-1.5 1.3,-2.8 2,-4.2 0.7,-1.4 1.3,-2.8 2,-4.2 0.1,-0.1 0.1,-0.2 0.1,-0.4 -0.1,0 -0.3,0 -0.4,0 -1,0.4 -2,0.7 -3.1,1.1 -2.1,0.7 -4.2,1.4 -6.3,2.1 -2.2,0.7 -4.4,1.4 -6.5,2.2 -0.5,0.2 -1.1,0.3 -1.5,0.1 -2,-0.9 -3.9,-1.9 -5.9,-2.8 -3.1,-1.4 -6.4,-2.5 -9.7,-3.3 -2.6,-0.6 -4.9,-0.2 -6.7,1.8 -0.8,0.9 -1.6,1.9 -2.2,3 -0.4,0.8 -0.5,1.8 -0.7,2.8 -0.5,2.3 -1,4.5 -1.4,6.7 0,0.2 -0.1,0.5 -0.1,0.7 0,0.1 0.1,0.2 0.1,0.3 0.1,-0.1 0.2,-0.1 0.3,-0.2 0.5,-0.8 0.9,-1.7 1.4,-2.4 0.7,-1.1 1.9,-1.9 3.1,-1.9 1.6,0 3.3,0.3 4.9,0.7 1.6,0.3 3.1,0.7 4.6,1.3 1.3,0.5 2.5,1.2 3.8,1.8 0,0 0.1,0.1 0.1,0.2 -0.2,1.1 -0.4,2.2 -0.7,3.2 0,0.2 -0.4,0.4 -0.6,0.3 -1.1,-0.3 -2.2,-0.8 -3.4,-1.1 -0.6,-0.2 -1.3,-0.2 -1.9,-0.4 -0.4,-0.1 -0.8,-0.2 -1.2,-0.2 -0.3,0 -0.6,0 -0.9,0 -0.5,0 -1.2,0 -1.6,0.2 -0.5,0.4 -0.8,1 -1.3,1.5 -1.3,1.3 -1.5,3.1 -2.1,4.7 -0.4,1 -0.6,2.2 -0.8,3.3 -0.3,1.2 -0.5,2.4 -0.7,3.6 -0.1,0.8 -0.2,1.6 -0.3,2.3 -0.1,0.6 -0.4,0.9 -1.2,0.7 -0.4,-0.1 -0.8,-0.1 -1.2,0 -1.8,0.3 -2.9,1.5 -3.4,3.1 -0.5,1.3 -0.6,2.8 -0.8,4.2 -0.1,0.5 0.1,1 0.1,1.4 0.1,0.6 0.2,1.2 0.2,1.8 -0.1,0.9 -0.3,1.8 -0.4,2.6 0,0.1 0.1,0.3 0.1,0.4 0.1,-0.1 0.2,-0.2 0.3,-0.3 0.7,-1.4 1.6,-2.4 3.3,-2.3 0.7,0.1 1.5,0.1 2.2,0.3 2.2,0.6 4.4,1.2 6.6,1.8 0.9,0.3 1.7,0.6 2.6,0.9 0.2,0.1 0.5,0 0.7,0 0,0 0.1,0 0.1,0.1 0.1,0.1 0.2,0.3 0.3,0.4 0.6,0.2 1.2,0.4 1.8,0.6 2,0.7 3.6,-0.2 4,-2.2 0.3,-1.3 0.6,-2.6 0.9,-3.9 0.3,-1.6 0.7,-3.2 1.1,-4.8 0.1,-0.6 0.1,-1.2 0.2,-1.8 -0.2,0.9 -0.3,1.1 -0.4,1.3 z m 79.6,-27.6 c -1.4,-1.6 -2.8,-3.3 -4.2,-5 -0.8,-1 -1.5,-2.1 -2.3,-3.1 -0.9,-1.1 -1.9,-2.1 -2.9,-3.2 -0.1,-0.1 0,-0.4 0.1,-0.5 1,-0.2 2,-0.4 3,-0.5 1.4,-0.1 2.8,-0.2 4.2,-0.2 1.2,-0.1 2.2,-0.3 3.1,1.1 0.8,1.3 2,2.4 3,3.6 0.5,0.6 1,1.3 1.5,1.9 0.5,0.7 0.9,1.5 1.4,2.2 0.2,0.4 0.5,0.8 0.7,1.2 0,0.1 0,0.3 0,0.4 -0.6,0.6 -1.1,1.2 -1.6,1.8 -0.3,0.4 -0.6,0.8 -1,1.1 -0.5,0.3 -1,0.5 -1.5,0.8 -1.5,-0.2 -2.6,-0.6 -3.5,-1.6 z M 347.4,56 c 0.1,-0.9 0.7,-1.1 1.4,-0.6 0.4,0.3 0.9,0.5 1.3,0.8 0.5,0.3 1.1,0.5 1.6,0.9 1.2,0.8 2.4,1.7 3.6,2.6 1,0.8 2.1,1.6 3,2.4 0.9,0.8 1.6,1.7 2.4,2.6 0.1,0.1 0,0.5 -0.1,0.6 -1.1,1 -2.4,1.3 -3.8,1.2 -1,-0.1 -2,0 -2.9,-0.3 -1.7,-0.5 -3.2,-1.7 -4.4,-3.1 -0.8,-1 -1.4,-2.2 -2.1,-3.5 0,-1.2 -0.1,-2.4 0,-3.6 z m -34.9,11.4 c 1.2,0.1 2.3,0.8 3.5,1.3 1.2,0.5 2.3,1.1 3.4,1.7 0.9,0.5 1.9,1.1 2.8,1.6 1.3,0.8 2.6,1.6 3.9,2.4 1,0.6 1,1.3 -0.1,2.3 -1.2,1.1 -2.5,0.8 -3.8,0 -1.8,-1.1 -3.7,-2.1 -5.5,-3.1 -1.9,-1.1 -3.9,-2.2 -5.8,-3.2 -0.6,-0.3 -1.1,-0.5 -1.7,-0.7 -0.2,-0.1 -0.4,-0.3 -0.6,-0.5 0.2,-0.2 0.4,-0.4 0.6,-0.6 0,0 0.1,0 0.3,-0.2 0.9,-0.4 1.9,-1 3,-1 z"
             id="path794"
             style="fill:#ffffff"
             inkscape:connector-curvature="0" /><path
             d="m 280.5,108 c 0.4,-1.4 0.6,-3 0.8,-4.5 0.2,-1.7 0.3,-3.4 0.5,-5.1 0.2,-2 0.4,-3.9 0.6,-5.9 0.2,-1.5 0.3,-2.9 0.5,-4.4 0.1,-1.1 0.1,-2.2 0.2,-3.3 0.1,-1.2 0.3,-2.5 0.4,-3.7 0.2,-1.7 0.5,-3.4 0.7,-5.1 0,-0.4 -0.4,-0.9 -0.6,-1.3 0,0 -0.5,0.2 -0.7,0.3 -0.7,0.4 -1.4,0.9 -2.1,1.3 -0.9,0.5 -1.8,1 -2.6,1.6 l -2.9,1.9 c -0.4,0.3 -1,0.5 -1.4,0.8 -1.4,1.1 -2.7,2.2 -4.1,3.2 -1.3,0.9 -2.7,1.5 -4,2.3 -0.7,0.4 -1.4,0.6 -2,1.2 -1.7,1.8 -3.4,3.5 -4.9,5.4 -0.6,0.7 -0.7,1.8 -0.8,2.8 -0.1,0.9 0.1,1.9 0.1,2.8 0,2 0,4.2 0.1,6.2 0,0.1 0.3,0.3 0.4,0.5 0.1,0.1 0.4,0.2 0.4,0.4 0.1,0.3 0.1,0.6 0.1,0.9 0.1,1.5 0.1,3 0.2,4.4 0,0.2 0.2,0.4 0.3,0.5 0,-0.1 0.1,-0.3 0.1,-0.4 0.1,-0.5 0.1,-1.1 0.2,-1.7 0.1,-1.1 0.7,-1.9 1.8,-2.1 1.2,-0.2 2.6,-0.2 3.8,0.1 2.3,0.5 4.6,1.3 6.9,1.9 1.4,0.4 2.9,0.8 4.3,1.4 1,0.4 1.8,0.5 2.9,-0.1 0.1,-0.6 0.6,-1.4 0.8,-2.3 z M 277,99.2 c -1.1,-0.3 -2.1,-0.8 -3.2,-1.1 -2.1,-0.7 -4.1,-1.3 -6.1,-1.9 -0.1,0 -0.2,-0.1 -0.3,-0.2 0,-0.1 0.1,-0.2 0.2,-0.3 l 1.7,-1.3 1.8,-1.3 c 1.2,-0.8 2.4,-1.7 3.6,-2.5 1.9,-1.2 3.8,-2.4 5.7,-3.5 0.6,-0.3 1.1,0 1.1,0.7 -0.1,0.9 -0.1,1.8 -0.2,2.8 l -0.1,2.8 c 0,1.3 0,2.6 -0.1,3.8 -0.1,0.8 -0.6,1.6 -0.8,2.1 -1.3,0.6 -2.3,0.2 -3.3,-0.1 z"
             id="path796"
             style="fill:#ffffff"
             inkscape:connector-curvature="0" /><path
             d="m 254.1,107.5 c -1.4,0.8 -2.8,1.5 -4.1,2.4 -0.6,0.4 -1.1,0.9 -1.7,1.4 -0.1,0.1 -0.2,0.4 -0.3,0.6 0.2,0.1 0.4,0.1 0.5,0.2 1.8,0.2 3.5,0.5 5.3,0.8 1.8,0.3 3.5,0.6 5.3,0.9 1.9,0.3 3.8,0.6 5.6,0.7 1.1,0.1 1.4,-0.5 1.3,-1.6 -0.1,-0.9 0,-1.9 0.1,-2.8 0,-0.1 0.3,-0.3 0.3,-0.3 0.2,0.1 0.4,0.3 0.5,0.5 0.1,0.8 0.3,1.7 0.3,2.6 0,2.2 -0.1,4.3 -0.2,6.4 0,1.4 0,2.7 -0.2,4 -0.2,1.8 -0.6,2.2 -2.5,2.2 -1.6,0 -3.4,-0.3 -5.1,-0.5 -2.1,-0.3 -4.3,-0.6 -6.4,-0.9 -1.9,-0.3 -3.9,-0.6 -5.9,-0.9 -0.7,-0.1 -1.2,-0.3 -1.2,-1.3 0,-0.8 -0.2,-1.6 0.4,-2.3 0,0 0,-0.2 0,-0.2 -1,-1.4 -0.5,-2.8 -0.6,-4.3 -0.1,-1 -0.1,-2 -0.1,-3 0,-1.7 0,-3.5 0,-5.3 0,-0.7 0.1,-1.3 0,-2 -0.1,-1.5 0.4,-2.6 1.4,-3.7 2.1,-2.3 4.8,-3.5 7.4,-5 0.1,0 0.4,0.2 0.4,0.2 0,1 -0.1,1.9 -0.1,2.9 0,0.8 0,1.6 -0.1,2.4 0,0.9 -0.2,1.7 -0.2,2.5 0,0.8 0,1.7 0,2.5 0.1,0.4 -0.1,0.7 -0.1,0.9 z"
             id="path798"
             style="fill:#ffffff"
             inkscape:connector-curvature="0" /><path
             d="m 287.9,96.8 c 0.2,0.2 0.4,0.3 0.4,0.4 0,0.2 0.1,0.5 0,0.7 -0.3,1.3 0.6,1.7 1.6,1.7 2.1,0.1 4.2,0.1 6.3,0.5 0.6,0.1 1.3,1.1 1.6,1.8 0.3,0.9 0.3,1.9 0.2,2.9 -0.2,1.6 -0.5,3.2 -0.7,4.8 -0.1,1 -0.2,2 -0.3,3 -0.1,0.8 -0.2,1.7 -0.2,2.6 0,0.1 -0.1,0.1 -0.1,0.1 0,-0.1 0,-0.1 0,-0.2 0,-0.4 0.1,-0.9 0,-1.3 -0.4,-2.5 -1.4,-3.2 -3.6,-3.2 -1.6,0 -3.3,0 -5,-0.1 -0.8,0 -1.7,-0.9 -1.6,-2.2 0.1,-0.5 0,-1.1 0.1,-1.7 0.3,-2.7 0.7,-5.5 1.2,-8.2 -0.1,-0.5 0,-0.9 0.1,-1.6 z"
             id="path800"
             style="fill:#ffffff"
             inkscape:connector-curvature="0" /><path
             d="m 367.6,32.3 c 0,0.3 0,0.5 -0.1,0.6 -0.7,1 0.2,1.6 0.7,2.1 0.6,0.6 1.5,1.1 2.2,1.6 1.4,1.1 2.8,2.1 4.2,3.2 0.6,0.5 0.4,1.4 -0.1,2 -0.6,0.8 -1.1,1.7 -1.6,2.5 -0.4,0.8 -0.8,1.6 -1.2,2.3 -0.8,1.2 -1.6,2.3 -2.4,3.5 -0.5,0.8 -1.2,1.4 -1.7,2.1 0,0 -0.1,0 -0.1,0.1 0,-0.1 0,-0.2 0,-0.2 0.2,-0.4 0.4,-0.7 0.6,-1.1 0.6,-1.2 0.4,-2.1 -0.7,-2.9 -0.5,-0.4 -0.9,-0.9 -1.4,-1.3 -0.8,-0.6 -1.7,-1.1 -2.6,-1.8 -0.9,-0.7 -2.1,-1.2 -2.4,-2.5 -0.1,-0.4 0.3,-1 0.5,-1.5 0.6,-1.1 1.3,-2.1 1.9,-3.2 1,-1.6 2.1,-3.3 3.2,-4.9 0.2,-0.2 0.3,-0.5 0.6,-0.7 0,0.1 0.2,0.2 0.4,0.1 z"
             id="path802"
             style="fill:#ffffff"
             inkscape:connector-curvature="0" /></g><g
           id="g816"
           style="fill:#ffffff"><path
             d="m 491.2,69 c -1.2,0.6 -2.7,0.1 -3.2,-0.8 -0.7,-1.7 -1.5,-3.4 -2.4,-5 -1.1,-2.3 -2.3,-4.6 -3.5,-6.8 -0.1,-0.2 -0.2,-0.6 -0.1,-0.7 0.7,-0.6 1.4,-1.3 2.1,-1.8 0.6,-0.4 1.4,-0.5 2.1,-0.7 1,-0.3 2.1,-0.1 2.7,0.7 0.9,1.2 1.7,2.5 2.4,3.9 0.6,1.2 1,2.5 1.5,3.7 0.8,2 1.6,4.1 2.3,6.2 0.4,1.2 0.8,2.4 1.2,3.6 0.2,0.7 0.5,1.4 0.8,2.1 0.1,0.3 0.2,0.6 0.3,0.9 0.1,0.3 0.3,0.5 0.3,0.7 0.1,0.4 0.2,0.9 0,1.3 -0.2,0.5 0.8,0.4 0.3,1 -0.1,0.1 0.3,0.7 0.6,1 0.1,0.1 0.3,0.1 0.4,0.2 0.6,0.8 1.7,1 2.5,0.5 0.3,-0.2 0.5,-0.4 0.7,-0.6 0.1,0 0.2,0.1 0.3,0.1 0.3,-0.1 0.6,-0.4 0.9,-0.5 0.2,-0.1 0.5,-0.1 0.7,-0.1 1.5,-0.6 3,-1.3 4.5,-2 0.3,-0.1 0.7,-0.2 1.1,-0.3 0.7,-0.3 1.3,-0.7 2,-1 0.1,0 0.4,0.1 0.4,0.2 0.1,0.4 0.1,0.8 0.2,1.2 0.3,1.2 0.6,2.3 0.8,3.5 0.2,1 0.3,2 0.4,3 0.3,1.4 0.5,2.7 0.8,4.1 0,0.1 0.1,0.3 0.1,0.4 0.1,-0.1 0.2,-0.1 0.3,-0.2 0.1,0 0.2,0 0.3,0 0,0 0,0 0,0.1 -0.1,0 -0.1,0 -0.2,0.1 -0.2,0.3 -0.7,0.5 -0.2,0.9 0,0 0,0.1 0,0.2 0,0 -0.1,0 -0.1,0 -0.1,0 -0.1,-0.1 -0.1,-0.2 0,0.1 0,0.2 0,0.3 0.4,1.6 1,2.9 2.3,3.7 0.9,0.6 2.4,0.2 3.2,-0.7 0.5,-0.5 1.2,-0.9 1.8,-1.2 0.7,-0.3 1.4,-0.5 2.1,-0.7 0,0 0.1,0.1 0.1,0.1 0,0.6 0.4,0.6 0.8,0.5 0.5,-0.2 1,-0.3 1.4,-0.5 0.1,0 0.2,0 0.2,0.1 0.4,1.4 1.3,2.3 2.2,3.2 0.8,0.9 1.7,1.4 2.6,1.7 1,0.3 2,0.4 3.2,0.1 0.9,-0.2 1.8,-0.6 2.8,-0.9 1.6,-0.5 3.3,-1.1 4.9,-1.6 0.4,-0.1 0.7,-0.1 0.7,0.5 0,0.9 0,1.9 0,2.8 0,0.9 0,1.9 0.1,2.8 0,0.4 -0.2,1.1 0.5,1.2 0,0 0,0.1 0.1,0.2 0,0 -0.1,0 -0.1,0.1 -0.1,0.1 -0.2,0.2 -0.2,0.2 0,0.2 0.2,0.4 0.2,0.6 -0.2,1.2 1.1,2.2 2.1,2.1 0.7,-0.1 1.5,-0.2 2.2,-0.4 1.9,-0.4 3.9,-0.8 5.8,-1.2 0.3,-0.1 0.6,-0.3 0.9,-0.3 0.6,0 1.3,0 1.9,0 0.2,0 0.5,0.2 0.5,0.4 0,0.9 0,1.8 0,2.7 0,0.8 0,1.6 0,2.3 0,0.9 0,1.9 0,2.8 0.1,1.3 0.7,2.2 1.7,2.6 0.8,0.3 1.9,0.4 2.8,0.3 1.9,-0.2 3.9,-0.5 5.9,-0.7 1.9,-0.2 3.8,-0.4 5.7,-0.5 0.2,0 0.5,0.3 0.5,0.4 -0.1,0.8 -0.2,1.6 -0.4,2.3 -0.2,1.1 -0.4,2.2 -0.6,3.3 -0.1,0.7 -0.1,1.5 -0.2,2.2 -0.2,1.1 -0.4,2.2 -0.5,3.3 -0.2,1 -0.3,2 -0.5,3 -0.1,0.6 -0.4,1.2 -0.4,1.7 0.1,0.9 -0.2,1.9 0.3,2.8 0.4,0.9 1,1.4 1.7,1.8 1.8,1 4,0.5 6.1,0.7 1.4,0.1 2.8,0.1 4.2,0.1 1.1,0 2.3,-0.2 3.5,-0.3 0.1,0 0.1,-0.1 0.2,-0.2 -0.1,-0.1 -0.1,-0.2 -0.2,-0.2 -0.7,-0.1 -1.4,-0.2 -2.1,-0.1 -2.6,0.3 -3.7,-1.4 -3.7,-3 0,-1.5 0.3,-3.2 0.6,-4.8 0.4,-2.1 0.7,-4.2 1.1,-6.4 0.2,-1.4 0.4,-2.8 0.8,-4.2 0.5,-2.2 1.1,-4.4 1.6,-6.6 0.1,-0.6 0.5,-0.6 0.8,-0.3 1,1.1 2,2.2 3,3.2 0.3,0.3 0.7,0.5 1.1,0.5 1.8,-0.1 3.6,-0.1 5.4,-0.1 1,0 2,0.2 3,0.2 0.7,0 1.4,-0.1 2.1,-0.1 0.1,0 0.2,-0.1 0.2,-0.1 0,0 -0.1,-0.1 -0.1,-0.1 -0.6,-0.7 -1.3,-1.3 -1.9,-2 -0.4,-0.4 -0.8,-0.9 -1.2,-1.4 -1.1,-1.3 -2.4,-2.5 -3.6,-3.7 -1,-1 -2.1,-1.9 -3.2,-2.9 -1.3,-1.3 -2.6,-2.6 -3.8,-3.8 -0.2,-0.2 -0.3,-0.5 -0.3,-0.7 0,-0.9 0.2,-1.9 0.2,-2.8 0.1,-2.6 0.2,-5.2 0.1,-7.9 -0.1,-2.3 -0.2,-4.6 -0.6,-6.8 -0.3,-1.7 -1.2,-3.3 -2,-4.8 -0.6,-1.1 -1.5,-2.1 -2.4,-2.9 -1.7,-1.3 -3.6,-2.2 -5.8,-1.9 -0.8,0.1 -1.6,0.1 -2.4,0.2 -1,0.2 -1.9,0.4 -2.8,0.6 -2,0.4 -3.9,0.9 -5.9,1.3 -0.3,0.1 -0.5,0.3 -0.8,0.4 0.3,0 0.6,0.1 0.9,0.1 0,0 0.1,0 0.1,0 2.6,-0.7 4.9,-0.2 6.8,1.8 1.3,1.4 2.4,2.9 2.9,4.8 0.2,0.7 0.5,1.4 0.7,2.1 0.2,0.7 0.2,1.4 0.2,2.1 0.2,1.6 0.3,3.1 0.4,4.7 0,0.3 -0.3,0.9 -0.5,0.9 -1.9,0.3 -3.8,0.5 -5.7,0.9 -2.3,0.5 -4.6,1.2 -6.8,1.7 -0.8,0.2 -1.6,0.4 -2.4,0.5 -0.8,0.2 -1.6,0.4 -2.4,0.6 -0.3,0.1 -0.8,0.5 -0.8,0.7 -0.1,1.6 0,3.1 -0.1,4.7 0,0.5 0,1 0,1.6 -0.1,0.7 -0.2,1.4 -0.4,2.1 0,0.1 -0.1,0.2 -0.2,0.3 -0.8,0.5 -2.7,0 -2.9,-0.8 -0.3,-1.3 -0.5,-2.7 -0.7,-4 -0.1,-0.8 -0.2,-1.7 -0.2,-2.5 0,-0.3 0.2,-0.7 0.2,-1.1 0.1,-0.8 0.1,-1.6 0.1,-2.4 0,-2.3 0.1,-4.7 -0.1,-7 -0.1,-0.8 -0.2,-1.6 -0.3,-2.4 -0.1,-0.8 -0.3,-1.5 -0.4,-2.3 -0.3,-1.5 -0.6,-3.1 -1,-4.6 -0.3,-1.4 -0.8,-2.9 -2,-3.9 -1,-0.9 -2.2,-1.4 -3.5,-1.9 -1.2,-0.5 -2.5,-0.4 -3.7,-0.4 -2.4,0 -4.5,0.9 -6.7,1.7 -0.5,0.2 -0.9,0.5 -1.4,0.6 -1.7,0.4 -3.4,0.9 -4.9,2 -0.1,0.1 -0.1,0.3 -0.1,0.4 0.1,0 0.3,0 0.4,0 0.9,-0.3 1.9,-0.7 2.8,-1 1.6,-0.5 3.1,0.1 4.5,0.5 1.2,0.4 2.4,1 3,2.3 0.1,0.2 0,0.7 0,0.7 -1.5,0.5 -3,1 -4.6,1.5 -1.4,0.5 -2.7,1 -4.1,1.5 -1.2,0.5 -2.3,1 -3,2.3 -0.1,0.2 -0.1,0.5 -0.3,0.7 -0.4,0.5 -0.9,1 -1.2,1.6 -0.3,0.6 -0.4,1.3 -0.5,1.9 -0.1,0.5 -0.2,0.9 -0.2,1.4 0,0.9 -0.1,1.7 -0.1,2.6 0,0.1 0,0.1 0,0.2 -0.1,0 -0.2,0 -0.2,0 -0.2,-0.2 -0.6,-0.5 -0.7,-0.8 -0.4,-1.4 -0.9,-2.8 -1.1,-4.2 -0.5,-2.8 -1,-5.8 -1.5,-8.7 -0.2,-1.2 -0.5,-2.4 -0.7,-3.5 -0.3,-1.6 -0.6,-3.2 -0.9,-4.8 0,-0.2 0,-0.4 0,-0.6 0.2,0 0.4,0 0.5,0 1,0.4 1.9,0.7 3.1,0.1 1.4,-0.7 2.9,-1 4.4,-1.6 1.4,-0.5 2.9,-1.1 4.4,-1.6 0.1,0 0.2,-0.1 0.3,-0.2 -0.1,-0.1 -0.2,-0.2 -0.3,-0.3 -1,-0.4 -2,-0.8 -3,-1.3 -2,-1 -3.9,-2 -5.8,-3.1 -2,-1.1 -4.1,-2 -6.2,-3 -0.4,-0.2 -1,-0.6 -1.1,-1.1 -0.8,-2 -1.4,-4.1 -2.2,-6.2 -1.1,-3.3 -2.8,-6.2 -4.6,-9.1 -1.4,-2.2 -3.3,-3.6 -6,-3.5 -0.6,0 -1.2,0.1 -1.8,0.1 -0.6,0.1 -1.2,0.2 -1.8,0.4 -0.9,0.3 -1.7,1 -2.5,1.5 -1.9,1.2 -3.9,2.5 -5.7,3.7 -0.2,0.1 -0.4,0.3 -0.6,0.4 -0.1,0.1 -0.1,0.2 -0.1,0.3 0.1,0 0.2,0.1 0.3,0.1 0.9,-0.2 1.8,-0.5 2.7,-0.7 1.3,-0.3 2.7,0 3.6,0.8 0.6,0.5 1.1,1.2 1.6,1.8 0.5,0.7 0.9,1.4 1.4,2.1 0.9,1.3 1.7,2.7 2.3,4.2 0.6,1.3 1,2.6 1.4,4 0,0 0,0.2 -0.1,0.2 -0.9,0.6 -1.8,1.2 -2.8,1.8 -0.1,0.1 -0.6,0 -0.6,-0.2 -0.5,-1 -1,-2.1 -1.6,-3.2 -0.3,-0.6 -0.7,-1.1 -1.1,-1.6 -0.2,-0.3 -0.5,-0.7 -0.7,-1 -0.2,-0.2 -0.4,-0.4 -0.6,-0.6 -0.4,-0.3 -0.8,-0.9 -1.3,-0.9 -0.6,-0.1 -1.3,0.2 -2,0.2 -1.9,-0.1 -3.3,1.1 -4.8,1.8 -1,0.4 -2,1.1 -2.9,1.7 -1,0.7 -2.1,1.3 -3.1,2 -0.6,0.5 -1.3,1 -1.9,1.5 -0.5,0.4 -1,0.4 -1.3,-0.3 -0.2,-0.3 -0.5,-0.6 -0.8,-0.8 -1.4,-1.1 -3.1,-1 -4.6,-0.3 -1.3,0.6 -2.4,1.6 -3.5,2.4 -0.4,0.3 -0.6,0.7 -0.9,1.1 -0.4,0.5 -0.7,1 -1.2,1.4 -0.7,0.6 -1.5,1.1 -2.2,1.7 -0.1,0.1 -0.1,0.2 -0.2,0.4 0.1,0 0.3,0 0.4,0 1.4,-0.6 2.8,-0.7 3.9,0.6 0.5,0.6 0.9,1.1 1.3,1.8 1.2,2 2.3,4 3.3,6 0.4,0.8 0.8,1.6 1.2,2.4 0.1,0.2 0.3,0.3 0.5,0.5 0,0 0,0.1 0,0.2 0,0.2 -0.1,0.4 0,0.5 0.3,0.6 0.6,1.1 0.8,1.6 0.9,1.9 2.6,2.4 4.3,1.3 1.1,-0.7 2.2,-1.4 3.4,-2.1 1.4,-0.9 2.8,-1.8 4.2,-2.7 0.5,-0.3 0.9,-0.8 1.4,-1.2 0.3,-0.2 0,-0.1 -0.2,0 z m 75.9,36.8 c 0.1,-2.2 0.3,-4.4 0.5,-6.5 0.1,-1.2 0.4,-2.5 0.5,-3.8 0.1,-1.4 0.2,-2.9 0.3,-4.3 0,-0.1 0.3,-0.3 0.4,-0.3 0.8,0.6 1.7,1.2 2.5,1.8 0.5,0.4 1.1,0.9 1.6,1.3 0.5,0.5 1,0.9 1.6,1.4 0.9,0.8 1.8,1.4 1.4,3 -0.4,1.5 -0.3,3.1 -0.4,4.7 -0.1,0.8 -0.2,1.6 -0.3,2.4 -0.2,0.9 -0.4,1.7 -0.6,2.6 -0.1,0.4 -0.2,0.9 -0.3,1.3 0,0.1 -0.2,0.3 -0.3,0.3 -0.8,0 -1.6,0.1 -2.4,0.1 -0.5,0 -1,0.1 -1.5,0 -0.6,-0.1 -1.1,-0.3 -1.6,-0.5 -1,-1.1 -1.5,-2.2 -1.4,-3.5 z m -27.4,-31 c 0.7,-0.6 1.3,-0.4 1.5,0.5 0.1,0.5 0.3,1 0.4,1.5 0.2,0.6 0.4,1.1 0.5,1.7 0.3,1.5 0.5,2.9 0.7,4.4 0.2,1.3 0.4,2.6 0.4,3.9 0,1.2 -0.1,2.4 -0.2,3.5 0,0.1 -0.3,0.4 -0.5,0.4 -1.5,-0.1 -2.6,-0.8 -3.5,-1.9 -0.6,-0.8 -1.4,-1.4 -1.9,-2.3 -0.8,-1.6 -1.1,-3.4 -0.9,-5.3 0.1,-1.3 0.6,-2.5 0.9,-3.9 1,-0.9 1.8,-1.7 2.6,-2.5 z M 507.1,58.2 c 0.8,0.8 1.1,2.1 1.6,3.3 0.5,1.2 0.8,2.4 1.2,3.7 0.3,1 0.6,2.1 0.8,3.1 0.4,1.5 0.7,3 1.1,4.5 0.3,1.1 -0.3,1.6 -1.7,1.6 -1.6,-0.1 -2.3,-1.2 -2.6,-2.8 -0.5,-2 -1.1,-4.1 -1.7,-6.1 -0.6,-2.1 -1.2,-4.2 -1.9,-6.3 -0.2,-0.6 -0.5,-1.2 -0.7,-1.8 -0.1,-0.2 -0.1,-0.5 -0.1,-0.8 0.3,0 0.6,0 0.9,0 0,0 0.1,0 0.3,0.1 0.8,0.4 2.1,0.7 2.8,1.5 z"
             id="path806"
             style="fill:#ffffff"
             inkscape:connector-curvature="0" /><path
             d="m 455.8,64.2 c 1.3,-0.8 2.5,-1.7 3.7,-2.7 1.3,-1 2.6,-2.2 4,-3.2 1.5,-1.2 3,-2.4 4.6,-3.7 1.1,-0.9 2.3,-1.9 3.4,-2.9 0.8,-0.7 1.6,-1.5 2.5,-2.2 1,-0.8 1.9,-1.6 2.9,-2.3 1.3,-1 2.7,-2 4.1,-3.1 0.3,-0.3 0.4,-0.9 0.5,-1.4 0,-0.1 -0.5,-0.2 -0.8,-0.3 -0.8,-0.2 -1.6,-0.4 -2.4,-0.6 -1,-0.3 -2,-0.5 -3,-0.8 -0.6,-0.1 -1.1,-0.3 -1.7,-0.4 l -1.7,-0.3 c -0.5,-0.1 -1,-0.3 -1.5,-0.4 -1.7,-0.2 -3.5,-0.4 -5.2,-0.7 -1.5,-0.3 -2.9,-0.8 -4.4,-1.3 -0.7,-0.2 -1.5,-0.5 -2.2,-0.5 -2.4,0 -4.9,0 -7.3,0.3 -0.9,0.1 -1.8,0.8 -2.5,1.4 -0.7,0.6 -1.2,1.3 -1.9,2 -1.5,1.5 -2.9,3 -4.3,4.5 -0.1,0.1 0,0.4 0,0.6 0,0.2 0.1,0.4 0,0.6 -0.1,0.3 -0.4,0.5 -0.6,0.7 -1,1.1 -2,2.2 -3,3.3 -0.1,0.1 -0.1,0.4 -0.2,0.6 0.1,-0.1 0.3,-0.1 0.4,-0.2 0.4,-0.3 0.9,-0.7 1.3,-1 0.9,-0.7 1.9,-0.8 2.7,-0.2 1,0.8 2,1.7 2.7,2.7 1.3,2 2.4,4.2 3.5,6.2 0.7,1.3 1.4,2.6 2.1,4 0.4,0.9 0.9,1.6 2.1,2.1 0.5,0 1.4,-0.3 2.2,-0.8 z m 3.7,-8.7 c -0.5,-1 -0.9,-2.1 -1.5,-3 -1,-1.9 -2,-3.8 -3,-5.7 0,-0.1 -0.1,-0.3 0,-0.3 0,-0.1 0.2,-0.1 0.3,-0.1 l 4.3,0.6 c 1.4,0.3 2.9,0.5 4.3,0.8 2.2,0.5 4.3,1 6.5,1.6 0.6,0.2 0.8,0.8 0.2,1.2 -1.4,1.3 -2.8,2.5 -4.2,3.8 -0.9,0.9 -1.8,1.8 -2.8,2.6 -0.7,0.5 -1.5,0.7 -2.1,1 -1.1,-0.5 -1.5,-1.6 -2,-2.5 z"
             id="path808"
             style="fill:#ffffff"
             inkscape:connector-curvature="0" /><path
             d="m 437.4,45.2 c -1.6,-0.4 -3.1,-0.9 -4.6,-1.2 -0.7,-0.1 -1.5,-0.2 -2.2,-0.2 -0.2,0 -0.4,0.2 -0.6,0.3 0.1,0.2 0.2,0.4 0.3,0.5 1.1,1.4 2.1,2.8 3.2,4.3 1,1.5 2.1,2.9 3.1,4.4 1.1,1.6 2.3,3.1 3.4,4.5 0.7,0.9 1.3,0.7 2.1,-0.2 0.6,-0.7 1.3,-1.3 2,-1.9 0.1,-0.1 0.4,0 0.4,0 0,0.2 0.1,0.5 0,0.6 -0.5,0.7 -1,1.5 -1.6,2 -1.5,1.5 -3.1,2.9 -4.7,4.4 -1,0.9 -1.9,1.9 -3,2.7 -1.4,1.1 -2,1.1 -3.3,-0.2 -1.2,-1.2 -2.2,-2.6 -3.2,-4 -1.3,-1.7 -2.6,-3.4 -3.9,-5.2 -1.2,-1.6 -2.3,-3.2 -3.5,-4.8 -0.4,-0.6 -0.6,-1.1 0.1,-1.8 0.6,-0.6 1,-1.3 1.9,-1.3 0,0 0.1,-0.1 0.1,-0.2 0.3,-1.7 1.7,-2.3 2.6,-3.5 0.6,-0.8 1.3,-1.5 2,-2.2 1.2,-1.2 2.5,-2.5 3.8,-3.7 0.5,-0.5 1,-0.9 1.4,-1.4 1,-1.2 2.1,-1.6 3.6,-1.6 3.1,-0.1 5.9,1 8.8,1.7 0.1,0 0.2,0.4 0.2,0.5 -0.7,0.7 -1.4,1.3 -2.1,1.9 -0.6,0.5 -1.2,1.1 -1.8,1.6 -0.6,0.6 -1.3,1.1 -1.9,1.7 -0.6,0.6 -1.2,1.2 -1.8,1.8 -0.3,0.4 -0.6,0.4 -0.8,0.5 z"
             id="path810"
             style="fill:#ffffff"
             inkscape:connector-curvature="0" /><path
             d="m 468.8,61.5 c 0,0.3 0,0.5 0,0.5 -0.1,0.2 -0.3,0.4 -0.5,0.5 -1.1,0.7 -0.7,1.6 -0.1,2.3 1.4,1.5 2.9,3.1 4.1,4.9 0.3,0.5 0.2,1.7 -0.1,2.4 -0.4,0.8 -1.2,1.6 -1.9,2.2 -1.3,1 -2.6,1.9 -3.9,2.8 -0.8,0.6 -1.6,1.3 -2.4,2 -0.7,0.6 -1.3,1.1 -2,1.7 0,0 -0.1,0 -0.2,0 0,0 0.1,-0.1 0.1,-0.1 0.3,-0.3 0.7,-0.6 0.9,-0.9 1.5,-2.1 1.3,-3.3 -0.2,-4.8 -1.2,-1.2 -2.3,-2.4 -3.4,-3.7 -0.5,-0.6 -0.5,-1.9 0.4,-2.7 0.4,-0.3 0.8,-0.8 1.2,-1.1 2.1,-1.7 4.4,-3.3 6.6,-4.9 0.6,-0.4 0.9,-0.7 1.4,-1.1 z"
             id="path812"
             style="fill:#ffffff"
             inkscape:connector-curvature="0" /><path
             d="m 570.8,72.3 c -0.2,0.2 -0.3,0.4 -0.5,0.4 -1.2,0.2 -0.9,1.3 -1,2 0,0.9 0.3,1.7 0.4,2.6 0.2,1.8 0.5,3.5 0.6,5.2 0.1,0.8 -0.7,1.2 -1.4,1.3 -1,0.1 -1.9,0.4 -2.9,0.7 -0.9,0.2 -1.7,0.6 -2.5,0.8 -1.4,0.3 -2.8,0.6 -4.2,0.9 -0.9,0.2 -1.8,0.2 -2.7,0.2 0,0 -0.1,0 -0.1,0 0.1,-0.1 0.1,-0.1 0.2,-0.1 0.4,-0.1 0.8,-0.2 1.2,-0.3 1.3,-0.4 1.8,-1.2 1.5,-2.5 -0.1,-0.6 0,-1.3 0,-1.9 -0.1,-1 -0.4,-2.1 -0.6,-3.1 -0.1,-1.2 -0.6,-2.4 0.1,-3.5 0.2,-0.4 0.9,-0.5 1.4,-0.7 1.2,-0.3 2.4,-0.6 3.6,-0.9 1.9,-0.4 3.8,-0.8 5.7,-1.2 0.3,-0.1 0.6,-0.1 0.9,-0.1 0,0 0.2,0.1 0.3,0.2 z"
             id="path814"
             style="fill:#ffffff"
             inkscape:connector-curvature="0" /></g><g
           id="g828"
           style="fill:#ffffff"><path
             d="m 632.2,185.7 c -1.2,-0.4 -1.9,-1.9 -1.6,-2.9 0.6,-1.7 1.3,-3.4 1.9,-5.2 0.8,-2.4 1.6,-4.8 2.3,-7.2 0.1,-0.2 0.3,-0.6 0.5,-0.6 0.9,0 1.9,0.1 2.7,0.3 0.7,0.2 1.3,0.6 2,1 0.9,0.5 1.6,1.4 1.5,2.4 -0.2,1.5 -0.5,3 -1,4.5 -0.4,1.2 -1.1,2.5 -1.6,3.7 -0.9,2 -1.8,4 -2.7,6 -0.5,1.1 -1.1,2.2 -1.7,3.3 -0.3,0.7 -0.6,1.3 -0.9,2 -0.1,0.3 -0.3,0.5 -0.4,0.8 -0.1,0.2 -0.1,0.5 -0.3,0.7 -0.3,0.4 -0.5,0.8 -0.9,1 -0.5,0.2 0.3,0.9 -0.5,0.9 -0.1,0 -0.3,0.7 -0.4,1.1 0,0.1 0.1,0.3 0.1,0.4 -0.2,1 0.4,1.9 1.3,2.2 0.3,0.1 0.6,0 1,0.1 0.1,0 0.1,0.3 0.2,0.3 0.3,0.1 0.7,0.2 1,0.3 0.2,0.1 0.4,0.3 0.6,0.4 1.5,0.6 3.1,1.2 4.6,1.8 0.3,0.1 0.6,0.4 1,0.5 0.7,0.3 1.5,0.4 2.1,0.7 0.1,0 0.2,0.3 0.1,0.5 -0.2,0.4 -0.5,0.7 -0.8,1 -0.7,1 -1.3,2.1 -1.9,3.1 -0.6,0.8 -1.2,1.6 -1.8,2.4 -0.8,1.2 -1.5,2.3 -2.3,3.4 -0.1,0.1 -0.1,0.2 -0.2,0.4 0.1,0 0.3,0 0.4,0.1 0.1,0 0.2,0.1 0.2,0.2 0,0 0,0 0,0.1 -0.1,0 -0.1,-0.1 -0.2,-0.1 -0.4,0 -0.9,-0.2 -0.8,0.5 0,0 -0.1,0.1 -0.1,0.2 0,0 -0.1,0 -0.1,-0.1 0,-0.1 0,-0.1 0,-0.2 -0.1,0.1 -0.2,0.1 -0.2,0.2 -0.8,1.4 -1.2,2.8 -0.9,4.2 0.2,1.1 1.4,1.9 2.7,1.9 0.7,0 1.5,0.2 2.2,0.4 0.7,0.2 1.3,0.6 2,0.9 0,0 0.1,0.1 0,0.2 -0.4,0.4 -0.1,0.7 0.3,0.9 0.5,0.2 0.9,0.4 1.4,0.6 0.1,0 0.1,0.2 0.1,0.2 -0.7,1.2 -0.7,2.5 -0.7,3.8 -0.2,2.4 0.7,4.1 2.7,5.4 0.8,0.5 1.7,0.9 2.6,1.3 1.5,0.8 3.1,1.5 4.6,2.3 0.4,0.2 0.6,0.4 0.1,0.8 -0.7,0.7 -1.4,1.3 -2,2 -0.7,0.7 -1.4,1.3 -2,2 -0.3,0.3 -0.9,0.6 -0.5,1.2 0,0 0,0.1 -0.1,0.2 0,0 -0.1,0 -0.1,0 -0.1,0 -0.3,0 -0.3,0 -0.1,0.2 -0.1,0.4 -0.3,0.5 -1,0.7 -0.8,2.3 0,3 0.6,0.4 1.2,0.9 1.9,1.3 1.7,1.1 3.3,2.2 4.9,3.3 0.3,0.2 0.6,0.3 0.9,0.5 0.5,0.4 0.9,0.9 1.4,1.4 0.1,0.1 0.2,0.5 0.1,0.6 -0.6,0.7 -1.3,1.3 -1.9,1.9 -0.5,0.6 -1.1,1.1 -1.6,1.7 -0.7,0.7 -1.4,1.3 -2,2 -0.8,0.9 -1,2 -0.6,3 0.3,0.8 1,1.6 1.8,2.2 1.5,1.3 3.2,2.4 4.7,3.7 1.5,1.2 3,2.4 4.4,3.6 0.1,0.1 0.2,0.5 0.1,0.6 -0.6,0.5 -1.3,0.9 -2,1.4 -0.9,0.6 -1.9,1.3 -2.8,1.9 -0.6,0.4 -1.1,0.9 -1.7,1.4 -0.9,0.7 -1.8,1.3 -2.7,2 -0.8,0.6 -1.7,1.2 -2.5,1.8 -0.5,0.3 -1.2,0.6 -1.5,1 -0.6,0.7 -1.5,1.2 -1.8,2.2 -0.3,0.9 -0.4,1.7 -0.1,2.5 0.6,2 2.4,3.2 3.8,4.7 0.9,1 1.9,2.1 3,3.1 0.8,0.8 1.8,1.5 2.7,2.2 0.1,0 0.2,0 0.3,0 0,-0.1 0,-0.2 0,-0.3 -0.5,-0.5 -0.9,-1.1 -1.4,-1.6 -2,-1.6 -1.6,-3.5 -0.5,-4.7 1.1,-1.1 2.5,-2 3.8,-2.9 1.7,-1.3 3.6,-2.5 5.3,-3.7 1.2,-0.8 2.3,-1.7 3.5,-2.5 1.9,-1.2 3.9,-2.3 5.8,-3.5 0.6,-0.4 0.8,-0.1 0.8,0.3 0,1.5 -0.1,2.9 -0.1,4.4 0,0.4 0.1,0.9 0.4,1.1 1.3,1.2 2.6,2.4 3.9,3.7 0.7,0.7 1.3,1.6 2,2.3 0.5,0.5 1,0.9 1.6,1.4 0.1,0.1 0.2,0 0.3,0.1 0,0 0,-0.1 0,-0.1 0,-0.9 0,-1.8 0.1,-2.7 0,-0.6 0.1,-1.2 0.2,-1.8 0,-0.9 0.1,-1.7 0.1,-2.6 0,-0.9 0,-1.7 0,-2.6 0,-1.4 -0.2,-2.9 -0.2,-4.3 0,-1.8 0,-3.6 0,-5.4 0,-0.2 0.1,-0.6 0.3,-0.7 0.7,-0.6 1.5,-1.2 2.2,-1.9 1.9,-1.8 3.8,-3.5 5.6,-5.5 1.5,-1.6 3.1,-3.3 4.4,-5.3 0.9,-1.4 1.6,-3.2 2.1,-4.9 0.3,-1.2 0.5,-2.5 0.3,-3.8 -0.3,-2.1 -1,-4.1 -2.8,-5.4 -0.6,-0.5 -1.2,-1.1 -1.8,-1.5 -0.8,-0.6 -1.6,-1.1 -2.4,-1.6 -1.7,-1.1 -3.4,-2.2 -5.1,-3.2 -0.2,-0.1 -0.6,-0.2 -0.8,-0.3 0.2,0.2 0.4,0.5 0.6,0.7 0,0 0,0 0.1,0 2.3,1.3 3.7,3.3 3.5,6.1 -0.1,1.9 -0.3,3.7 -1.3,5.4 -0.4,0.6 -0.6,1.4 -1,2 -0.4,0.6 -0.9,1.1 -1.3,1.7 -1,1.2 -2,2.4 -3,3.6 -0.2,0.2 -0.8,0.5 -1,0.3 -1.6,-1.1 -3.1,-2.4 -4.7,-3.4 -2,-1.3 -4.1,-2.4 -6.1,-3.6 -1.4,-0.8 -2.7,-1.8 -4.1,-2.6 -0.3,-0.2 -0.9,-0.2 -1,-0.1 -1.2,1.1 -2.3,2.2 -3.4,3.3 -0.4,0.4 -0.7,0.8 -1.1,1.1 -0.6,0.4 -1.2,0.8 -1.8,1.2 -0.1,0.1 -0.2,0.1 -0.3,0 -0.9,-0.2 -2,-1.8 -1.5,-2.6 0.7,-1.2 1.6,-2.3 2.4,-3.4 0.5,-0.7 1,-1.3 1.6,-1.9 0.2,-0.2 0.7,-0.3 0.9,-0.6 0.6,-0.5 1.2,-1.1 1.7,-1.6 1.6,-1.6 3.4,-3.3 4.8,-5.1 1,-1.2 1.9,-2.5 2.9,-3.8 0.5,-0.7 0.9,-1.3 1.4,-2 0.4,-0.7 0.8,-1.3 1.3,-2 0.8,-1.2 1.4,-2.6 1.3,-4.1 -0.1,-1.3 -0.6,-2.6 -1.2,-3.8 -0.5,-1.2 -1.4,-2.1 -2.2,-3 -1.7,-1.7 -3.9,-2.5 -6,-3.5 -0.5,-0.2 -1,-0.3 -1.4,-0.5 -1.5,-0.9 -3.1,-1.8 -4.9,-2.1 -0.1,0 -0.2,0.1 -0.4,0.2 0.1,0.1 0.1,0.2 0.2,0.3 0.9,0.4 1.8,0.8 2.7,1.2 1.5,0.7 2.2,2.2 2.9,3.5 0.6,1.1 1,2.4 0.5,3.7 -0.1,0.2 -0.5,0.5 -0.5,0.5 -1.4,-0.7 -2.8,-1.5 -4.3,-2.1 -1.3,-0.6 -2.6,-1.2 -4,-1.8 -1.2,-0.5 -2.4,-0.9 -3.8,-0.5 -0.3,0.1 -0.5,0.3 -0.7,0.3 -0.7,0.1 -1.3,0.1 -2,0.3 -0.6,0.2 -1.2,0.6 -1.7,1 -0.4,0.3 -0.8,0.6 -1.1,0.9 -0.6,0.6 -1.3,1.1 -1.9,1.7 -0.1,0.1 -0.1,0.1 -0.1,0.2 0,-0.1 -0.1,-0.1 -0.1,-0.2 0,-0.3 -0.1,-0.7 0.1,-1 0.7,-1.3 1.3,-2.6 2.1,-3.8 1.7,-2.4 3.5,-4.8 5.1,-7.2 0.7,-1 1.3,-2 2,-3 0.9,-1.3 1.8,-2.7 2.7,-4.1 0.1,-0.2 0.3,-0.3 0.4,-0.4 0.1,0.1 0.3,0.2 0.4,0.4 0.4,1 0.8,1.9 2.1,2.2 1.5,0.4 2.8,1.3 4.2,2 1.4,0.7 2.8,1.3 4.2,2 0.1,0.1 0.2,0.1 0.4,0.1 0,-0.1 0,-0.3 0,-0.4 -0.4,-1 -0.7,-2 -1.1,-3.1 -0.7,-2.1 -1.4,-4.2 -2.1,-6.3 -0.7,-2.2 -1.4,-4.4 -2.2,-6.5 -0.2,-0.5 -0.3,-1.1 -0.1,-1.5 0.9,-2 1.9,-3.9 2.8,-5.9 1.4,-3.1 2.5,-6.4 3.3,-9.7 0.6,-2.6 0.2,-4.9 -1.8,-6.7 -0.9,-0.8 -1.9,-1.6 -3,-2.2 -0.8,-0.4 -1.8,-0.5 -2.8,-0.7 -2.3,-0.5 -4.5,-1 -6.7,-1.4 -0.2,0 -0.5,-0.1 -0.7,-0.1 -0.1,0 -0.2,0.1 -0.3,0.1 0.1,0.1 0.1,0.2 0.2,0.3 0.8,0.5 1.7,0.9 2.4,1.4 1.1,0.7 1.9,1.9 1.9,3.1 0,1.6 -0.3,3.3 -0.7,4.9 -0.3,1.6 -0.7,3.1 -1.3,4.6 -0.5,1.3 -1.2,2.5 -1.8,3.8 0,0 -0.1,0.1 -0.2,0.1 -1.1,-0.2 -2.2,-0.4 -3.2,-0.7 -0.2,0 -0.4,-0.4 -0.3,-0.6 0.3,-1.1 0.8,-2.2 1.1,-3.4 0.2,-0.6 0.2,-1.3 0.4,-1.9 0.1,-0.4 0.2,-0.8 0.2,-1.2 0,-0.3 0,-0.6 0,-0.9 0,-0.5 0,-1.2 -0.2,-1.6 -0.4,-0.5 -1,-0.8 -1.5,-1.3 -1.3,-1.3 -3.1,-1.5 -4.7,-2.1 -1,-0.4 -2.2,-0.6 -3.3,-0.8 -1.2,-0.3 -2.4,-0.5 -3.6,-0.7 -0.8,-0.1 -1.6,-0.2 -2.3,-0.3 -0.6,-0.1 -0.9,-0.4 -0.7,-1.2 0.1,-0.4 0.1,-0.8 0,-1.2 -0.3,-1.8 -1.5,-2.9 -3.1,-3.4 -1.3,-0.5 -2.8,-0.6 -4.2,-0.8 -0.5,-0.1 -1,0.1 -1.4,0.1 -0.6,0.1 -1.2,0.2 -1.8,0.2 -0.9,-0.1 -1.8,-0.3 -2.6,-0.4 -0.1,0 -0.3,0.1 -0.4,0.1 0.1,0.1 0.2,0.2 0.3,0.3 1.4,0.7 2.4,1.6 2.3,3.3 -0.1,0.7 -0.1,1.5 -0.3,2.2 -0.6,2.2 -1.2,4.4 -1.8,6.6 -0.3,0.9 -0.6,1.7 -0.9,2.6 -0.1,0.2 0,0.5 0,0.7 0,0 0,0.1 -0.1,0.1 -0.1,0.1 -0.3,0.2 -0.4,0.3 -0.2,0.6 -0.4,1.2 -0.6,1.8 -0.7,2 0.2,3.6 2.2,4 1.3,0.3 2.6,0.6 3.9,0.9 1.6,0.3 3.2,0.7 4.8,1.1 0.6,0.1 1.2,0.1 1.8,0.2 -0.8,-0.2 -1,-0.4 -1.3,-0.4 z m 27.7,79.6 c 1.6,-1.4 3.3,-2.8 5,-4.2 1,-0.8 2.1,-1.5 3.1,-2.3 1.1,-0.9 2.1,-1.9 3.2,-2.9 0.1,-0.1 0.4,0 0.5,0.1 0.2,1 0.4,2 0.5,3 0.1,1.4 0.2,2.8 0.2,4.2 0.1,1.2 0.3,2.2 -1.1,3.1 -1.3,0.8 -2.4,2 -3.6,3 -0.6,0.5 -1.3,1 -1.9,1.5 -0.7,0.5 -1.5,0.9 -2.2,1.4 -0.4,0.2 -0.8,0.5 -1.2,0.7 -0.1,0 -0.3,0 -0.4,0 -0.6,-0.6 -1.2,-1.1 -1.8,-1.6 -0.4,-0.3 -0.8,-0.6 -1.1,-1 -0.3,-0.5 -0.5,-1 -0.8,-1.5 0.2,-1.5 0.6,-2.6 1.6,-3.5 z m 2.7,-41.2 c 0.9,0.1 1.1,0.7 0.6,1.4 -0.3,0.4 -0.5,0.9 -0.8,1.3 -0.3,0.5 -0.5,1.1 -0.9,1.6 -0.8,1.2 -1.7,2.4 -2.6,3.6 -0.8,1 -1.6,2.1 -2.4,3 -0.8,0.9 -1.7,1.6 -2.6,2.4 -0.1,0.1 -0.5,0 -0.6,-0.1 -1,-1.1 -1.3,-2.4 -1.2,-3.8 0.1,-1 0,-2 0.3,-2.9 0.5,-1.7 1.7,-3.2 3.1,-4.4 1,-0.8 2.2,-1.4 3.5,-2.1 1.2,-0.1 2.4,-0.1 3.6,0 z m -11.4,-34.9 c -0.1,1.2 -0.8,2.3 -1.3,3.5 -0.5,1.2 -1.1,2.3 -1.7,3.4 -0.5,0.9 -1.1,1.9 -1.6,2.8 -0.8,1.3 -1.6,2.6 -2.4,3.9 -0.6,1 -1.3,1 -2.3,-0.1 -1.1,-1.2 -0.8,-2.5 0,-3.8 1.1,-1.8 2.1,-3.7 3.1,-5.5 1.1,-1.9 2.2,-3.9 3.2,-5.8 0.3,-0.6 0.5,-1.1 0.7,-1.7 0.1,-0.2 0.3,-0.4 0.5,-0.6 0.2,0.2 0.4,0.4 0.6,0.6 0,0 0,0.1 0.2,0.3 0.4,0.8 1,1.9 1,3 z"
             id="path818"
             style="fill:#ffffff"
             inkscape:connector-curvature="0" /><path
             d="m 610.6,157.2 c 1.4,0.4 3,0.6 4.5,0.8 1.7,0.2 3.4,0.3 5.1,0.5 2,0.2 3.9,0.4 5.9,0.6 1.5,0.2 2.9,0.3 4.4,0.5 1.1,0.1 2.2,0.1 3.3,0.2 1.2,0.1 2.5,0.3 3.7,0.4 1.7,0.2 3.4,0.5 5.1,0.7 0.4,0 0.9,-0.4 1.3,-0.6 0,0 -0.2,-0.5 -0.3,-0.7 -0.4,-0.7 -0.9,-1.4 -1.3,-2.1 -0.5,-0.9 -1,-1.8 -1.6,-2.6 l -1.9,-2.9 c -0.3,-0.4 -0.5,-1 -0.8,-1.4 -1.1,-1.4 -2.2,-2.7 -3.2,-4.1 -0.9,-1.3 -1.5,-2.7 -2.3,-4 -0.4,-0.7 -0.6,-1.4 -1.2,-2 -1.8,-1.7 -3.5,-3.4 -5.4,-4.9 -0.7,-0.6 -1.8,-0.7 -2.8,-0.8 -0.9,-0.1 -1.9,0.1 -2.8,0.1 -2,0 -4.2,0 -6.2,0.1 -0.1,0 -0.3,0.3 -0.5,0.4 -0.1,0.1 -0.2,0.4 -0.4,0.4 -0.3,0.1 -0.6,0.1 -0.9,0.1 -1.5,0.1 -3,0.1 -4.4,0.2 -0.2,0 -0.4,0.2 -0.5,0.3 0.1,0 0.3,0.1 0.4,0.1 0.5,0.1 1.1,0.1 1.7,0.2 1.1,0.1 1.9,0.7 2.1,1.8 0.2,1.2 0.2,2.6 -0.1,3.8 -0.5,2.3 -1.3,4.6 -1.9,6.9 -0.4,1.4 -0.8,2.9 -1.4,4.3 -0.4,1 -0.5,1.8 0.1,2.9 0.6,0.1 1.4,0.6 2.3,0.8 z m 8.8,-3.5 c 0.3,-1.1 0.8,-2.1 1.1,-3.2 0.7,-2.1 1.3,-4.1 1.9,-6.1 0,-0.1 0.1,-0.2 0.2,-0.3 0.1,0 0.2,0.1 0.3,0.2 l 1.3,1.7 1.3,1.8 c 0.8,1.2 1.7,2.4 2.5,3.6 1.2,1.9 2.4,3.8 3.5,5.7 0.3,0.6 0,1.1 -0.7,1.1 -0.9,-0.1 -1.8,-0.1 -2.8,-0.2 l -2.8,-0.1 c -1.3,0 -2.6,0 -3.8,-0.1 -0.8,-0.1 -1.6,-0.6 -2.1,-0.8 -0.7,-1.3 -0.2,-2.3 0.1,-3.3 z"
             id="path820"
             style="fill:#ffffff"
             inkscape:connector-curvature="0" /><path
             d="m 611.1,130.7 c -0.8,-1.4 -1.5,-2.8 -2.4,-4.1 -0.4,-0.6 -0.9,-1.1 -1.4,-1.7 -0.1,-0.1 -0.4,-0.2 -0.6,-0.3 -0.1,0.2 -0.1,0.4 -0.2,0.5 -0.2,1.8 -0.5,3.5 -0.8,5.3 -0.3,1.8 -0.6,3.5 -0.9,5.3 -0.3,1.9 -0.6,3.8 -0.7,5.6 -0.1,1.1 0.5,1.4 1.6,1.3 0.9,-0.1 1.9,0 2.8,0.1 0.1,0 0.3,0.3 0.3,0.3 -0.1,0.2 -0.3,0.4 -0.5,0.5 -0.8,0.1 -1.7,0.3 -2.6,0.3 -2.2,0 -4.3,-0.1 -6.4,-0.2 -1.4,0 -2.7,0 -4,-0.2 -1.8,-0.2 -2.2,-0.6 -2.2,-2.5 0,-1.6 0.3,-3.4 0.5,-5.1 0.3,-2.1 0.6,-4.3 0.9,-6.4 0.3,-1.9 0.6,-3.9 0.9,-5.9 0.1,-0.7 0.3,-1.2 1.3,-1.2 0.8,0 1.6,-0.2 2.3,0.4 0,0 0.2,0 0.2,0 1.4,-1 2.8,-0.5 4.3,-0.6 1,-0.1 2,-0.1 3,-0.1 1.7,0 3.5,0 5.3,0 0.7,0 1.3,0.1 2,0 1.5,-0.1 2.6,0.4 3.7,1.4 2.3,2.1 3.5,4.8 5,7.4 0,0.1 -0.2,0.4 -0.2,0.4 -1,0 -1.9,-0.1 -2.9,-0.1 -0.8,0 -1.6,0 -2.4,-0.1 -0.9,0 -1.7,-0.2 -2.5,-0.2 -0.8,0 -1.7,0 -2.5,0 -0.5,0.2 -0.7,0 -0.9,-0.1 z"
             id="path822"
             style="fill:#ffffff"
             inkscape:connector-curvature="0" /><path
             d="m 621.7,164.5 c -0.2,0.2 -0.3,0.4 -0.4,0.4 -0.2,0 -0.5,0.1 -0.7,0 -1.3,-0.3 -1.7,0.6 -1.7,1.6 -0.1,2.1 -0.1,4.2 -0.5,6.3 -0.1,0.6 -1.1,1.3 -1.8,1.6 -0.9,0.3 -1.9,0.3 -2.9,0.2 -1.6,-0.2 -3.2,-0.5 -4.8,-0.7 -1,-0.1 -2,-0.2 -3,-0.3 -0.8,-0.1 -1.7,-0.2 -2.6,-0.2 -0.1,0 -0.1,-0.1 -0.1,-0.1 0.1,0 0.1,0 0.2,0 0.4,0 0.9,0.1 1.3,0 2.5,-0.4 3.2,-1.4 3.2,-3.6 0,-1.6 0,-3.3 0.1,-5 0,-0.8 0.9,-1.7 2.2,-1.6 0.5,0.1 1.1,0 1.7,0.1 2.7,0.3 5.5,0.7 8.2,1.2 0.6,0 1,0.1 1.6,0.1 z"
             id="path824"
             style="fill:#ffffff"
             inkscape:connector-curvature="0" /><path
             d="m 686.2,244.3 c -0.3,0 -0.5,0 -0.6,-0.1 -1,-0.7 -1.6,0.2 -2.1,0.7 -0.6,0.6 -1.1,1.5 -1.6,2.2 -1.1,1.4 -2.1,2.8 -3.2,4.2 -0.5,0.6 -1.4,0.4 -2,-0.1 -0.8,-0.6 -1.7,-1.1 -2.5,-1.6 -0.8,-0.4 -1.6,-0.8 -2.3,-1.2 -1.2,-0.8 -2.3,-1.6 -3.5,-2.4 -0.8,-0.5 -1.4,-1.2 -2.1,-1.7 0,0 0,-0.1 -0.1,-0.1 0.1,0 0.2,0 0.2,0 0.4,0.2 0.7,0.4 1.1,0.6 1.2,0.6 2.1,0.4 2.9,-0.7 0.4,-0.5 0.9,-0.9 1.3,-1.4 0.6,-0.8 1.1,-1.7 1.8,-2.6 0.7,-0.9 1.2,-2.1 2.5,-2.4 0.4,-0.1 1,0.3 1.5,0.5 1.1,0.6 2.1,1.3 3.2,1.9 1.6,1 3.3,2.1 4.9,3.2 0.2,0.2 0.5,0.3 0.7,0.6 0,0 -0.1,0.2 -0.1,0.4 z"
             id="path826"
             style="fill:#ffffff"
             inkscape:connector-curvature="0" /></g></g></g></g></svg>