<?xml version="1.0" encoding="UTF-8" standalone="no"?>
<!-- Generator: Adobe Illustrator 21.0.0, SVG Export Plug-In . SVG Version: 6.00 Build 0)  -->

<svg
   xmlns:dc="http://purl.org/dc/elements/1.1/"
   xmlns:cc="http://creativecommons.org/ns#"
   xmlns:rdf="http://www.w3.org/1999/02/22-rdf-syntax-ns#"
   xmlns:svg="http://www.w3.org/2000/svg"
   xmlns="http://www.w3.org/2000/svg"
   xmlns:sodipodi="http://sodipodi.sourceforge.net/DTD/sodipodi-0.dtd"
   xmlns:inkscape="http://www.inkscape.org/namespaces/inkscape"
   version="1.1"
   id="Layer_1"
   x="0px"
   y="0px"
   viewBox="0 0 583.84172 583.84175"
   xml:space="preserve"
   sodipodi:docname="contact2.svg"
   width="583.84174"
   height="583.84174"
   inkscape:version="0.92.2 (5c3e80d, 2017-08-06)"><metadata
     id="metadata728"><rdf:RDF><cc:Work
         rdf:about=""><dc:format>image/svg+xml</dc:format><dc:type
           rdf:resource="http://purl.org/dc/dcmitype/StillImage" /></cc:Work></rdf:RDF></metadata><sodipodi:namedview
     pagecolor="#ffffff"
     bordercolor="#666666"
     borderopacity="1"
     objecttolerance="10"
     gridtolerance="10"
     guidetolerance="10"
     inkscape:pageopacity="0"
     inkscape:pageshadow="2"
     inkscape:window-width="640"
     inkscape:window-height="480"
     id="namedview726"
     showgrid="false"
     inkscape:zoom="0.3729659"
     inkscape:cx="291.92088"
     inkscape:cy="291.92088"
     inkscape:window-x="129"
     inkscape:window-y="41"
     inkscape:window-maximized="0"
     inkscape:current-layer="Layer_1" /><defs
     id="defs669"><style
       type="text/css"
       id="style667"><![CDATA[
		path {
			fill:white;
		}
		]]></style></defs><g
     id="g723"
     style="fill:#ffffff"
     transform="translate(-129.02913,-5.7291301)"><g
       id="g721"
       style="fill:#ffffff"><g
         id="g719"
         style="fill:#ffffff"><g
           id="g681"
           style="fill:#ffffff"><path
             d="m 609.9,425.8 c -0.4,-2.4 1.2,-5.1 3.3,-5.3 1.8,-0.2 3.6,-0.4 5.4,-0.7 1.8,-0.2 3.7,-0.5 5.4,-0.9 4.9,-0.9 9.8,-1.9 14.8,-3.1 0.5,-0.1 1.4,0 1.5,0.2 0.9,1.6 1.8,3.3 2.3,5 0.4,1.4 0.3,2.9 0.3,4.4 0,2.1 -0.8,4.2 -2.7,5 -2.9,1.2 -5.9,1.9 -9,2.5 -2.6,0.5 -5.3,0.5 -7.9,0.7 -4.4,0.3 -8.8,0.5 -13,0.5 -2.5,0 -4.9,0 -7.3,-0.1 -1.5,0 -2.9,0 -4.4,0 -0.6,0 -1.2,-0.1 -1.8,-0.1 -0.5,0 -1.1,0.2 -1.6,0.1 -0.8,-0.2 -1.9,-0.3 -2.5,-0.8 -0.9,-0.8 -1.2,1.2 -2.1,-0.2 -0.1,-0.2 -1.5,0.1 -2.3,0.3 -0.3,0 -0.4,0.4 -0.7,0.5 -1.8,0.5 -3,2.1 -2.5,4 0.1,0.6 0.5,1.2 0.7,1.8 0,0.1 -0.4,0.3 -0.4,0.5 0.1,0.6 0.3,1.3 0.4,2 0,0.5 -0.2,0.9 -0.1,1.4 0.1,1.6 0.3,3.2 0.4,4.8 0.1,1.6 0.2,3.2 0.3,4.8 0,0.7 -0.2,1.4 -0.2,2.1 0.1,1.4 0.3,2.9 0.4,4.4 0,0.2 -0.5,0.6 -0.7,0.6 -0.8,-0.1 -1.6,-0.5 -2.4,-0.6 -2.3,-0.4 -4.7,-0.8 -7,-1.4 -1.9,-0.5 -3.8,-1.1 -5.6,-1.6 -2.6,-0.7 -5.2,-1.3 -7.7,-2 -0.3,-0.1 -0.5,-0.1 -0.8,-0.1 0,0.2 0.1,0.5 0.1,0.7 0,0.2 -0.1,0.4 -0.2,0.6 0,0 -0.1,0 -0.1,0 0,-0.1 0,-0.3 0,-0.4 -0.3,-0.6 -0.4,-1.7 -1.4,-1.1 -0.1,0 -0.3,-0.1 -0.4,-0.1 0,-0.1 0,-0.2 0.1,-0.2 0.1,-0.1 0.2,-0.1 0.4,-0.1 -0.2,-0.1 -0.4,-0.2 -0.6,-0.2 -3.1,-0.7 -5.8,-0.7 -8.1,0.7 -1.6,1.1 -2.2,3.7 -1.3,6 0.5,1.4 0.7,2.9 0.8,4.3 0.1,1.4 -0.1,2.8 -0.3,4.2 0,0.1 -0.2,0.2 -0.3,0.1 -1,-0.4 -1.3,0.2 -1.4,1 -0.1,1 -0.2,2 -0.3,2.9 0,0.1 -0.2,0.3 -0.3,0.3 -2.7,-0.6 -5,0 -7.3,0.6 -2.1,0.6 -3.9,1.3 -5.2,2.7 -1.3,1.3 -2.3,3.1 -2.9,5.3 -0.5,1.8 -0.7,3.6 -1,5.5 -0.5,3.2 -1.1,6.5 -1.8,9.9 -0.2,0.9 -0.5,1.4 -1.5,0.7 -1.6,-1 -3.2,-2 -4.8,-3 -1.6,-1 -3.1,-2 -4.7,-2.9 -0.7,-0.4 -1.6,-1.5 -2.3,-0.4 0,0 -0.2,0 -0.3,-0.1 0,-0.1 0,-0.2 0,-0.3 0,-0.2 -0.1,-0.5 -0.2,-0.6 -0.4,-0.1 -0.8,0 -1.1,-0.3 -0.9,-0.8 -2,-0.9 -3,-0.6 -1,0.2 -2,0.9 -2.3,1.8 -0.5,1.3 -1,2.7 -1.5,4 -0.6,1.8 -1.3,3.6 -1.9,5.4 -0.7,1.8 -1.4,3.5 -2.1,5.3 -0.2,0.6 -0.2,1.3 -0.5,1.9 -0.6,1.1 -1.3,2.2 -2.1,3.2 -0.2,0.3 -0.8,0.5 -1.1,0.4 -1.5,-1 -2.8,-2 -4.3,-3.1 -1.2,-0.9 -2.5,-1.8 -3.7,-2.7 -1.5,-1.1 -2.9,-2.3 -4.4,-3.4 -1,-0.7 -2,-1.1 -3,-1.1 -1,0 -1.9,0.2 -2.8,0.7 -1.4,0.8 -2.6,2.4 -3.5,4.1 -1.9,3.3 -3.5,7 -5.5,10.2 -1.8,3.1 -3.8,6.3 -5.9,9.4 -0.2,0.3 -1,0.5 -1.2,0.3 -1.1,-1.1 -2.1,-2.4 -3.1,-3.6 -1.4,-1.7 -2.8,-3.5 -4.2,-5.2 -0.9,-1.1 -2,-2.1 -2.9,-3.2 -1.4,-1.7 -2.8,-3.4 -4.1,-5.1 -1.2,-1.6 -2.5,-3.2 -3.7,-4.9 -0.7,-1 -1.2,-2.3 -2,-2.9 -1.4,-1.1 -2.4,-2.8 -4.2,-3.4 -1.7,-0.5 -3,-0.6 -4.5,0 -1.7,0.7 -3.1,1.9 -4.4,3.4 -1.3,1.5 -2.5,3.2 -3.9,4.6 -1.9,1.8 -3.7,3.8 -5.5,5.9 -1.4,1.7 -2.7,3.6 -4.1,5.4 -0.1,0.1 0,0.4 0,0.6 0.2,0 0.4,0.1 0.5,0 1,-0.9 2.1,-1.7 2.9,-2.8 1.5,-2 3.1,-2.8 4.7,-2.8 1.5,0 3,0.8 4.1,1.9 2.1,2.1 3.9,4.7 5.8,7.3 1.2,1.7 2.5,3.4 3.8,5.2 l 1.9,2.6 1.9,2.5 c 1.7,2.2 3.6,4.4 5.2,6.8 2.6,3.7 5.1,7.5 7.9,11.2 0.8,1 0.4,1.6 -0.6,1.6 -3,0.1 -6,0.1 -8.9,0.2 -0.8,0 -1.7,0.4 -2.2,0.9 -2.4,2.7 -4.7,5.4 -7.2,8.1 -1.4,1.5 -3.1,2.7 -4.6,4.2 -1,1 -1.9,2.2 -2.8,3.2 -0.1,0.1 -0.1,0.3 -0.1,0.5 0.1,0 0.2,0 0.3,0 0.9,0 1.9,0 2.8,0 0.9,0 1.9,0 2.8,-0.1 1.3,0 2.5,0.1 3.8,0.1 h 5.4 c 1.8,-0.1 3.6,-0.2 5.4,-0.3 3,-0.2 5.9,-0.6 8.9,-0.9 3.7,-0.5 7.5,-0.8 11.3,-1.2 0.5,0 1.2,0.1 1.6,0.5 1.5,1.3 2.8,2.7 4.3,3.9 4.1,3.4 8.3,6.8 12.8,9.9 3.9,2.6 7.9,5.1 12.3,7 3.4,1.4 7.3,2.1 11.1,2.3 2.7,0.2 5.6,0 8.3,-0.9 1.1,-0.4 2.2,-0.7 3.3,-1.2 1,-0.5 2,-1.1 3,-1.7 1.9,-1.3 3.4,-2.9 4.6,-5 0.8,-1.5 1.8,-2.8 2.6,-4.2 0.9,-1.8 1.7,-3.7 2.5,-5.6 1.7,-3.9 3.3,-7.7 4.7,-11.6 0.2,-0.5 0.1,-1.2 0.2,-1.8 -0.4,0.5 -0.8,1 -1.2,1.5 0,0 0,0.1 -0.1,0.2 -0.9,2.6 -2.3,4.7 -4.2,6.4 -1.9,1.7 -4.2,2.9 -7.2,3.3 -4,0.7 -8,1.1 -11.8,-0.2 -1.4,-0.5 -3.1,-0.7 -4.5,-1.2 -1.4,-0.5 -2.6,-1.3 -3.9,-2 -2.9,-1.5 -5.7,-3.1 -8.4,-4.7 -0.5,-0.3 -1.2,-1.5 -1,-1.8 1.8,-3.5 3.9,-6.8 5.5,-10.3 1,-2.2 1.9,-4.3 2.7,-6.6 0.8,-2.3 1.6,-4.5 2.4,-6.7 1.1,-3.1 2.5,-6 3.5,-9.1 0.2,-0.6 0.1,-1.8 -0.3,-2 -2.5,-1.9 -5.1,-3.7 -7.7,-5.5 -0.8,-0.6 -1.7,-1.1 -2.5,-1.8 -1.1,-0.9 -2,-2 -3,-3 -0.1,-0.1 -0.2,-0.5 -0.2,-0.7 0,-1.9 2.7,-4.5 4.4,-3.8 1.2,0.5 2.5,1.1 3.7,1.7 1.2,0.6 2.4,1.2 3.7,1.7 1.5,0.7 2.9,1.5 4.4,2.4 0.6,0.4 1,1.2 1.5,1.6 1.3,1 2.6,1.9 3.9,2.7 4,2.6 7.8,5.1 12.1,7.1 2.9,1.3 5.8,2.5 8.9,3.7 3,1.1 6.1,2 9.2,3 2.9,0.8 5.9,1.3 9,0.3 2.6,-1.1 4.8,-2.8 6.9,-4.6 2.1,-1.8 3.4,-3.9 4.6,-6.2 2.3,-4.3 2.8,-9 3.4,-13.6 0.1,-1 -0.1,-2.1 0.1,-3 0.9,-3.5 1.4,-7 0.8,-10.7 0,-0.2 -0.4,-0.4 -0.6,-0.6 -0.1,0.2 -0.3,0.4 -0.3,0.6 -0.2,2 -0.4,4 -0.6,6 -0.2,1.7 -0.9,3.1 -1.8,4.4 -1,1.2 -2.1,2.3 -3.2,3.4 -1.8,1.7 -4.1,3.4 -7,3.2 -0.4,0 -1.3,-0.6 -1.2,-0.7 0.5,-3.2 1.1,-6.4 1.6,-9.5 0.4,-2.9 0.8,-5.7 1,-8.5 0.2,-2.6 0.1,-5.1 -1.5,-7.5 -0.3,-0.4 -0.8,-0.7 -1.1,-1.2 -0.6,-1.2 -1,-2.5 -1.8,-3.5 -0.8,-1 -2,-1.8 -3,-2.6 -0.7,-0.6 -1.5,-1.1 -2.3,-1.6 -1.5,-0.9 -2.9,-1.7 -4.3,-2.5 -0.1,-0.1 -0.2,-0.1 -0.4,-0.2 0.1,-0.1 0.1,-0.3 0.2,-0.3 0.6,-0.2 1.2,-0.6 1.8,-0.5 2.7,0.5 5.5,0.9 8.2,1.8 5.6,1.7 11.1,3.4 16.8,4.9 2.3,0.6 4.7,1.1 7,1.7 3.2,0.7 6.3,1.4 9.5,2 0.4,0.1 0.7,0.3 1,0.5 -0.2,0.3 -0.2,0.8 -0.5,1 -1.5,1.6 -2.8,3 -2.7,5.7 0.2,3.1 -0.6,6.2 -0.9,9.3 -0.3,3.1 -0.6,6.3 -1,9.4 0,0.3 0,0.5 0.1,0.8 0.3,-0.1 0.6,-0.1 0.8,-0.3 1.8,-1.4 3.4,-3 5.2,-4.4 1.8,-1.4 3.6,-2.8 5.4,-4.2 l 1.4,-1.1 1.3,-1.1 2.6,-2.2 5.5,-4.7 c 1.8,-1.6 3.5,-3.3 5.3,-4.9 0.8,-0.7 1.9,-1.4 2.9,-1.4 2.2,0 4.5,0 6.7,0.1 2.2,0 4.5,0 6.7,-0.1 3.5,-0.1 7,-0.4 10.5,-1 3.5,-0.6 6.9,-1.4 10.5,-2.3 2.7,-0.7 5.1,-1.9 7,-3.5 1.9,-1.7 3.3,-3.9 4.1,-6.7 0.8,-2.6 1.4,-5.2 1.5,-7.7 0,-2 -0.7,-4 -1.2,-5.9 -1.1,-4.6 -2.3,-9.2 -3.5,-13.6 -0.2,-0.5 -0.3,-1 -0.5,-1.5 -0.1,-0.2 -0.3,-0.3 -0.5,-0.4 -0.1,0.2 -0.3,0.4 -0.3,0.6 -0.1,2 -0.1,3.9 -0.3,5.8 -0.3,2.8 -1.7,5.4 -4,6.8 -1.4,0.9 -3,1.6 -4.7,2.2 -1.6,0.6 -3.3,1.1 -4.9,1.6 -3.2,1 -6.3,1.8 -9.5,2.2 -2.9,0.4 -5.7,0.2 -8.6,0.2 -0.1,0 -0.3,-0.2 -0.3,-0.3 -0.5,-2.2 -1.1,-4.3 -1.5,-6.4 -0.1,-0.3 0.5,-1 0.8,-1.1 2.4,-0.4 4.7,-0.7 7.1,-1.2 1.3,-0.3 2.5,-0.8 3.7,-1.2 0.8,-0.3 1.6,-0.5 2.4,-0.9 0.6,-0.2 1.1,-0.6 1.6,-0.9 1,-0.6 2.2,-1.1 2.7,-2 0.6,-1.2 0.4,-2.8 0.9,-4.1 1.3,-3.6 -0.1,-7 -0.6,-10.5 -0.3,-2.3 -1.1,-4.5 -1.7,-6.7 -0.7,-2.4 -1.5,-4.7 -2.4,-7.1 -0.3,-0.7 -0.6,-1.5 -0.9,-2.2 -0.3,-0.7 -0.7,-1.5 -0.9,-2.2 -0.5,-1.2 -0.3,-2.1 1.2,-2.5 0.7,-0.2 1.4,-0.7 2,-1.2 2.8,-2.3 3.6,-5.5 2.7,-8.8 -0.7,-2.8 -2.1,-5.4 -3.3,-8 -0.4,-0.8 -1.2,-1.5 -1.8,-2.3 -0.8,-0.9 -1.7,-1.8 -2.3,-2.8 -0.9,-1.6 -1.6,-3.2 -2.4,-4.8 -0.1,-0.2 -0.4,-0.4 -0.7,-0.6 0,0.3 -0.1,0.5 -0.1,0.8 0.2,1.5 0.4,2.9 0,4.1 -0.4,1.2 -1.2,2.3 -2.7,3 -1.3,0.6 -2.6,1.3 -3.9,1.7 -2.2,0.7 -4.2,1.3 -6.4,1.8 -2.2,0.5 -4.4,1.1 -6.5,1.5 -1.7,0.4 -3.5,0.6 -5.2,0.9 -0.4,0.1 -0.8,0.4 -1.2,0.6 -0.1,0 -0.2,0 -0.3,0 -0.3,-0.1 -0.7,-0.3 -0.9,-0.3 -1.2,0.2 -2.3,0.5 -3.5,0.6 -4,0.5 -5.7,3.4 -4.3,7.2 0.9,2.4 1.5,4.8 2.3,7.2 1,3.1 1.9,6.1 2.9,9.3 0.3,1.1 0.9,2.1 1.4,3.3 0,-0.7 0,-1.2 0,-1.7 z m -127.2,95.9 c 3.2,2.8 6.4,5.7 9.6,8.7 1.9,1.7 3.5,3.6 5.4,5.3 2.2,1.9 4.5,3.7 6.7,5.5 0.2,0.1 0.1,0.9 0,0.9 -2,0.7 -3.9,1.3 -5.9,1.9 -2.7,0.7 -5.5,1.2 -8.3,1.8 -2.3,0.5 -4.4,1.3 -6.5,-1.3 -1.9,-2.5 -4.6,-4.3 -6.8,-6.4 -1.2,-1.1 -2.3,-2.3 -3.4,-3.6 -1.1,-1.3 -2.1,-2.8 -3.1,-4.2 -0.5,-0.7 -1.1,-1.4 -1.6,-2.2 -0.1,-0.2 -0.2,-0.6 -0.1,-0.7 0.9,-1.3 1.8,-2.6 2.7,-3.8 0.6,-0.8 1,-1.7 1.7,-2.3 0.8,-0.7 1.8,-1.2 2.7,-1.8 2.7,-0.1 4.9,0.4 6.9,2.2 z m 80.4,-12.3 c 0.4,1.8 -0.6,2.6 -2.4,2.1 -1,-0.3 -2,-0.4 -3,-0.7 -1.2,-0.2 -2.3,-0.4 -3.5,-0.8 -2.8,-0.9 -5.5,-1.9 -8.2,-3 -2.4,-1 -4.8,-2 -7.1,-3.2 -2,-1.1 -4,-2.5 -5.9,-3.9 -0.2,-0.1 -0.3,-0.9 -0.2,-1.1 1.5,-2.5 3.8,-3.6 6.5,-3.9 1.9,-0.2 3.6,-1.1 5.6,-1 3.5,0.1 6.9,1.5 10.1,3.6 2.1,1.4 3.9,3.4 6,5.3 0.8,2.1 1.6,4.4 2.1,6.6 z m 57.4,-46.8 c -2.2,0.9 -4.9,0.6 -7.4,0.7 -2.6,0 -5.1,-0.1 -7.6,-0.3 -2.1,-0.1 -4.3,-0.4 -6.4,-0.7 -3.1,-0.4 -6.1,-1 -9.1,-1.5 -2.3,-0.3 -2.8,-1.7 -1.7,-4.2 1.3,-2.8 3.9,-3.1 6.9,-2.7 4.1,0.5 8.2,0.8 12.4,1.2 4.4,0.4 8.8,0.6 13.2,0.8 1.3,0 2.5,-0.1 3.8,-0.2 0.5,0 1,0.2 1.6,0.2 -0.2,0.5 -0.4,1.1 -0.6,1.6 0,0.1 -0.1,0.2 -0.4,0.6 -1.3,1.3 -2.7,3.6 -4.7,4.5 z"
             id="path671"
             style="fill:#ffffff"
             inkscape:connector-curvature="0" /><path
             d="m 633.3,362.4 c 0.7,1.3 1.3,2.6 2,3.9 0.7,1.3 1.4,2.6 2.2,3.9 1.7,2.9 3.5,5.8 5.2,8.7 1.9,3.3 3.7,6.7 5.5,10.2 1.4,2.6 2.8,5.2 4.2,7.8 1,1.9 2.2,3.8 3.2,5.8 1.2,2.2 2.2,4.5 3.3,6.9 1.5,3.2 2.6,6.4 4.1,9.5 0.3,0.7 1.6,1.1 2.4,1.5 0.1,0 0.7,-0.9 1,-1.4 0.8,-1.5 1.6,-3 2.3,-4.6 0.9,-1.9 1.9,-3.9 2.8,-5.8 1,-2.2 1.9,-4.4 2.8,-6.6 0.4,-1 1,-2 1.4,-3 0.6,-1.7 1.2,-3.5 1.7,-5.2 0.3,-0.9 0.6,-1.7 0.9,-2.6 0.3,-0.9 0.5,-1.7 0.9,-2.6 1.1,-3 2.6,-5.8 3.9,-8.8 0.7,-1.5 1.5,-2.9 1.7,-4.4 0.4,-2.5 0.8,-5.1 1.1,-7.6 0.1,-0.6 0.1,-1.3 0.2,-1.9 0.1,-0.6 0.1,-1.3 0.1,-1.9 0.1,-1.3 0.1,-2.5 0.1,-3.8 0,-1.9 -1.2,-3.8 -2.2,-5.5 -1,-1.6 -2.4,-2.8 -3.6,-4.3 -2.7,-3.3 -5.4,-6.5 -8.1,-9.6 -0.2,-0.2 -0.8,-0.1 -1.2,-0.2 -0.4,0 -0.9,0.1 -1.1,-0.1 -0.5,-0.3 -0.9,-0.8 -1.3,-1.3 -2,-2.2 -3.9,-4.4 -6,-6.5 -0.3,-0.3 -0.7,-0.3 -1.1,-0.5 0.1,0.3 0.3,0.6 0.4,0.8 0.6,0.9 1.3,1.8 1.9,2.7 1.2,1.8 1.3,3.9 -0.1,5.4 -1.7,1.8 -3.7,3.6 -5.9,4.7 -4.2,2.1 -8.7,3.7 -13.1,5.3 -1.4,0.5 -2.7,1 -4.1,1.5 -1.4,0.5 -2.7,1 -4.2,1.3 -2,0.5 -3.5,1.3 -4.6,3.4 0.3,1.5 0.5,3.3 1.3,4.9 z m 16.1,9.9 c 2.1,-0.7 4.3,-1.2 6.5,-1.9 4,-1.3 8,-2.8 12.1,-4.3 0.2,-0.1 0.5,-0.1 0.6,0 0.1,0.1 0.1,0.4 0.1,0.6 -0.8,2.8 -1.5,5.7 -2.5,8.5 -0.9,2.8 -1.9,5.6 -2.9,8.4 -0.7,2.1 -1.7,4.2 -2.7,6.2 -1,2 -2,4.1 -2.9,6.1 -0.6,1.2 -1.8,1.2 -2.5,0 -1.9,-3.3 -3.8,-6.5 -5.8,-9.6 -1.3,-2.1 -2.9,-4.2 -4,-6.3 -0.8,-1.5 -0.9,-3.2 -1.3,-4.3 1.2,-2.3 3.3,-2.8 5.3,-3.4 z"
             id="path673"
             style="fill:#ffffff"
             inkscape:connector-curvature="0" /><path
             d="m 674.8,330.8 c 0.5,-1.6 1,-3.1 1.5,-4.6 0.2,-0.8 0.5,-1.5 0.7,-2.3 0.2,-0.8 0.4,-1.5 0.6,-2.3 0.4,-1.4 0.5,-3 0.6,-4.4 0,-0.4 -0.3,-0.8 -0.5,-1.3 -0.3,0.2 -0.7,0.3 -1,0.5 -3,2.1 -5.9,4.1 -8.8,6 -3,1.9 -6.1,3.8 -9.1,5.6 -1.6,1 -3.2,2 -4.7,3 -1.6,1 -3.1,2 -4.6,3 -1.9,1.2 -1.6,2.4 0,4 1.3,1.3 2.3,2.8 3.4,4.3 0.1,0.2 0,0.8 -0.1,0.8 -0.4,0 -1,0.1 -1.3,-0.1 -1.3,-1.1 -2.7,-2.2 -3.8,-3.4 -1.3,-1.6 -2.7,-3.2 -4,-4.8 -1.3,-1.6 -2.6,-3.2 -4,-4.7 -1.8,-2 -3.7,-3.9 -5.2,-5.9 -1.1,-1.4 -1.6,-2.4 -1.5,-3.3 0,-0.5 0.3,-0.9 0.6,-1.3 0.3,-0.5 0.8,-1 1.5,-1.5 2.4,-2 5.4,-3.8 8.2,-5.6 1.7,-1.2 3.6,-2.3 5.3,-3.5 1.7,-1.2 3.5,-2.4 5.2,-3.6 3.2,-2.2 6.4,-4.4 9.6,-6.7 1.1,-0.8 2.2,-1.2 3.5,0.1 1.2,1.2 2.6,2 2.6,3.8 0,0.1 0.2,0.3 0.3,0.3 3.3,0.6 4.7,3.4 6.9,5.3 1.5,1.3 3,2.7 4.3,4.2 2.4,2.6 4.7,5.2 7,8 0.9,1 1.6,2.1 2.6,3.1 2.2,2.1 2.9,4.6 2.9,7.6 0,3.2 -0.7,6.3 -1.6,9.3 -1,3 -2.2,5.9 -3.3,8.8 -0.1,0.2 -0.9,0.4 -1,0.2 -1.2,-1.6 -2.3,-3.1 -3.4,-4.7 -1,-1.3 -2,-2.6 -2.9,-3.9 -1,-1.4 -1.8,-2.8 -3,-4.2 -1.1,-1.3 -2.3,-2.6 -3.4,-3.9 0.1,-0.8 0.1,-1.4 -0.1,-1.9 z"
             id="path675"
             style="fill:#ffffff"
             inkscape:connector-curvature="0" /><path
             d="m 634.5,387.9 c -0.6,-0.1 -0.9,-0.1 -1,-0.2 -0.3,-0.3 -0.6,-0.7 -0.8,-1.1 -1,-2.4 -2.9,-2 -4.5,-1.1 -3.6,2 -7.1,4 -10.9,5.5 -1,0.4 -3.4,-0.5 -4.5,-1.3 -1.5,-1.2 -2.7,-2.9 -3.5,-4.4 -1.6,-2.8 -2.8,-5.6 -4.3,-8.2 -0.9,-1.7 -2,-3.3 -3.1,-5 -0.9,-1.4 -1.8,-2.7 -2.6,-4.1 -0.1,-0.1 0,-0.2 0,-0.3 0.1,0.1 0.2,0.2 0.2,0.3 0.5,0.7 0.9,1.4 1.6,2 3.6,3.5 6,3.7 9.5,1.6 1.4,-0.8 2.7,-1.6 4.1,-2.3 1.4,-0.8 2.7,-1.6 4.1,-2.4 1.3,-0.8 3.8,-0.3 5.1,1.7 0.6,0.9 1.4,1.8 1.9,2.7 1.4,2.3 2.5,4.6 3.8,7 1.2,2.4 2.4,4.8 3.6,7.2 0.2,0.5 0.7,1.3 1.3,2.4 z"
             id="path677"
             style="fill:#ffffff"
             inkscape:connector-curvature="0" /><path
             d="m 533.6,566.2 c 0,-0.6 -0.2,-1 -0.1,-1.3 1.1,-2.4 -1.1,-2.9 -2.3,-3.8 -1.5,-1 -3.4,-1.5 -5.1,-2.2 -3.3,-1.5 -6.6,-2.9 -9.7,-4.6 -1.3,-0.7 -1.2,-2.6 -0.5,-3.9 1,-1.8 1.6,-3.7 2.3,-5.6 0.6,-1.7 0.9,-3.5 1.6,-5.1 0.5,-1.3 1.1,-2.6 1.6,-3.9 0.5,-1.3 1.1,-2.7 1.7,-4 0.7,-1.7 1.7,-3.2 2.6,-4.8 0,-0.1 0.1,-0.1 0.2,-0.2 0,0.1 0.1,0.3 0.1,0.4 -0.2,0.8 -0.5,1.5 -0.8,2.3 -0.8,2.6 0.1,4.3 2.6,5.3 1.2,0.5 2.2,1.5 3.3,2 1.9,0.9 4,1.5 6,2.4 2.1,0.9 4.8,1.3 5.9,3.7 0.4,0.8 -0.1,2.2 -0.4,3.2 -0.7,2.4 -1.7,4.7 -2.6,7.1 -1.5,3.7 -3,7.4 -4.7,11.1 -0.3,0.6 -0.5,1.2 -0.9,1.7 0,0.1 -0.5,0.1 -0.8,0.2 z"
             id="path679"
             style="fill:#ffffff"
             inkscape:connector-curvature="0" /></g><g
           id="g693"
           style="fill:#ffffff"><path
             d="m 292.8,486.6 c 2.4,-0.4 5.1,1.2 5.3,3.3 0.2,1.8 0.4,3.6 0.7,5.4 0.2,1.8 0.5,3.7 0.9,5.4 0.9,4.9 1.9,9.8 3.1,14.8 0.1,0.5 0,1.4 -0.2,1.5 -1.6,0.9 -3.3,1.8 -5,2.3 -1.4,0.4 -2.9,0.3 -4.4,0.3 -2.1,0 -4.2,-0.8 -5,-2.7 -1.2,-2.9 -1.9,-5.9 -2.5,-9 -0.5,-2.6 -0.5,-5.3 -0.7,-7.9 -0.3,-4.4 -0.5,-8.8 -0.5,-13 0,-2.5 0,-4.9 0.1,-7.3 0,-1.5 0,-2.9 0,-4.4 0,-0.6 0.1,-1.2 0.1,-1.8 0,-0.5 -0.2,-1.1 -0.1,-1.6 0.2,-0.8 0.3,-1.9 0.8,-2.5 0.8,-0.9 -1.2,-1.2 0.2,-2.1 0.2,-0.1 -0.1,-1.5 -0.3,-2.3 0,-0.3 -0.4,-0.4 -0.5,-0.7 -0.5,-1.8 -2.1,-3 -4,-2.5 -0.6,0.1 -1.2,0.5 -1.8,0.7 -0.1,0 -0.3,-0.4 -0.5,-0.4 -0.6,0.1 -1.3,0.3 -2,0.4 -0.5,0 -0.9,-0.2 -1.4,-0.1 -1.6,0.1 -3.2,0.3 -4.8,0.4 -1.6,0.1 -3.2,0.2 -4.8,0.3 -0.7,0 -1.4,-0.2 -2.1,-0.2 -1.4,0.1 -2.9,0.3 -4.4,0.4 -0.2,0 -0.6,-0.5 -0.6,-0.7 0.1,-0.8 0.5,-1.6 0.6,-2.4 0.4,-2.3 0.8,-4.7 1.4,-7 0.5,-1.9 1.1,-3.8 1.6,-5.6 0.7,-2.6 1.3,-5.2 2,-7.7 0.1,-0.3 0.1,-0.5 0.1,-0.8 -0.2,0 -0.5,0.1 -0.7,0.1 -0.2,0 -0.4,-0.1 -0.6,-0.2 0,0 0,-0.1 0,-0.1 0.1,0 0.3,0 0.4,0 0.6,-0.3 1.7,-0.4 1.1,-1.4 0,-0.1 0.1,-0.3 0.1,-0.4 0.1,0 0.2,0 0.2,0.1 0.1,0.1 0.1,0.2 0.1,0.4 0.1,-0.2 0.2,-0.4 0.2,-0.6 0.7,-3.1 0.7,-5.8 -0.7,-8.1 -1.1,-1.6 -3.7,-2.2 -6,-1.3 -1.4,0.5 -2.9,0.7 -4.3,0.8 -1.4,0.1 -2.8,-0.1 -4.2,-0.3 -0.1,0 -0.2,-0.2 -0.1,-0.3 0.4,-1 -0.2,-1.3 -1,-1.4 -1,-0.1 -2,-0.2 -2.9,-0.3 -0.1,0 -0.3,-0.2 -0.3,-0.3 0.6,-2.7 0,-5 -0.6,-7.3 -0.6,-2.1 -1.3,-3.9 -2.7,-5.2 -1.3,-1.3 -3.1,-2.3 -5.3,-2.9 -1.8,-0.5 -3.6,-0.7 -5.5,-1 -3.2,-0.5 -6.5,-1.1 -9.9,-1.8 -0.9,-0.2 -1.4,-0.5 -0.7,-1.5 1,-1.6 2,-3.2 3,-4.8 1,-1.6 2,-3.1 2.9,-4.7 0.4,-0.7 1.5,-1.6 0.4,-2.3 0,0 0,-0.2 0.1,-0.3 0.1,0 0.2,0 0.3,0 0.2,0 0.5,-0.1 0.6,-0.2 0.1,-0.4 0,-0.8 0.3,-1.1 0.8,-0.9 0.9,-2 0.6,-3 -0.2,-1 -0.9,-2 -1.8,-2.3 -1.3,-0.5 -2.7,-1 -4,-1.5 -1.8,-0.6 -3.6,-1.3 -5.4,-1.9 -1.8,-0.7 -3.5,-1.4 -5.3,-2.1 -0.6,-0.2 -1.3,-0.2 -1.9,-0.5 -1.1,-0.6 -2.2,-1.3 -3.2,-2.1 -0.3,-0.2 -0.5,-0.8 -0.4,-1.1 1,-1.5 2,-2.8 3.1,-4.3 0.9,-1.2 1.8,-2.5 2.7,-3.7 1.1,-1.5 2.3,-2.9 3.4,-4.4 0.7,-1 1.1,-2 1.1,-3 0,-1 -0.2,-1.9 -0.7,-2.8 -0.8,-1.4 -2.4,-2.6 -4.1,-3.5 -3.3,-1.9 -7,-3.5 -10.2,-5.5 -3.1,-1.8 -6.3,-3.8 -9.4,-5.9 -0.3,-0.2 -0.5,-1 -0.3,-1.2 1.1,-1.1 2.4,-2.1 3.6,-3.1 1.7,-1.4 3.5,-2.8 5.2,-4.2 1.1,-0.9 2.1,-2 3.2,-2.9 1.7,-1.4 3.4,-2.8 5.1,-4.1 1.6,-1.2 3.2,-2.5 4.9,-3.7 1,-0.7 2.3,-1.2 2.9,-2 1.1,-1.4 2.8,-2.4 3.4,-4.2 0.5,-1.7 0.6,-3 0,-4.5 -0.7,-1.7 -1.9,-3.1 -3.4,-4.4 -1.5,-1.3 -3.2,-2.5 -4.6,-3.9 -1.8,-1.9 -3.8,-3.7 -5.9,-5.5 -1.7,-1.4 -3.6,-2.7 -5.4,-4.1 -0.1,-0.1 -0.4,0 -0.6,0 0,0.2 -0.1,0.4 0,0.5 0.9,1 1.7,2.1 2.8,2.9 2,1.5 2.8,3.1 2.8,4.7 0,1.5 -0.8,3 -1.9,4.1 -2.1,2.1 -4.7,3.9 -7.3,5.8 -1.7,1.2 -3.4,2.5 -5.2,3.8 l -2.6,1.9 -2.5,1.9 c -2.2,1.7 -4.4,3.6 -6.8,5.2 -3.7,2.6 -7.5,5.1 -11.2,7.9 -1,0.8 -1.6,0.4 -1.6,-0.6 -0.1,-3 -0.1,-6 -0.2,-8.9 0,-0.8 -0.4,-1.7 -0.9,-2.2 -2.7,-2.4 -5.4,-4.7 -8.1,-7.2 -1.5,-1.4 -2.7,-3.1 -4.2,-4.6 -1,-1 -2.2,-1.9 -3.2,-2.8 -0.1,-0.1 -0.3,-0.1 -0.5,-0.1 0,0.1 0,0.2 0,0.3 0,0.9 0,1.9 0,2.8 0,0.9 0,1.9 0.1,2.8 0,1.3 -0.1,2.5 -0.1,3.8 v 5.4 c 0.1,1.8 0.2,3.6 0.3,5.4 0.2,3 0.6,5.9 0.9,8.9 0.5,3.7 0.8,7.5 1.2,11.3 0,0.5 -0.1,1.2 -0.5,1.6 -1.3,1.5 -2.7,2.8 -3.9,4.3 -3.4,4.1 -6.8,8.3 -9.9,12.8 -2.6,3.9 -5.1,7.9 -7,12.3 -1.4,3.4 -2.1,7.3 -2.3,11.1 -0.2,2.7 0,5.6 0.9,8.3 0.4,1.1 0.7,2.2 1.2,3.3 0.5,1 1.1,2 1.7,3 1.3,1.9 2.9,3.4 5,4.6 1.5,0.8 2.8,1.8 4.2,2.6 1.8,0.9 3.7,1.7 5.6,2.5 3.9,1.7 7.7,3.3 11.6,4.7 0.5,0.2 1.2,0.1 1.8,0.2 -0.5,-0.4 -1,-0.8 -1.5,-1.2 0,0 -0.1,0 -0.2,-0.1 -2.6,-0.9 -4.7,-2.3 -6.4,-4.2 -1.7,-1.9 -2.9,-4.2 -3.3,-7.2 -0.7,-4 -1.1,-8 0.2,-11.8 0.5,-1.4 0.7,-3.1 1.2,-4.5 0.5,-1.4 1.3,-2.6 2,-3.9 1.5,-2.9 3.1,-5.7 4.7,-8.4 0.3,-0.5 1.5,-1.2 1.8,-1 3.5,1.8 6.8,3.9 10.3,5.5 2.2,1 4.3,1.9 6.6,2.7 2.3,0.8 4.5,1.6 6.7,2.4 3.1,1.1 6,2.5 9.1,3.5 0.6,0.2 1.8,0.1 2,-0.3 1.9,-2.5 3.7,-5.1 5.5,-7.7 0.6,-0.8 1.1,-1.7 1.8,-2.5 0.9,-1.1 2,-2 3,-3 0.1,-0.1 0.5,-0.2 0.7,-0.2 1.9,0 4.5,2.7 3.8,4.4 -0.5,1.2 -1.1,2.5 -1.7,3.7 -0.6,1.2 -1.2,2.4 -1.7,3.7 -0.7,1.5 -1.5,2.9 -2.4,4.4 -0.4,0.6 -1.2,1 -1.6,1.5 -1,1.3 -1.9,2.6 -2.7,3.9 -2.6,4 -5.1,7.8 -7.1,12.1 -1.3,2.9 -2.5,5.8 -3.7,8.9 -1.1,3 -2,6.1 -3,9.2 -0.8,2.9 -1.3,5.9 -0.3,9 1.1,2.6 2.8,4.8 4.6,6.9 1.8,2.1 3.9,3.4 6.2,4.6 4.3,2.3 9,2.8 13.6,3.4 1,0.1 2.1,-0.1 3,0.1 3.5,0.9 7,1.4 10.7,0.8 0.2,0 0.4,-0.4 0.6,-0.6 -0.2,-0.1 -0.4,-0.3 -0.6,-0.3 -2,-0.2 -4,-0.4 -6,-0.6 -1.7,-0.2 -3.1,-0.9 -4.4,-1.8 -1.2,-1 -2.3,-2.1 -3.4,-3.2 -1.7,-1.8 -3.4,-4.1 -3.2,-7 0,-0.4 0.6,-1.3 0.7,-1.2 3.2,0.5 6.4,1.1 9.5,1.6 2.9,0.4 5.7,0.8 8.5,1 2.6,0.2 5.1,0.1 7.5,-1.5 0.4,-0.3 0.7,-0.8 1.2,-1.1 1.2,-0.6 2.5,-1 3.5,-1.8 1,-0.8 1.8,-2 2.6,-3 0.6,-0.7 1.1,-1.5 1.6,-2.3 0.9,-1.5 1.7,-2.9 2.5,-4.3 0.1,-0.1 0.1,-0.2 0.2,-0.4 0.1,0.1 0.3,0.1 0.3,0.2 0.2,0.6 0.6,1.2 0.5,1.8 -0.5,2.7 -0.9,5.5 -1.8,8.2 -1.7,5.6 -3.4,11.1 -4.9,16.8 -0.6,2.3 -1.1,4.7 -1.7,7 -0.7,3.2 -1.4,6.3 -2,9.5 -0.1,0.4 -0.3,0.7 -0.5,1 -0.3,-0.2 -0.8,-0.2 -1,-0.5 -1.6,-1.5 -3,-2.8 -5.7,-2.7 -3.1,0.2 -6.2,-0.6 -9.3,-0.9 -3.1,-0.3 -6.3,-0.6 -9.4,-1 -0.3,0 -0.5,0 -0.8,0.1 0.1,0.3 0.1,0.6 0.3,0.8 1.4,1.8 3,3.4 4.4,5.2 1.4,1.8 2.8,3.6 4.2,5.4 l 1.1,1.4 1.1,1.3 2.2,2.6 4.7,5.5 c 1.6,1.8 3.3,3.5 4.9,5.3 0.7,0.8 1.4,1.9 1.4,2.9 0,2.2 0,4.5 -0.1,6.7 0,2.2 0,4.5 0.1,6.7 0.1,3.5 0.4,7 1,10.5 0.6,3.5 1.4,6.9 2.3,10.5 0.7,2.7 1.9,5.1 3.5,7 1.7,1.9 3.9,3.3 6.7,4.1 2.6,0.8 5.2,1.4 7.7,1.5 2,0 4,-0.7 5.9,-1.2 4.6,-1.1 9.2,-2.3 13.6,-3.5 0.5,-0.2 1,-0.3 1.5,-0.5 0.2,-0.1 0.3,-0.3 0.4,-0.5 -0.2,-0.1 -0.4,-0.3 -0.6,-0.3 -2,-0.1 -3.9,-0.1 -5.8,-0.3 -2.8,-0.3 -5.4,-1.7 -6.8,-4 -0.9,-1.4 -1.6,-3 -2.2,-4.7 -0.6,-1.6 -1.1,-3.3 -1.6,-4.9 -1,-3.2 -1.8,-6.3 -2.2,-9.5 -0.4,-2.9 -0.2,-5.7 -0.2,-8.6 0,-0.1 0.2,-0.3 0.3,-0.3 2.2,-0.5 4.3,-1.1 6.4,-1.5 0.3,-0.1 1,0.5 1.1,0.8 0.4,2.4 0.7,4.7 1.2,7.1 0.3,1.3 0.8,2.5 1.2,3.7 0.3,0.8 0.5,1.6 0.9,2.4 0.2,0.6 0.6,1.1 0.9,1.6 0.6,1 1.1,2.2 2,2.7 1.2,0.6 2.8,0.4 4.1,0.9 3.6,1.3 7,-0.1 10.5,-0.6 2.3,-0.3 4.5,-1.1 6.7,-1.7 2.4,-0.7 4.7,-1.5 7.1,-2.4 0.7,-0.3 1.5,-0.6 2.2,-0.9 0.7,-0.3 1.5,-0.7 2.2,-0.9 1.2,-0.5 2.1,-0.3 2.5,1.2 0.2,0.7 0.7,1.4 1.2,2 2.3,2.8 5.5,3.6 8.8,2.7 2.8,-0.7 5.4,-2.1 8,-3.3 0.8,-0.4 1.5,-1.2 2.3,-1.8 0.9,-0.8 1.8,-1.7 2.8,-2.3 1.6,-0.9 3.2,-1.6 4.8,-2.4 0.2,-0.1 0.4,-0.4 0.6,-0.7 -0.3,0 -0.5,-0.1 -0.8,-0.1 -1.5,0.2 -2.9,0.4 -4.1,0 -1.2,-0.4 -2.3,-1.2 -3,-2.7 -0.6,-1.3 -1.3,-2.6 -1.7,-3.9 -0.7,-2.2 -1.3,-4.2 -1.8,-6.4 -0.5,-2.2 -1.1,-4.4 -1.5,-6.5 -0.4,-1.7 -0.6,-3.5 -0.9,-5.2 -0.1,-0.4 -0.4,-0.8 -0.6,-1.2 0,-0.1 0,-0.2 0,-0.3 0.1,-0.3 0.3,-0.7 0.3,-0.9 -0.2,-1.2 -0.5,-2.3 -0.6,-3.5 -0.5,-4 -3.4,-5.7 -7.2,-4.3 -2.4,0.9 -4.8,1.5 -7.2,2.3 -3.1,1 -6.1,1.9 -9.3,2.9 -1.1,0.3 -2.1,0.9 -3.3,1.4 0.7,0 1.2,0 1.7,0 z M 196.9,359.4 c -2.8,3.2 -5.7,6.4 -8.7,9.6 -1.7,1.9 -3.6,3.5 -5.3,5.4 -1.9,2.2 -3.7,4.5 -5.5,6.7 -0.1,0.2 -0.9,0.1 -0.9,0 -0.7,-2 -1.3,-3.9 -1.9,-5.9 -0.7,-2.7 -1.2,-5.5 -1.8,-8.3 -0.5,-2.3 -1.3,-4.4 1.3,-6.5 2.5,-1.9 4.3,-4.6 6.4,-6.8 1.1,-1.2 2.3,-2.3 3.6,-3.4 1.3,-1.1 2.8,-2.1 4.2,-3.1 0.7,-0.5 1.4,-1.1 2.2,-1.6 0.2,-0.1 0.6,-0.2 0.7,-0.1 1.3,0.9 2.6,1.8 3.8,2.7 0.8,0.6 1.7,1 2.3,1.7 0.7,0.8 1.2,1.8 1.8,2.7 0,2.7 -0.4,4.9 -2.2,6.9 z m 12.3,80.4 c -1.8,0.4 -2.6,-0.6 -2.1,-2.4 0.3,-1 0.4,-2 0.7,-3 0.2,-1.2 0.4,-2.3 0.8,-3.5 0.9,-2.8 1.9,-5.5 3,-8.2 1,-2.4 2,-4.8 3.2,-7.1 1.1,-2 2.5,-4 3.9,-5.9 0.1,-0.2 0.9,-0.3 1.1,-0.2 2.5,1.5 3.6,3.8 3.9,6.5 0.2,1.9 1.1,3.6 1,5.6 -0.1,3.5 -1.5,6.9 -3.6,10.1 -1.4,2.1 -3.4,3.9 -5.3,6 -2.1,0.7 -4.4,1.6 -6.6,2.1 z m 46.8,57.4 c -0.9,-2.2 -0.6,-4.9 -0.7,-7.4 0,-2.6 0.1,-5.1 0.3,-7.6 0.1,-2.1 0.4,-4.3 0.7,-6.4 0.4,-3.1 1,-6.1 1.5,-9.1 0.3,-2.3 1.7,-2.8 4.2,-1.7 2.8,1.3 3.1,3.9 2.7,6.9 -0.5,4.1 -0.8,8.2 -1.2,12.4 -0.4,4.4 -0.6,8.8 -0.8,13.2 0,1.3 0.1,2.5 0.2,3.8 0,0.5 -0.2,1 -0.2,1.6 -0.5,-0.2 -1.1,-0.4 -1.6,-0.6 -0.1,0 -0.2,-0.1 -0.6,-0.4 -1.3,-1.3 -3.6,-2.7 -4.5,-4.7 z"
             id="path683"
             style="fill:#ffffff"
             inkscape:connector-curvature="0" /><path
             d="m 356.2,509.9 c -1.3,0.7 -2.6,1.3 -3.9,2 -1.3,0.7 -2.6,1.4 -3.9,2.2 -2.9,1.7 -5.8,3.5 -8.7,5.2 -3.3,1.9 -6.7,3.7 -10.2,5.5 -2.6,1.4 -5.2,2.8 -7.8,4.2 -1.9,1 -3.8,2.2 -5.8,3.2 -2.2,1.2 -4.5,2.2 -6.9,3.3 -3.2,1.5 -6.4,2.6 -9.5,4.1 -0.7,0.3 -1.1,1.6 -1.5,2.4 0,0.1 0.9,0.7 1.4,1 1.5,0.8 3,1.6 4.6,2.3 1.9,0.9 3.9,1.9 5.8,2.8 2.2,1 4.4,1.9 6.6,2.8 1,0.4 2,1 3,1.4 1.7,0.6 3.5,1.2 5.2,1.7 0.9,0.3 1.7,0.6 2.6,0.9 0.9,0.3 1.7,0.5 2.6,0.9 3,1.1 5.8,2.6 8.8,3.9 1.5,0.7 2.9,1.5 4.4,1.7 2.5,0.4 5.1,0.8 7.6,1.1 0.6,0.1 1.3,0.1 1.9,0.2 0.6,0.1 1.3,0.1 1.9,0.1 1.3,0.1 2.5,0.1 3.8,0.1 1.9,0 3.8,-1.2 5.5,-2.2 1.6,-1 2.8,-2.4 4.3,-3.6 3.3,-2.7 6.5,-5.4 9.6,-8.1 0.2,-0.2 0.1,-0.8 0.2,-1.2 0,-0.4 -0.1,-0.9 0.1,-1.1 0.3,-0.5 0.8,-0.9 1.3,-1.3 2.2,-2 4.4,-3.9 6.5,-6 0.3,-0.3 0.3,-0.7 0.5,-1.1 -0.3,0.1 -0.6,0.3 -0.8,0.4 -0.9,0.6 -1.8,1.3 -2.7,1.9 -1.8,1.2 -3.9,1.3 -5.4,-0.1 -1.8,-1.7 -3.6,-3.7 -4.7,-5.9 -2.1,-4.2 -3.7,-8.7 -5.3,-13.1 -0.5,-1.4 -1,-2.7 -1.5,-4.1 -0.5,-1.4 -1,-2.7 -1.3,-4.2 -0.5,-2 -1.3,-3.5 -3.4,-4.6 -1.6,0.4 -3.3,0.6 -4.9,1.3 z m -9.9,16.2 c 0.7,2.1 1.2,4.3 1.9,6.5 1.3,4 2.8,8 4.3,12.1 0.1,0.2 0.1,0.5 0,0.6 -0.1,0.1 -0.4,0.1 -0.6,0.1 -2.8,-0.8 -5.7,-1.5 -8.5,-2.5 -2.8,-0.9 -5.6,-1.9 -8.4,-2.9 -2.1,-0.7 -4.2,-1.7 -6.2,-2.7 -2,-1 -4.1,-2 -6.1,-2.9 -1.2,-0.6 -1.2,-1.8 0,-2.5 3.3,-1.9 6.5,-3.8 9.6,-5.8 2.1,-1.3 4.2,-2.9 6.3,-4 1.5,-0.8 3.2,-0.9 4.3,-1.3 2.3,1.2 2.8,3.3 3.4,5.3 z"
             id="path685"
             style="fill:#ffffff"
             inkscape:connector-curvature="0" /><path
             d="m 387.8,551.5 c 1.6,0.5 3.1,1 4.6,1.5 0.8,0.2 1.5,0.5 2.3,0.7 0.8,0.2 1.5,0.4 2.3,0.6 1.4,0.4 3,0.5 4.4,0.6 0.4,0 0.8,-0.3 1.3,-0.5 -0.2,-0.3 -0.3,-0.7 -0.5,-1 -2.1,-3 -4.1,-5.9 -6,-8.8 -1.9,-3 -3.8,-6.1 -5.6,-9.1 -1,-1.6 -2,-3.2 -3,-4.7 -1,-1.6 -2,-3.1 -3,-4.6 -1.2,-1.9 -2.4,-1.6 -4,0 -1.3,1.3 -2.8,2.3 -4.3,3.4 -0.2,0.1 -0.8,0 -0.8,-0.1 0,-0.4 -0.1,-1 0.1,-1.3 1.1,-1.3 2.2,-2.7 3.4,-3.8 1.6,-1.3 3.2,-2.7 4.8,-4 1.6,-1.3 3.2,-2.6 4.7,-4 2,-1.8 3.9,-3.7 5.9,-5.2 1.4,-1.1 2.4,-1.6 3.3,-1.5 0.5,0 0.9,0.3 1.3,0.6 0.5,0.3 1,0.8 1.5,1.5 2,2.4 3.8,5.4 5.6,8.2 1.2,1.7 2.3,3.6 3.5,5.3 1.2,1.7 2.4,3.5 3.6,5.2 2.2,3.2 4.4,6.4 6.7,9.6 0.8,1.1 1.2,2.2 -0.1,3.5 -1.2,1.2 -2,2.6 -3.8,2.6 -0.1,0 -0.3,0.2 -0.3,0.3 -0.6,3.3 -3.4,4.7 -5.3,6.9 -1.3,1.5 -2.7,3 -4.2,4.3 -2.6,2.4 -5.2,4.7 -8,7 -1,0.9 -2.1,1.6 -3.1,2.6 -2.1,2.2 -4.6,2.9 -7.6,2.9 -3.2,0 -6.3,-0.7 -9.3,-1.6 -3,-1 -5.9,-2.2 -8.8,-3.3 -0.2,-0.1 -0.4,-0.9 -0.2,-1 1.6,-1.2 3.1,-2.3 4.7,-3.4 1.3,-1 2.6,-2 3.9,-2.9 1.4,-1 2.8,-1.8 4.2,-3 1.3,-1.1 2.6,-2.3 3.9,-3.4 0.8,0.1 1.4,0.1 1.9,-0.1 z"
             id="path687"
             style="fill:#ffffff"
             inkscape:connector-curvature="0" /><path
             d="m 330.7,511.2 c 0.1,-0.6 0.1,-0.9 0.2,-1 0.3,-0.3 0.7,-0.6 1.1,-0.8 2.4,-1 2,-2.9 1.1,-4.5 -2,-3.6 -4,-7.1 -5.5,-10.9 -0.4,-1 0.5,-3.4 1.3,-4.5 1.2,-1.5 2.9,-2.7 4.4,-3.5 2.8,-1.6 5.6,-2.8 8.2,-4.3 1.7,-0.9 3.3,-2 5,-3.1 1.4,-0.9 2.7,-1.8 4.1,-2.6 0.1,-0.1 0.2,0 0.3,0 -0.1,0.1 -0.2,0.2 -0.3,0.2 -0.7,0.5 -1.4,0.9 -2,1.6 -3.5,3.6 -3.7,6 -1.6,9.5 0.8,1.4 1.6,2.7 2.3,4.1 0.8,1.4 1.6,2.7 2.4,4.1 0.8,1.3 0.3,3.8 -1.7,5.1 -0.9,0.6 -1.8,1.4 -2.7,1.9 -2.3,1.4 -4.6,2.5 -7,3.8 -2.4,1.2 -4.8,2.4 -7.2,3.6 -0.6,0.2 -1.3,0.7 -2.4,1.3 z"
             id="path689"
             style="fill:#ffffff"
             inkscape:connector-curvature="0" /><path
             d="m 152.4,410.3 c 0.6,0 1,-0.2 1.3,-0.1 2.4,1.1 2.9,-1.1 3.8,-2.3 1,-1.5 1.5,-3.4 2.2,-5.1 1.5,-3.3 2.9,-6.6 4.6,-9.7 0.7,-1.3 2.6,-1.2 3.9,-0.5 1.8,1 3.7,1.6 5.6,2.3 1.7,0.6 3.5,0.9 5.1,1.6 1.3,0.5 2.6,1.1 3.9,1.6 1.3,0.5 2.7,1.1 4,1.7 1.7,0.7 3.2,1.7 4.8,2.6 0.1,0 0.1,0.1 0.2,0.2 -0.1,0 -0.3,0.1 -0.4,0.1 -0.8,-0.2 -1.5,-0.5 -2.3,-0.8 -2.6,-0.8 -4.3,0.1 -5.3,2.6 -0.5,1.2 -1.5,2.2 -2,3.3 -0.9,1.9 -1.5,4 -2.4,6 -0.9,2.1 -1.3,4.8 -3.7,5.9 -0.8,0.4 -2.2,-0.1 -3.2,-0.4 -2.4,-0.7 -4.7,-1.7 -7.1,-2.6 -3.7,-1.5 -7.4,-3 -11.1,-4.7 -0.6,-0.3 -1.2,-0.5 -1.7,-0.9 -0.1,0 -0.1,-0.5 -0.2,-0.8 z"
             id="path691"
             style="fill:#ffffff"
             inkscape:connector-curvature="0" /></g><g
           id="g705"
           style="fill:#ffffff"><path
             d="m 232,169.5 c 0.4,2.4 -1.2,5.1 -3.3,5.3 -1.8,0.2 -3.6,0.4 -5.4,0.7 -1.8,0.2 -3.7,0.5 -5.4,0.9 -4.9,0.9 -9.8,1.9 -14.8,3.1 -0.5,0.1 -1.4,0 -1.5,-0.2 -0.9,-1.6 -1.8,-3.3 -2.3,-5 -0.4,-1.4 -0.3,-2.9 -0.3,-4.4 0,-2.1 0.8,-4.2 2.7,-5 2.9,-1.2 5.9,-1.9 9,-2.5 2.6,-0.5 5.3,-0.5 7.9,-0.7 4.4,-0.3 8.8,-0.5 13,-0.5 2.5,0 4.9,0 7.3,0.1 1.5,0 2.9,0 4.4,0 0.6,0 1.2,0.1 1.8,0.1 0.5,0 1.1,-0.2 1.6,-0.1 0.8,0.2 1.9,0.3 2.5,0.8 0.9,0.8 1.2,-1.2 2.1,0.2 0.1,0.2 1.5,-0.1 2.3,-0.3 0.3,0 0.4,-0.4 0.7,-0.5 1.8,-0.5 3,-2.1 2.5,-4 -0.1,-0.6 -0.5,-1.2 -0.7,-1.8 0,-0.1 0.4,-0.3 0.4,-0.5 -0.1,-0.6 -0.3,-1.3 -0.4,-2 0,-0.5 0.2,-0.9 0.1,-1.4 -0.1,-1.6 -0.3,-3.2 -0.4,-4.8 -0.1,-1.6 -0.2,-3.2 -0.3,-4.8 0,-0.7 0.2,-1.4 0.2,-2.1 -0.1,-1.4 -0.3,-2.9 -0.4,-4.4 0,-0.2 0.5,-0.6 0.7,-0.6 0.8,0.1 1.6,0.5 2.4,0.6 2.3,0.4 4.7,0.8 7,1.4 1.9,0.5 3.8,1.1 5.6,1.6 2.6,0.7 5.2,1.3 7.7,2 0.3,0.1 0.5,0.1 0.8,0.1 0,-0.2 -0.1,-0.5 -0.1,-0.7 0,-0.2 0.1,-0.4 0.2,-0.6 0,0 0.1,0 0.1,0 0,0.1 0,0.3 0,0.4 0.3,0.6 0.4,1.7 1.4,1.1 0.1,0 0.3,0.1 0.4,0.1 0,0.1 0,0.2 -0.1,0.2 -0.1,0.1 -0.2,0.1 -0.4,0.1 0.2,0.1 0.4,0.2 0.6,0.2 3.1,0.7 5.8,0.7 8.1,-0.7 1.6,-1.1 2.2,-3.7 1.3,-6 -0.5,-1.4 -0.7,-2.9 -0.8,-4.3 -0.1,-1.4 0.1,-2.8 0.3,-4.2 0,-0.1 0.2,-0.2 0.3,-0.1 1,0.4 1.3,-0.2 1.4,-1 0.1,-1 0.2,-2 0.3,-2.9 0,-0.1 0.2,-0.3 0.3,-0.3 2.7,0.6 5,0 7.3,-0.6 2.1,-0.6 3.9,-1.3 5.2,-2.7 1.3,-1.3 2.3,-3.1 2.9,-5.3 0.5,-1.8 0.7,-3.6 1,-5.5 0.5,-3.2 1.1,-6.5 1.8,-9.9 0.2,-0.9 0.5,-1.4 1.5,-0.7 1.6,1 3.2,2 4.8,3 1.6,1 3.1,2 4.7,2.9 0.7,0.4 1.6,1.5 2.3,0.4 0,0 0.2,0 0.3,0.1 0,0.1 0,0.2 0,0.3 0,0.2 0.1,0.5 0.2,0.6 0.4,0.1 0.8,0 1.1,0.3 0.9,0.8 2,0.9 3,0.6 1,-0.2 2,-0.9 2.3,-1.8 0.5,-1.3 1,-2.7 1.5,-4 0.6,-1.8 1.3,-3.6 1.9,-5.4 0.7,-1.8 1.4,-3.5 2.1,-5.3 0.2,-0.6 0.2,-1.3 0.5,-1.9 0.6,-1.1 1.3,-2.2 2.1,-3.2 0.2,-0.3 0.8,-0.5 1.1,-0.4 1.5,1 2.8,2 4.3,3.1 1.2,0.9 2.5,1.8 3.7,2.7 1.5,1.1 2.9,2.3 4.4,3.4 1,0.7 2,1.1 3,1.1 1,0 1.9,-0.2 2.8,-0.7 1.4,-0.8 2.6,-2.4 3.5,-4.1 1.9,-3.3 3.5,-7 5.5,-10.2 1.8,-3.1 3.8,-6.3 5.9,-9.4 0.2,-0.3 1,-0.5 1.2,-0.3 1.1,1.1 2.1,2.4 3.1,3.6 1.4,1.7 2.8,3.5 4.2,5.2 0.9,1.1 2,2.1 2.9,3.2 1.4,1.7 2.8,3.4 4.1,5.1 1.2,1.6 2.5,3.2 3.7,4.9 0.7,1 1.2,2.3 2,2.9 1.4,1.1 2.4,2.8 4.2,3.4 1.7,0.5 3,0.6 4.5,0 1.7,-0.7 3.1,-1.9 4.4,-3.4 1.3,-1.5 2.5,-3.2 3.9,-4.6 1.9,-1.8 3.7,-3.8 5.5,-5.9 1.4,-1.7 2.7,-3.6 4.1,-5.4 0.1,-0.1 0,-0.4 0,-0.6 -0.2,0 -0.4,-0.1 -0.5,0 -1,0.9 -2.1,1.7 -2.9,2.8 -1.5,2 -3.1,2.8 -4.7,2.8 -1.5,0 -3,-0.8 -4.1,-1.9 -2.1,-2.1 -3.9,-4.7 -5.8,-7.3 -1.2,-1.7 -2.5,-3.4 -3.8,-5.2 l -1.9,-2.6 -1.9,-2.5 c -1.7,-2.2 -3.6,-4.4 -5.2,-6.8 -2.6,-3.7 -5.1,-7.5 -7.9,-11.2 -0.8,-1 -0.4,-1.6 0.6,-1.6 3,-0.1 6,-0.1 8.9,-0.2 0.8,0 1.7,-0.4 2.2,-0.9 2.4,-2.7 4.7,-5.4 7.2,-8.1 1.4,-1.5 3.1,-2.7 4.6,-4.2 1,-1 1.9,-2.2 2.8,-3.2 0.1,-0.1 0.1,-0.3 0.1,-0.5 -0.1,0 -0.2,0 -0.3,0 -0.9,0 -1.9,0 -2.8,0 -0.9,0 -1.9,0 -2.8,0.1 -1.3,0 -2.5,-0.1 -3.8,-0.1 h -5.4 c -1.8,0.1 -3.6,0.2 -5.4,0.3 -3,0.2 -5.9,0.6 -8.9,0.9 -3.7,0.5 -7.5,0.8 -11.3,1.2 -0.5,0 -1.2,-0.1 -1.6,-0.5 -1.5,-1.3 -2.8,-2.7 -4.3,-3.9 -4.1,-3.4 -8.3,-6.8 -12.8,-9.9 -3.9,-2.6 -7.9,-5.1 -12.3,-7 C 333.9,6.7 330,6 326.2,5.8 c -2.7,-0.2 -5.6,0 -8.3,0.9 -1.1,0.4 -2.2,0.7 -3.3,1.2 -1,0.5 -2,1.1 -3,1.7 -1.9,1.3 -3.4,2.9 -4.6,5 -0.8,1.5 -1.8,2.8 -2.6,4.2 -0.9,1.8 -1.7,3.7 -2.5,5.6 -1.7,3.9 -3.3,7.7 -4.7,11.6 -0.2,0.5 -0.1,1.2 -0.2,1.8 0.4,-0.5 0.8,-1 1.2,-1.5 0,0 0,-0.1 0.1,-0.2 0.9,-2.6 2.3,-4.7 4.2,-6.4 1.9,-1.7 4.2,-2.9 7.2,-3.3 4,-0.7 8,-1.1 11.8,0.2 1.4,0.5 3.1,0.7 4.5,1.2 1.4,0.5 2.6,1.3 3.9,2 2.9,1.5 5.7,3.1 8.4,4.7 0.5,0.3 1.2,1.5 1,1.8 -1.8,3.5 -3.9,6.8 -5.5,10.3 -1,2.2 -1.9,4.3 -2.7,6.6 -0.8,2.3 -1.6,4.5 -2.4,6.7 -1.1,3.1 -2.5,6 -3.5,9.1 -0.2,0.6 -0.1,1.8 0.3,2 2.5,1.9 5.1,3.7 7.7,5.5 0.8,0.6 1.7,1.1 2.5,1.8 1.1,0.9 2,2 3,3 0.1,0.1 0.2,0.5 0.2,0.7 0,1.9 -2.7,4.5 -4.4,3.8 -1.2,-0.5 -2.5,-1.1 -3.7,-1.7 -1.2,-0.6 -2.4,-1.2 -3.7,-1.7 -1.5,-0.7 -2.9,-1.5 -4.4,-2.4 -0.6,-0.4 -1,-1.2 -1.5,-1.6 -1.3,-1 -2.6,-1.9 -3.9,-2.7 -4,-2.6 -7.8,-5.1 -12.1,-7.1 -2.9,-1.3 -5.8,-2.5 -8.9,-3.7 -3,-1.1 -6.1,-2 -9.2,-3 -2.9,-0.8 -5.9,-1.3 -9,-0.3 -2.6,1.1 -4.8,2.8 -6.9,4.6 -2.1,1.8 -3.4,3.9 -4.6,6.2 -2.3,4.3 -2.8,9 -3.4,13.6 -0.1,1 0.1,2.1 -0.1,3 -0.9,3.5 -1.4,7 -0.8,10.7 0,0.2 0.4,0.4 0.6,0.6 0.1,-0.2 0.3,-0.4 0.3,-0.6 0.2,-2 0.4,-4 0.6,-6 0.2,-1.7 0.9,-3.1 1.8,-4.4 1,-1.2 2.1,-2.3 3.2,-3.4 1.8,-1.7 4.1,-3.4 7,-3.2 0.4,0 1.3,0.6 1.2,0.7 -0.5,3.2 -1.1,6.4 -1.6,9.5 -0.4,2.9 -0.8,5.7 -1,8.5 -0.2,2.6 -0.1,5.1 1.5,7.5 0.3,0.4 0.8,0.7 1.1,1.2 0.6,1.2 1,2.5 1.8,3.5 0.8,1 2,1.8 3,2.6 0.7,0.6 1.5,1.1 2.3,1.6 1.5,0.9 2.9,1.7 4.3,2.5 0.1,0.1 0.2,0.1 0.4,0.2 -0.1,0.1 -0.1,0.3 -0.2,0.3 -0.6,0.2 -1.2,0.6 -1.8,0.5 -2.7,-0.5 -5.5,-0.9 -8.2,-1.8 -5.6,-1.7 -11.1,-3.4 -16.8,-4.9 -2.3,-0.6 -4.7,-1.1 -7,-1.7 -3.2,-0.7 -6.3,-1.4 -9.5,-2 -0.4,-0.1 -0.7,-0.3 -1,-0.5 0.2,-0.3 0.2,-0.8 0.5,-1 1.5,-1.6 2.8,-3 2.7,-5.7 -0.2,-3.1 0.6,-6.2 0.9,-9.3 0.3,-3.1 0.6,-6.3 1,-9.4 0,-0.3 0,-0.5 -0.1,-0.8 -0.3,0.1 -0.6,0.1 -0.8,0.3 -1.8,1.4 -3.4,3 -5.2,4.4 -1.8,1.4 -3.6,2.8 -5.4,4.2 l -1.4,1.1 -1.3,1.1 -2.6,2.2 -5.5,4.7 c -1.8,1.6 -3.5,3.3 -5.3,4.9 -0.8,0.7 -1.9,1.4 -2.9,1.4 -2.2,0 -4.5,0 -6.7,-0.1 -2.2,0 -4.5,0 -6.7,0.1 -3.5,0.1 -7,0.4 -10.5,1 -3.5,0.6 -6.9,1.4 -10.5,2.3 -2.7,0.7 -5.1,1.9 -7,3.5 -1.9,1.7 -3.3,3.9 -4.1,6.7 -0.8,2.6 -1.4,5.2 -1.5,7.7 0,2 0.7,4 1.2,5.9 1.1,4.6 2.3,9.2 3.5,13.6 0.2,0.5 0.3,1 0.5,1.5 0.1,0.2 0.3,0.3 0.5,0.4 0.1,-0.2 0.3,-0.4 0.3,-0.6 0.1,-2 0.1,-3.9 0.3,-5.8 0.3,-2.8 1.7,-5.4 4,-6.8 1.4,-0.9 3,-1.6 4.7,-2.2 1.6,-0.6 3.3,-1.1 4.9,-1.6 3.2,-1 6.3,-1.8 9.5,-2.2 2.9,-0.4 5.7,-0.2 8.6,-0.2 0.1,0 0.3,0.2 0.3,0.3 0.5,2.2 1.1,4.3 1.5,6.4 0.1,0.3 -0.5,1 -0.8,1.1 -2.4,0.4 -4.7,0.7 -7.1,1.2 -1.3,0.3 -2.5,0.8 -3.7,1.2 -0.8,0.3 -1.6,0.5 -2.4,0.9 -0.6,0.2 -1.1,0.6 -1.6,0.9 -1,0.6 -2.2,1.1 -2.7,2 -0.6,1.2 -0.4,2.8 -0.9,4.1 -1.3,3.6 0.1,7 0.6,10.5 0.3,2.3 1.1,4.5 1.7,6.7 0.7,2.4 1.5,4.7 2.4,7.1 0.3,0.7 0.6,1.5 0.9,2.2 0.3,0.7 0.7,1.5 0.9,2.2 0.5,1.2 0.3,2.1 -1.2,2.5 -0.7,0.2 -1.4,0.7 -2,1.2 -2.8,2.3 -3.6,5.5 -2.7,8.8 0.7,2.8 2.1,5.4 3.3,8 0.4,0.8 1.2,1.5 1.8,2.3 0.8,0.9 1.7,1.8 2.3,2.8 0.9,1.6 1.6,3.2 2.4,4.8 0.1,0.2 0.4,0.4 0.7,0.6 0,-0.3 0.1,-0.5 0.1,-0.8 -0.2,-1.5 -0.4,-2.9 0,-4.1 0.4,-1.2 1.2,-2.3 2.7,-3 1.3,-0.6 2.6,-1.3 3.9,-1.7 2.2,-0.7 4.2,-1.3 6.4,-1.8 2.2,-0.5 4.4,-1.1 6.5,-1.5 1.7,-0.4 3.5,-0.6 5.2,-0.9 0.4,-0.1 0.8,-0.4 1.2,-0.6 0.1,0 0.2,0 0.3,0 0.3,0.1 0.7,0.3 0.9,0.3 1.2,-0.2 2.3,-0.5 3.5,-0.6 4,-0.5 5.7,-3.4 4.3,-7.2 -0.9,-2.4 -1.5,-4.8 -2.3,-7.2 -1,-3.1 -1.9,-6.1 -2.9,-9.3 -0.3,-1.1 -0.9,-2.1 -1.4,-3.3 0,0.7 -0.1,1.2 0,1.7 z M 359.2,73.6 c -3.2,-2.8 -6.4,-5.7 -9.6,-8.7 -1.9,-1.7 -3.5,-3.6 -5.4,-5.3 -2.2,-1.9 -4.5,-3.7 -6.7,-5.5 -0.2,-0.1 -0.1,-0.9 0,-0.9 2,-0.7 3.9,-1.3 5.9,-1.9 2.7,-0.7 5.5,-1.2 8.3,-1.8 2.3,-0.5 4.4,-1.3 6.5,1.3 1.9,2.5 4.6,4.3 6.8,6.4 1.2,1.1 2.3,2.3 3.4,3.6 1.1,1.3 2.1,2.8 3.1,4.2 0.5,0.7 1.1,1.4 1.6,2.2 0.1,0.2 0.2,0.6 0.1,0.7 -0.9,1.3 -1.8,2.6 -2.7,3.8 -0.6,0.8 -1,1.7 -1.7,2.3 -0.8,0.7 -1.8,1.2 -2.7,1.8 -2.7,0 -4.9,-0.5 -6.9,-2.2 z m -80.4,12.3 c -0.4,-1.8 0.6,-2.6 2.4,-2.1 1,0.3 2,0.4 3,0.7 1.2,0.2 2.3,0.4 3.5,0.8 2.8,0.9 5.5,1.9 8.2,3 2.4,1 4.8,2 7.1,3.2 2,1.1 4,2.5 5.9,3.9 0.2,0.1 0.3,0.9 0.2,1.1 -1.5,2.5 -3.8,3.6 -6.5,3.9 -1.9,0.2 -3.6,1.1 -5.6,1 -3.5,-0.1 -6.9,-1.5 -10.1,-3.6 -2.1,-1.4 -3.9,-3.4 -6,-5.3 -0.8,-2.1 -1.6,-4.4 -2.1,-6.6 z m -57.4,46.8 c 2.2,-0.9 4.9,-0.6 7.4,-0.7 2.6,0 5.1,0.1 7.6,0.3 2.1,0.1 4.3,0.4 6.4,0.7 3.1,0.4 6.1,1 9.1,1.5 2.3,0.3 2.8,1.7 1.7,4.2 -1.3,2.8 -3.9,3.1 -6.9,2.7 -4.1,-0.5 -8.2,-0.8 -12.4,-1.2 -4.4,-0.4 -8.8,-0.6 -13.2,-0.8 -1.3,0 -2.5,0.1 -3.8,0.2 -0.5,0 -1,-0.2 -1.6,-0.2 0.2,-0.5 0.4,-1.1 0.6,-1.6 0,-0.1 0.1,-0.2 0.4,-0.6 1.3,-1.4 2.7,-3.6 4.7,-4.5 z"
             id="path695"
             style="fill:#ffffff"
             inkscape:connector-curvature="0" /><path
             d="m 208.6,232.9 c -0.7,-1.3 -1.3,-2.6 -2,-3.9 -0.7,-1.3 -1.4,-2.6 -2.2,-3.9 -1.7,-2.9 -3.5,-5.8 -5.2,-8.7 -1.9,-3.3 -3.7,-6.7 -5.5,-10.2 -1.4,-2.6 -2.8,-5.2 -4.2,-7.8 -1,-1.9 -2.2,-3.8 -3.2,-5.8 -1.2,-2.2 -2.2,-4.5 -3.3,-6.9 -1.5,-3.2 -2.6,-6.4 -4.1,-9.5 -0.3,-0.7 -1.6,-1.1 -2.4,-1.5 -0.1,0 -0.7,0.9 -1,1.4 -0.8,1.5 -1.6,3 -2.3,4.6 -0.9,1.9 -1.9,3.9 -2.8,5.8 -1,2.2 -1.9,4.4 -2.8,6.6 -0.4,1 -1,2 -1.4,3 -0.6,1.7 -1.2,3.5 -1.7,5.2 -0.3,0.9 -0.6,1.7 -0.9,2.6 -0.3,0.9 -0.5,1.7 -0.9,2.6 -1.1,3 -2.6,5.8 -3.9,8.8 -0.7,1.5 -1.5,2.9 -1.7,4.4 -0.4,2.5 -0.8,5.1 -1.1,7.6 -0.1,0.6 -0.1,1.3 -0.2,1.9 -0.1,0.6 -0.1,1.3 -0.1,1.9 -0.1,1.3 -0.1,2.5 -0.1,3.8 0,1.9 1.2,3.8 2.2,5.5 1,1.6 2.4,2.8 3.6,4.3 2.7,3.3 5.4,6.5 8.1,9.6 0.2,0.2 0.8,0.1 1.2,0.2 0.4,0 0.9,-0.1 1.1,0.1 0.5,0.3 0.9,0.8 1.3,1.3 2,2.2 3.9,4.4 6,6.5 0.3,0.3 0.7,0.3 1.1,0.5 -0.1,-0.3 -0.3,-0.6 -0.4,-0.8 -0.6,-0.9 -1.3,-1.8 -1.9,-2.7 -1.2,-1.8 -1.3,-3.9 0.1,-5.4 1.7,-1.8 3.7,-3.6 5.9,-4.7 4.2,-2.1 8.7,-3.7 13.1,-5.3 1.4,-0.5 2.7,-1 4.1,-1.5 1.4,-0.5 2.7,-1 4.2,-1.3 2,-0.5 3.5,-1.3 4.6,-3.4 -0.3,-1.6 -0.5,-3.3 -1.3,-4.9 z M 192.5,223 c -2.1,0.7 -4.3,1.2 -6.5,1.9 -4,1.3 -8,2.8 -12.1,4.3 -0.2,0.1 -0.5,0.1 -0.6,0 -0.1,-0.1 -0.1,-0.4 -0.1,-0.6 0.8,-2.8 1.5,-5.7 2.5,-8.5 0.9,-2.8 1.9,-5.6 2.9,-8.4 0.7,-2.1 1.7,-4.2 2.7,-6.2 1,-2 2,-4.1 2.9,-6.1 0.6,-1.2 1.8,-1.2 2.5,0 1.9,3.3 3.8,6.5 5.8,9.6 1.3,2.1 2.9,4.2 4,6.3 0.8,1.5 0.9,3.2 1.3,4.3 -1.2,2.3 -3.3,2.8 -5.3,3.4 z"
             id="path697"
             style="fill:#ffffff"
             inkscape:connector-curvature="0" /><path
             d="m 167.1,264.5 c -0.5,1.6 -1,3.1 -1.5,4.6 -0.2,0.8 -0.5,1.5 -0.7,2.3 -0.2,0.8 -0.4,1.5 -0.6,2.3 -0.4,1.4 -0.5,3 -0.6,4.4 0,0.4 0.3,0.8 0.5,1.3 0.3,-0.2 0.7,-0.3 1,-0.5 3,-2.1 5.9,-4.1 8.8,-6 3,-1.9 6.1,-3.8 9.1,-5.6 1.6,-1 3.2,-2 4.7,-3 1.6,-1 3.1,-2 4.6,-3 1.9,-1.2 1.6,-2.4 0,-4 -1.3,-1.3 -2.3,-2.8 -3.4,-4.3 -0.1,-0.2 0,-0.8 0.1,-0.8 0.4,0 1,-0.1 1.3,0.1 1.3,1.1 2.7,2.2 3.8,3.4 1.3,1.6 2.7,3.2 4,4.8 1.3,1.6 2.6,3.2 4,4.7 1.8,2 3.7,3.9 5.2,5.9 1.1,1.4 1.6,2.4 1.5,3.3 0,0.5 -0.3,0.9 -0.6,1.3 -0.3,0.5 -0.8,1 -1.5,1.5 -2.4,2 -5.4,3.8 -8.2,5.6 -1.7,1.2 -3.6,2.3 -5.3,3.5 -1.7,1.2 -3.5,2.4 -5.2,3.6 -3.2,2.2 -6.4,4.4 -9.6,6.7 -1.1,0.8 -2.2,1.2 -3.5,-0.1 -1.2,-1.2 -2.6,-2 -2.6,-3.8 0,-0.1 -0.2,-0.3 -0.3,-0.3 -3.3,-0.6 -4.7,-3.4 -6.9,-5.3 -1.5,-1.3 -3,-2.7 -4.3,-4.2 -2.4,-2.6 -4.7,-5.2 -7,-8 -0.9,-1 -1.6,-2.1 -2.6,-3.1 -2.2,-2.1 -2.9,-4.6 -2.9,-7.6 0,-3.2 0.7,-6.3 1.6,-9.3 1,-3 2.2,-5.9 3.3,-8.8 0.1,-0.2 0.9,-0.4 1,-0.2 1.2,1.6 2.3,3.1 3.4,4.7 1,1.3 2,2.6 2.9,3.9 1,1.4 1.8,2.8 3,4.2 1.1,1.3 2.3,2.6 3.4,3.9 -0.1,0.8 -0.1,1.4 0.1,1.9 z"
             id="path699"
             style="fill:#ffffff"
             inkscape:connector-curvature="0" /><path
             d="m 207.4,207.4 c 0.6,0.1 0.9,0.1 1,0.2 0.3,0.3 0.6,0.7 0.8,1.1 1,2.4 2.9,2 4.5,1.1 3.6,-2 7.1,-4 10.9,-5.5 1,-0.4 3.4,0.5 4.5,1.3 1.5,1.2 2.7,2.9 3.5,4.4 1.6,2.8 2.8,5.6 4.3,8.2 0.9,1.7 2,3.3 3.1,5 0.9,1.4 1.8,2.7 2.6,4.1 0.1,0.1 0,0.2 0,0.3 -0.1,-0.1 -0.2,-0.2 -0.2,-0.3 -0.5,-0.7 -0.9,-1.4 -1.6,-2 -3.6,-3.5 -6,-3.7 -9.5,-1.6 -1.4,0.8 -2.7,1.6 -4.1,2.3 -1.4,0.8 -2.7,1.6 -4.1,2.4 -1.3,0.8 -3.8,0.3 -5.1,-1.7 -0.6,-0.9 -1.4,-1.8 -1.9,-2.7 -1.4,-2.3 -2.5,-4.6 -3.8,-7 -1.2,-2.4 -2.4,-4.8 -3.6,-7.2 -0.3,-0.6 -0.7,-1.3 -1.3,-2.4 z"
             id="path701"
             style="fill:#ffffff"
             inkscape:connector-curvature="0" /><path
             d="m 308.3,29.1 c 0,0.6 0.2,1 0.1,1.3 -1.1,2.4 1.1,2.9 2.3,3.8 1.5,1 3.4,1.5 5.1,2.2 3.3,1.5 6.6,2.9 9.7,4.6 1.3,0.7 1.2,2.6 0.5,3.9 -1,1.8 -1.6,3.7 -2.3,5.6 -0.6,1.7 -0.9,3.5 -1.6,5.1 -0.5,1.3 -1.1,2.6 -1.6,3.9 -0.5,1.3 -1.1,2.7 -1.7,4 -0.7,1.7 -1.7,3.2 -2.6,4.8 0,0.1 -0.1,0.1 -0.2,0.2 0,-0.1 -0.1,-0.3 -0.1,-0.4 0.2,-0.8 0.5,-1.5 0.8,-2.3 0.8,-2.6 -0.1,-4.3 -2.6,-5.3 -1.2,-0.5 -2.2,-1.5 -3.3,-2 -1.9,-0.9 -4,-1.5 -6,-2.4 -2.1,-0.9 -4.8,-1.3 -5.9,-3.7 -0.4,-0.8 0.1,-2.2 0.4,-3.2 0.7,-2.4 1.7,-4.7 2.6,-7.1 1.5,-3.7 3,-7.4 4.7,-11.1 0.3,-0.6 0.5,-1.2 0.9,-1.7 0,-0.1 0.5,-0.1 0.8,-0.2 z"
             id="path703"
             style="fill:#ffffff"
             inkscape:connector-curvature="0" /></g><g
           id="g717"
           style="fill:#ffffff"><path
             d="m 549.1,108.7 c -2.4,0.4 -5.1,-1.2 -5.3,-3.3 -0.2,-1.8 -0.4,-3.6 -0.7,-5.4 -0.2,-1.8 -0.5,-3.7 -0.9,-5.4 -0.9,-4.9 -1.9,-9.8 -3.1,-14.8 -0.1,-0.5 0,-1.4 0.2,-1.5 1.6,-0.9 3.3,-1.8 5,-2.3 1.4,-0.4 2.9,-0.3 4.4,-0.3 2.1,0 4.2,0.8 5,2.7 1.2,2.9 1.9,5.9 2.5,9 0.5,2.6 0.5,5.3 0.7,7.9 0.3,4.4 0.5,8.8 0.5,13 0,2.5 0,4.9 -0.1,7.3 0,1.5 0,2.9 0,4.4 0,0.6 -0.1,1.2 -0.1,1.8 0,0.5 0.2,1.1 0.1,1.6 -0.2,0.8 -0.3,1.9 -0.8,2.5 -0.8,0.9 1.2,1.2 -0.2,2.1 -0.2,0.1 0.1,1.5 0.3,2.3 0,0.3 0.4,0.4 0.5,0.7 0.5,1.8 2.1,3 4,2.5 0.6,-0.1 1.2,-0.5 1.8,-0.7 0.1,0 0.3,0.4 0.5,0.4 0.6,-0.1 1.3,-0.3 2,-0.4 0.5,0 0.9,0.2 1.4,0.1 1.6,-0.1 3.2,-0.3 4.8,-0.4 1.6,-0.1 3.2,-0.2 4.8,-0.3 0.7,0 1.4,0.2 2.1,0.2 1.4,-0.1 2.9,-0.3 4.4,-0.4 0.2,0 0.6,0.5 0.6,0.7 -0.1,0.8 -0.5,1.6 -0.6,2.4 -0.4,2.3 -0.8,4.7 -1.4,7 -0.5,1.9 -1.1,3.8 -1.6,5.6 -0.7,2.6 -1.3,5.2 -2,7.7 -0.1,0.3 -0.1,0.5 -0.1,0.8 0.2,0 0.5,-0.1 0.7,-0.1 0.2,0 0.4,0.1 0.6,0.2 0,0 0,0.1 0,0.1 -0.1,0 -0.3,0 -0.4,0 -0.6,0.3 -1.7,0.4 -1.1,1.4 0,0.1 -0.1,0.3 -0.1,0.4 -0.1,0 -0.2,0 -0.2,-0.1 -0.1,-0.1 -0.1,-0.2 -0.1,-0.4 -0.1,0.2 -0.2,0.4 -0.2,0.6 -0.7,3.1 -0.7,5.8 0.7,8.1 1.1,1.6 3.7,2.2 6,1.3 1.4,-0.5 2.9,-0.7 4.3,-0.8 1.4,-0.1 2.8,0.1 4.2,0.3 0.1,0 0.2,0.2 0.1,0.3 -0.4,1 0.2,1.3 1,1.4 1,0.1 2,0.2 2.9,0.3 0.1,0 0.3,0.2 0.3,0.3 -0.6,2.7 0,5 0.6,7.3 0.6,2.1 1.3,3.9 2.7,5.2 1.3,1.3 3.1,2.3 5.3,2.9 1.8,0.5 3.6,0.7 5.5,1 3.2,0.5 6.5,1.1 9.9,1.8 0.9,0.2 1.4,0.5 0.7,1.5 -1,1.6 -2,3.2 -3,4.8 -1,1.6 -2,3.1 -2.9,4.7 -0.4,0.7 -1.5,1.6 -0.4,2.3 0,0 0,0.2 -0.1,0.3 -0.1,0 -0.2,0 -0.3,0 -0.2,0 -0.5,0.1 -0.6,0.2 -0.1,0.4 0,0.8 -0.3,1.1 -0.8,0.9 -0.9,2 -0.6,3 0.2,1 0.9,2 1.8,2.3 1.3,0.5 2.7,1 4,1.5 1.8,0.6 3.6,1.3 5.4,1.9 1.8,0.7 3.5,1.4 5.3,2.1 0.6,0.2 1.3,0.2 1.9,0.5 1.1,0.6 2.2,1.3 3.2,2.1 0.3,0.2 0.5,0.8 0.4,1.1 -1,1.5 -2,2.8 -3.1,4.3 -0.9,1.2 -1.8,2.5 -2.7,3.7 -1.1,1.5 -2.3,2.9 -3.4,4.4 -0.7,1 -1.1,2 -1.1,3 0,1 0.2,1.9 0.7,2.8 0.8,1.4 2.4,2.6 4.1,3.5 3.3,1.9 7,3.5 10.2,5.5 3.1,1.8 6.3,3.8 9.4,5.9 0.3,0.2 0.5,1 0.3,1.2 -1.1,1.1 -2.4,2.1 -3.6,3.1 -1.7,1.4 -3.5,2.8 -5.2,4.2 -1.1,0.9 -2.1,2 -3.2,2.9 -1.7,1.4 -3.4,2.8 -5.1,4.1 -1.6,1.2 -3.2,2.5 -4.9,3.7 -1,0.7 -2.3,1.2 -2.9,2 -1.1,1.4 -2.8,2.4 -3.4,4.2 -0.5,1.7 -0.6,3 0,4.5 0.7,1.7 1.9,3.1 3.4,4.4 1.5,1.3 3.2,2.5 4.6,3.9 1.8,1.9 3.8,3.7 5.9,5.5 1.7,1.4 3.6,2.7 5.4,4.1 0.1,0.1 0.4,0 0.6,0 0,-0.2 0.1,-0.4 0,-0.5 -0.9,-1 -1.7,-2.1 -2.8,-2.9 -2,-1.5 -2.8,-3.1 -2.8,-4.7 0,-1.5 0.8,-3 1.9,-4.1 2.1,-2.1 4.7,-3.9 7.3,-5.8 1.7,-1.2 3.4,-2.5 5.2,-3.8 l 2.6,-1.9 2.5,-1.9 c 2.2,-1.7 4.4,-3.6 6.8,-5.2 3.7,-2.6 7.5,-5.1 11.2,-7.9 1,-0.8 1.6,-0.4 1.6,0.6 0.1,3 0.1,6 0.2,8.9 0,0.8 0.4,1.7 0.9,2.2 2.7,2.4 5.4,4.7 8.1,7.2 1.5,1.4 2.7,3.1 4.2,4.6 1,1 2.2,1.9 3.2,2.8 0.1,0.1 0.3,0.1 0.5,0.1 0,-0.1 0,-0.2 0,-0.3 0,-0.9 0,-1.9 0,-2.8 0,-0.9 0,-1.9 -0.1,-2.8 0,-1.3 0.1,-2.5 0.1,-3.8 v -5.4 c -0.1,-1.8 -0.2,-3.6 -0.3,-5.4 -0.2,-3 -0.6,-5.9 -0.9,-8.9 -0.5,-3.7 -0.8,-7.5 -1.2,-11.3 0,-0.5 0.1,-1.2 0.5,-1.6 1.3,-1.5 2.7,-2.8 3.9,-4.3 3.4,-4.1 6.8,-8.3 9.9,-12.8 2.6,-3.9 5.1,-7.9 7,-12.3 1.4,-3.4 2.1,-7.3 2.3,-11.1 0.2,-2.7 0,-5.6 -0.9,-8.3 -0.4,-1.1 -0.7,-2.2 -1.2,-3.3 -0.5,-1 -1.1,-2 -1.7,-3 -1.3,-1.9 -2.9,-3.4 -5,-4.6 -1.5,-0.8 -2.8,-1.8 -4.2,-2.6 -1.8,-0.9 -3.7,-1.7 -5.6,-2.5 -3.9,-1.7 -7.7,-3.3 -11.6,-4.7 -0.5,-0.2 -1.2,-0.1 -1.8,-0.2 0.5,0.4 1,0.8 1.5,1.2 0,0 0.1,0 0.2,0.1 2.6,0.9 4.7,2.3 6.4,4.2 1.7,1.9 2.9,4.2 3.3,7.2 0.7,4 1.1,8 -0.2,11.8 -0.5,1.4 -0.7,3.1 -1.2,4.5 -0.5,1.4 -1.3,2.6 -2,3.9 -1.5,2.9 -3.1,5.7 -4.7,8.4 -0.3,0.5 -1.5,1.2 -1.8,1 -3.5,-1.8 -6.8,-3.9 -10.3,-5.5 -2.2,-1 -4.3,-1.9 -6.6,-2.7 -2.3,-0.8 -4.5,-1.6 -6.7,-2.4 -3.1,-1.1 -6,-2.5 -9.1,-3.5 -0.6,-0.2 -1.8,-0.1 -2,0.3 -1.9,2.5 -3.7,5.1 -5.5,7.7 -0.6,0.8 -1.1,1.7 -1.8,2.5 -0.9,1.1 -2,2 -3,3 -0.1,0.1 -0.5,0.2 -0.7,0.2 -1.9,0 -4.5,-2.7 -3.8,-4.4 0.5,-1.2 1.1,-2.5 1.7,-3.7 0.6,-1.2 1.2,-2.4 1.7,-3.7 0.7,-1.5 1.5,-2.9 2.4,-4.4 0.4,-0.6 1.2,-1 1.6,-1.5 1,-1.3 1.9,-2.6 2.7,-3.9 2.6,-4 5.1,-7.8 7.1,-12.1 1.3,-2.9 2.5,-5.8 3.7,-8.9 1.1,-3 2,-6.1 3,-9.2 0.8,-2.9 1.3,-5.9 0.3,-9 -1.1,-2.6 -2.8,-4.8 -4.6,-6.9 -1.8,-2.1 -3.9,-3.4 -6.2,-4.6 -4.3,-2.3 -9,-2.8 -13.6,-3.4 -1,-0.1 -2.1,0.1 -3,-0.1 -3.5,-0.9 -7,-1.4 -10.7,-0.8 -0.2,0 -0.4,0.4 -0.6,0.6 0.2,0.1 0.4,0.3 0.6,0.3 2,0.2 4,0.4 6,0.6 1.7,0.2 3.1,0.9 4.4,1.8 1.2,1 2.3,2.1 3.4,3.2 1.7,1.8 3.4,4.1 3.2,7 0,0.4 -0.6,1.3 -0.7,1.2 -3.2,-0.5 -6.4,-1.1 -9.5,-1.6 -2.9,-0.4 -5.7,-0.8 -8.5,-1 -2.6,-0.2 -5.1,-0.1 -7.5,1.5 -0.4,0.3 -0.7,0.8 -1.2,1.1 -1.2,0.6 -2.5,1 -3.5,1.8 -1,0.8 -1.8,2 -2.6,3 -0.6,0.7 -1.1,1.5 -1.6,2.3 -0.9,1.5 -1.7,2.9 -2.5,4.3 -0.1,0.1 -0.1,0.2 -0.2,0.4 -0.1,-0.1 -0.3,-0.1 -0.3,-0.2 -0.2,-0.6 -0.6,-1.2 -0.5,-1.8 0.5,-2.7 0.9,-5.5 1.8,-8.2 1.7,-5.6 3.4,-11.1 4.9,-16.8 0.6,-2.3 1.1,-4.7 1.7,-7 0.7,-3.2 1.4,-6.3 2,-9.5 0.1,-0.4 0.3,-0.7 0.5,-1 0.3,0.2 0.8,0.2 1,0.5 1.6,1.5 3,2.8 5.7,2.7 3.1,-0.2 6.2,0.6 9.3,0.9 3.1,0.3 6.3,0.6 9.4,1 0.3,0 0.5,0 0.8,-0.1 -0.1,-0.3 -0.1,-0.6 -0.3,-0.8 -1.4,-1.8 -3,-3.4 -4.4,-5.2 -1.4,-1.8 -2.8,-3.6 -4.2,-5.4 l -1.1,-1.4 -1.1,-1.3 -2.2,-2.6 -4.7,-5.5 c -1.6,-1.8 -3.3,-3.5 -4.9,-5.3 -0.7,-0.8 -1.4,-1.9 -1.4,-2.9 0,-2.2 0,-4.5 0.1,-6.7 0,-2.2 0,-4.5 -0.1,-6.7 -0.1,-3.5 -0.4,-7 -1,-10.5 -0.5,-3.5 -1.4,-6.9 -2.3,-10.5 -0.7,-2.7 -1.9,-5.1 -3.5,-7 -1.7,-1.9 -3.9,-3.3 -6.7,-4.1 -2.6,-0.8 -5.2,-1.4 -7.7,-1.5 -2,0 -4,0.7 -5.9,1.2 -4.6,1.1 -9.2,2.3 -13.6,3.5 -0.5,0.2 -1,0.3 -1.5,0.5 -0.2,0.1 -0.3,0.3 -0.4,0.5 0.2,0.1 0.4,0.3 0.6,0.3 2,0.1 3.9,0.1 5.8,0.3 2.8,0.3 5.4,1.7 6.8,4 0.9,1.4 1.6,3 2.2,4.7 0.6,1.6 1.1,3.3 1.6,4.9 1,3.2 1.8,6.3 2.2,9.5 0.4,2.9 0.2,5.7 0.2,8.6 0,0.1 -0.2,0.3 -0.3,0.3 -2.2,0.5 -4.3,1.1 -6.4,1.5 -0.3,0.1 -1,-0.5 -1.1,-0.8 -0.4,-2.4 -0.7,-4.7 -1.2,-7.1 -0.3,-1.3 -0.8,-2.5 -1.2,-3.7 -0.3,-0.8 -0.5,-1.6 -0.9,-2.4 -0.2,-0.6 -0.6,-1.1 -0.9,-1.6 -0.6,-1 -1.1,-2.2 -2,-2.7 -1.2,-0.6 -2.8,-0.4 -4.1,-0.9 -3.6,-1.3 -7,0.1 -10.5,0.6 -2.3,0.3 -4.5,1.1 -6.7,1.7 -2.4,0.7 -4.7,1.5 -7.1,2.4 -0.7,0.3 -1.5,0.6 -2.2,0.9 -0.7,0.3 -1.5,0.7 -2.2,0.9 -1.2,0.5 -2.1,0.3 -2.5,-1.2 -0.2,-0.7 -0.7,-1.4 -1.2,-2 -2.3,-2.8 -5.5,-3.6 -8.8,-2.7 -2.8,0.7 -5.4,2.1 -8,3.3 -0.8,0.4 -1.5,1.2 -2.3,1.8 -0.9,0.8 -1.8,1.7 -2.8,2.3 -1.6,0.9 -3.2,1.6 -4.8,2.4 -0.2,0.1 -0.4,0.4 -0.6,0.7 0.3,0 0.5,0.1 0.8,0.1 1.5,-0.2 2.9,-0.4 4.1,0 1.2,0.4 2.3,1.2 3,2.7 0.6,1.3 1.3,2.6 1.7,3.9 0.7,2.2 1.3,4.2 1.8,6.4 0.5,2.2 1.1,4.4 1.5,6.5 0.4,1.7 0.6,3.5 0.9,5.2 0.1,0.4 0.4,0.8 0.6,1.2 0,0.1 0,0.2 0,0.3 -0.1,0.3 -0.3,0.7 -0.3,0.9 0.2,1.2 0.5,2.3 0.6,3.5 0.5,4 3.4,5.7 7.2,4.3 2.4,-0.9 4.8,-1.5 7.2,-2.3 3.1,-1 6.1,-1.9 9.3,-2.9 1.1,-0.3 2.1,-0.9 3.3,-1.4 -0.7,0 -1.2,-0.1 -1.7,0 z M 645,235.9 c 2.8,-3.2 5.7,-6.4 8.7,-9.6 1.7,-1.9 3.6,-3.5 5.3,-5.4 1.9,-2.2 3.7,-4.5 5.5,-6.7 0.1,-0.2 0.9,-0.1 0.9,0 0.7,2 1.3,3.9 1.9,5.9 0.7,2.7 1.2,5.5 1.8,8.3 0.5,2.3 1.3,4.4 -1.3,6.5 -2.5,1.9 -4.3,4.6 -6.4,6.8 -1.1,1.2 -2.3,2.3 -3.6,3.4 -1.3,1.1 -2.8,2.1 -4.2,3.1 -0.7,0.5 -1.4,1.1 -2.2,1.6 -0.2,0.1 -0.6,0.2 -0.7,0.1 -1.3,-0.9 -2.6,-1.8 -3.8,-2.7 -0.8,-0.6 -1.7,-1 -2.3,-1.7 -0.7,-0.8 -1.2,-1.8 -1.8,-2.7 0,-2.7 0.4,-4.9 2.2,-6.9 z m -12.3,-80.5 c 1.8,-0.4 2.6,0.6 2.1,2.4 -0.3,1 -0.4,2 -0.7,3 -0.2,1.2 -0.4,2.3 -0.8,3.5 -0.9,2.8 -1.9,5.5 -3,8.2 -1,2.4 -2,4.8 -3.2,7.1 -1.1,2 -2.5,4 -3.9,5.9 -0.1,0.2 -0.9,0.3 -1.1,0.2 -2.5,-1.5 -3.6,-3.8 -3.9,-6.5 -0.2,-1.9 -1.1,-3.6 -1,-5.6 0.1,-3.5 1.5,-6.9 3.6,-10.1 1.4,-2.1 3.4,-3.9 5.3,-6 2.1,-0.7 4.4,-1.5 6.6,-2.1 z M 585.9,98 c 0.9,2.2 0.6,4.9 0.7,7.4 0,2.6 -0.1,5.1 -0.3,7.6 -0.1,2.1 -0.4,4.3 -0.7,6.4 -0.4,3.1 -1,6.1 -1.5,9.1 -0.3,2.3 -1.7,2.8 -4.2,1.7 -2.8,-1.3 -3.1,-3.9 -2.7,-6.9 0.5,-4.1 0.8,-8.2 1.2,-12.4 0.4,-4.4 0.6,-8.8 0.8,-13.2 0,-1.3 -0.1,-2.5 -0.2,-3.8 0,-0.5 0.2,-1 0.2,-1.6 0.5,0.2 1.1,0.4 1.6,0.6 0.1,0 0.2,0.1 0.6,0.4 1.3,1.4 3.6,2.7 4.5,4.7 z"
             id="path707"
             style="fill:#ffffff"
             inkscape:connector-curvature="0" /><path
             d="m 485.7,85.3 c 1.3,-0.7 2.6,-1.3 3.9,-2 1.3,-0.7 2.6,-1.4 3.9,-2.2 2.9,-1.7 5.8,-3.5 8.7,-5.2 3.3,-1.9 6.7,-3.7 10.2,-5.5 2.6,-1.4 5.2,-2.8 7.8,-4.2 1.9,-1 3.8,-2.2 5.8,-3.2 2.2,-1.2 4.5,-2.2 6.9,-3.3 3.2,-1.5 6.4,-2.6 9.5,-4.1 0.7,-0.3 1.1,-1.6 1.5,-2.4 0,-0.1 -0.9,-0.7 -1.4,-1 -1.5,-0.8 -3,-1.6 -4.6,-2.3 C 536,49 534,48 532.1,47.1 c -2.2,-1 -4.4,-1.9 -6.6,-2.8 -1,-0.4 -2,-1 -3,-1.4 -1.7,-0.6 -3.5,-1.2 -5.2,-1.7 -0.9,-0.3 -1.7,-0.6 -2.6,-0.9 -0.9,-0.3 -1.7,-0.5 -2.6,-0.9 -3,-1.1 -5.8,-2.6 -8.8,-3.9 -1.5,-0.7 -2.9,-1.5 -4.4,-1.7 -2.5,-0.4 -5.1,-0.8 -7.6,-1.1 -0.6,-0.1 -1.3,-0.1 -1.9,-0.2 -0.6,-0.1 -1.3,-0.1 -1.9,-0.1 -1.3,-0.1 -2.5,-0.1 -3.8,-0.1 -1.9,0 -3.8,1.2 -5.5,2.2 -1.6,1 -2.8,2.4 -4.3,3.6 -3.3,2.7 -6.5,5.4 -9.6,8.1 -0.2,0.2 -0.1,0.8 -0.2,1.2 0,0.4 0.1,0.9 -0.1,1.1 -0.3,0.5 -0.8,0.9 -1.3,1.3 -2.2,2 -4.4,3.9 -6.5,6 -0.3,0.3 -0.3,0.7 -0.5,1.1 0.3,-0.1 0.6,-0.3 0.8,-0.4 0.9,-0.6 1.8,-1.3 2.7,-1.9 1.8,-1.2 3.9,-1.3 5.4,0.1 1.8,1.7 3.6,3.7 4.7,5.9 2.1,4.2 3.7,8.7 5.3,13.1 0.5,1.4 1,2.7 1.5,4.1 0.5,1.4 1,2.7 1.3,4.2 0.5,2 1.3,3.5 3.4,4.6 1.5,-0.3 3.3,-0.5 4.9,-1.3 z m 9.9,-16.1 c -0.7,-2.1 -1.2,-4.3 -1.9,-6.5 -1.3,-4 -2.8,-8 -4.3,-12.1 -0.1,-0.2 -0.1,-0.5 0,-0.6 0.1,-0.1 0.4,-0.1 0.6,-0.1 2.8,0.8 5.7,1.5 8.5,2.5 2.8,0.9 5.6,1.9 8.4,2.9 2.1,0.7 4.2,1.7 6.2,2.7 2,1 4.1,2 6.1,2.9 1.2,0.6 1.2,1.8 0,2.5 -3.3,1.9 -6.5,3.8 -9.6,5.8 -2.1,1.3 -4.2,2.9 -6.3,4 -1.5,0.8 -3.2,0.9 -4.3,1.3 -2.3,-1.2 -2.8,-3.4 -3.4,-5.3 z"
             id="path709"
             style="fill:#ffffff"
             inkscape:connector-curvature="0" /><path
             d="m 454.1,43.8 c -1.6,-0.5 -3.1,-1 -4.6,-1.5 -0.8,-0.2 -1.5,-0.5 -2.3,-0.7 -0.8,-0.2 -1.5,-0.4 -2.3,-0.6 -1.4,-0.4 -3,-0.5 -4.4,-0.6 -0.4,0 -0.8,0.3 -1.3,0.5 0.2,0.3 0.3,0.7 0.5,1 2.1,3 4.1,5.9 6,8.8 1.9,3 3.8,6.1 5.6,9.1 1,1.6 2,3.2 3,4.7 1,1.6 2,3.1 3,4.6 1.2,1.9 2.4,1.6 4,0 1.3,-1.3 2.8,-2.3 4.3,-3.4 0.2,-0.1 0.8,0 0.8,0.1 0,0.4 0.1,1 -0.1,1.3 -1.1,1.3 -2.2,2.7 -3.4,3.8 -1.6,1.3 -3.2,2.7 -4.8,4 -1.6,1.3 -3.2,2.6 -4.7,4 -2,1.8 -3.9,3.7 -5.9,5.2 -1.4,1.1 -2.4,1.6 -3.3,1.5 -0.5,0 -0.9,-0.3 -1.3,-0.6 -0.5,-0.3 -1,-0.8 -1.5,-1.5 -2,-2.4 -3.8,-5.4 -5.6,-8.2 -1.2,-1.7 -2.3,-3.6 -3.5,-5.3 -1.2,-1.7 -2.4,-3.5 -3.6,-5.2 -2.2,-3.2 -4.4,-6.4 -6.7,-9.6 -0.8,-1.1 -1.2,-2.2 0.1,-3.5 1.2,-1.2 2,-2.6 3.8,-2.6 0.1,0 0.3,-0.2 0.3,-0.3 0.6,-3.3 3.4,-4.7 5.3,-6.9 1.3,-1.5 2.7,-3 4.2,-4.3 2.6,-2.4 5.2,-4.7 8,-7 1,-0.9 2.1,-1.6 3.1,-2.6 2.1,-2.2 4.6,-2.9 7.6,-2.9 3.2,0 6.3,0.7 9.3,1.6 3,1 5.9,2.2 8.8,3.3 0.2,0.1 0.4,0.9 0.2,1 -1.6,1.2 -3.1,2.3 -4.7,3.4 -1.3,1 -2.6,2 -3.9,2.9 -1.4,1 -2.8,1.8 -4.2,3 -1.3,1.1 -2.6,2.3 -3.9,3.4 -0.8,-0.1 -1.4,-0.1 -1.9,0.1 z"
             id="path711"
             style="fill:#ffffff"
             inkscape:connector-curvature="0" /><path
             d="m 511.2,84.1 c -0.1,0.6 -0.1,0.9 -0.2,1 -0.3,0.3 -0.7,0.6 -1.1,0.8 -2.4,1 -2,2.9 -1.1,4.5 2,3.6 4,7.1 5.5,10.9 0.4,1 -0.5,3.4 -1.3,4.5 -1.2,1.5 -2.9,2.7 -4.4,3.5 -2.8,1.6 -5.6,2.8 -8.2,4.3 -1.7,0.9 -3.3,2 -5,3.1 -1.4,0.9 -2.7,1.8 -4.1,2.6 -0.1,0.1 -0.2,0 -0.3,0 0.1,-0.1 0.2,-0.2 0.3,-0.2 0.7,-0.5 1.4,-0.9 2,-1.6 3.5,-3.6 3.7,-6 1.6,-9.5 -0.8,-1.4 -1.6,-2.7 -2.3,-4.1 -0.8,-1.4 -1.6,-2.7 -2.4,-4.1 -0.8,-1.3 -0.3,-3.8 1.7,-5.1 0.9,-0.6 1.8,-1.4 2.7,-1.9 2.3,-1.4 4.6,-2.5 7,-3.8 2.4,-1.2 4.8,-2.4 7.2,-3.6 0.6,-0.3 1.3,-0.7 2.4,-1.3 z"
             id="path713"
             style="fill:#ffffff"
             inkscape:connector-curvature="0" /><path
             d="m 689.5,185 c -0.6,0 -1,0.2 -1.3,0.1 -2.4,-1.1 -2.9,1.1 -3.8,2.3 -1,1.5 -1.5,3.4 -2.2,5.1 -1.5,3.3 -2.9,6.6 -4.6,9.7 -0.7,1.3 -2.6,1.2 -3.9,0.5 -1.8,-1 -3.7,-1.6 -5.6,-2.3 -1.7,-0.6 -3.5,-0.9 -5.1,-1.6 -1.3,-0.5 -2.6,-1.1 -3.9,-1.6 -1.3,-0.5 -2.7,-1.1 -4,-1.7 -1.7,-0.7 -3.2,-1.7 -4.8,-2.6 -0.1,0 -0.1,-0.1 -0.2,-0.2 0.1,0 0.3,-0.1 0.4,-0.1 0.8,0.2 1.5,0.5 2.3,0.8 2.6,0.8 4.3,-0.1 5.3,-2.6 0.5,-1.2 1.5,-2.2 2,-3.3 0.9,-1.9 1.5,-4 2.4,-6 0.9,-2.1 1.3,-4.8 3.7,-5.9 0.8,-0.4 2.2,0.1 3.2,0.4 2.4,0.7 4.7,1.7 7.1,2.6 3.7,1.5 7.4,3 11.1,4.7 0.6,0.3 1.2,0.5 1.7,0.9 0.1,0 0.1,0.4 0.2,0.8 z"
             id="path715"
             style="fill:#ffffff"
             inkscape:connector-curvature="0" /></g></g></g></g></svg>