<?xml version="1.0" encoding="UTF-8" standalone="no"?>
<!-- Generator: Adobe Illustrator 21.0.0, SVG Export Plug-In . SVG Version: 6.00 Build 0)  -->

<svg
   xmlns:dc="http://purl.org/dc/elements/1.1/"
   xmlns:cc="http://creativecommons.org/ns#"
   xmlns:rdf="http://www.w3.org/1999/02/22-rdf-syntax-ns#"
   xmlns:svg="http://www.w3.org/2000/svg"
   xmlns="http://www.w3.org/2000/svg"
   xmlns:sodipodi="http://sodipodi.sourceforge.net/DTD/sodipodi-0.dtd"
   xmlns:inkscape="http://www.inkscape.org/namespaces/inkscape"
   version="1.1"
   id="Layer_1"
   x="0px"
   y="0px"
   viewBox="0 0 584.2 594.64448"
   xml:space="preserve"
   sodipodi:docname="gallery2.svg"
   width="584.20001"
   height="594.64447"
   inkscape:version="0.92.2 (5c3e80d, 2017-08-06)"><metadata
     id="metadata966"><rdf:RDF><cc:Work
         rdf:about=""><dc:format>image/svg+xml</dc:format><dc:type
           rdf:resource="http://purl.org/dc/dcmitype/StillImage" /></cc:Work></rdf:RDF></metadata><sodipodi:namedview
     pagecolor="#ffffff"
     bordercolor="#666666"
     borderopacity="1"
     objecttolerance="10"
     gridtolerance="10"
     guidetolerance="10"
     inkscape:pageopacity="0"
     inkscape:pageshadow="2"
     inkscape:window-width="640"
     inkscape:window-height="480"
     id="namedview964"
     showgrid="false"
     inkscape:zoom="0.3729659"
     inkscape:cx="304.85001"
     inkscape:cy="295.15001"
     inkscape:window-x="150"
     inkscape:window-y="23"
     inkscape:window-maximized="0"
     inkscape:current-layer="Layer_1" /><defs
     id="defs843"><style
       type="text/css"
       id="style841"><![CDATA[
		path {
			fill:white;
		}
		]]></style></defs><g
     id="g961"
     style="fill:#ffffff"
     transform="translate(-116.1,1.8444444)"><g
       id="g959"
       style="fill:#ffffff"><g
         id="g957"
         style="fill:#ffffff"><g
           id="g859"
           style="fill:#ffffff"><g
             id="g857"
             style="fill:#ffffff"><path
               d="m 616.1,297.6 c -0.1,0.4 -0.1,0.8 -0.1,1.2 0,0.2 0,0.4 0,0.6 0,0 -0.1,0 -0.2,0 -0.1,0 -0.1,-0.1 -0.2,-0.1 -0.1,0 -0.2,0.1 -0.3,0.2 0.1,-0.1 0.3,-0.2 0.3,-0.4 0.1,-0.3 0.1,-0.6 0.1,-0.9 0,0 -0.1,-0.1 -0.2,0 -0.1,0 -0.1,0.1 -0.1,0.2 0,0.1 0,0.1 0.1,0.2 0,0 -0.1,0 -0.1,-0.1 0,-0.1 0,-0.2 0,-0.3 l -0.1,-0.6 z"
               id="path845"
               style="fill:#ffffff"
               inkscape:connector-curvature="0" /><path
               d="m 632.1,461.2 c -0.2,0.3 -0.4,0.7 -0.5,1 -0.6,1.1 -1.2,2.2 -1.9,3.3 -0.9,1.2 -2.1,1.7 -3.4,1.8 -1.9,0.2 -3.8,0.3 -4.7,-1.6 -0.1,-0.1 -0.4,-0.1 -0.6,-0.1 0,0.1 0,0.3 0,0.4 0,0.2 0.2,0.4 0.2,0.7 0.1,1 0.2,1.9 0.3,2.9 0,0.6 0.1,1.3 -0.1,1.9 -0.4,1 -2.2,2 -3.3,1.9 -1.6,-0.1 -3.2,-0.2 -4.8,-0.4 -1.2,-0.2 -2.4,-0.4 -3.6,-0.6 -1.5,-0.2 -3,-0.5 -4.4,-0.7 -1.6,-0.3 -3.2,-0.6 -4.8,-0.8 -2.4,-0.5 -4.3,0.4 -5.4,2.4 -0.6,1.1 -1.1,2.3 -1.3,3.5 -0.4,2.5 -0.5,5 -0.8,7.5 -0.2,1.4 -0.4,2.9 -0.6,4.2 0,0.1 -0.3,0.3 -0.4,0.2 -1.8,-0.7 -3.6,-1.4 -5.3,-2.3 -1.5,-0.8 -2.9,-1.6 -4.2,-2.6 -1.3,-1.1 -2.5,-2.4 -3.7,-3.6 -1.2,-1.2 -2.3,-2.4 -2.9,-4 -0.6,-1.7 -1.3,-3.4 -1.6,-5.1 -0.3,-1.7 -0.5,-3.4 0.4,-5 0.8,-1.4 1.5,-2.9 2.6,-4 1.1,-1.1 2.3,-2.4 4.1,-2.6 1.2,-0.1 2.3,-0.3 3.5,-0.2 1.2,0.1 2.5,0.5 3.6,1 1.4,0.6 3,1.3 4.1,2.3 1.2,1 2.5,2.2 2.9,3.9 0.1,0.6 0.2,1.1 0.3,1.7 0.1,0.3 0.2,0.5 0.3,0.8 0.2,-0.2 0.4,-0.5 0.5,-0.7 0.1,-0.5 0,-1 0,-1.5 0.1,-2.3 0.2,-4.6 0.2,-6.8 0,-0.6 0.2,-1.3 0.3,-1.9 0.1,-0.7 0.3,-1.5 0.1,-2.2 -0.4,-1.9 -1.6,-3.3 -3.1,-4.5 -0.1,0 -0.2,0.1 -0.3,0.1 -0.2,0 -0.5,0.2 -0.7,0.1 -1.4,-0.7 -2.7,-1.6 -4.1,-2.2 -2.1,-0.8 -4.4,-1.3 -6.6,-1.1 -1.2,0.1 -2.3,0.4 -3.2,1.2 -0.5,0.4 -0.9,0.9 -1.4,1.3 -1.2,0.8 -1.7,2 -2.2,3.3 -0.4,1 0.1,2.2 -0.4,3.2 -0.1,0.2 0,0.6 0,0.8 -0.1,0.6 -0.3,1.2 -0.4,1.8 -0.1,0.4 -0.1,0.8 -0.6,0.8 -0.1,0 -0.2,0.1 -0.2,0.1 -0.1,0.4 -0.3,0.8 -0.4,1.2 -0.1,1 -0.3,1.9 -0.4,2.9 -0.2,1 -0.3,1.9 -0.5,2.9 -0.2,1.1 -0.4,2.2 -0.5,3.4 -0.2,1.1 -0.4,2.3 -0.5,3.4 -0.1,0.8 -0.1,1.6 -0.2,2.3 -0.1,0.9 -0.2,1.7 -0.3,2.6 0,0.4 -0.2,0.8 -0.1,1.2 0.1,0.6 0.3,1.2 0.5,1.8 0.3,1.2 0.6,2.5 1,3.7 0.5,1.6 1.3,3.1 2.5,4.4 0.7,0.8 1.4,1.6 2.2,2.3 1.3,1.3 2.6,2.5 4.1,3.6 1.1,0.8 2.4,1.5 3.7,2.1 2.5,1.2 5.1,2.1 7.7,3.1 1.5,0.5 3.1,1 4.6,1.4 1.7,0.5 3.5,1 5.5,0.6 0.6,-0.1 1.3,-0.5 1.8,-1 1.8,-1.3 1.7,-3.3 2.1,-5 0.3,-1.3 0.5,-2.5 0.7,-3.8 0.3,-1.6 0.5,-3.2 0.8,-4.8 0,-0.2 -0.2,-0.3 -0.4,-0.5 -0.1,0.1 -0.1,0.3 -0.2,0.4 -0.2,0.5 -0.3,1 -0.5,1.4 -1.1,1.6 -2.7,1.7 -4.1,1.5 -1.8,-0.2 -3.5,-0.7 -5.3,-1.1 -1.4,-0.3 -2.8,-0.8 -4.1,-1.3 -0.1,0 -0.2,-0.2 -0.2,-0.3 0.3,-1 0.6,-1.9 0.8,-2.9 0.3,-1.5 2,-3.4 3.5,-3.4 1.5,-0.1 3.1,0 4.6,0.3 2.2,0.4 4.4,1 6.6,1.4 2.1,0.4 4.2,0.7 6.3,0.9 1.6,0.2 3.2,0.5 4.9,-0.1 1.4,-0.5 2.9,-1.8 2.9,-3.5 0,-1.6 -0.1,-3.3 -0.1,-4.9 0,-0.8 0,-1.5 0,-2.3 0,-0.6 -0.1,-1.2 -0.2,-1.8 -0.1,-1.2 -0.2,-2.5 -0.2,-3.7 0,-0.1 0.1,-0.3 0.1,-0.4 0.1,0.1 0.3,0.1 0.4,0.2 0.4,0.3 0.8,0.7 1.3,0.9 0.5,0.3 1.2,0.4 1.7,0.7 1.3,0.9 2,2.4 2.8,3.7 0.7,1.1 1.1,2.3 1.3,3.7 0.1,0.8 0.6,0.4 1,-0.1 0,0 0.1,-0.1 0.1,-0.2 0.5,-0.8 1.1,-1.5 1.6,-2.3 0.5,-0.8 1.2,-1.5 1.6,-2.3 0.4,-0.9 0.4,-1.9 0.6,-2.8 0.1,-0.6 0.1,-1.3 0.1,-1.9 -0.1,-1.2 -0.4,-2.3 -0.5,-3.4 -0.1,-1.1 0.1,-2.3 0,-3.4 -0.2,-1.9 -0.4,-3.8 -0.7,-5.7 -0.1,-0.5 -0.2,-0.9 -0.3,-1.4 -0.1,-0.7 -0.1,-1.5 -0.2,-2.2 -0.2,-0.8 -0.5,-1.5 -0.7,-2.3 -0.3,-1.3 -1.4,-1.8 -2.4,-2.2 -0.5,-0.2 -0.8,-0.2 -0.8,-0.8 0,-1.1 -0.1,-2.1 -0.1,-3.2 0,-0.4 0.1,-1.1 -0.1,-1.2 -0.6,-0.4 -0.4,-0.9 -0.1,-1.3 1.1,-1.9 2.5,-3.4 4.4,-4.4 3.2,-1.6 6.6,-1.9 10,-2.1 0.9,-0.1 1.9,-0.2 2.8,-0.3 0.2,0 0.4,0.1 0.6,0.1 -0.1,0.2 -0.1,0.3 -0.2,0.5 -0.5,0.9 -1,1.7 -1.6,2.6 -0.4,0.7 -0.8,1.3 -1.3,1.9 -0.2,0.3 -0.8,0.3 -1,0.6 -0.3,0.5 -0.5,1.1 -0.7,1.6 -0.3,1 -0.6,2 -0.9,2.9 -0.2,0.5 -0.3,1 -0.5,1.5 -0.2,0.5 -0.3,1 -0.5,1.5 -0.4,1.2 -0.7,2.4 -0.9,3.5 -0.2,1.3 0.2,2.4 1.1,3.2 1.4,1.2 4.3,1.4 6.2,-0.1 0.6,-0.5 1.2,-1 1.7,-1.6 0.5,-0.7 1,-1.4 1.3,-2.2 0.4,-0.7 0.7,-1.5 0.9,-2.3 0.2,-0.5 0.2,-1.1 0.4,-1.6 0.7,-1.8 0.7,-3.6 0.6,-5.3 -0.1,-1.2 -0.3,-2.4 -0.5,-3.6 -0.3,-1.7 -0.5,-3.4 -0.8,-5 -0.2,-0.8 -0.5,-1.5 -0.7,-2.3 -0.2,-0.8 -0.4,-1.6 -0.7,-2.4 -0.6,-1.2 -1.1,-2.5 -1.3,-3.9 -0.1,-0.6 0,-1.5 -0.9,-1.4 -2.6,0.2 -5.1,0.3 -7.7,0.7 -2.1,0.3 -4.2,0.9 -6.2,1.5 -1.4,0.4 -2.8,1.2 -3.9,2.3 -0.6,0.6 -1.1,1.3 -1.6,2 -0.9,1.3 -0.9,2.7 -0.7,4.1 0.3,1.8 0.6,3.7 0.8,5.5 0.1,0.9 0.2,1.7 0.3,2.6 0.2,1.6 0.4,3.3 0.6,4.9 0,0.3 0.1,0.8 0,0.9 -0.5,0.2 -1.1,0.4 -1.6,0.4 -0.7,0.1 -1.3,0 -2,0.1 -0.9,0.1 -1.7,0.3 -2.6,0.4 -1,0.2 -2,0.3 -3,0.5 -1.1,0.2 -2.3,0.4 -3.4,0.5 -1.2,0.1 -2.4,0.1 -3.6,0 -0.8,-0.1 -1.5,-0.3 -2.2,-0.6 -0.3,-0.1 -0.3,-0.7 -0.6,-1 -0.2,-0.2 -0.5,-0.3 -0.8,-0.4 -0.1,0.2 -0.2,0.5 -0.2,0.7 0.1,1.5 0.2,3 0.2,4.6 -0.1,2 -0.3,4 0.8,5.8 0.6,1 1,2.3 2.4,2.4 1.3,0.1 2.6,0.2 3.9,0.1 0.9,-0.1 1.8,-0.1 2.8,-0.3 0.9,-0.1 1.8,-0.3 2.7,-0.4 2.2,-0.3 4.5,-0.6 6.7,-0.9 1.5,-0.2 2.9,-0.2 4,0.3 0.4,0.1 0.6,1.1 0.2,1.8 z M 646.3,437 c 0.4,-0.8 0.7,-1.6 1.1,-2.4 0.1,-0.2 0.3,-0.5 0.4,-0.5 0.2,0 0.4,0.2 0.5,0.3 1.3,1.9 0.5,3.9 -0.4,6 -0.6,1.3 -1.5,1.9 -2.6,2 -0.5,0 -1.1,-0.2 -1.6,-0.3 l 0.6,-1.7 0.2,0.1 c 0.5,-1.2 1.2,-2.3 1.8,-3.5 z"
               id="path847"
               style="fill:#ffffff"
               inkscape:connector-curvature="0" /><path
               d="m 661.9,351.4 c -2.1,0.6 -4,1.6 -5.1,3.7 -0.4,0.7 -0.7,1.4 -0.8,2.2 -0.2,1 -0.2,1.9 -0.4,2.9 -0.3,1.8 -0.2,3.5 0.7,5.1 0.6,1 1.1,2 1.6,3.1 0.4,0.8 0.7,1.7 1,2.6 0.1,0.2 0.1,0.6 0,0.7 -1,0.4 -2,0.7 -3,1 -1.3,0.4 -2.5,1 -3.3,2.3 -0.1,0.2 0.1,0.5 0,0.7 -0.7,0.9 -0.3,1.8 0,2.6 0.7,2 1.7,4.1 2.4,6.2 0.1,0.3 0.2,0.6 0.3,0.9 0.2,0.8 0.3,1.7 0.6,2.5 0.3,0.8 0.3,1.4 -0.5,1.6 -1.9,0.5 -3.7,1.1 -5.6,1.5 -0.8,0.1 -1.7,-0.3 -2.6,-0.4 -0.2,0 -0.5,-0.1 -0.8,0 -0.1,0 -0.3,0.3 -0.2,0.4 0.2,0.8 0.4,1.5 0.6,2.3 0.1,0.4 0.3,0.8 0.5,1.3 0.5,1.9 1,3.7 1.5,5.5 0.2,0.9 0.8,1.5 1.6,1.9 1.1,0.7 2.4,0.5 3.6,0.3 2.1,-0.4 4.2,-1 6.3,-1.6 1.9,-0.5 3.8,-1.1 5.7,-1.7 2.1,-0.6 4.3,-1.3 6.4,-1.9 1.6,-0.5 3.3,-0.9 4.9,-1.5 1.2,-0.4 2.3,-1 3.5,-1.3 2.5,-0.8 4.8,-1.6 7.2,-2.4 1.5,-0.6 3,-0.6 4.2,0.6 0.4,0.4 0.7,0.8 0.9,1.4 0.4,1 0.7,2.1 1.1,3.1 0.1,0.1 0.3,0.2 0.5,0.2 0.1,0 0.3,-0.4 0.2,-0.6 -0.2,-0.8 -0.4,-1.6 -0.6,-2.4 -0.4,-1 -0.8,-2 -1.2,-3 -0.3,-0.8 -0.5,-1.6 -0.8,-2.4 -0.6,-1.6 -1.1,-3.2 -1.7,-4.7 -0.4,-0.9 -0.8,-1.7 -1.3,-2.4 -0.4,-0.6 -0.9,-1.3 -1.5,-1.5 -0.7,-0.3 -1.6,-0.2 -2.3,-0.2 -0.6,0 -1.2,0.1 -1.8,0.2 -0.4,0.1 -0.8,0.2 -1.2,0.4 -2.4,0.9 -4.9,1.9 -7.3,2.7 -1.2,0.4 -2.3,0.9 -3.4,1.3 -0.8,0.3 -1.5,0.6 -2.3,0.9 -1.2,0.4 -2.4,0.7 -3.7,1.1 -1.2,0.4 -2.6,0.8 -3.8,1.1 -1.3,0.4 -2.5,0.7 -3.8,1.1 -0.3,0.1 -0.6,0 -0.8,0 0.1,-0.9 0,-1.9 0.4,-2.6 0.3,-0.7 1.1,-1.3 1.8,-1.7 0.9,-0.5 2,-0.9 3,-1.2 2.7,-0.8 5.5,-1.6 8.3,-2.5 1.3,-0.4 2.7,-0.8 4,-1.3 2.2,-0.9 4.5,-1.5 6.4,-3.1 2.2,-1.8 3.5,-4.1 3.3,-7 -0.1,-1.4 -0.6,-2.7 -1.1,-4 -0.3,-0.8 -0.9,-1.6 -1.3,-2.3 -0.3,-0.6 -0.6,-1.2 -1,-1.8 -0.8,-1.2 -1.6,-2.4 -2.4,-3.6 -0.7,-1.1 -1.3,-2.2 -2,-3.2 -0.1,-0.1 -0.4,-0.1 -0.6,-0.1 0,0.2 -0.2,0.4 -0.1,0.5 0.3,0.6 0.8,1.1 1,1.6 0.3,0.7 0.6,1.5 0.9,2.3 0.5,1.3 0.5,2.6 -0.1,3.8 -0.5,1.2 -1.5,2.1 -2.4,3 -0.1,0.1 -0.5,0 -0.6,-0.2 -0.3,-0.7 -0.6,-1.4 -0.9,-2.1 -0.5,-1.1 -1,-2.2 -1.6,-3.2 -0.9,-1.6 -1.9,-3.1 -2.9,-4.5 -0.5,-0.7 -1,-1.4 -1.6,-1.9 -1.3,-1 -2.8,-1.8 -4.5,-2 -0.6,-0.3 -1,-0.4 -1.5,-0.3 z m 0.6,14.3 c 0.9,-2 2.6,-2.9 4.5,-3.5 1.3,-0.4 2.5,0 3.6,0.7 0.7,0.4 1.3,1 1.8,1.5 0.4,0.4 0.6,0.9 0.8,1.5 0.1,0.1 -0.2,0.6 -0.3,0.7 -0.7,0.4 -1.5,0.9 -2.3,1.2 -1,0.4 -2.1,0.7 -3.1,1 -1.9,0.7 -3.9,1.3 -5.8,2 -0.4,0.1 -0.5,0 -0.4,-0.5 0.1,-0.3 0.1,-0.7 0.1,-0.9 0.4,-1.3 0.6,-2.6 1.1,-3.7 z"
               id="path849"
               style="fill:#ffffff"
               inkscape:connector-curvature="0" /><path
               d="m 626.8,323.4 c 0.4,1.5 1.1,2.8 2.2,4 0.8,0.9 1.7,1.7 2.5,2.6 0.8,0.9 1.5,1.8 2.3,2.7 0.8,0.9 1.5,1.8 2.2,2.8 0.9,1.2 1.8,2.5 2.8,3.6 1.5,1.7 3.3,3.2 5.4,4.2 1.2,0.6 2.6,0.9 3.9,1 1.4,0.1 2.9,-0.1 4.3,-0.4 1.5,-0.3 3,-0.8 4.5,-1.4 1.2,-0.5 2.3,-1.3 3.4,-1.9 0.3,-0.2 0.9,-0.4 1,-0.3 0.4,0.4 0.7,1 1,1.5 0.9,1.6 1.6,3.2 2.6,4.7 0.4,0.6 1,1.1 1.5,1.7 0.9,1.1 2,2.1 3.4,2.6 2.1,0.7 4.2,0.7 6.4,-0.2 1.5,-0.7 3,-1.5 4.5,-2.3 1.9,-1 3.7,-2 5.6,-3.1 0.7,-0.4 1.4,-0.6 2.1,-0.8 0.2,-0.1 0.7,-0.1 0.3,0.5 0,0.1 0,0.3 0.1,0.3 0.5,0.3 1.1,0.5 1.6,0.8 0.8,0.5 1.6,1 2.4,1.6 1,0.9 1.6,2.2 2.1,3.8 0.3,1.1 0.6,2.2 0.5,3.2 -0.1,1.1 -0.4,2.1 -1.1,3.1 -0.5,0.7 -1,1.5 -1.9,1.4 -0.6,-0.1 -1.1,-0.3 -1.6,-0.4 -0.1,0 -0.3,0.1 -0.3,0.2 0,0.1 0.1,0.3 0.2,0.4 0.8,0.4 1.4,1.3 2.4,0.7 0.8,-0.4 1.7,-0.5 2.4,-1 0.8,-0.6 1.2,-1.8 2.3,-1.7 0.1,0 0.1,-0.1 0.2,-0.2 0.6,-0.6 0.8,-1.4 0.9,-2.3 0.2,-1.3 0.2,-2.4 -0.3,-3.5 -0.2,-0.5 -0.4,-1 -0.7,-1.6 0,-0.1 0,-0.1 -0.1,-0.2 -0.5,-0.3 -1,-0.6 -1.5,-1 -0.8,-0.6 -1.6,-1.4 -2.4,-1.9 -0.7,-0.5 -1.4,-0.8 -2.2,-1.2 -0.5,-0.3 -1.1,-0.6 -1.4,-1.1 -1,-1.4 -1.9,-2.8 -2.9,-4.2 -0.7,-0.9 -1.4,-1.7 -2.1,-2.5 -0.9,-1.2 -1.5,-2.6 -2.7,-3.4 -0.8,-0.5 -1.4,-1.4 -2.1,-2.1 -0.1,-0.2 -0.2,-0.4 -0.4,-0.5 -0.6,-0.5 -1.2,-1 -1.8,-1.6 -0.9,-0.9 -1.8,-1.9 -2.7,-2.7 -0.7,-0.6 -1.6,-0.9 -2.5,-1.4 -1.4,-0.8 -2.7,-1.7 -4.1,-2.5 -0.4,-0.2 -1,-0.5 -1.4,-0.4 -1.4,0.4 -2.8,0.8 -4.1,1.4 -1.7,0.8 -3.3,1.9 -4.9,2.9 -1.2,0.8 -2.3,1.7 -3.4,2.5 -1.2,0.8 -2.4,1.7 -3.6,2.4 -1.3,0.7 -2.8,1.4 -4.3,1.9 -1.1,0.4 -2.3,0.7 -3.5,0.8 -1.4,0.1 -2.9,-0.2 -4.4,-0.3 -1.3,-0.1 -2.5,-0.5 -3.3,-1.4 -0.4,-0.4 -0.5,-1.2 -0.6,-1.8 -0.2,-1 -0.7,-2.1 -0.5,-3.1 0.2,-1.1 0.8,-2.2 1.3,-3.3 0.7,-1.3 2,-2.2 3.2,-3 0.8,-0.6 1.6,-1.1 2.4,-1.5 0.8,-0.4 1.7,-0.8 2.6,-1 1.1,-0.2 2.2,-0.5 3.3,-0.5 1.1,0 2.1,0.1 3.2,0.3 0.3,0.1 0.6,0.4 1,0.5 0.3,0.1 0.7,0.1 1,0.2 0.8,0.4 1.6,0.8 2.4,1.3 0.5,0.4 0.9,0.9 1.4,1.3 0.2,0.1 0.4,0.1 0.7,0.2 0,-0.3 0,-0.5 0,-0.7 0,-0.1 -0.1,-0.2 -0.2,-0.3 l -3.4,-3 c -0.8,-0.7 -1.5,-1.3 -2.3,-2 -0.6,-0.5 -1.3,-1.1 -1.9,-1.6 -1,-0.8 -1.7,-1.8 -3.1,-2.1 -0.9,-0.2 -1.8,-0.9 -2.7,-1.2 -1.2,-0.3 -2.4,-0.4 -3.6,-0.5 -0.5,0 -1,0 -1.5,0.1 -1.1,0.3 -2.1,0.6 -3.2,0.9 -0.3,0.1 -0.7,0.2 -1,0.3 -0.6,0.3 -1.2,0.7 -1.8,1 -0.6,0.4 -1.2,0.8 -1.7,1.3 -0.1,0 -0.1,0.1 -0.2,0.1 -0.2,0.1 -0.5,0.2 -0.7,0.4 -0.7,0.7 -1.3,1.4 -1.9,2.2 -0.4,0.5 -0.8,1 -1.1,1.5 -0.3,0.7 -0.4,1.6 -0.7,2.4 0.2,0.6 0.2,1.2 0.3,1.8 z m 36.9,17 c -0.6,-0.2 -1,-0.6 -1.5,-1 0,0 0.1,-0.2 0.1,-0.2 1,-0.6 2,-1.3 3,-1.9 0.9,-0.6 1.8,-1.3 2.8,-1.9 0.9,-0.6 1.9,-1.2 2.9,-1.7 1,-0.5 2.1,-0.8 3.2,-1.1 0.5,-0.2 1.1,-0.2 1.7,-0.2 1.1,0.1 2.2,0.3 3.2,0.7 0.4,0.1 0.7,0.7 1,1.2 0,0.1 -0.1,0.4 -0.2,0.5 -2,1.2 -4,2.4 -6.2,3.6 -1,0.6 -2,1.2 -3.1,1.7 -0.7,0.3 -1.5,0.5 -2.2,0.7 -0.9,0.2 -1.7,0.2 -2.6,0.3 V 341 c -0.7,-0.4 -1.4,-0.4 -2.1,-0.6 z"
               id="path851"
               style="fill:#ffffff"
               inkscape:connector-curvature="0" /><path
               d="m 659.4,417.9 c -0.3,0.1 -0.4,0.2 -0.5,0.2 -1.9,0.3 -3.9,0.7 -5.8,0.9 -2.3,0.3 -4.6,0.7 -6.8,0.9 -1,0.1 -2,-0.1 -2.9,-0.2 -1.8,-0.2 -2.6,-1.4 -3,-2.9 -0.5,-1.9 -0.9,-3.9 -1.4,-5.8 -0.6,-2.2 -1.1,-4.3 -1.7,-6.5 0,-0.1 0.1,-0.3 0.1,-0.5 0.1,0.1 0.4,0.2 0.4,0.3 0.2,0.5 0.4,1.1 0.5,1.6 0.2,1 1.7,2.3 2.7,2.3 1,0 2.1,0.1 3.1,0 0.7,0 1.4,-0.2 2.1,-0.3 3,-0.4 6,-0.9 8.9,-1.5 2.1,-0.4 4.3,-0.9 6.4,-1.5 1.6,-0.4 3.3,-1 4.9,-1.5 2.6,-0.8 5.1,-1.7 7.7,-2.6 1.3,-0.5 2.5,-1 3.8,-1.4 1.8,-0.6 3.6,-1.2 5.4,-1.8 1.3,-0.4 2.5,-0.9 3.8,-1.1 1.8,-0.3 3.5,-0.4 5.2,-0.4 0.8,0 1.6,0.7 2,1.7 0.7,1.8 1.5,3.5 2.2,5.4 0.6,1.6 1,3.2 1.4,4.9 0.5,2.1 1,4.3 1.5,6.5 0.3,1.6 0.6,3.3 0.9,4.9 0,0.3 -0.2,0.7 -0.3,1 -0.1,-0.2 -0.3,-0.3 -0.4,-0.6 -0.3,-1 -0.5,-2 -0.7,-3.1 -0.2,-1.1 -0.2,-2.4 -0.5,-3.5 -0.4,-1.8 -0.8,-3.8 -2.1,-4.8 -0.8,-0.5 -1.9,-0.6 -2.8,-0.6 -1.3,0.1 -2.5,0.4 -3.8,0.7 -1.5,0.4 -3,0.8 -4.5,1.3 -1.9,0.6 -3.9,1.3 -5.8,1.9 -1.7,0.6 -3.4,1.2 -5.1,1.8 -2.3,0.7 -4.5,1.4 -6.8,2.1 -1.3,0.4 -2.6,0.8 -3.9,1.1 -1.4,0.4 -2.8,0.7 -4.2,1 0,0.2 -0.1,0.1 0,0.1 z"
               id="path853"
               style="fill:#ffffff"
               inkscape:connector-curvature="0" /><path
               d="m 652.3,421 c 0.1,0 0.1,0 0.1,0 0.1,0.2 0.3,0.4 0.3,0.7 0,0.9 0.6,1.3 1.1,1.9 0.8,0.8 1.7,0.4 2.6,0.2 1,-0.2 2,-0.7 2.9,-1 0.4,-0.1 0.9,-0.1 1.3,-0.2 0.7,-0.2 1.3,-0.4 2,-0.5 0.2,0 0.4,-0.1 0.5,0 0.3,0.5 0.7,1 0.9,1.5 0.3,0.8 0.5,1.6 0.7,2.4 0,0.2 0.5,0.7 -0.3,0.8 0,0 0,0.4 0,0.7 0,0.2 0,0.3 0,0.5 -0.1,0.5 -0.3,1.1 -0.5,1.6 0.2,-0.5 0.4,-1 0.6,-1.4 0.1,-0.3 0.3,-0.5 0.4,-0.7 0.1,0.2 0.2,0.5 0.2,0.7 0.2,1.1 0.5,2.2 0.6,3.3 0.3,1.4 0.5,2.9 0.7,4.3 0,0.3 -0.3,0.7 -0.5,1.1 -0.1,-0.1 -0.2,-0.1 -0.2,-0.2 -0.1,-0.5 -0.1,-1.1 -0.2,-1.6 -0.2,-0.7 -0.5,-1.2 -1.4,-0.9 -1.4,0.4 -2.8,0.7 -4.2,1.1 -1.1,0.3 -2.1,0.6 -3.2,0.8 -0.5,0.1 -1.1,-0.1 -1.4,-0.5 -0.5,-0.5 -1.1,-0.9 -1.1,-1.9 0,0 0,0 0,0 -1.2,-0.6 -0.5,-1.9 -0.5,-2.9 0,0 0,-0.1 0,-0.1 -0.2,-0.9 -0.3,-1.7 -0.5,-2.6 -0.1,-0.4 0,-0.8 -0.1,-1.2 -0.1,-0.8 -0.3,-1.5 -0.5,-2.3 -0.2,-1.1 -0.4,-2.3 -0.6,-3.4 0.3,-0.1 0.3,-0.1 0.3,-0.2 z"
               id="path855"
               style="fill:#ffffff"
               inkscape:connector-curvature="0" /></g></g><g
           id="g875"
           style="fill:#ffffff"><g
             id="g873"
             style="fill:#ffffff"><path
               d="m 542.6,450.2 c -0.3,0.2 -0.7,0.4 -1,0.6 -0.2,0.1 -0.3,0.3 -0.4,0.4 0,0 -0.1,-0.1 -0.1,-0.1 0,-0.1 0,-0.2 0,-0.2 -0.1,-0.1 -0.2,-0.1 -0.3,-0.1 0.2,0 0.3,0.1 0.5,0 0.3,-0.1 0.5,-0.3 0.7,-0.5 0,0 0,-0.1 -0.1,-0.1 -0.1,0 -0.1,0 -0.2,0 -0.1,0 -0.1,0.1 -0.1,0.2 0,0 0,-0.1 0,-0.1 0.1,-0.1 0.1,-0.1 0.2,-0.2 l 0.4,-0.4 z"
               id="path861"
               style="fill:#ffffff"
               inkscape:connector-curvature="0" /><path
               d="m 424.8,564.7 c -0.3,0.1 -0.7,0.1 -1.1,0.2 -1.2,0.2 -2.5,0.6 -3.7,0.5 -1.5,0 -2.6,-0.7 -3.6,-1.6 -1.4,-1.4 -2.6,-2.7 -1.7,-4.7 0.1,-0.1 -0.2,-0.4 -0.3,-0.5 -0.1,0.1 -0.2,0.1 -0.3,0.2 -0.1,0.2 -0.2,0.4 -0.4,0.6 -0.7,0.7 -1.4,1.4 -2.1,2 -0.5,0.4 -1,0.9 -1.6,1.1 -1,0.4 -2.9,-0.4 -3.5,-1.4 -0.9,-1.4 -1.9,-2.7 -2.7,-4.1 -0.6,-1 -1.1,-2.1 -1.7,-3.2 -0.7,-1.3 -1.5,-2.6 -2.2,-3.9 -0.8,-1.4 -1.6,-2.8 -2.4,-4.3 -0.6,-1.1 -1.3,-1.8 -2.2,-2.3 -0.9,-0.5 -1.9,-0.7 -3.1,-0.5 -1.2,0.2 -2.5,0.6 -3.5,1.2 -2.2,1.3 -4.2,2.7 -6.4,4.1 -1.2,0.7 -2.4,1.4 -3.7,2.1 -0.1,0 -0.4,-0.1 -0.5,-0.2 -0.5,-1.9 -1.1,-3.7 -1.5,-5.6 -0.3,-1.6 -0.6,-3.3 -0.6,-4.9 0,-1.7 0.3,-3.4 0.5,-5.2 0.1,-1.7 0.4,-3.3 1.3,-4.8 0.9,-1.5 1.9,-3.1 3,-4.5 1.1,-1.3 2.3,-2.6 4.2,-2.8 1.6,-0.1 3.2,-0.7 4.7,-0.4 1.6,0.2 3.3,0.3 4.6,1.6 0.8,0.8 1.7,1.6 2.3,2.6 0.7,1.1 1.1,2.2 1.5,3.4 0.4,1.5 0.9,3.1 0.8,4.6 0,1.6 -0.1,3.3 -1.2,4.7 -0.4,0.5 -0.8,0.9 -1.2,1.3 -0.2,0.2 -0.3,0.5 -0.4,0.7 0.3,0 0.6,0 0.8,-0.1 0.4,-0.3 0.7,-0.6 1.1,-0.9 1.8,-1.4 3.7,-2.8 5.5,-4.1 0.5,-0.4 1.1,-0.7 1.7,-1 0.6,-0.4 1.4,-0.7 1.8,-1.2 1.3,-1.5 1.6,-3.3 1.6,-5.2 0,-0.1 -0.2,-0.1 -0.3,-0.2 -0.2,-0.2 -0.5,-0.3 -0.5,-0.5 -0.3,-1.5 -0.4,-3.1 -0.8,-4.6 -0.6,-2.2 -1.7,-4.2 -3.3,-5.9 -0.8,-0.8 -1.7,-1.5 -2.9,-1.7 -0.6,-0.1 -1.3,-0.1 -1.9,-0.3 -1.4,-0.5 -2.6,-0.2 -3.9,0.3 -1,0.3 -1.6,1.5 -2.7,1.7 -0.2,0 -0.4,0.3 -0.7,0.5 -0.5,0.3 -1.1,0.6 -1.6,0.9 -0.3,0.2 -0.7,0.4 -1,0.1 -0.1,-0.1 -0.2,-0.1 -0.3,-0.1 -0.4,0.2 -0.8,0.3 -1.2,0.5 -1.7,1 -3.4,1.9 -5.1,2.9 -1,0.6 -2,1.1 -3,1.7 -1,0.6 -2,1.1 -3,1.7 -0.7,0.4 -1.3,0.9 -2,1.3 -0.7,0.5 -1.4,0.9 -2.2,1.4 -0.3,0.2 -0.8,0.4 -1,0.6 -0.4,0.4 -0.7,1 -1.1,1.5 -0.8,1 -1.6,2 -2.3,3.1 -1,1.4 -1.6,3 -1.9,4.7 -0.2,1 -0.3,2.1 -0.4,3.2 -0.2,1.8 -0.4,3.6 -0.3,5.4 0,1.4 0.4,2.8 0.7,4.2 0.7,2.7 1.5,5.4 2.4,8 0.5,1.5 1.2,3 1.8,4.5 0.7,1.7 1.4,3.3 3,4.7 0.5,0.4 1.2,0.6 1.9,0.8 2.2,0.5 3.6,-0.7 5.2,-1.4 1.2,-0.6 2.3,-1.2 3.4,-1.9 1.4,-0.8 2.9,-1.6 4.3,-2.5 0.1,-0.1 0.1,-0.4 0.2,-0.6 -0.1,0 -0.3,0.1 -0.4,0.1 -0.5,0.2 -0.9,0.4 -1.4,0.5 -1.9,0.1 -3,-1 -3.8,-2.2 -0.9,-1.6 -1.7,-3.2 -2.4,-4.8 -0.6,-1.3 -1.1,-2.7 -1.6,-4.1 0,-0.1 0,-0.3 0.1,-0.3 0.9,-0.4 1.9,-0.7 2.8,-1.1 1.3,-0.7 3.9,-0.6 4.9,0.6 1,1.1 1.9,2.4 2.7,3.7 1.1,2 2,4 3,6 0.5,0.9 1,1.9 1.5,2.8 0.5,0.9 1.1,1.8 1.7,2.7 0.9,1.4 1.6,2.8 3.2,3.7 1.3,0.8 3.2,1.1 4.5,0 1.2,-1 2.5,-2 3.7,-3.1 0.6,-0.5 1.2,-0.9 1.7,-1.4 0.5,-0.4 0.9,-0.9 1.3,-1.3 0.9,-0.9 1.8,-1.7 2.8,-2.5 0.1,-0.1 0.3,-0.1 0.4,-0.2 0,0.1 0.1,0.3 0.1,0.4 0,0.5 0,1.1 0,1.6 0.1,0.6 0.5,1.2 0.5,1.8 0.2,1.6 -0.6,3 -1.1,4.5 -0.5,1.2 -1.1,2.3 -2,3.4 -0.6,0.6 0.1,0.7 0.7,0.8 0.1,0 0.1,0 0.2,0 0.9,-0.1 1.9,-0.1 2.8,-0.2 0.9,-0.1 1.9,0 2.8,-0.3 0.9,-0.3 1.7,-0.8 2.6,-1.2 0.5,-0.3 1.1,-0.7 1.5,-1.1 0.8,-0.8 1.5,-1.7 2.4,-2.5 0.8,-0.8 1.9,-1.4 2.7,-2.2 1.4,-1.4 2.7,-2.8 4,-4.2 0.3,-0.3 0.6,-0.7 0.9,-1.1 0.5,-0.5 1.1,-1 1.6,-1.5 0.5,-0.6 0.9,-1.3 1.4,-1.9 0.8,-1 0.5,-2.2 0.2,-3.2 -0.1,-0.5 -0.3,-0.8 0.1,-1.1 0.8,-0.7 1.6,-1.4 2.4,-2.1 0.3,-0.3 0.9,-0.6 0.9,-0.8 -0.1,-0.7 0.4,-0.8 0.9,-0.9 2.2,-0.4 4.2,-0.2 6.2,0.8 0.8,0.4 1.6,0.9 2.3,1.4 0.7,0.5 1.4,1 2,1.5 1.3,1.1 2.4,2.3 3.6,3.6 0.6,0.7 1.3,1.3 1.9,2 0.1,0.1 0.2,0.4 0.3,0.5 -0.2,0.1 -0.3,0.1 -0.5,0.2 -1,0.2 -2,0.3 -3,0.5 -0.8,0.1 -1.6,0.2 -2.3,0.2 -0.4,0 -0.7,-0.4 -1,-0.4 -0.6,0.1 -1.1,0.3 -1.7,0.4 -1.9,0.7 -3.9,1.4 -5.8,2.1 -1.1,0.4 -2.3,1 -3.3,1.6 -1.1,0.7 -1.8,1.7 -1.8,2.9 -0.1,1.8 1.6,4.2 3.9,4.7 0.8,0.2 1.6,0.3 2.3,0.2 0.9,0 1.7,-0.2 2.6,-0.3 0.8,-0.2 1.6,-0.4 2.4,-0.6 0.5,-0.2 1,-0.5 1.5,-0.7 1.8,-0.6 3.2,-1.7 4.5,-2.9 0.9,-0.9 1.7,-1.8 2.5,-2.7 1.2,-1.2 2.3,-2.5 3.4,-3.7 0.5,-0.6 0.9,-1.3 1.3,-1.9 0.5,-0.7 1.1,-1.3 1.4,-2 0.6,-1.3 1.3,-2.5 2.2,-3.5 0.4,-0.5 1.2,-1 0.5,-1.6 -1.8,-1.9 -3.4,-3.7 -5.3,-5.5 -1.6,-1.5 -3.3,-2.7 -5.1,-4 -1.2,-0.9 -2.7,-1.5 -4.2,-1.5 -0.9,0 -1.7,0 -2.6,0.1 -1.6,0.1 -2.7,0.9 -3.7,2 -1.3,1.3 -2.6,2.7 -3.8,4 -0.6,0.6 -1.2,1.3 -1.8,1.9 -1.2,1.2 -2.3,2.4 -3.5,3.6 -0.2,0.2 -0.6,0.6 -0.7,0.5 -0.5,-0.3 -0.9,-0.6 -1.3,-1 -0.5,-0.5 -0.8,-1.1 -1.3,-1.6 -0.6,-0.6 -1.3,-1.2 -1.9,-1.8 -0.8,-0.7 -1.5,-1.3 -2.2,-2 -0.8,-0.8 -1.7,-1.5 -2.5,-2.3 -0.8,-0.9 -1.6,-1.8 -2.2,-2.7 -0.4,-0.6 -0.7,-1.4 -0.9,-2.1 -0.1,-0.3 0.3,-0.7 0.4,-1.1 0,-0.3 -0.1,-0.5 -0.2,-0.8 -0.2,0.1 -0.5,0.2 -0.7,0.3 -1.1,1 -2.2,2 -3.4,2.9 -1.6,1.2 -3.3,2.3 -4,4.2 -0.4,1.1 -1.2,2.2 -0.4,3.4 0.7,1.1 1.5,2.2 2.3,3.1 1.2,1.3 2.6,2.6 3.9,3.9 1.6,1.6 3.2,3.2 4.9,4.7 1.1,1 2,2.1 2.2,3.3 0.4,0.5 -0.3,1.3 -1,1.4 z m 27.7,-4 c 0.9,-0.2 1.7,-0.5 2.5,-0.7 0.2,-0.1 0.6,-0.1 0.7,0 0.1,0.1 0.1,0.4 0.1,0.6 -0.7,2.1 -2.7,2.9 -4.9,3.5 -1.3,0.4 -2.4,0.1 -3.2,-0.8 -0.4,-0.4 -0.5,-1 -0.7,-1.5 0.5,-0.2 1.1,-0.4 1.6,-0.6 l 0.1,0.2 c 1.2,-0.2 2.5,-0.4 3.8,-0.7 z"
               id="path863"
               style="fill:#ffffff"
               inkscape:connector-curvature="0" /><path
               d="m 529.2,519.6 c -1.8,-1.2 -3.7,-2.1 -6.1,-1.7 -0.8,0.1 -1.6,0.3 -2.3,0.7 -0.9,0.4 -1.6,1.1 -2.5,1.6 -1.6,0.9 -2.9,2.1 -3.6,3.8 -0.4,1.1 -0.9,2.1 -1.4,3.2 -0.4,0.8 -0.9,1.6 -1.5,2.4 -0.1,0.2 -0.5,0.5 -0.5,0.4 -0.9,-0.5 -1.8,-1.1 -2.6,-1.7 -1.1,-0.8 -2.3,-1.3 -3.8,-1 -0.2,0 -0.4,0.4 -0.6,0.4 -1.1,0 -1.6,0.8 -2,1.5 -1.1,1.8 -2.2,3.7 -3.4,5.6 -0.2,0.3 -0.3,0.6 -0.5,0.8 -0.5,0.7 -1.1,1.3 -1.5,2.1 -0.4,0.8 -0.9,1.1 -1.6,0.6 -1.6,-1.1 -3.2,-2.2 -4.6,-3.5 -0.6,-0.6 -0.9,-1.5 -1.3,-2.3 -0.1,-0.2 -0.3,-0.4 -0.5,-0.6 -0.1,-0.1 -0.4,0 -0.5,0.1 -0.5,0.6 -1,1.2 -1.4,1.9 -0.3,0.4 -0.4,0.8 -0.7,1.2 -1.1,1.6 -2.2,3.1 -3.4,4.7 -0.5,0.7 -0.7,1.5 -0.6,2.4 0.2,1.3 1.1,2.2 2,3.1 1.6,1.4 3.4,2.6 5.1,3.8 1.6,1.1 3.2,2.2 4.9,3.4 1.8,1.3 3.7,2.6 5.5,3.9 1.4,1 2.8,2 4.2,2.9 1,0.7 2.2,1.2 3.2,1.8 2.1,1.4 4.2,2.8 6.4,4.1 1.4,0.9 2.4,2 2.2,3.6 -0.1,0.5 -0.2,1 -0.5,1.5 -0.5,0.9 -1.2,1.8 -1.8,2.7 -0.1,0.1 0,0.4 0.2,0.5 0.1,0.1 0.5,-0.1 0.6,-0.2 0.5,-0.6 1,-1.3 1.5,-1.9 0.6,-0.9 1,-1.8 1.6,-2.8 0.4,-0.7 1,-1.4 1.4,-2.1 0.9,-1.4 1.8,-2.9 2.6,-4.4 0.5,-0.8 0.8,-1.7 1.1,-2.6 0.2,-0.7 0.4,-1.5 0.2,-2.1 -0.2,-0.7 -0.8,-1.3 -1.3,-2 -0.4,-0.5 -0.8,-0.8 -1.3,-1.2 -0.3,-0.3 -0.7,-0.5 -1,-0.7 -2.3,-1.3 -4.5,-2.6 -6.7,-3.9 -1.1,-0.6 -2.1,-1.3 -3.2,-1.9 -0.7,-0.4 -1.5,-0.8 -2.1,-1.3 -1.1,-0.7 -2.1,-1.5 -3.1,-2.2 -1.1,-0.8 -2.2,-1.5 -3.3,-2.3 -1.1,-0.7 -2.1,-1.5 -3.2,-2.3 -0.2,-0.2 -0.3,-0.4 -0.5,-0.6 0.7,-0.5 1.4,-1.2 2.2,-1.4 0.7,-0.2 1.7,0 2.4,0.3 1,0.4 2,1 2.9,1.6 2.4,1.6 4.8,3.4 7.2,5 1.1,0.8 2.2,1.6 3.5,2.2 2.1,1.1 3.9,2.5 6.4,3.1 1.4,0.3 2.7,0.4 4,0.1 0.6,-0.1 1.3,-0.3 1.9,-0.6 0.6,-0.3 1.2,-0.8 1.7,-1.3 1,-1 1.7,-2.2 2.4,-3.4 0.5,-0.8 0.7,-1.6 1,-2.5 0.3,-0.6 0.6,-1.2 0.8,-1.9 0.5,-1.4 0.9,-2.7 1.4,-4.1 0.4,-1.1 0.9,-2.4 1.3,-3.6 0.1,-0.2 -0.2,-0.4 -0.3,-0.6 -0.2,0.1 -0.4,0.2 -0.5,0.3 -0.2,0.6 -0.3,1.3 -0.6,1.9 -0.4,0.7 -0.8,1.4 -1.2,2.1 -0.7,1.2 -1.8,2 -3.1,2.3 -1.3,0.3 -2.6,0.1 -3.9,0 -0.1,0 -0.3,-0.4 -0.2,-0.6 0.3,-0.7 0.8,-1.4 1.1,-2.1 0.5,-1.1 1.1,-2.1 1.5,-3.2 0.7,-1.7 1.3,-3.3 1.8,-5 0.3,-0.8 0.5,-1.6 0.5,-2.4 0,-1.7 -0.3,-3.3 -1.2,-4.8 -0.2,-0.1 -0.5,-0.5 -0.8,-0.8 z m -10.8,9.4 c 2.1,-0.6 3.9,0.2 5.5,1.3 1.1,0.8 1.6,1.9 1.7,3.2 0.1,0.8 0.1,1.6 -0.1,2.4 -0.1,0.5 -0.3,1.1 -0.6,1.6 -0.1,0.1 -0.5,0.2 -0.7,0.2 -0.8,-0.3 -1.6,-0.6 -2.3,-1 -1,-0.6 -1.8,-1.2 -2.8,-1.8 -1.7,-1.1 -3.5,-2.2 -5.2,-3.4 -0.4,-0.3 -0.3,-0.4 0.1,-0.6 0.3,-0.1 0.6,-0.4 0.8,-0.5 1.2,-0.5 2.4,-1.1 3.6,-1.4 z"
               id="path865"
               style="fill:#ffffff"
               inkscape:connector-curvature="0" /><path
               d="m 529.2,474.7 c -0.9,1.3 -1.6,2.6 -1.8,4.2 -0.3,2.3 -0.8,4.7 -1.2,7.1 -0.2,1.2 -0.5,2.3 -0.8,3.5 -0.3,1.5 -0.8,2.9 -1.1,4.4 -0.4,2.2 -0.5,4.5 0,6.7 0.3,1.3 0.9,2.6 1.7,3.7 0.8,1.2 1.9,2.2 3,3.1 1.2,1 2.6,1.9 4,2.7 1.1,0.6 2.4,1 3.7,1.6 0.3,0.2 0.9,0.4 0.9,0.6 0,0.6 -0.3,1.1 -0.5,1.7 -0.7,1.6 -1.5,3.2 -2.2,4.9 -0.3,0.7 -0.2,1.5 -0.4,2.2 -0.3,1.5 -0.4,2.9 0.1,4.3 0.8,2.1 2.1,3.7 4.1,4.8 1.5,0.8 3.1,1.4 4.6,2.1 2,0.8 3.9,1.7 6,2.5 0.7,0.3 1.3,0.7 1.9,1.2 0.2,0.1 0.6,0.5 -0.2,0.6 -0.1,0 -0.2,0.2 -0.2,0.2 0.1,0.6 0.3,1.2 0.4,1.8 0.1,0.9 0.2,1.9 0.2,2.8 -0.1,1.4 -0.8,2.7 -1.7,3.9 -1.3,1.8 -2.9,3.3 -5.3,3.5 -0.8,0.1 -1.8,0.2 -2.2,-0.5 -0.3,-0.5 -0.4,-1 -0.7,-1.5 0,-0.1 -0.3,-0.1 -0.3,-0.1 -0.1,0.1 -0.2,0.3 -0.2,0.4 0.2,0.8 -0.2,1.8 0.9,2.3 0.8,0.4 1.4,1 2.2,1.2 0.9,0.2 2.1,-0.2 2.7,0.7 0,0 0.2,0 0.3,0 0.8,0 1.6,-0.3 2.4,-0.7 1.1,-0.6 2,-1.3 2.5,-2.4 0.2,-0.5 0.5,-1 0.8,-1.5 0,-0.1 0.1,-0.1 0.1,-0.2 -0.1,-0.6 -0.2,-1.2 -0.2,-1.7 0,-1 0.1,-2.1 0,-3.1 0,-0.8 -0.3,-1.6 -0.4,-2.4 -0.1,-0.6 -0.2,-1.2 -0.1,-1.8 0.4,-1.7 1,-3.3 1.5,-4.9 0.3,-1.1 0.4,-2.2 0.7,-3.2 0.4,-1.4 1.1,-2.7 1,-4.2 -0.1,-0.9 0.2,-1.9 0.4,-2.9 0,-0.2 0.1,-0.4 0.2,-0.6 0.1,-0.8 0,-1.6 0.1,-2.4 0.1,-1.3 0.4,-2.6 0.4,-3.9 0,-1 -0.3,-1.9 -0.4,-2.8 -0.2,-1.6 -0.4,-3.2 -0.6,-4.8 -0.1,-0.5 -0.2,-1.1 -0.6,-1.3 -1.2,-0.8 -2.4,-1.7 -3.7,-2.3 -1.7,-0.8 -3.5,-1.4 -5.2,-1.9 -1.3,-0.4 -2.8,-0.7 -4.1,-1.2 -1.4,-0.4 -2.8,-0.8 -4.2,-1.4 -1.4,-0.6 -2.8,-1.3 -4.1,-2.2 -1,-0.6 -2,-1.4 -2.8,-2.2 -0.9,-1.1 -1.6,-2.4 -2.5,-3.6 -0.7,-1.1 -1.1,-2.2 -0.9,-3.5 0.1,-0.6 0.6,-1.1 1,-1.6 0.7,-0.8 1.3,-1.8 2.1,-2.3 1,-0.6 2.3,-0.7 3.4,-1 1.5,-0.3 2.9,0.2 4.4,0.6 1.8,0.5 3.6,1.2 5.1,2.4 0.9,0.7 1.7,1.4 2.5,2.2 0.7,0.8 1.2,1.7 1.7,2.7 0.2,0.3 0.1,0.7 0.2,1.1 0.1,0.3 0.4,0.6 0.5,0.9 0.2,0.9 0.4,1.8 0.4,2.7 0,0.6 -0.1,1.3 -0.1,1.9 0,0.2 0.2,0.4 0.3,0.6 0.2,-0.2 0.4,-0.3 0.6,-0.5 0.1,-0.1 0.1,-0.2 0.1,-0.4 0.1,-1.5 0.2,-3 0.3,-4.4 0.1,-1 0.1,-2 0.2,-3 0,-0.8 0,-1.7 0,-2.5 0,-1.3 0.3,-2.5 -0.3,-3.8 -0.4,-0.9 -0.4,-2 -0.8,-2.9 -0.5,-1.1 -1.2,-2.1 -1.8,-3.1 -0.3,-0.4 -0.6,-0.8 -1,-1.1 -0.9,-0.7 -1.8,-1.3 -2.6,-1.9 -0.3,-0.2 -0.6,-0.5 -0.9,-0.6 -0.6,-0.3 -1.3,-0.5 -1.9,-0.8 -0.7,-0.2 -1.4,-0.4 -2.1,-0.6 -0.1,0 -0.1,-0.1 -0.2,-0.1 -0.2,-0.1 -0.5,-0.3 -0.8,-0.3 -1,-0.1 -2,-0.2 -2.9,-0.2 -0.6,0 -1.3,-0.1 -1.9,0.1 -0.8,0.2 -1.5,0.7 -2.3,1 -0.5,0.5 -1,0.9 -1.4,1.4 z m 9.8,39.5 c -0.2,-0.6 -0.1,-1.2 -0.2,-1.8 0,0 0.1,-0.1 0.2,0 1.1,0.4 2.2,0.7 3.3,1.1 1.1,0.3 2.2,0.6 3.2,0.9 1.1,0.4 2.2,0.8 3.2,1.3 1,0.5 2,1.2 2.9,1.8 0.5,0.3 0.9,0.7 1.2,1.2 0.6,0.9 1.1,1.9 1.5,2.9 0.1,0.4 -0.1,1 -0.3,1.5 0,0.1 -0.4,0.2 -0.5,0.1 -2.3,-0.8 -4.5,-1.7 -6.7,-2.6 -1.1,-0.4 -2.2,-0.8 -3.2,-1.3 -0.7,-0.3 -1.3,-0.8 -1.9,-1.3 -0.7,-0.6 -1.2,-1.2 -1.8,-1.8 l 0.1,-0.1 c -0.4,-0.7 -0.8,-1.3 -1,-1.9 z"
               id="path867"
               style="fill:#ffffff"
               inkscape:connector-curvature="0" /><path
               d="m 475.5,559.1 c -0.3,-0.1 -0.4,-0.2 -0.5,-0.2 -1.5,-1.3 -2.9,-2.7 -4.4,-4 -1.7,-1.6 -3.4,-3.2 -5,-4.9 -0.7,-0.7 -1.1,-1.6 -1.6,-2.4 -1,-1.5 -0.5,-2.9 0.4,-4.2 1.2,-1.6 2.5,-3.1 3.7,-4.6 0.7,-0.9 1.4,-1.7 2,-2.6 0.7,-0.9 1.3,-1.8 2,-2.7 0.1,-0.1 0.3,-0.2 0.4,-0.2 0,0.2 0.1,0.4 0,0.5 -0.3,0.5 -0.6,1 -0.9,1.5 -0.7,0.8 -0.8,2.8 -0.2,3.6 0.6,0.8 1.2,1.6 1.9,2.4 0.5,0.5 1.1,0.9 1.6,1.4 2.2,2 4.4,4.1 6.7,6.1 1.7,1.4 3.4,2.8 5.2,4.2 1.4,1 2.8,1.9 4.2,2.8 2.2,1.5 4.5,2.9 6.8,4.4 1.2,0.7 2.4,1.4 3.5,2.1 1.6,1 3.2,2 4.8,3.1 1.1,0.7 2.3,1.4 3.2,2.2 1.3,1.2 2.5,2.5 3.5,3.9 0.5,0.7 0.4,1.7 -0.1,2.6 -0.9,1.7 -1.8,3.5 -2.8,5.2 -0.9,1.5 -1.9,2.8 -2.9,4.2 -1.3,1.7 -2.7,3.4 -4.2,5.1 -1.1,1.3 -2.1,2.6 -3.3,3.8 -0.2,0.2 -0.6,0.3 -0.9,0.4 0.1,-0.2 0.1,-0.5 0.2,-0.7 0.6,-0.9 1.2,-1.7 1.9,-2.5 0.8,-0.9 1.7,-1.7 2.4,-2.6 1.2,-1.5 2.5,-2.9 2.4,-4.6 -0.1,-0.9 -0.7,-1.9 -1.3,-2.6 -0.8,-1 -1.9,-1.8 -3,-2.6 -1.2,-1 -2.5,-1.9 -3.9,-2.8 -1.7,-1.1 -3.4,-2.2 -5.1,-3.3 -1.5,-0.9 -3.1,-1.9 -4.6,-2.9 -2,-1.4 -3.9,-2.7 -5.9,-4.1 -1.1,-0.8 -2.2,-1.5 -3.3,-2.3 -1.1,-0.8 -2.2,-1.7 -3.3,-2.6 0.4,0 0.4,-0.1 0.4,-0.1 z"
               id="path869"
               style="fill:#ffffff"
               inkscape:connector-curvature="0" /><path
               d="m 468.7,555.4 c 0,0 0.1,0.1 0.1,0.1 -0.1,0.2 -0.1,0.5 -0.3,0.6 -0.7,0.5 -0.7,1.3 -0.8,2 -0.1,1.1 0.8,1.6 1.5,2.2 0.8,0.7 1.7,1.2 2.6,1.7 0.4,0.3 0.7,0.6 1,0.9 0.5,0.4 1.1,0.8 1.7,1.2 0.1,0.1 0.3,0.3 0.3,0.4 -0.2,0.6 -0.3,1.1 -0.7,1.6 -0.4,0.7 -0.9,1.4 -1.5,2 -0.1,0.2 -0.3,0.8 -0.8,0.3 0,0 -0.3,0.2 -0.5,0.4 -0.1,0.1 -0.2,0.2 -0.4,0.3 -0.5,0.2 -1.1,0.4 -1.6,0.6 0.5,-0.1 1,-0.3 1.5,-0.4 0.3,-0.1 0.6,-0.1 0.8,-0.1 -0.1,0.2 -0.2,0.4 -0.4,0.6 -0.7,0.9 -1.5,1.7 -2.2,2.6 -1,1.1 -1.9,2.3 -2.9,3.3 -0.2,0.2 -0.7,0.2 -1.1,0.4 0,-0.1 0,-0.2 0,-0.3 0.4,-0.4 0.8,-0.8 1.1,-1.2 0.5,-0.6 0.6,-1.1 -0.1,-1.6 -1.2,-0.8 -2.3,-1.7 -3.5,-2.6 -0.9,-0.7 -1.8,-1.3 -2.6,-2 -0.4,-0.3 -0.5,-0.9 -0.5,-1.4 0,-0.7 0,-1.5 0.8,-2 0,0 0,0 0,0 -0.2,-1.3 1.2,-1.5 2,-2.1 0,0 0.1,0 0.1,0 0.6,-0.7 1.1,-1.3 1.7,-2 0.3,-0.3 0.6,-0.5 0.9,-0.8 0.5,-0.6 1,-1.2 1.5,-1.8 0.8,-0.9 1.5,-1.7 2.3,-2.6 -0.1,-0.2 0,-0.3 0,-0.3 z"
               id="path871"
               style="fill:#ffffff"
               inkscape:connector-curvature="0" /></g></g><g
           id="g891"
           style="fill:#ffffff"><g
             id="g889"
             style="fill:#ffffff"><path
               d="m 377.5,487.9 c -0.4,-0.1 -0.7,-0.3 -1.1,-0.4 -0.2,-0.1 -0.4,-0.1 -0.6,-0.1 0,0 0,-0.1 0,-0.2 0,-0.1 0.2,-0.1 0.2,-0.2 0,-0.1 -0.1,-0.2 -0.1,-0.3 0.1,0.1 0.2,0.3 0.3,0.4 0.3,0.1 0.6,0.2 0.8,0.3 0,0 0.1,-0.1 0.1,-0.1 0,-0.1 -0.1,-0.1 -0.1,-0.1 -0.1,0 -0.1,0 -0.2,0 0,0 0,-0.1 0.1,-0.1 0.1,0 0.2,0 0.3,0 h 0.6 z"
               id="path877"
               style="fill:#ffffff"
               inkscape:connector-curvature="0" /><path
               d="m 214.5,467.2 c -0.3,-0.2 -0.6,-0.5 -0.8,-0.7 -0.9,-0.9 -1.9,-1.7 -2.7,-2.6 -0.9,-1.1 -1.1,-2.5 -1,-3.8 0.2,-1.9 0.5,-3.7 2.6,-4.2 0.1,0 0.1,-0.4 0.2,-0.6 -0.1,0 -0.3,-0.1 -0.4,-0.1 -0.2,0 -0.5,0.1 -0.7,0 -1,-0.1 -1.9,-0.2 -2.9,-0.4 -0.6,-0.1 -1.3,-0.2 -1.8,-0.5 -0.9,-0.6 -1.4,-2.6 -1.1,-3.7 0.5,-1.6 0.9,-3.1 1.5,-4.6 0.4,-1.1 0.9,-2.2 1.4,-3.3 0.6,-1.4 1.1,-2.7 1.7,-4.1 0.6,-1.5 1.3,-3 1.9,-4.5 1,-2.3 0.7,-4.3 -1.1,-5.8 -0.9,-0.8 -2.1,-1.5 -3.2,-2 -2.3,-0.9 -4.7,-1.7 -7,-2.5 -1.3,-0.5 -2.7,-1 -4,-1.5 -0.1,0 -0.2,-0.4 -0.1,-0.5 1.1,-1.6 2.2,-3.2 3.4,-4.7 1.1,-1.3 2.2,-2.5 3.5,-3.5 1.4,-1.1 2.9,-1.9 4.3,-2.9 1.4,-1 2.9,-1.7 4.6,-2 1.8,-0.2 3.5,-0.5 5.3,-0.4 1.7,0.1 3.5,0.2 4.9,1.5 1.2,1.1 2.5,2.1 3.2,3.4 0.4,0.7 0.8,1.4 1.2,2.1 0.4,0.7 0.6,1.5 0.5,2.4 -0.1,1.1 -0.2,2.4 -0.5,3.4 -0.4,1.2 -1,2.3 -1.8,3.3 -0.9,1.3 -1.9,2.6 -3.1,3.5 -1.3,1 -2.7,2 -4.5,2 -0.6,0 -1.1,-0.1 -1.7,-0.1 -0.3,0 -0.5,0.1 -0.8,0.1 0.2,0.2 0.4,0.5 0.6,0.6 0.4,0.2 0.9,0.2 1.4,0.3 2.2,0.6 4.3,1.2 6.6,1.7 0.6,0.2 1.2,0.4 1.9,0.6 0.7,0.2 1.4,0.6 2.1,0.6 2,0.1 3.6,-0.8 5.1,-2 0.1,0 0,-0.2 0,-0.3 0,-0.2 0,-0.6 0.1,-0.7 1,-1.2 2.2,-2.2 3.1,-3.5 1.3,-1.9 2.2,-3.9 2.5,-6.2 0.1,-1.2 0.1,-2.3 -0.5,-3.4 -0.3,-0.5 -0.7,-1.1 -0.9,-1.7 -0.5,-1.4 -1.6,-2.1 -2.7,-2.8 -0.9,-0.6 -2.2,-0.3 -3.1,-1 -0.2,-0.2 -0.5,-0.1 -0.8,-0.2 -0.6,-0.2 -1.1,-0.5 -1.7,-0.8 -0.4,-0.2 -0.7,-0.3 -0.7,-0.8 0,-0.1 0,-0.2 -0.1,-0.3 -0.4,-0.2 -0.7,-0.5 -1.1,-0.6 -1.8,-0.7 -3.6,-1.4 -5.5,-2.2 -1.1,-0.4 -2.2,-0.8 -3.2,-1.2 -1.1,-0.4 -2.1,-0.9 -3.2,-1.3 -0.7,-0.3 -1.5,-0.5 -2.2,-0.7 l -2.4,-0.8 c -0.4,-0.1 -0.8,-0.4 -1.2,-0.4 -0.6,0 -1.2,0.1 -1.8,0.1 -1.3,0.1 -2.6,0 -3.9,0.1 -1.7,0.1 -3.3,0.6 -4.8,1.4 -0.9,0.5 -1.8,1 -2.7,1.6 -1.5,1 -3.1,2 -4.4,3.1 -1.1,0.9 -2,2 -2.8,3.2 -1.6,2.2 -3.2,4.5 -4.7,6.8 -0.9,1.3 -1.6,2.8 -2.4,4.2 -0.9,1.6 -1.8,3.2 -1.8,5.3 0,0.6 0.3,1.3 0.6,2 1,2 2.9,2.3 4.4,3.1 1.2,0.6 2.4,1 3.5,1.5 1.5,0.6 3,1.3 4.5,1.8 0.2,0.1 0.4,-0.2 0.6,-0.2 -0.1,-0.1 -0.2,-0.2 -0.4,-0.3 -0.4,-0.3 -0.9,-0.5 -1.3,-0.8 -1.3,-1.4 -1,-3 -0.5,-4.4 0.6,-1.7 1.5,-3.3 2.3,-4.9 0.7,-1.3 1.4,-2.5 2.1,-3.7 0.1,-0.1 0.3,-0.2 0.4,-0.1 0.9,0.5 1.8,1 2.7,1.4 1.4,0.6 2.8,2.7 2.5,4.2 -0.3,1.5 -0.7,3 -1.3,4.4 -0.8,2.1 -1.9,4 -2.8,6.1 -0.8,1.9 -1.6,3.9 -2.3,6 -0.5,1.5 -1.2,3 -1,4.9 0.1,1.5 1.1,3.2 2.8,3.5 1.6,0.3 3.2,0.6 4.8,1 0.7,0.1 1.5,0.3 2.2,0.5 0.6,0.1 1.2,0.1 1.8,0.2 1.2,0.2 2.4,0.4 3.6,0.6 0.1,0 0.3,0.1 0.4,0.2 -0.1,0.1 -0.1,0.3 -0.2,0.4 -0.4,0.3 -0.9,0.6 -1.2,1 -0.4,0.5 -0.6,1.1 -1,1.5 -1.1,1.1 -2.7,1.4 -4.3,1.9 -1.3,0.4 -2.5,0.6 -3.9,0.5 -0.8,-0.1 -0.5,0.5 -0.2,1 0,0.1 0.1,0.1 0.1,0.2 0.6,0.7 1.3,1.4 1.9,2.1 0.7,0.7 1.2,1.5 2,2 0.8,0.6 1.7,0.9 2.6,1.2 0.6,0.2 1.2,0.4 1.8,0.5 1.1,0.2 2.3,0.1 3.4,0.3 1.1,0.2 2.2,0.6 3.3,0.8 2,0.2 3.9,0.4 5.8,0.5 0.5,0 0.9,0 1.4,0 0.7,0.1 1.5,0.2 2.2,0.3 0.8,0 1.6,-0.1 2.4,-0.1 1.3,0 2,-0.9 2.6,-1.8 0.3,-0.4 0.4,-0.7 1,-0.6 1,0.2 2.1,0.4 3.1,0.6 0.4,0.1 1,0.4 1.2,0.2 0.5,-0.5 0.9,-0.2 1.3,0.1 1.7,1.4 2.8,3.1 3.3,5.3 0.4,1.8 0.5,3.5 0.4,5.2 -0.1,1.7 -0.3,3.3 -0.5,5 -0.1,0.9 -0.2,1.8 -0.3,2.8 0,0.2 -0.2,0.4 -0.2,0.6 -0.1,-0.1 -0.3,-0.2 -0.4,-0.3 -0.8,-0.7 -1.5,-1.3 -2.3,-2 -0.6,-0.5 -1.1,-1.1 -1.6,-1.7 -0.2,-0.3 -0.1,-0.8 -0.3,-1.1 -0.4,-0.4 -0.9,-0.7 -1.4,-1 -1.8,-1.1 -3.5,-2.1 -5.3,-3.2 -1.1,-0.6 -2.2,-1.1 -3.3,-1.6 -1.2,-0.5 -2.4,-0.3 -3.3,0.3 -1.5,1 -2.3,3.9 -1.3,6 0.3,0.7 0.8,1.4 1.3,2 0.6,0.7 1.2,1.2 1.9,1.8 0.6,0.5 1.3,1 2,1.4 0.5,0.3 1,0.4 1.5,0.7 1.6,1.1 3.3,1.5 5,1.8 1.2,0.2 2.5,0.2 3.7,0.3 1.7,0.1 3.4,0.3 5.1,0.3 0.8,0 1.6,-0.1 2.3,-0.2 0.8,-0.1 1.7,0 2.4,-0.2 1.3,-0.3 2.7,-0.5 4.1,-0.4 0.6,0 1.5,0.3 1.6,-0.6 0.2,-1.3 0.4,-2.5 0.5,-3.8 0.2,-1.3 0.4,-2.6 0.5,-3.8 0.2,-2.1 0,-4.3 0,-6.4 -0.1,-1.5 -0.5,-3 -1.5,-4.2 -0.5,-0.7 -1.1,-1.4 -1.6,-2 -1,-1.2 -2.4,-1.5 -3.8,-1.7 -1.8,-0.2 -3.7,-0.3 -5.6,-0.5 -0.9,-0.1 -1.8,-0.1 -2.6,-0.2 -1.7,-0.1 -3.3,-0.4 -4.9,-0.5 -0.3,0 -0.8,-0.1 -0.8,-0.2 -0.1,-0.5 -0.1,-1.1 0,-1.6 0.1,-0.7 0.3,-1.3 0.4,-2 0.1,-0.9 0.1,-1.7 0.2,-2.6 0.1,-1 0.1,-2 0.2,-3 0.1,-1.1 0.1,-2.2 0.2,-3.4 0.2,-1.2 0.4,-2.4 0.8,-3.5 0.2,-0.7 0.6,-1.4 1.1,-2 0.2,-0.3 0.8,-0.2 1.1,-0.4 0.2,-0.1 0.4,-0.4 0.5,-0.7 -0.2,-0.1 -0.4,-0.3 -0.7,-0.3 -1.5,-0.3 -3,-0.5 -4.5,-0.8 -2,-0.5 -3.9,-1.1 -5.9,-0.5 -1.1,0.3 -2.4,0.4 -2.9,1.8 -0.4,1.2 -0.8,2.5 -1,3.8 -0.3,1.8 -0.4,3.6 -0.5,5.5 -0.2,2.2 -0.5,4.5 -0.7,6.8 -0.2,1.5 -0.4,2.9 -1.2,3.8 -0.8,0.7 -1.9,0.7 -2.4,0.2 z m 20.5,19.1 c 0.7,0.5 1.5,1 2.2,1.5 0.2,0.1 0.4,0.4 0.4,0.5 0,0.2 -0.2,0.4 -0.4,0.4 -2.1,0.8 -4,-0.3 -5.8,-1.6 -1.1,-0.8 -1.5,-1.9 -1.3,-3 0.1,-0.5 0.4,-1 0.7,-1.5 l 1.5,0.9 -0.1,0.1 c 0.5,0.4 1,0.9 1.5,1.3 0.2,0.6 0.8,1 1.3,1.4 z"
               id="path879"
               style="fill:#ffffff"
               inkscape:connector-curvature="0" /><path
               d="m 314.9,520.7 c -0.2,-2.1 -0.6,-4.2 -2.4,-5.8 -0.6,-0.5 -1.2,-1 -2,-1.3 -0.9,-0.4 -1.8,-0.6 -2.7,-1 -0.9,-0.3 -1.7,-0.6 -2.6,-0.6 -0.9,-0.1 -1.7,-0.1 -2.6,0.2 -1.1,0.3 -2.2,0.6 -3.4,0.8 -0.9,0.2 -1.8,0.2 -2.8,0.3 -0.2,0 -0.6,-0.1 -0.7,-0.1 -0.2,-1 -0.3,-2.1 -0.3,-3.1 -0.1,-1.4 -0.5,-2.6 -1.5,-3.6 -0.1,-0.1 -0.5,0 -0.7,-0.2 -0.7,-0.9 -1.6,-0.7 -2.5,-0.6 -2.2,0.3 -4.3,0.6 -6.5,0.9 -0.3,0 -0.6,0.1 -1,0.1 -0.9,0 -1.8,-0.1 -2.6,0.1 -0.8,0.2 -1.4,0 -1.4,-0.9 -0.1,-2 -0.3,-3.9 -0.1,-5.8 0.1,-0.9 0.7,-1.6 1,-2.4 0.1,-0.2 0.2,-0.5 0.2,-0.7 0,-0.1 -0.2,-0.3 -0.4,-0.3 -0.8,0 -1.6,0 -2.3,0.1 -0.5,0 -0.9,0.2 -1.4,0.2 -1.9,0.1 -3.9,0.2 -5.8,0.3 -0.9,0 -1.6,0.4 -2.2,1.1 -0.9,1 -1.1,2.2 -1.1,3.5 -0.1,2.2 0.1,4.3 0.2,6.4 0.1,2 0.3,3.9 0.4,5.9 0.1,2.2 0.3,4.5 0.4,6.7 0.1,1.7 0.2,3.5 0.4,5.1 0.1,1.2 0.4,2.4 0.6,3.7 0.3,2.5 0.5,5 0.8,7.6 0.2,1.6 -0.1,3.1 -1.5,4 -0.4,0.3 -1,0.5 -1.5,0.5 -1.1,0.2 -2.2,0.2 -3.3,0.3 -0.2,0 -0.3,0.3 -0.3,0.4 0,0.1 0.3,0.3 0.5,0.3 0.8,0 1.6,0 2.4,-0.1 1.1,-0.1 2.1,-0.3 3.2,-0.5 0.8,-0.1 1.7,-0.1 2.5,-0.2 1.7,-0.2 3.4,-0.4 5,-0.7 0.9,-0.2 1.9,-0.4 2.7,-0.8 0.7,-0.3 1.4,-0.6 1.8,-1.2 0.4,-0.6 0.5,-1.5 0.7,-2.3 0.1,-0.6 0.1,-1.2 0.2,-1.8 0,-0.4 0,-0.8 -0.1,-1.2 -0.4,-2.6 -0.8,-5.1 -1.1,-7.7 -0.2,-1.2 -0.3,-2.5 -0.5,-3.7 -0.1,-0.8 -0.3,-1.6 -0.3,-2.5 -0.1,-1.3 -0.1,-2.6 -0.2,-3.8 -0.1,-1.3 -0.2,-2.6 -0.3,-4 -0.1,-1.3 -0.2,-2.6 -0.2,-3.9 0,-0.3 0.1,-0.5 0.2,-0.8 0.8,0.3 1.8,0.4 2.5,0.9 0.6,0.5 1,1.3 1.2,2.1 0.3,1 0.4,2.2 0.5,3.2 0.2,2.9 0.3,5.8 0.6,8.7 0.1,1.4 0.2,2.7 0.4,4.1 0.4,2.3 0.5,4.6 1.6,6.9 0.6,1.3 1.4,2.4 2.4,3.2 0.5,0.4 1.1,0.8 1.7,1.1 0.6,0.3 1.3,0.4 2.1,0.5 1.4,0.2 2.8,0 4.2,-0.2 0.9,-0.1 1.7,-0.5 2.6,-0.8 0.7,-0.2 1.3,-0.3 2,-0.5 1.4,-0.5 2.7,-1 4,-1.5 1.2,-0.4 2.4,-0.8 3.6,-1.2 0.2,-0.1 0.2,-0.4 0.3,-0.5 -0.2,-0.1 -0.4,-0.2 -0.5,-0.2 -0.6,0.2 -1.2,0.5 -1.8,0.7 -0.8,0.2 -1.6,0.2 -2.4,0.3 -1.3,0.2 -2.7,-0.1 -3.7,-1 -1,-0.8 -1.7,-2 -2.4,-3 -0.1,-0.1 0.2,-0.5 0.3,-0.6 0.7,-0.2 1.5,-0.3 2.3,-0.4 1.2,-0.2 2.3,-0.5 3.5,-0.8 1.7,-0.5 3.4,-1.1 5,-1.7 0.8,-0.3 1.6,-0.6 2.2,-1.1 1.3,-1.1 2.4,-2.3 3,-3.9 -0.3,-0.4 -0.1,-0.8 -0.1,-1.2 z m -14.1,-2.6 c 1.8,1.3 2.3,3.2 2.4,5.1 0.1,1.3 -0.6,2.4 -1.5,3.3 -0.6,0.6 -1.2,1 -1.9,1.5 -0.5,0.3 -1.1,0.4 -1.6,0.5 -0.1,0 -0.5,-0.3 -0.6,-0.5 -0.3,-0.8 -0.6,-1.6 -0.7,-2.5 -0.2,-1.1 -0.2,-2.2 -0.3,-3.3 -0.2,-2.1 -0.4,-4.1 -0.6,-6.2 0,-0.5 0.1,-0.5 0.5,-0.3 0.3,0.2 0.7,0.2 0.8,0.3 1.3,0.8 2.5,1.3 3.5,2.1 z"
               id="path881"
               style="fill:#ffffff"
               inkscape:connector-curvature="0" /><path
               d="m 350,492.8 c -1.5,0.1 -3,0.4 -4.4,1.2 -2,1.2 -4.1,2.3 -6.3,3.5 -1.1,0.6 -2.1,1.1 -3.2,1.6 -1.4,0.6 -2.8,1.2 -4.1,1.9 -2,1 -3.8,2.4 -5.3,4.2 -0.8,1 -1.4,2.3 -1.8,3.6 -0.4,1.4 -0.5,2.8 -0.6,4.3 0,1.6 0.1,3.2 0.4,4.7 0.2,1.3 0.7,2.5 1.1,3.8 0.1,0.4 0.2,1 0,1.1 -0.5,0.3 -1.1,0.5 -1.7,0.6 -1.7,0.5 -3.4,0.8 -5.1,1.3 -0.7,0.2 -1.3,0.7 -1.9,1.1 -1.3,0.7 -2.5,1.5 -3.3,2.8 -1.2,1.9 -1.6,4 -1.2,6.2 0.3,1.6 0.8,3.3 1.3,4.9 0.6,2.1 1.1,4.1 1.7,6.2 0.2,0.8 0.2,1.5 0.3,2.2 0,0.3 0,0.8 -0.6,0.2 0,0 -0.3,0 -0.3,0 -0.4,0.5 -0.7,1 -1.1,1.4 -0.7,0.7 -1.3,1.4 -2.1,1.9 -1.1,0.8 -2.5,1.1 -4.1,1.1 -2.3,0.1 -4.4,-0.2 -6.1,-2 -0.6,-0.6 -1.3,-1.3 -1,-2.1 0.2,-0.5 0.5,-1 0.8,-1.5 0,-0.1 -0.1,-0.3 -0.1,-0.3 -0.1,0 -0.4,0 -0.4,0.1 -0.5,0.7 -1.5,1 -1.3,2.2 0.2,0.9 0.1,1.7 0.5,2.5 0.4,0.9 1.5,1.6 1.1,2.6 0,0 0.1,0.2 0.2,0.2 0.5,0.7 1.2,1 2,1.4 1.2,0.5 2.3,0.8 3.4,0.5 0.5,-0.1 1.1,-0.2 1.6,-0.3 0.1,0 0.1,0 0.2,-0.1 0.4,-0.4 0.8,-0.9 1.3,-1.2 0.8,-0.7 1.7,-1.2 2.4,-1.9 0.6,-0.6 1.1,-1.2 1.7,-1.8 0.4,-0.4 0.8,-0.9 1.4,-1.2 1.6,-0.7 3.2,-1.3 4.8,-1.9 1,-0.4 1.9,-1 3,-1.5 1.3,-0.6 2.8,-0.8 3.9,-1.8 0.7,-0.6 1.6,-1 2.5,-1.5 0.2,-0.1 0.4,-0.1 0.6,-0.3 0.6,-0.4 1.2,-0.9 1.9,-1.4 1.1,-0.7 2.3,-1.3 3.3,-2.1 0.8,-0.6 1.3,-1.4 2,-2.1 1.1,-1.2 2.3,-2.3 3.4,-3.5 0.3,-0.4 0.7,-0.9 0.7,-1.3 -0.1,-1.4 -0.2,-2.9 -0.5,-4.3 -0.5,-1.8 -1.1,-3.6 -1.7,-5.3 -0.5,-1.3 -1.1,-2.6 -1.7,-4 -0.5,-1.4 -1.1,-2.7 -1.5,-4.1 -0.4,-1.5 -0.7,-3 -0.9,-4.6 -0.1,-1.2 -0.2,-2.4 0,-3.6 0.3,-1.4 0.9,-2.8 1.3,-4.2 0.4,-1.2 1,-2.3 2.1,-2.9 0.5,-0.3 1.2,-0.3 1.9,-0.3 1.1,0 2.2,-0.1 3.1,0.2 1.1,0.4 2,1.3 2.9,2.1 1.1,0.9 1.7,2.4 2.3,3.8 0.7,1.7 1.3,3.5 1.3,5.5 0,1.1 0,2.2 -0.2,3.3 -0.2,1 -0.6,2 -1,3 -0.1,0.3 -0.5,0.5 -0.7,0.8 -0.2,0.3 -0.2,0.7 -0.4,0.9 -0.6,0.7 -1.1,1.4 -1.8,2 -0.5,0.4 -1.1,0.7 -1.6,1.1 -0.2,0.1 -0.2,0.4 -0.3,0.6 0.2,0 0.5,0.1 0.7,0.1 0.1,0 0.2,-0.1 0.3,-0.2 1.2,-0.9 2.4,-1.7 3.6,-2.6 0.8,-0.6 1.6,-1.1 2.4,-1.7 0.7,-0.5 1.3,-1 2,-1.5 1,-0.8 2.2,-1.3 2.8,-2.5 0.4,-0.9 1.3,-1.5 1.7,-2.4 0.6,-1.1 0.9,-2.2 1.3,-3.4 0.2,-0.5 0.2,-1 0.2,-1.5 0,-1.1 -0.1,-2.2 -0.1,-3.3 0,-0.3 0,-0.7 -0.1,-1 -0.2,-0.7 -0.4,-1.3 -0.6,-2 -0.3,-0.7 -0.5,-1.3 -0.8,-2 0,-0.1 0,-0.2 0,-0.2 -0.1,-0.3 -0.1,-0.6 -0.2,-0.8 -0.5,-0.8 -1.1,-1.6 -1.7,-2.4 -0.4,-0.5 -0.7,-1.1 -1.2,-1.4 -0.7,-0.5 -1.4,-0.7 -2.2,-1.1 -0.9,0.4 -1.6,0.3 -2.2,0.4 z m -24.8,32.1 c 0.3,-0.5 0.9,-0.9 1.3,-1.3 0,0 0.1,0.1 0.2,0.1 0.4,1.1 0.8,2.2 1.3,3.3 0.4,1 0.9,2 1.3,3.1 0.4,1.1 0.8,2.2 1,3.3 0.2,1.1 0.3,2.2 0.4,3.4 0,0.6 0,1.2 -0.2,1.7 -0.4,1 -0.8,2.1 -1.4,3 -0.2,0.4 -0.9,0.5 -1.4,0.7 -0.1,0 -0.4,-0.2 -0.4,-0.3 -0.7,-2.3 -1.4,-4.6 -2.1,-6.8 -0.3,-1.1 -0.7,-2.2 -1,-3.3 -0.2,-0.8 -0.2,-1.5 -0.2,-2.3 0,-0.9 0.2,-1.7 0.3,-2.6 h 0.1 c 0.3,-0.7 0.5,-1.4 0.8,-2 z"
               id="path883"
               style="fill:#ffffff"
               inkscape:connector-curvature="0" /><path
               d="m 250.6,503.3 c -0.1,-0.3 -0.1,-0.4 -0.1,-0.5 0.1,-2 0.2,-3.9 0.4,-5.9 0.2,-2.3 0.4,-4.6 0.7,-6.9 0.1,-1 0.5,-1.9 0.8,-2.8 0.5,-1.7 1.9,-2.2 3.6,-2.3 2,-0.1 4,0 5.9,-0.1 2.3,0 4.4,0 6.7,-0.2 0.1,0 0.3,0.1 0.4,0.2 -0.1,0.1 -0.3,0.3 -0.4,0.3 -0.6,0.1 -1.2,0.2 -1.8,0.2 -1.1,0 -2.6,1.1 -2.9,2.1 -0.3,1 -0.5,2 -0.7,3 -0.1,0.7 -0.1,1.4 -0.1,2.1 -0.2,3 -0.4,6 -0.5,9 -0.1,2.2 -0.1,4.4 0,6.7 0,1.7 0.3,3.4 0.4,5.1 0.2,2.7 0.5,5.3 0.8,8 0.2,1.3 0.4,2.7 0.5,4.1 0.2,1.9 0.4,3.8 0.6,5.7 0.1,1.3 0.3,2.6 0.3,3.9 -0.1,1.8 -0.4,3.5 -0.8,5.2 -0.2,0.8 -1.1,1.4 -2.1,1.5 -1.9,0.3 -3.8,0.8 -5.8,1.1 -1.7,0.2 -3.4,0.2 -5.1,0.3 -2.2,0 -4.4,0 -6.6,0 -1.7,0 -3.3,-0.1 -5,-0.2 -0.3,0 -0.6,-0.3 -0.9,-0.5 0.2,-0.1 0.4,-0.2 0.6,-0.3 1.1,0 2.1,-0.1 3.2,-0.1 1.2,0 2.4,0.3 3.5,0.3 1.9,0 3.9,0.1 5.1,-1 0.7,-0.6 1,-1.7 1.2,-2.6 0.2,-1.2 0.2,-2.6 0.2,-3.9 0,-1.6 -0.1,-3.1 -0.3,-4.7 -0.2,-2 -0.4,-4 -0.6,-6 -0.2,-1.8 -0.4,-3.6 -0.5,-5.4 -0.2,-2.4 -0.3,-4.8 -0.4,-7.1 -0.1,-1.3 -0.2,-2.6 -0.3,-3.9 -0.1,-1.4 -0.1,-2.8 0,-4.2 -0.1,-0.1 0,-0.2 0,-0.2 z"
               id="path885"
               style="fill:#ffffff"
               inkscape:connector-curvature="0" /><path
               d="m 249.3,495.7 c 0,0.1 0,0.1 0,0.1 -0.2,0.1 -0.5,0.2 -0.7,0.1 -0.9,-0.2 -1.4,0.2 -2,0.6 -0.9,0.6 -0.7,1.6 -0.8,2.5 0,1 0.2,2.1 0.3,3.1 0,0.5 -0.1,0.9 -0.1,1.4 0,0.7 0.1,1.4 0.1,2.1 0,0.2 0,0.5 -0.1,0.5 -0.5,0.2 -1.1,0.4 -1.7,0.5 -0.8,0.1 -1.7,0.1 -2.5,0.1 -0.2,0 -0.8,0.3 -0.7,-0.5 0,0 -0.4,-0.1 -0.6,-0.2 -0.2,0 -0.3,-0.1 -0.5,-0.1 -0.5,-0.3 -1,-0.6 -1.5,-0.8 0.4,0.3 0.8,0.6 1.2,0.9 0.2,0.2 0.4,0.4 0.6,0.6 -0.2,0 -0.5,0.1 -0.7,0.1 -1.1,0 -2.3,-0.1 -3.4,-0.1 -1.5,0 -3,-0.1 -4.5,-0.2 -0.3,0 -0.6,-0.4 -1,-0.7 0.1,0 0.1,-0.1 0.2,-0.1 0.5,0 1.1,0.1 1.6,0.1 0.8,0 1.3,-0.2 1.2,-1.1 -0.1,-1.4 -0.1,-2.9 -0.1,-4.4 0,-1.1 -0.1,-2.2 0,-3.3 0,-0.5 0.4,-1 0.8,-1.3 0.6,-0.4 1.2,-0.9 2.1,-0.7 0,0 0,0 0,0 0.9,-1 1.9,0 2.9,0.2 0,0 0.1,0 0.1,0 0.9,0 1.7,0.1 2.6,0.1 0.4,0 0.8,0.1 1.2,0.1 0.8,0 1.6,0 2.4,0 1.2,0.1 2.3,0.1 3.5,0.2 -0.1,0.1 0,0.2 0.1,0.2 z"
               id="path887"
               style="fill:#ffffff"
               inkscape:connector-curvature="0" /></g></g><g
           id="g907"
           style="fill:#ffffff"><g
             id="g905"
             style="fill:#ffffff"><path
               d="m 245,382.3 c -0.1,-0.4 -0.2,-0.8 -0.4,-1.1 -0.1,-0.2 -0.2,-0.3 -0.3,-0.5 0,0 0.1,-0.1 0.2,-0.1 0.1,0 0.2,0.1 0.2,0 0.1,-0.1 0.1,-0.2 0.2,-0.3 -0.1,0.2 -0.2,0.3 -0.1,0.5 0.1,0.3 0.2,0.6 0.3,0.8 0,0 0.1,0 0.2,0 0,-0.1 0,-0.1 0,-0.2 0,-0.1 -0.1,-0.1 -0.1,-0.2 0,0 0.1,0 0.1,0 0.1,0.1 0.1,0.1 0.1,0.2 0.1,0.2 0.2,0.3 0.3,0.5 z"
               id="path893"
               style="fill:#ffffff"
               inkscape:connector-curvature="0" /><path
               d="m 159.7,242 c 0,-0.3 0,-0.8 0.1,-1.1 0.1,-1.3 0.1,-2.5 0.4,-3.8 0.3,-1.4 1.2,-2.4 2.3,-3.1 1.6,-1 3.2,-1.9 4.9,-0.6 0.1,0.1 0.4,-0.1 0.6,-0.2 -0.1,-0.1 -0.1,-0.3 -0.2,-0.4 -0.1,-0.2 -0.3,-0.3 -0.5,-0.5 -0.5,-0.8 -1,-1.6 -1.5,-2.5 -0.3,-0.6 -0.7,-1.1 -0.7,-1.8 -0.1,-1.1 1.2,-2.7 2.2,-3.1 1.5,-0.6 3,-1.2 4.5,-1.7 1.1,-0.4 2.3,-0.6 3.4,-1 1.4,-0.4 2.9,-0.8 4.3,-1.3 1.6,-0.4 3.2,-0.9 4.8,-1.3 2.4,-0.6 3.8,-2.2 3.9,-4.5 0.1,-1.2 -0.1,-2.6 -0.4,-3.7 -0.7,-2.4 -1.6,-4.7 -2.4,-7.1 -0.5,-1.3 -0.9,-2.7 -1.3,-4.1 0,-0.1 0.2,-0.4 0.3,-0.4 1.9,-0.1 3.8,-0.3 5.8,-0.2 1.7,0.1 3.3,0.2 4.9,0.6 1.7,0.4 3.3,1.1 4.9,1.6 1.6,0.5 3.2,1.2 4.4,2.4 1.3,1.2 2.6,2.5 3.6,3.9 1,1.4 2.1,2.9 1.9,4.7 -0.1,1.6 -0.1,3.2 -0.7,4.7 -0.3,0.7 -0.6,1.5 -1,2.2 -0.4,0.7 -0.8,1.4 -1.6,1.9 -1,0.6 -1.9,1.3 -3,1.7 -1.2,0.4 -2.4,0.6 -3.7,0.7 -1.6,0.1 -3.2,0.1 -4.7,-0.2 -1.6,-0.4 -3.2,-0.9 -4.3,-2.3 -0.4,-0.4 -0.6,-1 -1,-1.4 -0.2,-0.2 -0.4,-0.4 -0.6,-0.6 0,0.3 -0.2,0.6 -0.1,0.8 0.1,0.5 0.4,0.9 0.6,1.3 0.9,2.1 1.7,4.1 2.7,6.2 0.3,0.6 0.4,1.2 0.7,1.9 0.3,0.7 0.4,1.5 0.9,2.1 1.2,1.6 2.9,2.3 4.7,2.8 0.1,0 0.2,-0.1 0.3,-0.2 0.2,-0.1 0.4,-0.4 0.6,-0.4 1.6,0.1 3.1,0.3 4.6,0.2 2.3,-0.1 4.4,-0.7 6.3,-1.9 1,-0.6 1.9,-1.3 2.3,-2.5 0.2,-0.6 0.4,-1.2 0.7,-1.7 0.8,-1.2 0.7,-2.5 0.5,-3.9 -0.1,-1.1 -1.1,-1.9 -1.1,-3 0,-0.2 -0.2,-0.5 -0.3,-0.8 -0.2,-0.6 -0.3,-1.2 -0.4,-1.8 -0.1,-0.4 -0.3,-0.7 0.2,-1 0.1,0 0.2,-0.2 0.1,-0.2 0,-0.4 -0.1,-0.9 -0.2,-1.3 -0.6,-1.9 -1.2,-3.7 -1.7,-5.6 -0.2,-0.5 -0.4,-1.1 -0.5,-1.7 l -0.5,-1.6 c -0.3,-1.1 -0.6,-2.2 -1,-3.3 -0.2,-0.7 -0.5,-1.5 -0.8,-2.2 l -0.9,-2.4 c -0.1,-0.4 -0.2,-0.8 -0.4,-1.2 -0.3,-0.5 -0.8,-0.9 -1.2,-1.4 -0.8,-1 -1.6,-2 -2.5,-2.9 -1.2,-1.3 -2.6,-2.2 -4.1,-2.9 -1,-0.4 -2,-0.8 -3,-1.1 -1.7,-0.6 -3.4,-1.2 -5.2,-1.5 -1.4,-0.3 -2.8,-0.3 -4.2,-0.2 -2.7,0.1 -5.5,0.3 -8.3,0.6 -1.6,0.2 -3.2,0.5 -4.8,0.7 -1.8,0.3 -3.6,0.6 -5.3,1.9 -0.5,0.4 -0.9,1.1 -1.2,1.7 -0.9,2 0,3.7 0.3,5.4 0.3,1.3 0.7,2.5 1,3.7 0.5,1.6 0.8,3.1 1.4,4.7 0.1,0.2 0.4,0.2 0.5,0.3 0,-0.1 0,-0.3 0,-0.4 -0.1,-0.5 -0.2,-1 -0.1,-1.5 0.3,-1.9 1.7,-2.7 3.1,-3.1 1.7,-0.6 3.5,-0.9 5.3,-1.3 1.4,-0.3 2.8,-0.5 4.3,-0.6 0.1,0 0.3,0.1 0.3,0.2 0.2,1 0.3,2 0.6,3 0.4,1.5 -0.4,3.9 -1.7,4.6 -1.4,0.7 -2.9,1.3 -4.3,1.7 -2.1,0.6 -4.3,1 -6.5,1.6 -2,0.6 -4.1,1.2 -6.1,1.9 -1.5,0.5 -3.1,1 -4.4,2.3 -1.1,1 -1.8,2.9 -1,4.4 0.7,1.5 1.5,2.9 2.2,4.3 0.3,0.7 0.6,1.4 1,2 0.3,0.5 0.6,1 0.9,1.6 0.6,1.1 1.2,2.2 1.8,3.2 0.1,0.1 0,0.3 0.1,0.5 -0.1,0 -0.3,0.1 -0.4,0 -0.5,-0.1 -1,-0.3 -1.6,-0.3 -0.6,0 -1.3,0.2 -1.8,0.1 -1.6,-0.2 -2.8,-1.3 -4.1,-2.1 -1.1,-0.7 -2,-1.6 -2.8,-2.7 -0.5,-0.7 -0.7,-0.1 -0.9,0.5 0,0.1 0,0.1 0,0.2 -0.2,0.9 -0.4,1.9 -0.5,2.8 -0.1,0.9 -0.4,1.9 -0.3,2.8 0.1,1 0.4,1.9 0.7,2.8 0.2,0.6 0.4,1.2 0.7,1.7 0.6,1 1.3,1.9 1.9,2.9 0.5,1 0.9,2.1 1.4,3.1 1,1.7 2.1,3.3 3.2,4.9 0.3,0.4 0.6,0.7 0.8,1.1 0.4,0.6 0.7,1.3 1.2,1.9 0.5,0.6 1.1,1.2 1.6,1.8 0.8,1 2,1 3.1,0.9 0.5,0 0.8,-0.1 1.1,0.4 0.5,0.9 1,1.9 1.5,2.8 0.2,0.4 0.3,1 0.6,1 0.7,0.1 0.7,0.6 0.7,1.1 0,2.2 -0.6,4.2 -2,5.9 -2.2,2.8 -5.1,4.6 -8.1,6.3 -0.8,0.5 -1.6,1 -2.3,1.5 -0.2,0.1 -0.4,0.1 -0.6,0.2 0,-0.2 -0.1,-0.3 -0.1,-0.5 0,-1 0.1,-2 0.2,-3 0.1,-0.8 0.2,-1.6 0.4,-2.3 0.1,-0.3 0.6,-0.6 0.6,-0.9 0.1,-0.6 0,-1.2 -0.1,-1.7 -0.3,-2 -0.5,-4.1 -0.9,-6.1 -0.2,-1.2 -0.4,-2.4 -0.7,-3.6 -0.4,-1.2 -1.2,-2.1 -2.4,-2.4 -1.8,-0.5 -4.5,0.6 -5.5,2.8 -0.4,0.7 -0.6,1.5 -0.8,2.2 -0.2,0.8 -0.2,1.7 -0.2,2.6 0,0.8 0,1.6 0.1,2.4 0.1,0.5 0.3,1.1 0.3,1.6 0.2,1.9 0.9,3.5 1.7,5 0.6,1.1 1.3,2.1 2.1,3.1 1,1.4 1.9,2.8 2.9,4.2 0.5,0.6 1.1,1.1 1.6,1.7 0.6,0.6 1.1,1.3 1.7,1.8 1.1,0.8 2.1,1.8 2.9,2.9 0.4,0.5 0.7,1.3 1.5,0.9 2.2,-1.3 4.5,-2.5 6.6,-3.9 1.8,-1.2 3.3,-2.7 4.9,-4.1 1.2,-1 1.9,-2.3 2.4,-3.8 0.3,-0.8 0.4,-1.7 0.6,-2.5 0.3,-1.5 -0.3,-2.8 -1.1,-4 -1,-1.5 -2.1,-3.1 -3.1,-4.6 -0.5,-0.7 -0.9,-1.5 -1.4,-2.2 -0.9,-1.4 -1.8,-2.8 -2.6,-4.2 -0.2,-0.3 -0.4,-0.7 -0.4,-0.8 0.4,-0.4 0.8,-0.8 1.3,-1.1 0.6,-0.4 1.2,-0.6 1.8,-0.9 0.7,-0.5 1.4,-1 2.1,-1.5 0.8,-0.6 1.6,-1.2 2.4,-1.7 0.9,-0.7 1.9,-1.3 2.8,-1.9 1,-0.6 2.1,-1.1 3.2,-1.6 0.7,-0.3 1.5,-0.4 2.3,-0.4 0.3,0 0.6,0.5 1,0.6 0.2,0.1 0.6,0 0.8,0 -0.1,-0.2 0,-0.5 -0.2,-0.7 -0.7,-1.3 -1.5,-2.6 -2.1,-4 -0.8,-1.8 -1.6,-3.7 -3.3,-4.9 -1,-0.7 -1.8,-1.6 -3.2,-1.1 -1.2,0.5 -2.5,0.9 -3.6,1.6 -1.6,0.9 -3,2 -4.6,3 -1.9,1.2 -3.8,2.5 -5.7,3.7 -1.3,0.8 -2.6,1.5 -3.8,1.4 -0.8,-0.7 -1.4,-1.6 -1.3,-2.2 z m -2.3,27.9 c 0,0.9 0.1,1.8 0.2,2.6 0,0.2 0,0.6 -0.1,0.6 -0.2,0.1 -0.4,0 -0.6,-0.1 -1,-0.6 -1.5,-1.4 -1.9,-2.4 -0.3,-1 -0.4,-2.1 -0.4,-3.2 0,-1.4 0.5,-2.3 1.5,-2.9 0.5,-0.3 1,-0.3 1.6,-0.4 l 0.2,1.7 h -0.2 c -0.1,1.5 -0.2,2.8 -0.3,4.1 z"
               id="path895"
               style="fill:#ffffff"
               inkscape:connector-curvature="0" /><path
               d="m 180.5,353.8 c 1.6,-1.5 2.9,-3.1 2.9,-5.5 0,-0.8 -0.1,-1.6 -0.2,-2.4 -0.2,-0.9 -0.6,-1.8 -0.9,-2.8 -0.5,-1.8 -1.3,-3.3 -2.9,-4.3 -1,-0.7 -1.9,-1.3 -2.8,-2.1 -0.7,-0.6 -1.4,-1.3 -2,-1.9 -0.1,-0.2 -0.3,-0.6 -0.3,-0.6 0.7,-0.8 1.5,-1.5 2.3,-2.2 1,-0.9 1.8,-2 1.9,-3.5 0,-0.2 -0.3,-0.4 -0.3,-0.6 0.2,-1.1 -0.5,-1.7 -1.1,-2.3 -0.8,-0.7 -1.6,-1.5 -2.4,-2.3 -0.8,-0.7 -1.6,-1.5 -2.3,-2.3 -0.2,-0.2 -0.5,-0.4 -0.7,-0.7 -0.6,-0.6 -1,-1.4 -1.7,-1.9 -0.6,-0.5 -0.8,-1.1 -0.2,-1.7 1.4,-1.3 2.8,-2.6 4.4,-3.7 0.7,-0.5 1.7,-0.5 2.5,-0.7 0.2,-0.1 0.5,-0.2 0.7,-0.3 0.1,-0.1 0.1,-0.4 0,-0.5 -0.5,-0.6 -1,-1.2 -1.5,-1.8 -0.3,-0.3 -0.7,-0.6 -1,-0.9 -1.3,-1.5 -2.5,-2.9 -3.7,-4.3 -0.6,-0.7 -1.4,-1 -2.2,-1.1 -1.3,-0.1 -2.4,0.6 -3.4,1.3 -1.7,1.3 -3.3,2.7 -4.9,4.2 -1.5,1.3 -3,2.7 -4.4,4 -1.6,1.5 -3.3,3 -5,4.5 -1.3,1.2 -2.5,2.3 -3.8,3.5 -0.9,0.9 -1.7,1.9 -2.6,2.7 -0.9,0.9 -1.8,1.8 -2.8,2.6 -0.9,0.9 -1.8,1.8 -2.7,2.7 -1.1,1.2 -2.4,1.9 -4,1.3 -0.5,-0.2 -1,-0.5 -1.4,-0.9 -0.8,-0.7 -1.6,-1.6 -2.3,-2.4 -0.1,-0.1 -0.4,-0.1 -0.5,0 -0.1,0.1 -0.1,0.5 0,0.6 0.5,0.6 1,1.3 1.6,1.8 0.8,0.8 1.6,1.4 2.4,2.2 0.6,0.6 1.2,1.2 1.8,1.8 1.2,1.2 2.4,2.4 3.6,3.5 0.7,0.6 1.5,1.2 2.3,1.6 0.6,0.4 1.4,0.7 2,0.7 0.8,-0.1 1.5,-0.5 2.2,-0.9 0.5,-0.3 1,-0.6 1.5,-1 0.3,-0.2 0.6,-0.5 0.9,-0.8 1.8,-1.9 3.6,-3.8 5.4,-5.6 0.9,-0.9 1.7,-1.8 2.5,-2.7 0.6,-0.6 1.1,-1.2 1.7,-1.8 0.9,-0.9 1.9,-1.7 2.8,-2.6 1,-0.9 2,-1.8 3,-2.7 1,-0.9 2,-1.8 3,-2.6 0.2,-0.2 0.5,-0.2 0.7,-0.4 0.3,0.8 0.8,1.7 0.8,2.5 0,0.8 -0.4,1.6 -0.9,2.3 -0.7,0.9 -1.4,1.7 -2.2,2.4 -2.1,1.9 -4.3,3.9 -6.4,5.9 -1,0.9 -2.1,1.8 -3,2.9 -1.6,1.8 -3.4,3.3 -4.5,5.6 -1.2,2.5 -1.4,5.2 0.1,7.7 0.7,1.2 1.7,2.2 2.7,3.1 0.6,0.6 1.4,1 2.2,1.5 0.6,0.4 1.1,0.9 1.7,1.2 1.2,0.8 2.5,1.5 3.8,2.2 1.1,0.7 2.1,1.4 3.2,2 0.1,0.1 0.4,-0.1 0.6,-0.1 0,-0.2 0,-0.5 -0.1,-0.5 -0.5,-0.4 -1.1,-0.6 -1.7,-1 -0.6,-0.5 -1.2,-1.1 -1.8,-1.7 -1,-0.9 -1.6,-2.2 -1.6,-3.5 0.1,-1.3 0.5,-2.5 0.9,-3.8 0,-0.1 0.5,-0.2 0.6,-0.1 0.6,0.5 1.1,1 1.7,1.5 0.9,0.8 1.8,1.5 2.8,2.2 1.5,1 3,1.9 4.6,2.8 0.7,0.4 1.5,0.8 2.3,1 1.6,0.3 3.3,0.4 4.9,-0.1 0.4,0.2 0.9,0.1 1.2,-0.2 z m -6.7,-12.7 c 0.1,2.2 -1.1,3.8 -2.6,5.1 -1,0.9 -2.3,1.1 -3.5,0.9 -0.8,-0.1 -1.6,-0.3 -2.3,-0.6 -0.5,-0.2 -1,-0.6 -1.4,-1 -0.1,-0.1 -0.1,-0.6 0,-0.7 0.5,-0.7 1,-1.5 1.5,-2.1 0.7,-0.8 1.6,-1.5 2.4,-2.3 1.5,-1.4 2.9,-2.9 4.3,-4.3 0.3,-0.3 0.5,-0.2 0.6,0.2 0.1,0.3 0.3,0.7 0.3,0.8 0.2,1.6 0.6,2.8 0.7,4 z"
               id="path897"
               style="fill:#ffffff"
               inkscape:connector-curvature="0" /><path
               d="m 224.2,363.8 c -1,-1.1 -2.2,-2.1 -3.8,-2.6 -1.1,-0.4 -2.2,-0.9 -3.3,-1.3 -1.1,-0.5 -2.2,-1 -3.3,-1.4 -1.1,-0.5 -2.1,-1 -3.2,-1.5 -1.4,-0.7 -2.7,-1.4 -4.1,-2 -1.1,-0.5 -2.1,-0.8 -3.3,-1.1 -1.1,-0.3 -2.2,-0.4 -3.3,-0.4 -1.3,0 -2.7,0.3 -4,0.8 -1.3,0.5 -2.6,1.4 -3.7,2.2 -1.3,1 -2.4,2.1 -3.4,3.2 -0.9,1 -1.5,2.1 -2.3,3.2 -0.2,0.3 -0.6,0.8 -0.8,0.7 -0.6,-0.2 -1.1,-0.6 -1.6,-0.9 -1.4,-1 -2.9,-2.1 -4.4,-3.2 -0.6,-0.4 -1.4,-0.5 -2,-0.8 -1.3,-0.6 -2.7,-1 -4.2,-0.8 -2.2,0.3 -4.1,1.2 -5.6,3 -1.1,1.3 -2.1,2.7 -3.1,4.1 -1.2,1.7 -2.4,3.5 -3.7,5.2 -0.4,0.6 -1,1.1 -1.6,1.6 -0.2,0.2 -0.6,0.4 -0.5,-0.3 0,-0.1 -0.1,-0.2 -0.2,-0.2 -0.6,0 -1.2,0 -1.8,0 -0.9,-0.1 -1.9,-0.2 -2.8,-0.5 -1.3,-0.4 -2.5,-1.3 -3.5,-2.5 -1.5,-1.7 -2.5,-3.6 -2.2,-6 0.1,-0.8 0.2,-1.8 1.1,-2.1 0.5,-0.2 1.1,-0.2 1.7,-0.3 0.1,0 0.2,-0.2 0.2,-0.3 -0.1,-0.1 -0.2,-0.3 -0.3,-0.3 -0.8,0 -1.8,-0.6 -2.5,0.4 -0.5,0.7 -1.3,1.2 -1.7,1.9 -0.4,0.8 -0.3,2.1 -1.4,2.5 0,0 -0.1,0.2 -0.1,0.3 -0.2,0.8 -0.1,1.6 0.1,2.5 0.2,0.6 0.3,1.2 0.6,1.7 0.3,0.5 0.7,0.9 1.1,1.3 0.4,0.3 0.8,0.7 1.3,1.1 0,0 0.1,0.1 0.2,0.1 0.6,0.1 1.2,0.1 1.8,0.2 1,0.2 2,0.5 3.1,0.7 0.8,0.1 1.6,0.1 2.5,0.2 0.6,0.1 1.2,0.1 1.8,0.3 1.5,0.8 2.9,1.7 4.4,2.5 1,0.5 2,0.9 3,1.4 1.2,0.7 2.4,1.7 3.9,1.9 0.9,0.1 1.8,0.6 2.8,1 0.2,0.1 0.4,0.2 0.6,0.3 0.8,0.2 1.5,0.4 2.3,0.6 1.2,0.4 2.4,1 3.6,1.3 0.9,0.2 1.9,0.1 2.8,0.2 1.6,0.2 3.2,0.4 4.8,0.5 0.5,0 1.1,0 1.4,-0.3 1.1,-1 2.2,-1.9 3.1,-3.1 1.1,-1.5 2.1,-3.1 3.1,-4.7 0.7,-1.2 1.3,-2.5 2,-3.8 0.7,-1.3 1.4,-2.6 2.2,-3.7 0.9,-1.3 2,-2.4 3.1,-3.5 0.9,-0.8 1.8,-1.7 2.8,-2.2 1.3,-0.7 2.7,-1.1 4.1,-1.6 1.2,-0.5 2.4,-0.6 3.6,-0.1 0.5,0.2 1,0.8 1.3,1.3 0.6,0.8 1.4,1.7 1.8,2.6 0.4,1.1 0.3,2.3 0.3,3.5 -0.1,1.5 -0.9,2.8 -1.6,4.1 -0.9,1.7 -2,3.2 -3.5,4.4 -0.9,0.7 -1.7,1.4 -2.7,1.9 -0.9,0.5 -2,0.8 -3,1.1 -0.3,0.1 -0.8,-0.1 -1.1,-0.1 -0.3,0 -0.7,0.2 -1,0.2 -0.9,0 -1.8,0 -2.7,-0.2 -0.6,-0.1 -1.2,-0.4 -1.8,-0.6 -0.2,-0.1 -0.4,0.1 -0.7,0.1 0.1,0.2 0.2,0.5 0.4,0.7 0.1,0.1 0.2,0.1 0.3,0.1 1.4,0.4 2.9,0.8 4.3,1.2 1,0.3 1.9,0.5 2.9,0.8 0.8,0.2 1.6,0.4 2.4,0.6 1.2,0.3 2.3,0.9 3.7,0.6 0.9,-0.2 2,0.1 2.9,-0.1 1.2,-0.2 2.3,-0.7 3.4,-1.1 0.5,-0.2 0.9,-0.4 1.3,-0.8 0.9,-0.7 1.7,-1.4 2.5,-2.2 0.3,-0.2 0.6,-0.4 0.8,-0.7 0.4,-0.6 0.8,-1.1 1.2,-1.7 0.4,-0.6 0.7,-1.3 1,-1.9 0,-0.1 0.1,-0.1 0.2,-0.2 0.2,-0.2 0.4,-0.4 0.4,-0.7 0.3,-0.9 0.6,-1.9 0.8,-2.8 0.1,-0.6 0.4,-1.2 0.4,-1.8 0,-0.8 -0.3,-1.6 -0.4,-2.5 -0.5,-0.1 -0.8,-0.7 -1.2,-1.2 z m -40.6,0.7 c 0.6,-0.1 1.2,0.1 1.8,0.2 0,0 0,0.2 0,0.2 -0.6,1 -1.2,2 -1.8,3 -0.6,1 -1.1,2 -1.7,2.9 -0.6,1 -1.2,1.9 -1.9,2.8 -0.7,0.9 -1.5,1.6 -2.4,2.4 -0.4,0.4 -0.9,0.7 -1.4,0.9 -1,0.3 -2.1,0.7 -3.2,0.8 -0.4,0.1 -1,-0.4 -1.4,-0.6 -0.1,0 -0.1,-0.4 0,-0.5 1.2,-2 2.7,-4 4.1,-5.9 0.7,-1 1.3,-2 2,-2.9 0.5,-0.6 1.1,-1.1 1.7,-1.6 0.7,-0.5 1.5,-0.9 2.2,-1.4 v 0.1 c 0.7,0 1.3,-0.3 2,-0.4 z"
               id="path899"
               style="fill:#ffffff"
               inkscape:connector-curvature="0" /><path
               d="m 154,292.7 c 0.2,-0.2 0.2,-0.3 0.3,-0.4 1.6,-1.1 3.2,-2.3 4.8,-3.4 1.9,-1.3 3.8,-2.6 5.8,-3.8 0.8,-0.5 1.8,-0.7 2.7,-1.1 1.7,-0.6 2.9,0.1 4,1.4 1.3,1.5 2.5,3.1 3.8,4.6 1.4,1.7 2.9,3.4 4.3,5.1 0.1,0.1 0.1,0.3 0.1,0.5 -0.2,0 -0.4,0 -0.5,-0.1 -0.4,-0.4 -0.9,-0.8 -1.2,-1.2 -0.6,-0.8 -2.5,-1.4 -3.4,-0.9 -0.9,0.4 -1.9,0.8 -2.8,1.3 -0.6,0.3 -1.2,0.8 -1.8,1.2 -2.6,1.7 -5,3.4 -7.4,5.2 -1.7,1.3 -3.5,2.7 -5.1,4.2 -1.3,1.1 -2.5,2.3 -3.8,3.5 l -3,2.8 -2.8,2.9 c -0.9,1 -1.8,2 -2.8,2.9 -1.3,1.3 -2.7,2.7 -4.1,4 -1,0.9 -1.9,1.9 -2.9,2.6 -1.5,1 -3,1.9 -4.6,2.6 -0.8,0.3 -1.7,0 -2.5,-0.7 -1.4,-1.3 -2.9,-2.5 -4.3,-3.9 -1.2,-1.2 -2.3,-2.5 -3.4,-3.8 -1.4,-1.7 -2.8,-3.4 -4.2,-5.2 -1,-1.3 -2,-2.6 -2.9,-4 -0.2,-0.2 -0.1,-0.7 -0.2,-1 0.2,0.1 0.4,0.2 0.6,0.3 0.7,0.8 1.4,1.6 2,2.5 0.7,0.9 1.2,2 1.9,2.9 1.2,1.5 2.4,3.1 4,3.4 0.9,0.2 2,-0.2 2.8,-0.7 1.1,-0.6 2.1,-1.5 3.1,-2.3 1.2,-1 2.4,-2 3.5,-3.1 1.5,-1.4 2.9,-2.8 4.4,-4.2 1.3,-1.3 2.6,-2.6 3.8,-3.8 1.7,-1.6 3.5,-3.2 5.2,-4.8 1,-0.9 2,-1.8 3,-2.7 1.1,-0.9 2.2,-1.8 3.3,-2.7 0.2,-0.2 0.3,-0.1 0.3,-0.1 z"
               id="path901"
               style="fill:#ffffff"
               inkscape:connector-curvature="0" /><path
               d="m 159.1,286.9 c 0,0 -0.1,0.1 -0.1,0.1 -0.2,-0.1 -0.5,-0.2 -0.6,-0.5 -0.4,-0.8 -1.1,-1 -1.8,-1.2 -1,-0.4 -1.7,0.4 -2.4,1 -0.8,0.6 -1.5,1.4 -2.2,2.1 -0.3,0.3 -0.8,0.5 -1.1,0.8 -0.5,0.4 -1,0.9 -1.5,1.3 -0.1,0.1 -0.4,0.3 -0.5,0.2 -0.5,-0.3 -1,-0.6 -1.5,-1 -0.6,-0.6 -1.1,-1.2 -1.7,-1.9 -0.1,-0.2 -0.7,-0.4 -0.1,-0.8 0,0 -0.2,-0.4 -0.2,-0.6 -0.1,-0.1 -0.1,-0.3 -0.2,-0.4 -0.1,-0.6 -0.2,-1.1 -0.3,-1.7 0,0.5 0.1,1 0.1,1.5 0,0.3 0,0.6 0,0.8 -0.2,-0.2 -0.4,-0.3 -0.5,-0.5 -0.7,-0.9 -1.4,-1.8 -2.1,-2.7 -0.9,-1.2 -1.7,-2.3 -2.5,-3.6 -0.2,-0.3 -0.1,-0.8 -0.1,-1.2 0.1,0 0.2,0 0.2,0.1 0.3,0.4 0.6,0.9 0.9,1.4 0.5,0.6 1,0.8 1.6,0.3 1.1,-1 2.2,-1.9 3.3,-2.8 0.8,-0.7 1.6,-1.5 2.5,-2.1 0.4,-0.3 1,-0.3 1.5,-0.2 0.7,0.2 1.4,0.3 1.8,1.2 0,0 0,0 0,0 1.3,0.1 1.2,1.5 1.7,2.4 0,0 0,0.1 0,0.1 0.5,0.7 1,1.4 1.5,2.1 0.2,0.3 0.4,0.7 0.6,1 0.5,0.6 1,1.2 1.4,1.9 0.7,1 1.4,1.9 2,2.8 0.2,0 0.2,0 0.3,0.1 z"
               id="path903"
               style="fill:#ffffff"
               inkscape:connector-curvature="0" /></g></g><g
           id="g923"
           style="fill:#ffffff"><g
             id="g921"
             style="fill:#ffffff"><path
               d="m 245,213 c 0.2,-0.3 0.4,-0.7 0.6,-1 0.1,-0.2 0.1,-0.4 0.2,-0.5 0,0 0.1,0 0.2,0.1 0.1,0.1 0.1,0.2 0.1,0.2 0.1,0 0.2,0 0.3,0 -0.1,0.1 -0.4,0.1 -0.4,0.2 -0.2,0.2 -0.3,0.5 -0.5,0.8 0,0 0.1,0.1 0.1,0.1 0.1,0 0.1,-0.1 0.2,-0.1 0,-0.1 0,-0.1 0,-0.2 0,0 0.1,0.1 0.1,0.1 0,0.1 0,0.2 -0.1,0.2 l -0.2,0.6 z"
               id="path909"
               style="fill:#ffffff"
               inkscape:connector-curvature="0" /><path
               d="m 301.6,58.7 c 0.3,-0.2 0.6,-0.5 0.9,-0.7 1,-0.7 2,-1.6 3.1,-2.1 1.3,-0.6 2.7,-0.5 3.9,-0.1 1.8,0.6 3.5,1.4 3.6,3.5 0,0.1 0.3,0.2 0.5,0.3 0.1,-0.1 0.2,-0.2 0.2,-0.4 0.1,-0.2 0,-0.5 0.1,-0.7 0.3,-0.9 0.6,-1.8 1,-2.7 0.2,-0.6 0.5,-1.3 0.9,-1.7 0.4,-0.4 1.1,-0.6 1.8,-0.7 0.7,0 1.5,0.1 2,0.4 1.4,0.8 2.9,1.6 4.2,2.5 1,0.7 1.9,1.4 2.9,2.1 1.2,0.9 2.4,1.7 3.6,2.6 1.3,0.9 2.6,1.9 4,2.8 2,1.4 4.1,1.7 6,0.3 1,-0.7 2,-1.6 2.7,-2.6 1.4,-2.1 2.6,-4.3 4,-6.4 0.8,-1.2 1.6,-2.3 2.4,-3.5 0.1,-0.1 0.4,-0.1 0.5,0 1.3,1.4 2.6,2.9 3.8,4.4 1,1.3 1.9,2.7 2.6,4.2 0.7,1.6 1.2,3.2 1.8,4.9 0.6,1.6 1,3.2 0.9,4.9 -0.2,1.8 -0.3,3.6 -0.8,5.3 -0.4,1.6 -1,3.4 -2.5,4.4 -0.7,0.4 -1.3,0.9 -2,1.3 -0.7,0.4 -1.3,0.8 -2.1,1.1 -1.5,0.5 -3.1,1.2 -4.8,0.6 -1.1,-0.4 -2.3,-0.7 -3.2,-1.3 -1,-0.7 -2,-1.6 -2.8,-2.5 -1,-1.2 -2.1,-2.4 -2.7,-3.8 -0.7,-1.5 -1.3,-3.1 -0.9,-4.8 0.1,-0.6 0.4,-1.1 0.5,-1.7 0.1,-0.3 0,-0.5 0.1,-0.8 -0.3,0.1 -0.6,0.2 -0.7,0.4 -0.3,0.4 -0.4,0.9 -0.6,1.3 -1,2 -2.1,4.1 -3.1,6.1 -0.3,0.6 -0.7,1.1 -1,1.6 -0.4,0.6 -0.9,1.2 -1.1,1.9 -0.5,1.9 0,3.7 0.8,5.4 0,0.1 0.2,0 0.3,0.1 0.2,0.1 0.6,0.1 0.7,0.3 0.9,1.3 1.7,2.7 2.7,3.8 1.5,1.7 3.4,3.1 5.5,3.8 1.1,0.4 2.2,0.6 3.3,0.2 0.6,-0.2 1.2,-0.5 1.8,-0.5 1.5,-0.1 2.4,-1 3.4,-2 0.8,-0.8 0.8,-2 1.7,-2.7 0.2,-0.1 0.2,-0.5 0.4,-0.7 0.4,-0.5 0.7,-1 1.1,-1.5 0.2,-0.3 0.4,-0.7 0.9,-0.5 0.1,0 0.2,0 0.3,0 0.3,-0.3 0.6,-0.6 0.9,-0.9 1.1,-1.6 2.2,-3.2 3.4,-4.8 0.6,-0.9 1.3,-1.9 1.9,-2.8 0.7,-1 1.3,-1.9 2,-2.9 0.4,-0.7 0.8,-1.4 1.2,-2 l 1.4,-2.1 c 0.2,-0.3 0.5,-0.7 0.7,-1 0.2,-0.6 0.2,-1.2 0.3,-1.8 0.2,-1.3 0.5,-2.5 0.7,-3.8 0.3,-1.7 0.2,-3.4 -0.3,-5 -0.3,-1 -0.6,-2 -1,-3 -0.6,-1.7 -1.2,-3.4 -2.1,-5 -0.6,-1.2 -1.5,-2.4 -2.5,-3.5 -1.8,-2.1 -3.7,-4.2 -5.6,-6.2 -1.1,-1.2 -2.3,-2.2 -3.6,-3.3 -1.4,-1.2 -2.7,-2.4 -4.7,-2.9 -0.6,-0.2 -1.4,0 -2,0.1 -2.2,0.5 -2.9,2.2 -4.1,3.5 -0.8,1 -1.5,2.1 -2.3,3.1 -0.9,1.4 -1.9,2.7 -2.8,4.1 -0.1,0.1 0.1,0.4 0.1,0.6 0.1,-0.1 0.2,-0.2 0.3,-0.3 0.4,-0.4 0.7,-0.8 1.1,-1 1.7,-1 3.1,-0.4 4.4,0.4 1.5,1 2.9,2.2 4.3,3.4 1.1,0.9 2.1,2 3.2,3 0.1,0.1 0.1,0.3 0,0.4 -0.7,0.8 -1.4,1.5 -2,2.2 -0.5,0.6 -1.3,1.1 -2.2,1.4 -0.9,0.3 -1.8,0.4 -2.5,0.2 -1.4,-0.6 -2.8,-1.3 -4,-2.2 -1.8,-1.3 -3.5,-2.8 -5.3,-4.1 -1.7,-1.2 -3.5,-2.5 -5.3,-3.6 -1.4,-0.8 -2.7,-1.8 -4.5,-2 -1.5,-0.2 -3.4,0.4 -4.1,1.9 -0.7,1.5 -1.4,2.9 -2,4.4 -0.3,0.7 -0.7,1.3 -1,2 -0.2,0.6 -0.4,1.2 -0.6,1.7 -0.5,1.2 -0.9,2.3 -1.4,3.5 -0.1,0.1 -0.2,0.2 -0.3,0.3 -0.1,-0.1 -0.2,-0.2 -0.3,-0.3 -0.2,-0.5 -0.4,-1 -0.7,-1.4 -0.4,-0.5 -0.9,-0.9 -1.2,-1.4 -0.8,-1.4 -0.8,-3 -0.9,-4.6 -0.1,-1.3 0,-2.6 0.4,-3.9 0.2,-0.8 -0.4,-0.6 -1,-0.4 -0.1,0 -0.1,0.1 -0.2,0.1 -0.8,0.5 -1.6,0.9 -2.5,1.4 -0.8,0.5 -1.7,0.9 -2.4,1.5 -0.7,0.6 -1.2,1.5 -1.8,2.2 -0.4,0.5 -0.7,1 -0.9,1.6 -0.4,1.1 -0.6,2.2 -1,3.3 -0.4,1.1 -1.1,2 -1.5,3.1 -0.7,1.8 -1.2,3.7 -1.8,5.5 -0.1,0.4 -0.2,0.9 -0.4,1.3 -0.2,0.7 -0.6,1.4 -0.8,2.1 -0.2,0.8 -0.2,1.6 -0.4,2.3 -0.3,1.3 0.5,2.2 1.2,3 0.3,0.4 0.6,0.5 0.4,1.1 -0.4,1 -0.9,2 -1.3,3 -0.2,0.4 -0.6,0.9 -0.4,1.1 0.4,0.6 0,0.9 -0.4,1.2 -1.8,1.3 -3.7,2 -5.9,2 -3.6,0 -6.7,-1.1 -9.9,-2.3 -0.9,-0.3 -1.8,-0.6 -2.6,-1 -0.2,-0.1 -0.3,-0.2 -0.5,-0.4 0.1,-0.1 0.2,-0.3 0.4,-0.4 0.8,-0.6 1.7,-1.2 2.5,-1.7 0.7,-0.4 1.3,-0.8 2,-1.2 0.3,-0.2 0.8,0.1 1.1,-0.1 0.5,-0.3 0.9,-0.8 1.3,-1.2 1.4,-1.5 2.9,-2.9 4.3,-4.4 0.8,-0.9 1.6,-1.8 2.3,-2.9 0.7,-1.1 0.8,-2.3 0.4,-3.4 -0.7,-1.7 -3.3,-3.1 -5.6,-2.5 -0.7,0.2 -1.5,0.4 -2.2,0.8 -0.8,0.4 -1.5,0.9 -2.2,1.4 -0.7,0.5 -1.3,1 -1.9,1.6 -0.4,0.4 -0.6,0.9 -1,1.3 -1.4,1.4 -2.2,3 -2.8,4.6 -0.5,1.2 -0.8,2.4 -1.1,3.5 -0.5,1.6 -1,3.2 -1.5,4.8 -0.2,0.8 -0.2,1.6 -0.3,2.3 -0.1,0.8 -0.4,1.7 -0.3,2.5 0,1.4 -0.1,2.8 -0.5,4.1 -0.2,0.6 -0.6,1.4 0.2,1.7 2.4,0.9 4.7,1.9 7.2,2.7 2,0.6 4.2,0.9 6.3,1.4 1.5,0.3 3,0.2 4.5,-0.4 0.8,-0.3 1.6,-0.7 2.3,-1.2 1.3,-0.8 2,-2.1 2.4,-3.4 0.6,-1.7 1.2,-3.5 1.7,-5.2 0.3,-0.8 0.5,-1.7 0.8,-2.5 0.5,-1.6 1.1,-3.2 1.6,-4.8 0.1,-0.3 0.3,-0.8 0.3,-0.8 0.5,0 1.1,0.2 1.6,0.3 0.6,0.2 1.2,0.6 1.9,0.8 0.8,0.3 1.7,0.5 2.5,0.8 1,0.3 1.9,0.6 2.9,0.8 1.1,0.3 2.2,0.6 3.2,1 1.1,0.4 2.2,0.9 3.2,1.5 0.7,0.4 1.2,0.9 1.7,1.5 0.2,0.2 0,0.8 0.1,1.2 0.1,0.3 0.3,0.4 0.5,0.7 0.2,-0.2 0.4,-0.4 0.5,-0.6 0.6,-1.4 1.1,-2.8 1.8,-4.1 0.9,-1.8 1.9,-3.5 1.8,-5.6 -0.1,-1.2 0.1,-2.5 -1.1,-3.2 -1.1,-0.7 -2.3,-1.3 -3.5,-1.8 -1.7,-0.7 -3.5,-1.2 -5.2,-1.8 -2.2,-0.8 -4.3,-1.4 -6.4,-2.1 -1.4,-0.4 -2.7,-1 -3.5,-2 -0.6,-0.9 -0.3,-1.8 0.3,-2.2 z m -23.2,15.7 c -0.7,0.6 -1.3,1.2 -2,1.7 -0.2,0.1 -0.5,0.3 -0.6,0.3 -0.2,-0.1 -0.3,-0.3 -0.3,-0.5 -0.3,-2.2 1.2,-3.8 2.9,-5.3 1,-0.9 2.1,-1.1 3.2,-0.7 0.5,0.2 0.9,0.6 1.3,1 l -1.2,1.3 -0.1,-0.1 c -1.1,0.7 -2.2,1.4 -3.2,2.3 z"
               id="path911"
               style="fill:#ffffff"
               inkscape:connector-curvature="0" /><path
               d="m 227.2,144.7 c 2.1,0.3 4.2,0.3 6.1,-1.1 0.6,-0.5 1.3,-1 1.8,-1.6 0.6,-0.7 1,-1.6 1.6,-2.4 1.1,-1.5 1.7,-3.1 1.6,-5 -0.1,-1.2 -0.2,-2.3 -0.1,-3.5 0,-0.9 0.2,-1.8 0.3,-2.7 0,-0.2 0.2,-0.6 0.3,-0.6 1.1,0.1 2.1,0.2 3.1,0.4 1.4,0.2 2.7,0.2 3.9,-0.7 0.2,-0.1 0.1,-0.5 0.3,-0.6 1,-0.5 1,-1.5 1.1,-2.3 0.2,-2.1 0.4,-4.3 0.6,-6.5 0,-0.3 0,-0.6 0.1,-1 0.2,-0.8 0.5,-1.7 0.5,-2.5 0,-0.8 0.3,-1.4 1.2,-1.2 1.9,0.3 3.8,0.5 5.6,1.1 0.8,0.2 1.4,1 2.2,1.5 0.2,0.1 0.4,0.3 0.7,0.3 0.1,0 0.4,-0.2 0.4,-0.3 0.2,-0.7 0.3,-1.5 0.5,-2.3 0.1,-0.4 0,-0.9 0.1,-1.4 0.3,-1.9 0.7,-3.8 1,-5.7 0.2,-0.9 -0.1,-1.7 -0.6,-2.4 -0.7,-1.1 -1.9,-1.5 -3.1,-1.9 -2,-0.5 -4.2,-0.8 -6.3,-1.2 -2,-0.3 -3.9,-0.6 -5.9,-0.9 -1.1,-0.2 -2.2,-0.4 -3.3,-0.6 -1.1,-0.2 -2.2,-0.3 -3.3,-0.5 -1.7,-0.3 -3.4,-0.6 -5.1,-0.8 -1.2,-0.1 -2.5,-0.1 -3.7,-0.3 -2.5,-0.3 -5,-0.7 -7.6,-1 -1.7,-0.2 -3,-0.7 -3.5,-2.3 -0.2,-0.5 -0.2,-1.1 -0.2,-1.6 0.1,-1.1 0.3,-2.1 0.4,-3.2 0,-0.2 -0.2,-0.3 -0.4,-0.4 -0.1,0 -0.4,0.2 -0.5,0.4 -0.2,0.8 -0.4,1.6 -0.5,2.4 -0.1,1 -0.1,2.1 -0.2,3.2 -0.1,0.8 -0.2,1.7 -0.3,2.5 -0.2,1.7 -0.4,3.4 -0.4,5 0,1 0,1.9 0.2,2.8 0.1,0.7 0.3,1.5 0.7,2 0.5,0.6 1.3,0.9 2.1,1.2 0.5,0.2 1.1,0.4 1.7,0.6 0.4,0.1 0.8,0.1 1.2,0.2 2.6,0.2 5.2,0.4 7.7,0.7 1.2,0.1 2.4,0.2 3.6,0.3 0.8,0.1 1.6,0.1 2.5,0.2 1.3,0.2 2.5,0.4 3.8,0.7 1.3,0.2 2.6,0.4 3.9,0.7 1.3,0.2 2.6,0.4 3.9,0.7 0.3,0.1 0.5,0.2 0.7,0.3 -0.5,0.8 -0.8,1.7 -1.4,2.2 -0.6,0.5 -1.5,0.7 -2.3,0.7 -1.1,0.1 -2.2,-0.1 -3.3,-0.2 -2.9,-0.5 -5.7,-0.9 -8.6,-1.3 -1.4,-0.2 -2.7,-0.4 -4.1,-0.5 -2.3,-0.1 -4.7,-0.6 -7.2,0 -2.8,0.6 -4.9,2.1 -6,4.9 -0.5,1.3 -0.6,2.7 -0.7,4.1 -0.1,0.9 0.1,1.8 0.1,2.6 0,0.7 0,1.4 0.1,2 0.2,1.5 0.4,2.9 0.6,4.3 0.2,1.2 0.2,2.5 0.4,3.7 0,0.2 0.3,0.3 0.5,0.4 0.1,-0.1 0.3,-0.3 0.3,-0.4 -0.1,-0.7 -0.2,-1.3 -0.2,-1.9 0,-0.8 0.1,-1.6 0.2,-2.4 0.1,-1.4 0.7,-2.6 1.7,-3.4 1,-0.8 2.3,-1.2 3.5,-1.7 0.1,0 0.5,0.3 0.5,0.5 0,0.8 -0.1,1.5 -0.1,2.3 0,1.2 -0.1,2.4 0,3.5 0.1,1.8 0.4,3.6 0.6,5.3 0.1,0.8 0.3,1.7 0.6,2.4 0.8,1.5 1.7,2.9 3.2,3.8 0.4,0 0.8,0.3 1.2,0.4 z m 5.6,-13.2 c -1.7,1.5 -3.6,1.5 -5.6,1.2 -1.3,-0.2 -2.3,-1.1 -2.9,-2.2 -0.4,-0.7 -0.7,-1.4 -1,-2.2 -0.2,-0.5 -0.1,-1.1 -0.1,-1.7 0,-0.1 0.4,-0.4 0.6,-0.5 0.9,-0.1 1.7,-0.2 2.6,-0.1 1.1,0.1 2.2,0.3 3.2,0.4 1,0.1 2,0.2 3,0.3 l 3.1,0.4 c 0.5,0.1 0.5,0.2 0.2,0.6 -0.2,0.3 -0.4,0.6 -0.5,0.8 -0.9,1.1 -1.6,2.2 -2.6,3 z"
               id="path913"
               style="fill:#ffffff"
               inkscape:connector-curvature="0" /><path
               d="m 246.6,185.1 c 0.3,-1.5 0.2,-3 -0.3,-4.6 -0.7,-2.3 -1.3,-4.5 -1.9,-6.9 -0.3,-1.1 -0.5,-2.3 -0.8,-3.5 -0.3,-1.5 -0.6,-3 -1,-4.5 -0.6,-2.2 -1.5,-4.3 -2.9,-6.1 -0.8,-1 -1.9,-1.9 -3.1,-2.6 -1.2,-0.7 -2.7,-1.2 -4.1,-1.5 -1.5,-0.4 -3.1,-0.6 -4.7,-0.7 -1.3,-0.1 -2.6,0.2 -3.9,0.2 -0.4,0 -1,0 -1,-0.2 -0.2,-0.5 -0.2,-1.2 -0.3,-1.8 -0.1,-1.8 -0.1,-3.6 -0.2,-5.4 0,-0.7 -0.4,-1.4 -0.6,-2.1 -0.4,-1.4 -0.9,-2.8 -2,-3.8 -1.6,-1.5 -3.5,-2.5 -5.8,-2.6 -1.7,-0.1 -3.4,0.1 -5.1,0.1 -2.1,0.1 -4.2,0.2 -6.4,0.4 -0.8,0 -1.5,-0.1 -2.2,-0.2 -0.3,0 -0.7,-0.2 -0.1,-0.6 0.1,0 0.1,-0.2 0.1,-0.3 -0.4,-0.5 -0.8,-0.9 -1.1,-1.4 -0.5,-0.8 -1,-1.6 -1.4,-2.5 -0.5,-1.3 -0.5,-2.8 -0.3,-4.3 0.4,-2.2 1.2,-4.2 3.3,-5.4 0.7,-0.4 1.5,-1 2.3,-0.5 0.5,0.3 0.8,0.7 1.3,1.1 0.1,0.1 0.3,0 0.3,0 0.1,-0.1 0.1,-0.3 0,-0.4 -0.5,-0.7 -0.7,-1.7 -1.8,-1.7 -0.9,0 -1.7,-0.3 -2.5,-0.1 -0.9,0.2 -1.9,1.1 -2.8,0.5 0,0 -0.2,0.1 -0.3,0.1 -0.8,0.3 -1.3,1 -1.8,1.7 -0.8,1 -1.3,2 -1.3,3.2 0,0.6 -0.1,1.1 -0.1,1.7 0,0.1 0,0.1 0,0.2 0.3,0.5 0.7,1 0.9,1.5 0.5,0.9 0.9,1.9 1.4,2.8 0.4,0.7 1,1.3 1.4,2 0.3,0.5 0.7,1 0.8,1.6 0.3,1.7 0.5,3.4 0.8,5 0.2,1.1 0.6,2.1 0.8,3.2 0.1,0.7 0.2,1.4 0.3,2.1 0.1,0.7 0.3,1.4 0.7,2.1 0.5,0.8 0.6,1.9 0.9,2.8 0.1,0.2 0.1,0.4 0.1,0.6 0.3,0.7 0.7,1.4 0.9,2.2 0.4,1.2 0.8,2.5 1.3,3.6 0.4,0.9 1.1,1.6 1.6,2.4 0.9,1.4 1.7,2.7 2.6,4.1 0.3,0.4 0.7,0.9 1.1,0.9 1.4,0.3 2.9,0.5 4.3,0.5 1.9,0 3.8,-0.3 5.6,-0.5 1.4,-0.2 2.8,-0.5 4.2,-0.8 1.4,-0.2 2.9,-0.5 4.3,-0.6 1.6,-0.1 3.1,0 4.7,0.2 1.2,0.1 2.4,0.4 3.5,0.8 1.3,0.6 2.5,1.5 3.8,2.2 1.1,0.6 2,1.5 2.3,2.7 0.2,0.6 0,1.3 -0.2,1.9 -0.3,1 -0.4,2.2 -1,3 -0.6,1 -1.6,1.7 -2.6,2.4 -1.2,0.9 -2.7,1.1 -4.2,1.3 -1.9,0.3 -3.8,0.5 -5.7,0 -1.1,-0.3 -2.2,-0.5 -3.2,-0.9 -1,-0.4 -1.9,-1 -2.7,-1.7 -0.3,-0.2 -0.4,-0.6 -0.6,-0.9 -0.2,-0.2 -0.6,-0.4 -0.8,-0.6 -0.6,-0.7 -1.1,-1.4 -1.5,-2.2 -0.3,-0.5 -0.4,-1.2 -0.7,-1.8 -0.1,-0.2 -0.3,-0.3 -0.5,-0.4 -0.1,0.2 -0.2,0.5 -0.3,0.7 0,0.1 0,0.2 0.1,0.3 0.5,1.4 1.1,2.7 1.7,4.1 0.4,0.9 0.8,1.8 1.2,2.8 0.3,0.8 0.7,1.5 1.1,2.3 0.5,1.1 0.8,2.4 1.8,3.3 0.8,0.6 1.2,1.6 1.9,2.2 0.9,0.8 2,1.4 3,2 0.4,0.3 0.9,0.5 1.4,0.6 1.1,0.2 2.2,0.4 3.2,0.6 0.3,0.1 0.7,0.2 1,0.2 0.7,0 1.4,-0.1 2.1,-0.1 0.7,-0.1 1.4,-0.3 2.1,-0.4 0.1,0 0.2,0 0.2,0 0.3,0 0.6,0 0.8,-0.1 0.9,-0.4 1.8,-0.7 2.7,-1.1 0.6,-0.2 1.2,-0.5 1.7,-0.9 0.6,-0.5 1.1,-1.2 1.6,-1.9 0.2,-0.3 0.5,-0.9 0.6,-1.6 z m -25.9,-31.3 c 0.4,0.4 0.7,1 1,1.6 0,0 -0.1,0.1 -0.2,0.1 -1.2,0.2 -2.3,0.3 -3.5,0.5 -1.1,0.2 -2.2,0.4 -3.3,0.5 -1.1,0.1 -2.3,0.2 -3.4,0.2 -1.1,0 -2.2,-0.2 -3.3,-0.4 -0.6,-0.1 -1.1,-0.3 -1.6,-0.6 -0.9,-0.6 -1.8,-1.2 -2.6,-2 -0.3,-0.3 -0.3,-1 -0.4,-1.5 0,-0.1 0.3,-0.3 0.4,-0.3 2.4,-0.2 4.8,-0.4 7.2,-0.5 1.2,-0.1 2.3,-0.2 3.5,-0.2 0.8,0 1.6,0.2 2.3,0.4 0.8,0.2 1.6,0.6 2.4,0.9 v 0.1 c 0.4,0.4 1,0.7 1.5,1.2 z"
               id="path915"
               style="fill:#ffffff"
               inkscape:connector-curvature="0" /><path
               d="m 258.3,85.8 c 0.3,0 0.4,0 0.5,0 1.9,0.5 3.7,1 5.6,1.6 2.2,0.7 4.5,1.4 6.6,2.2 0.9,0.4 1.7,1 2.5,1.4 1.5,0.9 1.7,2.4 1.4,4 -0.4,1.9 -0.9,3.8 -1.3,5.7 -0.4,2.2 -0.8,4.4 -1.2,6.7 0,0.1 -0.2,0.3 -0.3,0.4 -0.1,-0.2 -0.3,-0.3 -0.2,-0.5 0,-0.6 0.1,-1.2 0.2,-1.7 0.2,-1 -0.5,-2.8 -1.4,-3.3 -0.9,-0.5 -1.8,-1 -2.8,-1.4 -0.6,-0.3 -1.4,-0.4 -2.1,-0.6 -2.9,-0.9 -5.8,-1.8 -8.7,-2.6 -2.1,-0.6 -4.3,-1 -6.4,-1.4 -1.7,-0.3 -3.4,-0.5 -5.1,-0.7 -2.7,-0.4 -5.4,-0.7 -8.1,-1 -1.4,-0.2 -2.7,-0.2 -4,-0.4 -1.9,-0.2 -3.7,-0.4 -5.6,-0.7 -1.3,-0.2 -2.7,-0.3 -3.9,-0.6 -1.7,-0.5 -3.4,-1.1 -4.9,-2 -0.7,-0.4 -1.1,-1.3 -1,-2.4 0.1,-1.9 0.1,-3.9 0.3,-5.9 0.2,-1.7 0.5,-3.4 0.8,-5.1 0.4,-2.2 1,-4.3 1.5,-6.4 0.4,-1.6 0.8,-3.2 1.3,-4.8 0.1,-0.3 0.4,-0.5 0.7,-0.8 0,0.2 0.1,0.4 0.1,0.7 -0.2,1 -0.4,2.1 -0.7,3.1 -0.3,1.1 -0.8,2.2 -1.1,3.4 -0.4,1.8 -1,3.7 -0.2,5.2 0.5,0.8 1.4,1.4 2.3,1.8 1.2,0.5 2.5,0.8 3.8,1 1.5,0.3 3.1,0.6 4.7,0.8 2,0.3 4,0.5 6,0.8 1.8,0.2 3.6,0.4 5.3,0.6 2.4,0.3 4.7,0.8 7.1,1.2 1.3,0.2 2.6,0.4 3.9,0.6 1.4,0.3 2.8,0.6 4.1,0.9 0.3,0.1 0.4,0.3 0.3,0.2 z"
               id="path917"
               style="fill:#ffffff"
               inkscape:connector-curvature="0" /><path
               d="m 266,86.2 c -0.1,0 -0.1,0 -0.1,0 0,-0.2 -0.1,-0.5 0,-0.7 0.4,-0.8 0.1,-1.4 -0.1,-2.1 -0.3,-1 -1.4,-1.1 -2.3,-1.3 -1,-0.3 -2.1,-0.3 -3.1,-0.5 -0.5,-0.1 -0.9,-0.3 -1.3,-0.4 -0.7,-0.1 -1.3,-0.2 -2,-0.3 -0.2,0 -0.4,-0.1 -0.5,-0.2 -0.1,-0.6 -0.2,-1.2 -0.2,-1.8 0.1,-0.8 0.2,-1.7 0.5,-2.5 0.1,-0.2 -0.1,-0.8 0.6,-0.6 0,0 0.2,-0.4 0.3,-0.6 0.1,-0.1 0.1,-0.3 0.2,-0.4 0.4,-0.4 0.8,-0.8 1.2,-1.2 -0.4,0.3 -0.8,0.7 -1.2,1 -0.2,0.2 -0.5,0.3 -0.7,0.5 0,-0.2 0,-0.5 0.1,-0.7 0.3,-1.1 0.6,-2.2 0.9,-3.3 0.4,-1.4 0.7,-2.8 1.2,-4.3 0.1,-0.3 0.6,-0.5 0.9,-0.8 0,0.1 0.1,0.2 0.1,0.3 -0.2,0.5 -0.3,1.1 -0.5,1.6 -0.2,0.7 -0.1,1.3 0.8,1.4 1.4,0.2 2.8,0.5 4.2,0.8 1.1,0.2 2.2,0.3 3.2,0.6 0.5,0.2 0.9,0.6 1.1,1 0.3,0.6 0.6,1.3 0.2,2.2 0,0 0,0 0,0 0.8,1.1 -0.4,1.9 -0.8,2.9 0,0 0,0 -0.1,0.1 -0.2,0.8 -0.5,1.7 -0.7,2.5 -0.1,0.4 -0.3,0.7 -0.4,1.1 -0.2,0.8 -0.4,1.5 -0.6,2.3 -0.3,1.1 -0.6,2.2 -1,3.3 0.2,-0.1 0.2,0 0.1,0.1 z"
               id="path919"
               style="fill:#ffffff"
               inkscape:connector-curvature="0" /></g></g><g
           id="g939"
           style="fill:#ffffff"><g
             id="g937"
             style="fill:#ffffff"><path
               d="m 377.5,107.4 c 0.4,-0.1 0.8,-0.1 1.2,-0.2 0.2,0 0.4,-0.1 0.6,-0.2 0,0 0.1,0.1 0.1,0.2 0,0.1 -0.1,0.2 -0.1,0.2 0.1,0.1 0.1,0.2 0.2,0.3 -0.1,-0.1 -0.3,-0.2 -0.4,-0.2 -0.3,0 -0.6,0.1 -0.9,0.1 0,0 0,0.1 0,0.2 0.1,0 0.1,0.1 0.2,0.1 0.1,0 0.1,-0.1 0.2,-0.1 0,0 0,0.1 0,0.1 -0.1,0 -0.2,0.1 -0.2,0.1 l -0.6,0.2 z"
               id="path925"
               style="fill:#ffffff"
               inkscape:connector-curvature="0" /><path
               d="m 533.4,55.3 c 0.3,0.1 0.7,0.2 1.1,0.3 1.2,0.4 2.5,0.6 3.6,1.1 1.3,0.6 2.1,1.8 2.5,3 0.6,1.8 1.1,3.6 -0.5,5 -0.1,0.1 0,0.4 0.1,0.6 0.1,0 0.3,0 0.4,-0.1 0.2,-0.1 0.4,-0.3 0.6,-0.3 0.9,-0.3 1.8,-0.7 2.8,-0.9 0.6,-0.2 1.3,-0.4 1.9,-0.3 0.5,0.1 1.1,0.5 1.6,1 0.5,0.6 0.9,1.2 0.9,1.8 0.2,1.6 0.5,3.3 0.7,4.9 0.1,1.2 0.1,2.4 0.2,3.6 0.1,1.5 0.2,3 0.3,4.4 0.1,1.6 0.2,3.2 0.3,4.9 0.1,2.4 1.2,4.2 3.5,4.8 1.2,0.3 2.5,0.5 3.7,0.4 2.5,-0.2 5,-0.6 7.5,-0.8 1.4,-0.1 2.8,-0.2 4.2,-0.3 0.1,0 0.3,0.3 0.3,0.4 -0.3,1.9 -0.6,3.8 -1.1,5.7 -0.4,1.6 -0.9,3.2 -1.6,4.6 -0.7,1.5 -1.8,2.9 -2.7,4.4 -0.8,1.5 -1.9,2.8 -3.3,3.8 -1.5,1 -3,2 -4.7,2.7 -1.6,0.7 -3.2,1.3 -5,0.8 -1.5,-0.5 -3.1,-0.9 -4.4,-1.7 -1.3,-0.8 -2.9,-1.7 -3.5,-3.4 -0.4,-1.1 -0.9,-2.2 -1,-3.4 -0.1,-1.2 0,-2.5 0.2,-3.8 0.3,-1.6 0.6,-3.2 1.3,-4.5 0.7,-1.4 1.6,-2.9 3.2,-3.7 0.5,-0.3 1.1,-0.4 1.6,-0.6 0.2,-0.1 0.4,-0.3 0.7,-0.5 -0.3,-0.1 -0.5,-0.3 -0.8,-0.3 -0.5,0 -0.9,0.2 -1.4,0.3 -2.3,0.5 -4.5,0.9 -6.7,1.4 -0.6,0.1 -1.3,0.1 -1.9,0.2 -0.7,0.1 -1.5,0.1 -2.2,0.3 -1.8,0.8 -2.9,2.3 -3.7,4 0,0.1 0.1,0.2 0.1,0.3 0.1,0.2 0.3,0.5 0.2,0.7 -0.4,1.5 -1,3 -1.3,4.5 -0.4,2.3 -0.3,4.5 0.4,6.7 0.4,1.1 0.9,2.1 1.9,2.8 0.5,0.3 1.1,0.6 1.5,1.1 1,1.1 2.3,1.3 3.6,1.4 1.1,0.1 2.1,-0.6 3.2,-0.4 0.2,0.1 0.5,-0.1 0.8,-0.1 0.6,0 1.2,0 1.9,-0.1 0.4,0 0.8,-0.1 0.9,0.4 0,0.1 0.1,0.2 0.2,0.2 0.4,0 0.8,0.1 1.3,0.1 1.9,-0.1 3.9,-0.2 5.8,-0.4 1.1,-0.1 2.3,-0.2 3.4,-0.3 1.2,-0.1 2.3,-0.2 3.5,-0.3 0.8,-0.1 1.5,-0.2 2.3,-0.3 0.8,-0.1 1.7,-0.2 2.5,-0.3 0.4,0 0.9,0 1.2,-0.1 0.6,-0.2 1.1,-0.6 1.6,-0.9 1.1,-0.6 2.3,-1.1 3.4,-1.8 1.5,-0.8 2.7,-2 3.7,-3.4 0.6,-0.9 1.2,-1.7 1.8,-2.7 0.9,-1.6 1.9,-3.1 2.6,-4.8 0.6,-1.3 0.9,-2.7 1.2,-4.1 0.5,-2.7 1,-5.4 1.3,-8.2 0.2,-1.6 0.3,-3.3 0.3,-4.8 0.1,-1.8 0.1,-3.6 -0.7,-5.5 -0.3,-0.6 -0.8,-1.1 -1.4,-1.5 -1.7,-1.4 -3.6,-0.9 -5.3,-1 -1.3,-0.1 -2.6,0.1 -3.9,0.2 -1.7,0.1 -3.3,0.2 -4.9,0.4 -0.2,0 -0.3,0.3 -0.4,0.5 0.1,0 0.3,0.1 0.4,0.1 0.5,0.1 1,0 1.5,0.2 1.8,0.7 2.3,2.2 2.4,3.6 0.2,1.8 0.1,3.7 0,5.5 -0.1,1.5 -0.2,2.9 -0.3,4.3 0,0.1 -0.2,0.3 -0.3,0.3 -1,0 -2,-0.2 -3,-0.2 -0.7,0 -1.7,-0.3 -2.4,-0.8 -0.8,-0.5 -1.5,-1.1 -1.7,-1.8 -0.4,-1.5 -0.7,-3 -0.8,-4.5 -0.1,-2.2 0,-4.5 -0.1,-6.7 -0.1,-2.1 -0.2,-4.3 -0.4,-6.4 -0.2,-1.6 -0.3,-3.2 -1.3,-4.7 -0.8,-1.3 -2.4,-2.4 -4.1,-2 -1.6,0.4 -3.1,0.8 -4.7,1.2 -0.7,0.2 -1.5,0.3 -2.2,0.5 -0.6,0.2 -1.2,0.4 -1.7,0.6 -1.2,0.4 -2.4,0.7 -3.6,1.1 -0.1,0 -0.3,0 -0.5,0 0,-0.1 0,-0.3 0.1,-0.4 0.2,-0.5 0.5,-0.9 0.6,-1.4 0.2,-0.6 0.1,-1.3 0.3,-1.8 0.5,-1.5 1.9,-2.5 3,-3.6 0.9,-0.9 2,-1.6 3.3,-2.2 0.8,-0.3 0.2,-0.7 -0.3,-1 -0.1,0 -0.1,-0.1 -0.2,-0.1 -0.9,-0.4 -1.8,-0.7 -2.7,-1.1 -0.9,-0.3 -1.8,-0.8 -2.6,-1 -0.9,-0.2 -1.9,-0.1 -2.8,0 -0.6,0 -1.2,0.1 -1.8,0.3 -1.1,0.4 -2.1,0.9 -3.3,1.2 -1.1,0.3 -2.3,0.4 -3.3,0.8 -1.9,0.6 -3.7,1.3 -5.5,2 -0.4,0.2 -0.8,0.4 -1.3,0.6 -0.7,0.2 -1.4,0.4 -2.1,0.7 -0.7,0.3 -1.4,0.8 -2.1,1.1 -1.2,0.6 -1.4,1.7 -1.6,2.8 -0.1,0.5 0,0.8 -0.6,1 -1,0.3 -2.1,0.6 -3.1,0.8 -0.4,0.1 -1.1,0.1 -1.2,0.4 -0.3,0.6 -0.8,0.6 -1.2,0.4 -2.1,-0.5 -3.9,-1.6 -5.3,-3.4 C 506,57 505,53.9 504,50.6 c -0.3,-0.9 -0.6,-1.8 -0.9,-2.7 -0.1,-0.2 0,-0.4 0,-0.6 0.2,0 0.4,0 0.5,0.1 1,0.3 1.9,0.6 2.9,0.9 0.7,0.2 1.5,0.5 2.2,0.8 0.3,0.2 0.5,0.7 0.8,0.8 0.5,0.2 1.2,0.2 1.7,0.3 2,0.2 4.1,0.5 6.1,0.6 1.2,0.1 2.5,0.1 3.7,0 1.3,-0.1 2.3,-0.8 2.9,-1.8 0.9,-1.6 0.4,-4.5 -1.5,-5.9 -0.6,-0.5 -1.3,-0.9 -2,-1.2 -0.8,-0.4 -1.6,-0.6 -2.4,-0.8 -0.8,-0.2 -1.6,-0.4 -2.4,-0.5 -0.5,-0.1 -1.1,0 -1.6,0 -1.9,-0.2 -3.7,0.2 -5.4,0.7 -1.2,0.4 -2.3,0.9 -3.5,1.3 -1.6,0.6 -3.2,1.2 -4.7,1.9 -0.7,0.3 -1.3,0.8 -2,1.2 -0.7,0.4 -1.5,0.8 -2.1,1.3 -1.1,0.9 -2.2,1.7 -3.5,2.2 -0.6,0.3 -1.5,0.4 -1.2,1.2 0.8,2.4 1.5,4.9 2.4,7.2 0.8,1.9 1.8,3.9 2.8,5.8 0.7,1.4 1.8,2.5 3.1,3.2 0.8,0.4 1.6,0.8 2.4,1.1 0.7,0.3 1.4,0.3 2.1,0.3 0.7,0 1.4,-0.2 2,-0.5 1.7,-0.6 3.5,-1.3 5.2,-1.9 0.8,-0.3 1.6,-0.6 2.5,-0.9 1.6,-0.6 3.1,-1.2 4.7,-1.7 0.3,-0.1 0.8,-0.3 0.8,-0.2 0.3,0.5 0.6,1 0.7,1.5 0.2,0.7 0.3,1.3 0.5,2 0.3,0.8 0.6,1.6 0.9,2.5 0.4,0.9 0.8,1.9 1.1,2.8 0.4,1.1 0.9,2.1 1.2,3.1 0.4,1.1 0.6,2.3 0.8,3.4 0.1,0.8 0,1.5 -0.1,2.3 -0.1,0.3 -0.6,0.5 -0.8,0.8 -0.2,0.2 -0.1,0.5 -0.2,0.8 0.3,0 0.5,0.1 0.7,0 1.4,-0.4 2.9,-0.8 4.4,-1.1 2,-0.4 4,-0.7 5.5,-2.1 0.9,-0.8 2,-1.5 1.8,-2.9 -0.2,-1.3 -0.4,-2.6 -0.8,-3.8 -0.5,-1.7 -1.2,-3.5 -1.9,-5.2 -0.4,-1.1 -0.7,-2.2 -1.1,-3.2 l -1.2,-3.2 c -0.5,-1.4 -0.9,-2.8 -0.6,-4 1.3,-1 2.2,-1.4 2.9,-1.2 z m -26.7,-8.4 c -0.9,-0.2 -1.7,-0.3 -2.6,-0.5 -0.2,0 -0.6,-0.2 -0.6,-0.3 0,-0.2 0.1,-0.4 0.2,-0.6 1.5,-1.6 3.7,-1.4 5.9,-1 1.4,0.2 2.2,0.9 2.5,2.1 0.2,0.5 0,1.1 0,1.6 L 510.4,48 v -0.2 c -1.2,-0.2 -2.5,-0.6 -3.7,-0.9 z"
               id="path927"
               style="fill:#ffffff"
               inkscape:connector-curvature="0" /><path
               d="m 419.7,50.7 c 1.1,1.8 2.4,3.5 4.7,4.2 0.8,0.2 1.6,0.4 2.3,0.4 1,0 1.9,-0.3 2.9,-0.3 1.8,-0.1 3.5,-0.7 4.8,-1.9 0.8,-0.8 1.7,-1.5 2.7,-2.2 0.7,-0.5 1.5,-1 2.3,-1.5 0.2,-0.1 0.6,-0.2 0.6,-0.2 0.6,0.9 1.1,1.8 1.7,2.7 0.7,1.2 1.5,2.2 3,2.6 0.2,0.1 0.5,-0.2 0.7,-0.2 1,0.4 1.8,-0.1 2.5,-0.5 1.8,-1.2 3.6,-2.4 5.5,-3.6 0.3,-0.2 0.5,-0.4 0.8,-0.5 0.8,-0.4 1.6,-0.7 2.3,-1.2 0.7,-0.5 1.3,-0.6 1.7,0.1 1,1.6 1.9,3.4 2.7,5.2 0.3,0.8 0.1,1.8 0.2,2.6 0,0.3 0,0.5 0.2,0.7 0,0.1 0.4,0.2 0.5,0.2 0.7,-0.3 1.4,-0.7 2.1,-1.1 0.4,-0.2 0.7,-0.5 1.1,-0.8 1.7,-0.9 3.4,-1.8 5.1,-2.8 0.8,-0.4 1.3,-1.1 1.5,-2 0.4,-1.3 0,-2.5 -0.5,-3.6 -0.8,-1.9 -1.9,-3.8 -3,-5.7 -1,-1.7 -1.9,-3.4 -2.9,-5.1 -1.1,-2 -2.2,-3.9 -3.3,-5.9 -0.8,-1.5 -1.7,-2.9 -2.6,-4.4 -0.6,-1 -1.5,-2 -2.1,-3.1 -1.3,-2.2 -2.6,-4.3 -4,-6.5 -0.9,-1.4 -1.3,-2.8 -0.4,-4.2 0.3,-0.4 0.7,-0.8 1.1,-1.1 0.9,-0.6 1.9,-1.1 2.8,-1.7 0.1,-0.1 0.1,-0.4 0.1,-0.5 0,-0.1 -0.5,-0.2 -0.6,-0.1 -0.7,0.3 -1.5,0.7 -2.1,1.1 -0.9,0.6 -1.7,1.2 -2.6,1.8 -0.7,0.4 -1.5,0.8 -2.2,1.3 -1.4,0.9 -2.9,1.9 -4.2,2.8 -0.8,0.6 -1.5,1.2 -2.1,1.9 -0.5,0.5 -1,1.2 -1.1,1.8 -0.1,0.8 0.2,1.6 0.3,2.3 0.1,0.6 0.4,1.1 0.6,1.7 0.2,0.4 0.4,0.7 0.6,1.1 1.5,2.1 2.9,4.3 4.3,6.4 0.7,1 1.4,2.1 2,3.1 0.5,0.7 1,1.4 1.4,2.1 0.7,1.1 1.2,2.3 1.9,3.4 0.7,1.2 1.3,2.3 2,3.5 0.6,1.1 1.3,2.3 1.9,3.4 0.1,0.2 0.1,0.5 0.2,0.8 -0.9,0.1 -1.8,0.4 -2.6,0.3 -0.7,-0.2 -1.5,-0.8 -2,-1.3 -0.7,-0.8 -1.3,-1.8 -1.9,-2.7 -1.4,-2.5 -2.8,-5.1 -4.3,-7.6 -0.7,-1.2 -1.4,-2.4 -2.2,-3.5 -1.4,-1.9 -2.5,-4 -4.4,-5.6 -2.2,-1.8 -4.7,-2.7 -7.6,-1.6 -1.3,0.5 -2.5,1.3 -3.7,2 -0.8,0.5 -1.3,1.2 -2,1.8 -0.5,0.5 -1.1,0.9 -1.6,1.3 -1,1 -2,2.1 -3,3.1 -0.9,0.9 -1.8,1.7 -2.7,2.6 -0.1,0.1 0,0.4 0,0.6 0.2,0 0.5,0 0.5,0 0.5,-0.5 0.9,-1 1.4,-1.4 0.6,-0.5 1.4,-0.9 2,-1.3 1.1,-0.8 2.5,-1 3.7,-0.7 1.2,0.3 2.4,1 3.5,1.6 0.1,0.1 0.1,0.5 -0.1,0.7 -0.6,0.5 -1.3,0.9 -1.9,1.4 -0.9,0.7 -1.9,1.4 -2.8,2.2 -1.3,1.2 -2.6,2.4 -3.8,3.7 -0.6,0.6 -1.1,1.2 -1.5,2 -0.7,1.5 -1.2,3.1 -1,4.8 0.4,0.3 0.4,0.8 0.6,1.1 z m 13.9,-3.8 c -2.2,-0.4 -3.5,-1.8 -4.4,-3.5 -0.6,-1.2 -0.6,-2.4 -0.1,-3.6 0.3,-0.7 0.6,-1.5 1.1,-2.1 0.3,-0.4 0.8,-0.8 1.2,-1.2 0.1,-0.1 0.6,0 0.7,0.2 0.6,0.6 1.2,1.2 1.7,1.9 0.6,0.9 1.1,1.9 1.7,2.8 1.1,1.8 2.2,3.5 3.2,5.3 0.2,0.4 0.1,0.5 -0.4,0.5 -0.4,0 -0.7,0.1 -0.9,0.1 -1.4,-0.2 -2.6,-0.1 -3.8,-0.4 z"
               id="path929"
               style="fill:#ffffff"
               inkscape:connector-curvature="0" /><path
               d="m 400.2,91.1 c 1.3,-0.7 2.5,-1.6 3.4,-3 1.3,-2 2.7,-3.9 4.2,-5.9 0.7,-1 1.5,-1.9 2.2,-2.8 1,-1.2 2,-2.3 2.9,-3.5 1.4,-1.8 2.4,-3.9 2.9,-6.1 0.3,-1.3 0.3,-2.7 0.1,-4 -0.2,-1.4 -0.8,-2.8 -1.4,-4.1 -0.7,-1.4 -1.5,-2.8 -2.4,-4.1 -0.8,-1.1 -1.7,-2 -2.6,-3 -0.2,-0.3 -0.6,-0.8 -0.5,-1 0.3,-0.5 0.8,-0.9 1.2,-1.3 1.3,-1.2 2.7,-2.2 4.1,-3.4 0.5,-0.5 0.8,-1.2 1.3,-1.8 0.9,-1.2 1.6,-2.5 1.7,-3.9 0.2,-2.2 -0.3,-4.3 -1.6,-6.1 -1,-1.3 -2.2,-2.6 -3.3,-3.9 -1.4,-1.6 -2.8,-3.2 -4.3,-4.9 -0.5,-0.6 -0.9,-1.3 -1.2,-1.9 -0.1,-0.2 -0.3,-0.7 0.4,-0.4 0.1,0 0.3,-0.1 0.3,-0.1 0.1,-0.6 0.2,-1.2 0.4,-1.7 0.3,-0.9 0.6,-1.8 1.1,-2.6 0.7,-1.2 1.8,-2.1 3.2,-2.8 2,-1.1 4,-1.7 6.3,-0.9 0.8,0.3 1.7,0.6 1.8,1.5 0,0.6 -0.1,1.1 -0.1,1.7 0,0.1 0.2,0.2 0.2,0.2 0.1,0 0.3,-0.1 0.3,-0.2 0.2,-0.8 0.9,-1.6 0.2,-2.5 -0.5,-0.7 -0.8,-1.5 -1.5,-2 -0.7,-0.6 -2,-0.8 -2.1,-1.9 0,-0.1 -0.2,-0.1 -0.3,-0.1 -0.7,-0.4 -1.5,-0.4 -2.4,-0.4 -1.3,0 -2.4,0.3 -3.3,1 -0.4,0.3 -0.9,0.6 -1.4,1 -0.1,0 -0.1,0.1 -0.1,0.1 -0.2,0.6 -0.4,1.1 -0.6,1.7 -0.4,0.9 -1,1.8 -1.4,2.8 -0.3,0.8 -0.4,1.6 -0.7,2.4 -0.2,0.6 -0.3,1.2 -0.7,1.6 -1.1,1.3 -2.4,2.5 -3.5,3.8 -0.7,0.8 -1.3,1.8 -2,2.6 -0.9,1.1 -2.2,2 -2.7,3.4 -0.3,0.9 -1,1.6 -1.6,2.4 -0.1,0.2 -0.3,0.3 -0.4,0.5 -0.4,0.7 -0.7,1.4 -1.1,2.1 -0.7,1.1 -1.5,2.1 -2,3.3 -0.4,0.9 -0.6,1.8 -0.9,2.7 -0.5,1.6 -1.1,3.1 -1.5,4.6 -0.1,0.5 -0.3,1.1 -0.1,1.5 0.7,1.3 1.4,2.5 2.3,3.6 1.2,1.4 2.5,2.7 3.9,4 1,1 2.2,1.9 3.2,2.9 1.1,1 2.2,2 3.1,3.1 1,1.2 1.9,2.4 2.8,3.7 0.6,1 1.2,2.1 1.5,3.2 0.4,1.4 0.4,2.9 0.7,4.3 0.2,1.3 0.1,2.5 -0.7,3.5 -0.3,0.5 -1,0.8 -1.6,1.1 -1,0.5 -1.9,1.1 -2.9,1.2 -1.2,0.1 -2.4,-0.3 -3.5,-0.6 -1.5,-0.5 -2.6,-1.4 -3.7,-2.4 -1.4,-1.2 -2.7,-2.6 -3.5,-4.4 -0.5,-1 -1,-2 -1.3,-3.1 -0.3,-1 -0.3,-2.1 -0.4,-3.2 0,-0.3 0.3,-0.7 0.3,-1.1 0.1,-0.3 -0.1,-0.7 0,-1 0.2,-0.9 0.4,-1.8 0.8,-2.6 0.2,-0.6 0.7,-1.1 1,-1.7 0.1,-0.2 0,-0.5 0,-0.7 -0.2,0.1 -0.5,0.1 -0.7,0.2 -0.1,0 -0.2,0.2 -0.2,0.3 -0.7,1.3 -1.5,2.6 -2.2,3.9 -0.5,0.9 -1,1.7 -1.4,2.6 -0.4,0.7 -0.7,1.5 -1.1,2.2 -0.6,1.1 -1.4,2 -1.4,3.4 0,1 -0.5,2 -0.5,2.9 0,1.2 0.1,2.4 0.3,3.6 0.1,0.5 0.2,1 0.4,1.5 0.5,1 1,1.9 1.5,2.9 0.2,0.3 0.3,0.6 0.5,0.9 0.4,0.5 0.9,1.1 1.4,1.6 0.5,0.5 1.1,1 1.6,1.5 0.1,0.1 0.1,0.1 0.1,0.2 0.2,0.2 0.3,0.5 0.5,0.6 0.8,0.5 1.7,1 2.6,1.5 0.6,0.3 1.1,0.6 1.7,0.7 0.8,0.1 1.6,0 2.5,0 0.7,-0.4 1.3,-0.6 1.9,-0.9 z m 8.4,-39.7 c -0.1,0.6 -0.4,1.1 -0.6,1.7 0,0 -0.2,0 -0.2,-0.1 -0.8,-0.8 -1.7,-1.6 -2.5,-2.4 -0.8,-0.7 -1.7,-1.4 -2.5,-2.2 -0.8,-0.8 -1.6,-1.6 -2.3,-2.5 -0.7,-0.9 -1.3,-1.9 -1.8,-2.9 -0.3,-0.5 -0.5,-1.1 -0.5,-1.6 -0.1,-1.1 -0.2,-2.2 -0.1,-3.3 0,-0.4 0.6,-0.8 0.9,-1.2 0,-0.1 0.4,0 0.5,0.1 1.7,1.7 3.3,3.5 4.8,5.2 0.8,0.9 1.6,1.7 2.3,2.5 0.5,0.6 0.8,1.3 1.1,2 0.3,0.8 0.6,1.6 0.8,2.5 h -0.1 c 0.1,0.8 0.2,1.5 0.2,2.2 z"
               id="path931"
               style="fill:#ffffff"
               inkscape:connector-curvature="0" /><path
               d="m 485.2,38.4 c 0.2,0.2 0.3,0.3 0.3,0.4 0.8,1.8 1.5,3.6 2.2,5.4 0.8,2.2 1.7,4.4 2.4,6.6 0.3,0.9 0.3,1.9 0.4,2.9 0.2,1.7 -0.8,2.8 -2.2,3.6 -1.7,0.9 -3.5,1.7 -5.3,2.6 -2,1 -4,2.1 -6,3.2 -0.1,0.1 -0.3,0 -0.5,0 0.1,-0.2 0.1,-0.4 0.2,-0.5 0.5,-0.3 1,-0.7 1.5,-0.9 1,-0.5 1.9,-2.2 1.7,-3.2 -0.2,-1 -0.4,-2 -0.7,-3 -0.2,-0.7 -0.5,-1.3 -0.8,-2 -1.1,-2.8 -2.2,-5.6 -3.4,-8.4 -0.4,-1 -0.9,-2 -1.4,-3 -0.5,-1 -1,-2 -1.5,-2.9 -0.8,-1.5 -1.7,-2.9 -2.6,-4.4 -1.4,-2.3 -2.8,-4.6 -4.2,-6.9 -0.7,-1.2 -1.5,-2.3 -2.2,-3.4 -1,-1.6 -2,-3.2 -3,-4.8 -0.7,-1.1 -1.5,-2.2 -1.9,-3.4 -0.7,-1.6 -1.2,-3.3 -1.5,-5 -0.2,-0.8 0.4,-1.7 1.2,-2.3 1.6,-1.1 3.1,-2.4 4.8,-3.5 1.4,-0.9 2.9,-1.8 4.5,-2.5 1.9,-1 3.9,-1.9 6,-2.8 1.5,-0.7 3,-1.4 4.6,-2 0.3,-0.1 0.7,0 1,0 -0.2,0.2 -0.3,0.4 -0.5,0.5 -0.9,0.5 -1.9,1 -2.8,1.4 -1.1,0.5 -2.3,0.8 -3.3,1.3 -1.7,0.8 -3.6,1.5 -4.2,3.1 -0.4,0.9 -0.2,2 0.1,2.9 0.3,1.2 1,2.4 1.6,3.6 0.7,1.4 1.5,2.8 2.3,4.2 1,1.7 2.1,3.4 3.2,5.2 0.9,1.5 2,3 2.9,4.6 1.2,2.1 2.4,4.2 3.5,6.3 0.6,1.2 1.3,2.3 2,3.5 0.7,1.3 1.3,2.5 1.9,3.8 -0.2,-0.3 -0.3,-0.2 -0.3,-0.2 z"
               id="path933"
               style="fill:#ffffff"
               inkscape:connector-curvature="0" /><path
               d="m 489.7,44.7 c 0,-0.1 -0.1,-0.1 -0.1,-0.1 0.2,-0.2 0.3,-0.4 0.6,-0.4 0.9,-0.2 1.2,-0.8 1.6,-1.4 0.6,-0.9 0,-1.8 -0.4,-2.6 -0.4,-0.9 -1.1,-1.8 -1.6,-2.7 -0.2,-0.4 -0.3,-0.9 -0.5,-1.3 -0.3,-0.6 -0.7,-1.2 -1,-1.8 -0.1,-0.2 -0.2,-0.4 -0.1,-0.5 0.4,-0.4 0.8,-0.9 1.3,-1.2 0.7,-0.4 1.4,-0.8 2.2,-1.2 0.2,-0.1 0.6,-0.6 0.8,0.1 0,0 0.4,-0.1 0.6,-0.1 0.2,0 0.3,-0.1 0.5,-0.1 0.6,0 1.1,0.1 1.7,0.1 -0.5,-0.1 -1,-0.2 -1.5,-0.3 -0.3,-0.1 -0.5,-0.2 -0.8,-0.3 0.2,-0.1 0.4,-0.3 0.6,-0.4 1,-0.5 2.1,-0.9 3.1,-1.4 1.4,-0.6 2.7,-1.2 4.1,-1.7 0.3,-0.1 0.8,0.1 1.2,0.2 0,0.1 -0.1,0.2 -0.2,0.2 -0.5,0.2 -1,0.4 -1.5,0.6 -0.7,0.3 -1,0.8 -0.6,1.5 0.7,1.3 1.4,2.5 2,3.8 0.5,0.9 1.1,1.9 1.5,2.9 0.2,0.5 0.1,1.1 -0.1,1.5 -0.3,0.6 -0.7,1.3 -1.6,1.5 0,0 0,0 0,0 -0.4,1.3 -1.7,0.9 -2.7,1.1 0,0 -0.1,0 -0.1,0 -0.8,0.3 -1.6,0.7 -2.4,1 -0.4,0.1 -0.8,0.2 -1.1,0.4 -0.7,0.3 -1.4,0.7 -2.1,1 -1.1,0.4 -2.1,0.9 -3.2,1.3 0,0.2 -0.1,0.2 -0.2,0.3 z"
               id="path935"
               style="fill:#ffffff"
               inkscape:connector-curvature="0" /></g></g><g
           id="g955"
           style="fill:#ffffff"><g
             id="g953"
             style="fill:#ffffff"><path
               d="m 542.6,145.1 c 0.3,0.3 0.6,0.6 0.9,0.8 0.1,0.1 0.3,0.2 0.5,0.3 0,0 -0.1,0.1 -0.1,0.1 -0.1,0 -0.2,0 -0.2,0.1 0,0.1 0,0.2 -0.1,0.3 0,-0.2 0,-0.4 -0.1,-0.5 -0.2,-0.2 -0.4,-0.4 -0.7,-0.6 0,0 -0.1,0.1 -0.1,0.1 0,0.1 0,0.1 0.1,0.2 0,0 0.1,0.1 0.2,0.1 0,0 -0.1,0.1 -0.1,0 -0.1,0 -0.2,-0.1 -0.2,-0.1 l -0.5,-0.3 z"
               id="path941"
               style="fill:#ffffff"
               inkscape:connector-curvature="0" /><path
               d="m 680.5,234.5 c 0.1,0.3 0.3,0.7 0.4,1 0.5,1.2 1,2.3 1.3,3.5 0.4,1.4 0,2.7 -0.7,3.8 -1,1.6 -2.1,3.1 -4.2,2.7 -0.1,0 -0.3,0.3 -0.5,0.4 0.1,0.1 0.2,0.2 0.3,0.3 0.2,0.1 0.4,0.1 0.6,0.3 0.8,0.5 1.6,1 2.4,1.6 0.5,0.4 1.1,0.7 1.4,1.3 0.6,0.9 0.1,3 -0.6,3.8 -1.1,1.2 -2.2,2.4 -3.3,3.5 -0.9,0.8 -1.8,1.6 -2.7,2.4 -1.1,1 -2.2,2 -3.4,3 -1.2,1.1 -2.5,2.2 -3.7,3.2 -1.9,1.6 -2.5,3.6 -1.5,5.7 0.5,1.1 1.2,2.3 2,3.2 1.7,1.8 3.5,3.5 5.3,5.3 1,1 2,2.1 3,3.1 0.1,0.1 0,0.4 -0.1,0.5 -0.8,0.5 -1.7,0.9 -2.5,1.4 -0.9,0.5 -1.7,0.9 -2.6,1.3 -1.5,0.7 -3.1,1.3 -4.7,1.6 -1.7,0.4 -3.4,0.4 -5.1,0.7 -1.7,0.3 -3.4,0.3 -5,-0.2 -1.7,-0.6 -3.4,-1.1 -5,-2 -1.5,-0.8 -3.1,-1.7 -3.8,-3.4 -0.6,-1.5 -1.3,-3 -1.4,-4.5 -0.1,-0.8 -0.2,-1.6 -0.1,-2.4 0,-0.4 0.1,-0.8 0.2,-1.2 0.1,-0.4 0.3,-0.8 0.5,-1.2 0.6,-1 1.1,-2 2,-2.9 0.9,-0.9 1.9,-1.6 3,-2.2 1.4,-0.7 2.8,-1.5 4.4,-1.8 1.6,-0.3 3.3,-0.6 4.9,0.2 0.5,0.2 1,0.6 1.5,0.9 0.2,0.1 0.5,0.2 0.8,0.2 -0.1,-0.3 -0.1,-0.6 -0.3,-0.8 -0.3,-0.4 -0.8,-0.6 -1.1,-0.9 -1.7,-1.5 -3.4,-3 -5.1,-4.4 -0.5,-0.4 -0.9,-0.9 -1.4,-1.4 -0.5,-0.5 -1,-1.2 -1.7,-1.5 -1.8,-0.9 -3.6,-0.8 -5.5,-0.4 -0.1,0 -0.1,0.2 -0.1,0.3 -0.1,0.2 -0.2,0.5 -0.4,0.6 -1.4,0.6 -2.9,1 -4.3,1.8 -2,1.1 -3.6,2.6 -4.9,4.5 -0.7,1 -1.1,2 -1,3.2 0.1,0.6 0.2,1.3 0.1,1.9 -0.2,1.4 0.5,2.6 1.3,3.7 0.6,0.9 1.8,1.2 2.2,2.3 0.1,0.2 0.4,0.3 0.6,0.6 0.4,0.5 0.8,1 1.2,1.4 0.3,0.3 0.6,0.5 0.3,1 0,0.1 -0.1,0.2 0,0.3 0.2,0.4 0.4,0.7 0.7,1 1.3,1.4 2.7,2.9 4,4.3 0.8,0.8 1.5,1.7 2.3,2.5 0.8,0.9 1.5,1.7 2.3,2.6 0.5,0.6 1.1,1.1 1.7,1.6 l 1.8,1.8 c 0.3,0.3 0.5,0.7 0.9,0.9 0.5,0.3 1.1,0.5 1.7,0.7 1.2,0.5 2.4,1.1 3.6,1.6 1.6,0.6 3.3,0.9 5,0.8 1.1,-0.1 2.1,-0.1 3.2,-0.3 1.8,-0.3 3.6,-0.5 5.4,-0.9 1.3,-0.3 2.6,-1 3.9,-1.6 2.4,-1.3 4.8,-2.6 7.2,-4.1 1.4,-0.8 2.7,-1.8 4,-2.8 1.5,-1.1 3,-2.1 3.9,-3.9 0.3,-0.6 0.3,-1.3 0.3,-2 -0.1,-2.2 -1.6,-3.3 -2.6,-4.8 -0.8,-1 -1.7,-2 -2.5,-2.9 -1.1,-1.2 -2.2,-2.5 -3.3,-3.6 -0.1,-0.1 -0.4,0 -0.6,0 0.1,0.1 0.1,0.3 0.2,0.4 0.2,0.4 0.6,0.8 0.7,1.3 0.5,1.8 -0.4,3.2 -1.4,4.2 -1.3,1.3 -2.8,2.3 -4.2,3.4 -1.2,0.9 -2.4,1.6 -3.5,2.4 -0.1,0.1 -0.3,0 -0.4,-0.1 -0.6,-0.8 -1.2,-1.7 -1.8,-2.4 -1,-1.2 -1.3,-3.7 -0.5,-4.9 0.9,-1.3 2,-2.4 3.1,-3.4 1.7,-1.5 3.4,-2.8 5.1,-4.3 1.6,-1.4 3.1,-2.8 4.7,-4.3 1.1,-1.1 2.4,-2.2 3,-3.9 0.5,-1.4 0.5,-3.4 -0.9,-4.4 -1.3,-1 -2.6,-2 -3.9,-2.9 -0.6,-0.5 -1.2,-0.9 -1.8,-1.4 -0.5,-0.4 -1,-0.7 -1.5,-1 -1,-0.7 -2,-1.4 -3,-2.1 -0.1,-0.1 -0.2,-0.3 -0.3,-0.4 0.1,-0.1 0.2,-0.2 0.4,-0.2 0.5,-0.1 1,-0.2 1.5,-0.4 0.6,-0.2 1,-0.7 1.6,-0.9 1.5,-0.5 3.1,-0.1 4.6,0.1 1.3,0.2 2.5,0.6 3.7,1.3 0.7,0.4 0.7,-0.3 0.6,-0.9 0,-0.1 0,-0.1 0,-0.2 -0.3,-0.9 -0.5,-1.8 -0.8,-2.7 -0.2,-0.9 -0.5,-1.9 -0.9,-2.7 -0.5,-0.8 -1.2,-1.5 -1.8,-2.2 -0.4,-0.5 -0.9,-0.9 -1.4,-1.2 -1,-0.6 -2,-1.1 -3,-1.8 -0.9,-0.6 -1.7,-1.5 -2.6,-2.1 -1.6,-1.1 -3.3,-2.1 -5,-3 -0.4,-0.2 -0.8,-0.4 -1.3,-0.6 -0.6,-0.4 -1.2,-0.9 -1.9,-1.2 -0.7,-0.4 -1.5,-0.6 -2.2,-0.9 -1.2,-0.6 -2.2,0 -3.2,0.5 -0.4,0.2 -0.7,0.5 -1.1,0.1 -0.8,-0.6 -1.7,-1.3 -2.6,-1.9 -0.3,-0.2 -0.7,-0.8 -1,-0.7 -0.7,0.2 -0.9,-0.3 -1.1,-0.7 -0.8,-2 -1.2,-4 -0.7,-6.2 0.8,-3.5 2.6,-6.3 4.6,-9.2 0.5,-0.8 1,-1.6 1.5,-2.3 0.1,-0.2 0.3,-0.3 0.5,-0.4 0.1,0.1 0.2,0.3 0.3,0.4 0.4,0.9 0.7,1.9 1.1,2.8 0.3,0.7 0.5,1.5 0.6,2.2 0.1,0.4 -0.3,0.8 -0.1,1.1 0.2,0.5 0.5,1.1 0.8,1.5 1.1,1.7 2.2,3.3 3.4,5.1 0.7,1 1.4,2 2.2,2.9 0.9,1 2,1.3 3.2,1.1 1.8,-0.3 3.8,-2.5 3.8,-4.9 0,-0.8 -0.1,-1.6 -0.2,-2.3 -0.2,-0.8 -0.6,-1.6 -0.9,-2.4 -0.3,-0.7 -0.7,-1.5 -1.2,-2.1 -0.3,-0.5 -0.7,-0.8 -1,-1.3 -1,-1.6 -2.4,-2.8 -3.8,-3.8 -1,-0.7 -2.1,-1.3 -3.2,-1.9 -1.5,-0.8 -3,-1.7 -4.5,-2.5 -0.7,-0.4 -1.5,-0.6 -2.2,-0.8 -0.8,-0.3 -1.5,-0.7 -2.3,-0.9 -1.3,-0.3 -2.6,-0.7 -3.9,-1.4 -0.6,-0.3 -1.2,-0.9 -1.7,-0.2 -1.4,2.1 -3,4.2 -4.3,6.4 -1.1,1.8 -1.9,3.8 -2.7,5.8 -0.3,0.7 -0.5,1.4 -0.6,2.2 -0.1,0.8 -0.1,1.5 0,2.3 0.1,0.9 0.3,1.7 0.6,2.5 0.4,1.5 1.5,2.4 2.8,3.1 1.6,0.9 3.3,1.9 4.8,2.8 0.7,0.4 1.5,0.9 2.2,1.4 1.4,0.9 2.8,1.8 4.2,2.6 0.3,0.2 0.7,0.4 0.7,0.5 -0.2,0.5 -0.4,1 -0.7,1.5 -0.4,0.6 -0.8,1 -1.2,1.6 -0.5,0.7 -0.9,1.5 -1.3,2.3 -0.5,0.9 -1,1.8 -1.5,2.6 -0.6,1 -1.1,2 -1.7,3 -0.7,1 -1.4,1.9 -2.2,2.8 -0.5,0.6 -1.2,1 -1.9,1.3 -0.3,0.1 -0.8,-0.2 -1.1,-0.2 -0.3,0 -0.5,0.2 -0.8,0.4 0.2,0.2 0.3,0.4 0.5,0.6 1.2,0.9 2.5,1.7 3.7,2.7 1.6,1.3 3,2.7 5,3 1.2,0.2 2.4,0.6 3.4,-0.4 0.9,-0.9 1.8,-1.9 2.6,-3 1.1,-1.5 1.9,-3.1 2.8,-4.7 1.2,-1.9 2.3,-3.9 3.5,-5.8 0.8,-1.3 1.7,-2.4 2.8,-2.9 1,-0.2 1.9,0.3 2.1,1 z m -10.1,-26.2 c -0.4,-0.8 -0.8,-1.6 -1.2,-2.3 -0.1,-0.2 -0.2,-0.5 -0.2,-0.6 0.1,-0.2 0.4,-0.2 0.6,-0.2 2.3,0.2 3.4,2 4.5,4 0.6,1.2 0.6,2.3 -0.1,3.3 -0.3,0.4 -0.8,0.7 -1.2,1 l -0.9,-1.5 0.2,-0.1 c -0.6,-1.2 -1.1,-2.4 -1.7,-3.6 z"
               id="path943"
               style="fill:#ffffff"
               inkscape:connector-curvature="0" /><path
               d="m 613.2,142.8 c -0.8,2 -1.3,4.1 -0.3,6.3 0.3,0.7 0.7,1.4 1.2,2 0.6,0.7 1.4,1.3 2.1,2.1 1.2,1.4 2.6,2.4 4.4,2.7 1.1,0.2 2.3,0.4 3.4,0.7 0.9,0.2 1.8,0.6 2.7,0.9 0.2,0.1 0.6,0.3 0.5,0.4 -0.3,1 -0.7,2 -1.1,3 -0.5,1.3 -0.8,2.6 -0.2,4 0.1,0.2 0.5,0.3 0.5,0.4 0.3,1.1 1.2,1.3 2,1.6 2.1,0.7 4.2,1.3 6.3,2 0.3,0.1 0.6,0.2 0.9,0.3 0.8,0.3 1.5,0.8 2.3,1 0.8,0.2 1.2,0.6 0.9,1.4 -0.7,1.8 -1.4,3.6 -2.3,5.3 -0.4,0.7 -1.3,1.2 -1.9,1.8 -0.2,0.2 -0.4,0.4 -0.5,0.6 0,0.1 0.1,0.4 0.2,0.5 0.7,0.3 1.4,0.6 2.2,0.9 0.4,0.2 0.9,0.2 1.3,0.4 1.8,0.8 3.5,1.5 5.2,2.3 0.8,0.4 1.7,0.3 2.5,0 1.3,-0.5 1.9,-1.6 2.5,-2.6 1,-1.9 1.8,-3.9 2.6,-5.9 0.8,-1.8 1.4,-3.7 2.2,-5.5 0.8,-2.1 1.7,-4.1 2.5,-6.2 0.6,-1.6 1.3,-3.2 1.9,-4.8 0.4,-1.2 0.7,-2.4 1.1,-3.6 0.9,-2.4 1.7,-4.7 2.6,-7.1 0.5,-1.6 1.4,-2.7 3,-2.9 0.5,-0.1 1.1,0 1.6,0.2 1,0.3 2.1,0.8 3.1,1.1 0.1,0.1 0.4,-0.1 0.5,-0.3 0,-0.1 -0.2,-0.5 -0.3,-0.5 -0.7,-0.4 -1.5,-0.7 -2.2,-1 -1,-0.4 -2.1,-0.6 -3.1,-0.9 -0.8,-0.3 -1.6,-0.6 -2.4,-0.9 -1.6,-0.6 -3.2,-1.1 -4.8,-1.6 -0.9,-0.3 -1.8,-0.4 -2.8,-0.5 -0.7,0 -1.6,-0.1 -2.1,0.3 -0.7,0.4 -1.1,1.1 -1.6,1.7 -0.4,0.5 -0.6,1 -0.9,1.5 -0.2,0.4 -0.3,0.8 -0.4,1.2 -0.8,2.5 -1.6,5 -2.4,7.4 -0.4,1.2 -0.8,2.3 -1.1,3.5 -0.3,0.8 -0.5,1.6 -0.7,2.4 -0.4,1.2 -1,2.4 -1.4,3.5 -0.5,1.2 -1,2.5 -1.5,3.7 -0.5,1.2 -1,2.5 -1.5,3.6 -0.1,0.3 -0.3,0.4 -0.5,0.7 -0.6,-0.6 -1.4,-1.2 -1.8,-1.9 -0.3,-0.7 -0.3,-1.7 -0.2,-2.4 0.2,-1.1 0.5,-2.1 0.9,-3.1 1.1,-2.7 2.2,-5.4 3.2,-8.1 0.5,-1.3 1.1,-2.6 1.4,-3.9 0.7,-2.3 1.6,-4.4 1.6,-6.9 0,-2.8 -1,-5.3 -3.5,-6.9 -1.2,-0.8 -2.5,-1.2 -3.8,-1.6 -0.9,-0.3 -1.8,-0.3 -2.7,-0.4 -0.7,-0.1 -1.4,-0.3 -2,-0.4 -1.5,-0.2 -2.9,-0.2 -4.3,-0.4 -1.2,-0.1 -2.5,-0.3 -3.7,-0.5 -0.2,0 -0.3,0.2 -0.5,0.4 0.1,0.1 0.2,0.4 0.4,0.4 0.6,0.1 1.3,0.1 1.9,0.2 0.8,0.2 1.5,0.5 2.3,0.7 1.3,0.4 2.4,1.2 2.9,2.4 0.5,1.2 0.7,2.5 0.9,3.7 0,0.1 -0.4,0.4 -0.5,0.4 -0.7,-0.2 -1.5,-0.5 -2.2,-0.6 -1.2,-0.3 -2.3,-0.6 -3.5,-0.7 -1.8,-0.3 -3.5,-0.5 -5.3,-0.6 -0.8,-0.1 -1.7,-0.1 -2.5,0.1 -1.6,0.4 -3.2,1 -4.4,2.2 -0.2,0.1 -0.6,0.4 -0.8,0.8 z m 11.6,8.4 c -1,-2 -0.6,-3.9 0.1,-5.7 0.5,-1.2 1.5,-1.9 2.8,-2.4 0.8,-0.3 1.5,-0.4 2.3,-0.5 0.5,0 1.1,0.1 1.7,0.3 0.1,0 0.3,0.5 0.3,0.7 -0.1,0.9 -0.2,1.7 -0.5,2.5 -0.3,1.1 -0.8,2 -1.2,3.1 -0.7,1.9 -1.4,3.9 -2.1,5.8 -0.2,0.4 -0.3,0.4 -0.6,0 -0.2,-0.3 -0.5,-0.5 -0.6,-0.6 -0.8,-1.1 -1.6,-2.1 -2.2,-3.2 z"
               id="path945"
               style="fill:#ffffff"
               inkscape:connector-curvature="0" /><path
               d="m 569.5,152.7 c 1.4,0.6 2.9,0.9 4.5,0.8 2.4,-0.2 4.8,-0.4 7.2,-0.4 1.2,0 2.4,0 3.5,0 1.5,0 3,0.1 4.6,0.1 2.3,-0.1 4.5,-0.6 6.6,-1.6 1.2,-0.6 2.3,-1.5 3.2,-2.5 1,-1 1.7,-2.3 2.3,-3.6 0.7,-1.4 1.2,-2.9 1.7,-4.4 0.4,-1.2 0.4,-2.6 0.7,-3.9 0.1,-0.4 0.2,-1 0.4,-1 0.6,-0.1 1.2,0 1.8,0.1 1.7,0.3 3.5,0.7 5.3,1 0.7,0.1 1.5,-0.1 2.2,-0.2 1.5,-0.1 2.9,-0.3 4.2,-1.1 1.9,-1.2 3.2,-2.9 3.8,-5.1 0.4,-1.6 0.6,-3.3 0.9,-4.9 0.4,-2.1 0.7,-4.2 1.1,-6.3 0.1,-0.8 0.4,-1.5 0.7,-2.2 0.1,-0.2 0.4,-0.7 0.6,0.1 0,0.1 0.2,0.2 0.3,0.1 0.5,-0.2 1.1,-0.6 1.6,-0.8 0.9,-0.3 1.8,-0.7 2.7,-0.8 1.4,-0.2 2.8,0.1 4.2,0.7 2.1,0.9 3.9,2 4.6,4.4 0.2,0.8 0.6,1.7 -0.1,2.3 -0.4,0.4 -0.9,0.7 -1.3,1 -0.1,0 -0.1,0.3 0,0.3 0.1,0.1 0.3,0.2 0.4,0.1 0.8,-0.4 1.8,-0.3 2.1,-1.4 0.2,-0.8 0.7,-1.6 0.7,-2.5 0,-1 -0.6,-2.1 0.2,-2.9 0,0 0,-0.2 -0.1,-0.3 -0.1,-0.8 -0.6,-1.5 -1.2,-2.1 -0.8,-1 -1.7,-1.6 -2.9,-1.9 -0.5,-0.1 -1.1,-0.3 -1.6,-0.5 -0.1,0 -0.1,0 -0.2,0 -0.6,0.2 -1.1,0.4 -1.7,0.6 -1,0.3 -2.1,0.4 -3,0.7 -0.8,0.2 -1.5,0.6 -2.3,0.9 -0.6,0.2 -1.1,0.5 -1.7,0.4 -1.7,-0.1 -3.4,-0.3 -5.1,-0.4 -1.1,0 -2.2,0.1 -3.3,0.1 -1.5,0 -2.9,-0.4 -4.3,0 -0.9,0.3 -1.9,0.2 -2.9,0.3 -0.2,0 -0.4,0 -0.6,0 -0.8,0.1 -1.5,0.3 -2.3,0.4 -1.3,0.2 -2.6,0.2 -3.8,0.4 -0.9,0.2 -1.8,0.7 -2.7,1 -1.5,0.6 -3.1,1.1 -4.6,1.7 -0.5,0.2 -1,0.5 -1.2,0.9 -0.6,1.3 -1.1,2.7 -1.4,4.1 -0.4,1.8 -0.6,3.7 -0.8,5.6 -0.2,1.4 -0.1,2.9 -0.2,4.3 -0.1,1.5 -0.1,2.9 -0.4,4.3 -0.3,1.5 -0.7,3 -1.2,4.5 -0.4,1.1 -0.9,2.3 -1.6,3.2 -0.9,1.2 -2,2.1 -3,3.2 -0.9,0.9 -1.9,1.6 -3.2,1.7 -0.6,0 -1.2,-0.3 -1.8,-0.6 -1,-0.5 -2.1,-0.8 -2.8,-1.5 -0.8,-0.8 -1.3,-2 -1.7,-3.1 -0.6,-1.4 -0.4,-3 -0.3,-4.5 0.1,-1.9 0.3,-3.7 1.2,-5.5 0.5,-1 1,-2 1.6,-2.9 0.6,-0.9 1.4,-1.6 2.2,-2.3 0.3,-0.2 0.7,-0.2 1,-0.4 0.3,-0.2 0.5,-0.5 0.8,-0.7 0.8,-0.4 1.6,-0.8 2.5,-1 0.6,-0.2 1.3,-0.2 1.9,-0.3 0.2,0 0.4,-0.3 0.6,-0.4 -0.2,-0.1 -0.4,-0.3 -0.6,-0.4 -0.1,0 -0.2,0 -0.4,0 -1.5,0.2 -2.9,0.5 -4.4,0.8 -1,0.2 -2,0.3 -2.9,0.5 -0.8,0.2 -1.6,0.3 -2.4,0.5 -1.2,0.3 -2.5,0.2 -3.6,1 -0.8,0.6 -1.8,0.8 -2.6,1.4 -1,0.7 -1.8,1.6 -2.6,2.5 -0.3,0.4 -0.7,0.8 -0.9,1.2 -0.5,1 -0.9,2 -1.3,3 -0.1,0.3 -0.3,0.6 -0.4,1 -0.1,0.7 -0.3,1.4 -0.3,2.1 -0.1,0.7 -0.1,1.4 -0.1,2.2 0,0.1 -0.1,0.1 -0.1,0.2 0,0.3 -0.2,0.5 -0.1,0.8 0.1,1 0.3,1.9 0.5,2.9 0.1,0.6 0.2,1.3 0.5,1.8 0.4,0.7 1,1.2 1.5,2 0.5,0.5 1,1 1.6,1.2 z m 36.2,-18.2 c -0.5,0.3 -1.1,0.4 -1.7,0.6 0,0 -0.1,-0.1 -0.1,-0.2 0.1,-1.2 0.2,-2.4 0.3,-3.5 0.1,-1.1 0.1,-2.2 0.2,-3.3 0.1,-1.1 0.2,-2.3 0.5,-3.4 0.3,-1.1 0.7,-2.2 1.1,-3.2 0.2,-0.5 0.5,-1 0.9,-1.4 0.8,-0.8 1.6,-1.5 2.5,-2.1 0.4,-0.2 1,-0.1 1.5,-0.1 0.1,0 0.3,0.3 0.2,0.5 -0.3,2.4 -0.7,4.7 -1,7 -0.2,1.1 -0.3,2.3 -0.6,3.5 -0.2,0.8 -0.5,1.5 -0.9,2.2 -0.4,0.8 -0.9,1.5 -1.4,2.2 l -0.1,-0.1 c -0.3,0.4 -0.8,0.9 -1.4,1.3 z"
               id="path947"
               style="fill:#ffffff"
               inkscape:connector-curvature="0" /><path
               d="m 663.7,186.2 c -0.1,0.3 -0.1,0.4 -0.1,0.5 -0.9,1.7 -1.9,3.4 -2.9,5.1 -1.2,2 -2.3,4 -3.5,5.9 -0.5,0.8 -1.3,1.4 -2,2.2 -1.2,1.3 -2.7,1.1 -4.2,0.5 -1.8,-0.8 -3.6,-1.7 -5.4,-2.5 -2,-0.9 -4.1,-1.8 -6.1,-2.7 -0.1,-0.1 -0.2,-0.2 -0.3,-0.4 0.2,0 0.4,-0.2 0.5,-0.1 0.6,0.2 1.1,0.3 1.6,0.6 0.9,0.5 2.9,0.2 3.5,-0.6 0.7,-0.8 1.4,-1.6 2,-2.4 0.4,-0.6 0.7,-1.3 1.1,-1.9 1.6,-2.6 3,-5.2 4.4,-7.9 1,-1.9 1.9,-3.9 2.8,-6 0.7,-1.6 1.3,-3.2 1.9,-4.8 1,-2.5 1.9,-5 2.7,-7.6 0.4,-1.3 0.8,-2.6 1.2,-3.9 0.6,-1.8 1.3,-3.6 1.9,-5.4 0.5,-1.2 0.9,-2.5 1.5,-3.7 0.9,-1.5 1.9,-3 3,-4.3 0.5,-0.6 1.6,-0.8 2.6,-0.5 1.9,0.5 3.7,1 5.6,1.6 1.6,0.5 3.2,1.2 4.7,1.9 2,0.9 4,1.9 6,2.9 1.5,0.7 2.9,1.5 4.4,2.4 0.2,0.1 0.4,0.5 0.6,0.8 -0.2,0 -0.5,0 -0.7,0 -1,-0.4 -1.9,-0.8 -2.9,-1.4 -1,-0.6 -2,-1.3 -3.1,-1.8 -1.7,-0.8 -3.5,-1.8 -5.1,-1.3 -0.9,0.3 -1.7,1.1 -2.2,1.9 -0.7,1 -1.3,2.2 -1.8,3.4 -0.6,1.4 -1.2,2.9 -1.8,4.4 -0.7,1.9 -1.4,3.8 -2.1,5.7 -0.6,1.7 -1.2,3.4 -1.8,5.1 -0.8,2.2 -1.7,4.4 -2.6,6.6 -0.5,1.2 -1,2.5 -1.5,3.7 -0.6,1.3 -1.2,2.6 -1.8,3.9 0,0.1 -0.2,0.1 -0.1,0.1 z"
               id="path949"
               style="fill:#ffffff"
               inkscape:connector-curvature="0" /><path
               d="m 661.6,193.7 c 0,0 0,-0.1 0.1,-0.1 0.2,0 0.5,0 0.7,0.2 0.7,0.6 1.4,0.4 2.1,0.3 1.1,-0.1 1.3,-1.1 1.7,-1.9 0.5,-0.9 0.7,-1.9 1.1,-2.9 0.2,-0.4 0.5,-0.8 0.7,-1.2 0.3,-0.6 0.5,-1.3 0.8,-1.9 0.1,-0.2 0.2,-0.4 0.3,-0.4 0.6,0 1.2,0.1 1.8,0.3 0.8,0.2 1.6,0.6 2.3,1 0.2,0.1 0.8,0.1 0.5,0.7 0,0 0.3,0.3 0.5,0.4 0.1,0.1 0.3,0.2 0.3,0.3 0.3,0.5 0.7,0.9 1,1.4 -0.2,-0.4 -0.5,-0.9 -0.7,-1.3 -0.1,-0.2 -0.2,-0.5 -0.3,-0.8 0.2,0.1 0.5,0.1 0.7,0.3 1,0.5 2.1,1 3,1.6 1.3,0.7 2.6,1.4 3.8,2.1 0.3,0.2 0.4,0.7 0.6,1 -0.1,0 -0.2,0.1 -0.3,0 -0.5,-0.3 -0.9,-0.6 -1.4,-0.8 -0.7,-0.3 -1.2,-0.3 -1.6,0.5 -0.6,1.4 -1.2,2.7 -1.8,4 -0.4,1 -0.8,2.1 -1.4,3 -0.2,0.4 -0.8,0.7 -1.2,0.8 -0.7,0.1 -1.4,0.3 -2.2,-0.3 0,0 0,0 0,0 -1.2,0.5 -1.8,-0.8 -2.6,-1.4 0,0 0,-0.1 -0.1,-0.1 -0.8,-0.4 -1.5,-0.8 -2.3,-1.2 -0.3,-0.2 -0.6,-0.5 -1,-0.7 -0.7,-0.4 -1.4,-0.7 -2.1,-1.1 -1,-0.6 -2,-1.1 -3,-1.7 0.1,0 0.1,-0.1 0,-0.1 z"
               id="path951"
               style="fill:#ffffff"
               inkscape:connector-curvature="0" /></g></g></g></g></g></svg>