<?xml version="1.0" encoding="UTF-8" standalone="no"?>
<!-- Generator: Adobe Illustrator 21.0.0, SVG Export Plug-In . SVG Version: 6.00 Build 0)  -->

<svg
   xmlns:dc="http://purl.org/dc/elements/1.1/"
   xmlns:cc="http://creativecommons.org/ns#"
   xmlns:rdf="http://www.w3.org/1999/02/22-rdf-syntax-ns#"
   xmlns:svg="http://www.w3.org/2000/svg"
   xmlns="http://www.w3.org/2000/svg"
   xmlns:sodipodi="http://sodipodi.sourceforge.net/DTD/sodipodi-0.dtd"
   xmlns:inkscape="http://www.inkscape.org/namespaces/inkscape"
   version="1.1"
   id="Layer_1"
   x="0px"
   y="0px"
   viewBox="0 0 582.09996 582.09999"
   xml:space="preserve"
   sodipodi:docname="shop2.svg"
   width="582.09998"
   height="582.09998"
   inkscape:version="0.92.2 (5c3e80d, 2017-08-06)"><metadata
     id="metadata4770"><rdf:RDF><cc:Work
         rdf:about=""><dc:format>image/svg+xml</dc:format><dc:type
           rdf:resource="http://purl.org/dc/dcmitype/StillImage" /></cc:Work></rdf:RDF></metadata><sodipodi:namedview
     pagecolor="#ffffff"
     bordercolor="#666666"
     borderopacity="1"
     objecttolerance="10"
     gridtolerance="10"
     guidetolerance="10"
     inkscape:pageopacity="0"
     inkscape:pageshadow="2"
     inkscape:window-width="640"
     inkscape:window-height="480"
     id="namedview4768"
     showgrid="false"
     inkscape:zoom="0.38603158"
     inkscape:cx="291.05001"
     inkscape:cy="291.05003"
     inkscape:window-x="91"
     inkscape:window-y="30"
     inkscape:window-maximized="0"
     inkscape:current-layer="Layer_1" /><defs
     id="defs4647"><style
       type="text/css"
       id="style4645"><![CDATA[
		path {
			fill:white;
		}
		]]></style></defs><g
     id="g4765"
     transform="translate(-129.9,-6.6)"
     style="fill:#ffffff"><g
       id="g4763"
       style="fill:#ffffff"><g
         id="g4761"
         style="fill:#ffffff"><g
           id="g4661"
           style="fill:#ffffff"><path
             d="m 640,375 c 1.3,-1.1 2.1,-2.1 3.2,-2.6 1.2,-0.6 2.7,-0.7 4.1,-0.9 2.4,-0.5 4.9,-0.9 7.3,-1.4 4,-0.9 8.1,-1.7 12,-3.1 3.5,-1.2 0.6,-3 -0.1,-4.1 -0.6,-0.8 -1.1,-1.6 -1.7,-2.3 -0.6,-0.8 -1.2,-1.5 -1.8,-2.3 -1.2,-1.5 -2.4,-3 -3.6,-4.5 -2.4,-3 -4.8,-5.9 -7.3,-8.7 -1.1,-1.3 -1.4,-3.1 -2.1,-4.7 0.5,0.2 1.1,0.5 1.6,0.7 3.8,1.9 7.2,0.4 10.7,-0.8 2.9,-1 5.8,-2.1 8.7,-3.3 3.6,-1.6 6.9,-3.8 10.5,-5.1 4.4,-1.6 9.2,-3.6 13.6,-3.4 2.9,0.1 5.7,3.8 8.2,6.5 3,3.2 5.6,7.1 8,10.8 0.3,0.5 0.4,1.1 0.7,1.6 -0.3,-0.2 -0.8,-0.4 -1,-0.7 -1.8,-2.1 -3.3,-4.3 -5.3,-6.1 -3,-2.7 -6.4,-1.8 -9.6,-0.3 -4.6,2.1 -9.1,4.1 -13.7,5.9 -4.5,1.9 -9,3.6 -13.7,5.1 -2.5,0.8 -5.3,0.9 -8,1.3 h -0.4 c 0.1,0.2 0.1,0.4 0.2,0.5 1.8,2.3 3.6,4.7 5.3,7.2 2.5,3.7 4.8,7.6 7.2,11.5 0.4,0.7 0.8,1.4 1.2,2.1 1.9,3 0.2,4.9 -4.3,5.8 -3.3,0.6 -6.6,1.3 -9.8,1.9 -3.3,0.7 -6.5,1.4 -9.7,2 -4.8,1 -5.2,2.5 -3.1,7.1 0.1,0.1 0,0.3 0,0.4 -0.1,-0.1 -0.3,-0.1 -0.3,-0.2 -1.6,-3.5 -3.4,-6.8 -5,-10.2 -0.4,-0.9 -0.8,-1.9 -1.1,-2.9 -0.1,-0.8 -0.5,-1.8 -0.9,-2.8 z"
             id="path4649"
             inkscape:connector-curvature="0"
             style="fill:#ffffff" /><path
             d="m 630.1,410.9 c 0.4,3.5 1.3,7 2,10.5 1,4.6 1.6,9.1 2.4,13.7 0.5,2.4 1,4.9 1.5,7.4 0.4,2.4 0.9,4.9 1.3,7.4 0.2,1 0.5,1.9 0.8,2.9 0.4,-0.6 0.6,-1.3 1.1,-1.9 1.2,-1.7 2.4,-3.3 3.6,-4.9 1.1,-1.7 2.3,-3.4 3.4,-5 l 2.7,-4 c 0.9,-1.3 1.7,-2.7 2.6,-4.1 1.7,-2.7 3.4,-5.4 5.2,-8.1 1.3,-2.2 2.6,-4.3 4,-6.4 1.3,-2.1 2.8,-4.2 3.9,-6.5 1.4,-2.6 3.2,-5.1 3.9,-7.8 0.5,-1.8 -0.8,-3.9 -1.4,-5.8 -1.5,-4.1 -3.2,-8 -4.8,-11.9 -0.1,-0.1 -0.3,-0.2 -0.4,-0.3 0,0.2 -0.1,0.4 0,0.5 1.8,3.3 0.8,6.9 -2.9,8.1 -1.6,0.5 -3.1,0.9 -4.7,1.4 -1.6,0.4 -3.2,0.8 -4.8,1.1 -3.2,0.7 -6.4,1.3 -9.5,1.8 -1.8,0.3 -3.7,0.3 -5.3,0.9 -1.7,0.5 -3.3,1.5 -4.5,3.7 0,2 -0.5,4.7 -0.1,7.3 z m 12.5,0.7 c 3.2,-0.3 6.4,-0.6 9.7,-1 0.2,0 0.5,0 0.5,0.1 0.1,0.2 0,0.4 -0.1,0.6 l -4.5,8.3 c -1.6,2.7 -3.3,5.4 -4.9,8.1 -2.1,3.5 -4.5,6.8 -6.8,10.1 0,0 -0.4,0 -0.4,-0.1 -0.3,-3.6 -1.3,-7 -1.9,-10.4 -0.7,-3.5 -1.1,-6.9 -0.3,-10.5 0.2,-0.7 0.3,-1.3 0.4,-1.7 1.1,-1.7 2.3,-2.5 3.8,-2.9 1.4,-0.4 3,-0.5 4.5,-0.6 z"
             id="path4651"
             inkscape:connector-curvature="0"
             style="fill:#ffffff" /><path
             d="m 637.7,308.2 c 0.1,-3 2.3,-6.2 5.2,-8.3 3,-2.1 6.8,-3.1 10.1,-1.2 2.6,1.5 4.6,4.1 6.8,6.3 1,1 1.9,2 2.8,3.1 0.2,0.2 0.2,0.6 0.2,0.9 -0.2,0 -0.5,0 -0.6,-0.1 -3.2,-1.7 -6.7,-1.7 -9.6,-0.4 -1.4,0.6 -2.7,1.6 -3.8,2.8 -1.1,1.2 -1.8,2.6 -2.2,4.3 -0.3,1.3 -0.3,3.2 0.5,4 0.8,0.8 2.8,0.9 4.3,1 6.6,0.2 11,-4.3 16.4,-7.2 1.5,-0.8 3.2,-1.7 4.8,-2.3 1.7,-0.7 3.3,-1.2 5,-1.5 0.7,-0.1 1.6,0.4 2.5,1.2 0.9,0.8 1.7,1.8 2.5,2.6 2.1,2.3 4,4.9 5.9,7.5 0.2,0.3 0.3,0.7 0.4,1 -0.3,-0.1 -0.6,-0.1 -0.8,-0.3 -2.5,-3.1 -5.2,-1.4 -7.6,-0.1 -1.4,0.8 -2.8,1.6 -4.2,2.4 -1.4,0.8 -2.8,1.6 -4.3,2.4 -2.9,1.6 -5.7,3 -8.7,4.1 -2.5,0.9 -5.9,0.1 -8.8,-0.5 -5.5,-1.2 -7.1,-6 -9.8,-9.6 -2,-2.6 -4.2,-5.1 -5.9,-7.8 -0.9,-1.7 -0.9,-3.6 -1.1,-4.3 z"
             id="path4653"
             inkscape:connector-curvature="0"
             style="fill:#ffffff" /><path
             d="m 631.1,443.2 c -0.5,-4.6 -1.6,-9.3 -2.6,-13.8 -0.1,-0.4 -0.4,-0.7 -0.7,-1 0,0.4 -0.2,0.9 -0.1,1.3 0.2,1.2 -0.2,2.7 -0.9,4 -0.7,1.3 -1.7,2.3 -2.7,2.5 -5,1 -10.8,-2.9 -12.5,-7.7 -1.3,-3.6 -3.1,-7.2 -4.7,-10.8 -1.3,-2.9 -2.5,-5.8 -3.8,-8.6 -1.3,-2.8 -2.7,-5.7 -4.2,-8.4 -0.1,-0.2 -0.3,-0.4 -0.5,-0.7 0,0.3 -0.1,0.6 0,0.9 0.8,1.8 1.7,3.7 2.5,5.5 1.8,4.4 3.4,9 5.1,13.7 1.2,3.2 2.2,6.4 3.3,9.7 1,3.3 2,6.6 3,10 0,0.2 -0.4,0.7 -0.6,0.6 -3.8,-0.7 -6.2,1.1 -8.1,3.8 -1.8,2.6 -3.4,5.1 -4.6,7.9 -1.2,2.8 -1.9,5.9 -2.6,9 -0.7,3.8 -0.6,7.8 0.8,11.3 1.4,3.5 4,6.5 8.6,8.2 4.4,1.6 8.7,0.3 10.3,-3 0.3,-0.6 0.6,-1.3 0.8,-1.9 0.2,-0.7 0.4,-1.3 0.6,-2 0.3,-1.3 0.6,-2.6 0.7,-3.9 0.3,-2.6 0.2,-5.2 -0.3,-7.8 -0.2,-1.4 -0.5,-2.9 -0.7,-4.3 -0.3,-1.4 -0.5,-2.9 -0.8,-4.3 -0.5,-2.8 -1.1,-5.7 -1.7,-8.4 -0.1,-0.4 -0.1,-0.8 -0.1,-1.2 l 0.8,0.8 c 0.9,0.9 1.7,2 2.7,2.8 1.9,1.6 4.1,2.3 6.2,2.1 2.1,-0.3 4.1,-1.6 5.8,-3.8 0.3,-0.5 1.1,-1.6 1,-2.5 z m -30.5,11.6 c 0.6,-2.4 2.2,-4.4 3.6,-6.5 1.1,-1.9 2.3,-3.9 4,-5.3 1,-0.8 2.9,-0.8 4.5,-0.7 0.4,0 0.9,1.7 1.1,2.7 1.1,4.3 2,8.8 3.1,13.3 0.8,3.2 -2.2,9.4 -5.2,9.5 -2.4,0.1 -4.7,-1.3 -6.3,-1.9 -3.4,-3.7 -6,-6.9 -4.8,-11.1 z"
             id="path4655"
             inkscape:connector-curvature="0"
             style="fill:#ffffff" /><path
             d="m 635.2,350.2 c 0.2,-0.3 0.3,-0.4 0.3,-0.5 0.1,0.1 0.3,0.2 0.4,0.3 1,1.1 2,3.1 3.1,3.2 1.8,0.2 3.6,-0.9 5.4,-1.5 1.4,-0.5 2.7,-1.8 4,-1.7 1,0.1 2.1,1.7 2.9,2.8 1,1.4 1.9,2.8 2.8,4.2 0.9,1.4 1.7,2.9 2.5,4.4 0.3,0.6 0.4,1.4 0.5,2.1 -0.3,-0.5 -0.8,-0.9 -1,-1.4 -1.7,-3 -3.3,-0.1 -4.6,0.2 -1.8,0.5 -3.4,2.5 -5.1,2.5 -1.4,0 -3.3,-1.7 -4.3,-3 -1.8,-2.4 -3.3,-5 -4.8,-7.4 -0.8,-1.5 -1.5,-2.9 -2.1,-4.2 z"
             id="path4657"
             inkscape:connector-curvature="0"
             style="fill:#ffffff" /><path
             d="m 623.9,473 c -0.2,-2.6 -0.6,-4.5 -0.5,-6.5 0.1,-2 0.1,-4.2 0.2,-6.2 0.1,-2.1 0.1,-4.1 0.2,-6.2 0,-0.2 0.1,-0.4 0.2,-0.6 0.1,0.2 0.2,0.4 0.2,0.6 -0.1,2.8 0.2,5.4 3.9,5.4 0.8,0 1.6,-0.2 2.4,-0.4 3.5,-1 5.5,-0.3 5.2,3.9 -0.3,3.6 0,7.2 -0.1,10.9 0,0.6 -0.4,1.2 -0.6,1.8 -0.1,-0.5 -0.1,-1.3 -0.4,-1.5 -1,-0.6 -2.1,-1.3 -3.3,-1.4 -2.3,-0.1 -4.6,0.1 -7.4,0.2 z"
             id="path4659"
             inkscape:connector-curvature="0"
             style="fill:#ffffff" /></g><g
           id="g4675"
           style="fill:#ffffff"><path
             d="m 521.2,507.2 c 1.8,0.2 3,0 4.1,0.4 1.3,0.5 2.4,1.4 3.5,2.2 2,1.4 4.1,2.8 6.1,4.1 1.8,1.1 3.5,2.3 5.3,3.4 1.8,1.1 3.6,2.1 5.4,3 3.3,1.5 2.5,-1.7 2.8,-3 1.4,-7.6 1.9,-15.4 2.5,-22.8 0.1,-0.8 0.4,-1.6 0.8,-2.4 0.4,-0.8 0.8,-1.6 1.1,-2.4 0.2,0.6 0.4,1.1 0.6,1.7 1.3,4 4.8,5.3 8.1,7 2.7,1.4 5.5,2.6 8.4,3.8 1.8,0.7 3.7,1.3 5.6,1.9 1.9,0.6 3.7,1.2 5.5,2 4.2,2 9,3.9 12,7.2 2,2.1 1.4,6.8 1.2,10.4 -0.1,2.2 -0.3,4.5 -0.7,6.6 -0.4,2.2 -0.8,4.4 -1.2,6.6 -0.1,0.5 -0.4,1.1 -0.7,1.6 -0.1,-0.4 -0.3,-0.8 -0.2,-1.2 0.2,-2.7 0.7,-5.4 0.6,-8 -0.2,-3.9 -3.2,-5.8 -6.6,-7 -9.4,-3.5 -18.4,-7.1 -27.1,-11.5 -2.4,-1.2 -4.4,-3.1 -6.5,-4.7 l -0.3,-0.2 c -0.1,0.2 -0.2,0.3 -0.2,0.5 -0.2,1.5 -0.4,3 -0.6,4.4 -0.2,1.5 -0.5,2.9 -0.7,4.4 -0.9,4.4 -1.9,8.8 -3,13.3 -0.2,0.8 -0.5,1.5 -0.7,2.3 -0.8,3.4 -3.4,3.5 -7.1,1 -2.8,-1.8 -5.5,-3.7 -8.3,-5.5 -2.8,-1.9 -5.5,-3.7 -8.3,-5.5 -4.1,-2.6 -5.4,-1.8 -7.2,2.9 0,0.1 -0.2,0.2 -0.3,0.3 0,-0.1 -0.2,-0.3 -0.1,-0.4 0.7,-1.7 1.3,-3.6 1.9,-5.4 0.6,-1.8 1.2,-3.6 1.8,-5.4 0.6,-1.8 1.6,-3.6 2.5,-5.6 z"
             id="path4663"
             inkscape:connector-curvature="0"
             style="fill:#ffffff" /><path
             d="m 488.7,525.6 c -2.2,2.7 -4,5.9 -6,9 -2.6,3.8 -5.3,7.5 -8,11.4 -0.7,1 -1.4,2.1 -2.1,3.1 -0.7,1 -1.4,2 -2.1,3 -1.4,2 -2.8,4.1 -4.3,6.2 -0.6,0.8 -1,1.7 -1.5,2.6 0.7,-0.2 1.4,-0.5 2.1,-0.6 4,-0.7 8,-1.2 12,-2.1 3.1,-0.6 6.3,-1.2 9.5,-1.9 3.1,-0.7 6.3,-1.5 9.4,-2.2 2.5,-0.5 4.9,-1.1 7.4,-1.7 2.5,-0.6 4.9,-1.2 7.4,-1.8 2.8,-0.8 5.9,-1.4 8.3,-2.8 1.6,-1 2.3,-3.3 3.1,-5.1 1.8,-3.9 3.4,-8 4.9,-11.9 0.1,-0.1 -0.1,-0.3 -0.1,-0.5 -0.1,0.1 -0.3,0.2 -0.4,0.4 -1,3.6 -4.3,5.5 -7.7,3.8 -5.8,-3.1 -11.3,-6.7 -16.5,-10.3 -3,-2.1 -5.4,-5.3 -10.2,-3.7 -0.7,0.7 -1.6,1.5 -2.6,2.3 -0.8,0.9 -1.8,1.7 -2.6,2.8 z m 8.4,9.4 c 2.4,2.1 5,4.1 7.5,6.1 0.1,0.1 0.3,0.4 0.3,0.5 -0.1,0.2 -0.3,0.3 -0.5,0.4 l -4.5,1.4 -2.3,0.7 -2.3,0.6 c -3,0.8 -6.1,1.5 -9.1,2.3 -4,0.9 -8,1.5 -12,2.3 -0.1,0 -0.3,-0.3 -0.2,-0.4 2.3,-2.8 4,-5.9 6,-8.8 1,-1.5 2,-2.8 3.2,-4.1 1.2,-1.3 2.5,-2.5 4,-3.5 0.6,-0.4 1.2,-0.7 1.5,-0.9 1.9,-0.5 3.4,-0.1 4.7,0.7 1.4,0.7 2.5,1.7 3.7,2.7 z"
             id="path4665"
             inkscape:connector-curvature="0"
             style="fill:#ffffff" /><path
             d="m 566.8,458.3 c 2.2,-2.1 6,-2.8 9.6,-2.2 3.6,0.6 7,2.6 7.9,6.3 0.8,2.9 0.3,6.1 0.4,9.2 0,1.4 -0.1,2.8 -0.2,4.2 0,0.3 -0.3,0.5 -0.4,0.8 -0.1,-0.2 -0.3,-0.3 -0.4,-0.5 -1,-3.5 -3.6,-5.9 -6.5,-7.1 -3,-1.2 -6.4,-1.1 -9.2,0.7 -1.1,0.7 -2.5,2 -2.5,3.1 0,1.1 1.3,2.6 2.3,3.7 4.5,4.9 10.8,4.7 16.7,6.5 3.4,1 6.9,2.3 9.7,4.2 1.2,0.9 0.9,4.1 0.8,6.2 -0.1,3.1 -0.7,6.3 -1.1,9.5 0,0.3 -0.3,0.6 -0.4,1 -0.1,-0.3 -0.4,-0.5 -0.3,-0.8 0.5,-4 -2.7,-4.7 -5.2,-5.4 -3.2,-0.9 -6.3,-1.8 -9.4,-2.6 -3.1,-0.9 -6.2,-1.9 -9,-3.2 -2.5,-1.1 -4.3,-4.1 -5.9,-6.6 -3,-4.7 -0.8,-9.3 -0.1,-13.7 0.5,-3.2 0.7,-6.6 1.3,-9.6 0.2,-1.6 1.5,-3 1.9,-3.7 z"
             id="path4667"
             inkscape:connector-curvature="0"
             style="fill:#ffffff" /><path
             d="m 466.6,549.1 c 1.4,-1.9 2.8,-3.8 4.1,-5.7 1.3,-1.9 2.6,-4 3.8,-5.9 0.2,-0.3 0.2,-0.8 0.3,-1.2 -0.3,0.3 -0.7,0.5 -1,0.9 -0.7,1 -2.1,1.8 -3.5,2.2 -1.4,0.3 -2.9,0.3 -3.7,-0.3 -4.2,-2.8 -5.5,-9.6 -3.4,-14.3 1.6,-3.6 2.9,-7.2 4.3,-10.9 1.2,-3 2.3,-5.9 3.4,-8.9 1.1,-2.9 2.1,-5.8 3,-8.8 0.1,-0.3 0.1,-0.6 0.1,-0.8 -0.2,0.2 -0.5,0.4 -0.6,0.6 -0.7,1.9 -1.4,3.8 -2.2,5.6 -1.8,4.4 -3.9,8.9 -6,13.4 -1.5,3 -3,6.1 -4.5,9.1 -0.8,1.5 -1.6,3.1 -2.4,4.6 -0.8,1.5 -1.7,3.1 -2.5,4.6 -0.1,0.1 -0.8,0.2 -0.8,0 -2.2,-3.1 -5.2,-3.5 -8.4,-3 -1.5,0.3 -3,0.5 -4.5,0.9 -1.5,0.4 -2.9,0.9 -4.3,1.4 -1.4,0.6 -2.8,1.3 -4.2,2.1 -1.4,0.8 -2.7,1.5 -4.1,2.5 -3.2,2.2 -5.9,5.1 -7.4,8.5 -1.5,3.4 -1.7,7.5 0.3,11.9 1.9,4.3 5.9,6.4 9.4,5.2 2.7,-0.9 5,-2.3 7,-3.9 2,-1.7 3.8,-3.6 5.3,-5.7 0.8,-1.2 1.7,-2.3 2.5,-3.5 0.8,-1.2 1.7,-2.4 2.5,-3.6 1.6,-2.4 3.2,-4.8 4.8,-7.2 0.2,-0.3 0.5,-0.6 0.8,-0.9 l -0.1,1.1 c 0,1.3 -0.2,2.6 -0.1,3.9 0.2,2.5 1.2,4.5 2.9,5.8 0.8,0.7 1.9,1.2 3,1.4 1.1,0.2 2.4,0.3 3.8,0.1 0.5,-0.2 1.8,-0.4 2.4,-1.2 z m -29.8,-13.3 c 2.1,-1.2 4.7,-1.6 7.1,-2.1 1.1,-0.2 2.2,-0.5 3.3,-0.7 1.1,-0.2 2.2,-0.3 3.3,-0.2 1.3,0.1 2.6,1.5 3.6,2.6 0.3,0.3 -0.6,1.8 -1.1,2.7 -2.3,3.9 -4.8,7.7 -7.3,11.6 -1.7,2.7 -8.2,5.1 -10.4,3.1 -1.7,-1.6 -2.4,-4.3 -3.1,-5.8 0.1,-2.5 0.3,-4.7 1,-6.6 0.7,-1.9 1.7,-3.5 3.6,-4.6 z"
             id="path4669"
             inkscape:connector-curvature="0"
             style="fill:#ffffff" /><path
             d="m 535.2,486.3 c 0.4,-0.1 0.5,-0.1 0.6,-0.1 0,0.2 0.1,0.3 0,0.5 0,1.5 -0.8,3.5 -0.1,4.4 1.1,1.4 3.2,2 4.9,2.8 1.3,0.6 3.2,0.6 4,1.6 0.7,0.8 0.3,2.7 0.1,4 -0.3,1.7 -0.6,3.3 -1,4.9 -0.4,1.6 -0.8,3.2 -1.3,4.9 -0.2,0.7 -0.7,1.2 -1.1,1.9 0.1,-0.6 0.1,-1.2 0.3,-1.8 0.9,-3.3 -2.2,-2.4 -3.4,-3.1 -1.6,-0.9 -4.1,-0.6 -5.3,-1.8 -1,-1 -1.1,-3.5 -0.9,-5.2 0.4,-3 1.2,-5.9 1.8,-8.7 0.4,-1.6 1,-3 1.4,-4.3 z"
             id="path4671"
             inkscape:connector-curvature="0"
             style="fill:#ffffff" /><path
             d="m 440.4,565.2 c 1.7,-2 2.8,-3.6 4.2,-5 3,-2.7 6.1,-5.6 9,-8.5 0.1,-0.1 0.4,-0.2 0.5,-0.3 -0.1,0.2 -0.1,0.4 -0.3,0.6 -2.1,2 -3.7,4 -1,6.6 0.6,0.5 1.2,1 1.9,1.4 3.2,1.8 4.1,3.6 0.9,6.4 -1.4,1.2 -2.6,2.5 -3.9,3.8 -1.3,1.3 -2.5,2.7 -3.9,3.9 -0.4,0.4 -1.1,0.6 -1.7,0.9 0.3,-0.5 0.9,-1 0.8,-1.4 -0.3,-1.1 -0.5,-2.4 -1.3,-3.3 -1.4,-1.8 -3.1,-3.2 -5.2,-5.1 z"
             id="path4673"
             inkscape:connector-curvature="0"
             style="fill:#ffffff" /></g><g
           id="g4689"
           style="fill:#ffffff"><path
             d="m 343.6,516.7 c 1.1,1.3 2.1,2.1 2.6,3.2 0.6,1.2 0.7,2.7 0.9,4.1 0.5,2.4 0.9,4.9 1.4,7.3 0.9,4 1.7,8.1 3.1,12 1.2,3.5 3,0.6 4.1,-0.1 0.8,-0.6 1.6,-1.1 2.3,-1.7 0.8,-0.6 1.5,-1.2 2.3,-1.8 1.5,-1.2 3,-2.4 4.5,-3.6 3,-2.4 5.9,-4.8 8.7,-7.3 1.3,-1.1 3.1,-1.4 4.7,-2.1 -0.2,0.5 -0.5,1.1 -0.7,1.6 -1.9,3.8 -0.4,7.2 0.8,10.7 1,2.9 2.1,5.8 3.3,8.7 1.6,3.6 3.8,6.9 5.1,10.5 1.6,4.4 3.6,9.2 3.4,13.6 -0.1,2.9 -3.8,5.7 -6.5,8.2 -3.2,3 -7.1,5.6 -10.8,8 -0.5,0.3 -1.1,0.4 -1.6,0.7 0.2,-0.3 0.4,-0.8 0.7,-1 2.1,-1.8 4.3,-3.3 6.1,-5.3 2.7,-3 1.8,-6.4 0.3,-9.6 -2.1,-4.6 -4.1,-9.1 -5.9,-13.7 -1.9,-4.5 -3.6,-9 -5.1,-13.7 -0.8,-2.5 -0.9,-5.3 -1.3,-8 V 537 c -0.2,0.1 -0.4,0.1 -0.5,0.2 -2.3,1.8 -4.7,3.6 -7.2,5.3 -3.7,2.5 -7.6,4.8 -11.5,7.2 -0.7,0.4 -1.4,0.8 -2.1,1.2 -3,1.9 -4.9,0.2 -5.8,-4.3 -0.6,-3.3 -1.3,-6.6 -1.9,-9.8 -0.7,-3.3 -1.4,-6.5 -2,-9.7 -1,-4.8 -2.5,-5.2 -7.1,-3.1 -0.1,0.1 -0.3,0 -0.4,0 0.1,-0.1 0.1,-0.3 0.2,-0.3 3.5,-1.6 6.8,-3.4 10.2,-5 0.9,-0.4 1.9,-0.8 2.9,-1.1 0.8,-0.1 1.8,-0.5 2.8,-0.9 z"
             id="path4677"
             inkscape:connector-curvature="0"
             style="fill:#ffffff" /><path
             d="m 307.7,506.8 c -3.5,0.4 -7,1.3 -10.5,2 -4.6,1 -9.1,1.6 -13.7,2.4 -2.4,0.5 -4.9,1 -7.4,1.5 -2.4,0.4 -4.9,0.9 -7.4,1.3 -1,0.2 -1.9,0.5 -2.9,0.8 0.6,0.4 1.3,0.6 1.9,1.1 1.7,1.2 3.3,2.4 4.9,3.6 1.7,1.1 3.4,2.3 5,3.4 l 4,2.7 c 1.3,0.9 2.7,1.7 4.1,2.6 2.7,1.7 5.4,3.4 8.1,5.2 2.2,1.3 4.3,2.6 6.4,4 2.1,1.3 4.2,2.8 6.5,3.9 2.6,1.4 5.1,3.2 7.8,3.9 1.8,0.5 3.9,-0.8 5.8,-1.4 4.1,-1.5 8,-3.2 11.9,-4.8 0.1,-0.1 0.2,-0.3 0.3,-0.4 -0.2,0 -0.4,-0.1 -0.5,0 -3.3,1.8 -6.9,0.8 -8.1,-2.9 -0.5,-1.6 -0.9,-3.1 -1.4,-4.7 -0.4,-1.6 -0.8,-3.2 -1.1,-4.8 -0.7,-3.2 -1.3,-6.4 -1.8,-9.5 -0.3,-1.8 -0.3,-3.7 -0.9,-5.3 -0.5,-1.7 -1.5,-3.3 -3.7,-4.5 -2,0 -4.7,-0.5 -7.3,-0.1 z m -0.7,12.5 c 0.3,3.2 0.6,6.4 1,9.7 0,0.2 0,0.5 -0.1,0.5 -0.2,0.1 -0.4,0 -0.6,-0.1 l -8.3,-4.5 c -2.7,-1.6 -5.4,-3.3 -8.1,-4.9 -3.5,-2.1 -6.8,-4.5 -10.1,-6.8 0,0 0,-0.4 0.1,-0.4 3.6,-0.3 7,-1.3 10.4,-1.9 3.5,-0.7 6.9,-1.1 10.5,-0.3 0.7,0.2 1.3,0.3 1.7,0.4 1.7,1.1 2.5,2.3 2.9,3.8 0.4,1.4 0.4,3 0.6,4.5 z"
             id="path4679"
             inkscape:connector-curvature="0"
             style="fill:#ffffff" /><path
             d="m 410.4,514.4 c 3,0.1 6.2,2.3 8.3,5.2 2.1,3 3.1,6.8 1.2,10.1 -1.5,2.6 -4.1,4.6 -6.3,6.8 -1,1 -2,1.9 -3.1,2.8 -0.2,0.2 -0.6,0.2 -0.9,0.2 0,-0.2 0,-0.5 0.1,-0.6 1.7,-3.2 1.7,-6.7 0.4,-9.6 -0.6,-1.4 -1.6,-2.7 -2.8,-3.8 -1.2,-1.1 -2.6,-1.8 -4.3,-2.2 -1.3,-0.3 -3.2,-0.3 -4,0.5 -0.8,0.8 -0.9,2.8 -1,4.3 -0.2,6.6 4.3,11 7.2,16.4 0.8,1.5 1.7,3.2 2.3,4.8 0.7,1.7 1.2,3.3 1.5,5 0.1,0.7 -0.4,1.6 -1.2,2.5 -0.8,0.9 -1.8,1.7 -2.6,2.5 -2.3,2.1 -4.9,4 -7.5,5.9 -0.3,0.2 -0.7,0.3 -1,0.4 0.1,-0.3 0.1,-0.6 0.3,-0.8 3.1,-2.5 1.4,-5.2 0.1,-7.6 -0.8,-1.4 -1.6,-2.8 -2.4,-4.2 -0.8,-1.4 -1.6,-2.8 -2.4,-4.3 -1.6,-2.9 -3,-5.7 -4.1,-8.7 -0.9,-2.5 -0.1,-5.9 0.5,-8.8 1.2,-5.5 6,-7.1 9.6,-9.8 2.6,-2 5.1,-4.2 7.8,-5.9 1.7,-0.9 3.5,-0.9 4.3,-1.1 z"
             id="path4681"
             inkscape:connector-curvature="0"
             style="fill:#ffffff" /><path
             d="m 275.4,507.8 c 4.6,-0.5 9.3,-1.6 13.8,-2.6 0.4,-0.1 0.7,-0.4 1,-0.7 -0.4,0 -0.9,-0.2 -1.3,-0.1 -1.2,0.2 -2.7,-0.2 -4,-0.9 -1.3,-0.7 -2.3,-1.7 -2.5,-2.7 -1,-5 2.9,-10.8 7.7,-12.5 3.6,-1.3 7.2,-3.1 10.8,-4.7 2.9,-1.3 5.8,-2.5 8.6,-3.8 2.8,-1.3 5.7,-2.7 8.4,-4.2 0.2,-0.1 0.4,-0.3 0.7,-0.5 -0.3,0 -0.6,-0.1 -0.9,0 -1.8,0.8 -3.7,1.7 -5.5,2.5 -4.4,1.8 -9,3.4 -13.7,5.1 -3.2,1.2 -6.4,2.2 -9.7,3.3 -3.3,1 -6.6,2 -10,3 -0.2,0 -0.7,-0.4 -0.6,-0.6 0.7,-3.8 -1.1,-6.2 -3.8,-8.1 -2.6,-1.8 -5.1,-3.4 -7.9,-4.6 -2.8,-1.2 -5.9,-1.9 -9,-2.6 -3.8,-0.7 -7.8,-0.6 -11.3,0.8 -3.5,1.4 -6.5,4 -8.2,8.6 -1.6,4.4 -0.3,8.7 3,10.3 0.6,0.3 1.3,0.6 1.9,0.8 0.7,0.2 1.3,0.4 2,0.6 1.3,0.3 2.6,0.6 3.9,0.7 2.6,0.3 5.2,0.2 7.8,-0.3 1.4,-0.2 2.9,-0.5 4.3,-0.7 1.4,-0.3 2.9,-0.5 4.3,-0.8 2.8,-0.5 5.7,-1.1 8.4,-1.7 0.4,-0.1 0.8,-0.1 1.2,-0.1 l -0.8,0.8 c -0.9,0.9 -2,1.7 -2.8,2.7 -1.6,1.9 -2.3,4.1 -2.1,6.2 0.3,2.1 1.6,4.1 3.8,5.8 0.5,0.3 1.6,1.1 2.5,1 z m -11.6,-30.5 c 2.4,0.6 4.4,2.2 6.5,3.6 1.9,1.1 3.9,2.3 5.3,4 0.8,1 0.8,2.9 0.7,4.5 0,0.4 -1.7,0.9 -2.7,1.1 -4.3,1.1 -8.8,2 -13.3,3.1 -3.2,0.8 -9.4,-2.2 -9.5,-5.2 -0.1,-2.4 1.3,-4.7 1.9,-6.3 3.6,-3.4 6.9,-6 11.1,-4.8 z"
             id="path4683"
             inkscape:connector-curvature="0"
             style="fill:#ffffff" /><path
             d="m 368.4,511.9 c 0.3,0.2 0.4,0.3 0.5,0.3 -0.1,0.1 -0.2,0.3 -0.3,0.4 -1.1,1 -3.1,2 -3.2,3.1 -0.2,1.8 0.9,3.6 1.5,5.4 0.5,1.4 1.8,2.7 1.7,4 -0.1,1 -1.7,2.1 -2.8,2.9 -1.4,1 -2.8,1.9 -4.2,2.8 -1.4,0.9 -2.9,1.7 -4.4,2.5 -0.6,0.3 -1.4,0.4 -2.1,0.5 0.5,-0.3 0.9,-0.8 1.4,-1 3,-1.7 0.1,-3.3 -0.2,-4.6 -0.5,-1.8 -2.5,-3.4 -2.5,-5.1 0,-1.4 1.7,-3.3 3,-4.3 2.4,-1.8 5,-3.3 7.4,-4.8 1.5,-0.8 2.9,-1.5 4.2,-2.1 z"
             id="path4685"
             inkscape:connector-curvature="0"
             style="fill:#ffffff" /><path
             d="m 245.6,500.6 c 2.6,-0.2 4.5,-0.6 6.5,-0.5 2,0.1 4.2,0.1 6.2,0.2 2.1,0.1 4.1,0.1 6.2,0.2 0.2,0 0.4,0.1 0.6,0.2 -0.2,0.1 -0.4,0.2 -0.6,0.2 -2.8,-0.1 -5.4,0.2 -5.4,3.9 0,0.8 0.2,1.6 0.4,2.4 1,3.5 0.3,5.5 -3.9,5.2 -3.6,-0.3 -7.2,0 -10.9,-0.1 -0.6,0 -1.2,-0.4 -1.8,-0.6 0.5,-0.1 1.3,-0.1 1.5,-0.4 0.6,-1 1.3,-2.1 1.4,-3.3 0.1,-2.3 -0.2,-4.6 -0.2,-7.4 z"
             id="path4687"
             inkscape:connector-curvature="0"
             style="fill:#ffffff" /></g><g
           id="g4703"
           style="fill:#ffffff"><path
             d="m 211.4,397.9 c -0.2,1.8 0,3 -0.4,4.1 -0.5,1.3 -1.4,2.4 -2.2,3.5 -1.4,2 -2.8,4.1 -4.1,6.1 -1.1,1.8 -2.3,3.5 -3.4,5.3 -1.1,1.8 -2.1,3.6 -3,5.4 -1.5,3.3 1.7,2.5 3,2.8 7.6,1.4 15.4,1.9 22.8,2.5 0.8,0.1 1.6,0.4 2.4,0.8 0.8,0.4 1.6,0.8 2.4,1.1 -0.6,0.2 -1.1,0.4 -1.7,0.6 -4,1.3 -5.3,4.8 -7,8.1 -1.4,2.7 -2.6,5.5 -3.8,8.4 -0.7,1.8 -1.3,3.7 -1.9,5.6 -0.6,1.9 -1.2,3.7 -2,5.5 -2,4.2 -3.9,9 -7.2,12 -2.1,2 -6.8,1.4 -10.4,1.2 -2.2,-0.1 -4.5,-0.3 -6.6,-0.7 -2.2,-0.4 -4.4,-0.8 -6.6,-1.2 -0.5,-0.1 -1.1,-0.4 -1.6,-0.7 0.4,-0.1 0.8,-0.3 1.2,-0.2 2.7,0.2 5.4,0.7 8,0.6 3.9,-0.2 5.8,-3.2 7,-6.6 3.5,-9.4 7.1,-18.4 11.5,-27.1 1.2,-2.4 3.1,-4.4 4.7,-6.5 l 0.2,-0.3 c -0.2,-0.1 -0.3,-0.2 -0.5,-0.2 -1.5,-0.2 -3,-0.4 -4.4,-0.6 -1.5,-0.2 -2.9,-0.5 -4.4,-0.7 -4.4,-0.9 -8.8,-1.9 -13.3,-3 -0.8,-0.2 -1.5,-0.5 -2.3,-0.7 -3.4,-0.8 -3.5,-3.4 -1.1,-7.1 1.8,-2.8 3.7,-5.5 5.5,-8.3 1.9,-2.8 3.7,-5.5 5.5,-8.3 2.6,-4.1 1.8,-5.4 -2.9,-7.2 -0.1,0 -0.2,-0.2 -0.3,-0.3 0.1,0 0.3,-0.2 0.4,-0.1 1.7,0.7 3.6,1.3 5.4,1.9 1.8,0.6 3.6,1.2 5.4,1.8 1.9,0.6 3.7,1.6 5.7,2.5 z"
             id="path4691"
             inkscape:connector-curvature="0"
             style="fill:#ffffff" /><path
             d="m 193,365.4 c -2.7,-2.2 -5.9,-4 -9,-6 -3.8,-2.6 -7.5,-5.3 -11.4,-8 -1,-0.7 -2.1,-1.4 -3.1,-2.1 -1,-0.7 -2,-1.4 -3,-2.1 -2,-1.4 -4.1,-2.8 -6.2,-4.3 -0.8,-0.6 -1.7,-1 -2.6,-1.5 0.2,0.7 0.5,1.4 0.6,2.1 0.7,4 1.2,8 2.1,12 0.6,3.1 1.2,6.3 1.9,9.5 0.7,3.1 1.5,6.3 2.2,9.4 0.5,2.5 1.1,4.9 1.7,7.4 0.6,2.5 1.2,4.9 1.8,7.4 0.8,2.8 1.4,5.9 2.8,8.3 1,1.6 3.3,2.3 5.1,3.1 3.9,1.8 8,3.4 11.9,4.9 0.1,0.1 0.3,-0.1 0.5,-0.1 -0.1,-0.1 -0.2,-0.3 -0.4,-0.4 -3.6,-1 -5.5,-4.3 -3.8,-7.7 3.1,-5.8 6.7,-11.3 10.3,-16.5 2.1,-3 5.3,-5.4 3.7,-10.2 -0.7,-0.7 -1.5,-1.6 -2.3,-2.6 -0.9,-0.8 -1.8,-1.8 -2.8,-2.6 z m -9.5,8.4 c -2.1,2.4 -4.1,5 -6.1,7.5 -0.1,0.1 -0.4,0.3 -0.5,0.3 -0.2,-0.1 -0.3,-0.3 -0.4,-0.5 l -1.4,-4.5 -0.7,-2.3 -0.6,-2.3 c -0.8,-3 -1.5,-6.1 -2.3,-9.1 -0.9,-4 -1.5,-8 -2.3,-12 0,-0.1 0.3,-0.3 0.4,-0.2 2.8,2.3 5.9,4 8.8,6 1.5,1 2.8,2 4.1,3.2 1.3,1.2 2.5,2.5 3.5,4 0.4,0.6 0.7,1.2 0.9,1.5 0.5,1.9 0.1,3.4 -0.7,4.7 -0.6,1.4 -1.7,2.5 -2.7,3.7 z"
             id="path4693"
             inkscape:connector-curvature="0"
             style="fill:#ffffff" /><path
             d="m 260.3,443.5 c 2.1,2.2 2.8,6 2.2,9.6 -0.6,3.6 -2.6,7 -6.3,7.9 -2.9,0.8 -6.1,0.3 -9.2,0.4 -1.4,0 -2.8,-0.1 -4.2,-0.2 -0.3,0 -0.5,-0.3 -0.8,-0.4 0.2,-0.1 0.3,-0.3 0.5,-0.4 3.5,-1 5.9,-3.6 7.1,-6.5 1.2,-3 1.1,-6.4 -0.7,-9.2 -0.7,-1.1 -2,-2.5 -3.1,-2.5 -1.1,0 -2.6,1.3 -3.7,2.3 -4.9,4.5 -4.7,10.8 -6.5,16.7 -1,3.4 -2.3,6.9 -4.2,9.7 -0.9,1.2 -4.1,0.9 -6.2,0.8 -3.1,-0.1 -6.3,-0.7 -9.5,-1.1 -0.3,0 -0.6,-0.3 -1,-0.4 0.3,-0.1 0.5,-0.4 0.8,-0.3 4,0.5 4.7,-2.7 5.4,-5.2 0.9,-3.2 1.8,-6.3 2.6,-9.4 0.9,-3.1 1.9,-6.2 3.2,-9 1.1,-2.5 4.1,-4.3 6.6,-5.9 4.7,-3 9.3,-0.8 13.7,-0.1 3.2,0.5 6.6,0.7 9.6,1.3 1.6,0.2 3,1.5 3.7,1.9 z"
             id="path4695"
             inkscape:connector-curvature="0"
             style="fill:#ffffff" /><path
             d="m 169.4,343.3 c 1.9,1.4 3.8,2.8 5.7,4.1 1.9,1.3 4,2.6 5.9,3.8 0.3,0.2 0.8,0.2 1.2,0.3 -0.3,-0.3 -0.5,-0.7 -0.9,-1 -1,-0.7 -1.8,-2.1 -2.2,-3.5 -0.3,-1.4 -0.3,-2.9 0.3,-3.7 2.8,-4.2 9.6,-5.5 14.3,-3.4 3.6,1.6 7.2,2.9 10.9,4.3 3,1.2 5.9,2.3 8.9,3.4 2.9,1.1 5.8,2.1 8.8,3 0.3,0.1 0.6,0.1 0.8,0.1 -0.2,-0.2 -0.4,-0.5 -0.6,-0.6 -1.9,-0.7 -3.8,-1.4 -5.6,-2.2 -4.4,-1.8 -8.9,-3.9 -13.4,-6 -3,-1.5 -6.1,-3 -9.1,-4.5 -1.5,-0.8 -3.1,-1.6 -4.6,-2.4 -1.5,-0.8 -3.1,-1.7 -4.6,-2.5 -0.1,-0.1 -0.2,-0.8 0,-0.8 3.1,-2.2 3.5,-5.2 3,-8.4 -0.3,-1.5 -0.5,-3 -0.9,-4.5 -0.4,-1.5 -0.9,-2.9 -1.4,-4.3 -0.5,-1.4 -1.3,-2.8 -2.1,-4.2 -0.8,-1.4 -1.5,-2.7 -2.5,-4.1 -2.2,-3.2 -5.1,-5.9 -8.5,-7.4 -3.4,-1.5 -7.5,-1.7 -11.9,0.3 -4.3,1.9 -6.4,5.9 -5.2,9.4 0.9,2.7 2.3,5 3.9,7 1.7,2 3.6,3.8 5.7,5.3 1.2,0.8 2.3,1.7 3.5,2.5 1.2,0.8 2.4,1.7 3.6,2.5 2.4,1.6 4.8,3.2 7.2,4.8 0.3,0.2 0.6,0.5 0.9,0.8 l -1.1,-0.1 c -1.3,0 -2.6,-0.2 -3.9,-0.1 -2.5,0.2 -4.5,1.2 -5.8,2.9 -0.7,0.8 -1.2,1.9 -1.4,3 -0.2,1.1 -0.3,2.4 -0.1,3.8 0.3,0.5 0.5,1.8 1.2,2.4 z m 13.4,-29.8 c 1.2,2.1 1.6,4.7 2.1,7.1 0.2,1.1 0.5,2.2 0.7,3.3 0.2,1.1 0.3,2.2 0.2,3.3 -0.1,1.3 -1.5,2.6 -2.6,3.6 -0.3,0.3 -1.8,-0.6 -2.7,-1.1 -3.9,-2.3 -7.7,-4.8 -11.6,-7.3 -2.7,-1.7 -5.1,-8.2 -3.1,-10.4 1.6,-1.7 4.3,-2.4 5.8,-3.1 2.5,0.1 4.7,0.3 6.6,1 1.9,0.7 3.5,1.7 4.6,3.6 z"
             id="path4697"
             inkscape:connector-curvature="0"
             style="fill:#ffffff" /><path
             d="m 232.3,411.9 c 0.1,0.4 0.1,0.5 0.1,0.6 -0.2,0 -0.3,0.1 -0.5,0 -1.5,0 -3.5,-0.8 -4.4,-0.1 -1.4,1.1 -2,3.2 -2.8,4.9 -0.6,1.3 -0.6,3.2 -1.6,4 -0.8,0.7 -2.7,0.3 -4,0.1 -1.7,-0.3 -3.3,-0.6 -4.9,-1 -1.6,-0.4 -3.2,-0.8 -4.9,-1.3 -0.7,-0.2 -1.2,-0.7 -1.9,-1.1 0.6,0.1 1.2,0.1 1.8,0.3 3.3,0.9 2.4,-2.2 3.1,-3.4 0.9,-1.6 0.6,-4.1 1.8,-5.3 1,-1 3.5,-1.1 5.2,-0.9 3,0.4 5.9,1.2 8.7,1.8 1.5,0.4 2.9,1 4.3,1.4 z"
             id="path4699"
             inkscape:connector-curvature="0"
             style="fill:#ffffff" /><path
             d="m 153.4,317.1 c 2,1.7 3.6,2.8 5,4.2 2.7,3 5.6,6.1 8.5,9 0.1,0.1 0.2,0.4 0.3,0.5 -0.2,-0.1 -0.4,-0.1 -0.6,-0.3 -2,-2.1 -4,-3.7 -6.6,-1 -0.5,0.6 -1,1.2 -1.4,1.9 -1.8,3.2 -3.6,4.1 -6.4,0.9 -1.2,-1.4 -2.5,-2.6 -3.8,-3.9 -1.3,-1.3 -2.7,-2.5 -3.9,-3.9 -0.4,-0.4 -0.6,-1.1 -0.9,-1.7 0.5,0.3 1,0.9 1.4,0.8 1.1,-0.3 2.4,-0.5 3.3,-1.3 1.8,-1.4 3.2,-3.1 5.1,-5.2 z"
             id="path4701"
             inkscape:connector-curvature="0"
             style="fill:#ffffff" /></g><g
           id="g4717"
           style="fill:#ffffff"><path
             d="m 201.9,220.3 c -1.3,1.1 -2.1,2.1 -3.2,2.6 -1.2,0.6 -2.7,0.7 -4.1,0.9 -2.4,0.5 -4.9,0.9 -7.3,1.4 -4,0.9 -8.1,1.7 -12,3.1 -3.5,1.2 -0.6,3 0.1,4.1 0.6,0.8 1.1,1.6 1.7,2.3 0.6,0.8 1.2,1.5 1.8,2.3 1.2,1.5 2.4,3 3.6,4.5 2.4,3 4.8,5.9 7.3,8.7 1.1,1.3 1.4,3.1 2.1,4.7 -0.5,-0.2 -1.1,-0.5 -1.6,-0.7 -3.8,-1.9 -7.2,-0.4 -10.7,0.8 -2.9,1 -5.8,2.1 -8.7,3.3 -3.6,1.6 -6.9,3.8 -10.5,5.1 -4.4,1.6 -9.2,3.6 -13.6,3.4 -2.9,-0.1 -5.7,-3.8 -8.2,-6.5 -3,-3.2 -5.6,-7.1 -8,-10.8 -0.3,-0.5 -0.4,-1.1 -0.7,-1.6 0.3,0.2 0.8,0.4 1,0.7 1.8,2.1 3.3,4.3 5.3,6.1 3,2.7 6.4,1.8 9.6,0.3 4.6,-2.1 9.1,-4.1 13.7,-5.9 4.5,-1.9 9,-3.6 13.7,-5.1 2.5,-0.8 5.3,-0.9 8,-1.3 h 0.4 c -0.1,-0.2 -0.1,-0.4 -0.2,-0.5 -1.8,-2.3 -3.6,-4.7 -5.3,-7.2 -2.5,-3.7 -4.8,-7.6 -7.2,-11.5 -0.4,-0.7 -0.8,-1.4 -1.2,-2.1 -1.9,-3 -0.2,-4.9 4.3,-5.8 3.3,-0.6 6.6,-1.3 9.8,-1.9 3.3,-0.7 6.5,-1.4 9.7,-2 4.8,-1 5.2,-2.5 3.1,-7.1 -0.1,-0.1 0,-0.3 0,-0.4 0.1,0.1 0.3,0.1 0.3,0.2 1.6,3.5 3.4,6.8 5,10.2 0.4,0.9 0.8,1.9 1.1,2.9 0.1,0.8 0.5,1.8 0.9,2.8 z"
             id="path4705"
             inkscape:connector-curvature="0"
             style="fill:#ffffff" /><path
             d="m 211.8,184.4 c -0.4,-3.5 -1.3,-7 -2,-10.5 -1,-4.6 -1.6,-9.1 -2.4,-13.7 -0.5,-2.4 -1,-4.9 -1.5,-7.4 -0.4,-2.4 -0.9,-4.9 -1.3,-7.4 -0.2,-1 -0.5,-1.9 -0.8,-2.9 -0.4,0.6 -0.6,1.3 -1.1,1.9 -1.2,1.7 -2.4,3.3 -3.6,4.9 -1.1,1.7 -2.3,3.4 -3.4,5 l -2.7,4 c -0.9,1.3 -1.7,2.7 -2.6,4.1 -1.7,2.7 -3.4,5.4 -5.2,8.1 -1.3,2.2 -2.6,4.3 -4,6.4 -1.3,2.1 -2.8,4.2 -3.9,6.5 -1.4,2.6 -3.2,5.1 -3.9,7.8 -0.5,1.8 0.8,3.9 1.4,5.8 1.5,4.1 3.2,8 4.8,11.9 0.1,0.1 0.3,0.2 0.4,0.3 0,-0.2 0.1,-0.4 0,-0.5 -1.8,-3.3 -0.8,-6.9 2.9,-8.1 1.6,-0.5 3.1,-0.9 4.7,-1.4 1.6,-0.4 3.2,-0.8 4.8,-1.1 3.2,-0.7 6.4,-1.3 9.5,-1.8 1.8,-0.3 3.7,-0.3 5.3,-0.9 1.7,-0.5 3.3,-1.5 4.5,-3.7 0,-2 0.5,-4.7 0.1,-7.3 z m -12.6,-0.7 c -3.2,0.3 -6.4,0.6 -9.7,1 -0.2,0 -0.5,0 -0.5,-0.1 -0.1,-0.2 0,-0.4 0.1,-0.6 l 4.5,-8.3 c 1.6,-2.7 3.3,-5.4 4.9,-8.1 2.1,-3.5 4.5,-6.8 6.8,-10.1 0,0 0.4,0 0.4,0.1 0.3,3.6 1.3,7 1.9,10.4 0.7,3.5 1.1,6.9 0.3,10.5 -0.2,0.7 -0.3,1.3 -0.4,1.7 -1.1,1.7 -2.3,2.5 -3.8,2.9 -1.3,0.4 -2.9,0.4 -4.5,0.6 z"
             id="path4707"
             inkscape:connector-curvature="0"
             style="fill:#ffffff" /><path
             d="m 204.2,287.1 c -0.1,3 -2.3,6.2 -5.2,8.3 -3,2.1 -6.8,3.1 -10.1,1.2 -2.6,-1.5 -4.6,-4.1 -6.8,-6.3 -1,-1 -1.9,-2 -2.8,-3.1 -0.2,-0.2 -0.2,-0.6 -0.2,-0.9 0.2,0 0.5,0 0.6,0.1 3.2,1.7 6.7,1.7 9.6,0.4 1.4,-0.6 2.7,-1.6 3.8,-2.8 1.1,-1.2 1.8,-2.6 2.2,-4.3 0.3,-1.3 0.3,-3.2 -0.5,-4 -0.8,-0.8 -2.8,-0.9 -4.3,-1 -6.6,-0.2 -11,4.3 -16.4,7.2 -1.5,0.8 -3.2,1.7 -4.8,2.3 -1.7,0.7 -3.3,1.2 -5,1.5 -0.7,0.1 -1.6,-0.4 -2.5,-1.2 -0.9,-0.8 -1.7,-1.8 -2.5,-2.6 -2.1,-2.3 -4,-4.9 -5.9,-7.5 -0.2,-0.3 -0.3,-0.7 -0.4,-1 0.3,0.1 0.6,0.1 0.8,0.3 2.5,3.1 5.2,1.4 7.6,0.1 1.4,-0.8 2.8,-1.6 4.2,-2.4 1.4,-0.8 2.8,-1.6 4.3,-2.4 2.9,-1.6 5.7,-3 8.7,-4.1 2.5,-0.9 5.9,-0.1 8.8,0.5 5.5,1.2 7.1,6 9.8,9.6 2,2.6 4.2,5.1 5.9,7.8 0.9,1.7 0.8,3.5 1.1,4.3 z"
             id="path4709"
             inkscape:connector-curvature="0"
             style="fill:#ffffff" /><path
             d="m 210.8,152.1 c 0.5,4.6 1.6,9.3 2.6,13.8 0.1,0.4 0.4,0.7 0.7,1 0,-0.4 0.2,-0.9 0.1,-1.3 -0.2,-1.2 0.2,-2.7 0.9,-4 0.7,-1.3 1.7,-2.3 2.7,-2.5 5,-1 10.8,2.9 12.5,7.7 1.3,3.6 3.1,7.2 4.7,10.8 1.3,2.9 2.5,5.8 3.8,8.6 1.3,2.8 2.7,5.7 4.2,8.4 0.1,0.2 0.3,0.4 0.5,0.7 0,-0.3 0.1,-0.6 0,-0.9 -0.8,-1.8 -1.7,-3.7 -2.5,-5.5 -1.8,-4.4 -3.4,-9 -5.1,-13.7 -1.2,-3.2 -2.2,-6.4 -3.3,-9.7 -1,-3.3 -2,-6.6 -3,-10 0,-0.2 0.4,-0.7 0.6,-0.6 3.8,0.7 6.2,-1.1 8.1,-3.8 1.8,-2.6 3.4,-5.1 4.6,-7.9 1.2,-2.8 1.9,-5.9 2.6,-9 0.7,-3.8 0.6,-7.8 -0.8,-11.3 -1.4,-3.5 -4,-6.5 -8.6,-8.2 -4.4,-1.6 -8.7,-0.3 -10.3,3 -0.3,0.6 -0.6,1.3 -0.8,1.9 -0.2,0.7 -0.4,1.3 -0.6,2 -0.3,1.3 -0.6,2.6 -0.7,3.9 -0.3,2.6 -0.2,5.2 0.3,7.8 0.2,1.4 0.5,2.9 0.7,4.3 0.3,1.4 0.5,2.9 0.8,4.3 0.5,2.8 1.1,5.7 1.7,8.4 0.1,0.4 0.1,0.8 0.1,1.2 l -0.8,-0.8 c -0.9,-0.9 -1.7,-2 -2.7,-2.8 -1.9,-1.6 -4.1,-2.3 -6.2,-2.1 -2.1,0.3 -4.1,1.6 -5.8,3.8 -0.3,0.5 -1.1,1.5 -1,2.5 z m 30.5,-11.6 c -0.6,2.4 -2.2,4.4 -3.6,6.5 -1.1,1.9 -2.3,3.9 -4,5.3 -1,0.8 -2.9,0.8 -4.5,0.7 -0.4,0 -0.9,-1.7 -1.1,-2.7 -1.1,-4.3 -2,-8.8 -3.1,-13.3 -0.8,-3.2 2.2,-9.4 5.2,-9.5 2.4,-0.1 4.7,1.3 6.3,1.9 3.4,3.6 6,6.9 4.8,11.1 z"
             id="path4711"
             inkscape:connector-curvature="0"
             style="fill:#ffffff" /><path
             d="m 206.7,245 c -0.2,0.3 -0.3,0.4 -0.3,0.5 -0.1,-0.1 -0.3,-0.2 -0.4,-0.3 -1,-1.1 -2,-3.1 -3.1,-3.2 -1.8,-0.2 -3.6,0.9 -5.4,1.5 -1.4,0.5 -2.7,1.8 -4,1.7 -1,-0.1 -2.1,-1.7 -2.9,-2.8 -1,-1.4 -1.9,-2.8 -2.8,-4.2 -0.9,-1.4 -1.7,-2.9 -2.5,-4.4 -0.3,-0.6 -0.4,-1.4 -0.5,-2.1 0.3,0.5 0.8,0.9 1,1.4 1.7,3 3.3,0.1 4.6,-0.2 1.8,-0.5 3.4,-2.5 5.1,-2.5 1.4,0 3.3,1.7 4.3,3 1.8,2.4 3.3,5 4.8,7.4 0.8,1.6 1.5,3 2.1,4.2 z"
             id="path4713"
             inkscape:connector-curvature="0"
             style="fill:#ffffff" /><path
             d="m 218,122.3 c 0.2,2.6 0.6,4.5 0.5,6.5 -0.1,2 -0.1,4.2 -0.2,6.2 -0.1,2.1 -0.1,4.1 -0.2,6.2 0,0.2 -0.1,0.4 -0.2,0.6 -0.1,-0.2 -0.2,-0.4 -0.2,-0.6 0.1,-2.8 -0.2,-5.4 -3.9,-5.4 -0.8,0 -1.6,0.2 -2.4,0.4 -3.5,1 -5.5,0.3 -5.2,-3.9 0.3,-3.6 0,-7.2 0.1,-10.9 0,-0.6 0.4,-1.2 0.6,-1.8 0.1,0.5 0.1,1.3 0.4,1.5 1,0.6 2.1,1.3 3.3,1.4 2.3,0.1 4.6,-0.2 7.4,-0.2 z"
             id="path4715"
             inkscape:connector-curvature="0"
             style="fill:#ffffff" /></g><g
           id="g4731"
           style="fill:#ffffff"><path
             d="m 320.7,88.1 c -1.8,-0.2 -3,0 -4.1,-0.4 -1.3,-0.5 -2.4,-1.4 -3.5,-2.2 -2,-1.4 -4.1,-2.8 -6.1,-4.1 -1.8,-1.1 -3.5,-2.3 -5.3,-3.4 -1.8,-1.1 -3.6,-2.1 -5.4,-3 -3.3,-1.5 -2.5,1.7 -2.8,3 -1.4,7.6 -1.9,15.4 -2.5,22.8 -0.1,0.8 -0.4,1.6 -0.8,2.4 -0.4,0.8 -0.8,1.6 -1.1,2.4 -0.2,-0.6 -0.4,-1.1 -0.6,-1.7 -1.3,-4 -4.8,-5.3 -8.1,-7 -2.7,-1.4 -5.5,-2.6 -8.4,-3.8 -1.8,-0.7 -3.7,-1.3 -5.6,-1.9 -1.9,-0.6 -3.7,-1.2 -5.5,-2 -4.2,-2 -9,-3.9 -12,-7.2 -2,-2.1 -1.4,-6.8 -1.2,-10.4 0.1,-2.2 0.3,-4.5 0.7,-6.6 0.4,-2.2 0.8,-4.4 1.2,-6.6 0.1,-0.5 0.4,-1.1 0.7,-1.6 0.1,0.4 0.3,0.8 0.2,1.2 -0.2,2.7 -0.7,5.4 -0.6,8 0.2,3.9 3.2,5.8 6.6,7 9.4,3.5 18.4,7.1 27.1,11.5 2.4,1.2 4.4,3.1 6.5,4.7 l 0.3,0.2 c 0.1,-0.2 0.2,-0.3 0.2,-0.5 0.2,-1.5 0.4,-3 0.6,-4.4 0.2,-1.5 0.5,-2.9 0.7,-4.4 0.9,-4.4 1.9,-8.8 3,-13.3 0.2,-0.8 0.5,-1.5 0.7,-2.3 0.8,-3.4 3.4,-3.5 7.1,-1 2.8,1.8 5.5,3.7 8.3,5.5 2.8,1.9 5.5,3.7 8.3,5.5 4.1,2.6 5.4,1.8 7.2,-2.9 0,-0.1 0.2,-0.2 0.3,-0.3 0,0.1 0.2,0.3 0.1,0.4 -0.7,1.7 -1.3,3.6 -1.9,5.4 -0.6,1.8 -1.2,3.6 -1.8,5.4 -0.6,1.8 -1.6,3.6 -2.5,5.6 z"
             id="path4719"
             inkscape:connector-curvature="0"
             style="fill:#ffffff" /><path
             d="m 353.2,69.7 c 2.2,-2.7 4,-5.9 6,-9 2.6,-3.8 5.3,-7.5 8,-11.4 0.7,-1 1.4,-2.1 2.1,-3.1 0.7,-1 1.4,-2 2.1,-3 1.4,-2 2.8,-4.1 4.3,-6.2 0.6,-0.8 1,-1.7 1.5,-2.6 -0.7,0.2 -1.4,0.5 -2.1,0.6 -4,0.7 -8,1.2 -12,2.1 -3.1,0.6 -6.3,1.2 -9.5,1.9 -3.1,0.7 -6.3,1.5 -9.4,2.2 -2.5,0.5 -4.9,1.1 -7.4,1.7 -2.5,0.6 -4.9,1.2 -7.4,1.8 -2.8,0.8 -5.9,1.4 -8.3,2.8 -1.6,1 -2.3,3.3 -3.1,5.1 -1.8,3.9 -3.4,8 -4.9,11.9 -0.1,0.1 0.1,0.3 0.1,0.5 0.1,-0.1 0.3,-0.2 0.4,-0.4 1,-3.6 4.3,-5.5 7.7,-3.8 5.8,3.1 11.3,6.7 16.5,10.3 3,2.1 5.4,5.3 10.2,3.7 0.7,-0.7 1.6,-1.5 2.6,-2.3 0.8,-0.9 1.8,-1.8 2.6,-2.8 z m -8.4,-9.5 c -2.4,-2.1 -5,-4.1 -7.5,-6.1 -0.1,-0.1 -0.3,-0.4 -0.3,-0.5 0.1,-0.2 0.3,-0.3 0.5,-0.4 l 4.5,-1.4 2.3,-0.7 2.3,-0.6 c 3,-0.8 6.1,-1.5 9.1,-2.3 4,-0.9 8,-1.5 12,-2.3 0.1,0 0.3,0.3 0.2,0.4 -2.3,2.8 -4,5.9 -6,8.8 -1,1.5 -2,2.8 -3.2,4.1 -1.2,1.3 -2.5,2.5 -4,3.5 -0.6,0.4 -1.2,0.7 -1.5,0.9 -1.9,0.5 -3.4,0.1 -4.7,-0.7 -1.4,-0.6 -2.6,-1.7 -3.7,-2.7 z"
             id="path4721"
             inkscape:connector-curvature="0"
             style="fill:#ffffff" /><path
             d="m 275.1,137 c -2.2,2.1 -6,2.8 -9.6,2.2 -3.6,-0.6 -7,-2.6 -7.9,-6.3 -0.8,-2.9 -0.3,-6.1 -0.4,-9.2 0,-1.4 0.1,-2.8 0.2,-4.2 0,-0.3 0.3,-0.5 0.4,-0.8 0.1,0.2 0.3,0.3 0.4,0.5 1,3.5 3.6,5.9 6.5,7.1 3,1.2 6.4,1.1 9.2,-0.7 1.1,-0.7 2.5,-2 2.5,-3.1 0,-1.1 -1.3,-2.6 -2.3,-3.7 -4.5,-4.9 -10.8,-4.7 -16.7,-6.5 -3.4,-1 -6.9,-2.3 -9.7,-4.2 -1.2,-0.9 -0.9,-4.1 -0.8,-6.2 0.1,-3.1 0.7,-6.3 1.1,-9.5 0,-0.3 0.3,-0.6 0.4,-1 0.1,0.3 0.4,0.5 0.3,0.8 -0.5,4 2.7,4.7 5.2,5.4 3.2,0.9 6.3,1.8 9.4,2.6 3.1,0.9 6.2,1.9 9,3.2 2.5,1.1 4.3,4.1 5.9,6.6 3,4.7 0.8,9.3 0.1,13.7 -0.5,3.2 -0.7,6.6 -1.3,9.6 -0.2,1.6 -1.5,3 -1.9,3.7 z"
             id="path4723"
             inkscape:connector-curvature="0"
             style="fill:#ffffff" /><path
             d="m 375.3,46.1 c -1.4,1.9 -2.8,3.8 -4.1,5.7 -1.3,1.9 -2.6,4 -3.8,5.9 -0.2,0.3 -0.2,0.8 -0.3,1.2 0.3,-0.3 0.7,-0.5 1,-0.9 0.7,-1 2.1,-1.8 3.5,-2.2 1.4,-0.3 2.9,-0.3 3.7,0.3 4.2,2.8 5.5,9.6 3.4,14.3 -1.6,3.6 -2.9,7.2 -4.3,10.9 -1.2,3 -2.3,5.9 -3.4,8.9 -1.1,2.9 -2.1,5.8 -3,8.8 -0.1,0.3 -0.1,0.6 -0.1,0.8 0.2,-0.2 0.5,-0.4 0.6,-0.6 0.7,-1.9 1.4,-3.8 2.2,-5.6 1.8,-4.4 3.9,-8.9 6,-13.4 1.5,-3 3,-6.1 4.5,-9.1 0.8,-1.5 1.6,-3.1 2.4,-4.6 0.8,-1.5 1.7,-3.1 2.5,-4.6 0.1,-0.1 0.8,-0.2 0.8,0 2.2,3.1 5.2,3.5 8.4,3 1.5,-0.3 3,-0.5 4.5,-0.9 1.5,-0.4 2.9,-0.9 4.3,-1.4 1.4,-0.6 2.8,-1.3 4.2,-2.1 1.4,-0.8 2.7,-1.5 4.1,-2.5 3.2,-2.2 5.9,-5.1 7.4,-8.5 1.5,-3.4 1.7,-7.5 -0.3,-11.9 -1.9,-4.3 -5.9,-6.4 -9.4,-5.2 -2.7,0.9 -5,2.3 -7,3.9 -2,1.7 -3.8,3.6 -5.3,5.7 -0.8,1.2 -1.7,2.3 -2.5,3.5 -0.8,1.2 -1.7,2.4 -2.5,3.6 -1.6,2.4 -3.2,4.8 -4.8,7.2 -0.2,0.3 -0.5,0.6 -0.8,0.9 l 0.1,-1.1 c 0,-1.3 0.2,-2.6 0.1,-3.9 -0.2,-2.5 -1.2,-4.5 -2.9,-5.8 -0.8,-0.7 -1.9,-1.2 -3,-1.4 -1.1,-0.2 -2.4,-0.3 -3.8,-0.1 -0.5,0.3 -1.8,0.5 -2.4,1.2 z m 29.8,13.4 c -2.1,1.2 -4.7,1.6 -7.1,2.1 -1.1,0.2 -2.2,0.5 -3.3,0.7 -1.1,0.2 -2.2,0.3 -3.3,0.2 -1.3,-0.1 -2.6,-1.5 -3.6,-2.6 -0.3,-0.3 0.6,-1.8 1.1,-2.7 2.3,-3.9 4.8,-7.7 7.3,-11.6 1.7,-2.7 8.2,-5.1 10.4,-3.1 1.7,1.6 2.4,4.3 3.1,5.8 -0.1,2.5 -0.3,4.7 -1,6.6 -0.7,1.9 -1.7,3.5 -3.6,4.6 z"
             id="path4725"
             inkscape:connector-curvature="0"
             style="fill:#ffffff" /><path
             d="m 306.6,108.9 c -0.4,0.1 -0.5,0.1 -0.6,0.1 0,-0.2 -0.1,-0.3 0,-0.5 0,-1.5 0.8,-3.5 0.1,-4.4 -1.1,-1.4 -3.2,-2 -4.9,-2.8 -1.3,-0.6 -3.2,-0.6 -4,-1.6 -0.7,-0.8 -0.3,-2.7 -0.1,-4 0.3,-1.7 0.6,-3.3 1,-4.9 0.4,-1.6 0.8,-3.2 1.3,-4.9 0.2,-0.7 0.7,-1.2 1.1,-1.9 -0.1,0.6 -0.1,1.2 -0.3,1.8 -0.9,3.3 2.2,2.4 3.4,3.1 1.6,0.9 4.1,0.6 5.3,1.8 1,1 1.1,3.5 0.9,5.2 -0.4,3 -1.2,5.9 -1.8,8.7 -0.3,1.6 -0.9,3 -1.4,4.3 z"
             id="path4727"
             inkscape:connector-curvature="0"
             style="fill:#ffffff" /><path
             d="m 401.4,30.1 c -1.7,2 -2.8,3.6 -4.2,5 -3,2.7 -6.1,5.6 -9,8.5 -0.1,0.1 -0.4,0.2 -0.5,0.3 0.1,-0.2 0.1,-0.4 0.3,-0.6 2.1,-2 3.7,-4 1,-6.6 -0.6,-0.5 -1.2,-1 -1.9,-1.4 -3.2,-1.8 -4.1,-3.6 -0.9,-6.4 1.4,-1.2 2.6,-2.5 3.9,-3.8 1.3,-1.3 2.5,-2.7 3.9,-3.9 0.4,-0.4 1.1,-0.6 1.7,-0.9 -0.3,0.5 -0.9,1 -0.8,1.4 0.3,1.1 0.5,2.4 1.3,3.3 1.4,1.8 3.2,3.2 5.2,5.1 z"
             id="path4729"
             inkscape:connector-curvature="0"
             style="fill:#ffffff" /></g><g
           id="g4745"
           style="fill:#ffffff"><path
             d="m 498.3,78.6 c -1.1,-1.3 -2.1,-2.1 -2.6,-3.2 -0.6,-1.2 -0.7,-2.7 -0.9,-4.1 -0.5,-2.4 -0.9,-4.9 -1.4,-7.3 -0.9,-4 -1.7,-8.1 -3.1,-12 -1.2,-3.5 -3,-0.6 -4.1,0.1 -0.8,0.6 -1.6,1.1 -2.3,1.7 -0.8,0.6 -1.5,1.2 -2.3,1.8 -1.5,1.2 -3,2.4 -4.5,3.6 -3,2.4 -5.9,4.8 -8.7,7.3 -1.3,1.1 -3.1,1.4 -4.7,2.1 0.2,-0.5 0.5,-1.1 0.7,-1.6 1.9,-3.8 0.4,-7.2 -0.8,-10.7 -1,-2.9 -2.1,-5.8 -3.3,-8.7 -1.6,-3.6 -3.8,-6.9 -5.1,-10.5 -1.6,-4.4 -3.6,-9.2 -3.4,-13.6 0.1,-2.9 3.8,-5.7 6.5,-8.2 3.2,-3 7.1,-5.6 10.8,-8 0.5,-0.3 1.1,-0.4 1.6,-0.7 -0.2,0.3 -0.4,0.8 -0.7,1 -2.1,1.8 -4.3,3.3 -6.1,5.3 -2.7,3 -1.8,6.4 -0.3,9.6 2.1,4.6 4.1,9.1 5.9,13.7 1.9,4.5 3.6,9 5.1,13.7 0.8,2.5 0.9,5.3 1.3,8 v 0.4 c 0.2,-0.1 0.4,-0.1 0.5,-0.2 2.3,-1.8 4.7,-3.6 7.2,-5.3 3.7,-2.5 7.6,-4.8 11.5,-7.2 0.7,-0.4 1.4,-0.8 2.1,-1.2 3,-1.9 4.9,-0.2 5.8,4.3 0.6,3.3 1.3,6.6 1.9,9.8 0.7,3.3 1.4,6.5 2,9.7 1,4.8 2.5,5.2 7.1,3.1 0.1,-0.1 0.3,0 0.4,0 -0.1,0.1 -0.1,0.3 -0.2,0.3 -3.5,1.6 -6.8,3.4 -10.2,5 -0.9,0.4 -1.9,0.8 -2.9,1.1 -0.8,0.1 -1.8,0.5 -2.8,0.9 z"
             id="path4733"
             inkscape:connector-curvature="0"
             style="fill:#ffffff" /><path
             d="m 534.2,88.5 c 3.5,-0.4 7,-1.3 10.5,-2 4.6,-1 9.1,-1.6 13.7,-2.4 2.4,-0.5 4.9,-1 7.4,-1.5 2.4,-0.4 4.9,-0.9 7.4,-1.3 1,-0.2 1.9,-0.5 2.9,-0.8 -0.6,-0.4 -1.3,-0.6 -1.9,-1.1 -1.7,-1.2 -3.3,-2.4 -4.9,-3.6 -1.7,-1.1 -3.4,-2.3 -5,-3.4 l -4,-2.7 c -1.3,-0.9 -2.7,-1.7 -4.1,-2.6 -2.7,-1.7 -5.4,-3.4 -8.1,-5.2 -2.2,-1.3 -4.3,-2.6 -6.4,-4 -2.1,-1.3 -4.2,-2.8 -6.5,-3.9 -2.6,-1.4 -5.1,-3.2 -7.8,-3.9 -1.8,-0.5 -3.9,0.8 -5.8,1.4 -4.1,1.5 -8,3.2 -11.9,4.8 -0.1,0.1 -0.2,0.3 -0.3,0.4 0.2,0 0.4,0.1 0.5,0 3.3,-1.8 6.9,-0.8 8.1,2.9 0.5,1.6 0.9,3.1 1.4,4.7 0.4,1.6 0.8,3.2 1.1,4.8 0.7,3.2 1.3,6.4 1.8,9.5 0.3,1.8 0.3,3.7 0.9,5.3 0.5,1.7 1.5,3.3 3.7,4.5 2,0 4.7,0.5 7.3,0.1 z m 0.7,-12.6 c -0.3,-3.2 -0.6,-6.4 -1,-9.7 0,-0.2 0,-0.5 0.1,-0.5 0.2,-0.1 0.4,0 0.6,0.1 l 8.3,4.5 c 2.7,1.6 5.4,3.3 8.1,4.9 3.5,2.1 6.8,4.5 10.1,6.8 0,0 0,0.4 -0.1,0.4 -3.6,0.3 -7,1.3 -10.4,1.9 -3.5,0.7 -6.9,1.1 -10.5,0.3 -0.7,-0.2 -1.3,-0.3 -1.7,-0.4 -1.7,-1.1 -2.5,-2.3 -2.9,-3.8 -0.4,-1.3 -0.5,-2.9 -0.6,-4.5 z"
             id="path4735"
             inkscape:connector-curvature="0"
             style="fill:#ffffff" /><path
             d="m 431.5,80.9 c -3,-0.1 -6.2,-2.3 -8.3,-5.2 -2.1,-3 -3.1,-6.8 -1.2,-10.1 1.5,-2.6 4.1,-4.6 6.3,-6.8 1,-1 2,-1.9 3.1,-2.8 0.2,-0.2 0.6,-0.2 0.9,-0.2 0,0.2 0,0.5 -0.1,0.6 -1.7,3.2 -1.7,6.7 -0.4,9.6 0.6,1.4 1.6,2.7 2.8,3.8 1.2,1.1 2.6,1.8 4.3,2.2 1.3,0.3 3.2,0.3 4,-0.5 0.8,-0.8 0.9,-2.8 1,-4.3 0.2,-6.6 -4.3,-11 -7.2,-16.4 -0.8,-1.5 -1.7,-3.2 -2.3,-4.8 -0.7,-1.7 -1.2,-3.3 -1.5,-5 -0.1,-0.7 0.4,-1.6 1.2,-2.5 0.8,-0.9 1.8,-1.7 2.6,-2.5 2.3,-2.1 4.9,-4 7.5,-5.9 0.3,-0.2 0.7,-0.3 1,-0.4 -0.1,0.3 -0.1,0.6 -0.3,0.8 -3.1,2.5 -1.4,5.2 -0.1,7.6 0.8,1.4 1.6,2.8 2.4,4.2 0.8,1.4 1.6,2.8 2.4,4.3 1.6,2.9 3,5.7 4.1,8.7 0.9,2.5 0.1,5.9 -0.5,8.8 -1.2,5.5 -6,7.1 -9.6,9.8 -2.6,2 -5.1,4.2 -7.8,5.9 -1.7,0.9 -3.5,0.8 -4.3,1.1 z"
             id="path4737"
             inkscape:connector-curvature="0"
             style="fill:#ffffff" /><path
             d="m 566.5,87.5 c -4.6,0.5 -9.3,1.6 -13.8,2.6 -0.4,0.1 -0.7,0.4 -1,0.7 0.4,0 0.9,0.2 1.3,0.1 1.2,-0.2 2.7,0.2 4,0.9 1.3,0.7 2.3,1.7 2.5,2.7 1,5 -2.9,10.8 -7.7,12.5 -3.6,1.3 -7.2,3.1 -10.8,4.7 -2.9,1.3 -5.8,2.5 -8.6,3.8 -2.8,1.3 -5.7,2.7 -8.4,4.2 -0.2,0.1 -0.4,0.3 -0.7,0.5 0.3,0 0.6,0.1 0.9,0 1.8,-0.8 3.7,-1.7 5.5,-2.5 4.4,-1.8 9,-3.4 13.7,-5.1 3.2,-1.2 6.4,-2.2 9.7,-3.3 3.3,-1 6.6,-2 10,-3 0.2,0 0.7,0.4 0.6,0.6 -0.7,3.8 1.1,6.2 3.8,8.1 2.6,1.8 5.1,3.4 7.9,4.6 2.8,1.2 5.9,1.9 9,2.6 3.8,0.7 7.8,0.6 11.3,-0.8 3.5,-1.4 6.5,-4 8.2,-8.6 1.6,-4.4 0.3,-8.7 -3,-10.3 -0.6,-0.3 -1.3,-0.6 -1.9,-0.8 -0.7,-0.2 -1.3,-0.4 -2,-0.6 -1.3,-0.3 -2.6,-0.6 -3.9,-0.7 -2.6,-0.3 -5.2,-0.2 -7.8,0.3 -1.4,0.2 -2.9,0.5 -4.3,0.7 -1.4,0.3 -2.9,0.5 -4.3,0.8 -2.8,0.5 -5.7,1.1 -8.4,1.7 -0.4,0.1 -0.8,0.1 -1.2,0.1 l 0.8,-0.8 c 0.9,-0.9 2,-1.7 2.8,-2.7 1.6,-1.9 2.3,-4.1 2.1,-6.2 -0.3,-2.1 -1.6,-4.1 -3.8,-5.8 -0.5,-0.3 -1.6,-1.1 -2.5,-1 z m 11.6,30.5 c -2.4,-0.6 -4.4,-2.2 -6.5,-3.6 -1.9,-1.1 -3.9,-2.3 -5.3,-4 -0.8,-1 -0.8,-2.9 -0.7,-4.5 0,-0.4 1.7,-0.9 2.7,-1.1 4.3,-1.1 8.8,-2 13.3,-3.1 3.2,-0.8 9.4,2.2 9.5,5.2 0.1,2.4 -1.3,4.7 -1.9,6.3 -3.7,3.4 -6.9,6 -11.1,4.8 z"
             id="path4739"
             inkscape:connector-curvature="0"
             style="fill:#ffffff" /><path
             d="m 473.5,83.4 c -0.3,-0.2 -0.4,-0.3 -0.5,-0.3 0.1,-0.1 0.2,-0.3 0.3,-0.4 1.1,-1 3.1,-2 3.2,-3.1 0.2,-1.8 -0.9,-3.6 -1.5,-5.4 -0.5,-1.4 -1.8,-2.7 -1.7,-4 0.1,-1 1.7,-2.1 2.8,-2.9 1.4,-1 2.8,-1.9 4.2,-2.8 1.4,-0.9 2.9,-1.7 4.4,-2.5 0.6,-0.3 1.4,-0.4 2.1,-0.5 -0.5,0.3 -0.9,0.8 -1.4,1 -3,1.7 -0.1,3.3 0.2,4.6 0.5,1.8 2.5,3.4 2.5,5.1 0,1.4 -1.7,3.3 -3,4.3 -2.4,1.8 -5,3.3 -7.4,4.8 -1.5,0.8 -2.9,1.5 -4.2,2.1 z"
             id="path4741"
             inkscape:connector-curvature="0"
             style="fill:#ffffff" /><path
             d="m 596.3,94.7 c -2.6,0.2 -4.5,0.6 -6.5,0.5 -2,-0.1 -4.2,-0.1 -6.2,-0.2 -2.1,-0.1 -4.1,-0.1 -6.2,-0.2 -0.2,0 -0.4,-0.1 -0.6,-0.2 0.2,-0.1 0.4,-0.2 0.6,-0.2 2.8,0.1 5.4,-0.2 5.4,-3.9 0,-0.8 -0.2,-1.6 -0.4,-2.4 -1,-3.5 -0.3,-5.5 3.9,-5.2 3.6,0.3 7.2,0 10.9,0.1 0.6,0 1.2,0.4 1.8,0.6 -0.5,0.1 -1.3,0.1 -1.5,0.4 -0.6,1 -1.3,2.1 -1.4,3.3 -0.1,2.3 0.2,4.6 0.2,7.4 z"
             id="path4743"
             inkscape:connector-curvature="0"
             style="fill:#ffffff" /></g><g
           id="g4759"
           style="fill:#ffffff"><path
             d="m 630.5,197.4 c 0.2,-1.8 0,-3 0.4,-4.1 0.5,-1.3 1.4,-2.4 2.2,-3.5 1.4,-2 2.8,-4.1 4.1,-6.1 1.1,-1.8 2.3,-3.5 3.4,-5.3 1.1,-1.8 2.1,-3.6 3,-5.4 1.5,-3.3 -1.7,-2.5 -3,-2.8 -7.6,-1.4 -15.4,-1.9 -22.8,-2.5 -0.8,-0.1 -1.6,-0.4 -2.4,-0.8 -0.8,-0.4 -1.6,-0.8 -2.4,-1.1 0.6,-0.2 1.1,-0.4 1.7,-0.6 4,-1.3 5.3,-4.8 7,-8.1 1.4,-2.7 2.6,-5.5 3.8,-8.4 0.7,-1.8 1.3,-3.7 1.9,-5.6 0.6,-1.9 1.2,-3.7 2,-5.5 2,-4.2 3.9,-9 7.2,-12 2.1,-2 6.8,-1.4 10.4,-1.2 2.2,0.1 4.5,0.3 6.6,0.7 2.2,0.4 4.4,0.8 6.6,1.2 0.5,0.1 1.1,0.4 1.6,0.7 -0.4,0.1 -0.8,0.3 -1.2,0.2 -2.7,-0.2 -5.4,-0.7 -8,-0.6 -3.9,0.2 -5.8,3.2 -7,6.6 -3.5,9.4 -7.1,18.4 -11.5,27.1 -1.2,2.4 -3.1,4.4 -4.7,6.5 l -0.2,0.3 c 0.2,0.1 0.3,0.2 0.5,0.2 1.5,0.2 3,0.4 4.4,0.6 1.5,0.2 2.9,0.5 4.4,0.7 4.4,0.9 8.8,1.9 13.3,3 0.8,0.2 1.5,0.5 2.3,0.7 3.4,0.8 3.5,3.4 1,7.1 -1.8,2.8 -3.7,5.5 -5.5,8.3 -1.9,2.8 -3.7,5.5 -5.5,8.3 -2.6,4.1 -1.8,5.4 2.9,7.2 0.1,0 0.2,0.2 0.3,0.3 -0.1,0 -0.3,0.2 -0.4,0.1 -1.7,-0.7 -3.6,-1.3 -5.4,-1.9 -1.8,-0.6 -3.6,-1.2 -5.4,-1.8 -1.8,-0.6 -3.6,-1.6 -5.6,-2.5 z"
             id="path4747"
             inkscape:connector-curvature="0"
             style="fill:#ffffff" /><path
             d="m 648.9,229.9 c 2.7,2.2 5.9,4 9,6 3.8,2.6 7.5,5.3 11.4,8 1,0.7 2.1,1.4 3.1,2.1 1,0.7 2,1.4 3,2.1 2,1.4 4.1,2.8 6.2,4.3 0.8,0.6 1.7,1 2.6,1.5 -0.2,-0.7 -0.5,-1.4 -0.6,-2.1 -0.7,-4 -1.2,-8 -2.1,-12 -0.6,-3.1 -1.2,-6.3 -1.9,-9.5 -0.7,-3.1 -1.5,-6.3 -2.2,-9.4 -0.5,-2.5 -1.1,-4.9 -1.7,-7.4 -0.6,-2.5 -1.2,-4.9 -1.8,-7.4 -0.8,-2.8 -1.4,-5.9 -2.8,-8.3 -1,-1.6 -3.3,-2.3 -5.1,-3.1 -3.9,-1.8 -8,-3.4 -11.9,-4.9 -0.1,-0.1 -0.3,0.1 -0.5,0.1 0.1,0.1 0.2,0.3 0.4,0.4 3.6,1 5.5,4.3 3.8,7.7 -3.1,5.8 -6.7,11.3 -10.3,16.5 -2.1,3 -5.3,5.4 -3.7,10.2 0.7,0.7 1.5,1.6 2.3,2.6 0.9,0.8 1.7,1.8 2.8,2.6 z m 9.4,-8.4 c 2.1,-2.4 4.1,-5 6.1,-7.5 0.1,-0.1 0.4,-0.3 0.5,-0.3 0.2,0.1 0.3,0.3 0.4,0.5 l 1.4,4.5 0.7,2.3 0.6,2.3 c 0.8,3 1.5,6.1 2.3,9.1 0.9,4 1.5,8 2.3,12 0,0.1 -0.3,0.3 -0.4,0.2 -2.8,-2.3 -5.9,-4 -8.8,-6 -1.5,-1 -2.8,-2 -4.1,-3.2 -1.3,-1.2 -2.5,-2.5 -3.5,-4 -0.4,-0.6 -0.7,-1.2 -0.9,-1.5 -0.5,-1.9 -0.1,-3.4 0.7,-4.7 0.7,-1.4 1.7,-2.6 2.7,-3.7 z"
             id="path4749"
             inkscape:connector-curvature="0"
             style="fill:#ffffff" /><path
             d="m 581.6,151.8 c -2.1,-2.2 -2.8,-6 -2.2,-9.6 0.6,-3.6 2.6,-7 6.3,-7.9 2.9,-0.8 6.1,-0.3 9.2,-0.4 1.4,0 2.8,0.1 4.2,0.2 0.3,0 0.5,0.3 0.8,0.4 -0.2,0.1 -0.3,0.3 -0.5,0.4 -3.5,1 -5.9,3.6 -7.1,6.5 -1.2,3 -1.1,6.4 0.7,9.2 0.7,1.1 2,2.5 3.1,2.5 1.1,0 2.6,-1.3 3.7,-2.3 4.9,-4.5 4.7,-10.8 6.5,-16.7 1,-3.4 2.3,-6.9 4.2,-9.7 0.9,-1.2 4.1,-0.9 6.2,-0.8 3.1,0.1 6.3,0.7 9.5,1.1 0.3,0 0.6,0.3 1,0.4 -0.3,0.1 -0.5,0.4 -0.8,0.3 -4,-0.5 -4.7,2.7 -5.4,5.2 -0.9,3.2 -1.8,6.3 -2.6,9.4 -0.9,3.1 -1.9,6.2 -3.2,9 -1.1,2.5 -4.1,4.3 -6.6,5.9 -4.7,3 -9.3,0.8 -13.7,0.1 -3.2,-0.5 -6.6,-0.7 -9.6,-1.3 -1.6,-0.2 -3,-1.5 -3.7,-1.9 z"
             id="path4751"
             inkscape:connector-curvature="0"
             style="fill:#ffffff" /><path
             d="m 672.4,252 c -1.9,-1.4 -3.8,-2.8 -5.7,-4.1 -1.9,-1.3 -4,-2.6 -5.9,-3.8 -0.3,-0.2 -0.8,-0.2 -1.2,-0.3 0.3,0.3 0.5,0.7 0.9,1 1,0.7 1.8,2.1 2.2,3.5 0.3,1.4 0.3,2.9 -0.3,3.7 -2.8,4.2 -9.6,5.5 -14.3,3.4 -3.6,-1.6 -7.2,-2.9 -10.9,-4.3 -3,-1.2 -5.9,-2.3 -8.9,-3.4 -2.9,-1.1 -5.8,-2.1 -8.8,-3 -0.3,-0.1 -0.6,-0.1 -0.8,-0.1 0.2,0.2 0.4,0.5 0.6,0.6 1.9,0.7 3.8,1.4 5.6,2.2 4.4,1.8 8.9,3.9 13.4,6 3,1.5 6.1,3 9.1,4.5 1.5,0.8 3.1,1.6 4.6,2.4 1.5,0.8 3.1,1.7 4.6,2.5 0.1,0.1 0.2,0.8 0,0.8 -3.1,2.2 -3.5,5.2 -3,8.4 0.3,1.5 0.5,3 0.9,4.5 0.4,1.5 0.9,2.9 1.4,4.3 0.5,1.4 1.3,2.8 2.1,4.2 0.8,1.4 1.5,2.7 2.5,4.1 2.2,3.2 5.1,5.9 8.5,7.4 3.4,1.5 7.5,1.7 11.9,-0.3 4.3,-1.9 6.4,-5.9 5.2,-9.4 -0.9,-2.7 -2.3,-5 -3.9,-7 -1.7,-2 -3.6,-3.8 -5.7,-5.3 -1.2,-0.8 -2.3,-1.7 -3.5,-2.5 -1.2,-0.8 -2.4,-1.7 -3.6,-2.5 -2.4,-1.6 -4.8,-3.2 -7.2,-4.8 -0.3,-0.2 -0.6,-0.5 -0.9,-0.8 l 1.1,0.1 c 1.3,0 2.6,0.2 3.9,0.1 2.5,-0.2 4.5,-1.2 5.8,-2.9 0.7,-0.8 1.2,-1.9 1.4,-3 0.2,-1.1 0.3,-2.4 0.1,-3.8 -0.2,-0.5 -0.4,-1.8 -1.2,-2.4 z m -13.3,29.8 c -1.2,-2.1 -1.6,-4.7 -2.1,-7.1 -0.2,-1.1 -0.5,-2.2 -0.7,-3.3 -0.2,-1.1 -0.3,-2.2 -0.2,-3.3 0.1,-1.3 1.5,-2.6 2.6,-3.6 0.3,-0.3 1.8,0.6 2.7,1.1 3.9,2.3 7.7,4.8 11.6,7.3 2.7,1.7 5.1,8.2 3.1,10.4 -1.6,1.7 -4.3,2.4 -5.8,3.1 -2.5,-0.1 -4.7,-0.3 -6.6,-1 -1.9,-0.7 -3.5,-1.8 -4.6,-3.6 z"
             id="path4753"
             inkscape:connector-curvature="0"
             style="fill:#ffffff" /><path
             d="m 609.6,183.3 c -0.1,-0.4 -0.1,-0.5 -0.1,-0.6 0.2,0 0.3,-0.1 0.5,0 1.5,0 3.5,0.8 4.4,0.1 1.4,-1.1 2,-3.2 2.8,-4.9 0.6,-1.3 0.6,-3.2 1.6,-4 0.8,-0.7 2.7,-0.3 4,-0.1 1.7,0.3 3.3,0.6 4.9,1 1.6,0.4 3.2,0.8 4.9,1.3 0.7,0.2 1.2,0.7 1.9,1.1 -0.6,-0.1 -1.2,-0.1 -1.8,-0.3 -3.3,-0.9 -2.4,2.2 -3.1,3.4 -0.9,1.6 -0.6,4.1 -1.8,5.3 -1,1 -3.5,1.1 -5.2,0.9 -3,-0.4 -5.9,-1.2 -8.7,-1.8 -1.5,-0.3 -2.9,-0.9 -4.3,-1.4 z"
             id="path4755"
             inkscape:connector-curvature="0"
             style="fill:#ffffff" /><path
             d="m 688.5,278.1 c -2,-1.7 -3.6,-2.8 -5,-4.2 -2.7,-3 -5.6,-6.1 -8.5,-9 -0.1,-0.1 -0.2,-0.4 -0.3,-0.5 0.2,0.1 0.4,0.1 0.6,0.3 2,2.1 4,3.7 6.6,1 0.5,-0.6 1,-1.2 1.4,-1.9 1.8,-3.2 3.6,-4.1 6.4,-0.9 1.2,1.4 2.5,2.6 3.8,3.9 1.3,1.3 2.7,2.5 3.9,3.9 0.4,0.4 0.6,1.1 0.9,1.7 -0.5,-0.3 -1,-0.9 -1.4,-0.8 -1.1,0.3 -2.4,0.5 -3.3,1.3 -1.8,1.4 -3.2,3.2 -5.1,5.2 z"
             id="path4757"
             inkscape:connector-curvature="0"
             style="fill:#ffffff" /></g></g></g></g></svg>