<svg xmlns="http://www.w3.org/2000/svg" id="Layer_1" viewBox="0 0 572.2 572.20002" width="572.2" height="572.2"><defs id="defs542"><style id="style540">path{fill:#fff}</style></defs><g id="g660" transform="translate(-135.7 -10.7)" fill="#fff"><g id="g658"><g id="g656"><g id="g556"><g id="g554"><path d="M651.4 299.9c-.3.5-.4 1.1-.7 1.6-.4.6-.4 1.2-.6 1.8-.2.8 0 1.7 0 2.6 0 .5.1 1 .2 1.5s.1 1 .2 1.5c0 .2.1.4.1.6.1.7.3 1.3.7 1.8.3.4.7.6.9 1.1.1.2.2.3.3.5.7.7 1.2 1.6 1.7 2.4-.5.3-1.1.5-1.6.8-.5.3-1.2.5-1.4 1.2 0 .1-.1.1-.2.1-.5.2-.5.6-.6 1-.1.6-.1 1.1-.1 1.7 0 .3.1.6.2.9.5.8.9 1.7 1.5 2.5.4.5.7 1.1 1.1 1.7.1.2.2.3.3.5l.4.7c.1 0 .1.1.1.2.4.6.8 1.3 1.2 1.9l.1.1c.3.4.6.7.8 1.1.3.6.7 1 1.1 1.5.2.3.5.5.8.8l-2.4.6c-1.4 0-2.7-.3-4-.7-.4-.3-.7-.6-1.3-.7-.5-.8-1.2-1.5-2.1-2.2.3.9.7 1.5 1.2 2.2-.2-.1-.3-.2-.5-.3-.6-.9-1-1.2-1.5-1 .3.5.6 1 1 1.6.3.5.3 1 .1 1.5v1.2c.1.3.1.6.1.9-.1.5-.1 1-.2 1.6 0 .5-.1.9-.1 1.4-.1.7-.4 1.2-.6 1.9-.4 1-.8 2.1-1.1 3.1-.1.3-.2.6-.2 1-.1.3-.1.6-.2.8-.1.2-.2.4-.2.7v1c0 .3-.1.6 0 .9 0 .3.1.6.2.9.1.2.1.5.2.7.2.7.2 1.4.8 1.9.1.1.1.2.1.2.2.7.6 1.3 1 1.8.1.2.1.4.3.6.2.3.4.6.5.9 0 .1.1.2.2.3.6.7 1 1.6 1.3 2.5.1.1.2.2.2.3.1.3.1.5.2.7.3.6.7 1.2 1 1.8.2.3.4.6.6.8.3.4.7.8 1 1.3.2.4.5.7.8 1 .4.4.9.5 1.4.8.3.2.6.3.9.4.6.2 1.1.5 1.7.5.2 0 .3.2.5.2.7.1 1.5.1 2.2.1h1.3c.5 0 .9-.1 1.3-.1.7-.1 1.3-.3 2-.4.2-.1.4-.2.6-.2.9-.2 1.5-.9 2-1.6.3-.5.3-1.2.4-1.8.1-.2 0-.5 0-.8-.1-.3-.3-.6-.4-1-.1-.3-.1-.6-.3-.9-.1-.1 0-.2-.1-.3-.3-.3-.4-.5-.6-.9-.1-.4-.2-.8-.6-1.1-.1 0-.1-.2-.1-.2-.1-.3-.3-.6-.4-.9-.1-.2-.2-.4-.4-.7-.2-.3-.4-.7-.6-1-.3-.6-.6-1.1-.9-1.7-.4-.6-.7-1.3-1.1-1.9-.4-.7-.7-1.3-1-1.9l-.6-.9c-.4-.7-.9-1.4-1.3-2.1-.2-.3-.5-.7-.7-1-.1-.2-.2-.3-.4-.5s-.4-.4-.6-.7c-.2-.2-.5-.5-.4-.9h.3c.4.2.9.3 1.4.3.5 0 1.1 0 1.6-.1.8-.1 1.6-.4 2.4-.5.8-.1 1.4-.6 2.2-.8.3-.1.6-.3 1-.4 1-.4 2.1-.7 3.1-1.1.1 0 .2-.1.2-.1.4-.2.8-.4 1.3-.6.8-.3 1.6-.5 2.4-.8.8-.3 1.5-.7 2.3-.9 1.5-.4 2.8-1.2 4.3-1.7.7-.2 1.4-.5 2.1-.7.9-.3 1.8-.7 2.7-1 1.1-.4 2.1-.8 3.2-1.3.3-.1.7-.3 1-.3.3-.1.6-.1.9-.2.8-.2 1.6-.4 2.5-.5 1.1-.1 2.3-.1 3.4.2.5.1 1 .5 1.5.7l.1.1c.3.4.6.9.9 1.3.3.5.7 1 1 1.6 0 .1-.1.2-.1.3.2.4.4.7.7 1 .1.1.3.1.4.2.2-.1.3-.3.2-.5-.1-.3-.2-.6-.3-.8-.1-.2-.2-.4-.3-.7-.1-.3-.2-.7-.4-1-.1-.3-.3-.5-.4-.7-.3-.5-.6-1.1-.9-1.6-.4-.6-.8-1.2-1.1-1.9 0-.1-.1-.2-.2-.3-.3-.4-.6-.9-.8-1.3-.2-.3-.3-.7-.5-1-.3-.6-.7-1.2-1-1.7-.5-1-1.2-1.8-2.1-2.3-.6-.4-1.2-.9-1.8-1.3-.7-.1-1.4-.1-2.1-.2v.1c-.1-.1-.2-.1-.3-.2-.6.1-1.2.1-1.7.2-.7.1-1.4.3-2.1.5-.4.1-.9.1-1.3.3-1 .4-1.9.8-2.8 1.2-1.2.5-2.4 1-3.6 1.4l-1.6.6c-.7.3-1.4.5-2.1.8l-1.5.6c-.2.1-.3.2-.5.3h-.2c-.7.3-1.3.6-2 .8-.5.2-1.1.5-1.6.7-.8.3-1.5.6-2.3.9-.4.1-.8.3-1.1.5-.3.1-.5.3-.7.4l-1.8.7c-.3.1-.6.1-.8.2l-2.1.9c-.4-.4-.7-.9-1.2-1.3 0-.3-.4-.5-.6-.8 0-.5-.2-.8-.6-1.1-.1-.3-.2-.5-.3-.8.1-.2.1-.5.2-.8.1-.1.3-.3.4-.5l.6-.6c1-.8 2.2-1.2 3.3-1.8.3-.2.6-.3 1-.4.4-.1.8-.3 1.2-.4l1.8-.7c.5-.2 1.1-.4 1.6-.6.3-.1.6-.3.9-.4.2-.1.5-.2.7-.3.7-.3 1.5-.5 2.2-.8.4-.2.7-.4 1.1-.5l2.7-1.5c.2-.1.3-.3.4-.3.3-.2.5-.4.8-.6.9-.7 1.3-1.8 1.9-2.7.3-.5.2-1.1.3-1.7 0-.6-.1-1.1-.4-1.4-.3-.7-.4-1.4-.7-1.8-.6-.7-1.1-1.4-1.6-2.1h-.3l.1-.1c-.2-.2-.4-.5-.5-.6l-.3-.6c-.3-.4-.7-.8-1-1.2-.1-.1-.2-.2-.3-.4l-1-1.3-.9-1-.1.1c0-.2-.1-.3-.1-.5-.4-.4-.9-.7-1.3-1.1-.3-.4-.7-.5-1.1-.6v.2c.3.3.6.7.9 1 .2.2.4.3.5.5.3.5.5 1.1.8 1.6.2.3.2.8.2 1.1 0 .3-.2.6-.3.9-.4.9-.8 1.8-1.7 2.4-.1-.1-.2-.3-.3-.4-.2-.3-.4-.7-.7-1-.4-.3-.7-.6-.9-1-.2-.4-.6-.8-.9-1.2-.3 0-.4-.4-.5-.6-.2-.2-.3-.5-.5-.7l-.6-.8c0-.1-.1-.3-.1-.3l-.9-.9c-.1-.1-.3-.3-.4-.5-.1-.1-.2-.2-.2-.3-.2-.5-.6-.8-1.1-1.1-.1-.1-.2-.1-.4-.2-.2-.2-.4-.3-.6-.5l-.8-.7c-.2-.2-.5-.4-.8-.5-.3-.1-.6-.2-1.1-.3-.3-.3-.9-.1-1.4-.4-.1.1-.3.1-.4.2-1.4-.3-3.6.6-3.9 1.9 0-.2-.2.3-.5.7zm5.2 54.8c-.3-.1-.7 0-1.1-.1-.2 0-.4-.1-.6-.2h-.6l-.3-.3c-.6.2-1-.3-1.6-.4.3-1.1.5-2.2 1-3.1.1-.3.3-.6.5-.9v-.3c.7-1.3 1.4-2.6 1.3-4.1.1-.2.3-.4.3-.7.1-.3 0-.6.1-.9.2-.5.1-1.1.1-1.7 0-.3 0-.6.1-.9 0-.1.1-.2.3-.3.2.5.4.9.6 1.3.6.1.9.5 1.3.9.7.8 1.2 1.8 1.9 2.6.1.1.1.2.2.2.5.3.6.8.9 1.2.2.3.4.5.6.8.1.2.3.4.4.6.2.3.4.5.6.8.5.6.8 1.4.9 2.1 0 .4-.2.9-.3 1.3-.1.5-.6.6-1 .9-.6.4-1.4.5-2.1.7-.7.2-1.4.2-2.1.2-.1 0-.2-.1-.3-.1-.3.4-.6.6-1.1.4zm1.3-44.3c.6-1.3 1.1-2.6 2-3.8.6-.7 1.3-1.2 2.3-1.2.4 0 .8-.1 1.1 0 .4 0 .7.2 1 .3.2.1.4.3.7.4h.4l.3.3v.4c.1 0 .2-.1.3-.1.4.7 1.2 1.1 1.4 1.9-.1.2-.1.4-.2.7-1 .6-2.1 1.2-3.2 1.6-.9.3-1.7.7-2.5 1.1-.5.2-1 .4-1.6.6-.6.2-1.2.5-1.9.7-.2.1-.4.2-.7.3-.1-1.1.2-2.2.6-3.2z" id="path544"/><path d="M653.3 469.5c-.2 0-.3.1-.6.2 0-.3-.1-.6-.1-.9 0-.5 0-1.1.1-1.7 0-.2.1-.5.1-.7 0-.4 0-.8-.1-1.2-.1-.4-.2-.8-.3-1.1.1-.4.1-.7-.1-1-.2-.3-.3-.7-.4-1.1-.1-.2-.2-.4-.2-.6-.1-.2-.1-.4-.1-.6-.3-.5-.7-1.1-1.1-1.6-.3-.4-.7-.7-1-1.1-.3-.4-.7-.7-1.2-1-.5-.3-1-.7-1.5-1-.6-.3-1.3-.5-1.9-.9-.5-.3-1.1-.4-1.7-.7h-.1c-1.2-.3-2.3-.5-3.5-.8-.3-.1-.7-.1-1-.2-.6-.1-1.1-.2-1.7-.3-.3 0-.5-.1-.8-.1-1-.1-1.9-.2-2.9-.3-.9-.1-1.8-.2-2.7-.2-.3 0-.6-.1-.9-.2-.6-.1-1.1-.2-1.7-.3-1.3-.2-2.5-.4-3.8-.6l-1.8-.3c-.2 0-.5-.1-.7-.1-.4-.1-.7-.1-1.1-.1-.9-.1-1.8-.3-2.7-.5-.9-.2-1.8-.4-2.8-.5-.9-.2-1.9-.4-2.8-.5-.5 0-.9-.2-1.4-.3-.4-.1-.8 0-1.3-.1s-.9-.2-1.4-.2c-.2 0-.5-.1-.7-.1-.6-.1-1.1-.2-1.7-.3h-.4l-1.2 1.5c-.3.3-.4.7-.7 1-.6.6-1.1 1.4-2 1.7-.2.4-.5.6-.9.8l-.4.4c-.3.3-.7.6-1 .9-.4.3-.7.7-1 1-.3.3-.6.7-1 1-.5.5-1 1-1.6 1.5-.2.1-.4.2-.6.4-.1.1-.2.3-.4.4-.1.1-.3.2-.4.3l-.4.4c-.2.2-.4.5-.6.7-.4.5-.7.9-1 1.4-.3.5-.6 1-.8 1.6-.1.3-.2.7-.3 1v.3c0 .3 0 .6-.1 1-.2 0-.3-.1-.5-.1 0-.4-.1-.7-.1-1.1v-2h-.1c.1-.2.1-.4.2-.7h-.3c.1-.4.2-.7.2-1v-2.8c0-.4.1-.8.1-1.2v-1.1c0-.5-.2-1 .1-1.4 0-.1 0-.3-.1-.5.1-.4.2-.9.2-1.3 0-.2.1-.3.2-.5.4-.7.9-1.4 1.3-2.1.4-.8 1.2-1.4 1.8-2l.9-.9c.3-.3.6-.7.9-1.1v-.2c-.5-.1-.9-.5-1.3-.8-.4-.3-.7-.5-1.1-.8l-.6-.6c-.1-.1-.2-.2-.4-.3l-1.2-1.8c-.4-.6-.5-1.2-.7-1.9-.2-.7-.3-1.3-.4-1.9-.1-.4-.2-.8-.2-1.2 0-.2.1-.3.1-.5-.2-.6-.2-1.2-.4-1.9v-.7c-.3-.9-.3-1.7-.4-2.6 0-.5-.1-1-.2-1.5s-.2-.9-.2-1.4v-.6c0-.3-.1-.6-.2-.9 0-.1.1-.3.2-.5.6.6.6 1.2.9 1.8-.2.2-.2.3-.1.6.2.3.2.7.3 1.1.1.2.3.4.5.7.1.2 0 .4.3.5 0 0 0 .1.1.1.2.4.3.8.5 1.2.1.2.3.5.4.6.3.4.7.7 1.1 1.1.4.3.9.6 1.3.9.1.1.3.1.3.1.2.2.4.4.6.5.5.2.9.4 1.4.6.3.1.5.2.8.3.5.2 1 .4 1.5.5.5.2 1.1.3 1.6.4.3.1.7.1 1 .2.6.1 1.3.2 1.9.2h.6c.2-.7.8-1.1 1.3-1.5.5-.8.9-1.6 1.6-2.3.1-.1.3-.3.4-.5.3-.5.7-1 1.2-1.5.1-.1.1-.2.2-.3l.9-1.3c.1-.2.2-.3.2-.5.3-.6.7-1.2.7-2v-.6c0-.4-.1-.7 0-1.1-.1-.7-.2-1.4-.4-2.2.2 0 .3 0 .4.1.1.3.3.5.3.8l-.1.1c.3.5.2 1.1.4 1.6h-.1l.2.2v.4h.1c.1.6.3 1.2.4 1.8.1.3.2.7.2 1v.5c.5.9.6 1.9.7 2.9.1.3.2.5.2.8.1.7.1 1.4.1 2.1 0 .4-.1.8-.1 1.2v1.1c-.1.4-.1.6.2.9 1.3.1 2.7.2 4.1.7l.2.2c.2-.3.4-.2.6-.1.2.1.4.3.6.4 0-.1 0-.2.1-.3 2.2.3 4.4.6 6.5.9v.2c.3-.2.7-.2 1 0 .2.1.5 0 .7.1 1.4.2 2.9.3 4.3.5.8.1 1.6.1 2.4.2.9.1 1.8.2 2.8.3.4.1.9.2 1.3.3l.6.1c.1 0 .1.1.2.1.8 0 1.5.3 2.2.4.8.2 1.6.3 2.4.6.2.1.4.2.6.2.8.3 1.6.4 2.4.9.6.4 1.2.6 1.8 1 .2.1.3.3.5.5.4 0 2.4 2 2.5 2.5.2.2.5.3.5.5.4.9 1 1.7 1.1 2.7.5.5.2 1.3.5 1.9.1.3.2.7.4 1.2 0 .4.1 1 .1 1.5v.4c0 .1-.1.2 0 .2.2.7-.1 1.5.1 2.2v.4c-.2.5-.1 1.1-.1 1.6.1.8 0 1.6 0 2.4 0 .6.1 1.2 0 1.8 0 .7-.1 1.3-.1 2v.7c0 .2 0 .5-.1.7.5-.1.4.2.4.6z" id="path546"/><path d="M640.9 420.2c.2-.5.5-1 .6-1.6 0-.5-.2-1.1-.1-1.7.1 0 .2 0 .4-.1.1.2.2.4.2.6 0 .5 0 .9.2 1.3s.2.9.3 1.4c0 .2 0 .4-.1.7.3.6.3.6.2 1 .1.2.2.3.2.4-.1.3 0 .6.1.9.1.4.2.7.1 1.1 0 .1.1.3.1.5 0 .1.1.2.1.3.1.4 0 .9.2 1.3.2.8.1 1.6.3 2.2-.2 1.3-.5 2.6-1.7 3.3-.2.2-.3.4-.6.5-.3.2-.7.3-1 .4-.5.2-1 .3-1.5.4-.7.1-1.4.1-2 .1h-1.8c-.7 0-1.4-.1-2-.1h-1.8c-1.1-.1-2.2-.3-3.3-.4h-.6c-.2 0-.4-.1-.6-.1h-.5c-.6-.1-1.1-.1-1.7-.2-.3 0-.7-.1-1-.1h-1.3c-1 0-1.9 0-2.9.2-1.1.1-2 .7-2.6 1.7-.2.3-.2.7-.1 1 .1.5.2 1 .1 1.5-.1.4.1.7.1 1.1 0 .3 0 .7-.2 1h-.3c0-.1 0-.1-.1-.1-.1-.5-.3-1-.4-1.5-.1-.3-.1-.6-.2-1 0-.2-.1-.4-.1-.6 0-.1-.1-.3-.1-.4v-1.5c0-.3 0-.6-.1-.9l-.3-.3c.1-.1.2-.1.3-.2-.1-.5.1-1.1-.2-1.5 0-.3 0-.6.1-.9v-1.1c0-.2-.1-.4-.1-.7v-.5c0-.6-.1-1.2-.2-1.8v-.9c-.1-.2 0-.5 0-.9.1-.9.7-1.4 1.4-1.9.3-.2.7-.4 1.1-.5.9-.2 1.7-.3 2.6-.4.9-.1 1.7-.1 2.6 0 .8 0 1.6.2 2.4.3.6.1 1.2.1 1.8.1h1.1c-.1-.4-.2-.7-.3-1-.1-.5-.2-1-.3-1.4-.2-.5-.1-1.1-.3-1.6-.2-.5-.2-1.1-.3-1.7 0-.3-.1-.5-.1-.8-.1-.1-.2-.2-.3-.4 0-.1.1-.2.1-.3-.1-.6-.1-1.2-.2-1.8-.1-.3-.2-.6-.2-.9v-.4c-.1-.4-.2-.9-.3-1.3-.2-.8-.1-1.5-.1-2.2l-.1-.7h.1c.1-.4.3-.8.4-1.2.1-.7.5-1.2 1-1.6.5-.4.8-.9 1.5-1.2.5-.2.9-.3 1.4-.5l.9-.3v.3h.6v-.1c-.2 0-.3-.1-.5-.1.4-.4 2.8-.4 3.5-.2.1-.1.2-.1.3-.2 0 .1.1.1.1.2l.2-.2.1.1c.7 0 1.5-.1 2.2-.1.8 0 1.7-.1 2.5-.1s1.6-.1 2.4-.2c.7-.1 1.5-.1 2.2-.2.7-.1 1.4 0 2.1-.3h.4c.3-.1.6-.2.9-.4.9-.3 1.6-.8 2.2-1.6.1-.2.3-.2.5-.4.1-.5.2-1 .2-1.6 0-.5-.1-1.1-.2-1.7.2.2.3.3.5.4.1.4.3.9.4 1.3.1.5.4.9.2 1.3.1.2.2.4.2.6.3.3.3.8.5 1.2.2.7.5 1.3.7 2 .1.2.1.3.2.5-.1.1-.1.2-.1.2.2.5.4 1 .7 1.5 0 .2.1.6.1.9 0 .3.1.6.2 1-.1.1-.2.2-.3.4h.4c-.2.3 0 .6-.2.8v.2c.2.4 0 .7-.1 1 0 .1-.1.2-.2.4 0 0-.1.1-.2.1 0 .1-.1.2-.1.3-1.1.9-2.1 1.8-3.5 2 0 0 0-.1-.1-.1-.6.3-1.2.3-1.9.4-1 .2-2.1.1-3.3.2-.7 0-1.5.1-2.3.1-.7 0-1.4 0-2.1.1h-1.2c-.2 0-.3.1-.5.1h-4c-.4 0-.8.1-1.2.2-.7.2-1.4.3-2 .7-.6.3-1.2.6-1.6 1.2-.2.2-.5.4-.6.6-.2.3-.3.7-.4 1h-.1v.5c-.1.3-.3.6-.4.9.3.2.2.5.2.8 0 .5.2 1 .4 1.4 0 .1-.1.3-.1.4h.1c.1.4.2.7.3 1.1 1 0 2 .1 2.9.1.9 0 1.9-.1 2.9.1.2 0 .4 0 .7-.1h1.8c.3-.1.7-.2 1.1-.3.3-.1.7-.2 1-.3.4-.2.8-.5 1.1-.7-.1.6 0 .4.2.2z" id="path548"/><path d="M657 390.8l1.8-.3c.5-.1 1.1-.2 1.5-.6.1-.1.3-.2.4-.3 0-.1 0-.2-.1-.3l.3-.3c0 .1.1.1.1.2.3-.6.3-1.2.3-1.7s.1-1 .1-1.6c0-.3.1-.6 0-.8-.1-.4-.2-.9-.3-1.3-.3-.8-.6-1.6-.8-2.5-.1-.3-.3-.5-.4-.8-.2-.7-.7-1.2-.8-1.9 0-.1-.1-.3-.2-.4-.5-.5-.6-1.2-.9-1.8-.3-.5-.4-1.1-.7-1.6-.5-1-1-2-1.5-2.9-.2-.4-.3-.7-.5-1.1-.3-.5-.6-1.1-.9-1.6-.3-.6-.6-1.1-1-1.6-.2-.3-.4-.7-.5-1.1-.3-.6-.8-1.1-.9-1.8-.1 0-.2 0-.3-.1 0-.3 0-.5-.1-.8-.1-.3-.1-.6-.3-.8-.4-.4-.6-.8-.9-1.3-.1-.1-.2-.3-.3-.4-.4-.3-.6-.7-.7-1.2-.6-.4-.9-1-1.1-1.5l-.7-.7c0-.2-.1-.4-.2-.5-.3-.6-.7-1.1-1-1.7-.1-.1-.1-.3-.2-.4-.3-.2-.4-.5-.5-.8-.1 0-.2-.1-.3-.1-.1-.1-.1-.2-.2-.3-.1 0-.2.1-.4.1.1.3.1.7.2.9 0 .2-.1.3-.1.4-.2.7-.3 1.3-.5 2-.1.4-.2.9-.3 1.3-.1.3 0 .6-.2.8-.2.2-.2.5-.2.8 0 1-.4 1.9-.6 2.8 0 .2-.1.3-.1.5 0 .1-.1.3-.1.4-.1.5-.3 1.1-.5 1.6s-.3 1.1-.5 1.6c-.1.3-.1.6-.2.8-.1.3-.3.5-.4.8.1.1.1.2.2.3-.3 0-.4.3-.4.4l-.3 1.8c-.3 1-.6 2-.9 2.9-.1.2-.2.3-.2.5-.2.6-.4 1.2-.8 1.8-.1.1-.1.3-.2.5s-.3.4-.4.6c-.1.3-.3.6-.4 1-.1.2-.1.5-.3.6-.3.5-.6 1.1-.7 1.7-.2.6-.4 1.2-.6 1.7-.2.5-.3 1-.6 1.4-.3.5-.4 1-.3 1.6-.3.5-.2 1-.2 1.4.3.6.5 1.1.7 1.6.2.5.3 1 .4 1.5.1.2.2.5.3.7.1.2.2.3.1.5v.3c.2.5.4 1 .6 1.4 0 .1.1.1.1.2s-.1.3-.1.4c.1.1.1.2.2.3.1.1.2.1.2.2h-.1c.4 1.2.4 2.4 1.3 3.5.1-.1.2-.1.4-.2-.1-.4-.1-.8-.2-1.2.3-.4.6-.9.9-1.4.1-.2.3-.3.4-.4.3-.3.7-.6 1.1-.6.3-.2.4-.3.6-.4.6-.3 1.1-.7 1.8-.8.4-.1.9-.2 1.3-.3.3-.1.5-.2.8-.2.4 0 .7 0 1.1-.1.2 0 .3-.1.5-.2.2 0 .3.1.5.1.1 0 .2-.1.3-.1.9-.1 1.8-.2 2.6-.3.3 0 .6-.1 1-.1s.7-.1 1.1-.1c.6-.1 1.2-.1 2-.2.7-.1 1.3-.3 1.9-.4zm-4.3-23.2c0 .4.5.7.7 1.1 0 .3.1.6.4.9.1.1.1.3.2.4.4.7.8 1.4 1.1 2.1.1.1.1.2.2.4.1 0 .2.1.2.1.1.4.3.6.4.9.1.6.4 1.1.6 1.6.3.9.6 1.8.4 2.7-.1.5-.1.9-.5 1.4-.9.6-2 .6-3.1 1v.4h-.1c0-.1-.1-.2-.1-.4-.3.1-.6.1-.9.2-.2 0-.3-.1-.4-.1-.3.1-.7.2-1 .3h-.9c0 .2-.1.3-.1.4l-.2.1v-.1l.2-.2c0-.1 0-.1-.1-.2-.6 0-1.1.1-1.7.2-.5.1-1.1-.1-1.6.4-.2-.5-.1-.9.1-1.4.1-.4.3-.7.4-1.1v-.3c.3-.2.8-1.6.8-1.9.3-.8.7-1.3.7-2 .1-.3.3-.6.4-.9 0-.2 0-.3.1-.5 0-.1-.1-.1-.2-.2.1 0 .2-.1.3-.1l.3-1.2s-.1 0-.2-.1c.3 0 .4-.2.4-.4.1-.6.2-1.2.4-1.7.1-.4.3-.8.4-1.3.2-.5.2-.9.3-1.4.1-.3.2-.6.2-.9v-.1c.1-.2.2-.4.4-.6.6.9 1 1.7 1.5 2.5z" id="path550"/><path d="M620.9 466c.1.8.1 1.6.2 2.5 0 .4 0 .7.1 1.1.1.5.1 1-.2 1.5-.1 0-.2 0-.3.1-.4-.8-.1-1.8-.5-2.7-.4-.2-1-.3-1.5-.3-1.2-.1-2.4-.1-3.6-.2-.9 0-1.7-.1-2.6-.1-.8-.1-1.5-.4-2-1.1-.5-.6-.7-1.4-.7-2.1v-1.9c0-.5 0-1 .1-1.5.1-.3 0-.6 0-.9 0-.9-.1-1.8-.1-2.7 0-.9 0-1.8.1-2.7 0-.2.1-.4.2-.6.4.2.3.5.3.8.4 1.1 1.3 1.3 2.1 1.5h1.7c.5 0 1 0 1.6.1.2 0 .3.1.5.1 0 0 .1-.1.2-.1 1.1.2 2.3.1 3.4.6.1.1.1.3.3.4.1 0 .2.3.2.5v.6c0 .2.1.4.1.6 0 .2.1.5.1.8-.1.3-.1.6.1.9-.1.6-.2 1.2.1 1.7v1.8c0 .4.2.7.1 1.1v.2z" id="path552"/></g></g><g id="g570"><g id="g568"><path d="M582 461.4c-.5.2-1 .5-1.6.6-.7.2-1.2.5-1.7.8-.8.4-1.2 1.2-1.8 1.8l-.9 1.2-.9 1.2c-.1.2-.2.3-.3.5-.4.5-.7 1.1-.8 1.8-.1.5.1 1-.1 1.4-.1.2-.1.4-.1.6-.1 1-.3 1.9-.5 2.9-.6-.2-1.1-.4-1.7-.5-.6-.1-1.2-.4-1.8-.1h-.2c-.4-.2-.8 0-1.1.3-.4.4-.9.7-1.3 1.1-.2.2-.4.5-.5.8-.2 1-.6 1.9-.7 2.9-.1.7-.2 1.3-.4 2 0 .2-.1.4-.1.6-.1.3-.1.5-.2.8 0 .1 0 .2-.1.2-.2.7-.4 1.5-.5 2.2v.1c-.1.4-.1.9-.2 1.3-.2.6-.2 1.2-.3 1.8v1.1c-.7-.4-1.4-.9-2.1-1.3-1-.9-1.7-2.1-2.4-3.4-.1-.4-.1-1-.4-1.4.2-.9.2-1.9.1-3-.4.8-.6 1.6-.7 2.4 0-.2-.1-.4-.1-.6.2-1 .1-1.5-.3-1.7-.2.6-.3 1.1-.5 1.7-.1.6-.5.9-1 1.1l-.5.5c-.1.1-.3.2-.3.4-.1.3-.3.5-.6.7-.4.3-.8.7-1.2 1-.3.3-.7.6-1 .9-.5.4-1.1.6-1.7.9-1 .5-2.1.8-3.1 1.4-.3.2-.6.3-.8.5-.2.1-.5.3-.7.4l-.6.3-.7.7c-.2.2-.5.4-.7.6-.2.2-.3.5-.5.8-.1.2-.2.4-.4.7-.3.6-.8 1.2-.8 1.9 0 .1-.1.2-.1.2-.3.6-.5 1.3-.6 2-.1.2-.2.4-.2.6 0 .4-.2.7-.3 1-.1.1-.1.2-.1.4-.1.9-.4 1.8-.8 2.7-.1.1 0 .3-.1.4-.1.3-.3.5-.3.7-.2.7-.4 1.3-.5 2-.1.3-.1.7-.2 1-.1.5-.1 1.1-.2 1.6-.1.4-.1.8-.1 1.3 0 .6.3 1 .4 1.5l.3.9c.3.5.4 1.1.9 1.6.1.1.1.3.2.5.5.6 1 1.1 1.5 1.6.3.3.6.6.9 1 .3.3.7.6 1 .8.5.4 1.1.7 1.7 1.1.2.1.4.1.6.3.8.5 1.7.4 2.5.2.6-.1 1.1-.6 1.6-1 .2-.1.4-.3.6-.5.1-.3.3-.6.5-.9.2-.3.4-.5.4-.8 0-.1.1-.2.2-.2 0-.4.1-.7.2-1 .2-.4.4-.7.4-1.2 0-.1 0-.2.1-.3.1-.3.3-.6.4-.9.1-.2.1-.5.2-.7.1-.4.2-.7.3-1.1.2-.6.3-1.2.5-1.8l.6-2.1.6-2.1c.1-.3.1-.7.2-1 .2-.8.4-1.6.5-2.4.1-.4.2-.8.2-1.2 0-.2.1-.4.1-.6 0-.3 0-.6.1-.9 0-.3 0-.7.3-.9.1.1.2.2.2.3.2.5.4.8.8 1.2.4.4.8.8 1.2 1.1.7.5 1.4.8 2 1.3.6.5 1.4.6 2.1 1 .3.2.7.2 1 .4 1 .5 2 1 2.9 1.4.1 0 .2 0 .3.1.4.2.9.3 1.3.5.8.4 1.5.8 2.3 1.1.8.3 1.6.6 2.3.9 1.4.7 2.9 1.2 4.2 1.9.7.4 1.3.7 2 1 .9.4 1.7.8 2.6 1.2 1 .5 2.1.9 3.1 1.3.3.1.7.3 1 .5.3.2.5.3.8.5.7.4 1.5.8 2.1 1.4.9.7 1.7 1.5 2.3 2.5.3.5.3 1 .6 1.5v.1c-.1.5-.2 1.1-.3 1.6-.1.6-.3 1.2-.4 1.8-.1 0-.2.1-.2.1-.1.4-.2.8-.2 1.2 0 .1.1.3.1.5.2.1.4 0 .5-.2.1-.3.3-.5.4-.8.1-.2.1-.5.2-.7.1-.3.3-.6.4-.9.1-.3.1-.6.2-.8.2-.6.3-1.2.5-1.8.2-.7.2-1.4.6-2.1.1-.1.1-.2.1-.4l.3-1.5c.1-.4.3-.7.4-1.1.2-.6.3-1.3.5-1.9.3-1 .4-2.1.2-3.1-.1-.7-.2-1.5-.3-2.2-.5-.5-.9-1.1-1.4-1.6 0-.1-.1-.3-.1-.3-.5-.4-.9-.8-1.3-1.1-.6-.4-1.2-.7-1.8-1.1-.4-.2-.7-.5-1.2-.7-.9-.4-1.9-.8-2.9-1.2-1.2-.5-2.4-1-3.5-1.5l-1.5-.7c-.7-.3-1.4-.6-2-.9l-1.5-.6c-.2-.1-.4-.1-.6-.2 0 0-.1-.1-.2-.1-.7-.3-1.3-.5-2-.8-.5-.2-1.1-.4-1.7-.6-.8-.3-1.5-.7-2.3-1-.4-.2-.7-.3-1.1-.5-.3-.1-.5-.2-.8-.3l-1.8-.8c-.2-.1-.5-.3-.7-.5l-2.1-.9c.1-.6.1-1.1.1-1.8.3-.2.1-.6.1-1 .4-.3.4-.8.3-1.2.1-.2.2-.5.3-.7.2-.1.5-.3.7-.4h1.5c1.2.1 2.4.7 3.6 1.1.3.1.7.2 1 .4l1.2.6 1.8.8c.5.2 1 .5 1.5.7.3.1.7.3 1 .4.2.1.5.2.7.3.7.3 1.4.7 2.1 1 .4.2.8.3 1.2.4 1 .3 2 .6 2.9.8h.5c.3 0 .6.1 1 .2 1.1.1 2.2-.3 3.3-.6.6-.1.9-.6 1.3-1s.7-.9.7-1.2c.3-.7.7-1.2.7-1.8.1-.9.3-1.7.4-2.6l-.2-.2h.1c0-.3.1-.6.1-.8.1-.2.2-.4.2-.6.1-.5.1-1.1.1-1.6 0-.2 0-.3.1-.5l.2-1.6.1-1.3h-.1c.1-.1.2-.3.3-.4-.1-.6-.2-1.1-.1-1.7.1-.5-.1-.8-.3-1.2l-.1.1c0 .4-.1.9-.1 1.4 0 .2 0 .5-.1.7-.2.6-.4 1.1-.6 1.7-.1.3-.4.7-.7.9-.2.2-.6.3-.8.5-.9.4-1.9.7-2.9.5 0-.1 0-.3.1-.5.1-.4.2-.8.2-1.1 0-.5-.1-.9.1-1.4.1-.5.2-1 .2-1.5-.2-.2 0-.5.1-.8 0-.3.1-.6.1-.9l.1-1c.1-.1.1-.3.2-.3v-1.3c0-.2 0-.4.1-.6v-.4c.2-.5.1-1 0-1.5 0-.1-.1-.3-.1-.4 0-.3 0-.5-.1-.7l-.1-1.1c0-.3-.1-.6-.2-.9-.1-.3-.3-.6-.5-1 0-.4-.6-.7-.7-1.3-.2-.1-.3-.1-.4-.1-.8-1.2-3-2.1-4-1.4-.6-.6-1.1-.5-1.5-.3zm-35.1 42.4c-.1-.3-.5-.5-.7-.8l-.3-.6-.4-.4c0-.1 0-.3.1-.4-.6-.3-.5-.9-.9-1.4 1-.6 1.9-1.2 2.9-1.5.3-.1.6-.2 1-.3l.2-.2c1.4-.4 2.8-.9 3.8-2 .2-.1.5-.1.7-.2.3-.2.5-.4.7-.5.5-.2.8-.7 1.3-1.1.2-.2.4-.4.7-.6.1-.1.2 0 .4 0-.2.5-.3.9-.5 1.4.3.5.3 1 .3 1.5-.1 1.1-.4 2.1-.6 3.1 0 .1-.1.2 0 .3.1.5-.1 1-.2 1.6-.1.3-.1.7-.1 1 0 .2-.1.5-.1.7 0 .3-.1.7-.1 1-.1.8-.4 1.6-.9 2.2-.3.3-.7.5-1.1.7-.5.3-.9 0-1.3-.1-.8-.1-1.3-.6-2-1-.6-.3-1.1-.9-1.6-1.3-.1-.1-.1-.2-.2-.3-.5-.2-.9-.3-1.1-.8zm32.2-30.5c.7-.3 1.3-.6 2-.8.7-.2 1.4-.4 2.1-.4.9-.1 1.8.1 2.4.8.3.3.6.5.8.8.2.3.4.6.5.9.1.2.1.5.2.7 0 .1.1.2.2.3v.4l-.3.3c.1.1.2.1.3.2-.2.8.1 1.6-.3 2.3-.2.1-.4.2-.7.3-1.1-.3-2.3-.6-3.4-1.2-.8-.4-1.7-.7-2.6-1-.5-.2-1-.5-1.5-.7-.6-.3-1.2-.5-1.8-.8-.2-.1-.4-.2-.7-.3.9-.7 1.8-1.3 2.8-1.8z" id="path558"/><path d="M463.3 582.6c-.1-.1-.3-.2-.5-.3.2-.3.4-.5.6-.7.4-.4.8-.7 1.2-1.1.2-.2.4-.2.6-.4.3-.3.6-.6.8-.9.2-.3.4-.7.6-1 .4-.2.5-.4.6-.8.1-.4.3-.7.5-1.1.1-.2.2-.4.2-.6.1-.2.2-.3.3-.5.1-.6.3-1.3.4-1.9.1-.5 0-1 .1-1.5s0-1-.2-1.5c-.1-.6-.2-1.2-.4-1.8-.2-.7-.6-1.3-.8-2-.2-.6-.5-1.1-.7-1.6 0 0 0-.1-.1-.1-.6-1-1.3-2-1.9-3-.2-.3-.4-.5-.6-.8-.3-.5-.6-.9-1-1.4-.2-.2-.3-.4-.5-.6-.6-.8-1.2-1.5-1.8-2.3-.6-.7-1.1-1.4-1.7-2.1-.2-.2-.3-.5-.5-.7-.3-.5-.7-.9-1-1.4-.7-1-1.5-2.1-2.2-3.1-.4-.5-.7-1-1.1-1.4-.1-.2-.3-.4-.4-.6-.2-.3-.4-.6-.6-.8-.6-.7-1.1-1.5-1.6-2.3-.5-.8-1-1.5-1.6-2.3-.5-.8-1.1-1.6-1.7-2.3-.3-.4-.5-.8-.8-1.1-.2-.3-.6-.6-.8-.9-.3-.4-.5-.8-.8-1.2-.1-.2-.3-.4-.4-.6-.3-.5-.7-.9-1-1.4l-.3-.3c-.6.1-1.2.1-1.9.2-.4.1-.8.2-1.2.2-.9 0-1.8.2-2.6-.2-.4.2-.8.1-1.2-.1h-.5c-.4 0-.9-.1-1.3-.1h-5c-.2 0-.4-.1-.7-.1-.2 0-.4.1-.6 0-.1-.1-.3-.1-.5-.1h-1.6c-.6.1-1.2.1-1.7.2-.6.1-1.1.3-1.7.6-.3.2-.6.4-.9.5l-.2.2c-.2.2-.5.4-.8.7-.1-.2-.2-.3-.3-.4.2-.3.5-.6.7-.8l1.4-1.4.6-.3-.2-.2c.3-.2.6-.4.9-.5l.5-.5 1.5-1.5c.3-.3.6-.5.9-.8.3-.2.5-.5.8-.8.3-.3.6-.8 1.1-1 .1 0 .2-.2.3-.4.3-.2.7-.5 1.1-.8.1-.1.3-.1.5-.2.8-.3 1.6-.3 2.4-.5.9-.3 1.8-.2 2.7-.1.4 0 .8 0 1.3-.1.5 0 .9-.1 1.4-.1 0 0 .1-.1.1-.2-.3-.5-.3-.9-.4-1.4-.1-.4-.1-.9-.2-1.3v-.9c0-.2 0-.3-.1-.5.1-.7.3-1.4.4-2.1.2-.7.5-1.3.8-1.9.3-.6.7-1.1 1.1-1.7.2-.4.5-.7.7-1 .2-.1.3-.2.4-.3.3-.6.7-1 1.1-1.5.1-.1.2-.1.2-.2.1-.1.2-.1.3-.3.4-.8 1-1.4 1.6-2.1l.9-1.2c.3-.4.6-.8.8-1.1.1-.1.3-.2.4-.4.2-.2.3-.5.5-.8.1-.1.3-.1.5-.2 0 .8-.4 1.3-.6 1.9-.2 0-.4.1-.5.4-.1.4-.3.7-.6 1.1 0 .2 0 .5-.1.8-.1.2-.3.3-.2.6v.1c-.2.4-.4.8-.5 1.2-.1.2-.1.5-.1.8v1.5c0 .5.2 1 .3 1.6 0 .1.1.2.2.3 0 .3 0 .5.1.8.2.5.4 1 .6 1.4.1.3.2.5.3.8.2.5.4.9.7 1.4.3.5.5 1 .8 1.4l.6.9 1.2 1.5c.1.2.3.3.4.4.7-.3 1.3-.2 1.9-.2.9-.3 1.8-.5 2.7-.4.2 0 .4 0 .6-.1.6-.1 1.2-.2 1.9-.2.1 0 .2-.1.3-.1l1.6-.2c.2 0 .4-.1.5-.2.7-.3 1.4-.4 1.9-.9.2-.1.3-.3.4-.5.2-.3.4-.6.7-.8.4-.6.9-1.2 1.3-1.9.1.1.2.2.2.3-.1.3-.2.6-.3.8h-.1c-.2.6-.6.9-.9 1.4h-.1v.3c-.1.1-.2.2-.3.2l.1.1c-.3.5-.6 1-1 1.6l-.6.9c-.1.2-.3.3-.4.4-.3 1-.9 1.8-1.5 2.5-.1.2-.2.5-.4.7-.4.5-.9 1.1-1.3 1.6-.3.3-.6.5-.9.8l-.3.3-.4.4c-.4.1-.5.4-.5.8.9 1.1 1.7 2.2 2.4 3.4v.3c.3-.1.5.1.5.3.1.2.1.4.1.7.1-.1.2-.1.3-.2 1.3 1.7 2.7 3.5 4 5.2-.1.1-.1.1-.1.2.4.1.6.3.8.7.1.2.3.4.5.5.9 1.1 1.8 2.3 2.7 3.4l1.5 1.8c.6.7 1.2 1.4 1.7 2.2.3.4.5.8.7 1.1l.4.5c0 .1.1.1.1.2.6.5.9 1.3 1.3 1.9.5.7.9 1.4 1.3 2.2.1.2.2.4.2.6.4.8.8 1.5 1 2.3.2.7.4 1.3.6 2 .1.2 0 .4.1.7.3.2.3 3.1 0 3.5 0 .3.1.5 0 .7-.3.9-.5 1.8-1.1 2.7-.1.7-.8 1.1-1.1 1.7-.1.3-.3.7-.6 1.1-.3.3-.6.8-1 1.2l-.3.3c-.1.1-.2.1-.2.1-.3.6-1.1 1-1.5 1.6l-.3.3c-.5.3-.8.7-1.2 1.1-.5.6-1.1 1.2-1.7 1.7-.5.4-.8.9-1.2 1.3-.5.5-1 .9-1.5 1.4-.2.2-.3.4-.5.5-.2.2-.4.3-.6.5.4-.7.1-.5-.2-.3z" id="path560"/><path d="M489.4 539c.5-.2 1.1-.3 1.5-.7.4-.4.6-.9 1.1-1.3.1.1.2.1.3.2-.1.2-.1.5-.3.6-.3.4-.6.7-.8 1.1-.2.4-.5.8-.8 1.2-.1.2-.3.3-.5.5-.2.6-.2.6-.6.8-.1.2-.1.4-.2.4-.3.2-.4.5-.6.7-.2.3-.4.6-.7.9-.1.1-.2.3-.2.4 0 .1-.1.2-.1.2-.3.4-.6.7-.8 1.1-.4.7-1 1.2-1.4 1.8-1.1.8-2.2 1.4-3.5 1h-.7c-.3-.1-.7-.3-1-.4-.5-.2-.9-.5-1.4-.8-.5-.4-1-.9-1.5-1.3-.4-.4-.8-.9-1.3-1.3-.5-.5-.9-1-1.4-1.5-.4-.4-.8-.8-1.1-1.2l-.2-.2c-.7-.9-1.3-1.7-2-2.6-.1-.2-.3-.3-.4-.5l-.3-.6c-.1-.1-.2-.3-.3-.4l-1.1-1.4c-.2-.3-.4-.5-.7-.8l-.9-.9c-.7-.6-1.4-1.3-2.1-1.9-.9-.7-1.9-.9-3-.6-.3.1-.6.4-.8.6-.3.4-.6.8-1 1.1-.3.2-.5.6-.7.9-.2.3-.5.5-.8.6-.1-.1-.1-.2-.2-.2 0-.1 0-.1.1-.1.3-.4.5-.9.8-1.3.2-.3.4-.5.6-.8.1-.2.2-.3.3-.5l.3-.3c.3-.3.6-.6.8-.9.1-.1.2-.2.2-.3.2-.2.4-.4.6-.7v-.5c.2 0 .3.1.4.1.3-.5.8-.7.9-1.3.2-.2.4-.4.7-.6l.8-.8c.2-.2.3-.4.4-.5.1-.1.3-.2.4-.3.4-.4.8-.9 1.1-1.3.2-.2.4-.3.7-.6.1-.2.4-.4.6-.6.7-.6 1.5-.5 2.3-.4.4.1.8.2 1.1.4.7.5 1.4 1 2.1 1.6.7.6 1.3 1.2 1.9 1.8l1.5 1.8c.4.5.8.9 1.2 1.4.2.3.5.5.8.8.2-.3.3-.6.5-.9.3-.4.6-.8.8-1.2.3-.5.7-.8.9-1.3.2-.5.6-1 1-1.4.2-.2.3-.4.5-.6v-.5c.1-.1.2-.1.3-.1.4-.5.7-1 1.1-1.4.2-.3.3-.6.5-.8l.3-.3c.2-.4.5-.8.7-1.2.4-.6 1-1.1 1.5-1.7l.5-.5.1.1c.4-.2.8-.3 1.1-.5.6-.4 1.2-.5 1.9-.4.6 0 1.2-.1 1.9.2.4.2.9.4 1.3.6.3.1.5.3.8.4-.1.1-.1.2-.2.3l.4.4c-.1-.1-.2-.3-.3-.5.5 0 2.3 1.6 2.5 2.3.1 0 .2.1.3.1v.2h.3v.2c.6.5 1.1 1 1.6 1.4.6.6 1.3 1.1 1.9 1.7l1.8 1.6 1.7 1.5c.6.5 1 1 1.7 1.4l.3.3c.3.1.6.3.9.4.8.4 1.7.5 2.7.4.2 0 .4.1.6.1.4-.3.9-.6 1.2-1 .4-.4.7-.8 1-1.3 0 .2.1.4.1.7-.2.4-.4.9-.7 1.3-.3.4-.3.9-.7 1.1-.1.2-.2.4-.2.6 0 .4-.3.8-.5 1.2-.4.6-.6 1.3-.9 2-.1.2-.1.3-.2.5-.1.1-.2.1-.3.1-.2.6-.4 1-.6 1.6-.2.2-.3.5-.6.7-.2.2-.4.5-.6.8h-.5c.1.1.1.2.2.3-.3.1-.4.4-.7.4 0 0-.1.1-.1.2-.1.4-.5.5-.8.7-.1.1-.2.1-.4.2 0 0-.1 0-.3-.1-.1 0-.2.1-.3.2-1.4-.1-2.8-.2-3.9-1v-.1c-.7-.2-1.1-.6-1.6-1-.9-.5-1.5-1.4-2.5-2.1-.5-.4-1.1-1-1.7-1.6-.5-.5-1-1-1.6-1.5l-.9-.9c-.1-.1-.3-.2-.4-.3-.9-.9-1.9-1.9-2.8-2.9-.3-.3-.6-.5-1-.7-.6-.4-1.2-.8-1.9-.9-.6-.2-1.3-.4-2-.3-.3 0-.6-.1-.9 0-.3.1-.7.3-1 .5l-.1-.1c-.1.1-.2.3-.3.3-.3.1-.6.3-.9.4.1.4-.2.5-.4.7-.4.3-.6.8-.8 1.2-.1.1-.2.1-.4.2h.1c-.2.3-.4.6-.6 1 .7.8 1.3 1.5 2 2.2.6.7 1.4 1.3 2 2.1.1.1.3.3.5.4l1.3 1.3c.2.1.6.4.9.6.3.2.6.4.9.4.4.1.9.2 1.3.3.2-.3.4-.3.6-.3z" id="path562"/><path d="M521.7 529.6c.5.4 1 .7 1.5 1 .4.3.9.6 1.5.6h.5c.1-.1.1-.2.2-.2h.4c0 .1 0 .1-.1.2.6-.2 1-.6 1.5-1 .4-.3.8-.7 1.2-1l.6-.6c.2-.4.5-.8.7-1.2.4-.8.8-1.5 1.2-2.3.1-.2.2-.5.3-.8.3-.6.4-1.4.8-1.9.1-.1.1-.3.1-.4 0-.7.5-1.3.6-1.9.1-.6.5-1.1.7-1.6.4-1 .7-2.1 1-3.2.1-.4.3-.8.4-1.1.2-.6.3-1.2.5-1.8.2-.6.4-1.2.5-1.8.1-.4.3-.8.4-1.1.2-.6.2-1.3.6-1.9-.1-.1-.1-.2-.2-.3.2-.2.4-.4.5-.6.1-.2.3-.5.3-.8 0-.5.1-1 .3-1.5 0-.2.1-.3.1-.5 0-.5.1-1 .3-1.4-.1-.7 0-1.3.2-1.8v-.9c.1-.2.2-.3.3-.5.2-.6.3-1.3.5-1.9 0-.2.1-.3.1-.5 0-.3 0-.6.2-.9 0-.1-.1-.2-.1-.3 0-.1.1-.2.1-.3-.1-.1-.2-.1-.4-.2-.2.3-.4.5-.5.8-.1.1-.3.1-.4.2-.6.4-1.2.7-1.7 1.1-.4.3-.7.5-1.1.8-.2.2-.5.4-.7.5-.3.1-.5.2-.7.4-.7.7-1.6 1.1-2.4 1.6-.1.1-.3.2-.4.3-.1.1-.3.1-.4.2-.5.3-1 .5-1.5.8-.5.3-1 .5-1.5.8-.3.1-.5.3-.7.4l-.9.3v.3c-.2-.2-.4-.1-.6 0-.5.3-.9.7-1.5 1l-2.7 1.5c-.2.1-.3.1-.5.2-.6.3-1.2.6-1.8.7-.2 0-.3.1-.5.2s-.5.1-.7.2c-.3.1-.7.3-1 .4l-.6.3c-.6.1-1.1.4-1.7.7-.5.3-1.1.5-1.7.8-.5.2-.9.5-1.4.6-.6.1-1 .4-1.4.8-.5.1-.9.5-1.1.8-.2.6-.4 1.1-.6 1.6-.2.5-.5.9-.7 1.4-.1.2-.2.5-.3.7 0 .2-.1.4-.3.5-.1 0-.1.1-.2.2l-.6 1.5v.2c-.1.1-.2.1-.3.2v.6h-.1c-.5 1.1-1.4 2-1.5 3.4.1 0 .2.1.4.1.2-.3.4-.6.7-1 .5-.1 1-.3 1.6-.4h.6c.5 0 .9 0 1.2.3.3.1.5.1.7.2.6.2 1.3.3 1.9.7.4.2.8.5 1.1.7.2.1.5.2.7.4.3.2.5.5.8.7.1.1.3.2.5.2.1.1.2.3.3.4.1.1.2.1.3.2l2.1 1.7c.3.2.5.4.8.6.3.2.6.5.9.7.5.4 1 .8 1.6 1.3.1 0 .7.2 1.2.6zm13.3-19.5c-.3.3-.1.8-.3 1.2-.2.2-.4.5-.4.9 0 .2-.1.3-.2.4-.2.8-.4 1.5-.7 2.3 0 .1-.1.3-.1.4 0 .1.1.2.1.2-.1.4-.2.7-.4.9-.4.5-.5 1-.7 1.5-.4.9-.8 1.7-1.6 2.3-.4.3-.7.6-1.3.6-1-.3-1.9-1-2.9-1.6-.1.1-.2.1-.3.2h-.1c.1-.1.1-.2.2-.3-.2-.2-.5-.3-.7-.5-.1-.1-.2-.3-.3-.4-.3-.2-.6-.3-.9-.6l-.6-.6c-.1.1-.2.2-.4.2l-.2-.1v-.1h.3s.1-.1.1-.2c-.4-.4-.9-.7-1.3-1-.4-.3-.7-.8-1.4-.8.2-.5.6-.7 1-.9.3-.2.7-.3 1-.5.1 0 .1-.2.2-.3.3.1 1.7-.5 2-.7.7-.3 1.4-.4 1.9-.9.3-.1.6-.2.9-.4.1-.1.2-.2.4-.3v-.2c.1 0 .2.1.3.1.3-.2.7-.4 1-.7 0 0 0-.1-.1-.2h.1c.2.2.4.1.6 0 .5-.3 1-.7 1.5-1l1.2-.6c.4-.2.8-.5 1.3-.7.3-.2.6-.3.8-.5l.1-.1c.2 0 .4-.1.7-.1-.4 1.4-.6 2.2-.8 3.1z" id="path564"/><path d="M443 557.2l-1.6 1.9c-.2.3-.5.5-.7.8-.3.4-.6.8-1.2.9-.1 0-.2-.1-.3-.2.3-.9 1.2-1.4 1.5-2.3-.1-.5-.5-.9-.8-1.3-.8-.9-1.6-1.8-2.4-2.6-.6-.6-1.2-1.3-1.7-1.9-.5-.6-.8-1.3-.7-2.2.1-.8.5-1.4 1-2 .4-.5.9-.9 1.3-1.4.4-.4.7-.7 1.2-1 .2-.2.4-.4.6-.7.6-.7 1.2-1.4 1.9-2 .7-.6 1.3-1.3 2-1.8l.6-.3c.1.4-.2.6-.3.8-.5 1 0 1.9.4 2.6.4.5.8.8 1.2 1.2.4.4.7.8 1.1 1.1.1.1.2.3.3.5 0 0 .1 0 .2.1.7.9 1.6 1.7 2 2.8 0 .2-.2.3 0 .5.1.1-.1.4-.2.5-.1.2-.3.3-.4.5-.1.2-.2.3-.3.5-.1.2-.3.4-.5.6-.3.1-.5.4-.6.7-.5.3-.9.7-1.1 1.2-.4.4-.9.8-1.3 1.3-.2.3-.4.6-.7.9-.4.1-.5.2-.5.3z" id="path566"/></g></g><g id="g584"><g id="g582"><path d="M418.7 526.4c-.5-.3-1.1-.4-1.6-.7-.6-.4-1.2-.4-1.8-.6-.8-.2-1.7 0-2.6 0-.5 0-1 .1-1.5.2s-1 .1-1.5.2c-.2 0-.4.1-.6.1-.7.1-1.3.3-1.8.7-.4.3-.6.7-1.1.9-.2.1-.3.2-.5.3-.7.7-1.6 1.2-2.4 1.7-.3-.5-.5-1.1-.8-1.6-.3-.5-.5-1.2-1.2-1.4-.1 0-.1-.1-.1-.2-.2-.5-.6-.5-1-.6-.6-.1-1.1-.1-1.7-.1-.3 0-.6.1-.9.2-.8.5-1.7.9-2.5 1.5-.5.4-1.1.7-1.7 1.1-.2.1-.3.2-.5.3l-.7.4c0 .1-.1.1-.2.1-.6.4-1.3.8-1.9 1.2l-.1.1c-.4.3-.7.6-1.1.8-.6.3-1 .7-1.5 1.1-.3.2-.5.5-.8.8l-.6-2.4c0-1.4.3-2.7.7-4 .3-.4.6-.7.7-1.3.8-.5 1.5-1.2 2.2-2.1-.9.3-1.5.7-2.2 1.2.1-.2.2-.3.3-.5.9-.6 1.2-1 1-1.5-.5.3-1 .6-1.6 1-.5.3-1 .3-1.5.1h-1.2c-.3.1-.6.1-.9.1-.5-.1-1-.1-1.6-.2-.5 0-.9-.1-1.4-.1-.7-.1-1.2-.4-1.9-.6-1-.4-2.1-.8-3.1-1.1-.3-.1-.6-.2-1-.2-.3-.1-.6-.1-.8-.2-.2-.1-.4-.2-.7-.2h-1c-.3 0-.6-.1-.9 0-.3 0-.6.1-.9.2-.2.1-.5.1-.7.2-.7.2-1.4.2-1.9.8-.1.1-.2.1-.2.1-.7.2-1.3.6-1.8 1-.2.1-.4.1-.6.3-.3.2-.6.4-.9.5-.1 0-.2.1-.3.2-.7.6-1.6 1-2.5 1.3-.1.1-.2.2-.3.2-.3.1-.5.1-.7.2-.6.3-1.2.7-1.8 1-.3.2-.6.4-.8.6-.4.3-.8.7-1.3 1-.4.2-.7.5-1 .8-.4.4-.5.9-.8 1.4-.2.3-.3.6-.4.9-.2.6-.5 1.1-.5 1.7 0 .2-.2.3-.2.5-.1.7-.1 1.5-.1 2.2v1.3c0 .5.1.9.1 1.3.1.7.3 1.3.4 2 .1.2.2.4.2.6.2.9.9 1.5 1.6 2 .5.3 1.2.3 1.8.4.2.1.5 0 .8 0 .3-.1.6-.3 1-.4.3-.1.6-.1.9-.3.1-.1.2 0 .3-.1.3-.3.5-.4.9-.6.4-.1.8-.2 1.1-.6 0-.1.2-.1.2-.1.3-.1.6-.3.9-.4.2-.1.4-.2.7-.4.3-.2.7-.4 1-.6.6-.3 1.1-.6 1.7-.9.6-.4 1.3-.7 1.9-1.1.7-.4 1.3-.7 1.9-1l.9-.6c.7-.4 1.4-.9 2.1-1.3.3-.2.7-.5 1-.7.2-.1.3-.2.5-.4s.4-.4.7-.6c.2-.2.5-.5.9-.4v.3c-.2.4-.3.9-.3 1.4 0 .5 0 1.1.1 1.6.1.8.4 1.6.5 2.4.1.8.6 1.4.8 2.2.1.3.3.6.4 1 .4 1 .7 2.1 1.1 3.1 0 .1.1.2.1.2.2.4.4.8.6 1.3.3.8.5 1.6.8 2.4.3.8.7 1.5.9 2.3.4 1.5 1.2 2.8 1.7 4.3.2.7.5 1.4.7 2.1.3.9.7 1.8 1 2.7.4 1.1.8 2.1 1.3 3.2.1.3.3.7.3 1 .1.3.1.6.2.9.2.8.4 1.6.5 2.5.1 1.1.1 2.3-.2 3.4-.1.5-.5 1-.7 1.5l-.1.1c-.4.3-.9.6-1.3.9-.5.3-1 .7-1.6 1-.1 0-.2-.1-.3-.1-.4.2-.7.4-1 .7-.1.1-.1.3-.2.4.1.2.3.3.5.2.3-.1.6-.2.8-.3.2-.1.4-.2.7-.3.3-.1.7-.2 1-.4.3-.1.5-.3.7-.4.5-.3 1.1-.6 1.6-.9.6-.4 1.2-.8 1.9-1.1.1 0 .2-.1.3-.2.4-.3.9-.6 1.3-.8.3-.2.7-.3 1-.5.6-.3 1.2-.7 1.7-1 1-.5 1.8-1.2 2.3-2.1.4-.6.9-1.2 1.3-1.8.1-.7.1-1.4.2-2.1h-.1c.1-.1.1-.2.2-.3-.1-.6-.1-1.2-.2-1.7-.1-.7-.3-1.4-.5-2.1-.1-.4-.1-.9-.3-1.3-.4-1-.8-1.9-1.2-2.8-.5-1.2-1-2.4-1.4-3.6l-.6-1.6c-.3-.7-.5-1.4-.8-2.1l-.6-1.5c-.1-.2-.2-.3-.3-.5v-.2c-.3-.7-.6-1.3-.8-2-.2-.5-.5-1.1-.7-1.6-.3-.8-.6-1.5-.9-2.3-.1-.4-.3-.8-.5-1.1-.1-.3-.3-.5-.4-.7l-.7-1.8c-.1-.3-.1-.6-.2-.8l-.9-2.1c.4-.4.9-.7 1.3-1.2.3 0 .5-.4.8-.6.5 0 .8-.2 1.1-.6.3-.1.5-.2.8-.3.2.1.5.1.8.2.1.1.3.3.5.4l.6.6c.8 1 1.2 2.2 1.8 3.3.2.3.3.6.4 1 .1.4.3.8.4 1.2l.7 1.8c.2.5.4 1.1.6 1.6.1.3.3.6.4.9.1.2.2.5.3.7.3.7.5 1.5.8 2.2.2.4.4.7.5 1.1l1.5 2.7c.1.2.3.3.3.4.2.3.4.5.6.8.7.9 1.8 1.3 2.7 1.9.5.3 1.1.2 1.7.3.6 0 1.1-.1 1.4-.4.7-.3 1.4-.4 1.8-.7.7-.6 1.4-1.1 2.1-1.6v-.3l.1.1c.2-.2.5-.4.6-.5l.6-.3c.4-.3.8-.7 1.2-1 .1-.1.2-.2.4-.3l1.3-1 1-.9.3.4c.2 0 .3-.1.5-.1.4-.4.7-.9 1.1-1.3.4-.3.5-.7.6-1.1h-.2c-.3.3-.7.6-1 .9-.2.2-.3.4-.5.5-.5.3-1.1.5-1.6.8-.3.2-.8.2-1.1.2-.3 0-.6-.2-.9-.3-.9-.4-1.8-.8-2.4-1.7.1-.1.3-.2.4-.3.3-.2.7-.4 1-.7.3-.4.6-.7 1-.9.4-.2.8-.6 1.2-.9 0-.3.4-.4.6-.5.2-.2.5-.3.7-.5l.8-.6c.1 0 .3-.1.3-.1l.9-.9c.1-.1.3-.3.5-.4.1-.1.2-.2.3-.2.5-.2.8-.6 1.1-1.1.1-.1.1-.2.2-.4.2-.2.3-.4.5-.6l.7-.8c.2-.2.4-.5.5-.8.1-.3.2-.6.3-1.1.3-.3.1-.9.4-1.4-.1-.1-.1-.3-.2-.4.3-1.4-.6-3.6-1.9-3.9-.3-.5-.7-.7-1.1-1zm-54.8 5.2c.1-.3 0-.7.1-1.1 0-.2.1-.4.2-.6v-.6l.3-.3c-.2-.6.3-1 .4-1.6 1.1.3 2.2.5 3.1 1 .3.1.6.3.9.5h.3c1.3.7 2.6 1.4 4.1 1.3.2.1.4.3.7.3.3.1.6 0 .9.1.5.2 1.1.1 1.7.1.3 0 .6 0 .9.1.1 0 .2.1.3.3-.5.2-.9.4-1.3.6-.1.6-.5.9-.9 1.3-.8.7-1.8 1.2-2.6 1.9-.1.1-.2.1-.2.2-.3.5-.8.6-1.2.9-.3.2-.5.4-.8.6-.2.1-.4.3-.6.4-.3.2-.5.4-.8.6-.6.5-1.4.8-2.1.9-.4 0-.9-.2-1.3-.3-.5-.1-.6-.6-.9-1-.4-.6-.5-1.4-.7-2.1-.2-.7-.2-1.4-.2-2.1 0-.1.1-.2.1-.3-.5-.3-.6-.6-.4-1.1zm44.3 1.3c1.3.6 2.6 1.1 3.8 2 .7.6 1.2 1.3 1.2 2.3 0 .4.1.8 0 1.1 0 .4-.2.7-.3 1-.1.2-.3.4-.4.7v.4l-.3.3h-.4c0 .1.1.2.1.3-.7.4-1.1 1.2-1.9 1.4-.2-.1-.4-.1-.7-.2-.6-1-1.2-2.1-1.6-3.2-.3-.9-.7-1.7-1.1-2.5-.2-.5-.4-1-.6-1.6-.2-.6-.5-1.2-.7-1.9-.1-.2-.2-.4-.3-.7 1.1-.1 2.2.2 3.2.6z" id="path572"/><path d="M249.1 528.3c0-.2-.1-.3-.2-.6.3 0 .6-.1.9-.1.5 0 1.1 0 1.7.1.2 0 .5.1.7.1.4 0 .8 0 1.2-.1.4-.1.8-.2 1.1-.3.4.1.7.1 1-.1.3-.2.7-.3 1.1-.4.2-.1.4-.2.6-.2.2-.1.4-.1.6-.1.5-.3 1.1-.7 1.6-1.1.4-.3.7-.7 1.1-1 .4-.3.7-.7 1-1.2.3-.5.7-1 1-1.5.3-.6.5-1.3.9-1.9.3-.5.4-1.1.7-1.7v-.1c.3-1.2.5-2.3.8-3.5.1-.3.1-.7.2-1 .1-.6.2-1.1.3-1.7 0-.3.1-.5.1-.8.1-1 .2-1.9.3-2.9.1-.9.2-1.8.2-2.7 0-.3.1-.6.2-.9.1-.6.2-1.1.3-1.7.2-1.3.4-2.5.6-3.8l.3-1.8c0-.2.1-.5.1-.7.1-.4.1-.7.1-1.1.1-.9.3-1.8.5-2.7.2-.9.4-1.8.5-2.8.2-.9.4-1.9.5-2.8 0-.5.2-.9.3-1.4.1-.4 0-.8.1-1.3s.2-.9.2-1.4c0-.2.1-.5.1-.7.1-.6.2-1.1.3-1.7v-.4l-1.5-1.2c-.3-.3-.7-.4-1-.7-.6-.6-1.4-1.1-1.7-2-.4-.2-.6-.5-.8-.9l-.4-.4c-.3-.3-.6-.7-.9-1-.3-.4-.7-.7-1-1-.3-.3-.7-.6-1-1-.5-.5-1-1-1.5-1.6-.1-.2-.2-.4-.4-.6-.1-.1-.3-.2-.4-.4-.1-.1-.2-.3-.3-.4l-.4-.4c-.2-.2-.5-.4-.7-.6-.5-.4-.9-.7-1.4-1-.5-.3-1-.6-1.6-.8-.3-.1-.7-.2-1-.3h-.3c-.3 0-.6 0-1-.1 0-.2.1-.3.1-.5.4 0 .7-.1 1.1-.1h2v-.1c.2.1.4.1.7.2v-.3c.4.1.7.2 1 .2h2.8c.4 0 .8.1 1.2.1h1.1c.5 0 1-.2 1.4.1.1 0 .3 0 .5-.1.4.1.9.2 1.3.2.2 0 .3.1.5.2.7.4 1.4.9 2.1 1.3.8.4 1.4 1.2 2 1.8l.9.9c.3.3.7.6 1.1.9h.2c.1-.5.5-.9.8-1.3.3-.4.5-.7.8-1.1l.6-.6c.1-.1.2-.2.3-.4l1.8-1.2c.6-.4 1.2-.5 1.9-.7.7-.2 1.3-.3 1.9-.4.4-.1.8-.2 1.2-.2.2 0 .3.1.5.1.6-.2 1.2-.2 1.9-.4h.7c.9-.3 1.7-.3 2.6-.4.5 0 1-.1 1.5-.2s.9-.2 1.4-.2h.6c.3 0 .6-.1.9-.2.1 0 .3.1.5.2-.6.6-1.2.6-1.8.9-.2-.2-.3-.2-.6-.1-.3.2-.7.2-1.1.3-.2.1-.4.3-.7.5-.2.1-.4 0-.5.3 0 0-.1 0-.1.1-.4.2-.8.3-1.2.5-.2.1-.5.3-.6.4-.4.3-.7.7-1.1 1.1-.3.4-.6.9-.9 1.3-.1.1-.1.3-.1.3-.2.2-.4.4-.5.6-.2.5-.4.9-.6 1.4-.1.3-.2.5-.3.8-.2.5-.4 1-.5 1.5-.2.5-.3 1.1-.4 1.6-.1.3-.1.7-.2 1-.1.6-.2 1.3-.2 1.9v.6c.7.2 1.1.8 1.5 1.3.8.5 1.6.9 2.3 1.6.1.1.3.3.5.4.5.3 1 .7 1.5 1.2.1.1.2.1.3.2l1.3.9c.2.1.3.2.5.2.6.3 1.2.7 2 .7h.6c.4 0 .7-.1 1.1 0 .7-.1 1.4-.2 2.2-.4 0 .2 0 .3-.1.4-.3.1-.5.3-.8.3l-.1-.1c-.5.3-1.1.2-1.6.4v-.1l-.2.2h-.4v.1c-.6.1-1.2.3-1.8.4-.3.1-.7.2-1 .2h-.5c-.9.5-1.9.6-2.9.7-.3.1-.5.2-.8.2-.7.1-1.4.1-2.1.1-.4 0-.8-.1-1.2-.1h-1.1c-.4-.1-.6-.1-.9.2-.1 1.3-.2 2.7-.7 4.1l-.2.2c.3.2.2.4.1.6-.1.2-.3.4-.4.6.1 0 .2 0 .3.1-.3 2.2-.6 4.4-.9 6.5h-.2c.2.3.2.7 0 1-.1.2 0 .5-.1.7-.2 1.4-.3 2.9-.5 4.3-.1.8-.1 1.6-.2 2.4-.1.9-.2 1.8-.3 2.8-.1.4-.2.9-.3 1.3l-.1.6c0 .1-.1.1-.1.2 0 .8-.3 1.5-.4 2.2-.2.8-.3 1.6-.6 2.4-.1.2-.2.4-.2.6-.3.8-.4 1.6-.9 2.4-.4.6-.6 1.2-1 1.8-.1.2-.3.3-.5.5 0 .4-2 2.4-2.5 2.5-.2.2-.3.5-.5.5-.9.4-1.7 1-2.7 1.1-.5.5-1.3.2-1.9.5-.3.1-.7.2-1.2.4-.4 0-1 .1-1.5.1h-.4c-.1 0-.2-.1-.2 0-.7.2-1.5-.1-2.2.1h-.4c-.5-.2-1.1-.1-1.6-.1-.8.1-1.6 0-2.4 0-.6 0-1.2.1-1.8 0-.7 0-1.3-.1-2-.1h-.7c-.2 0-.5 0-.7-.1 0 .5-.3.4-.6.4z" id="path574"/><path d="M298.4 515.9c.5.2 1 .5 1.6.6.5 0 1.1-.2 1.7-.1 0 .1 0 .2.1.4-.2.1-.4.2-.6.2-.5 0-.9 0-1.3.2s-.9.2-1.4.3c-.2 0-.4 0-.7-.1-.6.3-.6.3-1 .2-.2.1-.3.2-.4.2-.3-.1-.6 0-.9.1-.4.1-.7.2-1.1.1-.1 0-.3.1-.5.1-.1 0-.2.1-.3.1-.4.1-.9 0-1.3.2-.8.2-1.6.1-2.2.3-1.3-.2-2.6-.5-3.3-1.7-.2-.2-.4-.3-.5-.6-.2-.3-.3-.7-.4-1-.2-.5-.3-1-.4-1.5-.1-.7-.1-1.4-.1-2v-1.8c0-.7.1-1.4.1-2v-1.8c.1-1.1.3-2.2.4-3.3v-.6c0-.2.1-.4.1-.6v-.5c.1-.6.1-1.1.2-1.7 0-.3.1-.7.1-1v-1.3c0-1 0-1.9-.2-2.9-.1-1.1-.7-2-1.7-2.6-.3-.2-.7-.2-1-.1-.5.1-1 .2-1.5.1-.4-.1-.7.1-1.1.1-.3 0-.7 0-1-.2v-.3c.1 0 .1 0 .1-.1.5-.1 1-.3 1.5-.4.3-.1.6-.1 1-.2.2 0 .4-.1.6-.1.1 0 .3-.1.4-.1h1.5c.3 0 .6 0 .9-.1l.3-.3c.1.1.1.2.2.3.5-.1 1.1.1 1.5-.2.3 0 .6 0 .9.1h1.1c.2 0 .4-.1.7-.1h.5c.6 0 1.2-.1 1.8-.2h.9c.2-.1.5 0 .9 0 .9.1 1.4.7 1.9 1.4.2.3.4.7.5 1.1.2.9.3 1.7.4 2.6.1.9.1 1.7 0 2.6 0 .8-.2 1.6-.3 2.4-.1.6-.1 1.2-.1 1.8v1.1c.4-.1.7-.2 1-.3.5-.1 1-.2 1.4-.3.5-.2 1.1-.1 1.6-.3.5-.2 1.1-.2 1.7-.3.3 0 .5-.1.8-.1.1-.1.2-.2.4-.3.1 0 .2.1.3.1.6-.1 1.2-.1 1.8-.2.3-.1.6-.2.9-.2h.4c.4-.1.9-.2 1.3-.3.8-.2 1.5-.1 2.2-.1l.7-.1v.1c.4.1.8.3 1.2.4.7.1 1.2.5 1.6 1 .4.5.9.8 1.2 1.5.2.5.3.9.5 1.4l.3.9h-.3v.6h.1c0-.2.1-.3.1-.5.4.4.4 2.8.2 3.5.1.1.1.2.2.3-.1 0-.1.1-.2.1l.2.2-.1.1c0 .7.1 1.5.1 2.2 0 .8.1 1.7.1 2.5s.1 1.6.2 2.4c.1.7.1 1.5.2 2.2.1.7 0 1.4.3 2.1v.4c.1.3.2.6.4.9.3.9.8 1.6 1.6 2.2.2.1.2.3.4.5.5.1 1 .2 1.6.2.5 0 1.1-.1 1.7-.2-.2.2-.3.3-.4.5-.4.1-.9.3-1.3.4-.5.1-.9.4-1.3.2-.2.1-.4.2-.6.2-.3.3-.8.3-1.2.5-.7.2-1.3.5-2 .7-.2.1-.3.1-.5.2-.1-.1-.2-.1-.2-.1-.5.2-1 .4-1.5.7-.2 0-.6.1-.9.1-.3 0-.6.1-1 .2-.1-.1-.2-.2-.4-.3v.4c-.3-.2-.6 0-.8-.2h-.2c-.4.2-.7 0-1-.1-.1 0-.2-.1-.4-.2 0 0-.1-.1-.1-.2-.1 0-.2-.1-.3-.1-.9-1.1-1.8-2.1-2-3.5 0 0 .1 0 .1-.1-.3-.6-.3-1.2-.4-1.9-.2-1-.1-2.1-.2-3.3 0-.7-.1-1.5-.1-2.3 0-.7 0-1.4-.1-2.1v-1.2c0-.2-.1-.3-.1-.5v-4c0-.4-.1-.8-.2-1.2-.2-.7-.3-1.4-.7-2-.3-.6-.6-1.2-1.2-1.6-.2-.2-.4-.5-.6-.6-.3-.2-.7-.3-1-.4v-.1h-.5c-.3-.1-.6-.3-.9-.4-.2.3-.5.2-.8.2-.5 0-1 .2-1.4.4-.1 0-.3-.1-.4-.1v.1c-.4.1-.7.2-1.1.3 0 1-.1 2-.1 2.9 0 .9.1 1.9-.1 2.9 0 .2 0 .4.1.7v1.8c.1.3.2.7.3 1.1.1.3.2.7.3 1 .2.4.5.8.7 1.1-.6-.1-.4 0-.2.2z" id="path576"/><path d="M327.8 532l.3 1.8c.1.5.2 1.1.6 1.5.1.1.2.3.3.4.1 0 .2 0 .3-.1l.3.3c-.1 0-.1.1-.2.1.6.3 1.2.3 1.7.3s1 .1 1.6.1c.3 0 .6.1.8 0 .4-.1.9-.2 1.3-.3.8-.3 1.6-.6 2.5-.8.3-.1.5-.3.8-.4.7-.2 1.2-.7 1.9-.8.1 0 .3-.1.4-.2.5-.5 1.2-.6 1.8-.9.5-.3 1.1-.4 1.6-.7 1-.5 2-1 2.9-1.5.4-.2.7-.3 1.1-.5.5-.3 1.1-.6 1.6-.9.6-.3 1.1-.6 1.6-1 .3-.2.7-.4 1.1-.5.6-.3 1.1-.8 1.8-.9 0-.1 0-.2.1-.3.3 0 .5 0 .8-.1.3-.1.6-.1.8-.3.4-.4.8-.6 1.3-.9.1-.1.3-.2.4-.3.3-.4.7-.6 1.2-.7.4-.6 1-.9 1.5-1.1l.7-.7c.2 0 .4-.1.5-.2.6-.3 1.1-.7 1.7-1 .1-.1.3-.1.4-.2.2-.3.5-.4.8-.5 0-.1.1-.2.1-.3.1-.1.2-.1.3-.2 0-.1-.1-.2-.1-.4-.3.1-.7.1-.9.2-.2 0-.3-.1-.4-.1-.7-.2-1.3-.3-2-.5-.4-.1-.9-.2-1.3-.3-.3-.1-.6 0-.8-.2-.2-.2-.5-.2-.8-.2-1 0-1.9-.4-2.8-.6-.2 0-.3-.1-.5-.1-.1 0-.3-.1-.4-.1-.5-.1-1.1-.3-1.6-.5s-1.1-.3-1.6-.5c-.3-.1-.6-.1-.8-.2-.3-.1-.5-.3-.8-.4-.1.1-.2.1-.3.2 0-.3-.3-.4-.4-.4l-1.8-.3c-1-.3-2-.6-2.9-.9-.2-.1-.3-.2-.5-.2-.6-.2-1.2-.4-1.8-.8-.1-.1-.3-.1-.5-.2s-.4-.3-.6-.4c-.3-.1-.6-.3-1-.4-.2-.1-.5-.1-.6-.3-.5-.3-1.1-.6-1.7-.7-.6-.2-1.2-.4-1.7-.6-.5-.2-1-.3-1.4-.6-.5-.3-1-.4-1.6-.3-.5-.3-1-.2-1.4-.2-.6.3-1.1.5-1.6.7-.5.2-1 .3-1.5.4-.2.1-.5.2-.7.3-.2.1-.3.2-.5.1h-.3c-.5.2-1 .4-1.4.6-.1 0-.1.1-.2.1s-.3-.1-.4-.1c-.1.1-.2.1-.3.2-.1.1-.1.2-.2.2v-.1c-1.2.4-2.4.4-3.5 1.3.1.1.1.2.2.4.4-.1.8-.1 1.2-.2.4.3.9.6 1.4.9.2.1.3.3.4.4.3.3.6.7.6 1.1.2.3.3.4.4.6.3.6.7 1.1.8 1.8.1.4.2.9.3 1.3.1.3.2.5.2.8 0 .4 0 .7.1 1.1 0 .2.1.3.2.5 0 .2-.1.3-.1.5 0 .1.1.2.1.3.1.9.2 1.8.3 2.6 0 .3.1.6.1 1s.1.7.1 1.1c.1.6.1 1.2.2 2 .1.7.3 1.3.4 1.9zm23.1-4.3c-.4 0-.7.5-1.1.7-.3 0-.6.1-.9.4-.1.1-.3.1-.4.2-.7.4-1.4.8-2.1 1.1-.1.1-.2.1-.4.2 0 .1-.1.2-.1.2-.4.1-.6.3-.9.4-.6.1-1.1.4-1.6.6-.9.3-1.8.6-2.7.4-.5-.1-.9-.1-1.4-.5-.6-.9-.6-2-1-3.1h-.4v-.1c.1 0 .2-.1.4-.1-.1-.3-.1-.6-.2-.9 0-.2.1-.3.1-.4-.1-.3-.2-.7-.3-1v-.9c-.2 0-.3-.1-.4-.1l-.1-.2h.1l.2.2c.1 0 .1 0 .2-.1 0-.6-.1-1.1-.2-1.7-.1-.5.1-1.1-.4-1.6.5-.2.9-.1 1.4.1.4.1.7.3 1.1.4h.3c.2.3 1.6.8 1.9.8.8.3 1.3.7 2 .7.3.1.6.3.9.4.2 0 .3 0 .5.1.1 0 .1-.1.2-.2 0 .1.1.2.1.3l1.2.3s0-.1.1-.2c0 .3.2.4.4.4.6.1 1.2.2 1.7.4.4.1.8.3 1.3.4.5.2.9.2 1.4.3.3.1.6.2.9.2h.1c.2.1.4.2.6.4-.9.6-1.6 1-2.5 1.5z" id="path578"/><path d="M252.6 495.9c-.8.1-1.6.1-2.5.2-.4 0-.7 0-1.1.1-.5.1-1 .1-1.5-.2 0-.1 0-.2-.1-.3.8-.4 1.8-.1 2.7-.5.2-.4.3-1 .3-1.5.1-1.2.1-2.4.2-3.6 0-.9.1-1.7.1-2.6.1-.8.4-1.5 1.1-2 .6-.5 1.4-.7 2.1-.7h1.9c.5 0 1 0 1.5.1.3.1.6 0 .9 0 .9 0 1.8-.1 2.7-.1.9 0 1.8 0 2.7.1.2 0 .4.1.6.2-.2.4-.5.3-.8.3-1.1.4-1.3 1.3-1.5 2.1v1.7c0 .5 0 1-.1 1.6 0 .2-.1.3-.1.5 0 0 .1.1.1.2-.2 1.1-.1 2.3-.6 3.4-.1.1-.3.1-.4.3 0 .1-.3.2-.5.2h-.6c-.2 0-.4.1-.6.1-.2 0-.5.1-.8.1-.3-.1-.6-.1-.9.1-.6-.1-1.2-.2-1.7.1h-1.8c-.4 0-.7.2-1.1.1h-.2z" id="path580"/></g></g><g id="g598"><g id="g596"><path d="M257.2 457c-.2-.5-.5-1-.6-1.6-.2-.7-.5-1.2-.8-1.7-.4-.8-1.2-1.2-1.8-1.8l-1.2-.9-1.2-.9c-.2-.1-.3-.2-.5-.3-.5-.4-1.1-.7-1.8-.8-.5-.1-1 .1-1.4-.1-.2-.1-.4-.1-.6-.1-1-.1-1.9-.3-2.9-.5.2-.6.4-1.1.5-1.7.1-.6.4-1.2.1-1.8v-.2c.2-.4 0-.8-.3-1.1-.4-.4-.7-.9-1.1-1.3-.2-.2-.5-.4-.8-.5-1-.2-1.9-.6-2.9-.7-.7-.1-1.3-.2-2-.4-.2 0-.4-.1-.6-.1-.3-.1-.5-.1-.8-.2-.1 0-.2 0-.2-.1-.7-.2-1.5-.4-2.2-.5h-.1c-.4-.1-.9-.1-1.3-.2-.6-.2-1.2-.2-1.8-.3h-1.1c.4-.7.9-1.4 1.3-2.1.9-1 2.1-1.7 3.4-2.4.4-.1 1-.1 1.4-.4.9.2 1.9.2 3 .1-.8-.4-1.6-.6-2.4-.7.2 0 .4-.1.6-.1 1 .2 1.5.1 1.7-.3-.6-.2-1.1-.3-1.7-.5-.6-.1-.9-.5-1.1-1l-.5-.5c-.1-.1-.2-.3-.4-.3-.3-.1-.5-.3-.7-.6-.3-.4-.7-.8-1-1.2-.3-.3-.6-.7-.9-1-.4-.5-.6-1.1-.9-1.7-.5-1-.8-2.1-1.4-3.1-.2-.3-.3-.6-.5-.8-.1-.2-.3-.5-.4-.7l-.3-.6-.7-.7c-.2-.2-.4-.5-.6-.7-.2-.2-.5-.3-.8-.5-.2-.1-.4-.2-.7-.4-.6-.3-1.2-.8-1.9-.8-.1 0-.2-.1-.2-.1-.6-.3-1.3-.5-2-.6-.2-.1-.4-.2-.6-.2-.4 0-.7-.2-1-.3-.1-.1-.2-.1-.4-.1-.9-.1-1.8-.4-2.7-.8-.1-.1-.3 0-.4-.1-.3-.1-.5-.3-.7-.3-.7-.2-1.3-.4-2-.5-.3-.1-.7-.1-1-.2-.5-.1-1.1-.1-1.6-.2-.4-.1-.8-.1-1.3-.1-.6 0-1 .3-1.5.4l-.9.3c-.5.3-1.1.4-1.6.9-.1.1-.3.1-.5.2-.6.5-1.1 1-1.6 1.5-.3.3-.6.6-1 .9-.3.3-.6.7-.8 1-.4.5-.7 1.1-1.1 1.7-.1.2-.1.4-.3.6-.5.8-.4 1.7-.2 2.5.1.6.6 1.1 1 1.6.1.2.3.4.5.6.3.1.6.3.9.5.3.2.5.4.8.4.1 0 .2.1.2.2.4 0 .7.1 1 .2.4.2.7.4 1.2.4.1 0 .2 0 .3.1.3.1.6.3.9.4.2.1.5.1.7.2.4.1.7.2 1.1.3.6.2 1.2.3 1.8.5l2.1.6 2.1.6c.3.1.7.1 1 .2.8.2 1.6.4 2.4.5.4.1.8.2 1.2.2.2 0 .4.1.6.1.3 0 .6 0 .9.1.3 0 .7 0 .9.3-.1.1-.2.2-.3.2-.5.2-.8.4-1.2.8-.4.4-.8.8-1.1 1.2-.5.7-.8 1.4-1.3 2-.5.6-.6 1.4-1 2.1-.2.3-.2.7-.4 1-.5 1-1 2-1.4 2.9 0 .1 0 .2-.1.3-.2.4-.3.9-.5 1.3-.4.8-.8 1.5-1.1 2.3-.3.8-.6 1.6-.9 2.3-.7 1.4-1.2 2.9-1.9 4.2-.4.7-.7 1.3-1 2-.4.9-.8 1.7-1.2 2.6-.5 1-.9 2.1-1.3 3.1-.1.3-.3.7-.5 1-.2.3-.3.5-.5.8-.4.7-.8 1.5-1.4 2.1-.7.9-1.5 1.7-2.5 2.3-.5.3-1 .3-1.5.6h-.1c-.5-.1-1.1-.2-1.6-.3-.6-.1-1.2-.3-1.8-.4 0-.1-.1-.2-.1-.2-.4-.1-.8-.2-1.2-.2-.1 0-.3.1-.5.1-.1.2 0 .4.2.5.3.1.5.3.8.4.2.1.5.1.7.2.3.1.6.3.9.4.3.1.6.1.8.2.6.2 1.2.3 1.8.5.7.2 1.4.2 2.1.6.1.1.2.1.4.1l1.5.3c.4.1.7.3 1.1.4.6.2 1.3.3 1.9.5 1 .3 2.1.4 3.1.2.7-.1 1.5-.2 2.2-.3.5-.5 1.1-.9 1.6-1.4.1 0 .3-.1.3-.1.4-.5.8-.9 1.1-1.3.4-.6.7-1.2 1.1-1.8.2-.4.5-.7.7-1.2.4-.9.8-1.9 1.2-2.9.5-1.2 1-2.4 1.5-3.5l.7-1.5c.3-.7.6-1.4.9-2l.6-1.5c.1-.2.1-.4.2-.6 0 0 .1-.1.1-.2.3-.7.5-1.3.8-2 .2-.5.4-1.1.6-1.7.3-.8.7-1.5 1-2.3.2-.4.3-.7.5-1.1.1-.3.2-.5.3-.8l.8-1.8c.1-.2.3-.5.5-.7l.9-2.1c.6.1 1.1.1 1.8.1.2.3.6.1 1 .1.3.4.8.4 1.2.3.2.1.5.2.7.3.1.2.3.5.4.7v1.5c-.1 1.2-.7 2.4-1.1 3.6-.1.3-.2.7-.4 1l-.6 1.2-.8 1.8c-.2.5-.5 1-.7 1.5-.1.3-.3.7-.4 1-.1.2-.2.5-.3.7-.3.7-.7 1.4-1 2.1-.2.4-.3.8-.4 1.2-.3 1-.6 2-.8 2.9v.5c0 .3-.1.6-.2 1-.1 1.1.3 2.2.6 3.3.1.6.6.9 1 1.3s.9.7 1.2.7c.7.3 1.2.7 1.8.7.9.1 1.7.3 2.6.4l.2-.2v.1c.3 0 .6.1.8.1.2.1.4.2.6.2.5.1 1.1.1 1.6.1.2 0 .3 0 .5.1l1.6.2 1.3.1v-.1c.1.1.3.2.4.3.6-.1 1.1-.2 1.7-.1.5.1.8-.1 1.2-.3l-.1-.1c-.4 0-.9-.1-1.4-.1-.2 0-.5 0-.7-.1-.6-.2-1.1-.4-1.7-.6-.3-.1-.7-.4-.9-.7-.2-.2-.3-.6-.5-.8-.4-.9-.7-1.9-.5-2.9.1 0 .3 0 .5.1.4.1.8.2 1.1.2.5 0 .9-.1 1.4.1.5.1 1 .2 1.5.2.2-.2.5 0 .8.1.3 0 .6.1.9.1l1 .1c.1.1.3.1.3.2h1.3c.2 0 .4 0 .6.1h.4c.5.2 1 .1 1.5 0 .1 0 .3-.1.4-.1.3 0 .5 0 .7-.1l1.1-.1c.3 0 .6-.1.9-.2.3-.1.6-.3 1-.5.4 0 .7-.6 1.3-.7.1-.2.1-.3.1-.4 1.2-.8 2.1-3 1.4-4 .6-.6.4-1.1.3-1.5zm-42.4-35.1c.3-.1.5-.5.8-.7l.6-.3.4-.4c.1 0 .3 0 .4.1.3-.6.9-.5 1.4-.9.6 1 1.2 1.9 1.5 2.9.1.3.2.6.3 1l.2.2c.4 1.4.9 2.8 2 3.8.1.2.1.5.2.7.2.3.4.5.5.7.2.5.7.8 1.1 1.3.2.2.4.4.6.7.1.1 0 .2 0 .4-.5-.2-.9-.3-1.4-.5-.5.3-1 .3-1.5.3-1.1-.1-2.1-.4-3.1-.6-.1 0-.2-.1-.3 0-.5.1-1-.1-1.6-.2-.3-.1-.7-.1-1-.1-.2 0-.5-.1-.7-.1-.3 0-.7-.1-1-.1-.8-.1-1.6-.4-2.2-.9-.3-.3-.5-.7-.7-1.1-.3-.5 0-.9.1-1.3.1-.8.6-1.3 1-2 .3-.6.9-1.1 1.3-1.6.1-.1.2-.1.3-.2.2-.5.3-.9.8-1.1zm30.4 32.2c.3.7.6 1.3.8 2 .2.7.4 1.4.4 2.1.1.9-.1 1.8-.8 2.4-.3.3-.5.6-.8.8-.3.2-.6.4-.9.5-.2.1-.5.1-.7.2-.1 0-.2.1-.3.2h-.4l-.3-.3c-.1.1-.1.2-.2.3-.8-.2-1.6.1-2.3-.3-.1-.2-.2-.4-.3-.7.3-1.1.6-2.3 1.2-3.4.4-.8.7-1.7 1-2.6.2-.5.5-1 .7-1.5.3-.6.5-1.2.8-1.8.1-.2.2-.4.3-.7.8.9 1.4 1.8 1.8 2.8z" id="path586"/><path d="M136 338.3c.1-.1.2-.3.3-.5.3.2.5.4.7.6.4.4.7.8 1.1 1.2.2.2.2.4.4.6.3.3.6.6.9.8.3.2.7.4 1 .6.2.4.4.5.8.6.4.1.7.3 1.1.5.2.1.4.2.6.2.2.1.3.2.5.3.6.1 1.3.3 1.9.4.5.1 1 0 1.5.1s1 0 1.5-.2c.6-.1 1.2-.2 1.8-.4.7-.2 1.3-.6 2-.8.6-.2 1.1-.5 1.6-.7 0 0 .1 0 .1-.1 1-.6 2-1.3 3-1.9.3-.2.5-.4.8-.6.5-.3.9-.6 1.4-1 .2-.2.4-.3.6-.5.8-.6 1.5-1.2 2.3-1.8.7-.6 1.4-1.1 2.1-1.7.2-.2.5-.3.7-.5.5-.3.9-.7 1.4-1 1-.7 2.1-1.5 3.1-2.2.5-.4 1-.7 1.4-1.1.2-.1.4-.3.6-.4.3-.2.6-.4.8-.6.7-.6 1.5-1.1 2.3-1.6.8-.5 1.5-1 2.3-1.6.8-.5 1.6-1.1 2.3-1.7.4-.3.8-.5 1.1-.8.3-.2.6-.6.9-.8.4-.3.8-.5 1.2-.8.2-.1.4-.3.6-.4.5-.3.9-.7 1.4-1l.3-.3c-.1-.6-.1-1.2-.2-1.9-.1-.4-.2-.8-.2-1.2 0-.9-.2-1.8.2-2.6-.2-.4-.1-.8.1-1.2v-.5c0-.4.1-.9.1-1.3v-5c0-.2.1-.4.1-.7 0-.2-.1-.4 0-.6.1-.1.1-.3.1-.5v-1.6c-.1-.6-.1-1.2-.2-1.7-.1-.6-.3-1.1-.6-1.7-.2-.3-.4-.6-.5-.9l-.2-.2c-.2-.2-.4-.5-.7-.8.2-.1.3-.2.4-.3.3.2.6.5.8.7l1.4 1.4.3.6.2-.2c.2.3.4.6.5.9l.5.5 1.5 1.5c.3.3.5.6.8.9.2.3.5.5.8.8.3.3.8.6 1 1.1 0 .1.2.2.4.3.2.3.5.7.8 1.1.1.1.1.3.2.5.3.8.3 1.6.5 2.4.3.9.2 1.8.1 2.7 0 .4 0 .8.1 1.3 0 .5.1.9.1 1.4 0 0 .1.1.2.1.5-.3.9-.3 1.4-.4.4-.1.9-.1 1.3-.2h.9c.2 0 .3 0 .5-.1.7.1 1.4.3 2.1.4.7.2 1.3.5 1.9.8.6.3 1.1.7 1.7 1.1.4.2.7.5 1 .7.1.2.2.3.3.4.6.3 1 .7 1.5 1.1.1.1.1.2.2.2.1.1.1.2.3.3.8.4 1.4 1 2.1 1.6l1.2.9c.4.3.8.6 1.1.8.1.1.2.3.4.4.2.2.5.3.8.5.1.1.1.3.2.5-.8 0-1.3-.4-1.9-.6 0-.2-.1-.4-.4-.5-.4-.1-.7-.3-1.1-.6-.2 0-.5 0-.8-.1-.2-.1-.3-.3-.6-.2h-.1c-.4-.2-.8-.4-1.2-.5-.2-.1-.5-.1-.8-.1h-1.5c-.5 0-1 .2-1.6.3-.1 0-.2.1-.3.2-.3 0-.5 0-.8.1-.5.2-1 .4-1.4.6-.3.1-.5.2-.8.3-.5.2-.9.4-1.4.7-.5.3-1 .5-1.4.8l-.9.6-1.5 1.2c-.2.1-.3.3-.4.4.3.7.2 1.3.2 1.9.3.9.5 1.8.4 2.7 0 .2 0 .4.1.6.1.6.2 1.2.2 1.9 0 .1.1.2.1.3l.2 1.6c0 .2.1.4.2.5.3.7.4 1.4.9 1.9.1.2.3.3.5.4.3.2.6.4.8.7.6.4 1.2.9 1.9 1.3-.1.1-.2.2-.3.2-.3-.1-.6-.2-.8-.3v-.1c-.6-.2-.9-.6-1.4-.9v-.1h-.3c-.1-.1-.2-.2-.2-.3l-.1.1c-.5-.3-1-.6-1.6-1l-.9-.6c-.2-.1-.3-.3-.4-.4-1-.3-1.8-.9-2.5-1.5-.2-.1-.5-.2-.7-.4-.5-.4-1.1-.9-1.6-1.3-.3-.3-.5-.6-.8-.9l-.3-.3-.4-.4c-.1-.4-.4-.5-.8-.5-1.1.9-2.2 1.7-3.4 2.4h-.3c.1.3-.1.5-.3.5-.2.1-.4.1-.7.1.1.1.1.2.2.3-1.7 1.3-3.5 2.7-5.2 4-.1-.1-.1-.1-.2-.1-.1.4-.3.6-.7.8-.2.1-.4.3-.5.5-1.1.9-2.3 1.8-3.4 2.7l-1.8 1.5c-.7.6-1.4 1.2-2.2 1.7-.4.3-.8.5-1.1.7l-.5.4c-.1 0-.1.1-.2.1-.5.6-1.3.9-1.9 1.3-.7.5-1.4.9-2.2 1.3-.2.1-.4.2-.6.2-.8.4-1.5.8-2.3 1-.7.2-1.3.4-2 .6-.2.1-.4 0-.7.1-.2.3-3.1.3-3.5 0-.3 0-.5.1-.7 0-.9-.3-1.8-.5-2.7-1.1-.7-.1-1.1-.8-1.7-1.1-.3-.1-.7-.3-1.1-.6-.3-.3-.8-.6-1.2-1l-.3-.3c-.1-.1-.1-.2-.1-.2-.6-.3-1-1.1-1.6-1.5l-.3-.3c-.3-.5-.7-.8-1.1-1.2-.6-.5-1.2-1.1-1.7-1.7-.4-.5-.9-.8-1.3-1.2-.5-.5-.9-1-1.4-1.5-.2-.2-.4-.3-.5-.5-.2-.2-.3-.4-.5-.6.7.4.5.1.3-.2z" id="path588"/><path d="M179.6 364.4c.2.5.3 1.1.7 1.5.4.4.9.6 1.3 1.1-.1.1-.1.2-.2.3-.2-.1-.5-.1-.6-.3-.4-.3-.7-.6-1.1-.8-.4-.2-.8-.5-1.2-.8-.2-.1-.3-.3-.5-.5-.6-.2-.6-.2-.8-.6-.2-.1-.4-.1-.4-.2-.2-.3-.5-.4-.7-.6-.3-.2-.6-.4-.9-.7-.1-.1-.3-.2-.4-.2-.1 0-.2-.1-.2-.1-.4-.3-.7-.6-1.1-.8-.7-.4-1.2-1-1.8-1.4-.8-1.1-1.4-2.2-1-3.5v-.7c.1-.3.3-.7.4-1 .2-.5.5-.9.8-1.4.4-.5.9-1 1.3-1.5.4-.4.9-.8 1.3-1.3.5-.5 1-.9 1.5-1.4.4-.4.8-.8 1.2-1.1l.2-.2c.9-.7 1.7-1.3 2.6-2 .2-.1.3-.3.5-.4l.6-.3c.1-.1.3-.2.4-.3l1.4-1.1c.3-.2.5-.4.8-.7l.9-.9c.6-.7 1.3-1.4 1.9-2.1.7-.9.9-1.9.6-3-.1-.3-.4-.6-.6-.8-.4-.3-.8-.6-1.1-1-.2-.3-.6-.5-.9-.7-.3-.2-.5-.5-.6-.8.1-.1.2-.1.2-.2.1 0 .1 0 .1.1.4.3.9.5 1.3.8.3.2.5.4.8.6.2.1.3.2.5.3l.3.3c.3.3.6.6.9.8.1.1.2.2.3.2.2.2.4.4.7.6h.5c0 .2-.1.3-.1.4.5.3.7.8 1.3.9.2.2.4.4.6.7l.8.8c.2.2.4.3.5.4.1.1.2.3.3.4.4.4.9.8 1.3 1.1.2.2.3.4.6.7.2.1.4.4.6.6.6.7.5 1.5.4 2.3-.1.4-.2.8-.4 1.1-.5.7-1 1.4-1.6 2.1-.6.7-1.2 1.3-1.8 1.9l-1.8 1.5c-.5.4-.9.8-1.4 1.2-.3.2-.5.5-.8.8.3.2.6.3.9.5.4.3.8.6 1.2.8.5.3.8.7 1.3.9.5.2 1 .6 1.4 1 .2.2.4.3.6.5h.5c.1.1.1.2.1.3.5.4 1 .7 1.4 1.1.3.2.6.3.8.5l.3.3c.4.2.8.5 1.2.7.6.4 1.1 1 1.7 1.5l.5.5-.1.1c.2.4.3.8.5 1.1.4.6.5 1.2.4 1.9 0 .6.1 1.2-.2 1.9-.2.4-.4.9-.6 1.3-.1.3-.3.5-.4.8-.1-.1-.2-.1-.3-.2l-.4.4c.1-.1.3-.2.5-.3 0 .5-1.6 2.3-2.3 2.5 0 .1-.1.2-.1.3h-.2v.3h-.2c-.5.6-1 1.1-1.4 1.6-.6.6-1.1 1.3-1.7 1.9l-1.6 1.8-1.5 1.7c-.5.6-1 1-1.4 1.7l-.3.3c-.1.3-.3.6-.4.9-.4.8-.5 1.7-.4 2.7 0 .2-.1.4-.1.6.3.4.6.9 1 1.2.4.4.8.7 1.3 1-.2 0-.4.1-.7.1-.4-.2-.9-.4-1.3-.7-.4-.3-.9-.3-1.1-.7-.2-.1-.4-.2-.6-.2-.4 0-.8-.3-1.2-.5-.6-.4-1.3-.6-2-.9-.2-.1-.3-.1-.5-.2-.1-.1-.1-.2-.1-.3-.6-.2-1-.4-1.6-.6-.2-.2-.5-.3-.7-.6-.2-.2-.5-.4-.8-.6v-.5c-.1.1-.2.1-.3.2-.1-.3-.4-.4-.4-.7 0 0-.1-.1-.2-.1-.4-.1-.5-.5-.7-.8-.1-.1-.1-.2-.2-.4 0 0 0-.1.1-.3 0-.1-.1-.2-.2-.3.1-1.4.2-2.8 1-3.9h.1c.2-.7.6-1.1 1-1.6.5-.9 1.4-1.5 2.1-2.5.4-.5 1-1.1 1.6-1.7.5-.5 1-1 1.5-1.6l.9-.9c.1-.1.2-.3.3-.4.9-.9 1.9-1.9 2.9-2.8.3-.3.5-.6.7-1 .4-.6.8-1.2.9-1.9.2-.6.4-1.3.3-2 0-.3.1-.6 0-.9-.1-.3-.3-.7-.5-1l.1-.1c-.1-.1-.3-.2-.3-.3-.1-.3-.3-.6-.4-.9-.4.1-.5-.2-.7-.4-.3-.4-.8-.6-1.2-.8-.1-.1-.1-.2-.2-.4v.1c-.3-.2-.6-.4-1-.6-.8.7-1.5 1.3-2.2 2-.7.6-1.3 1.4-2.1 2-.1.1-.3.3-.4.5l-1.3 1.3c-.1.2-.4.6-.6.9-.2.3-.4.6-.4.9-.1.4-.2.9-.3 1.3.3.1.3.4.3.6z" id="path590"/><path d="M189 396.6c-.4.5-.7 1-1 1.5-.3.4-.6.9-.6 1.5v.5c.1.1.2.1.2.2v.4c-.1 0-.1 0-.2-.1.2.6.6 1 1 1.5.3.4.7.8 1 1.2l.6.6c.4.2.8.5 1.2.7.8.4 1.5.8 2.3 1.2.2.1.5.2.8.3.6.3 1.4.4 1.9.8.1.1.3.1.4.1.7 0 1.3.5 1.9.6.6.1 1.1.5 1.6.7 1 .4 2.1.7 3.2 1 .4.1.8.3 1.1.4.6.2 1.2.3 1.8.5.6.2 1.2.4 1.8.5.4.1.8.3 1.1.4.6.2 1.3.2 1.9.6.1-.1.2-.1.3-.2.2.2.4.4.6.5.2.1.5.3.8.3.5 0 1 .1 1.5.3.2 0 .3.1.5.1.5 0 1 .1 1.4.3.7-.1 1.3 0 1.8.2h.9c.2.1.3.2.5.3.6.2 1.3.3 1.9.5.2 0 .3.1.5.1.3 0 .6 0 .9.2.1 0 .2-.1.3-.1.1 0 .2.1.3.1.1-.1.1-.2.2-.4-.3-.2-.5-.4-.8-.5-.1-.1-.1-.3-.2-.4-.4-.6-.7-1.2-1.1-1.7-.3-.4-.5-.7-.8-1.1-.2-.2-.4-.5-.5-.7-.1-.3-.2-.5-.4-.7-.7-.7-1.1-1.6-1.6-2.4-.1-.1-.2-.3-.3-.4-.1-.1-.1-.3-.2-.4-.3-.5-.5-1-.8-1.5-.3-.5-.5-1-.8-1.5-.1-.3-.3-.5-.4-.7l-.3-.9h-.3c.2-.2.1-.4 0-.6-.3-.5-.7-.9-1-1.5l-1.5-2.7c-.1-.2-.1-.3-.2-.5-.3-.6-.6-1.2-.7-1.8 0-.2-.1-.3-.2-.5s-.1-.5-.2-.7c-.1-.3-.3-.7-.4-1l-.3-.6c-.1-.6-.4-1.1-.7-1.7-.3-.5-.5-1.1-.8-1.7-.2-.5-.5-.9-.6-1.4-.1-.6-.4-1-.8-1.4-.1-.5-.5-.9-.8-1.1-.6-.2-1.1-.4-1.6-.6-.5-.2-.9-.5-1.4-.7-.2-.1-.5-.2-.7-.3-.2 0-.4-.1-.5-.3 0-.1-.1-.1-.2-.2l-1.5-.6h-.2c-.1-.1-.1-.2-.2-.3h-.6v-.1c-1.1-.5-2-1.4-3.4-1.5 0 .1-.1.2-.1.4.3.2.6.4 1 .7.1.5.3 1 .4 1.6v.6c0 .5 0 .9-.3 1.2-.1.3-.1.5-.2.7-.2.6-.3 1.3-.7 1.9-.2.4-.5.8-.7 1.1-.1.2-.2.5-.4.7-.2.3-.5.5-.7.8-.1.1-.2.3-.2.5-.1.1-.3.2-.4.3-.1.1-.1.2-.2.3l-1.7 2.1c-.2.3-.4.5-.6.8-.2.3-.5.6-.7.9-.4.5-.8 1-1.3 1.6 0 .2-.2.8-.6 1.2zm19.4 13.4c-.3-.3-.8-.1-1.2-.3-.2-.2-.5-.4-.9-.4-.2 0-.3-.1-.4-.2-.8-.2-1.5-.4-2.3-.7-.1 0-.3-.1-.4-.1-.1 0-.2.1-.2.1-.4-.1-.7-.2-.9-.4-.5-.4-1-.5-1.5-.7-.9-.4-1.7-.8-2.3-1.6-.3-.4-.6-.7-.6-1.3.3-1 1-1.9 1.6-2.9-.1-.1-.1-.2-.2-.3v-.1c.1.1.2.1.3.2.2-.2.3-.5.5-.7.1-.1.3-.2.4-.3.2-.3.3-.6.6-.9l.6-.6c-.1-.1-.2-.2-.2-.4l.1-.2h.1v.3s.1.1.2.1c.4-.4.7-.9 1-1.3.3-.4.8-.7.8-1.4.5.2.7.6.9 1 .2.3.3.7.5 1 0 .1.2.1.3.2-.1.3.5 1.7.7 2 .3.7.4 1.4.9 1.9.1.3.2.6.4.9.1.1.2.2.3.4h.2c0 .1-.1.2-.1.3.2.3.4.7.7 1 0 0 .1 0 .2-.1v.1c-.2.2-.1.4 0 .6.3.5.7 1 1 1.5l.6 1.2c.2.4.5.8.7 1.3.2.3.3.6.5.8l.1.1c0 .2.1.4.1.7-1.3-.4-2.1-.6-3.1-.8z" id="path592"/><path d="M161.3 317.9l-1.9-1.6c-.3-.2-.5-.5-.8-.7-.4-.3-.8-.6-.9-1.2 0-.1.1-.2.2-.3.9.3 1.4 1.2 2.3 1.5.5-.1.9-.5 1.3-.8.9-.8 1.8-1.6 2.6-2.4.6-.6 1.3-1.2 1.9-1.7.6-.5 1.3-.8 2.2-.7.8.1 1.4.5 2 1 .5.4.9.9 1.4 1.3.4.4.7.7 1 1.2.2.2.4.4.7.6.7.6 1.4 1.2 2 1.9.6.7 1.3 1.3 1.8 2l.3.6c-.4.1-.6-.2-.8-.3-1-.5-1.9 0-2.6.4-.5.4-.8.8-1.2 1.2-.4.4-.8.7-1.1 1.1-.1.1-.3.2-.5.3 0 0 0 .1-.1.2-.9.7-1.7 1.6-2.8 2-.2 0-.3-.2-.5 0-.1.1-.4-.1-.5-.2-.2-.1-.3-.3-.5-.4-.2-.1-.3-.2-.5-.3-.2-.1-.4-.3-.6-.5-.1-.3-.4-.5-.7-.6-.3-.5-.7-.9-1.2-1.1-.4-.4-.8-.9-1.3-1.3-.3-.2-.6-.4-.9-.7 0-.3-.1-.4-.3-.5z" id="path594"/></g></g><g id="g612"><g id="g610"><path d="M192.2 293.7c.3-.5.4-1.1.7-1.6.4-.6.4-1.2.6-1.8.2-.8 0-1.7 0-2.6 0-.5-.1-1-.2-1.5s-.1-1-.2-1.5c0-.2-.1-.4-.1-.6-.1-.7-.3-1.3-.7-1.8-.3-.4-.7-.6-.9-1.1-.1-.2-.2-.3-.3-.5-.7-.7-1.2-1.6-1.7-2.4.5-.3 1.1-.5 1.6-.8.5-.3 1.2-.5 1.4-1.2 0-.1.1-.1.2-.1.5-.2.5-.6.6-1 .1-.6.1-1.1.1-1.7 0-.3-.1-.6-.2-.9-.5-.8-.9-1.7-1.5-2.5-.4-.5-.7-1.1-1.1-1.7-.1-.2-.2-.3-.3-.5l-.4-.7c-.1 0-.1-.1-.1-.2-.4-.6-.8-1.3-1.2-1.9l-.1-.1c-.3-.4-.6-.7-.8-1.1-.3-.6-.7-1-1.1-1.5-.2-.3-.5-.5-.8-.8l2.4-.6c1.4 0 2.7.3 4 .7.4.3.7.6 1.3.7.5.8 1.2 1.5 2.1 2.2-.3-.9-.7-1.5-1.2-2.2.2.1.3.2.5.3.6.9 1 1.2 1.5 1-.3-.5-.6-1-1-1.6-.3-.5-.3-1-.1-1.5v-1.2c-.1-.3-.1-.6-.1-.9.1-.5.1-1 .2-1.6 0-.5.1-.9.1-1.4.1-.7.4-1.2.6-1.9.4-1 .8-2.1 1.1-3.1.1-.3.2-.6.2-1 .1-.3.1-.6.2-.8.1-.2.2-.4.2-.7v-1c0-.3.1-.6 0-.9 0-.3-.1-.6-.2-.9-.1-.2-.1-.5-.2-.7-.2-.7-.2-1.4-.8-1.9-.1-.1-.1-.2-.1-.2-.2-.7-.6-1.3-1-1.8-.1-.2-.1-.4-.3-.6-.2-.3-.4-.6-.5-.9 0-.1-.1-.2-.2-.3-.6-.7-1-1.6-1.3-2.5-.1-.1-.2-.2-.2-.3-.1-.3-.1-.5-.2-.7-.3-.6-.7-1.2-1-1.8-.2-.3-.4-.6-.6-.8-.3-.4-.7-.8-1-1.3-.2-.4-.5-.7-.8-1-.4-.4-.9-.5-1.4-.8-.3-.2-.6-.3-.9-.4-.6-.2-1.1-.5-1.7-.5-.2 0-.3-.2-.5-.2-.7-.1-1.5-.1-2.2-.1h-1.3c-.5 0-.9.1-1.3.1-.7.1-1.3.3-2 .4-.2.1-.4.2-.6.2-.9.2-1.5.9-2 1.6-.3.5-.3 1.2-.4 1.8-.1.2 0 .5 0 .8.1.3.3.6.4 1 .1.3.1.6.3.9.1.1 0 .2.1.3.3.3.4.5.6.9.1.4.2.8.6 1.1.1 0 .1.2.1.2.1.3.3.6.4.9.1.2.2.4.4.7.2.3.4.7.6 1 .3.6.6 1.1.9 1.7.4.6.7 1.3 1.1 1.9.4.7.7 1.3 1 1.9l.6.9c.4.7.9 1.4 1.3 2.1.2.3.5.7.7 1 .1.2.2.3.4.5s.4.4.6.7c.2.2.5.5.4.9h-.3c-.4-.2-.9-.3-1.4-.3-.5 0-1.1 0-1.6.1-.8.1-1.6.4-2.4.5-.8.1-1.4.6-2.2.8-.3.1-.6.3-1 .4-1 .4-2.1.7-3.1 1.1-.1 0-.2.1-.2.1-.4.2-.8.4-1.3.6-.8.3-1.6.5-2.4.8-.8.3-1.5.7-2.3.9-1.5.4-2.8 1.2-4.3 1.7-.7.2-1.4.5-2.1.7-.9.3-1.8.7-2.7 1-1.1.4-2.1.8-3.2 1.3-.3.1-.7.3-1 .3-.3.1-.6.1-.9.2-.8.2-1.6.4-2.5.5-1.1.1-2.3.1-3.4-.2-.5-.1-1-.5-1.5-.7l-.1-.1c-.3-.4-.6-.9-.9-1.3-.3-.5-.7-1-1-1.6 0-.1.1-.2.1-.3-.2-.4-.4-.7-.7-1-.1-.1-.3-.1-.4-.2-.2.1-.3.3-.2.5.1.3.2.6.3.8.1.2.2.4.3.7.1.3.2.7.4 1 .1.3.3.5.4.7.3.5.6 1.1.9 1.6.4.6.8 1.2 1.1 1.9 0 .1.1.2.2.3.3.4.6.9.8 1.3.2.3.3.7.5 1 .3.6.7 1.2 1 1.7.5 1 1.2 1.8 2.1 2.3.6.4 1.2.9 1.8 1.3.7.1 1.4.1 2.1.2v-.1c.1.1.2.1.3.2.6-.1 1.2-.1 1.7-.2.7-.1 1.4-.3 2.1-.5.4-.1.9-.1 1.3-.3 1-.4 1.9-.8 2.8-1.2 1.2-.5 2.4-1 3.6-1.4l1.6-.6c.7-.3 1.4-.5 2.1-.8l1.5-.6c.2-.1.3-.2.5-.3h.2c.7-.3 1.3-.6 2-.8.5-.2 1.1-.5 1.6-.7.8-.3 1.5-.6 2.3-.9.4-.1.8-.3 1.1-.5.3-.1.5-.3.7-.4l1.8-.7c.3-.1.6-.1.8-.2l2.1-.9c.4.4.7.9 1.2 1.3 0 .3.4.5.6.8 0 .5.2.8.6 1.1.1.3.2.5.3.8-.1.2-.1.5-.2.8-.1.1-.3.3-.4.5l-.6.6c-1 .8-2.2 1.2-3.3 1.8-.3.2-.6.3-1 .4-.4.1-.8.3-1.2.4l-1.8.7c-.5.2-1.1.4-1.6.6-.3.1-.6.3-.9.4-.2.1-.5.2-.7.3-.7.3-1.5.5-2.2.8-.4.2-.7.4-1.1.5l-2.7 1.5c-.2.1-.3.3-.4.3-.3.2-.5.4-.8.6-.9.7-1.3 1.8-1.9 2.7-.3.5-.2 1.1-.3 1.7 0 .6.1 1.1.4 1.4.3.7.4 1.4.7 1.8.6.7 1.1 1.4 1.6 2.1h.3l-.1.1c.2.2.4.5.5.6l.3.6c.3.4.7.8 1 1.2.1.1.2.2.3.4l1 1.3.9 1 .1-.1c0 .2.1.3.1.5.4.4.9.7 1.3 1.1.3.4.7.5 1.1.6v-.2c-.3-.3-.6-.7-.9-1-.2-.2-.4-.3-.5-.5-.3-.5-.5-1.1-.8-1.6-.2-.3-.2-.8-.2-1.1 0-.3.2-.6.3-.9.4-.9.8-1.8 1.7-2.4.1.1.2.3.3.4.2.3.4.7.7 1 .4.3.7.6.9 1 .2.4.6.8.9 1.2.3 0 .4.4.5.6.2.2.3.5.5.7l.6.8c0 .1.1.3.1.3l.9.9c.1.1.3.3.4.5.1.1.2.2.2.3.2.5.6.8 1.1 1.1.1.1.2.1.4.2.2.2.4.3.6.5l.8.7c.2.2.5.4.8.5.3.1.6.2 1.1.3.3.3.9.1 1.4.4.1-.1.3-.1.4-.2 1.4.3 3.6-.6 3.9-1.9 0 .1.2-.3.5-.7zm-5.2-54.8c.3.1.7 0 1.1.1.2 0 .4.1.6.2h.6l.3.3c.6-.2 1 .3 1.6.4-.3 1.1-.5 2.2-1 3.1-.1.3-.3.6-.5.9v.3c-.7 1.3-1.4 2.6-1.3 4.1-.1.2-.3.4-.3.7-.1.3 0 .6-.1.9-.2.5-.1 1.1-.1 1.7 0 .3 0 .6-.1.9 0 .1-.1.2-.3.3-.2-.5-.4-.9-.6-1.3-.6-.1-.9-.5-1.3-.9-.7-.8-1.2-1.8-1.9-2.6-.1-.1-.1-.2-.2-.2-.5-.3-.6-.8-.9-1.2-.2-.3-.4-.5-.6-.8-.1-.2-.3-.4-.4-.6-.2-.3-.4-.5-.6-.8-.5-.6-.8-1.4-.9-2.1 0-.4.2-.9.3-1.3.1-.5.6-.6 1-.9.6-.4 1.4-.5 2.1-.7.7-.2 1.4-.2 2.1-.2.1 0 .2.1.3.1.2-.5.6-.6 1.1-.4zm-1.3 44.3c-.6 1.3-1.1 2.6-2 3.8-.6.7-1.3 1.2-2.3 1.2-.4 0-.8.1-1.1 0-.4 0-.7-.2-1-.3-.2-.1-.4-.3-.7-.4h-.4l-.3-.3v-.4c-.1 0-.2.1-.3.1-.4-.7-1.2-1.1-1.4-1.9.1-.2.1-.4.2-.7 1-.6 2.1-1.2 3.2-1.6.9-.3 1.7-.7 2.5-1.1.5-.2 1-.4 1.6-.6.6-.2 1.2-.5 1.9-.7.2-.1.4-.2.7-.3 0 1.1-.2 2.2-.6 3.2z" id="path600"/><path d="M190.3 124.1c.2 0 .3-.1.6-.2 0 .3.1.6.1.9 0 .5 0 1.1-.1 1.7 0 .2-.1.5-.1.7 0 .4 0 .8.1 1.2.1.4.2.8.3 1.1-.1.4-.1.7.1 1 .2.3.3.7.4 1.1.1.2.2.4.2.6.1.2.1.4.1.6.3.5.7 1.1 1.1 1.6.3.4.7.7 1 1.1.3.4.7.7 1.2 1 .5.3 1 .7 1.5 1 .6.3 1.3.5 1.9.9.5.3 1.1.4 1.7.7h.1c1.2.3 2.3.5 3.5.8.3.1.7.1 1 .2.6.1 1.1.2 1.7.3.3 0 .5.1.8.1 1 .1 1.9.2 2.9.3.9.1 1.8.2 2.7.2.3 0 .6.1.9.2.6.1 1.1.2 1.7.3 1.3.2 2.5.4 3.8.6l1.8.3c.2 0 .5.1.7.1.4.1.7.1 1.1.1.9.1 1.8.3 2.7.5.9.2 1.8.4 2.8.5.9.2 1.9.4 2.8.5.5 0 .9.2 1.4.3.4.1.8 0 1.3.1s.9.2 1.4.2c.2 0 .5.1.7.1.6.1 1.1.2 1.7.3h.4l1.2-1.5c.3-.3.4-.7.7-1 .6-.6 1.1-1.4 2-1.7.2-.4.5-.6.9-.8l.4-.4c.3-.3.7-.6 1-.9.4-.3.7-.7 1-1 .3-.3.6-.7 1-1 .5-.5 1-1 1.6-1.5.2-.1.4-.2.6-.4.1-.1.2-.3.4-.4.1-.1.3-.2.4-.3l.4-.4c.2-.2.4-.5.6-.7.4-.5.7-.9 1-1.4.3-.5.6-1 .8-1.6.1-.3.2-.7.3-1v-.3c0-.3 0-.6.1-1 .2 0 .3.1.5.1 0 .4.1.7.1 1.1v2h.1c-.1.2-.1.4-.2.7h.3c-.1.4-.2.7-.2 1v2.8c0 .4-.1.8-.1 1.2v1.1c0 .5.2 1-.1 1.4 0 .1 0 .3.1.5-.1.4-.2.9-.2 1.3 0 .2-.1.3-.2.5-.4.7-.9 1.4-1.3 2.1-.4.8-1.2 1.4-1.8 2l-.9.9c-.3.3-.6.7-.9 1.1v.2c.5.1.9.5 1.3.8.4.3.7.5 1.1.8l.6.6c.1.1.2.2.4.3l1.2 1.8c.4.6.5 1.2.7 1.9.2.7.3 1.3.4 1.9.1.4.2.8.2 1.2 0 .2-.1.3-.1.5.2.6.2 1.2.4 1.9v.7c.3.9.3 1.7.4 2.6 0 .5.1 1 .2 1.5s.2.9.2 1.4v.6c0 .3.1.6.2.9 0 .1-.1.3-.2.5-.6-.6-.6-1.2-.9-1.8.2-.2.2-.3.1-.6-.2-.3-.2-.7-.3-1.1-.1-.2-.3-.4-.5-.7-.1-.2 0-.4-.3-.5 0 0 0-.1-.1-.1-.2-.4-.3-.8-.5-1.2-.1-.2-.3-.5-.4-.6-.3-.4-.7-.7-1.1-1.1-.4-.3-.9-.6-1.3-.9-.1-.1-.3-.1-.3-.1-.2-.2-.4-.4-.6-.5-.5-.2-.9-.4-1.4-.6-.3-.1-.5-.2-.8-.3-.5-.2-1-.4-1.5-.5-.5-.2-1.1-.3-1.6-.4-.3-.1-.7-.1-1-.2-.6-.1-1.3-.2-1.9-.2h-.6c-.2.7-.8 1.1-1.3 1.5-.5.8-.9 1.6-1.6 2.3-.1.1-.3.3-.4.5-.3.5-.7 1-1.2 1.5-.1.1-.1.2-.2.3l-.9 1.3c-.1.2-.2.3-.2.5-.3.6-.7 1.2-.7 2v.6c0 .4.1.7 0 1.1.1.7.2 1.4.4 2.2-.2 0-.3 0-.4-.1-.1-.3-.3-.5-.3-.8l.1-.1c-.3-.5-.2-1.1-.4-1.6h.1l-.2-.2v-.4h-.1c-.1-.6-.3-1.2-.4-1.8-.1-.3-.2-.7-.2-1v-.5c-.5-.9-.6-1.9-.7-2.9-.1-.3-.2-.5-.2-.8-.1-.7-.1-1.4-.1-2.1 0-.4.1-.8.1-1.2v-1.1c.1-.4.1-.6-.2-.9-1.3-.1-2.7-.2-4.1-.7l-.2-.2c-.2.3-.4.2-.6.1-.2-.1-.4-.3-.6-.4 0 .1 0 .2-.1.3-2.2-.3-4.4-.6-6.5-.9v-.2c-.3.2-.7.2-1 0-.2-.1-.5 0-.7-.1-1.4-.2-2.9-.3-4.3-.5-.8-.1-1.6-.1-2.4-.2-.9-.1-1.8-.2-2.8-.3-.4-.1-.9-.2-1.3-.3l-.6-.1c-.1 0-.1-.1-.2-.1-.8 0-1.5-.3-2.2-.4-.8-.2-1.6-.3-2.4-.6-.2-.1-.4-.2-.6-.2-.8-.3-1.6-.4-2.4-.9-.6-.4-1.2-.6-1.8-1-.2-.1-.3-.3-.5-.5-.4 0-2.4-2-2.5-2.5-.2-.2-.5-.3-.5-.5-.4-.9-1-1.7-1.1-2.7-.5-.5-.2-1.3-.5-1.9-.1-.3-.2-.7-.4-1.2 0-.4-.1-1-.1-1.5v-.4c0-.1.1-.2 0-.2-.2-.7.1-1.5-.1-2.2v-.4c.2-.5.1-1.1.1-1.6-.1-.8 0-1.6 0-2.4 0-.6-.1-1.2 0-1.8 0-.7.1-1.3.1-2v-.7c0-.2 0-.5.1-.7-.5 0-.4-.3-.4-.6z" id="path602"/><path d="M202.7 173.4c-.2.5-.5 1-.6 1.6 0 .5.2 1.1.1 1.7-.1 0-.2 0-.4.1-.1-.2-.2-.4-.2-.6 0-.5 0-.9-.2-1.3s-.2-.9-.3-1.4c0-.2 0-.4.1-.7-.3-.6-.3-.6-.2-1-.1-.2-.2-.3-.2-.4.1-.3 0-.6-.1-.9-.1-.4-.2-.7-.1-1.1 0-.1-.1-.3-.1-.5 0-.1-.1-.2-.1-.3-.1-.4 0-.9-.2-1.3-.2-.8-.1-1.6-.3-2.2.2-1.3.5-2.6 1.7-3.3.2-.2.3-.4.6-.5.3-.2.7-.3 1-.4.5-.2 1-.3 1.5-.4.7-.1 1.4-.1 2-.1h1.8c.7 0 1.4.1 2 .1h1.8c1.1.1 2.2.3 3.3.4h.6c.2 0 .4.1.6.1h.5c.6.1 1.1.1 1.7.2.3 0 .7.1 1 .1h1.3c1 0 1.9 0 2.9-.2 1.1-.1 2-.7 2.6-1.7.2-.3.2-.7.1-1-.1-.5-.2-1-.1-1.5.1-.4-.1-.7-.1-1.1 0-.3 0-.7.2-1h.3c0 .1 0 .1.1.1.1.5.3 1 .4 1.5.1.3.1.6.2 1 0 .2.1.4.1.6 0 .1.1.3.1.4v1.5c0 .3 0 .6.1.9l.3.3c-.1.1-.2.1-.3.2.1.5-.1 1.1.2 1.5 0 .3 0 .6-.1.9v1.1c0 .2.1.4.1.7v.5c0 .6.1 1.2.2 1.8v.9c.1.2 0 .5 0 .9-.1.9-.7 1.4-1.4 1.9-.3.2-.7.4-1.1.5-.9.2-1.7.3-2.6.4-.9.1-1.7.1-2.6 0-.8 0-1.6-.2-2.4-.3-.6-.1-1.2-.1-1.8-.1h-1.1c.1.4.2.7.3 1 .1.5.2 1 .3 1.4.2.5.1 1.1.3 1.6.2.5.2 1.1.3 1.7 0 .3.1.5.1.8.1.1.2.2.3.4 0 .1-.1.2-.1.3.1.6.1 1.2.2 1.8.1.3.2.6.2.9v.4c.1.4.2.9.3 1.3.2.8.1 1.5.1 2.2l.1.7h-.1c-.1.4-.3.8-.4 1.2-.1.7-.5 1.2-1 1.6-.5.4-.8.9-1.5 1.2-.5.2-.9.3-1.4.5l-.9.3v-.3h-.6v.1c.2 0 .3.1.5.1-.4.4-2.8.4-3.5.2-.1.1-.2.1-.3.2 0-.1-.1-.1-.1-.2l-.2.2-.1-.1c-.7 0-1.5.1-2.2.1-.8 0-1.7.1-2.5.1s-1.6.1-2.4.2c-.7.1-1.5.1-2.2.2-.7.1-1.4 0-2.1.3h-.4c-.3.1-.6.2-.9.4-.9.3-1.6.8-2.2 1.6-.1.2-.3.2-.5.4-.1.5-.2 1-.2 1.6 0 .5.1 1.1.2 1.7-.2-.2-.3-.3-.5-.4-.1-.4-.3-.9-.4-1.3-.1-.5-.4-.9-.2-1.3-.1-.2-.2-.4-.2-.6-.3-.3-.3-.8-.5-1.2-.2-.7-.5-1.3-.7-2-.1-.2-.1-.3-.2-.5.1-.1.1-.2.1-.2-.2-.5-.4-1-.7-1.5 0-.2-.1-.6-.1-.9 0-.3-.1-.6-.2-1 .1-.1.2-.2.3-.4h-.4c.2-.3 0-.6.2-.8v-.2c-.2-.4 0-.7.1-1 0-.1.1-.2.2-.4 0 0 .1-.1.2-.1 0-.1.1-.2.1-.3 1.1-.9 2.1-1.8 3.5-2 0 0 0 .1.1.1.6-.3 1.2-.3 1.9-.4 1-.2 2.1-.1 3.3-.2.7 0 1.5-.1 2.3-.1.7 0 1.4 0 2.1-.1h1.2c.2 0 .3-.1.5-.1h4c.4 0 .8-.1 1.2-.2.7-.2 1.4-.3 2-.7.6-.3 1.2-.6 1.6-1.2.2-.2.5-.4.6-.6.2-.3.3-.7.4-1h.1v-.5c.1-.3.3-.6.4-.9-.3-.2-.2-.5-.2-.8 0-.5-.2-1-.4-1.4 0-.1.1-.3.1-.4h-.1c-.1-.4-.2-.7-.3-1.1-1 0-2-.1-2.9-.1-.9 0-1.9.1-2.9-.1-.2 0-.4 0-.7.1h-1.8c-.3.1-.7.2-1.1.3-.3.1-.7.2-1 .3-.4.2-.8.5-1.1.7.1-.6 0-.4-.2-.2z" id="path604"/><path d="M186.6 202.8l-1.8.3c-.5.1-1.1.2-1.5.6-.1.1-.3.2-.4.3 0 .1 0 .2.1.3l-.3.3c0-.1-.1-.1-.1-.2-.3.6-.3 1.2-.3 1.7s-.1 1-.1 1.6c0 .3-.1.6 0 .8.1.4.2.9.3 1.3.3.8.6 1.6.8 2.5.1.3.3.5.4.8.2.7.7 1.2.8 1.9 0 .1.1.3.2.4.5.5.6 1.2.9 1.8.3.5.4 1.1.7 1.6.5 1 1 2 1.5 2.9.2.4.3.7.5 1.1.3.5.6 1.1.9 1.6.3.6.6 1.1 1 1.6.2.3.4.7.5 1.1.3.6.8 1.1.9 1.8.1 0 .2 0 .3.1 0 .3 0 .5.1.8.1.3.1.6.3.8.4.4.6.8.9 1.3.1.1.2.3.3.4.4.3.6.7.7 1.2.6.4.9 1 1.1 1.5l.7.7c0 .2.1.4.2.5.3.6.7 1.1 1 1.7.1.1.1.3.2.4.3.2.4.5.5.8.1 0 .2.1.3.1.1.1.1.2.2.3.1 0 .2-.1.4-.1-.1-.3-.1-.7-.2-.9 0-.2.1-.3.1-.4.2-.7.3-1.3.5-2 .1-.4.2-.9.3-1.3.1-.3 0-.6.2-.8.2-.2.2-.5.2-.8 0-1 .4-1.9.6-2.8 0-.2.1-.3.1-.5 0-.1.1-.3.1-.4.1-.5.3-1.1.5-1.6s.3-1.1.5-1.6c.1-.3.1-.6.2-.8.1-.3.3-.5.4-.8-.1-.1-.1-.2-.2-.3.3 0 .4-.3.4-.4l.3-1.8c.3-1 .6-2 .9-2.9.1-.2.2-.3.2-.5.2-.6.4-1.2.8-1.8.1-.1.1-.3.2-.5s.3-.4.4-.6c.1-.3.3-.6.4-1 .1-.2.1-.5.3-.6.3-.5.6-1.1.7-1.7.2-.6.4-1.2.6-1.7.2-.5.3-1 .6-1.4.3-.5.4-1 .3-1.6.3-.5.2-1 .2-1.4-.3-.6-.5-1.1-.7-1.6-.2-.5-.3-1-.4-1.5-.1-.2-.2-.5-.3-.7-.1-.2-.2-.3-.1-.5v-.3c-.2-.5-.4-1-.6-1.4 0-.1-.1-.1-.1-.2s.1-.3.1-.4c-.1-.1-.1-.2-.2-.3-.1-.1-.2-.1-.2-.2h.1c-.4-1.2-.4-2.4-1.3-3.5-.1.1-.2.1-.4.2.1.4.1.8.2 1.2-.3.4-.6.9-.9 1.4-.1.2-.3.3-.4.4-.3.3-.7.6-1.1.6-.3.2-.4.3-.6.4-.6.3-1.1.7-1.8.8-.4.1-.9.2-1.3.3-.3.1-.5.2-.8.2-.4 0-.7 0-1.1.1-.2 0-.3.1-.5.2-.2 0-.3-.1-.5-.1-.1 0-.2.1-.3.1-.9.1-1.8.2-2.6.3-.3 0-.6.1-1 .1s-.7.1-1.1.1c-.6.1-1.2.1-2 .2-.7.1-1.3.3-1.9.4zm4.3 23.1c0-.4-.5-.7-.7-1.1 0-.3-.1-.6-.4-.9-.1-.1-.1-.3-.2-.4-.4-.7-.8-1.4-1.1-2.1-.1-.1-.1-.2-.2-.4-.1 0-.2-.1-.2-.1-.1-.4-.3-.6-.4-.9-.1-.6-.4-1.1-.6-1.6-.3-.9-.6-1.8-.4-2.7.1-.5.1-.9.5-1.4.9-.6 2-.6 3.1-1v-.4h.1c0 .1.1.2.1.4.3-.1.6-.1.9-.2.2 0 .3.1.4.1.3-.1.7-.2 1-.3h.9c0-.2.1-.3.1-.4l.2-.1v.1l-.2.2c0 .1 0 .1.1.2.6 0 1.1-.1 1.7-.2.5-.1 1.1.1 1.6-.4.2.5.1.9-.1 1.4-.1.4-.3.7-.4 1.1v.3c-.3.2-.8 1.6-.8 1.9-.3.8-.7 1.3-.7 2-.1.3-.3.6-.4.9 0 .2 0 .3-.1.5 0 .1.1.1.2.2-.1 0-.2.1-.3.1l-.3 1.2s.1 0 .2.1c-.3 0-.4.2-.4.4-.1.6-.2 1.2-.4 1.7-.1.4-.3.8-.4 1.3-.2.5-.2.9-.3 1.4-.1.3-.2.6-.2.9v.1c-.1.2-.2.4-.4.6-.6-.9-1-1.6-1.5-2.5z" id="path606"/><path d="M222.7 127.6c-.1-.8-.1-1.6-.2-2.5 0-.4 0-.7-.1-1.1-.1-.5-.1-1 .2-1.5.1 0 .2 0 .3-.1.4.8.1 1.8.5 2.7.4.2 1 .3 1.5.3 1.2.1 2.4.1 3.6.2.9 0 1.7.1 2.6.1.8.1 1.5.4 2 1.1.5.6.7 1.4.7 2.1v1.9c0 .5 0 1-.1 1.5-.1.3 0 .6 0 .9 0 .9.1 1.8.1 2.7 0 .9 0 1.8-.1 2.7 0 .2-.1.4-.2.6-.4-.2-.3-.5-.3-.8-.4-1.1-1.3-1.3-2.1-1.5h-1.7c-.5 0-1 0-1.6-.1-.2 0-.3-.1-.5-.1 0 0-.1.1-.2.1-1.1-.2-2.3-.1-3.4-.6-.1-.1-.1-.3-.3-.4-.1 0-.2-.3-.2-.5v-.6c0-.2-.1-.4-.1-.6 0-.2-.1-.5-.1-.8.1-.3.1-.6-.1-.9.1-.6.2-1.2-.1-1.7v-1.8c0-.4-.2-.7-.1-1.1v-.2z" id="path608"/></g></g><g id="g626"><g id="g624"><path d="M261.6 132.2c.5-.2 1-.5 1.6-.6.7-.2 1.2-.5 1.7-.8.8-.4 1.2-1.2 1.8-1.8l.9-1.2.9-1.2c.1-.2.2-.3.3-.5.4-.5.7-1.1.8-1.8.1-.5-.1-1 .1-1.4.1-.2.1-.4.1-.6.1-1 .3-1.9.5-2.9.6.2 1.1.4 1.7.5.6.1 1.2.4 1.8.1h.2c.4.2.8 0 1.1-.3.4-.4.9-.7 1.3-1.1.2-.2.4-.5.5-.8.2-1 .6-1.9.7-2.9.1-.7.2-1.3.4-2 0-.2.1-.4.1-.6.1-.3.1-.5.2-.8 0-.1 0-.2.1-.2.2-.7.4-1.5.5-2.2v-.1c.1-.4.1-.9.2-1.3.2-.6.2-1.2.3-1.8v-1.1c.7.4 1.4.9 2.1 1.3 1 .9 1.7 2.1 2.4 3.4.1.4.1 1 .4 1.4-.2.9-.2 1.9-.1 3 .4-.8.6-1.6.7-2.4 0 .2.1.4.1.6-.2 1-.1 1.5.3 1.7.2-.6.3-1.1.5-1.7.1-.6.5-.9 1-1.1l.5-.5c.1-.1.3-.2.3-.4.1-.3.3-.5.6-.7.4-.3.8-.7 1.2-1 .3-.3.7-.6 1-.9.5-.4 1.1-.6 1.7-.9 1-.5 2.1-.8 3.1-1.4.3-.2.6-.3.8-.5.2-.1.5-.3.7-.4l.6-.3.7-.7c.2-.2.5-.4.7-.6.2-.2.3-.5.5-.8.1-.2.2-.4.4-.7.3-.6.8-1.2.8-1.9 0-.1.1-.2.1-.2.3-.6.5-1.3.6-2 .1-.2.2-.4.2-.6 0-.4.2-.7.3-1 .1-.1.1-.2.1-.4.1-.9.4-1.8.8-2.7.1-.1 0-.3.1-.4.1-.3.3-.5.3-.7.2-.7.4-1.3.5-2 .1-.3.1-.7.2-1 .1-.5.1-1.1.2-1.6.1-.4.1-.8.1-1.3 0-.6-.3-1-.4-1.5l-.3-.9c-.3-.5-.4-1.1-.9-1.6-.1-.1-.1-.3-.2-.5-.5-.6-1-1.1-1.5-1.6-.3-.3-.6-.6-.9-1-.3-.3-.7-.6-1-.8-.5-.4-1.1-.7-1.7-1.1-.2-.1-.4-.1-.6-.3-.8-.5-1.7-.4-2.5-.2-.6.1-1.1.6-1.6 1-.2.1-.4.3-.6.5-.1.3-.3.6-.5.9-.2.3-.4.5-.4.8 0 .1-.1.2-.2.2 0 .4-.1.7-.2 1-.2.4-.4.7-.4 1.2 0 .1 0 .2-.1.3-.1.3-.3.6-.4.9-.1.2-.1.5-.2.7-.1.4-.2.7-.3 1.1-.2.6-.3 1.2-.5 1.8l-.6 2.1-.6 2.1c-.1.3-.1.7-.2 1-.2.8-.4 1.6-.5 2.4-.1.4-.2.8-.2 1.2 0 .2-.1.4-.1.6 0 .3 0 .6-.1.9 0 .3 0 .7-.3.9-.1-.1-.2-.2-.2-.3-.2-.5-.4-.8-.8-1.2-.4-.4-.8-.8-1.2-1.1-.7-.5-1.4-.8-2-1.3-.6-.5-1.4-.6-2.1-1-.3-.2-.7-.2-1-.4-1-.5-2-1-2.9-1.4-.1 0-.2 0-.3-.1-.4-.2-.9-.3-1.3-.5-.8-.4-1.5-.8-2.3-1.1-.8-.3-1.6-.6-2.3-.9-1.4-.7-2.9-1.2-4.2-1.9-.7-.4-1.3-.7-2-1-.9-.4-1.7-.8-2.6-1.2-1-.5-2.1-.9-3.1-1.3-.3-.1-.7-.3-1-.5-.3-.2-.5-.3-.8-.5-.7-.5-1.5-.8-2.1-1.4-.9-.7-1.7-1.5-2.3-2.5-.3-.5-.3-1-.6-1.5v-.1c.1-.5.2-1.1.3-1.6.1-.6.3-1.2.4-1.8.1 0 .2-.1.2-.1.1-.4.2-.8.2-1.2 0-.1-.1-.3-.1-.5-.2-.1-.4 0-.5.2-.1.3-.3.5-.4.8-.1.2-.1.5-.2.7-.1.3-.3.6-.4.9-.1.3-.1.6-.2.8-.2.6-.3 1.2-.5 1.8-.2.7-.2 1.4-.6 2.1-.1.1-.1.2-.1.4l-.3 1.5c-.1.4-.3.7-.4 1.1-.2.6-.3 1.3-.5 1.9-.3 1-.4 2.1-.2 3.1.1.7.2 1.5.3 2.2.5.5.9 1.1 1.4 1.6 0 .1.1.3.1.3.5.4.9.8 1.3 1.1.6.4 1.2.7 1.8 1.1.4.2.7.5 1.2.7.9.4 1.9.8 2.9 1.2 1.2.5 2.4 1 3.5 1.5l1.5.7c.7.3 1.4.6 2 .9l1.5.6c.2.1.4.1.6.2 0 0 .1.1.2.1.7.3 1.3.5 2 .8.5.2 1.1.4 1.7.6.8.3 1.5.7 2.3 1 .4.2.7.3 1.1.5.3.1.5.2.8.3l1.8.8c.2.1.5.3.7.5l2.1.9c-.1.6-.1 1.1-.1 1.8-.3.2-.1.6-.1 1-.4.3-.4.8-.3 1.2-.1.2-.2.5-.3.7-.2.1-.5.3-.7.4h-1.5c-1.2-.1-2.4-.7-3.6-1.1-.3-.1-.7-.2-1-.4l-1.2-.6-1.8-.8c-.5-.2-1-.5-1.5-.7-.3-.1-.7-.3-1-.4-.2-.1-.5-.2-.7-.3-.7-.3-1.4-.7-2.1-1-.4-.2-.8-.3-1.2-.4-1-.3-2-.6-2.9-.8h-.5c-.3 0-.6-.1-1-.2-1.1-.1-2.2.3-3.3.6-.6.1-.9.6-1.3 1s-.7.9-.7 1.2c-.3.7-.7 1.2-.7 1.8-.1.9-.3 1.7-.4 2.6l.2.2h-.1c0 .3-.1.6-.1.8-.1.2-.2.4-.2.6-.1.5-.1 1.1-.1 1.6 0 .2 0 .3-.1.5l-.2 1.6-.1 1.3h.1c-.1.1-.2.3-.3.4.1.6.2 1.1.1 1.7-.1.5.1.8.3 1.2l.1-.1c0-.4.1-.9.1-1.4 0-.2 0-.5.1-.7.2-.6.4-1.1.6-1.7.1-.3.4-.7.7-.9.2-.2.6-.3.8-.5.9-.4 1.9-.7 2.9-.5 0 .1 0 .3-.1.5-.1.4-.2.8-.2 1.1 0 .5.1.9-.1 1.4-.1.5-.2 1-.2 1.5.2.2 0 .5-.1.8 0 .3-.1.6-.1.9l-.1 1c-.1.1-.1.3-.2.3v1.3c0 .2 0 .4-.1.6v.4c-.2.5-.1 1 0 1.5 0 .1.1.3.1.4 0 .3 0 .5.1.7l.1 1.1c0 .3.1.6.2.9.1.3.3.6.5 1 0 .4.6.7.7 1.3.2.1.3.1.4.1.8 1.2 3 2.1 4 1.4.6.6 1.1.4 1.5.3zm35.1-42.4c.1.3.5.5.7.8l.3.6.4.4c0 .1 0 .3-.1.4.6.3.5.9.9 1.4-1 .6-1.9 1.2-2.9 1.5-.3.1-.6.2-1 .3l-.2.2c-1.4.4-2.8.9-3.8 2-.2.1-.5.1-.7.2-.3.2-.5.4-.7.5-.5.2-.8.7-1.3 1.1-.2.2-.4.4-.7.6-.1.1-.2 0-.4 0 .2-.5.3-.9.5-1.4-.3-.5-.3-1-.3-1.5.1-1.1.4-2.1.6-3.1 0-.1.1-.2 0-.3-.1-.5.1-1 .2-1.6.1-.3.1-.7.1-1 0-.2.1-.5.1-.7 0-.3.1-.7.1-1 .1-.8.4-1.6.9-2.2.3-.3.7-.5 1.1-.7.5-.3.9 0 1.3.1.8.1 1.3.6 2 1 .6.3 1.1.9 1.6 1.3.1.1.1.2.2.3.5.1.9.3 1.1.8zm-32.3 30.4c-.7.3-1.3.6-2 .8-.7.2-1.4.4-2.1.4-.9.1-1.8-.1-2.4-.8-.3-.3-.6-.5-.8-.8-.2-.3-.4-.6-.5-.9-.1-.2-.1-.5-.2-.7 0-.1-.1-.2-.2-.3v-.4l.3-.3c-.1-.1-.2-.1-.3-.2.2-.8-.1-1.6.3-2.3.2-.1.4-.2.7-.3 1.1.3 2.3.6 3.4 1.2.8.4 1.7.7 2.6 1 .5.2 1 .5 1.5.7.6.3 1.2.5 1.8.8.2.1.4.2.7.3-.8.8-1.7 1.4-2.8 1.8z" id="path614"/><path d="M380.3 11c.1.1.3.2.5.3-.2.3-.4.5-.6.7-.4.4-.8.7-1.2 1.1-.2.2-.4.2-.6.4-.3.3-.6.6-.8.9-.2.3-.4.7-.6 1-.4.2-.5.4-.6.8-.1.4-.3.7-.5 1.1-.1.2-.2.4-.2.6-.1.2-.2.3-.3.5-.1.6-.3 1.3-.4 1.9-.1.5 0 1-.1 1.5s0 1 .2 1.5c.1.6.2 1.2.4 1.8.2.7.6 1.3.8 2 .2.6.5 1.1.7 1.6 0 0 0 .1.1.1.6 1 1.3 2 1.9 3 .2.3.4.5.6.8.3.5.6.9 1 1.4.2.2.3.4.5.6.6.8 1.2 1.5 1.8 2.3.6.7 1.1 1.4 1.7 2.1.2.2.3.5.5.7.3.5.7.9 1 1.4.7 1 1.5 2.1 2.2 3.1.4.5.7 1 1.1 1.4.1.2.3.4.4.6.2.3.4.6.6.8.6.7 1.1 1.5 1.6 2.3.5.8 1 1.5 1.6 2.3.5.8 1.1 1.6 1.7 2.3.3.4.5.8.8 1.1.2.3.6.6.8.9.3.4.5.8.8 1.2.1.2.3.4.4.6.3.5.7.9 1 1.4l.3.3c.6-.1 1.2-.1 1.9-.2.4-.1.8-.2 1.2-.2.9 0 1.8-.2 2.6.2.4-.2.8-.1 1.2.1h.5c.4 0 .9.1 1.3.1h5c.2 0 .4.1.7.1.2 0 .4-.1.6 0 .1.1.3.1.5.1h1.6c.6-.1 1.2-.1 1.7-.2.6-.1 1.1-.3 1.7-.6.3-.2.6-.4.9-.5l.2-.2c.2-.2.5-.4.8-.7.1.2.2.3.3.4-.2.3-.5.6-.7.8L420 60l-.6.3.2.2c-.3.2-.6.4-.9.5l-.5.5-1.5 1.5c-.3.3-.6.5-.9.8-.3.2-.5.5-.8.8-.3.3-.6.8-1.1 1-.1 0-.2.2-.3.4-.3.2-.7.5-1.1.8-.1.1-.3.1-.5.2-.8.3-1.6.3-2.4.5-.9.3-1.8.2-2.7.1-.4 0-.8 0-1.3.1-.5 0-.9.1-1.4.1 0 0-.1.1-.1.2.3.5.3.9.4 1.4.1.4.1.9.2 1.3v.9c0 .2 0 .3.1.5-.1.7-.3 1.4-.4 2.1-.2.7-.5 1.3-.8 1.9-.3.6-.7 1.1-1.1 1.7-.2.4-.5.7-.7 1-.2.1-.3.2-.4.3-.3.6-.7 1-1.1 1.5-.1.1-.2.1-.2.2-.1.1-.2.1-.3.3-.4.8-1 1.4-1.6 2.1l-.9 1.2c-.3.4-.6.8-.8 1.1-.1.1-.3.2-.4.4-.2.2-.3.5-.5.8-.1.1-.3.1-.5.2 0-.8.4-1.3.6-1.9.2 0 .4-.1.5-.4.1-.4.3-.7.6-1.1 0-.2 0-.5.1-.8.1-.2.3-.3.2-.6V82c.2-.4.4-.8.5-1.2.1-.2.1-.5.1-.8v-1.5c0-.5-.2-1-.3-1.6 0-.1-.1-.2-.2-.3 0-.3 0-.5-.1-.8-.2-.5-.4-1-.6-1.4-.1-.3-.2-.5-.3-.8-.2-.5-.4-.9-.7-1.4-.3-.5-.5-1-.8-1.4l-.6-.9-1.2-1.5c-.1-.2-.3-.3-.4-.4-.7.3-1.3.2-1.9.2-.9.3-1.8.5-2.7.4-.2 0-.4 0-.6.1-.6.1-1.2.2-1.9.2-.1 0-.2.1-.3.1l-1.6.2c-.2 0-.4.1-.5.2-.7.3-1.4.4-1.9.9-.2.1-.3.3-.4.5-.2.3-.4.6-.7.8-.4.6-.9 1.2-1.3 1.9-.1-.1-.2-.2-.2-.3.1-.3.2-.6.3-.8h.1c.2-.6.6-.9.9-1.4h.1v-.3c.1-.1.2-.2.3-.2l-.1-.1c.3-.5.6-1 1-1.6l.6-.9c.1-.2.3-.3.4-.4.3-1 .9-1.8 1.5-2.5.1-.2.2-.5.4-.7.4-.5.9-1.1 1.3-1.6.3-.3.6-.5.9-.8l.3-.3.4-.4c.4-.1.5-.4.5-.8-.9-1.1-1.7-2.2-2.4-3.4v-.3c-.3.1-.5-.1-.5-.3-.1-.2-.1-.4-.1-.7-.1.1-.2.1-.3.2-1.3-1.7-2.7-3.5-4-5.2.1-.1.1-.1.1-.2-.4-.1-.6-.3-.8-.7-.1-.2-.3-.4-.5-.5-.9-1.1-1.8-2.3-2.7-3.4l-1.5-1.8c-.6-.7-1.2-1.4-1.7-2.2-.3-.4-.5-.8-.7-1.1l-.4-.5c0-.1-.1-.1-.1-.2-.6-.5-.9-1.3-1.3-1.9-.5-.7-.9-1.4-1.3-2.2-.1-.2-.2-.4-.2-.6-.4-.8-.8-1.5-1-2.3-.2-.7-.4-1.3-.6-2-.1-.2 0-.4-.1-.7-.3-.2-.3-3.1 0-3.5 0-.3-.1-.5 0-.7.3-.9.5-1.8 1.1-2.7.1-.7.8-1.1 1.1-1.7.1-.3.3-.7.6-1.1.3-.3.6-.8 1-1.2l.3-.3c.1-.1.2-.1.2-.1.3-.6 1.1-1 1.5-1.6l.3-.3c.5-.3.8-.7 1.2-1.1.5-.6 1.1-1.2 1.7-1.7.5-.4.8-.9 1.2-1.3.5-.5 1-.9 1.5-1.4.2-.2.3-.4.5-.5.2-.2.4-.3.6-.5-.4.7-.1.5.2.3z" id="path616"/><path d="M354.1 54.6c-.5.2-1.1.3-1.5.7-.4.4-.6.9-1.1 1.3-.1-.1-.2-.1-.3-.2.1-.2.1-.5.3-.6.3-.4.6-.7.8-1.1.2-.4.5-.8.8-1.2.1-.2.3-.3.5-.5.2-.6.2-.6.6-.8.1-.2.1-.4.2-.4.3-.2.4-.5.6-.7.2-.3.4-.6.7-.9.1-.1.2-.3.2-.4 0-.1.1-.2.1-.2.3-.4.6-.7.8-1.1.4-.7 1-1.2 1.4-1.8 1.1-.8 2.2-1.4 3.5-1h.7c.3.1.7.3 1 .4.5.2.9.5 1.4.8.5.4 1 .9 1.5 1.3.4.4.8.9 1.3 1.3.5.5.9 1 1.4 1.5.4.4.8.8 1.1 1.2l.2.2c.7.9 1.3 1.7 2 2.6.1.2.3.3.4.5l.3.6c.1.1.2.3.3.4l1.1 1.4c.2.3.4.5.7.8l.9.9c.7.6 1.4 1.3 2.1 1.9.9.7 1.9.9 3 .6.3-.1.6-.4.8-.6.3-.4.6-.8 1-1.1.3-.2.5-.6.7-.9.2-.3.5-.5.8-.6.1.1.1.2.2.2 0 .1 0 .1-.1.1-.3.4-.5.9-.8 1.3-.2.3-.4.5-.6.8-.1.2-.2.3-.3.5l-.3.3c-.3.3-.6.6-.8.9-.1.1-.2.2-.2.3-.2.2-.4.4-.6.7v.5c-.2 0-.3-.1-.4-.1-.3.5-.8.7-.9 1.3-.2.2-.4.4-.7.6l-.8.8c-.2.2-.3.4-.4.5-.1.1-.3.2-.4.3-.4.4-.8.9-1.1 1.3-.2.2-.4.3-.7.6-.1.2-.4.4-.6.6-.7.6-1.5.5-2.3.4-.4-.1-.8-.2-1.1-.4-.7-.5-1.4-1-2.1-1.6-.7-.6-1.3-1.2-1.9-1.8l-1.5-1.8c-.4-.5-.8-.9-1.2-1.4-.2-.3-.5-.5-.8-.8-.2.3-.3.6-.5.9-.3.4-.6.8-.8 1.2-.3.5-.7.8-.9 1.3-.2.5-.6 1-1 1.4-.2.2-.3.4-.5.6v.5c-.1.1-.2.1-.3.1-.4.5-.7 1-1.1 1.4-.2.3-.3.6-.5.8l-.3.3c-.2.4-.5.8-.7 1.2-.4.6-1 1.1-1.5 1.7l-.5.5-.1-.1c-.4.2-.8.3-1.1.5-.6.4-1.2.5-1.9.4-.6 0-1.2.1-1.9-.2-.4-.2-.9-.4-1.3-.6-.3-.1-.5-.3-.8-.4.1-.1.1-.2.2-.3l-.4-.4c.1.1.2.3.3.5-.5 0-2.3-1.6-2.5-2.3-.1 0-.2-.1-.3-.1v-.2h-.3v-.2c-.6-.5-1.1-1-1.6-1.4-.6-.6-1.3-1.1-1.9-1.7l-1.8-1.6-1.7-1.5c-.6-.5-1-1-1.7-1.4l-.3-.3c-.3-.1-.6-.3-.9-.4-.8-.4-1.7-.5-2.7-.4-.2 0-.4-.1-.6-.1-.4.3-.9.6-1.2 1-.4.4-.7.8-1 1.3 0-.2-.1-.4-.1-.7.2-.4.4-.9.7-1.3.3-.4.3-.9.7-1.1.1-.2.2-.4.2-.6 0-.4.3-.8.5-1.2.4-.6.6-1.3.9-2 .1-.2.1-.3.2-.5.1-.1.2-.1.3-.1.2-.6.4-1 .6-1.6.2-.2.3-.5.6-.7.2-.2.4-.5.6-.8h.5c-.1-.1-.1-.2-.2-.3.3-.1.4-.4.7-.4 0 0 .1-.1.1-.2.1-.4.5-.5.8-.7.1-.1.2-.1.4-.2 0 0 .1 0 .3.1.1 0 .2-.1.3-.2 1.4.1 2.8.2 3.9 1v.1c.7.2 1.1.6 1.6 1 .9.5 1.5 1.4 2.5 2.1.5.4 1.1 1 1.7 1.6.5.5 1 1 1.6 1.5l.9.9c.1.1.3.2.4.3.9.9 1.9 1.9 2.8 2.9.3.3.6.5 1 .7.6.4 1.2.8 1.9.9.6.2 1.3.4 2 .3.3 0 .6.1.9 0 .3-.1.7-.3 1-.5l.1.1c.1-.1.2-.3.3-.3.3-.1.6-.3.9-.4-.1-.4.2-.5.4-.7.4-.3.6-.8.8-1.2.1-.1.2-.1.4-.2h-.1c.2-.3.4-.6.6-1-.7-.8-1.3-1.5-2-2.2-.6-.7-1.4-1.3-2-2.1-.1-.1-.3-.3-.5-.4l-1.3-1.3c-.2-.1-.6-.4-.9-.6-.3-.2-.6-.4-.9-.4-.4-.1-.9-.2-1.3-.3-.1.2-.3.3-.6.3z" id="path618"/><path d="M321.9 64c-.5-.4-1-.7-1.5-1-.4-.3-.9-.6-1.5-.6h-.5c-.1.1-.1.2-.2.2h-.4c0-.1 0-.1.1-.2-.6.2-1 .6-1.5 1-.4.3-.8.7-1.2 1l-.6.6c-.2.4-.5.8-.7 1.2-.4.8-.8 1.5-1.2 2.3-.1.2-.2.5-.3.8-.3.6-.4 1.4-.8 1.9-.1.1-.1.3-.1.4 0 .7-.5 1.3-.6 1.9-.1.6-.5 1.1-.7 1.6-.4 1-.7 2.1-1 3.2-.1.4-.3.8-.4 1.1-.2.6-.3 1.2-.5 1.8-.2.6-.4 1.2-.5 1.8-.1.4-.3.8-.4 1.1-.2.6-.2 1.3-.6 1.9.1.1.1.2.2.3-.2.2-.4.4-.5.6-.1.2-.3.5-.3.8 0 .5-.1 1-.3 1.5 0 .2-.1.3-.1.5 0 .5-.1 1-.3 1.4.1.7 0 1.3-.2 1.8v.9c-.1.2-.2.3-.3.5-.2.6-.3 1.3-.5 1.9 0 .2-.1.3-.1.5 0 .3 0 .6-.2.9 0 .1.1.2.1.3 0 .1-.1.2-.1.3.1.1.2.1.4.2.2-.3.4-.5.5-.8.1-.1.3-.1.4-.2.6-.4 1.2-.7 1.7-1.1.4-.3.7-.5 1.1-.8.2-.2.5-.4.7-.5.3-.1.5-.2.7-.4.7-.7 1.6-1.1 2.4-1.6.1-.1.3-.2.4-.3.1-.1.3-.1.4-.2.5-.3 1-.5 1.5-.8.5-.3 1-.5 1.5-.8.3-.1.5-.3.7-.4l.9-.3v-.3c.2.2.4.1.6 0 .5-.3.9-.7 1.5-1l2.7-1.5c.2-.1.3-.1.5-.2.6-.3 1.2-.6 1.8-.7.2 0 .3-.1.5-.2s.5-.1.7-.2c.3-.1.7-.3 1-.4l.6-.3c.6-.1 1.1-.4 1.7-.7.5-.3 1.1-.5 1.7-.8.5-.2.9-.5 1.4-.6.6-.1 1-.4 1.4-.8.5-.1.9-.5 1.1-.8.2-.6.4-1.1.6-1.6.2-.5.5-.9.7-1.4.1-.2.2-.5.3-.7 0-.2.1-.4.3-.5.1 0 .1-.1.2-.2l.6-1.5v-.2c.1-.1.2-.1.3-.2v-.6h.1c.5-1.1 1.4-2 1.5-3.4-.1 0-.2-.1-.4-.1-.2.3-.4.6-.7 1-.5.1-1 .3-1.6.4h-.6c-.5 0-.9 0-1.2-.3-.3-.1-.5-.1-.7-.2-.6-.2-1.3-.3-1.9-.7-.4-.2-.8-.5-1.1-.7-.2-.1-.5-.2-.7-.4-.3-.2-.5-.5-.8-.7-.1-.1-.3-.2-.5-.2-.1-.1-.2-.3-.3-.4-.1-.1-.2-.1-.3-.2l-2.1-1.7c-.3-.2-.5-.4-.8-.6-.3-.2-.6-.5-.9-.7-.5-.4-1-.8-1.6-1.3-.1 0-.7-.2-1.2-.6zm-13.3 19.4c.3-.3.1-.8.3-1.2.2-.2.4-.5.4-.9 0-.2.1-.3.2-.4.2-.8.4-1.5.7-2.3 0-.1.1-.3.1-.4 0-.1-.1-.2-.1-.2.1-.4.2-.7.4-.9.4-.5.5-1 .7-1.5.4-.9.8-1.7 1.6-2.3.4-.3.7-.6 1.3-.6 1 .3 1.9 1 2.9 1.6.1-.1.2-.1.3-.2h.1c-.1.1-.1.2-.2.3.2.2.5.3.7.5.1.1.2.3.3.4.3.2.6.3.9.6l.6.6c.1-.1.2-.2.4-.2l.2.1v.1h-.3s-.1.1-.1.2c.4.4.9.7 1.3 1 .4.3.7.8 1.4.8-.2.5-.6.7-1 .9-.3.2-.7.3-1 .5-.1 0-.1.2-.2.3-.3-.1-1.7.5-2 .7-.7.3-1.4.4-1.9.9-.3.1-.6.2-.9.4-.1.1-.2.2-.4.3v.2c-.1 0-.2-.1-.3-.1-.3.2-.7.4-1 .7 0 0 0 .1.1.2h-.1c-.2-.2-.4-.1-.6 0-.5.3-1 .7-1.5 1l-1.2.6c-.4.2-.8.5-1.3.7-.3.2-.6.3-.8.5l-.1.1c-.2 0-.4.1-.7.1.3-1.3.6-2.1.8-3.1z" id="path620"/><path d="M400.6 36.3l1.6-1.9c.2-.3.5-.5.7-.8.3-.4.6-.8 1.2-.9.1 0 .2.1.3.2-.3.9-1.2 1.4-1.5 2.3.1.5.5.9.8 1.3.8.9 1.6 1.8 2.4 2.6.6.6 1.2 1.3 1.7 1.9.5.6.8 1.3.7 2.2-.1.8-.5 1.4-1 2-.4.5-.9.9-1.3 1.4-.4.4-.7.7-1.2 1-.2.2-.4.4-.6.7-.6.7-1.2 1.4-1.9 2-.7.6-1.3 1.3-2 1.8l-.6.3c-.1-.4.2-.6.3-.8.5-1 0-1.9-.4-2.6-.4-.5-.8-.8-1.2-1.2-.4-.4-.7-.8-1.1-1.1-.1-.1-.2-.3-.3-.5 0 0-.1 0-.2-.1-.7-.9-1.6-1.7-2-2.8 0-.2.2-.3 0-.5-.1-.1.1-.4.2-.5.1-.2.3-.3.4-.5.1-.2.2-.3.3-.5.1-.2.3-.4.5-.6.3-.1.5-.4.6-.7.5-.3.9-.7 1.1-1.2.4-.4.9-.8 1.3-1.3.2-.3.4-.6.7-.9.3 0 .5-.1.5-.3z" id="path622"/></g></g><g id="g640"><g id="g638"><path d="M424.9 67.1c.5.3 1.1.4 1.6.7.6.4 1.2.4 1.8.6.8.2 1.7 0 2.6 0 .5 0 1-.1 1.5-.2s1-.1 1.5-.2c.2 0 .4-.1.6-.1.7-.1 1.3-.3 1.8-.7.4-.3.6-.7 1.1-.9.2-.1.3-.2.5-.3.7-.7 1.6-1.2 2.4-1.7.3.5.5 1.1.8 1.6.3.5.5 1.2 1.2 1.4.1 0 .1.1.1.2.2.5.6.5 1 .6.6.1 1.1.1 1.7.1.3 0 .6-.1.9-.2.8-.5 1.7-.9 2.5-1.5.5-.4 1.1-.7 1.7-1.1.2-.1.3-.2.5-.3l.7-.4c0-.1.1-.1.2-.1.6-.4 1.3-.8 1.9-1.2l.1-.1c.4-.3.7-.6 1.1-.8.6-.3 1-.7 1.5-1.1.3-.2.5-.5.8-.8l.6 2.4c0 1.4-.3 2.7-.7 4-.3.4-.6.7-.7 1.3-.8.5-1.5 1.2-2.2 2.1.9-.3 1.5-.7 2.2-1.2-.1.2-.2.3-.3.5-.9.6-1.2 1-1 1.5.5-.3 1-.6 1.6-1 .5-.3 1-.3 1.5-.1h1.2c.3-.1.6-.1.9-.1.5.1 1 .1 1.6.2.5 0 .9.1 1.4.1.7.1 1.2.4 1.9.6 1 .4 2.1.8 3.1 1.1.3.1.6.2 1 .2.3.1.6.1.8.2.2.1.4.2.7.2h1c.3 0 .6.1.9 0 .3 0 .6-.1.9-.2.2-.1.5-.1.7-.2.7-.2 1.4-.2 1.9-.8.1-.1.2-.1.2-.1.7-.2 1.3-.6 1.8-1 .2-.1.4-.1.6-.3.3-.2.6-.4.9-.5.1 0 .2-.1.3-.2.7-.6 1.6-1 2.5-1.3.1-.1.2-.2.3-.2.3-.1.5-.1.7-.2.6-.3 1.2-.7 1.8-1 .3-.2.6-.4.8-.6.4-.3.8-.7 1.3-1 .4-.2.7-.5 1-.8.4-.4.5-.9.8-1.4.2-.3.3-.6.4-.9.2-.6.5-1.1.5-1.7 0-.2.2-.3.2-.5.1-.7.1-1.5.1-2.2v-1.3c0-.5-.1-.9-.1-1.3-.1-.7-.3-1.3-.4-2-.1-.2-.2-.4-.2-.6-.2-.9-.9-1.5-1.6-2-.5-.3-1.2-.3-1.8-.4-.2-.1-.5 0-.8 0-.3.1-.6.3-1 .4-.3.1-.6.1-.9.3-.1.1-.2 0-.3.1-.3.3-.5.4-.9.6-.4.1-.8.2-1.1.6 0 .1-.2.1-.2.1-.3.1-.6.3-.9.4-.2.1-.4.2-.7.4-.3.2-.7.4-1 .6-.6.3-1.1.6-1.7.9-.6.4-1.3.7-1.9 1.1-.7.4-1.3.7-1.9 1l-.9.6c-.7.4-1.4.9-2.1 1.3-.3.2-.7.5-1 .7-.2.1-.3.2-.5.4s-.4.4-.7.6c-.2.2-.5.5-.9.4v-.3c.2-.4.3-.9.3-1.4 0-.5 0-1.1-.1-1.6-.1-.8-.4-1.6-.5-2.4-.1-.8-.6-1.4-.8-2.2-.1-.3-.3-.6-.4-1-.4-1-.7-2.1-1.1-3.1 0-.1-.1-.2-.1-.2-.2-.4-.4-.8-.6-1.3-.3-.8-.5-1.6-.8-2.4-.3-.8-.7-1.5-.9-2.3-.4-1.5-1.2-2.8-1.7-4.3-.2-.7-.5-1.4-.7-2.1-.3-.9-.7-1.8-1-2.7-.4-1.1-.8-2.1-1.3-3.2-.1-.3-.3-.7-.3-1-.1-.3-.1-.6-.2-.9-.2-.8-.4-1.6-.5-2.5-.1-1.1-.1-2.3.2-3.4.1-.5.5-1 .7-1.5l.1-.1c.4-.3.9-.6 1.3-.9.5-.3 1-.7 1.6-1 .1 0 .2.1.3.1.4-.2.7-.4 1-.7.1-.1.1-.3.2-.4-.1-.2-.3-.3-.5-.2-.3.1-.6.2-.8.3-.2.1-.4.2-.7.3-.3.1-.7.2-1 .4-.3.1-.5.3-.7.4-.5.3-1.1.6-1.6.9-.6.4-1.2.8-1.9 1.1-.1 0-.2.1-.3.2-.4.3-.9.6-1.3.8-.3.2-.7.3-1 .5-.6.3-1.2.7-1.7 1-1 .5-1.8 1.2-2.3 2.1-.4.6-.9 1.2-1.3 1.8-.1.7-.1 1.4-.2 2.1h.1c-.1.1-.1.2-.2.3.1.6.1 1.2.2 1.7.1.7.3 1.4.5 2.1.1.4.1.9.3 1.3.4 1 .8 1.9 1.2 2.8.5 1.2 1 2.4 1.4 3.6l.6 1.6c.3.7.5 1.4.8 2.1l.6 1.5c.1.2.2.3.3.5v.2c.3.7.6 1.3.8 2 .2.5.5 1.1.7 1.6.3.8.6 1.5.9 2.3.1.4.3.8.5 1.1.1.3.3.5.4.7l.7 1.8c.1.3.1.6.2.8l.9 2.1c-.4.4-.9.7-1.3 1.2-.3 0-.5.4-.8.6-.5 0-.8.2-1.1.6-.3.1-.5.2-.8.3-.2-.1-.5-.1-.8-.2-.1-.1-.3-.3-.5-.4l-.6-.6c-.8-1-1.2-2.2-1.8-3.3-.2-.3-.3-.6-.4-1-.1-.4-.3-.8-.4-1.2l-.7-1.8c-.2-.5-.4-1.1-.6-1.6-.1-.3-.3-.6-.4-.9-.1-.2-.2-.5-.3-.7-.3-.7-.5-1.5-.8-2.2-.2-.4-.4-.7-.5-1.1l-1.5-2.7c-.1-.2-.3-.3-.3-.4-.2-.3-.4-.5-.6-.8-.7-.9-1.8-1.3-2.7-1.9-.5-.3-1.1-.2-1.7-.3-.6 0-1.1.1-1.4.4-.7.3-1.4.4-1.8.7-.7.6-1.4 1.1-2.1 1.6v.3l-.1-.1c-.2.2-.5.4-.6.5l-.6.3c-.4.3-.8.7-1.2 1-.1.1-.2.2-.4.3l-1.3 1-1 .9.1.1c-.2 0-.3.1-.5.1-.4.4-.7.9-1.1 1.3-.4.3-.5.7-.6 1.1h.2c.3-.3.7-.6 1-.9.2-.2.3-.4.5-.5.5-.3 1.1-.5 1.6-.8.3-.2.8-.2 1.1-.2.3 0 .6.2.9.3.9.4 1.8.8 2.4 1.7-.1.1-.3.2-.4.3-.3.2-.7.4-1 .7-.3.4-.6.7-1 .9-.4.2-.8.6-1.2.9 0 .3-.4.4-.6.5-.2.2-.5.3-.7.5l-.8.6c-.1 0-.3.1-.3.1l-.9.9c-.1.1-.3.3-.5.4-.1.1-.2.2-.3.2-.5.2-.8.6-1.1 1.1-.1.1-.1.2-.2.4-.2.2-.3.4-.5.6l-.7.8c-.2.2-.4.5-.5.8-.1.3-.2.6-.3 1.1-.3.3-.1.9-.4 1.4.1.1.1.3.2.4-.3 1.4.6 3.6 1.9 3.9-.1.1.3.3.7.5zm54.8-5.1c-.1.3 0 .7-.1 1.1 0 .2-.1.4-.2.6v.6l-.3.3c.2.6-.3 1-.4 1.6-1.1-.3-2.2-.5-3.1-1-.3-.1-.6-.3-.9-.5h-.3c-1.3-.7-2.6-1.4-4.1-1.3-.2-.1-.4-.3-.7-.3-.3-.1-.6 0-.9-.1-.5-.2-1.1-.1-1.7-.1-.3 0-.6 0-.9-.1-.1 0-.2-.1-.3-.3.5-.2.9-.4 1.3-.6.1-.6.5-.9.9-1.3.8-.7 1.8-1.2 2.6-1.9.1-.1.2-.1.2-.2.3-.5.8-.6 1.2-.9.3-.2.5-.4.8-.6.2-.1.4-.3.6-.4.3-.2.5-.4.8-.6.6-.5 1.4-.8 2.1-.9.4 0 .9.2 1.3.3.5.1.6.6.9 1 .4.6.5 1.4.7 2.1.2.7.2 1.4.2 2.1 0 .1-.1.2-.1.3.5.2.6.6.4 1.1zm-44.3-1.3c-1.3-.6-2.6-1.1-3.8-2-.7-.6-1.2-1.3-1.2-2.3 0-.4-.1-.8 0-1.1 0-.4.2-.7.3-1 .1-.2.3-.4.4-.7v-.4l.3-.3h.4c0-.1-.1-.2-.1-.3.7-.4 1.1-1.2 1.9-1.4.2.1.4.1.7.2.6 1 1.2 2.1 1.6 3.2.3.9.7 1.7 1.1 2.5.2.5.4 1 .6 1.6.2.6.5 1.2.7 1.9.1.2.2.4.3.7-1.1 0-2.2-.2-3.2-.6z" id="path628"/><path d="M594.5 65.3c0 .2.1.3.2.6-.3 0-.6.1-.9.1-.5 0-1.1 0-1.7-.1-.2 0-.5-.1-.7-.1-.4 0-.8 0-1.2.1-.4.1-.8.2-1.1.3-.4-.1-.7-.1-1 .1-.3.2-.7.3-1.1.4-.2.1-.4.2-.6.2-.2.1-.4.1-.6.1-.5.3-1.1.7-1.6 1.1-.4.3-.7.7-1.1 1-.4.3-.7.7-1 1.2-.3.5-.7 1-1 1.5-.3.6-.5 1.3-.9 1.9-.3.5-.4 1.1-.7 1.7v.1c-.3 1.2-.5 2.3-.8 3.5-.1.3-.1.7-.2 1-.1.6-.2 1.1-.3 1.7 0 .3-.1.5-.1.8-.1 1-.2 1.9-.3 2.9-.1.9-.2 1.8-.2 2.7 0 .3-.1.6-.2.9-.1.6-.2 1.1-.3 1.7-.2 1.3-.4 2.5-.6 3.8l-.3 1.8c0 .2-.1.5-.1.7-.1.4-.1.7-.1 1.1-.1.9-.3 1.8-.5 2.7-.2.9-.4 1.8-.5 2.8-.2.9-.4 1.9-.5 2.8 0 .5-.2.9-.3 1.4-.1.4 0 .8-.1 1.3s-.2.9-.2 1.4c0 .2-.1.5-.1.7-.1.6-.2 1.1-.3 1.7v.4l1.5 1.2c.3.3.7.4 1 .7.6.6 1.4 1.1 1.7 2 .4.2.6.5.8.9l.4.4c.3.3.6.7.9 1 .3.4.7.7 1 1 .3.3.7.6 1 1 .5.5 1 1 1.5 1.6.1.2.2.4.4.6.1.1.3.2.4.4.1.1.2.3.3.4l.4.4c.2.2.5.4.7.6.5.4.9.7 1.4 1 .5.3 1 .6 1.6.8.3.1.7.2 1 .3h.3c.3 0 .6 0 1 .1 0 .2-.1.3-.1.5-.4 0-.7.1-1.1.1h-2v.1c-.2-.1-.4-.1-.7-.2v.3c-.4-.1-.7-.2-1-.2h-2.8c-.4 0-.8-.1-1.2-.1h-1.1c-.5 0-1 .2-1.4-.1-.1 0-.3 0-.5.1-.4-.1-.9-.2-1.3-.2-.2 0-.3-.1-.5-.2-.7-.4-1.4-.9-2.1-1.3-.8-.4-1.4-1.2-2-1.8l-.9-.9c-.3-.3-.7-.6-1.1-.9h-.2c-.1.5-.5.9-.8 1.3-.3.4-.5.7-.8 1.1l-.6.6c-.1.1-.2.2-.3.4l-1.8 1.2c-.6.4-1.2.5-1.9.7-.7.2-1.3.3-1.9.4-.4.1-.8.2-1.2.2-.2 0-.3-.1-.5-.1-.6.2-1.2.2-1.9.4h-.7c-.9.3-1.7.3-2.6.4-.5 0-1 .1-1.5.2s-.9.2-1.4.2h-.6c-.3 0-.6.1-.9.2-.1 0-.3-.1-.5-.2.6-.6 1.2-.6 1.8-.9.2.2.3.2.6.1.3-.2.7-.2 1.1-.3.2-.1.4-.3.7-.5.2-.1.4 0 .5-.3 0 0 .1 0 .1-.1.4-.2.8-.3 1.2-.5.2-.1.5-.3.6-.4.4-.3.7-.7 1.1-1.1.3-.4.6-.9.9-1.3.1-.1.1-.3.1-.3.2-.2.4-.4.5-.6.2-.5.4-.9.6-1.4.1-.3.2-.5.3-.8.2-.5.4-1 .5-1.5.2-.5.3-1.1.4-1.6.1-.3.1-.7.2-1 .1-.6.2-1.3.2-1.9v-.6c-.7-.2-1.1-.8-1.5-1.3-.8-.5-1.6-.9-2.3-1.6-.1-.1-.3-.3-.5-.4-.5-.3-1-.7-1.5-1.2-.1-.1-.2-.1-.3-.2l-1.3-.9c-.2-.1-.3-.2-.5-.2-.6-.3-1.2-.7-2-.7h-.6c-.4 0-.7.1-1.1 0-.7.1-1.4.2-2.2.4 0-.2 0-.3.1-.4.3-.1.5-.3.8-.3l.1.1c.5-.3 1.1-.2 1.6-.4v.1l.2-.2h.4v-.1c.6-.1 1.2-.3 1.8-.4.3-.1.7-.2 1-.2h.5c.9-.5 1.9-.6 2.9-.7.3-.1.5-.2.8-.2.7-.1 1.4-.1 2.1-.1.4 0 .8.1 1.2.1h1.1c.4.1.6.1.9-.2.1-1.3.2-2.7.7-4.1l.2-.2c-.3-.2-.2-.4-.1-.6.1-.2.3-.4.4-.6-.1 0-.2 0-.3-.1.3-2.2.6-4.4.9-6.5h.2c-.2-.3-.2-.7 0-1 .1-.2 0-.5.1-.7.2-1.4.3-2.9.5-4.3.1-.8.1-1.6.2-2.4.1-.9.2-1.8.3-2.8.1-.4.2-.9.3-1.3l.1-.6c0-.1.1-.1.1-.2 0-.8.3-1.5.4-2.2.2-.8.3-1.6.6-2.4.1-.2.2-.4.2-.6.3-.8.4-1.6.9-2.4.4-.6.6-1.2 1-1.8.1-.2.3-.3.5-.5 0-.4 2-2.4 2.5-2.5.2-.2.3-.5.5-.5.9-.4 1.7-1 2.7-1.1.5-.5 1.3-.2 1.9-.5.3-.1.7-.2 1.2-.4.4 0 1-.1 1.5-.1h.4c.1 0 .2.1.2 0 .7-.2 1.5.1 2.2-.1h.4c.5.2 1.1.1 1.6.1.8-.1 1.6 0 2.4 0 .6 0 1.2-.1 1.8 0 .7 0 1.3.1 2 .1h.7c.2 0 .5 0 .7.1-.1-.5.3-.4.6-.4z" id="path630"/><path d="M545.2 77.7c-.5-.2-1-.5-1.6-.6-.5 0-1.1.2-1.7.1 0-.1 0-.2-.1-.4.2-.1.4-.2.6-.2.5 0 .9 0 1.3-.2s.9-.2 1.4-.3c.2 0 .4 0 .7.1.6-.3.6-.3 1-.2.2-.1.3-.2.4-.2.3.1.6 0 .9-.1.4-.1.7-.2 1.1-.1.1 0 .3-.1.5-.1.1 0 .2-.1.3-.1.4-.1.9 0 1.3-.2.8-.2 1.6-.1 2.2-.3 1.3.2 2.6.5 3.3 1.7.2.2.4.3.5.6.2.3.3.7.4 1 .2.5.3 1 .4 1.5.1.7.1 1.4.1 2v1.8c0 .7-.1 1.4-.1 2v1.8c-.1 1.1-.3 2.2-.4 3.3v.6c0 .2-.1.4-.1.6v.5c-.1.6-.1 1.1-.2 1.7 0 .3-.1.7-.1 1v1.3c0 1 0 1.9.2 2.9.1 1.1.7 2 1.7 2.6.3.2.7.2 1 .1.5-.1 1-.2 1.5-.1.4.1.7-.1 1.1-.1.3 0 .7 0 1 .2v.3c-.1 0-.1 0-.1.1-.5.1-1 .3-1.5.4-.3.1-.6.1-1 .2-.2 0-.4.1-.6.1-.1 0-.3.1-.4.1h-1.5c-.3 0-.6 0-.9.1l-.3.3c-.1-.1-.1-.2-.2-.3-.5.1-1.1-.1-1.5.2-.3 0-.6 0-.9-.1h-1.1c-.2 0-.4.1-.7.1h-.5c-.6 0-1.2.1-1.8.2h-.9c-.2.1-.5 0-.9 0-.9-.1-1.4-.7-1.9-1.4-.2-.3-.4-.7-.5-1.1-.2-.9-.3-1.7-.4-2.6-.1-.9-.1-1.7 0-2.6 0-.8.2-1.6.3-2.4.1-.6.1-1.2.1-1.8v-1.1c-.4.1-.7.2-1 .3-.5.1-1 .2-1.4.3-.5.2-1.1.1-1.6.3-.5.2-1.1.2-1.7.3-.3 0-.5.1-.8.1-.1.1-.2.2-.4.3-.1 0-.2-.1-.3-.1-.6.1-1.2.1-1.8.2-.3.1-.6.2-.9.2h-.4c-.4.1-.9.2-1.3.3-.8.2-1.5.1-2.2.1l-.7.1v-.1c-.4-.1-.8-.3-1.2-.4-.7-.1-1.2-.5-1.6-1-.4-.5-.9-.8-1.2-1.5-.2-.5-.3-.9-.5-1.4l-.3-.9h.3v-.6h-.1c0 .2-.1.3-.1.5-.4-.4-.4-2.8-.2-3.5-.1-.1-.1-.2-.2-.3.1 0 .1-.1.2-.1l-.2-.2.1-.1c0-.7-.1-1.5-.1-2.2 0-.8-.1-1.7-.1-2.5s-.1-1.6-.2-2.4c-.1-.7-.1-1.5-.2-2.2-.1-.7 0-1.4-.3-2.1v-.4c-.1-.3-.2-.6-.4-.9-.3-.9-.8-1.6-1.6-2.2-.2-.1-.2-.3-.4-.5-.5-.1-1-.2-1.6-.2-.5 0-1.1.1-1.7.2.2-.2.3-.3.4-.5.4-.1.9-.3 1.3-.4.5-.1.9-.4 1.3-.2.2-.1.4-.2.6-.2.3-.3.8-.3 1.2-.5.7-.2 1.3-.5 2-.7.2-.1.3-.1.5-.2.1.1.2.1.2.1.5-.2 1-.4 1.5-.7.2 0 .6-.1.9-.1.3 0 .6-.1 1-.2.1.1.2.2.4.3v-.4c.3.2.6 0 .8.2h.2c.4-.2.7 0 1 .1.1 0 .2.1.4.2 0 0 .1.1.1.2.1 0 .2.1.3.1.9 1.1 1.8 2.1 2 3.5 0 0-.1 0-.1.1.3.6.3 1.2.4 1.9.2 1 .1 2.1.2 3.3 0 .7.1 1.5.1 2.3 0 .7 0 1.4.1 2.1v1.2c0 .2.1.3.1.5v4c0 .4.1.8.2 1.2.2.7.3 1.4.7 2 .3.6.6 1.2 1.2 1.6.2.2.4.5.6.6.3.2.7.3 1 .4v.1h.5c.3.1.6.3.9.4.2-.3.5-.2.8-.2.5 0 1-.2 1.4-.4.1 0 .3.1.4.1v-.1c.4-.1.7-.2 1.1-.3 0-1 .1-2 .1-2.9 0-.9-.1-1.9.1-2.9 0-.2 0-.4-.1-.7v-1.8c-.1-.3-.2-.7-.3-1.1-.1-.3-.2-.7-.3-1-.2-.4-.5-.8-.7-1.1.6.1.4 0 .2-.2z" id="path632"/><path d="M515.8 61.6l-.3-1.8c-.1-.5-.2-1.1-.6-1.5-.1-.1-.2-.3-.3-.4-.1 0-.2 0-.3.1l-.3-.3c.1 0 .1-.1.2-.1-.6-.3-1.2-.3-1.7-.3s-1-.1-1.6-.1c-.3 0-.6-.1-.8 0-.4.1-.9.2-1.3.3-.8.3-1.6.6-2.5.8-.3.1-.5.3-.8.4-.7.2-1.2.7-1.9.8-.1 0-.3.1-.4.2-.5.5-1.2.6-1.8.9-.5.3-1.1.4-1.6.7-1 .5-2 1-2.9 1.5-.4.2-.7.3-1.1.5-.5.3-1.1.6-1.6.9-.6.3-1.1.6-1.6 1-.3.2-.7.4-1.1.5-.6.3-1.1.8-1.8.9 0 .1 0 .2-.1.3-.3 0-.5 0-.8.1-.3.1-.6.1-.8.3-.4.4-.8.6-1.3.9-.1.1-.3.2-.4.3-.3.4-.7.6-1.2.7-.4.6-1 .9-1.5 1.1l-.7.7c-.2 0-.4.1-.5.2-.6.3-1.1.7-1.7 1-.1.1-.3.1-.4.2-.2.3-.5.4-.8.5 0 .1-.1.2-.1.3-.1.1-.2.1-.3.2 0 .1.1.2.1.4.3-.1.7-.1.9-.2.2 0 .3.1.4.1.7.2 1.3.3 2 .5.4.1.9.2 1.3.3.3.1.6 0 .8.2.2.2.5.2.8.2 1 0 1.9.4 2.8.6.2 0 .3.1.5.1.1 0 .3.1.4.1.5.1 1.1.3 1.6.5s1.1.3 1.6.5c.3.1.6.1.8.2.3.1.5.3.8.4.1-.1.2-.1.3-.2 0 .3.3.4.4.4l1.8.3c1 .3 2 .6 2.9.9.2.1.3.2.5.2.6.2 1.2.4 1.8.8.1.1.3.1.5.2s.4.3.6.4c.3.1.6.3 1 .4.2.1.5.1.6.3.5.3 1.1.6 1.7.7.6.2 1.2.4 1.7.6.5.2 1 .3 1.4.6.5.3 1 .4 1.6.3.5.3 1 .2 1.4.2.6-.3 1.1-.5 1.6-.7.5-.2 1-.3 1.5-.4.2-.1.5-.2.7-.3.2-.1.3-.2.5-.1h.3c.5-.2 1-.4 1.4-.6.1 0 .1-.1.2-.1s.3.1.4.1c.1-.1.2-.1.3-.2.1-.1.1-.2.2-.2v.1c1.2-.4 2.4-.4 3.5-1.3-.1-.1-.1-.2-.2-.4-.4.1-.8.1-1.2.2-.4-.3-.9-.6-1.4-.9-.2-.1-.3-.3-.4-.4-.3-.3-.6-.7-.6-1.1-.2-.3-.3-.4-.4-.6-.3-.6-.7-1.1-.8-1.8-.1-.4-.2-.9-.3-1.3-.1-.3-.2-.5-.2-.8 0-.4 0-.7-.1-1.1 0-.2-.1-.3-.2-.5 0-.2.1-.3.1-.5 0-.1-.1-.2-.1-.3-.1-.9-.2-1.8-.3-2.6 0-.3-.1-.6-.1-1s-.1-.7-.1-1.1c-.1-.6-.1-1.2-.2-2-.1-.7-.3-1.3-.4-1.9zm-23.2 4.3c.4 0 .7-.5 1.1-.7.3 0 .6-.1.9-.4.1-.1.3-.1.4-.2.7-.4 1.4-.8 2.1-1.1.1-.1.2-.1.4-.2 0-.1.1-.2.1-.2.4-.1.6-.3.9-.4.6-.1 1.1-.4 1.6-.6.9-.3 1.8-.6 2.7-.4.5.1.9.1 1.4.5.6.9.6 2 1 3.1h.4v.1c-.1 0-.2.1-.4.1.1.3.1.6.2.9 0 .2-.1.3-.1.4.1.3.2.7.3 1v.9c.2 0 .3.1.4.1l.1.2h-.1l-.2-.2c-.1 0-.1 0-.2.1 0 .6.1 1.1.2 1.7.1.5-.1 1.1.4 1.6-.5.2-.9.1-1.4-.1-.4-.1-.7-.3-1.1-.4h-.3c-.2-.3-1.6-.8-1.9-.8-.8-.3-1.3-.7-2-.7-.3-.1-.6-.3-.9-.4-.2 0-.3 0-.5-.1-.1 0-.1.1-.2.2 0-.1-.1-.2-.1-.3l-1.2-.3s0 .1-.1.2c0-.3-.2-.4-.4-.4-.6-.1-1.2-.2-1.7-.4-.4-.1-.8-.3-1.3-.4-.5-.2-.9-.2-1.4-.3-.3-.1-.6-.2-.9-.2h-.1c-.2-.1-.4-.2-.6-.4.9-.6 1.7-1 2.5-1.5z" id="path634"/><path d="M591 97.7c.8-.1 1.6-.1 2.5-.2.4 0 .7 0 1.1-.1.5-.1 1-.1 1.5.2 0 .1 0 .2.1.3-.8.4-1.8.1-2.7.5-.2.4-.3 1-.3 1.5-.1 1.2-.1 2.4-.2 3.6 0 .9-.1 1.7-.1 2.6-.1.8-.4 1.5-1.1 2-.6.5-1.4.7-2.1.7h-1.9c-.5 0-1 0-1.5-.1-.3-.1-.6 0-.9 0-.9 0-1.8.1-2.7.1-.9 0-1.8 0-2.7-.1-.2 0-.4-.1-.6-.2.2-.4.5-.3.8-.3 1.1-.4 1.3-1.3 1.5-2.1v-1.7c0-.5 0-1 .1-1.6 0-.2.1-.3.1-.5 0 0-.1-.1-.1-.2.2-1.1.1-2.3.6-3.4.1-.1.3-.1.4-.3 0-.1.3-.2.5-.2h.6c.2 0 .4-.1.6-.1.2 0 .5-.1.8-.1.3.1.6.1.9-.1.6.1 1.2.2 1.7-.1h1.8c.4 0 .7-.2 1.1-.1h.2z" id="path636"/></g></g><g id="g654"><g id="g652"><path d="M586.4 136.6c.2.5.5 1 .6 1.6.2.7.5 1.2.8 1.7.4.8 1.2 1.2 1.8 1.8l1.2.9 1.2.9c.2.1.3.2.5.3.5.4 1.1.7 1.8.8.5.1 1-.1 1.4.1.2.1.4.1.6.1 1 .1 1.9.3 2.9.5-.2.6-.4 1.1-.5 1.7-.1.6-.4 1.2-.1 1.8v.2c-.2.4 0 .8.3 1.1.4.4.7.9 1.1 1.3.2.2.5.4.8.5 1 .2 1.9.6 2.9.7.7.1 1.3.2 2 .4.2 0 .4.1.6.1.3.1.5.1.8.2.1 0 .2 0 .2.1.7.2 1.5.4 2.2.5h.1c.4.1.9.1 1.3.2.6.2 1.2.2 1.8.3h1.1c-.4.7-.9 1.4-1.3 2.1-.9 1-2.1 1.7-3.4 2.4-.4.1-1 .1-1.4.4-.9-.2-1.9-.2-3-.1.8.4 1.6.6 2.4.7-.2 0-.4.1-.6.1-1-.2-1.5-.1-1.7.3.6.2 1.1.3 1.7.5.6.1.9.5 1.1 1l.5.5c.1.1.2.3.4.3.3.1.5.3.7.6.3.4.7.8 1 1.2.3.3.6.7.9 1 .4.5.6 1.1.9 1.7.5 1 .8 2.1 1.4 3.1.2.3.3.6.5.8.1.2.3.5.4.7l.3.6.7.7c.2.2.4.5.6.7.2.2.5.3.8.5.2.1.4.2.7.4.6.3 1.2.8 1.9.8.1 0 .2.1.2.1.6.3 1.3.5 2 .6.2.1.4.2.6.2.4 0 .7.2 1 .3.1.1.2.1.4.1.9.1 1.8.4 2.7.8.1.1.3 0 .4.1.3.1.5.3.7.3.7.2 1.3.4 2 .5.3.1.7.1 1 .2.5.1 1.1.1 1.6.2.4.1.8.1 1.3.1.6 0 1-.3 1.5-.4l.9-.3c.5-.3 1.1-.4 1.6-.9.1-.1.3-.1.5-.2.6-.5 1.1-1 1.6-1.5.3-.3.6-.6 1-.9.3-.3.6-.7.8-1 .4-.5.7-1.1 1.1-1.7.1-.2.1-.4.3-.6.5-.8.4-1.7.2-2.5-.1-.6-.6-1.1-1-1.6-.1-.2-.3-.4-.5-.6-.3-.1-.6-.3-.9-.5-.3-.2-.5-.4-.8-.4-.1 0-.2-.1-.2-.2-.4 0-.7-.1-1-.2-.4-.2-.7-.4-1.2-.4-.1 0-.2 0-.3-.1-.3-.1-.6-.3-.9-.4-.2-.1-.5-.1-.7-.2-.4-.1-.7-.2-1.1-.3-.6-.2-1.2-.3-1.8-.5l-2.1-.6-2.1-.6c-.3-.1-.7-.1-1-.2-.8-.2-1.6-.4-2.4-.5-.4-.1-.8-.2-1.2-.2-.2 0-.4-.1-.6-.1-.3 0-.6 0-.9-.1-.3 0-.7 0-.9-.3.1-.1.2-.2.3-.2.5-.2.8-.4 1.2-.8.4-.4.8-.8 1.1-1.2.5-.7.8-1.4 1.3-2 .5-.6.6-1.4 1-2.1.2-.3.2-.7.4-1 .5-1 1-2 1.4-2.9 0-.1 0-.2.1-.3.2-.4.3-.9.5-1.3.4-.8.8-1.5 1.1-2.3.3-.8.6-1.6.9-2.3.7-1.4 1.2-2.9 1.9-4.2.4-.7.7-1.3 1-2 .4-.9.8-1.7 1.2-2.6.5-1 .9-2.1 1.3-3.1.1-.3.3-.7.5-1 .2-.3.3-.5.5-.8.5-.7.8-1.5 1.4-2.1.7-.9 1.5-1.7 2.5-2.3.5-.3 1-.3 1.5-.6h.1c.5.1 1.1.2 1.6.3.6.1 1.2.3 1.8.4 0 .1.1.2.1.2.4.1.8.2 1.2.2.1 0 .3-.1.5-.1.1-.2 0-.4-.2-.5-.3-.1-.5-.3-.8-.4-.2-.1-.5-.1-.7-.2-.3-.1-.6-.3-.9-.4-.3-.1-.6-.1-.8-.2-.6-.2-1.2-.3-1.8-.5-.7-.2-1.4-.2-2.1-.6-.1-.1-.2-.1-.4-.1l-1.5-.3c-.4-.1-.7-.3-1.1-.4-.6-.2-1.3-.3-1.9-.5-1-.3-2.1-.4-3.1-.2-.7.1-1.5.2-2.2.3-.5.5-1.1.9-1.6 1.4-.1 0-.3.1-.3.1-.4.5-.8.9-1.1 1.3-.4.6-.7 1.2-1.1 1.8-.2.4-.5.7-.7 1.2-.4.9-.8 1.9-1.2 2.9-.5 1.2-1 2.4-1.5 3.5l-.7 1.5c-.3.7-.6 1.4-.9 2l-.6 1.5c-.1.2-.1.4-.2.6 0 0-.1.1-.1.2-.3.7-.5 1.3-.8 2-.2.5-.4 1.1-.6 1.7-.3.8-.7 1.5-1 2.3-.2.4-.3.7-.5 1.1-.1.3-.2.5-.3.8l-.8 1.8c-.1.2-.3.5-.5.7l-.9 2.1c-.6-.1-1.1-.1-1.8-.1-.2-.3-.6-.1-1-.1-.3-.4-.8-.4-1.2-.3-.2-.1-.5-.2-.7-.3-.1-.2-.3-.5-.4-.7v-1.5c.1-1.2.7-2.4 1.1-3.6.1-.3.2-.7.4-1l.6-1.2.8-1.8c.2-.5.5-1 .7-1.5.1-.3.3-.7.4-1 .1-.2.2-.5.3-.7.3-.7.7-1.4 1-2.1.2-.4.3-.8.4-1.2.3-1 .6-2 .8-2.9v-.5c0-.3.1-.6.2-1 .1-1.1-.3-2.2-.6-3.3-.1-.6-.6-.9-1-1.3s-.9-.7-1.2-.7c-.7-.3-1.2-.7-1.8-.7-.9-.1-1.7-.3-2.6-.4l-.2.2v-.1c-.3 0-.6-.1-.8-.1-.2-.1-.4-.2-.6-.2-.5-.1-1.1-.1-1.6-.1-.2 0-.3 0-.5-.1l-1.6-.2-1.3-.1v.1c-.1-.1-.3-.2-.4-.3-.6.1-1.1.2-1.7.1-.5-.1-.8.1-1.2.3l.1.1c.4 0 .9.1 1.4.1.2 0 .5 0 .7.1.6.2 1.1.4 1.7.6.3.1.7.4.9.7.2.2.3.6.5.8.4.9.7 1.9.5 2.9-.1 0-.3 0-.5-.1-.4-.1-.8-.2-1.1-.2-.5 0-.9.1-1.4-.1-.5-.1-1-.2-1.5-.2-.2.2-.5 0-.8-.1-.3 0-.6-.1-.9-.1l-1-.1c-.1-.1-.3-.1-.3-.2h-1.3c-.2 0-.4 0-.6-.1h-.4c-.5-.2-1-.1-1.5 0-.1 0-.3.1-.4.1-.3 0-.5 0-.7.1l-1.1.1c-.3 0-.6.1-.9.2-.3.1-.6.3-1 .5-.4 0-.7.6-1.3.7-.1.2-.1.3-.1.4-1.2.8-2.1 3-1.4 4-.6.6-.5 1.1-.3 1.5zm42.4 35.1c-.3.1-.5.5-.8.7l-.6.3-.4.4c-.1 0-.3 0-.4-.1-.3.6-.9.5-1.4.9-.6-1-1.2-1.9-1.5-2.9-.1-.3-.2-.6-.3-1l-.2-.2c-.4-1.4-.9-2.8-2-3.8-.1-.2-.1-.5-.2-.7-.2-.3-.4-.5-.5-.7-.2-.5-.7-.8-1.1-1.3-.2-.2-.4-.4-.6-.7-.1-.1 0-.2 0-.4.5.2.9.3 1.4.5.5-.3 1-.3 1.5-.3 1.1.1 2.1.4 3.1.6.1 0 .2.1.3 0 .5-.1 1 .1 1.6.2.3.1.7.1 1 .1.2 0 .5.1.7.1.3 0 .7.1 1 .1.8.1 1.6.4 2.2.9.3.3.5.7.7 1.1.3.5 0 .9-.1 1.3-.1.8-.6 1.3-1 2-.3.6-.9 1.1-1.3 1.6-.1.1-.2.1-.3.2-.2.5-.3.9-.8 1.1zm-30.4-32.3c-.3-.7-.6-1.3-.8-2-.2-.7-.4-1.4-.4-2.1-.1-.9.1-1.8.8-2.4.3-.3.5-.6.8-.8.3-.2.6-.4.9-.5.2-.1.5-.1.7-.2.1 0 .2-.1.3-.2h.4l.3.3c.1-.1.1-.2.2-.3.8.2 1.6-.1 2.3.3.1.2.2.4.3.7-.3 1.1-.6 2.3-1.2 3.4-.4.8-.7 1.7-1 2.6-.2.5-.5 1-.7 1.5-.3.6-.5 1.2-.8 1.8-.1.2-.2.4-.3.7-.8-.8-1.4-1.7-1.8-2.8z" id="path642"/><path d="M707.6 255.2c-.1.1-.2.3-.3.5-.3-.2-.5-.4-.7-.6-.4-.4-.7-.8-1.1-1.2-.2-.2-.2-.4-.4-.6-.3-.3-.6-.6-.9-.8-.3-.2-.7-.4-1-.6-.2-.4-.4-.5-.8-.6-.4-.1-.7-.3-1.1-.5-.2-.1-.4-.2-.6-.2-.2-.1-.3-.2-.5-.3-.6-.1-1.3-.3-1.9-.4-.5-.1-1 0-1.5-.1s-1 0-1.5.2c-.6.1-1.2.2-1.8.4-.7.2-1.3.6-2 .8-.6.2-1.1.5-1.6.7 0 0-.1 0-.1.1-1 .6-2 1.3-3 1.9-.3.2-.5.4-.8.6-.5.3-.9.6-1.4 1-.2.2-.4.3-.6.5-.8.6-1.5 1.2-2.3 1.8-.7.6-1.4 1.1-2.1 1.7-.2.2-.5.3-.7.5-.5.3-.9.7-1.4 1-1 .7-2.1 1.5-3.1 2.2-.5.4-1 .7-1.4 1.1-.2.1-.4.3-.6.4-.3.2-.6.4-.8.6-.7.6-1.5 1.1-2.3 1.6-.8.5-1.5 1-2.3 1.6-.8.5-1.6 1.1-2.3 1.7-.4.3-.8.5-1.1.8-.3.2-.6.6-.9.8-.4.3-.8.5-1.2.8-.2.1-.4.3-.6.4-.5.3-.9.7-1.4 1l-.3.3c.1.6.1 1.2.2 1.9.1.4.2.8.2 1.2 0 .9.2 1.8-.2 2.6.2.4.1.8-.1 1.2v.5c0 .4-.1.9-.1 1.3v5c0 .2-.1.4-.1.7 0 .2.1.4 0 .6-.1.1-.1.3-.1.5v1.6c.1.6.1 1.2.2 1.7.1.6.3 1.1.6 1.7.2.3.4.6.5.9l.2.2c.2.2.4.5.7.8-.2.1-.3.2-.4.3-.3-.2-.6-.5-.8-.7l-1.4-1.4-.3-.6-.2.2c-.2-.3-.4-.6-.5-.9l-.5-.5-1.5-1.5c-.3-.3-.5-.6-.8-.9-.2-.3-.5-.5-.8-.8-.3-.3-.8-.6-1-1.1 0-.1-.2-.2-.4-.3-.2-.3-.5-.7-.8-1.1-.1-.1-.1-.3-.2-.5-.3-.8-.3-1.6-.5-2.4-.3-.9-.2-1.8-.1-2.7 0-.4 0-.8-.1-1.3 0-.5-.1-.9-.1-1.4 0 0-.1-.1-.2-.1-.5.3-.9.3-1.4.4-.4.1-.9.1-1.3.2h-.9c-.2 0-.3 0-.5.1-.7-.1-1.4-.3-2.1-.4-.7-.2-1.3-.5-1.9-.8-.6-.3-1.1-.7-1.7-1.1-.4-.2-.7-.5-1-.7-.1-.2-.2-.3-.3-.4-.6-.3-1-.7-1.5-1.1-.1-.1-.1-.2-.2-.2-.1-.1-.1-.2-.3-.3-.8-.4-1.4-1-2.1-1.6l-1.2-.9c-.4-.3-.8-.6-1.1-.8-.1-.1-.2-.3-.4-.4-.2-.2-.5-.3-.8-.5-.1-.1-.1-.3-.2-.5.8 0 1.3.4 1.9.6 0 .2.1.4.4.5.4.1.7.3 1.1.6.2 0 .5 0 .8.1.2.1.3.3.6.2h.1c.4.2.8.4 1.2.5.2.1.5.1.8.1h1.5c.5 0 1-.2 1.6-.3.1 0 .2-.1.3-.2.3 0 .5 0 .8-.1.5-.2 1-.4 1.4-.6.3-.1.5-.2.8-.3.5-.2.9-.4 1.4-.7.5-.3 1-.5 1.4-.8l.9-.6 1.5-1.2c.2-.1.3-.3.4-.4-.3-.7-.2-1.3-.2-1.9-.3-.9-.5-1.8-.4-2.7 0-.2 0-.4-.1-.6-.1-.6-.2-1.2-.2-1.9 0-.1-.1-.2-.1-.3l-.2-1.6c0-.2-.1-.4-.2-.5-.3-.7-.4-1.4-.9-1.9-.1-.2-.3-.3-.5-.4-.3-.2-.6-.4-.8-.7-.6-.4-1.2-.9-1.9-1.3.1-.1.2-.2.3-.2.3.1.6.2.8.3v.1c.6.2.9.6 1.4.9v.1h.3c.1.1.2.2.2.3l.1-.1c.5.3 1 .6 1.6 1l.9.6c.2.1.3.3.4.4 1 .3 1.8.9 2.5 1.5.2.1.5.2.7.4.5.4 1.1.9 1.6 1.3.3.3.5.6.8.9l.3.3.4.4c.1.4.4.5.8.5 1.1-.9 2.2-1.7 3.4-2.4h.3c-.1-.3.1-.5.3-.5.2-.1.4-.1.7-.1-.1-.1-.1-.2-.2-.3 1.7-1.3 3.5-2.7 5.2-4 .1.1.1.1.2.1.1-.4.3-.6.7-.8.2-.1.4-.3.5-.5 1.1-.9 2.3-1.8 3.4-2.7l1.8-1.5c.7-.6 1.4-1.2 2.2-1.7.4-.3.8-.5 1.1-.7l.5-.4c.1 0 .1-.1.2-.1.5-.6 1.3-.9 1.9-1.3.7-.5 1.4-.9 2.2-1.3.2-.1.4-.2.6-.2.8-.4 1.5-.8 2.3-1 .7-.2 1.3-.4 2-.6.2-.1.4 0 .7-.1.2-.3 3.1-.3 3.5 0 .3 0 .5-.1.7 0 .9.3 1.8.5 2.7 1.1.7.1 1.1.8 1.7 1.1.3.1.7.3 1.1.6.3.3.8.6 1.2 1l.3.3c.1.1.1.2.1.2.6.3 1 1.1 1.6 1.5l.3.3c.3.5.7.8 1.1 1.2.6.5 1.2 1.1 1.7 1.7.4.5.9.8 1.3 1.2.5.5.9 1 1.4 1.5.2.2.4.3.5.5.2.2.3.4.5.6-.7-.3-.5 0-.3.2z" id="path644"/><path d="M664 229.1c-.2-.5-.3-1.1-.7-1.5-.4-.4-.9-.6-1.3-1.1.1-.1.1-.2.2-.3.2.1.5.1.6.3.4.3.7.6 1.1.8.4.2.8.5 1.2.8.2.1.3.3.5.5.6.2.6.2.8.6.2.1.4.1.4.2.2.3.5.4.7.6.3.2.6.4.9.7.1.1.3.2.4.2.1 0 .2.1.2.1.4.3.7.6 1.1.8.7.4 1.2 1 1.8 1.4.8 1.1 1.4 2.2 1 3.5v.7c-.1.3-.3.7-.4 1-.2.5-.5.9-.8 1.4-.4.5-.9 1-1.3 1.5-.4.4-.9.8-1.3 1.3-.5.5-1 .9-1.5 1.4-.4.4-.8.8-1.2 1.1l-.2.2c-.9.7-1.7 1.3-2.6 2-.2.1-.3.3-.5.4l-.6.3c-.1.1-.3.2-.4.3l-1.4 1.1c-.3.2-.5.4-.8.7l-.9.9c-.6.7-1.3 1.4-1.9 2.1-.7.9-.9 1.9-.6 3 .1.3.4.6.6.8.4.3.8.6 1.1 1 .2.3.6.5.9.7.3.2.5.5.6.8-.1.1-.2.1-.2.2-.1 0-.1 0-.1-.1-.4-.3-.9-.5-1.3-.8-.3-.2-.5-.4-.8-.6-.2-.1-.3-.2-.5-.3l-.3-.3c-.3-.3-.6-.6-.9-.8-.1-.1-.2-.2-.3-.2-.2-.2-.4-.4-.7-.6h-.5c0-.2.1-.3.1-.4-.5-.3-.7-.8-1.3-.9-.2-.2-.4-.4-.6-.7l-.8-.8c-.2-.2-.4-.3-.5-.4-.1-.1-.2-.3-.3-.4-.4-.4-.9-.8-1.3-1.1-.2-.2-.3-.4-.6-.7-.2-.1-.4-.4-.6-.6-.6-.7-.5-1.5-.4-2.3.1-.4.2-.8.4-1.1.5-.7 1-1.4 1.6-2.1.6-.7 1.2-1.3 1.8-1.9l1.8-1.5c.5-.4.9-.8 1.4-1.2.3-.2.5-.5.8-.8-.3-.2-.6-.3-.9-.5-.4-.3-.8-.6-1.2-.8-.5-.3-.8-.7-1.3-.9-.5-.2-1-.6-1.4-1-.2-.2-.4-.3-.6-.5h-.5c-.1-.1-.1-.2-.1-.3-.5-.4-1-.7-1.4-1.1-.3-.2-.6-.3-.8-.5l-.3-.3c-.4-.2-.8-.5-1.2-.7-.6-.4-1.1-1-1.7-1.5l-.5-.5.1-.1c-.2-.4-.3-.8-.5-1.1-.4-.6-.5-1.2-.4-1.9 0-.6-.1-1.2.2-1.9.2-.4.4-.9.6-1.3.1-.3.3-.5.4-.8.1.1.2.1.3.2l.4-.4c-.1.1-.3.2-.5.3 0-.5 1.6-2.3 2.3-2.5 0-.1.1-.2.1-.3h.2v-.3h.2c.5-.6 1-1.1 1.4-1.6.6-.6 1.1-1.3 1.7-1.9l1.6-1.8 1.5-1.7c.5-.6 1-1 1.4-1.7l.3-.3c.1-.3.3-.6.4-.9.4-.8.5-1.7.4-2.7 0-.2.1-.4.1-.6-.3-.4-.6-.9-1-1.2-.4-.4-.8-.7-1.3-1 .2 0 .4-.1.7-.1.4.2.9.4 1.3.7.4.3.9.3 1.1.7.2.1.4.2.6.2.4 0 .8.3 1.2.5.6.4 1.3.6 2 .9.2.1.3.1.5.2.1.1.1.2.1.3.6.2 1 .4 1.6.6.2.2.5.3.7.6.2.2.5.4.8.6v.5c.1-.1.2-.1.3-.2.1.3.4.4.4.7 0 0 .1.1.2.1.4.1.5.5.7.8.1.1.1.2.2.4 0 0 0 .1-.1.3 0 .1.1.2.2.3-.1 1.4-.2 2.8-1 3.9h-.1c-.2.7-.6 1.1-1 1.6-.5.9-1.4 1.5-2.1 2.5-.4.5-1 1.1-1.6 1.7-.5.5-1 1-1.5 1.6l-.9.9c-.1.1-.2.3-.3.4-.9.9-1.9 1.9-2.9 2.8-.3.3-.5.6-.7 1-.4.6-.8 1.2-.9 1.9-.2.6-.4 1.3-.3 2 0 .3-.1.6 0 .9.1.3.3.7.5 1l-.1.1c.1.1.3.2.3.3.1.3.3.6.4.9.4-.1.5.2.7.4.3.4.8.6 1.2.8.1.1.1.2.2.4v-.1c.3.2.6.4 1 .6.8-.7 1.5-1.3 2.2-2 .7-.6 1.3-1.4 2.1-2 .1-.1.3-.3.4-.5l1.3-1.3c.1-.2.4-.6.6-.9.2-.3.4-.6.4-.9.1-.4.2-.9.3-1.3-.3-.1-.3-.3-.3-.6z" id="path646"/><path d="M654.6 196.9c.4-.5.7-1 1-1.5.3-.4.6-.9.6-1.5v-.5c-.1-.1-.2-.1-.2-.2v-.4c.1 0 .1 0 .2.1-.2-.6-.6-1-1-1.5-.3-.4-.7-.8-1-1.2l-.6-.6c-.4-.2-.8-.5-1.2-.7-.8-.4-1.5-.8-2.3-1.2-.2-.1-.5-.2-.8-.3-.6-.3-1.4-.4-1.9-.8-.1-.1-.3-.1-.4-.1-.7 0-1.3-.5-1.9-.6-.6-.1-1.1-.5-1.6-.7-1-.4-2.1-.7-3.2-1-.4-.1-.8-.3-1.1-.4-.6-.2-1.2-.3-1.8-.5-.6-.2-1.2-.4-1.8-.5-.4-.1-.8-.3-1.1-.4-.6-.2-1.3-.2-1.9-.6-.1.1-.2.1-.3.2-.2-.2-.4-.4-.6-.5-.2-.1-.5-.3-.8-.3-.5 0-1-.1-1.5-.3-.2 0-.3-.1-.5-.1-.5 0-1-.1-1.4-.3-.7.1-1.3 0-1.8-.2h-.9c-.2-.1-.3-.2-.5-.3-.6-.2-1.3-.3-1.9-.5-.2 0-.3-.1-.5-.1-.3 0-.6 0-.9-.2-.1 0-.2.1-.3.1-.1 0-.2-.1-.3-.1-.1.1-.1.2-.2.4.3.2.5.4.8.5.1.1.1.3.2.4.4.6.7 1.2 1.1 1.7.3.4.5.7.8 1.1.2.2.4.5.5.7.1.3.2.5.4.7.7.7 1.1 1.6 1.6 2.4.1.1.2.3.3.4.1.1.1.3.2.4.3.5.5 1 .8 1.5.3.5.5 1 .8 1.5.1.3.3.5.4.7l.3.9h.3c-.2.2-.1.4 0 .6.3.5.7.9 1 1.5l1.5 2.7c.1.2.1.3.2.5.3.6.6 1.2.7 1.8 0 .2.1.3.2.5s.1.5.2.7c.1.3.3.7.4 1l.3.6c.1.6.4 1.1.7 1.7.3.5.5 1.1.8 1.7.2.5.5.9.6 1.4.1.6.4 1 .8 1.4.1.5.5.9.8 1.1.6.2 1.1.4 1.6.6.5.2.9.5 1.4.7.2.1.5.2.7.3.2 0 .4.1.5.3 0 .1.1.1.2.2l1.5.6h.2c.1.1.1.2.2.3h.6v.1c1.1.5 2 1.4 3.4 1.5 0-.1.1-.2.1-.4-.3-.2-.6-.4-1-.7-.1-.5-.3-1-.4-1.6v-.6c0-.5 0-.9.3-1.2.1-.3.1-.5.2-.7.2-.6.3-1.3.7-1.9.2-.4.5-.8.7-1.1.1-.2.2-.5.4-.7.2-.3.5-.5.7-.8.1-.1.2-.3.2-.5.1-.1.3-.2.4-.3.1-.1.1-.2.2-.3l1.7-2.1c.2-.3.4-.5.6-.8.2-.3.5-.6.7-.9.4-.5.8-1 1.3-1.6 0-.1.2-.7.6-1.2zm-19.5-13.3c.3.3.8.1 1.2.3.2.2.5.4.9.4.2 0 .3.1.4.2.8.2 1.5.4 2.3.7.1 0 .3.1.4.1.1 0 .2-.1.2-.1.4.1.7.2.9.4.5.4 1 .5 1.5.7.9.4 1.7.8 2.3 1.6.3.4.6.7.6 1.3-.3 1-1 1.9-1.6 2.9.1.1.1.2.2.3v.1c-.1-.1-.2-.1-.3-.2-.2.2-.3.5-.5.7-.1.1-.3.2-.4.3-.2.3-.3.6-.6.9l-.6.6c.1.1.2.2.2.4l-.1.2h-.1v-.3s-.1-.1-.2-.1c-.4.4-.7.9-1 1.3-.3.4-.8.7-.8 1.4-.5-.2-.7-.6-.9-1-.2-.3-.3-.7-.5-1 0-.1-.2-.1-.3-.2.1-.3-.5-1.7-.7-2-.3-.7-.4-1.4-.9-1.9-.1-.3-.2-.6-.4-.9-.1-.1-.2-.2-.3-.4h-.2c0-.1.1-.2.1-.3-.2-.3-.4-.7-.7-1 0 0-.1 0-.2.1v-.1c.2-.2.1-.4 0-.6-.3-.5-.7-1-1-1.5l-.6-1.2c-.2-.4-.5-.8-.7-1.3-.2-.3-.3-.6-.5-.8l-.1-.1c0-.2-.1-.4-.1-.7 1.4.3 2.2.6 3.1.8z" id="path648"/><path d="M682.2 275.6l1.9 1.6c.3.2.5.5.8.7.4.3.8.6.9 1.2 0 .1-.1.2-.2.3-.9-.3-1.4-1.2-2.3-1.5-.5.1-.9.5-1.3.8-.9.8-1.8 1.6-2.6 2.4-.6.6-1.3 1.2-1.9 1.7-.6.5-1.3.8-2.2.7-.8-.1-1.4-.5-2-1-.5-.4-.9-.9-1.4-1.3-.4-.4-.7-.7-1-1.2-.2-.2-.4-.4-.7-.6-.7-.6-1.4-1.2-2-1.9-.6-.7-1.3-1.3-1.8-2l-.3-.6c.4-.1.6.2.8.3 1 .5 1.9 0 2.6-.4.5-.4.8-.8 1.2-1.2.4-.4.8-.7 1.1-1.1.1-.1.3-.2.5-.3 0 0 0-.1.1-.2.9-.7 1.7-1.6 2.8-2 .2 0 .3.2.5 0 .1-.1.4.1.5.2.2.1.3.3.5.4.2.1.3.2.5.3.2.1.4.3.6.5.1.3.4.5.7.6.3.5.7.9 1.2 1.1.4.4.8.9 1.3 1.3.3.2.6.4.9.7.1.3.2.5.3.5z" id="path650"/></g></g></g></g></g></svg>