<svg xmlns="http://www.w3.org/2000/svg" id="Layer_1" viewBox="0 0 582.09996 582.09999" width="582.1" height="582.1"><defs id="defs4647"><style id="style4645">path{fill:#fff}</style></defs><g id="g4765" transform="translate(-129.9 -6.6)" fill="#fff"><g id="g4763"><g id="g4761"><g id="g4661"><path d="M640 375c1.3-1.1 2.1-2.1 3.2-2.6 1.2-.6 2.7-.7 4.1-.9 2.4-.5 4.9-.9 7.3-1.4 4-.9 8.1-1.7 12-3.1 3.5-1.2.6-3-.1-4.1-.6-.8-1.1-1.6-1.7-2.3-.6-.8-1.2-1.5-1.8-2.3l-3.6-4.5c-2.4-3-4.8-5.9-7.3-8.7-1.1-1.3-1.4-3.1-2.1-4.7.5.2 1.1.5 1.6.7 3.8 1.9 7.2.4 10.7-.8 2.9-1 5.8-2.1 8.7-3.3 3.6-1.6 6.9-3.8 10.5-5.1 4.4-1.6 9.2-3.6 13.6-3.4 2.9.1 5.7 3.8 8.2 6.5 3 3.2 5.6 7.1 8 10.8.3.5.4 1.1.7 1.6-.3-.2-.8-.4-1-.7-1.8-2.1-3.3-4.3-5.3-6.1-3-2.7-6.4-1.8-9.6-.3-4.6 2.1-9.1 4.1-13.7 5.9-4.5 1.9-9 3.6-13.7 5.1-2.5.8-5.3.9-8 1.3h-.4c.1.2.1.4.2.5 1.8 2.3 3.6 4.7 5.3 7.2 2.5 3.7 4.8 7.6 7.2 11.5l1.2 2.1c1.9 3 .2 4.9-4.3 5.8-3.3.6-6.6 1.3-9.8 1.9-3.3.7-6.5 1.4-9.7 2-4.8 1-5.2 2.5-3.1 7.1.1.1 0 .3 0 .4-.1-.1-.3-.1-.3-.2-1.6-3.5-3.4-6.8-5-10.2-.4-.9-.8-1.9-1.1-2.9-.1-.8-.5-1.8-.9-2.8z" id="path4649"/><path d="M630.1 410.9c.4 3.5 1.3 7 2 10.5 1 4.6 1.6 9.1 2.4 13.7.5 2.4 1 4.9 1.5 7.4.4 2.4.9 4.9 1.3 7.4.2 1 .5 1.9.8 2.9.4-.6.6-1.3 1.1-1.9 1.2-1.7 2.4-3.3 3.6-4.9 1.1-1.7 2.3-3.4 3.4-5l2.7-4c.9-1.3 1.7-2.7 2.6-4.1 1.7-2.7 3.4-5.4 5.2-8.1 1.3-2.2 2.6-4.3 4-6.4 1.3-2.1 2.8-4.2 3.9-6.5 1.4-2.6 3.2-5.1 3.9-7.8.5-1.8-.8-3.9-1.4-5.8-1.5-4.1-3.2-8-4.8-11.9-.1-.1-.3-.2-.4-.3 0 .2-.1.4 0 .5 1.8 3.3.8 6.9-2.9 8.1-1.6.5-3.1.9-4.7 1.4-1.6.4-3.2.8-4.8 1.1-3.2.7-6.4 1.3-9.5 1.8-1.8.3-3.7.3-5.3.9-1.7.5-3.3 1.5-4.5 3.7 0 2-.5 4.7-.1 7.3zm12.5.7c3.2-.3 6.4-.6 9.7-1 .2 0 .5 0 .5.1.1.2 0 .4-.1.6l-4.5 8.3c-1.6 2.7-3.3 5.4-4.9 8.1-2.1 3.5-4.5 6.8-6.8 10.1 0 0-.4 0-.4-.1-.3-3.6-1.3-7-1.9-10.4-.7-3.5-1.1-6.9-.3-10.5.2-.7.3-1.3.4-1.7 1.1-1.7 2.3-2.5 3.8-2.9 1.4-.4 3-.5 4.5-.6z" id="path4651"/><path d="M637.7 308.2c.1-3 2.3-6.2 5.2-8.3 3-2.1 6.8-3.1 10.1-1.2 2.6 1.5 4.6 4.1 6.8 6.3 1 1 1.9 2 2.8 3.1.2.2.2.6.2.9-.2 0-.5 0-.6-.1-3.2-1.7-6.7-1.7-9.6-.4-1.4.6-2.7 1.6-3.8 2.8-1.1 1.2-1.8 2.6-2.2 4.3-.3 1.3-.3 3.2.5 4 .8.8 2.8.9 4.3 1 6.6.2 11-4.3 16.4-7.2 1.5-.8 3.2-1.7 4.8-2.3 1.7-.7 3.3-1.2 5-1.5.7-.1 1.6.4 2.5 1.2.9.8 1.7 1.8 2.5 2.6 2.1 2.3 4 4.9 5.9 7.5.2.3.3.7.4 1-.3-.1-.6-.1-.8-.3-2.5-3.1-5.2-1.4-7.6-.1l-4.2 2.4c-1.4.8-2.8 1.6-4.3 2.4-2.9 1.6-5.7 3-8.7 4.1-2.5.9-5.9.1-8.8-.5-5.5-1.2-7.1-6-9.8-9.6-2-2.6-4.2-5.1-5.9-7.8-.9-1.7-.9-3.6-1.1-4.3z" id="path4653"/><path d="M631.1 443.2c-.5-4.6-1.6-9.3-2.6-13.8-.1-.4-.4-.7-.7-1 0 .4-.2.9-.1 1.3.2 1.2-.2 2.7-.9 4-.7 1.3-1.7 2.3-2.7 2.5-5 1-10.8-2.9-12.5-7.7-1.3-3.6-3.1-7.2-4.7-10.8-1.3-2.9-2.5-5.8-3.8-8.6-1.3-2.8-2.7-5.7-4.2-8.4-.1-.2-.3-.4-.5-.7 0 .3-.1.6 0 .9.8 1.8 1.7 3.7 2.5 5.5 1.8 4.4 3.4 9 5.1 13.7 1.2 3.2 2.2 6.4 3.3 9.7 1 3.3 2 6.6 3 10 0 .2-.4.7-.6.6-3.8-.7-6.2 1.1-8.1 3.8-1.8 2.6-3.4 5.1-4.6 7.9-1.2 2.8-1.9 5.9-2.6 9-.7 3.8-.6 7.8.8 11.3 1.4 3.5 4 6.5 8.6 8.2 4.4 1.6 8.7.3 10.3-3 .3-.6.6-1.3.8-1.9.2-.7.4-1.3.6-2 .3-1.3.6-2.6.7-3.9.3-2.6.2-5.2-.3-7.8-.2-1.4-.5-2.9-.7-4.3-.3-1.4-.5-2.9-.8-4.3-.5-2.8-1.1-5.7-1.7-8.4-.1-.4-.1-.8-.1-1.2l.8.8c.9.9 1.7 2 2.7 2.8 1.9 1.6 4.1 2.3 6.2 2.1 2.1-.3 4.1-1.6 5.8-3.8.3-.5 1.1-1.6 1-2.5zm-30.5 11.6c.6-2.4 2.2-4.4 3.6-6.5 1.1-1.9 2.3-3.9 4-5.3 1-.8 2.9-.8 4.5-.7.4 0 .9 1.7 1.1 2.7 1.1 4.3 2 8.8 3.1 13.3.8 3.2-2.2 9.4-5.2 9.5-2.4.1-4.7-1.3-6.3-1.9-3.4-3.7-6-6.9-4.8-11.1z" id="path4655"/><path d="M635.2 350.2c.2-.3.3-.4.3-.5.1.1.3.2.4.3 1 1.1 2 3.1 3.1 3.2 1.8.2 3.6-.9 5.4-1.5 1.4-.5 2.7-1.8 4-1.7 1 .1 2.1 1.7 2.9 2.8 1 1.4 1.9 2.8 2.8 4.2.9 1.4 1.7 2.9 2.5 4.4.3.6.4 1.4.5 2.1-.3-.5-.8-.9-1-1.4-1.7-3-3.3-.1-4.6.2-1.8.5-3.4 2.5-5.1 2.5-1.4 0-3.3-1.7-4.3-3-1.8-2.4-3.3-5-4.8-7.4-.8-1.5-1.5-2.9-2.1-4.2z" id="path4657"/><path d="M623.9 473c-.2-2.6-.6-4.5-.5-6.5.1-2 .1-4.2.2-6.2.1-2.1.1-4.1.2-6.2 0-.2.1-.4.2-.6.1.2.2.4.2.6-.1 2.8.2 5.4 3.9 5.4.8 0 1.6-.2 2.4-.4 3.5-1 5.5-.3 5.2 3.9-.3 3.6 0 7.2-.1 10.9 0 .6-.4 1.2-.6 1.8-.1-.5-.1-1.3-.4-1.5-1-.6-2.1-1.3-3.3-1.4-2.3-.1-4.6.1-7.4.2z" id="path4659"/></g><g id="g4675"><path d="M521.2 507.2c1.8.2 3 0 4.1.4 1.3.5 2.4 1.4 3.5 2.2 2 1.4 4.1 2.8 6.1 4.1 1.8 1.1 3.5 2.3 5.3 3.4 1.8 1.1 3.6 2.1 5.4 3 3.3 1.5 2.5-1.7 2.8-3 1.4-7.6 1.9-15.4 2.5-22.8.1-.8.4-1.6.8-2.4.4-.8.8-1.6 1.1-2.4.2.6.4 1.1.6 1.7 1.3 4 4.8 5.3 8.1 7 2.7 1.4 5.5 2.6 8.4 3.8 1.8.7 3.7 1.3 5.6 1.9 1.9.6 3.7 1.2 5.5 2 4.2 2 9 3.9 12 7.2 2 2.1 1.4 6.8 1.2 10.4-.1 2.2-.3 4.5-.7 6.6l-1.2 6.6c-.1.5-.4 1.1-.7 1.6-.1-.4-.3-.8-.2-1.2.2-2.7.7-5.4.6-8-.2-3.9-3.2-5.8-6.6-7-9.4-3.5-18.4-7.1-27.1-11.5-2.4-1.2-4.4-3.1-6.5-4.7l-.3-.2c-.1.2-.2.3-.2.5-.2 1.5-.4 3-.6 4.4-.2 1.5-.5 2.9-.7 4.4-.9 4.4-1.9 8.8-3 13.3-.2.8-.5 1.5-.7 2.3-.8 3.4-3.4 3.5-7.1 1-2.8-1.8-5.5-3.7-8.3-5.5-2.8-1.9-5.5-3.7-8.3-5.5-4.1-2.6-5.4-1.8-7.2 2.9 0 .1-.2.2-.3.3 0-.1-.2-.3-.1-.4.7-1.7 1.3-3.6 1.9-5.4l1.8-5.4c.6-1.8 1.6-3.6 2.5-5.6z" id="path4663"/><path d="M488.7 525.6c-2.2 2.7-4 5.9-6 9-2.6 3.8-5.3 7.5-8 11.4-.7 1-1.4 2.1-2.1 3.1l-2.1 3c-1.4 2-2.8 4.1-4.3 6.2-.6.8-1 1.7-1.5 2.6.7-.2 1.4-.5 2.1-.6 4-.7 8-1.2 12-2.1 3.1-.6 6.3-1.2 9.5-1.9 3.1-.7 6.3-1.5 9.4-2.2 2.5-.5 4.9-1.1 7.4-1.7 2.5-.6 4.9-1.2 7.4-1.8 2.8-.8 5.9-1.4 8.3-2.8 1.6-1 2.3-3.3 3.1-5.1 1.8-3.9 3.4-8 4.9-11.9.1-.1-.1-.3-.1-.5-.1.1-.3.2-.4.4-1 3.6-4.3 5.5-7.7 3.8-5.8-3.1-11.3-6.7-16.5-10.3-3-2.1-5.4-5.3-10.2-3.7-.7.7-1.6 1.5-2.6 2.3-.8.9-1.8 1.7-2.6 2.8zm8.4 9.4c2.4 2.1 5 4.1 7.5 6.1.1.1.3.4.3.5-.1.2-.3.3-.5.4l-4.5 1.4-2.3.7-2.3.6c-3 .8-6.1 1.5-9.1 2.3-4 .9-8 1.5-12 2.3-.1 0-.3-.3-.2-.4 2.3-2.8 4-5.9 6-8.8 1-1.5 2-2.8 3.2-4.1 1.2-1.3 2.5-2.5 4-3.5.6-.4 1.2-.7 1.5-.9 1.9-.5 3.4-.1 4.7.7 1.4.7 2.5 1.7 3.7 2.7z" id="path4665"/><path d="M566.8 458.3c2.2-2.1 6-2.8 9.6-2.2 3.6.6 7 2.6 7.9 6.3.8 2.9.3 6.1.4 9.2 0 1.4-.1 2.8-.2 4.2 0 .3-.3.5-.4.8-.1-.2-.3-.3-.4-.5-1-3.5-3.6-5.9-6.5-7.1-3-1.2-6.4-1.1-9.2.7-1.1.7-2.5 2-2.5 3.1s1.3 2.6 2.3 3.7c4.5 4.9 10.8 4.7 16.7 6.5 3.4 1 6.9 2.3 9.7 4.2 1.2.9.9 4.1.8 6.2-.1 3.1-.7 6.3-1.1 9.5 0 .3-.3.6-.4 1-.1-.3-.4-.5-.3-.8.5-4-2.7-4.7-5.2-5.4-3.2-.9-6.3-1.8-9.4-2.6-3.1-.9-6.2-1.9-9-3.2-2.5-1.1-4.3-4.1-5.9-6.6-3-4.7-.8-9.3-.1-13.7.5-3.2.7-6.6 1.3-9.6.2-1.6 1.5-3 1.9-3.7z" id="path4667"/><path d="M466.6 549.1c1.4-1.9 2.8-3.8 4.1-5.7 1.3-1.9 2.6-4 3.8-5.9.2-.3.2-.8.3-1.2-.3.3-.7.5-1 .9-.7 1-2.1 1.8-3.5 2.2-1.4.3-2.9.3-3.7-.3-4.2-2.8-5.5-9.6-3.4-14.3 1.6-3.6 2.9-7.2 4.3-10.9 1.2-3 2.3-5.9 3.4-8.9 1.1-2.9 2.1-5.8 3-8.8.1-.3.1-.6.1-.8-.2.2-.5.4-.6.6-.7 1.9-1.4 3.8-2.2 5.6-1.8 4.4-3.9 8.9-6 13.4-1.5 3-3 6.1-4.5 9.1-.8 1.5-1.6 3.1-2.4 4.6-.8 1.5-1.7 3.1-2.5 4.6-.1.1-.8.2-.8 0-2.2-3.1-5.2-3.5-8.4-3-1.5.3-3 .5-4.5.9s-2.9.9-4.3 1.4c-1.4.6-2.8 1.3-4.2 2.1-1.4.8-2.7 1.5-4.1 2.5-3.2 2.2-5.9 5.1-7.4 8.5-1.5 3.4-1.7 7.5.3 11.9 1.9 4.3 5.9 6.4 9.4 5.2 2.7-.9 5-2.3 7-3.9 2-1.7 3.8-3.6 5.3-5.7.8-1.2 1.7-2.3 2.5-3.5.8-1.2 1.7-2.4 2.5-3.6l4.8-7.2c.2-.3.5-.6.8-.9l-.1 1.1c0 1.3-.2 2.6-.1 3.9.2 2.5 1.2 4.5 2.9 5.8.8.7 1.9 1.2 3 1.4 1.1.2 2.4.3 3.8.1.5-.2 1.8-.4 2.4-1.2zm-29.8-13.3c2.1-1.2 4.7-1.6 7.1-2.1 1.1-.2 2.2-.5 3.3-.7 1.1-.2 2.2-.3 3.3-.2 1.3.1 2.6 1.5 3.6 2.6.3.3-.6 1.8-1.1 2.7-2.3 3.9-4.8 7.7-7.3 11.6-1.7 2.7-8.2 5.1-10.4 3.1-1.7-1.6-2.4-4.3-3.1-5.8.1-2.5.3-4.7 1-6.6.7-1.9 1.7-3.5 3.6-4.6z" id="path4669"/><path d="M535.2 486.3c.4-.1.5-.1.6-.1 0 .2.1.3 0 .5 0 1.5-.8 3.5-.1 4.4 1.1 1.4 3.2 2 4.9 2.8 1.3.6 3.2.6 4 1.6.7.8.3 2.7.1 4-.3 1.7-.6 3.3-1 4.9-.4 1.6-.8 3.2-1.3 4.9-.2.7-.7 1.2-1.1 1.9.1-.6.1-1.2.3-1.8.9-3.3-2.2-2.4-3.4-3.1-1.6-.9-4.1-.6-5.3-1.8-1-1-1.1-3.5-.9-5.2.4-3 1.2-5.9 1.8-8.7.4-1.6 1-3 1.4-4.3z" id="path4671"/><path d="M440.4 565.2c1.7-2 2.8-3.6 4.2-5 3-2.7 6.1-5.6 9-8.5.1-.1.4-.2.5-.3-.1.2-.1.4-.3.6-2.1 2-3.7 4-1 6.6.6.5 1.2 1 1.9 1.4 3.2 1.8 4.1 3.6.9 6.4-1.4 1.2-2.6 2.5-3.9 3.8-1.3 1.3-2.5 2.7-3.9 3.9-.4.4-1.1.6-1.7.9.3-.5.9-1 .8-1.4-.3-1.1-.5-2.4-1.3-3.3-1.4-1.8-3.1-3.2-5.2-5.1z" id="path4673"/></g><g id="g4689"><path d="M343.6 516.7c1.1 1.3 2.1 2.1 2.6 3.2.6 1.2.7 2.7.9 4.1.5 2.4.9 4.9 1.4 7.3.9 4 1.7 8.1 3.1 12 1.2 3.5 3 .6 4.1-.1.8-.6 1.6-1.1 2.3-1.7.8-.6 1.5-1.2 2.3-1.8l4.5-3.6c3-2.4 5.9-4.8 8.7-7.3 1.3-1.1 3.1-1.4 4.7-2.1-.2.5-.5 1.1-.7 1.6-1.9 3.8-.4 7.2.8 10.7 1 2.9 2.1 5.8 3.3 8.7 1.6 3.6 3.8 6.9 5.1 10.5 1.6 4.4 3.6 9.2 3.4 13.6-.1 2.9-3.8 5.7-6.5 8.2-3.2 3-7.1 5.6-10.8 8-.5.3-1.1.4-1.6.7.2-.3.4-.8.7-1 2.1-1.8 4.3-3.3 6.1-5.3 2.7-3 1.8-6.4.3-9.6-2.1-4.6-4.1-9.1-5.9-13.7-1.9-4.5-3.6-9-5.1-13.7-.8-2.5-.9-5.3-1.3-8v-.4c-.2.1-.4.1-.5.2-2.3 1.8-4.7 3.6-7.2 5.3-3.7 2.5-7.6 4.8-11.5 7.2l-2.1 1.2c-3 1.9-4.9.2-5.8-4.3-.6-3.3-1.3-6.6-1.9-9.8-.7-3.3-1.4-6.5-2-9.7-1-4.8-2.5-5.2-7.1-3.1-.1.1-.3 0-.4 0 .1-.1.1-.3.2-.3 3.5-1.6 6.8-3.4 10.2-5 .9-.4 1.9-.8 2.9-1.1.8-.1 1.8-.5 2.8-.9z" id="path4677"/><path d="M307.7 506.8c-3.5.4-7 1.3-10.5 2-4.6 1-9.1 1.6-13.7 2.4-2.4.5-4.9 1-7.4 1.5-2.4.4-4.9.9-7.4 1.3-1 .2-1.9.5-2.9.8.6.4 1.3.6 1.9 1.1 1.7 1.2 3.3 2.4 4.9 3.6 1.7 1.1 3.4 2.3 5 3.4l4 2.7c1.3.9 2.7 1.7 4.1 2.6 2.7 1.7 5.4 3.4 8.1 5.2 2.2 1.3 4.3 2.6 6.4 4 2.1 1.3 4.2 2.8 6.5 3.9 2.6 1.4 5.1 3.2 7.8 3.9 1.8.5 3.9-.8 5.8-1.4 4.1-1.5 8-3.2 11.9-4.8.1-.1.2-.3.3-.4-.2 0-.4-.1-.5 0-3.3 1.8-6.9.8-8.1-2.9-.5-1.6-.9-3.1-1.4-4.7-.4-1.6-.8-3.2-1.1-4.8-.7-3.2-1.3-6.4-1.8-9.5-.3-1.8-.3-3.7-.9-5.3-.5-1.7-1.5-3.3-3.7-4.5-2 0-4.7-.5-7.3-.1zm-.7 12.5c.3 3.2.6 6.4 1 9.7 0 .2 0 .5-.1.5-.2.1-.4 0-.6-.1l-8.3-4.5c-2.7-1.6-5.4-3.3-8.1-4.9-3.5-2.1-6.8-4.5-10.1-6.8 0 0 0-.4.1-.4 3.6-.3 7-1.3 10.4-1.9 3.5-.7 6.9-1.1 10.5-.3.7.2 1.3.3 1.7.4 1.7 1.1 2.5 2.3 2.9 3.8.4 1.4.4 3 .6 4.5z" id="path4679"/><path d="M410.4 514.4c3 .1 6.2 2.3 8.3 5.2 2.1 3 3.1 6.8 1.2 10.1-1.5 2.6-4.1 4.6-6.3 6.8-1 1-2 1.9-3.1 2.8-.2.2-.6.2-.9.2 0-.2 0-.5.1-.6 1.7-3.2 1.7-6.7.4-9.6-.6-1.4-1.6-2.7-2.8-3.8-1.2-1.1-2.6-1.8-4.3-2.2-1.3-.3-3.2-.3-4 .5-.8.8-.9 2.8-1 4.3-.2 6.6 4.3 11 7.2 16.4.8 1.5 1.7 3.2 2.3 4.8.7 1.7 1.2 3.3 1.5 5 .1.7-.4 1.6-1.2 2.5-.8.9-1.8 1.7-2.6 2.5-2.3 2.1-4.9 4-7.5 5.9-.3.2-.7.3-1 .4.1-.3.1-.6.3-.8 3.1-2.5 1.4-5.2.1-7.6l-2.4-4.2c-.8-1.4-1.6-2.8-2.4-4.3-1.6-2.9-3-5.7-4.1-8.7-.9-2.5-.1-5.9.5-8.8 1.2-5.5 6-7.1 9.6-9.8 2.6-2 5.1-4.2 7.8-5.9 1.7-.9 3.5-.9 4.3-1.1z" id="path4681"/><path d="M275.4 507.8c4.6-.5 9.3-1.6 13.8-2.6.4-.1.7-.4 1-.7-.4 0-.9-.2-1.3-.1-1.2.2-2.7-.2-4-.9-1.3-.7-2.3-1.7-2.5-2.7-1-5 2.9-10.8 7.7-12.5 3.6-1.3 7.2-3.1 10.8-4.7 2.9-1.3 5.8-2.5 8.6-3.8 2.8-1.3 5.7-2.7 8.4-4.2.2-.1.4-.3.7-.5-.3 0-.6-.1-.9 0-1.8.8-3.7 1.7-5.5 2.5-4.4 1.8-9 3.4-13.7 5.1-3.2 1.2-6.4 2.2-9.7 3.3-3.3 1-6.6 2-10 3-.2 0-.7-.4-.6-.6.7-3.8-1.1-6.2-3.8-8.1-2.6-1.8-5.1-3.4-7.9-4.6-2.8-1.2-5.9-1.9-9-2.6-3.8-.7-7.8-.6-11.3.8-3.5 1.4-6.5 4-8.2 8.6-1.6 4.4-.3 8.7 3 10.3.6.3 1.3.6 1.9.8.7.2 1.3.4 2 .6 1.3.3 2.6.6 3.9.7 2.6.3 5.2.2 7.8-.3 1.4-.2 2.9-.5 4.3-.7 1.4-.3 2.9-.5 4.3-.8 2.8-.5 5.7-1.1 8.4-1.7.4-.1.8-.1 1.2-.1l-.8.8c-.9.9-2 1.7-2.8 2.7-1.6 1.9-2.3 4.1-2.1 6.2.3 2.1 1.6 4.1 3.8 5.8.5.3 1.6 1.1 2.5 1zm-11.6-30.5c2.4.6 4.4 2.2 6.5 3.6 1.9 1.1 3.9 2.3 5.3 4 .8 1 .8 2.9.7 4.5 0 .4-1.7.9-2.7 1.1-4.3 1.1-8.8 2-13.3 3.1-3.2.8-9.4-2.2-9.5-5.2-.1-2.4 1.3-4.7 1.9-6.3 3.6-3.4 6.9-6 11.1-4.8z" id="path4683"/><path d="M368.4 511.9c.3.2.4.3.5.3-.1.1-.2.3-.3.4-1.1 1-3.1 2-3.2 3.1-.2 1.8.9 3.6 1.5 5.4.5 1.4 1.8 2.7 1.7 4-.1 1-1.7 2.1-2.8 2.9-1.4 1-2.8 1.9-4.2 2.8-1.4.9-2.9 1.7-4.4 2.5-.6.3-1.4.4-2.1.5.5-.3.9-.8 1.4-1 3-1.7.1-3.3-.2-4.6-.5-1.8-2.5-3.4-2.5-5.1 0-1.4 1.7-3.3 3-4.3 2.4-1.8 5-3.3 7.4-4.8 1.5-.8 2.9-1.5 4.2-2.1z" id="path4685"/><path d="M245.6 500.6c2.6-.2 4.5-.6 6.5-.5 2 .1 4.2.1 6.2.2 2.1.1 4.1.1 6.2.2.2 0 .4.1.6.2-.2.1-.4.2-.6.2-2.8-.1-5.4.2-5.4 3.9 0 .8.2 1.6.4 2.4 1 3.5.3 5.5-3.9 5.2-3.6-.3-7.2 0-10.9-.1-.6 0-1.2-.4-1.8-.6.5-.1 1.3-.1 1.5-.4.6-1 1.3-2.1 1.4-3.3.1-2.3-.2-4.6-.2-7.4z" id="path4687"/></g><g id="g4703"><path d="M211.4 397.9c-.2 1.8 0 3-.4 4.1-.5 1.3-1.4 2.4-2.2 3.5-1.4 2-2.8 4.1-4.1 6.1-1.1 1.8-2.3 3.5-3.4 5.3-1.1 1.8-2.1 3.6-3 5.4-1.5 3.3 1.7 2.5 3 2.8 7.6 1.4 15.4 1.9 22.8 2.5.8.1 1.6.4 2.4.8.8.4 1.6.8 2.4 1.1-.6.2-1.1.4-1.7.6-4 1.3-5.3 4.8-7 8.1-1.4 2.7-2.6 5.5-3.8 8.4-.7 1.8-1.3 3.7-1.9 5.6-.6 1.9-1.2 3.7-2 5.5-2 4.2-3.9 9-7.2 12-2.1 2-6.8 1.4-10.4 1.2-2.2-.1-4.5-.3-6.6-.7l-6.6-1.2c-.5-.1-1.1-.4-1.6-.7.4-.1.8-.3 1.2-.2 2.7.2 5.4.7 8 .6 3.9-.2 5.8-3.2 7-6.6 3.5-9.4 7.1-18.4 11.5-27.1 1.2-2.4 3.1-4.4 4.7-6.5l.2-.3c-.2-.1-.3-.2-.5-.2-1.5-.2-3-.4-4.4-.6-1.5-.2-2.9-.5-4.4-.7-4.4-.9-8.8-1.9-13.3-3-.8-.2-1.5-.5-2.3-.7-3.4-.8-3.5-3.4-1.1-7.1 1.8-2.8 3.7-5.5 5.5-8.3 1.9-2.8 3.7-5.5 5.5-8.3 2.6-4.1 1.8-5.4-2.9-7.2-.1 0-.2-.2-.3-.3.1 0 .3-.2.4-.1 1.7.7 3.6 1.3 5.4 1.9l5.4 1.8c1.9.6 3.7 1.6 5.7 2.5z" id="path4691"/><path d="M193 365.4c-2.7-2.2-5.9-4-9-6-3.8-2.6-7.5-5.3-11.4-8-1-.7-2.1-1.4-3.1-2.1l-3-2.1c-2-1.4-4.1-2.8-6.2-4.3-.8-.6-1.7-1-2.6-1.5.2.7.5 1.4.6 2.1.7 4 1.2 8 2.1 12 .6 3.1 1.2 6.3 1.9 9.5.7 3.1 1.5 6.3 2.2 9.4.5 2.5 1.1 4.9 1.7 7.4.6 2.5 1.2 4.9 1.8 7.4.8 2.8 1.4 5.9 2.8 8.3 1 1.6 3.3 2.3 5.1 3.1 3.9 1.8 8 3.4 11.9 4.9.1.1.3-.1.5-.1-.1-.1-.2-.3-.4-.4-3.6-1-5.5-4.3-3.8-7.7 3.1-5.8 6.7-11.3 10.3-16.5 2.1-3 5.3-5.4 3.7-10.2-.7-.7-1.5-1.6-2.3-2.6-.9-.8-1.8-1.8-2.8-2.6zm-9.5 8.4c-2.1 2.4-4.1 5-6.1 7.5-.1.1-.4.3-.5.3-.2-.1-.3-.3-.4-.5l-1.4-4.5-.7-2.3-.6-2.3c-.8-3-1.5-6.1-2.3-9.1-.9-4-1.5-8-2.3-12 0-.1.3-.3.4-.2 2.8 2.3 5.9 4 8.8 6 1.5 1 2.8 2 4.1 3.2 1.3 1.2 2.5 2.5 3.5 4 .4.6.7 1.2.9 1.5.5 1.9.1 3.4-.7 4.7-.6 1.4-1.7 2.5-2.7 3.7z" id="path4693"/><path d="M260.3 443.5c2.1 2.2 2.8 6 2.2 9.6-.6 3.6-2.6 7-6.3 7.9-2.9.8-6.1.3-9.2.4-1.4 0-2.8-.1-4.2-.2-.3 0-.5-.3-.8-.4.2-.1.3-.3.5-.4 3.5-1 5.9-3.6 7.1-6.5 1.2-3 1.1-6.4-.7-9.2-.7-1.1-2-2.5-3.1-2.5s-2.6 1.3-3.7 2.3c-4.9 4.5-4.7 10.8-6.5 16.7-1 3.4-2.3 6.9-4.2 9.7-.9 1.2-4.1.9-6.2.8-3.1-.1-6.3-.7-9.5-1.1-.3 0-.6-.3-1-.4.3-.1.5-.4.8-.3 4 .5 4.7-2.7 5.4-5.2.9-3.2 1.8-6.3 2.6-9.4.9-3.1 1.9-6.2 3.2-9 1.1-2.5 4.1-4.3 6.6-5.9 4.7-3 9.3-.8 13.7-.1 3.2.5 6.6.7 9.6 1.3 1.6.2 3 1.5 3.7 1.9z" id="path4695"/><path d="M169.4 343.3c1.9 1.4 3.8 2.8 5.7 4.1 1.9 1.3 4 2.6 5.9 3.8.3.2.8.2 1.2.3-.3-.3-.5-.7-.9-1-1-.7-1.8-2.1-2.2-3.5-.3-1.4-.3-2.9.3-3.7 2.8-4.2 9.6-5.5 14.3-3.4 3.6 1.6 7.2 2.9 10.9 4.3 3 1.2 5.9 2.3 8.9 3.4 2.9 1.1 5.8 2.1 8.8 3 .3.1.6.1.8.1-.2-.2-.4-.5-.6-.6-1.9-.7-3.8-1.4-5.6-2.2-4.4-1.8-8.9-3.9-13.4-6-3-1.5-6.1-3-9.1-4.5-1.5-.8-3.1-1.6-4.6-2.4-1.5-.8-3.1-1.7-4.6-2.5-.1-.1-.2-.8 0-.8 3.1-2.2 3.5-5.2 3-8.4-.3-1.5-.5-3-.9-4.5s-.9-2.9-1.4-4.3c-.5-1.4-1.3-2.8-2.1-4.2-.8-1.4-1.5-2.7-2.5-4.1-2.2-3.2-5.1-5.9-8.5-7.4-3.4-1.5-7.5-1.7-11.9.3-4.3 1.9-6.4 5.9-5.2 9.4.9 2.7 2.3 5 3.9 7 1.7 2 3.6 3.8 5.7 5.3 1.2.8 2.3 1.7 3.5 2.5 1.2.8 2.4 1.7 3.6 2.5l7.2 4.8c.3.2.6.5.9.8l-1.1-.1c-1.3 0-2.6-.2-3.9-.1-2.5.2-4.5 1.2-5.8 2.9-.7.8-1.2 1.9-1.4 3-.2 1.1-.3 2.4-.1 3.8.3.5.5 1.8 1.2 2.4zm13.4-29.8c1.2 2.1 1.6 4.7 2.1 7.1.2 1.1.5 2.2.7 3.3.2 1.1.3 2.2.2 3.3-.1 1.3-1.5 2.6-2.6 3.6-.3.3-1.8-.6-2.7-1.1-3.9-2.3-7.7-4.8-11.6-7.3-2.7-1.7-5.1-8.2-3.1-10.4 1.6-1.7 4.3-2.4 5.8-3.1 2.5.1 4.7.3 6.6 1 1.9.7 3.5 1.7 4.6 3.6z" id="path4697"/><path d="M232.3 411.9c.1.4.1.5.1.6-.2 0-.3.1-.5 0-1.5 0-3.5-.8-4.4-.1-1.4 1.1-2 3.2-2.8 4.9-.6 1.3-.6 3.2-1.6 4-.8.7-2.7.3-4 .1-1.7-.3-3.3-.6-4.9-1-1.6-.4-3.2-.8-4.9-1.3-.7-.2-1.2-.7-1.9-1.1.6.1 1.2.1 1.8.3 3.3.9 2.4-2.2 3.1-3.4.9-1.6.6-4.1 1.8-5.3 1-1 3.5-1.1 5.2-.9 3 .4 5.9 1.2 8.7 1.8 1.5.4 2.9 1 4.3 1.4z" id="path4699"/><path d="M153.4 317.1c2 1.7 3.6 2.8 5 4.2 2.7 3 5.6 6.1 8.5 9 .1.1.2.4.3.5-.2-.1-.4-.1-.6-.3-2-2.1-4-3.7-6.6-1-.5.6-1 1.2-1.4 1.9-1.8 3.2-3.6 4.1-6.4.9-1.2-1.4-2.5-2.6-3.8-3.9-1.3-1.3-2.7-2.5-3.9-3.9-.4-.4-.6-1.1-.9-1.7.5.3 1 .9 1.4.8 1.1-.3 2.4-.5 3.3-1.3 1.8-1.4 3.2-3.1 5.1-5.2z" id="path4701"/></g><g id="g4717"><path d="M201.9 220.3c-1.3 1.1-2.1 2.1-3.2 2.6-1.2.6-2.7.7-4.1.9-2.4.5-4.9.9-7.3 1.4-4 .9-8.1 1.7-12 3.1-3.5 1.2-.6 3 .1 4.1.6.8 1.1 1.6 1.7 2.3.6.8 1.2 1.5 1.8 2.3l3.6 4.5c2.4 3 4.8 5.9 7.3 8.7 1.1 1.3 1.4 3.1 2.1 4.7-.5-.2-1.1-.5-1.6-.7-3.8-1.9-7.2-.4-10.7.8-2.9 1-5.8 2.1-8.7 3.3-3.6 1.6-6.9 3.8-10.5 5.1-4.4 1.6-9.2 3.6-13.6 3.4-2.9-.1-5.7-3.8-8.2-6.5-3-3.2-5.6-7.1-8-10.8-.3-.5-.4-1.1-.7-1.6.3.2.8.4 1 .7 1.8 2.1 3.3 4.3 5.3 6.1 3 2.7 6.4 1.8 9.6.3 4.6-2.1 9.1-4.1 13.7-5.9 4.5-1.9 9-3.6 13.7-5.1 2.5-.8 5.3-.9 8-1.3h.4c-.1-.2-.1-.4-.2-.5-1.8-2.3-3.6-4.7-5.3-7.2-2.5-3.7-4.8-7.6-7.2-11.5l-1.2-2.1c-1.9-3-.2-4.9 4.3-5.8 3.3-.6 6.6-1.3 9.8-1.9 3.3-.7 6.5-1.4 9.7-2 4.8-1 5.2-2.5 3.1-7.1-.1-.1 0-.3 0-.4.1.1.3.1.3.2 1.6 3.5 3.4 6.8 5 10.2.4.9.8 1.9 1.1 2.9.1.8.5 1.8.9 2.8z" id="path4705"/><path d="M211.8 184.4c-.4-3.5-1.3-7-2-10.5-1-4.6-1.6-9.1-2.4-13.7-.5-2.4-1-4.9-1.5-7.4-.4-2.4-.9-4.9-1.3-7.4-.2-1-.5-1.9-.8-2.9-.4.6-.6 1.3-1.1 1.9-1.2 1.7-2.4 3.3-3.6 4.9-1.1 1.7-2.3 3.4-3.4 5l-2.7 4c-.9 1.3-1.7 2.7-2.6 4.1-1.7 2.7-3.4 5.4-5.2 8.1-1.3 2.2-2.6 4.3-4 6.4-1.3 2.1-2.8 4.2-3.9 6.5-1.4 2.6-3.2 5.1-3.9 7.8-.5 1.8.8 3.9 1.4 5.8 1.5 4.1 3.2 8 4.8 11.9.1.1.3.2.4.3 0-.2.1-.4 0-.5-1.8-3.3-.8-6.9 2.9-8.1 1.6-.5 3.1-.9 4.7-1.4 1.6-.4 3.2-.8 4.8-1.1 3.2-.7 6.4-1.3 9.5-1.8 1.8-.3 3.7-.3 5.3-.9 1.7-.5 3.3-1.5 4.5-3.7 0-2 .5-4.7.1-7.3zm-12.6-.7c-3.2.3-6.4.6-9.7 1-.2 0-.5 0-.5-.1-.1-.2 0-.4.1-.6l4.5-8.3c1.6-2.7 3.3-5.4 4.9-8.1 2.1-3.5 4.5-6.8 6.8-10.1 0 0 .4 0 .4.1.3 3.6 1.3 7 1.9 10.4.7 3.5 1.1 6.9.3 10.5-.2.7-.3 1.3-.4 1.7-1.1 1.7-2.3 2.5-3.8 2.9-1.3.4-2.9.4-4.5.6z" id="path4707"/><path d="M204.2 287.1c-.1 3-2.3 6.2-5.2 8.3-3 2.1-6.8 3.1-10.1 1.2-2.6-1.5-4.6-4.1-6.8-6.3-1-1-1.9-2-2.8-3.1-.2-.2-.2-.6-.2-.9.2 0 .5 0 .6.1 3.2 1.7 6.7 1.7 9.6.4 1.4-.6 2.7-1.6 3.8-2.8 1.1-1.2 1.8-2.6 2.2-4.3.3-1.3.3-3.2-.5-4-.8-.8-2.8-.9-4.3-1-6.6-.2-11 4.3-16.4 7.2-1.5.8-3.2 1.7-4.8 2.3-1.7.7-3.3 1.2-5 1.5-.7.1-1.6-.4-2.5-1.2-.9-.8-1.7-1.8-2.5-2.6-2.1-2.3-4-4.9-5.9-7.5-.2-.3-.3-.7-.4-1 .3.1.6.1.8.3 2.5 3.1 5.2 1.4 7.6.1l4.2-2.4c1.4-.8 2.8-1.6 4.3-2.4 2.9-1.6 5.7-3 8.7-4.1 2.5-.9 5.9-.1 8.8.5 5.5 1.2 7.1 6 9.8 9.6 2 2.6 4.2 5.1 5.9 7.8.9 1.7.8 3.5 1.1 4.3z" id="path4709"/><path d="M210.8 152.1c.5 4.6 1.6 9.3 2.6 13.8.1.4.4.7.7 1 0-.4.2-.9.1-1.3-.2-1.2.2-2.7.9-4 .7-1.3 1.7-2.3 2.7-2.5 5-1 10.8 2.9 12.5 7.7 1.3 3.6 3.1 7.2 4.7 10.8 1.3 2.9 2.5 5.8 3.8 8.6 1.3 2.8 2.7 5.7 4.2 8.4.1.2.3.4.5.7 0-.3.1-.6 0-.9-.8-1.8-1.7-3.7-2.5-5.5-1.8-4.4-3.4-9-5.1-13.7-1.2-3.2-2.2-6.4-3.3-9.7-1-3.3-2-6.6-3-10 0-.2.4-.7.6-.6 3.8.7 6.2-1.1 8.1-3.8 1.8-2.6 3.4-5.1 4.6-7.9 1.2-2.8 1.9-5.9 2.6-9 .7-3.8.6-7.8-.8-11.3-1.4-3.5-4-6.5-8.6-8.2-4.4-1.6-8.7-.3-10.3 3-.3.6-.6 1.3-.8 1.9-.2.7-.4 1.3-.6 2-.3 1.3-.6 2.6-.7 3.9-.3 2.6-.2 5.2.3 7.8.2 1.4.5 2.9.7 4.3.3 1.4.5 2.9.8 4.3.5 2.8 1.1 5.7 1.7 8.4.1.4.1.8.1 1.2l-.8-.8c-.9-.9-1.7-2-2.7-2.8-1.9-1.6-4.1-2.3-6.2-2.1-2.1.3-4.1 1.6-5.8 3.8-.3.5-1.1 1.5-1 2.5zm30.5-11.6c-.6 2.4-2.2 4.4-3.6 6.5-1.1 1.9-2.3 3.9-4 5.3-1 .8-2.9.8-4.5.7-.4 0-.9-1.7-1.1-2.7-1.1-4.3-2-8.8-3.1-13.3-.8-3.2 2.2-9.4 5.2-9.5 2.4-.1 4.7 1.3 6.3 1.9 3.4 3.6 6 6.9 4.8 11.1z" id="path4711"/><path d="M206.7 245c-.2.3-.3.4-.3.5-.1-.1-.3-.2-.4-.3-1-1.1-2-3.1-3.1-3.2-1.8-.2-3.6.9-5.4 1.5-1.4.5-2.7 1.8-4 1.7-1-.1-2.1-1.7-2.9-2.8-1-1.4-1.9-2.8-2.8-4.2-.9-1.4-1.7-2.9-2.5-4.4-.3-.6-.4-1.4-.5-2.1.3.5.8.9 1 1.4 1.7 3 3.3.1 4.6-.2 1.8-.5 3.4-2.5 5.1-2.5 1.4 0 3.3 1.7 4.3 3 1.8 2.4 3.3 5 4.8 7.4l2.1 4.2z" id="path4713"/><path d="M218 122.3c.2 2.6.6 4.5.5 6.5-.1 2-.1 4.2-.2 6.2-.1 2.1-.1 4.1-.2 6.2 0 .2-.1.4-.2.6-.1-.2-.2-.4-.2-.6.1-2.8-.2-5.4-3.9-5.4-.8 0-1.6.2-2.4.4-3.5 1-5.5.3-5.2-3.9.3-3.6 0-7.2.1-10.9 0-.6.4-1.2.6-1.8.1.5.1 1.3.4 1.5 1 .6 2.1 1.3 3.3 1.4 2.3.1 4.6-.2 7.4-.2z" id="path4715"/></g><g id="g4731"><path d="M320.7 88.1c-1.8-.2-3 0-4.1-.4-1.3-.5-2.4-1.4-3.5-2.2-2-1.4-4.1-2.8-6.1-4.1-1.8-1.1-3.5-2.3-5.3-3.4-1.8-1.1-3.6-2.1-5.4-3-3.3-1.5-2.5 1.7-2.8 3-1.4 7.6-1.9 15.4-2.5 22.8-.1.8-.4 1.6-.8 2.4-.4.8-.8 1.6-1.1 2.4-.2-.6-.4-1.1-.6-1.7-1.3-4-4.8-5.3-8.1-7-2.7-1.4-5.5-2.6-8.4-3.8-1.8-.7-3.7-1.3-5.6-1.9-1.9-.6-3.7-1.2-5.5-2-4.2-2-9-3.9-12-7.2-2-2.1-1.4-6.8-1.2-10.4.1-2.2.3-4.5.7-6.6l1.2-6.6c.1-.5.4-1.1.7-1.6.1.4.3.8.2 1.2-.2 2.7-.7 5.4-.6 8 .2 3.9 3.2 5.8 6.6 7 9.4 3.5 18.4 7.1 27.1 11.5 2.4 1.2 4.4 3.1 6.5 4.7l.3.2c.1-.2.2-.3.2-.5.2-1.5.4-3 .6-4.4.2-1.5.5-2.9.7-4.4.9-4.4 1.9-8.8 3-13.3.2-.8.5-1.5.7-2.3.8-3.4 3.4-3.5 7.1-1 2.8 1.8 5.5 3.7 8.3 5.5 2.8 1.9 5.5 3.7 8.3 5.5 4.1 2.6 5.4 1.8 7.2-2.9 0-.1.2-.2.3-.3 0 .1.2.3.1.4-.7 1.7-1.3 3.6-1.9 5.4l-1.8 5.4c-.6 1.8-1.6 3.6-2.5 5.6z" id="path4719"/><path d="M353.2 69.7c2.2-2.7 4-5.9 6-9 2.6-3.8 5.3-7.5 8-11.4.7-1 1.4-2.1 2.1-3.1l2.1-3c1.4-2 2.8-4.1 4.3-6.2.6-.8 1-1.7 1.5-2.6-.7.2-1.4.5-2.1.6-4 .7-8 1.2-12 2.1-3.1.6-6.3 1.2-9.5 1.9-3.1.7-6.3 1.5-9.4 2.2-2.5.5-4.9 1.1-7.4 1.7-2.5.6-4.9 1.2-7.4 1.8-2.8.8-5.9 1.4-8.3 2.8-1.6 1-2.3 3.3-3.1 5.1-1.8 3.9-3.4 8-4.9 11.9-.1.1.1.3.1.5.1-.1.3-.2.4-.4 1-3.6 4.3-5.5 7.7-3.8 5.8 3.1 11.3 6.7 16.5 10.3 3 2.1 5.4 5.3 10.2 3.7.7-.7 1.6-1.5 2.6-2.3.8-.9 1.8-1.8 2.6-2.8zm-8.4-9.5c-2.4-2.1-5-4.1-7.5-6.1-.1-.1-.3-.4-.3-.5.1-.2.3-.3.5-.4l4.5-1.4 2.3-.7 2.3-.6c3-.8 6.1-1.5 9.1-2.3 4-.9 8-1.5 12-2.3.1 0 .3.3.2.4-2.3 2.8-4 5.9-6 8.8-1 1.5-2 2.8-3.2 4.1-1.2 1.3-2.5 2.5-4 3.5-.6.4-1.2.7-1.5.9-1.9.5-3.4.1-4.7-.7-1.4-.6-2.6-1.7-3.7-2.7z" id="path4721"/><path d="M275.1 137c-2.2 2.1-6 2.8-9.6 2.2-3.6-.6-7-2.6-7.9-6.3-.8-2.9-.3-6.1-.4-9.2 0-1.4.1-2.8.2-4.2 0-.3.3-.5.4-.8.1.2.3.3.4.5 1 3.5 3.6 5.9 6.5 7.1 3 1.2 6.4 1.1 9.2-.7 1.1-.7 2.5-2 2.5-3.1s-1.3-2.6-2.3-3.7c-4.5-4.9-10.8-4.7-16.7-6.5-3.4-1-6.9-2.3-9.7-4.2-1.2-.9-.9-4.1-.8-6.2.1-3.1.7-6.3 1.1-9.5 0-.3.3-.6.4-1 .1.3.4.5.3.8-.5 4 2.7 4.7 5.2 5.4 3.2.9 6.3 1.8 9.4 2.6 3.1.9 6.2 1.9 9 3.2 2.5 1.1 4.3 4.1 5.9 6.6 3 4.7.8 9.3.1 13.7-.5 3.2-.7 6.6-1.3 9.6-.2 1.6-1.5 3-1.9 3.7z" id="path4723"/><path d="M375.3 46.1c-1.4 1.9-2.8 3.8-4.1 5.7-1.3 1.9-2.6 4-3.8 5.9-.2.3-.2.8-.3 1.2.3-.3.7-.5 1-.9.7-1 2.1-1.8 3.5-2.2 1.4-.3 2.9-.3 3.7.3 4.2 2.8 5.5 9.6 3.4 14.3-1.6 3.6-2.9 7.2-4.3 10.9-1.2 3-2.3 5.9-3.4 8.9-1.1 2.9-2.1 5.8-3 8.8-.1.3-.1.6-.1.8.2-.2.5-.4.6-.6.7-1.9 1.4-3.8 2.2-5.6 1.8-4.4 3.9-8.9 6-13.4 1.5-3 3-6.1 4.5-9.1.8-1.5 1.6-3.1 2.4-4.6.8-1.5 1.7-3.1 2.5-4.6.1-.1.8-.2.8 0 2.2 3.1 5.2 3.5 8.4 3 1.5-.3 3-.5 4.5-.9s2.9-.9 4.3-1.4c1.4-.6 2.8-1.3 4.2-2.1 1.4-.8 2.7-1.5 4.1-2.5 3.2-2.2 5.9-5.1 7.4-8.5 1.5-3.4 1.7-7.5-.3-11.9-1.9-4.3-5.9-6.4-9.4-5.2-2.7.9-5 2.3-7 3.9-2 1.7-3.8 3.6-5.3 5.7-.8 1.2-1.7 2.3-2.5 3.5-.8 1.2-1.7 2.4-2.5 3.6l-4.8 7.2c-.2.3-.5.6-.8.9l.1-1.1c0-1.3.2-2.6.1-3.9-.2-2.5-1.2-4.5-2.9-5.8-.8-.7-1.9-1.2-3-1.4-1.1-.2-2.4-.3-3.8-.1-.5.3-1.8.5-2.4 1.2zm29.8 13.4c-2.1 1.2-4.7 1.6-7.1 2.1-1.1.2-2.2.5-3.3.7-1.1.2-2.2.3-3.3.2-1.3-.1-2.6-1.5-3.6-2.6-.3-.3.6-1.8 1.1-2.7 2.3-3.9 4.8-7.7 7.3-11.6 1.7-2.7 8.2-5.1 10.4-3.1 1.7 1.6 2.4 4.3 3.1 5.8-.1 2.5-.3 4.7-1 6.6-.7 1.9-1.7 3.5-3.6 4.6z" id="path4725"/><path d="M306.6 108.9c-.4.1-.5.1-.6.1 0-.2-.1-.3 0-.5 0-1.5.8-3.5.1-4.4-1.1-1.4-3.2-2-4.9-2.8-1.3-.6-3.2-.6-4-1.6-.7-.8-.3-2.7-.1-4 .3-1.7.6-3.3 1-4.9.4-1.6.8-3.2 1.3-4.9.2-.7.7-1.2 1.1-1.9-.1.6-.1 1.2-.3 1.8-.9 3.3 2.2 2.4 3.4 3.1 1.6.9 4.1.6 5.3 1.8 1 1 1.1 3.5.9 5.2-.4 3-1.2 5.9-1.8 8.7-.3 1.6-.9 3-1.4 4.3z" id="path4727"/><path d="M401.4 30.1c-1.7 2-2.8 3.6-4.2 5-3 2.7-6.1 5.6-9 8.5-.1.1-.4.2-.5.3.1-.2.1-.4.3-.6 2.1-2 3.7-4 1-6.6-.6-.5-1.2-1-1.9-1.4-3.2-1.8-4.1-3.6-.9-6.4 1.4-1.2 2.6-2.5 3.9-3.8 1.3-1.3 2.5-2.7 3.9-3.9.4-.4 1.1-.6 1.7-.9-.3.5-.9 1-.8 1.4.3 1.1.5 2.4 1.3 3.3 1.4 1.8 3.2 3.2 5.2 5.1z" id="path4729"/></g><g id="g4745"><path d="M498.3 78.6c-1.1-1.3-2.1-2.1-2.6-3.2-.6-1.2-.7-2.7-.9-4.1-.5-2.4-.9-4.9-1.4-7.3-.9-4-1.7-8.1-3.1-12-1.2-3.5-3-.6-4.1.1-.8.6-1.6 1.1-2.3 1.7-.8.6-1.5 1.2-2.3 1.8l-4.5 3.6c-3 2.4-5.9 4.8-8.7 7.3-1.3 1.1-3.1 1.4-4.7 2.1.2-.5.5-1.1.7-1.6 1.9-3.8.4-7.2-.8-10.7-1-2.9-2.1-5.8-3.3-8.7-1.6-3.6-3.8-6.9-5.1-10.5-1.6-4.4-3.6-9.2-3.4-13.6.1-2.9 3.8-5.7 6.5-8.2 3.2-3 7.1-5.6 10.8-8 .5-.3 1.1-.4 1.6-.7-.2.3-.4.8-.7 1-2.1 1.8-4.3 3.3-6.1 5.3-2.7 3-1.8 6.4-.3 9.6 2.1 4.6 4.1 9.1 5.9 13.7 1.9 4.5 3.6 9 5.1 13.7.8 2.5.9 5.3 1.3 8v.4c.2-.1.4-.1.5-.2 2.3-1.8 4.7-3.6 7.2-5.3 3.7-2.5 7.6-4.8 11.5-7.2l2.1-1.2c3-1.9 4.9-.2 5.8 4.3.6 3.3 1.3 6.6 1.9 9.8.7 3.3 1.4 6.5 2 9.7 1 4.8 2.5 5.2 7.1 3.1.1-.1.3 0 .4 0-.1.1-.1.3-.2.3-3.5 1.6-6.8 3.4-10.2 5-.9.4-1.9.8-2.9 1.1-.8.1-1.8.5-2.8.9z" id="path4733"/><path d="M534.2 88.5c3.5-.4 7-1.3 10.5-2 4.6-1 9.1-1.6 13.7-2.4 2.4-.5 4.9-1 7.4-1.5 2.4-.4 4.9-.9 7.4-1.3 1-.2 1.9-.5 2.9-.8-.6-.4-1.3-.6-1.9-1.1-1.7-1.2-3.3-2.4-4.9-3.6-1.7-1.1-3.4-2.3-5-3.4l-4-2.7c-1.3-.9-2.7-1.7-4.1-2.6-2.7-1.7-5.4-3.4-8.1-5.2-2.2-1.3-4.3-2.6-6.4-4-2.1-1.3-4.2-2.8-6.5-3.9-2.6-1.4-5.1-3.2-7.8-3.9-1.8-.5-3.9.8-5.8 1.4-4.1 1.5-8 3.2-11.9 4.8-.1.1-.2.3-.3.4.2 0 .4.1.5 0 3.3-1.8 6.9-.8 8.1 2.9.5 1.6.9 3.1 1.4 4.7.4 1.6.8 3.2 1.1 4.8.7 3.2 1.3 6.4 1.8 9.5.3 1.8.3 3.7.9 5.3.5 1.7 1.5 3.3 3.7 4.5 2 0 4.7.5 7.3.1zm.7-12.6c-.3-3.2-.6-6.4-1-9.7 0-.2 0-.5.1-.5.2-.1.4 0 .6.1l8.3 4.5c2.7 1.6 5.4 3.3 8.1 4.9 3.5 2.1 6.8 4.5 10.1 6.8 0 0 0 .4-.1.4-3.6.3-7 1.3-10.4 1.9-3.5.7-6.9 1.1-10.5.3-.7-.2-1.3-.3-1.7-.4-1.7-1.1-2.5-2.3-2.9-3.8-.4-1.3-.5-2.9-.6-4.5z" id="path4735"/><path d="M431.5 80.9c-3-.1-6.2-2.3-8.3-5.2-2.1-3-3.1-6.8-1.2-10.1 1.5-2.6 4.1-4.6 6.3-6.8 1-1 2-1.9 3.1-2.8.2-.2.6-.2.9-.2 0 .2 0 .5-.1.6-1.7 3.2-1.7 6.7-.4 9.6.6 1.4 1.6 2.7 2.8 3.8 1.2 1.1 2.6 1.8 4.3 2.2 1.3.3 3.2.3 4-.5.8-.8.9-2.8 1-4.3.2-6.6-4.3-11-7.2-16.4-.8-1.5-1.7-3.2-2.3-4.8-.7-1.7-1.2-3.3-1.5-5-.1-.7.4-1.6 1.2-2.5.8-.9 1.8-1.7 2.6-2.5 2.3-2.1 4.9-4 7.5-5.9.3-.2.7-.3 1-.4-.1.3-.1.6-.3.8-3.1 2.5-1.4 5.2-.1 7.6l2.4 4.2c.8 1.4 1.6 2.8 2.4 4.3 1.6 2.9 3 5.7 4.1 8.7.9 2.5.1 5.9-.5 8.8-1.2 5.5-6 7.1-9.6 9.8-2.6 2-5.1 4.2-7.8 5.9-1.7.9-3.5.8-4.3 1.1z" id="path4737"/><path d="M566.5 87.5c-4.6.5-9.3 1.6-13.8 2.6-.4.1-.7.4-1 .7.4 0 .9.2 1.3.1 1.2-.2 2.7.2 4 .9 1.3.7 2.3 1.7 2.5 2.7 1 5-2.9 10.8-7.7 12.5-3.6 1.3-7.2 3.1-10.8 4.7-2.9 1.3-5.8 2.5-8.6 3.8-2.8 1.3-5.7 2.7-8.4 4.2-.2.1-.4.3-.7.5.3 0 .6.1.9 0 1.8-.8 3.7-1.7 5.5-2.5 4.4-1.8 9-3.4 13.7-5.1 3.2-1.2 6.4-2.2 9.7-3.3 3.3-1 6.6-2 10-3 .2 0 .7.4.6.6-.7 3.8 1.1 6.2 3.8 8.1 2.6 1.8 5.1 3.4 7.9 4.6 2.8 1.2 5.9 1.9 9 2.6 3.8.7 7.8.6 11.3-.8 3.5-1.4 6.5-4 8.2-8.6 1.6-4.4.3-8.7-3-10.3-.6-.3-1.3-.6-1.9-.8-.7-.2-1.3-.4-2-.6-1.3-.3-2.6-.6-3.9-.7-2.6-.3-5.2-.2-7.8.3-1.4.2-2.9.5-4.3.7-1.4.3-2.9.5-4.3.8-2.8.5-5.7 1.1-8.4 1.7-.4.1-.8.1-1.2.1l.8-.8c.9-.9 2-1.7 2.8-2.7 1.6-1.9 2.3-4.1 2.1-6.2-.3-2.1-1.6-4.1-3.8-5.8-.5-.3-1.6-1.1-2.5-1zm11.6 30.5c-2.4-.6-4.4-2.2-6.5-3.6-1.9-1.1-3.9-2.3-5.3-4-.8-1-.8-2.9-.7-4.5 0-.4 1.7-.9 2.7-1.1 4.3-1.1 8.8-2 13.3-3.1 3.2-.8 9.4 2.2 9.5 5.2.1 2.4-1.3 4.7-1.9 6.3-3.7 3.4-6.9 6-11.1 4.8z" id="path4739"/><path d="M473.5 83.4c-.3-.2-.4-.3-.5-.3.1-.1.2-.3.3-.4 1.1-1 3.1-2 3.2-3.1.2-1.8-.9-3.6-1.5-5.4-.5-1.4-1.8-2.7-1.7-4 .1-1 1.7-2.1 2.8-2.9 1.4-1 2.8-1.9 4.2-2.8 1.4-.9 2.9-1.7 4.4-2.5.6-.3 1.4-.4 2.1-.5-.5.3-.9.8-1.4 1-3 1.7-.1 3.3.2 4.6.5 1.8 2.5 3.4 2.5 5.1 0 1.4-1.7 3.3-3 4.3-2.4 1.8-5 3.3-7.4 4.8-1.5.8-2.9 1.5-4.2 2.1z" id="path4741"/><path d="M596.3 94.7c-2.6.2-4.5.6-6.5.5-2-.1-4.2-.1-6.2-.2-2.1-.1-4.1-.1-6.2-.2-.2 0-.4-.1-.6-.2.2-.1.4-.2.6-.2 2.8.1 5.4-.2 5.4-3.9 0-.8-.2-1.6-.4-2.4-1-3.5-.3-5.5 3.9-5.2 3.6.3 7.2 0 10.9.1.6 0 1.2.4 1.8.6-.5.1-1.3.1-1.5.4-.6 1-1.3 2.1-1.4 3.3-.1 2.3.2 4.6.2 7.4z" id="path4743"/></g><g id="g4759"><path d="M630.5 197.4c.2-1.8 0-3 .4-4.1.5-1.3 1.4-2.4 2.2-3.5 1.4-2 2.8-4.1 4.1-6.1 1.1-1.8 2.3-3.5 3.4-5.3 1.1-1.8 2.1-3.6 3-5.4 1.5-3.3-1.7-2.5-3-2.8-7.6-1.4-15.4-1.9-22.8-2.5-.8-.1-1.6-.4-2.4-.8-.8-.4-1.6-.8-2.4-1.1.6-.2 1.1-.4 1.7-.6 4-1.3 5.3-4.8 7-8.1 1.4-2.7 2.6-5.5 3.8-8.4.7-1.8 1.3-3.7 1.9-5.6.6-1.9 1.2-3.7 2-5.5 2-4.2 3.9-9 7.2-12 2.1-2 6.8-1.4 10.4-1.2 2.2.1 4.5.3 6.6.7l6.6 1.2c.5.1 1.1.4 1.6.7-.4.1-.8.3-1.2.2-2.7-.2-5.4-.7-8-.6-3.9.2-5.8 3.2-7 6.6-3.5 9.4-7.1 18.4-11.5 27.1-1.2 2.4-3.1 4.4-4.7 6.5l-.2.3c.2.1.3.2.5.2 1.5.2 3 .4 4.4.6 1.5.2 2.9.5 4.4.7 4.4.9 8.8 1.9 13.3 3 .8.2 1.5.5 2.3.7 3.4.8 3.5 3.4 1 7.1-1.8 2.8-3.7 5.5-5.5 8.3-1.9 2.8-3.7 5.5-5.5 8.3-2.6 4.1-1.8 5.4 2.9 7.2.1 0 .2.2.3.3-.1 0-.3.2-.4.1-1.7-.7-3.6-1.3-5.4-1.9l-5.4-1.8c-1.8-.6-3.6-1.6-5.6-2.5z" id="path4747"/><path d="M648.9 229.9c2.7 2.2 5.9 4 9 6 3.8 2.6 7.5 5.3 11.4 8 1 .7 2.1 1.4 3.1 2.1l3 2.1c2 1.4 4.1 2.8 6.2 4.3.8.6 1.7 1 2.6 1.5-.2-.7-.5-1.4-.6-2.1-.7-4-1.2-8-2.1-12-.6-3.1-1.2-6.3-1.9-9.5-.7-3.1-1.5-6.3-2.2-9.4-.5-2.5-1.1-4.9-1.7-7.4-.6-2.5-1.2-4.9-1.8-7.4-.8-2.8-1.4-5.9-2.8-8.3-1-1.6-3.3-2.3-5.1-3.1-3.9-1.8-8-3.4-11.9-4.9-.1-.1-.3.1-.5.1.1.1.2.3.4.4 3.6 1 5.5 4.3 3.8 7.7-3.1 5.8-6.7 11.3-10.3 16.5-2.1 3-5.3 5.4-3.7 10.2.7.7 1.5 1.6 2.3 2.6.9.8 1.7 1.8 2.8 2.6zm9.4-8.4c2.1-2.4 4.1-5 6.1-7.5.1-.1.4-.3.5-.3.2.1.3.3.4.5l1.4 4.5.7 2.3.6 2.3c.8 3 1.5 6.1 2.3 9.1.9 4 1.5 8 2.3 12 0 .1-.3.3-.4.2-2.8-2.3-5.9-4-8.8-6-1.5-1-2.8-2-4.1-3.2-1.3-1.2-2.5-2.5-3.5-4-.4-.6-.7-1.2-.9-1.5-.5-1.9-.1-3.4.7-4.7.7-1.4 1.7-2.6 2.7-3.7z" id="path4749"/><path d="M581.6 151.8c-2.1-2.2-2.8-6-2.2-9.6.6-3.6 2.6-7 6.3-7.9 2.9-.8 6.1-.3 9.2-.4 1.4 0 2.8.1 4.2.2.3 0 .5.3.8.4-.2.1-.3.3-.5.4-3.5 1-5.9 3.6-7.1 6.5-1.2 3-1.1 6.4.7 9.2.7 1.1 2 2.5 3.1 2.5s2.6-1.3 3.7-2.3c4.9-4.5 4.7-10.8 6.5-16.7 1-3.4 2.3-6.9 4.2-9.7.9-1.2 4.1-.9 6.2-.8 3.1.1 6.3.7 9.5 1.1.3 0 .6.3 1 .4-.3.1-.5.4-.8.3-4-.5-4.7 2.7-5.4 5.2-.9 3.2-1.8 6.3-2.6 9.4-.9 3.1-1.9 6.2-3.2 9-1.1 2.5-4.1 4.3-6.6 5.9-4.7 3-9.3.8-13.7.1-3.2-.5-6.6-.7-9.6-1.3-1.6-.2-3-1.5-3.7-1.9z" id="path4751"/><path d="M672.4 252c-1.9-1.4-3.8-2.8-5.7-4.1-1.9-1.3-4-2.6-5.9-3.8-.3-.2-.8-.2-1.2-.3.3.3.5.7.9 1 1 .7 1.8 2.1 2.2 3.5.3 1.4.3 2.9-.3 3.7-2.8 4.2-9.6 5.5-14.3 3.4-3.6-1.6-7.2-2.9-10.9-4.3-3-1.2-5.9-2.3-8.9-3.4-2.9-1.1-5.8-2.1-8.8-3-.3-.1-.6-.1-.8-.1.2.2.4.5.6.6 1.9.7 3.8 1.4 5.6 2.2 4.4 1.8 8.9 3.9 13.4 6 3 1.5 6.1 3 9.1 4.5 1.5.8 3.1 1.6 4.6 2.4 1.5.8 3.1 1.7 4.6 2.5.1.1.2.8 0 .8-3.1 2.2-3.5 5.2-3 8.4.3 1.5.5 3 .9 4.5s.9 2.9 1.4 4.3c.5 1.4 1.3 2.8 2.1 4.2.8 1.4 1.5 2.7 2.5 4.1 2.2 3.2 5.1 5.9 8.5 7.4 3.4 1.5 7.5 1.7 11.9-.3 4.3-1.9 6.4-5.9 5.2-9.4-.9-2.7-2.3-5-3.9-7-1.7-2-3.6-3.8-5.7-5.3-1.2-.8-2.3-1.7-3.5-2.5-1.2-.8-2.4-1.7-3.6-2.5l-7.2-4.8c-.3-.2-.6-.5-.9-.8l1.1.1c1.3 0 2.6.2 3.9.1 2.5-.2 4.5-1.2 5.8-2.9.7-.8 1.2-1.9 1.4-3 .2-1.1.3-2.4.1-3.8-.2-.5-.4-1.8-1.2-2.4zm-13.3 29.8c-1.2-2.1-1.6-4.7-2.1-7.1-.2-1.1-.5-2.2-.7-3.3-.2-1.1-.3-2.2-.2-3.3.1-1.3 1.5-2.6 2.6-3.6.3-.3 1.8.6 2.7 1.1 3.9 2.3 7.7 4.8 11.6 7.3 2.7 1.7 5.1 8.2 3.1 10.4-1.6 1.7-4.3 2.4-5.8 3.1-2.5-.1-4.7-.3-6.6-1-1.9-.7-3.5-1.8-4.6-3.6z" id="path4753"/><path d="M609.6 183.3c-.1-.4-.1-.5-.1-.6.2 0 .3-.1.5 0 1.5 0 3.5.8 4.4.1 1.4-1.1 2-3.2 2.8-4.9.6-1.3.6-3.2 1.6-4 .8-.7 2.7-.3 4-.1 1.7.3 3.3.6 4.9 1 1.6.4 3.2.8 4.9 1.3.7.2 1.2.7 1.9 1.1-.6-.1-1.2-.1-1.8-.3-3.3-.9-2.4 2.2-3.1 3.4-.9 1.6-.6 4.1-1.8 5.3-1 1-3.5 1.1-5.2.9-3-.4-5.9-1.2-8.7-1.8-1.5-.3-2.9-.9-4.3-1.4z" id="path4755"/><path d="M688.5 278.1c-2-1.7-3.6-2.8-5-4.2-2.7-3-5.6-6.1-8.5-9-.1-.1-.2-.4-.3-.5.2.1.4.1.6.3 2 2.1 4 3.7 6.6 1 .5-.6 1-1.2 1.4-1.9 1.8-3.2 3.6-4.1 6.4-.9 1.2 1.4 2.5 2.6 3.8 3.9 1.3 1.3 2.7 2.5 3.9 3.9.4.4.6 1.1.9 1.7-.5-.3-1-.9-1.4-.8-1.1.3-2.4.5-3.3 1.3-1.8 1.4-3.2 3.2-5.1 5.2z" id="path4757"/></g></g></g></g></svg>