<svg xmlns="http://www.w3.org/2000/svg" id="Layer_1" viewBox="0 0 551.16099 551.16102" width="551.161" height="551.161"><defs id="defs732"><style id="style730">path{fill:#fff}</style></defs><g id="g834" transform="translate(-145.32 -22.02)" fill="#fff"><g id="g832"><g id="g830"><g id="g744"><path d="M649.6 367.9c-.6-1.2-.1-2.7.8-3.2 1.7-.7 3.4-1.5 5-2.4 2.3-1.1 4.6-2.3 6.8-3.5.2-.1.6-.2.7-.1.6.7 1.3 1.4 1.8 2.1.4.6.5 1.4.7 2.1.3 1 .1 2.1-.7 2.7-1.2.9-2.5 1.7-3.9 2.4-1.2.6-2.5 1-3.7 1.5-2 .8-4.1 1.6-6.2 2.3l-3.6 1.2c-.7.2-1.4.5-2.1.8l-.9.3c-.3.1-.5.3-.7.3-.4.1-.9.2-1.3 0-.5-.2-.4.8-1 .3-.1-.1-.7.3-1 .6-.1.1-.1.3-.2.4-.8.6-1 1.7-.5 2.5.2.3.4.5.6.7 0 .1-.1.2-.1.3.1.3.4.6.5.9.1.2.1.5.1.7.6 1.5 1.3 3 2 4.5.1.3.2.7.3 1.1.3.7.7 1.3 1 2 0 .1-.1.4-.2.4-.4.1-.8.1-1.2.2-1.2.3-2.3.6-3.5.8-1 .2-2 .3-3 .4-1.4.3-2.7.5-4.1.8-.1 0-.3.1-.4.1.1.1.1.2.2.3v.3h-.1c0-.1 0-.1-.1-.2-.3-.2-.5-.7-.9-.2h-.2v-.1c0-.1.1-.1.2-.1h-.3c-1.6.4-2.9 1-3.7 2.3-.6.9-.2 2.4.7 3.2.5.5.9 1.2 1.2 1.8.3.7.5 1.4.7 2.1l-.1.1c-.6 0-.6.4-.5.8.2.5.3 1 .5 1.4 0 .1 0 .2-.1.2-1.4.4-2.3 1.3-3.2 2.2-.9.8-1.4 1.7-1.7 2.6-.3 1-.4 2-.1 3.2.2.9.6 1.8.9 2.8.5 1.6 1.1 3.3 1.6 4.9.1.4.1.7-.5.7h-2.8c-.9 0-1.9 0-2.8.1-.4 0-1.1-.2-1.2.5 0 0-.1 0-.2.1 0 0 0-.1-.1-.1l-.2-.2c-.2 0-.4.2-.6.2-1.2-.2-2.2 1.1-2.1 2.1.1.7.2 1.5.4 2.2.4 1.9.8 3.9 1.2 5.8.1.3.3.6.3.9v1.9c0 .2-.2.5-.4.5h-7.8c-1.3.1-2.2.7-2.6 1.7-.3.8-.4 1.9-.3 2.8.2 1.9.5 3.9.7 5.9.2 1.9.4 3.8.5 5.7 0 .2-.3.5-.4.5-.8-.1-1.6-.2-2.3-.4l-3.3-.6c-.7-.1-1.5-.1-2.2-.2-1.1-.2-2.2-.4-3.3-.5-1-.2-2-.3-3-.5-.6-.1-1.2-.4-1.7-.4-.9.1-1.9-.2-2.8.3-.9.4-1.4 1-1.8 1.7-1 1.8-.5 4-.7 6.1-.1 1.4-.1 2.8-.1 4.2 0 1.1.2 2.3.3 3.5 0 .1.1.1.2.2.1-.1.2-.1.2-.2.1-.7.2-1.4.1-2.1-.3-2.6 1.4-3.7 3-3.7 1.5 0 3.2.3 4.8.6 2.1.4 4.2.7 6.4 1.1 1.4.2 2.8.4 4.2.8 2.2.5 4.4 1.1 6.6 1.6.6.1.6.5.3.8-1.1 1-2.2 2-3.2 3-.3.3-.5.7-.5 1.1.1 1.8.1 3.6.1 5.4 0 1-.2 2-.2 3 0 .7.1 1.4.1 2.1 0 .1.1.2.1.2l.1-.1c.7-.6 1.3-1.3 2-1.9.4-.4.9-.8 1.4-1.2 1.3-1.1 2.5-2.4 3.7-3.6 1-1 1.9-2.1 2.9-3.2l3.8-3.8c.2-.2.5-.3.7-.3.9 0 1.9.2 2.8.2 2.6.1 5.2.2 7.9.1 2.3-.1 4.6-.2 6.8-.6 1.7-.3 3.3-1.2 4.8-2 1.1-.6 2.1-1.5 2.9-2.4 1.3-1.7 2.2-3.6 1.9-5.8-.1-.8-.1-1.6-.2-2.4-.2-1-.4-1.9-.6-2.8-.4-2-.9-3.9-1.3-5.9-.1-.3-.3-.5-.4-.8 0 .3-.1.6-.1.9v.1c.7 2.6.2 4.9-1.8 6.8-1.4 1.3-2.9 2.4-4.8 2.9-.7.2-1.4.5-2.1.7-.7.2-1.4.2-2.1.2-1.6.2-3.1.3-4.7.4-.3 0-.9-.3-.9-.5-.3-1.9-.5-3.8-.9-5.7-.5-2.3-1.2-4.6-1.7-6.8-.2-.8-.4-1.6-.5-2.4l-.6-2.4c-.1-.3-.5-.8-.7-.8-1.6-.1-3.1 0-4.7-.1H621c-.7-.1-1.4-.2-2.1-.4-.1 0-.2-.1-.3-.2-.5-.8 0-2.7.8-2.9 1.3-.3 2.7-.5 4-.7.8-.1 1.7-.2 2.5-.2.3 0 .7.2 1.1.2.8.1 1.6.1 2.4.1 2.3 0 4.7.1 7-.1l2.4-.3c.8-.1 1.5-.3 2.3-.4 1.5-.3 3.1-.6 4.6-1 1.4-.3 2.9-.8 3.9-2 .9-1 1.4-2.2 1.9-3.5.5-1.2.4-2.5.4-3.7 0-2.4-.9-4.5-1.7-6.7-.2-.5-.5-.9-.6-1.4-.4-1.7-.9-3.4-2-4.9-.1-.1-.3-.1-.4-.1v.4c.3.9.7 1.9 1 2.8.5 1.6-.1 3.1-.5 4.5-.4 1.2-1 2.4-2.3 3-.2.1-.7 0-.7 0-.5-1.5-1-3-1.5-4.6-.5-1.4-1-2.7-1.5-4.1-.5-1.2-1-2.3-2.3-3-.2-.1-.5-.1-.7-.3-.5-.4-1-.9-1.6-1.2-.6-.3-1.3-.4-1.9-.5-.5-.1-.9-.2-1.4-.2-.9 0-1.7-.1-2.6-.1h-.2v-.2c.2-.2.5-.6.8-.7 1.4-.4 2.8-.9 4.2-1.1 2.8-.5 5.8-1 8.7-1.5 1.2-.2 2.4-.5 3.5-.7l4.8-.9h.6v.5c-.4 1-.7 1.9-.1 3.1.7 1.4 1 2.9 1.6 4.4.5 1.4 1.1 2.9 1.6 4.4 0 .1.1.2.2.3l.3-.3c.4-1 .8-2 1.3-3 1-2 2-3.9 3.1-5.8 1.1-2 2-4.1 3-6.2.2-.4.6-1 1.1-1.1 2-.8 4.1-1.4 6.2-2.2 3.3-1.1 6.2-2.8 9.1-4.6 2.2-1.4 3.6-3.3 3.5-6 0-.6-.1-1.2-.1-1.8-.1-.6-.2-1.2-.4-1.8-.3-.9-1-1.7-1.5-2.5-1.2-1.9-2.5-3.9-3.7-5.7-.1-.2-.3-.4-.4-.6-.1-.1-.2-.1-.3-.1 0 .1-.1.2-.1.3.2.9.5 1.8.7 2.7.3 1.3 0 2.7-.8 3.6-.5.6-1.2 1.1-1.8 1.6-.7.5-1.4.9-2.1 1.4-1.3.9-2.7 1.7-4.2 2.3-1.3.6-2.6 1-4 1.4 0 0-.2 0-.2-.1-.6-.9-1.2-1.8-1.8-2.8-.1-.1 0-.6.2-.6 1-.5 2.1-1 3.2-1.6.6-.3 1.1-.7 1.6-1.1.3-.2.7-.5 1-.7l.6-.6c.3-.4.9-.8.9-1.3.1-.6-.2-1.3-.2-2 .1-1.9-1.1-3.3-1.8-4.8-.4-1-1.1-2-1.7-2.9-.7-1-1.3-2.1-2-3.1-.5-.6-1-1.3-1.5-1.9-.4-.5-.4-1 .3-1.3.3-.2.6-.5.8-.8 1.1-1.4 1-3.1.3-4.6-.6-1.3-1.6-2.4-2.4-3.5-.3-.4-.7-.6-1.1-.9-.5-.4-1-.7-1.4-1.2-.6-.7-1.1-1.5-1.7-2.2-.1-.1-.2-.1-.4-.2v.4c.6 1.4.7 2.8-.6 3.9-.6.5-1.1.9-1.8 1.3-2 1.2-4 2.3-6 3.3l-2.4 1.2c-.2.1-.3.3-.5.5h-.2c-.2 0-.4-.1-.5 0-.6.3-1.1.6-1.6.8-1.9.9-2.4 2.6-1.3 4.3.7 1.1 1.4 2.2 2.1 3.4l2.7 4.2c.3.5.8.9 1.2 1.4.2.3.1 0 0-.2zm-36.8 75.9c2.2.1 4.4.3 6.5.5 1.2.1 2.5.4 3.8.5 1.4.1 2.9.2 4.3.3.1 0 .3.3.3.4-.6.8-1.2 1.7-1.8 2.5-.4.5-.9 1.1-1.3 1.6-.5.5-.9 1-1.4 1.6-.8.9-1.4 1.8-3 1.4-1.5-.4-3.1-.3-4.7-.4l-2.4-.3c-.9-.2-1.7-.4-2.6-.6-.4-.1-.9-.2-1.3-.3-.1 0-.3-.2-.3-.3 0-.8-.1-1.6-.1-2.4 0-.5-.1-1 0-1.5.1-.6.3-1.1.5-1.6 1-1 2.2-1.5 3.5-1.4zm31-27.4c.6.7.4 1.3-.5 1.5-.5.1-1 .3-1.5.4-.6.2-1.1.4-1.7.5-1.5.3-2.9.5-4.4.7-1.3.2-2.6.4-3.9.4-1.2 0-2.4-.1-3.5-.2-.1 0-.4-.3-.4-.5.1-1.5.8-2.6 1.9-3.5.8-.6 1.4-1.4 2.3-1.9 1.6-.8 3.4-1.1 5.3-.9 1.3.1 2.5.6 3.9.9.8 1 1.7 1.8 2.5 2.6zm16.6-32.6c-.8.8-2.1 1.1-3.3 1.6-1.2.5-2.4.8-3.7 1.2-1 .3-2.1.6-3.1.8-1.5.4-3 .7-4.5 1.1-1.1.3-1.6-.3-1.6-1.7.1-1.6 1.2-2.3 2.8-2.6 2-.5 4.1-1.1 6.1-1.7 2.1-.6 4.2-1.2 6.3-1.9.6-.2 1.2-.5 1.8-.7.2-.1.5-.1.8-.1v.9s0 .1-.1.3c-.5.8-.7 2-1.5 2.8z" id="path734"/><path d="M654.3 332.5c.8 1.3 1.7 2.5 2.7 3.7 1 1.3 2.2 2.6 3.2 4 1.2 1.5 2.4 3 3.7 4.6.9 1.1 1.9 2.3 2.9 3.4.7.8 1.5 1.6 2.2 2.5.8 1 1.6 1.9 2.3 2.9 1 1.3 2 2.7 3.1 4.1.3.3.9.4 1.4.5.1 0 .2-.5.3-.8l.6-2.4c.3-1 .5-2 .8-3 .1-.6.3-1.1.4-1.7l.3-1.7c.1-.5.3-1 .4-1.5.2-1.7.4-3.5.7-5.2.3-1.5.8-2.9 1.3-4.4.2-.7.5-1.5.5-2.2 0-2.4 0-4.9-.3-7.3-.1-.9-.8-1.8-1.4-2.5-.6-.7-1.3-1.2-2-1.9-1.5-1.5-3-2.9-4.5-4.3-.1-.1-.4 0-.6 0-.2 0-.4.1-.6 0-.3-.1-.5-.4-.7-.6l-3.3-3c-.1-.1-.4-.1-.6-.2.1.1.1.3.2.4.3.4.7.9 1 1.3.7.9.8 1.9.2 2.7-.8 1-1.7 2-2.7 2.7-2 1.3-4.2 2.4-6.2 3.5-1.3.7-2.6 1.4-4 2.1-.9.4-1.6.9-2.1 2.1.1.5.3 1.4.8 2.2zm8.8 3.7c1-.5 2.1-.9 3-1.5l5.7-3c.1 0 .3-.1.3 0 .1 0 .1.2.1.3l-.6 4.3c-.3 1.4-.5 2.9-.8 4.3-.5 2.2-1 4.3-1.6 6.5-.2.6-.8.8-1.2.2-1.3-1.4-2.5-2.8-3.8-4.2-.9-.9-1.8-1.8-2.6-2.8-.5-.7-.7-1.5-1-2.1.5-1.1 1.5-1.5 2.5-2z" id="path736"/><path d="M673.4 314.1c.4-1.6.9-3.1 1.2-4.6.1-.7.2-1.5.2-2.2 0-.2-.2-.4-.3-.6-.2.1-.4.2-.5.3-1.4 1.1-2.8 2.1-4.3 3.2-1.5 1-2.9 2.1-4.4 3.1-1.6 1.1-3.1 2.3-4.5 3.4-.9.7-.7 1.3.2 2.1.7.6 1.3 1.3 1.9 2 .1.1 0 .4 0 .4-.2 0-.5.1-.6 0-.7-.5-1.5-1-2-1.6-1.5-1.5-2.9-3.1-4.4-4.7-.9-1-1.9-1.9-2.7-3-1.1-1.4-1.1-2 .2-3.3 1.2-1.2 2.6-2.2 4-3.2 1.7-1.3 3.4-2.6 5.2-3.9 1.6-1.2 3.2-2.3 4.8-3.5.6-.4 1.1-.6 1.8.1.6.6 1.3 1 1.3 1.9 0 0 .1.1.2.1 1.7.3 2.3 1.7 3.5 2.6.8.6 1.5 1.3 2.2 2 1.2 1.2 2.5 2.5 3.7 3.8.5.5.9 1 1.4 1.4 1.2 1 1.6 2.1 1.6 3.6.1 3.1-1 5.9-1.7 8.8 0 .1-.4.2-.5.2-.7-.7-1.3-1.4-1.9-2.1-.5-.6-1.1-1.2-1.6-1.8-.6-.6-1.1-1.3-1.7-1.9l-1.8-1.8c-.4-.3-.4-.6-.5-.8z" id="path738"/><path d="M657.1 345.5h-.5c-.2-.1-.4-.3-.5-.5-.7-1.1-1.6-.7-2.3-.1-1.5 1.4-3.1 2.9-4.9 4.1-.5.3-1.7.2-2.4-.1-.8-.4-1.6-1.2-2.2-1.9-1-1.3-1.9-2.6-2.8-3.9-.6-.8-1.3-1.6-2-2.4-.6-.7-1.1-1.3-1.7-2v-.2l.1.1c.3.3.6.7.9.9 2.1 1.5 3.3 1.3 4.8-.2 1.2-1.2 2.4-2.3 3.7-3.4.6-.5 1.9-.5 2.7.4.3.4.8.8 1.1 1.2 1.7 2.1 3.3 4.4 4.9 6.6.4.6.7.9 1.1 1.4z" id="path740"/><path d="M646.3 447.5c-.2-.2-.4-.3-.4-.5-.2-1.2-1.3-.9-2-1-.9 0-1.7.3-2.6.4-1.8.2-3.5.5-5.2.6-.8.1-1.2-.7-1.3-1.4-.1-1-.4-1.9-.7-2.9-.2-.9-.6-1.7-.8-2.5l-.9-4.2c-.2-.9-.2-1.8-.2-2.7v-.1c.1.1.1.1.1.2l.3 1.2c.4 1.3 1.2 1.8 2.5 1.5.6-.1 1.3 0 1.9 0 1-.1 2.1-.4 3.1-.6 1.2-.1 2.4-.6 3.5.1.4.2.5.9.7 1.4l.9 3.6 1.2 5.7c.1.3.1.6.1.9 0 0-.1.1-.2.3z" id="path742"/></g><g id="g756"><path d="M532.9 508.9c.4-1.2 1.9-1.9 2.9-1.6 1.7.6 3.4 1.3 5.2 1.9 2.4.8 4.8 1.6 7.2 2.3.2.1.6.3.6.5 0 .9-.1 1.9-.3 2.7-.2.7-.6 1.3-1 2-.5.9-1.4 1.6-2.4 1.5-1.5-.2-3-.5-4.5-1-1.2-.4-2.5-1.1-3.7-1.6l-6-2.7c-1.1-.5-2.2-1.1-3.3-1.7-.7-.3-1.3-.6-2-.9-.3-.1-.5-.3-.8-.4-.2-.1-.5-.1-.7-.3-.4-.3-.8-.5-1-.9-.2-.5-.9.3-.9-.5 0-.1-.7-.3-1.1-.4-.1 0-.3.1-.4.1-1-.2-1.9.4-2.2 1.3-.1.3 0 .6-.1 1 0 .1-.3.1-.3.2-.1.3-.2.7-.3 1-.1.2-.3.4-.4.6-.6 1.5-1.2 3.1-1.8 4.6-.1.3-.4.6-.5 1-.3.7-.4 1.5-.7 2.1 0 .1-.3.2-.5.1-.4-.2-.7-.5-1-.8-1-.7-2.1-1.3-3.1-1.9l-2.4-1.8c-1.2-.8-2.3-1.5-3.4-2.3-.1-.1-.2-.1-.4-.2 0 .1 0 .3-.1.4 0 .1-.1.2-.2.2h-.1c0-.1.1-.1.1-.2 0-.4.2-.9-.5-.8 0 0-.1-.1-.2-.1 0 0 0-.1.1-.1h.2c-.1-.1-.1-.2-.2-.2-1.4-.8-2.8-1.2-4.2-.9-1.1.2-1.9 1.4-1.9 2.7 0 .7-.2 1.5-.4 2.2-.2.7-.6 1.3-.9 2 0 0-.1.1-.2 0-.4-.4-.7-.1-.9.3-.2.5-.4.9-.6 1.4 0 .1-.2.1-.2.1-1.2-.7-2.5-.7-3.8-.7-2.4-.2-4.1.7-5.4 2.7-.5.8-.9 1.7-1.3 2.6-.8 1.5-1.5 3.1-2.3 4.6-.2.4-.4.6-.8.1-.7-.7-1.3-1.4-2-2-.7-.7-1.3-1.4-2-2-.3-.3-.6-.9-1.2-.5 0 0-.1 0-.2-.1v-.4c-.2-.1-.4-.1-.5-.3-.7-1-2.3-.8-3 0-.4.6-.9 1.2-1.3 1.9-1.1 1.7-2.2 3.3-3.3 4.9-.2.3-.3.6-.5.9-.4.5-.9.9-1.4 1.4-.1.1-.5.2-.6.1-.7-.6-1.3-1.3-1.9-1.9-.6-.5-1.1-1.1-1.7-1.6-.7-.7-1.3-1.4-2-2-.9-.8-2-1-3-.6-.8.3-1.6 1-2.2 1.8-1.3 1.5-2.4 3.2-3.7 4.7-1.2 1.5-2.4 3-3.6 4.4-.1.1-.5.2-.6.1-.5-.6-.9-1.3-1.4-2-.6-.9-1.3-1.9-1.9-2.8-.4-.6-.9-1.1-1.4-1.7-.7-.9-1.3-1.8-2-2.7-.6-.8-1.2-1.7-1.8-2.5-.3-.5-.6-1.2-1-1.5-.7-.6-1.2-1.5-2.2-1.8-.9-.3-1.7-.4-2.5-.1-2 .6-3.2 2.4-4.7 3.8-1 .9-2.1 1.9-3.1 3-.8.8-1.5 1.8-2.2 2.7v.3h.3c.5-.5 1.1-.9 1.6-1.4 1.6-2 3.5-1.6 4.7-.5 1.1 1.1 2 2.5 2.9 3.8 1.3 1.7 2.5 3.6 3.7 5.3.8 1.2 1.7 2.3 2.5 3.5 1.2 1.9 2.3 3.9 3.5 5.8.4.6.1.8-.3.8-1.5 0-2.9-.1-4.4-.1-.4 0-.9.1-1.1.4-1.2 1.3-2.4 2.6-3.7 3.9-.7.7-1.6 1.3-2.3 2-.5.5-.9 1-1.4 1.6-.1.1 0 .2-.1.3h.1c.9 0 1.8 0 2.7.1.6 0 1.2.1 1.8.2.9 0 1.7.1 2.6.1h2.6c1.4 0 2.9-.2 4.3-.2h5.4c.2 0 .6.1.7.3.6.7 1.2 1.5 1.9 2.2 1.8 1.9 3.5 3.8 5.5 5.6 1.6 1.5 3.3 3.1 5.3 4.4 1.4.9 3.2 1.6 4.9 2.1 1.2.3 2.5.5 3.8.3 2.1-.3 4.1-1 5.4-2.8.5-.6 1.1-1.2 1.5-1.8.6-.8 1.1-1.6 1.6-2.4 1.1-1.7 2.2-3.4 3.2-5.1.1-.2.2-.6.3-.8-.2.2-.5.4-.7.6v.1c-1.3 2.3-3.3 3.7-6.1 3.5-1.9-.1-3.7-.3-5.4-1.3-.6-.4-1.4-.6-2-1-.6-.4-1.1-.9-1.7-1.3l-3.6-3c-.2-.2-.5-.8-.3-1 1.1-1.6 2.4-3.1 3.4-4.7 1.3-2 2.4-4.1 3.6-6.1.8-1.4 1.8-2.7 2.6-4.1.2-.3.2-.9.1-1-1.1-1.2-2.2-2.3-3.3-3.4-.4-.4-.8-.7-1.1-1.1l-1.2-1.8c-.1-.1-.1-.2 0-.3.2-.9 1.8-2 2.6-1.5 1.2.7 2.3 1.6 3.4 2.4.7.5 1.3 1 1.9 1.6.2.2.3.7.6.9.5.6 1.1 1.2 1.6 1.7 1.6 1.6 3.3 3.4 5.1 4.8 1.2 1 2.5 1.9 3.8 2.9.7.5 1.3.9 2 1.4.7.4 1.3.8 2 1.3 1.2.8 2.6 1.4 4.1 1.3 1.3-.1 2.6-.6 3.8-1.2 1.2-.5 2.1-1.4 3-2.2 1.7-1.7 2.5-3.9 3.5-6 .2-.5.3-1 .5-1.4.9-1.5 1.8-3.1 2.1-4.9 0-.1-.1-.2-.2-.4-.1.1-.2.1-.3.2l-1.2 2.7c-.7 1.5-2.2 2.2-3.5 2.9-1.1.6-2.4 1-3.7.5-.2-.1-.5-.5-.5-.5.7-1.4 1.5-2.8 2.1-4.3.6-1.3 1.2-2.6 1.8-4 .5-1.2.9-2.4.5-3.8-.1-.3-.3-.5-.3-.7-.1-.7-.1-1.3-.3-2-.2-.6-.6-1.2-1-1.7-.3-.4-.6-.8-.9-1.1-.6-.6-1.1-1.3-1.7-1.9-.1-.1-.1-.1-.2-.1.1 0 .1-.1.2-.1.3 0 .7-.1 1 .1 1.3.7 2.6 1.3 3.8 2.1 2.4 1.7 4.8 3.5 7.2 5.1 1 .7 2 1.3 3 2 1.3.9 2.7 1.8 4.1 2.7.2.1.3.3.4.4-.1.1-.2.3-.4.4-1 .4-1.9.8-2.2 2.1-.4 1.5-1.3 2.8-2 4.2-.7 1.4-1.3 2.8-2 4.2-.1.1-.1.2-.1.4h.4c1-.4 2-.7 3.1-1.1l6.3-2.1c2.2-.7 4.4-1.4 6.5-2.2.5-.2 1.1-.3 1.5-.1 2 .9 3.9 1.9 5.9 2.8 3.1 1.4 6.4 2.5 9.7 3.3 2.6.6 4.9.2 6.7-1.8.8-.9 1.6-1.9 2.2-3 .4-.8.5-1.8.7-2.8.5-2.3 1-4.5 1.4-6.7 0-.2.1-.5.1-.7 0-.1-.1-.2-.1-.3-.1.1-.2.1-.3.2-.5.8-.9 1.7-1.4 2.4-.7 1.1-1.9 1.9-3.1 1.9-1.6 0-3.3-.3-4.9-.7-1.6-.3-3.1-.7-4.6-1.3-1.3-.5-2.5-1.2-3.8-1.8 0 0-.1-.1-.1-.2.2-1.1.4-2.2.7-3.2 0-.2.4-.4.6-.3 1.1.3 2.2.8 3.4 1.1.6.2 1.3.2 1.9.4.4.1.8.2 1.2.2h.9c.5 0 1.2 0 1.6-.2.5-.4.8-1 1.3-1.5 1.3-1.3 1.5-3.1 2.1-4.7.4-1 .6-2.2.8-3.3.3-1.2.5-2.4.7-3.6.1-.8.2-1.6.3-2.3.1-.6.4-.9 1.2-.7.4.1.8.1 1.2 0 1.8-.3 2.9-1.5 3.4-3.1.5-1.3.6-2.8.8-4.2.1-.5-.1-1-.1-1.4-.1-.6-.2-1.2-.2-1.8.1-.9.3-1.8.4-2.6 0-.1-.1-.3-.1-.4l-.3.3c-.7 1.4-1.6 2.4-3.3 2.3-.7-.1-1.5-.1-2.2-.3l-6.6-1.8c-.9-.3-1.7-.6-2.6-.9-.2-.1-.5 0-.7 0 0 0-.1 0-.1-.1-.1-.1-.2-.3-.3-.4l-1.8-.6c-2-.7-3.6.2-4 2.2l-.9 3.9c-.3 1.6-.7 3.2-1.1 4.8-.1.6-.1 1.2-.2 1.8.2-.8.3-1 .4-1.3zm-79.6 27.7c1.4 1.6 2.8 3.3 4.2 5 .8 1 1.5 2.1 2.3 3.1.9 1.1 1.9 2.1 2.9 3.2.1.1 0 .4-.1.5-1 .2-2 .4-3 .5-1.4.1-2.8.2-4.2.2-1.2.1-2.2.3-3.1-1.1-.8-1.3-2-2.4-3-3.6-.5-.6-1-1.3-1.5-1.9-.5-.7-.9-1.5-1.4-2.2-.2-.4-.5-.8-.7-1.2v-.4c.6-.6 1.1-1.2 1.6-1.8.3-.4.6-.8 1-1.1.5-.3 1-.5 1.5-.8 1.5.2 2.6.6 3.5 1.6zm41.2 2.7c-.1.9-.7 1.1-1.4.6-.4-.3-.9-.5-1.3-.8-.5-.3-1.1-.5-1.6-.9-1.2-.8-2.4-1.7-3.6-2.6-1-.8-2.1-1.6-3-2.4-.9-.8-1.6-1.7-2.4-2.6-.1-.1 0-.5.1-.6 1.1-1 2.4-1.3 3.8-1.2 1 .1 2 0 2.9.3 1.7.5 3.2 1.7 4.4 3.1.8 1 1.4 2.2 2.1 3.5 0 1.2.1 2.4 0 3.6zm34.9-11.4c-1.2-.1-2.3-.8-3.5-1.3-1.2-.5-2.3-1.1-3.4-1.7-.9-.5-1.9-1.1-2.8-1.6l-3.9-2.4c-1-.6-1-1.3.1-2.3 1.2-1.1 2.5-.8 3.8 0 1.8 1.1 3.7 2.1 5.5 3.1 1.9 1.1 3.9 2.2 5.8 3.2.6.3 1.1.5 1.7.7.2.1.4.3.6.5l-.6.6s-.1 0-.3.2c-.9.4-2 1-3 1z" id="path746"/><path d="M561.4 487.3c-.4 1.4-.6 3-.8 4.5-.2 1.7-.3 3.4-.5 5.1-.2 2-.4 3.9-.6 5.9-.2 1.5-.3 2.9-.5 4.4-.1 1.1-.1 2.2-.2 3.3-.1 1.2-.3 2.5-.4 3.7-.2 1.7-.5 3.4-.7 5.1 0 .4.4.9.6 1.3 0 0 .5-.2.7-.3.7-.4 1.4-.9 2.1-1.3.9-.5 1.8-1 2.6-1.6l2.9-1.9c.4-.3 1-.5 1.4-.8 1.4-1.1 2.7-2.2 4.1-3.2 1.3-.9 2.7-1.5 4-2.3.7-.4 1.4-.6 2-1.2 1.7-1.8 3.4-3.5 4.9-5.4.6-.7.7-1.8.8-2.8.1-.9-.1-1.9-.1-2.8 0-2 0-4.2-.1-6.2 0-.1-.3-.3-.4-.5-.1-.1-.4-.2-.4-.4-.1-.3-.1-.6-.1-.9-.1-1.5-.1-3-.2-4.4 0-.2-.2-.4-.3-.5 0 .1-.1.3-.1.4-.1.5-.1 1.1-.2 1.7-.1 1.1-.7 1.9-1.8 2.1-1.2.2-2.6.2-3.8-.1-2.3-.5-4.6-1.3-6.9-1.9-1.4-.4-2.9-.8-4.3-1.4-1-.4-1.8-.5-2.9.1-.1.6-.6 1.4-.8 2.3zm3.5 8.8c1.1.3 2.1.8 3.2 1.1 2.1.7 4.1 1.3 6.1 1.9.1 0 .2.1.3.2 0 .1-.1.2-.2.3l-1.7 1.3-1.8 1.3c-1.2.8-2.4 1.7-3.6 2.5-1.9 1.2-3.8 2.4-5.7 3.5-.6.3-1.1 0-1.1-.7.1-.9.1-1.8.2-2.8l.1-2.8c0-1.3 0-2.6.1-3.8.1-.8.6-1.6.8-2.1 1.3-.7 2.3-.2 3.3.1z" id="path748"/><path d="M587.8 487.8c1.4-.8 2.8-1.5 4.1-2.4.6-.4 1.1-.9 1.7-1.4.1-.1.2-.4.3-.6-.2-.1-.4-.1-.5-.2-1.8-.2-3.5-.5-5.3-.8-1.8-.3-3.5-.6-5.3-.9-1.9-.3-3.8-.6-5.6-.7-1.1-.1-1.4.5-1.3 1.6.1.9 0 1.9-.1 2.8 0 .1-.3.3-.3.3-.2-.1-.4-.3-.5-.5-.1-.8-.3-1.7-.3-2.6 0-2.2.1-4.3.2-6.4 0-1.4 0-2.7.2-4 .2-1.8.6-2.2 2.5-2.2 1.6 0 3.4.3 5.1.5 2.1.3 4.3.6 6.4.9 1.9.3 3.9.6 5.9.9.7.1 1.2.3 1.2 1.3 0 .8.2 1.6-.4 2.3v.2c1 1.4.5 2.8.6 4.3.1 1 .1 2 .1 3v5.3c0 .7-.1 1.3 0 2 .1 1.5-.4 2.6-1.4 3.7-2.1 2.3-4.8 3.5-7.4 5-.1 0-.4-.2-.4-.2 0-1 .1-1.9.1-2.9 0-.8 0-1.6.1-2.4 0-.9.2-1.7.2-2.5v-2.5c-.2-.5 0-.7.1-.9z" id="path750"/><path d="M554 498.4c-.2-.2-.4-.3-.4-.4 0-.2-.1-.5 0-.7.3-1.3-.6-1.7-1.6-1.7-2.1-.1-4.2-.1-6.3-.5-.6-.1-1.3-1.1-1.6-1.8-.3-.9-.3-1.9-.2-2.9.2-1.6.5-3.2.7-4.8l.3-3c.1-.8.2-1.7.2-2.6 0-.1.1-.1.1-.1v.2c0 .4-.1.9 0 1.3.4 2.5 1.4 3.2 3.6 3.2 1.6 0 3.3 0 5 .1.8 0 1.7.9 1.6 2.2-.1.5 0 1.1-.1 1.7-.3 2.7-.7 5.5-1.2 8.2 0 .6 0 1-.1 1.6z" id="path752"/><path d="M474.3 562.9c0-.3 0-.5.1-.6.7-1-.2-1.6-.7-2.1-.6-.6-1.5-1.1-2.2-1.6-1.4-1.1-2.8-2.1-4.2-3.2-.6-.5-.4-1.4.1-2 .6-.8 1.1-1.7 1.6-2.5.4-.8.8-1.6 1.2-2.3.8-1.2 1.6-2.3 2.4-3.5.5-.8 1.2-1.4 1.7-2.1 0 0 .1 0 .1-.1v.2c-.2.4-.4.7-.6 1.1-.6 1.2-.4 2.1.7 2.9.5.4.9.9 1.4 1.3.8.6 1.7 1.1 2.6 1.8.9.7 2.1 1.2 2.4 2.5.1.4-.3 1-.5 1.5-.6 1.1-1.3 2.1-1.9 3.2-1 1.6-2.1 3.3-3.2 4.9-.2.2-.3.5-.6.7 0 0-.2-.1-.4-.1z" id="path754"/></g><g id="g768"><path d="M350.7 526.3c1.2-.6 2.7-.1 3.2.8.7 1.7 1.5 3.4 2.4 5 1.1 2.3 2.3 4.6 3.5 6.8.1.2.2.6.1.7-.7.6-1.4 1.3-2.1 1.8-.6.4-1.4.5-2.1.7-1 .3-2.1.1-2.7-.7-.9-1.2-1.7-2.5-2.4-3.9-.6-1.2-1-2.5-1.5-3.7-.8-2-1.6-4.1-2.3-6.2l-1.2-3.6c-.2-.7-.5-1.4-.8-2.1l-.3-.9c-.1-.3-.3-.5-.3-.7-.1-.4-.2-.9 0-1.3.2-.5-.8-.4-.3-1 .1-.1-.3-.7-.6-1-.1-.1-.3-.1-.4-.2-.6-.8-1.7-1-2.5-.5-.3.2-.5.4-.7.6-.1 0-.2-.1-.3-.1-.3.1-.6.4-.9.5-.2.1-.5.1-.7.1-1.5.6-3 1.3-4.5 2-.3.1-.7.2-1.1.3-.7.3-1.3.7-2 1-.1 0-.4-.1-.4-.2-.1-.4-.1-.8-.2-1.2-.3-1.2-.6-2.3-.8-3.5-.2-1-.3-2-.4-3-.3-1.4-.5-2.7-.8-4.1 0-.1-.1-.3-.1-.4-.1.1-.2.1-.3.2h-.3v-.1c.1 0 .1 0 .2-.1.2-.3.7-.5.2-.9v-.2h.1c.1 0 .1.1.1.2v-.3c-.4-1.6-1-2.9-2.3-3.7-.9-.6-2.4-.2-3.2.7-.5.5-1.2.9-1.8 1.2-.7.3-1.4.5-2.1.7l-.1-.1c0-.6-.4-.6-.8-.5-.5.2-1 .3-1.4.5-.1 0-.2 0-.2-.1-.4-1.4-1.3-2.3-2.2-3.2-.8-.9-1.7-1.4-2.6-1.7-1-.3-2-.4-3.2-.1-.9.2-1.8.6-2.8.9-1.6.5-3.3 1.1-4.9 1.6-.4.1-.7.1-.7-.5V500c0-.9 0-1.9-.1-2.8 0-.4.2-1.1-.5-1.2 0 0 0-.1-.1-.2 0 0 .1 0 .1-.1l.2-.2c0-.2-.2-.4-.2-.6.2-1.2-1.1-2.2-2.1-2.1-.7.1-1.5.2-2.2.4-1.9.4-3.9.8-5.8 1.2-.3.1-.6.3-.9.3h-1.9c-.2 0-.5-.2-.5-.4v-7.8c-.1-1.3-.7-2.2-1.7-2.6-.8-.3-1.9-.4-2.8-.3-1.9.2-3.9.5-5.9.7-1.9.2-3.8.4-5.7.5-.2 0-.5-.3-.5-.4.1-.8.2-1.6.4-2.3l.6-3.3c.1-.7.1-1.5.2-2.2.2-1.1.4-2.2.5-3.3.2-1 .3-2 .5-3 .1-.6.4-1.2.4-1.7-.1-.9.2-1.9-.3-2.8-.4-.9-1-1.4-1.7-1.8-1.8-1-4-.5-6.1-.7-1.4-.1-2.8-.1-4.2-.1-1.1 0-2.3.2-3.5.3-.1 0-.1.1-.2.2.1.1.1.2.2.2.7.1 1.4.2 2.1.1 2.6-.3 3.7 1.4 3.7 3 0 1.5-.3 3.2-.6 4.8-.4 2.1-.7 4.2-1.1 6.4-.2 1.4-.4 2.8-.8 4.2-.5 2.2-1.1 4.4-1.6 6.6-.1.6-.5.6-.8.3-1-1.1-2-2.2-3-3.2-.3-.3-.7-.5-1.1-.5-1.8.1-3.6.1-5.4.1-1 0-2-.2-3-.2-.7 0-1.4.1-2.1.1-.1 0-.2.1-.2.1l.1.1c.6.7 1.3 1.3 1.9 2 .4.4.8.9 1.2 1.4 1.1 1.3 2.4 2.5 3.6 3.7 1 1 2.1 1.9 3.2 2.9l3.8 3.8c.2.2.3.5.3.7 0 .9-.2 1.9-.2 2.8-.1 2.6-.2 5.2-.1 7.9.1 2.3.2 4.6.6 6.8.3 1.7 1.2 3.3 2 4.8.6 1.1 1.5 2.1 2.4 2.9 1.7 1.3 3.6 2.2 5.8 1.9.8-.1 1.6-.1 2.4-.2 1-.2 1.9-.4 2.8-.6 2-.4 3.9-.9 5.9-1.3.3-.1.5-.3.8-.4-.3 0-.6-.1-.9-.1h-.1c-2.6.7-4.9.2-6.8-1.8-1.3-1.4-2.4-2.9-2.9-4.8-.2-.7-.5-1.4-.7-2.1-.2-.7-.2-1.4-.2-2.1-.2-1.6-.3-3.1-.4-4.7 0-.3.3-.9.5-.9 1.9-.3 3.8-.5 5.7-.9 2.3-.5 4.6-1.2 6.8-1.7.8-.2 1.6-.4 2.4-.5l2.4-.6c.3-.1.8-.5.8-.7.1-1.6 0-3.1.1-4.7v-1.6c.1-.7.2-1.4.4-2.1 0-.1.1-.2.2-.3.8-.5 2.7 0 2.9.8.3 1.3.5 2.7.7 4 .1.8.2 1.7.2 2.5 0 .3-.2.7-.2 1.1-.1.8-.1 1.6-.1 2.4 0 2.3-.1 4.7.1 7l.3 2.4c.1.8.3 1.5.4 2.3.3 1.5.6 3.1 1 4.6.3 1.4.8 2.9 2 3.9 1 .9 2.2 1.4 3.5 1.9 1.2.5 2.5.4 3.7.4 2.4 0 4.5-.9 6.7-1.7.5-.2.9-.5 1.4-.6 1.7-.4 3.4-.9 4.9-2 .1-.1.1-.3.1-.4h-.4c-.9.3-1.9.7-2.8 1-1.6.5-3.1-.1-4.5-.5-1.2-.4-2.4-1-3-2.3-.1-.2 0-.7 0-.7 1.5-.5 3-1 4.6-1.5 1.4-.5 2.7-1 4.1-1.5 1.2-.5 2.3-1 3-2.3.1-.2.1-.5.3-.7.4-.5.9-1 1.2-1.6.3-.6.4-1.3.5-1.9.1-.5.2-.9.2-1.4 0-.9.1-1.7.1-2.6v-.2h.2c.2.2.6.5.7.8.4 1.4.9 2.8 1.1 4.2.5 2.8 1 5.8 1.5 8.7.2 1.2.5 2.4.7 3.5l.9 4.8v.6h-.5c-1-.4-1.9-.7-3.1-.1-1.4.7-2.9 1-4.4 1.6-1.4.5-2.9 1.1-4.4 1.6-.1 0-.2.1-.3.2l.3.3c1 .4 2 .8 3 1.3 2 1 3.9 2 5.8 3.1 2 1.1 4.1 2 6.2 3 .4.2 1 .6 1.1 1.1.8 2 1.4 4.1 2.2 6.2 1.1 3.3 2.8 6.2 4.6 9.1 1.4 2.2 3.3 3.6 6 3.5.6 0 1.2-.1 1.8-.1.6-.1 1.2-.2 1.8-.4.9-.3 1.7-1 2.5-1.5 1.9-1.2 3.9-2.5 5.7-3.7.2-.1.4-.3.6-.4.1-.1.1-.2.1-.3-.1 0-.2-.1-.3-.1-.9.2-1.8.5-2.7.7-1.3.3-2.7 0-3.6-.8-.6-.5-1.1-1.2-1.6-1.8-.5-.7-.9-1.4-1.4-2.1-.9-1.3-1.7-2.7-2.3-4.2-.6-1.3-1-2.6-1.4-4 0 0 0-.2.1-.2.9-.6 1.8-1.2 2.8-1.8.1-.1.6 0 .6.2.5 1 1 2.1 1.6 3.2.3.6.7 1.1 1.1 1.6.2.3.5.7.7 1l.6.6c.4.3.8.9 1.3.9.6.1 1.3-.2 2-.2 1.9.1 3.3-1.1 4.8-1.8 1-.4 2-1.1 2.9-1.7 1-.7 2.1-1.3 3.1-2 .6-.5 1.3-1 1.9-1.5.5-.4 1-.4 1.3.3.2.3.5.6.8.8 1.4 1.1 3.1 1 4.6.3 1.3-.6 2.4-1.6 3.5-2.4.4-.3.6-.7.9-1.1.4-.5.7-1 1.2-1.4.7-.6 1.5-1.1 2.2-1.7.1-.1.1-.2.2-.4h-.4c-1.4.6-2.8.7-3.9-.6-.5-.6-.9-1.1-1.3-1.8-1.2-2-2.3-4-3.3-6l-1.2-2.4c-.1-.2-.3-.3-.5-.5v-.2c0-.2.1-.4 0-.5-.3-.6-.6-1.1-.8-1.6-.9-1.9-2.6-2.4-4.3-1.3-1.1.7-2.2 1.4-3.4 2.1l-4.2 2.7c-.5.3-.9.8-1.4 1.2-.3.2 0 .1.2 0zm-75.9-36.8c-.1 2.2-.3 4.4-.5 6.5-.1 1.2-.4 2.5-.5 3.8-.1 1.4-.2 2.9-.3 4.3 0 .1-.3.3-.4.3-.8-.6-1.7-1.2-2.5-1.8-.5-.4-1.1-.9-1.6-1.3-.5-.5-1-.9-1.6-1.4-.9-.8-1.8-1.4-1.4-3 .4-1.5.3-3.1.4-4.7l.3-2.4c.2-.9.4-1.7.6-2.6.1-.4.2-.9.3-1.3 0-.1.2-.3.3-.3.8 0 1.6-.1 2.4-.1.5 0 1-.1 1.5 0 .6.1 1.1.3 1.6.5 1 1 1.5 2.2 1.4 3.5zm27.3 31c-.7.6-1.3.4-1.5-.5-.1-.5-.3-1-.4-1.5-.2-.6-.4-1.1-.5-1.7-.3-1.5-.5-2.9-.7-4.4-.2-1.3-.4-2.6-.4-3.9 0-1.2.1-2.4.2-3.5 0-.1.3-.4.5-.4 1.5.1 2.6.8 3.5 1.9.6.8 1.4 1.4 1.9 2.3.8 1.6 1.1 3.4.9 5.3-.1 1.3-.6 2.5-.9 3.9-.9.8-1.7 1.7-2.6 2.5zm32.7 16.6c-.8-.8-1.1-2.1-1.6-3.3-.5-1.2-.8-2.4-1.2-3.7-.3-1-.6-2.1-.8-3.1-.4-1.5-.7-3-1.1-4.5-.3-1.1.3-1.6 1.7-1.6 1.6.1 2.3 1.2 2.6 2.8.5 2 1.1 4.1 1.7 6.1.6 2.1 1.2 4.2 1.9 6.3.2.6.5 1.2.7 1.8.1.2.1.5.1.8h-.9s-.1 0-.3-.1c-.8-.5-2.1-.7-2.8-1.5z" id="path758"/><path d="M386.1 531c-1.3.8-2.5 1.7-3.7 2.7-1.3 1-2.6 2.2-4 3.2-1.5 1.2-3 2.4-4.6 3.7-1.1.9-2.3 1.9-3.4 2.9-.8.7-1.6 1.5-2.5 2.2-1 .8-1.9 1.6-2.9 2.3-1.3 1-2.7 2-4.1 3.1-.3.3-.4.9-.5 1.4 0 .1.5.2.8.3l2.4.6c1 .3 2 .5 3 .8.6.1 1.1.3 1.7.4l1.7.3c.5.1 1 .3 1.5.4 1.7.2 3.5.4 5.2.7 1.5.3 2.9.8 4.4 1.3.7.2 1.5.5 2.2.5 2.4 0 4.9 0 7.3-.3.9-.1 1.8-.8 2.5-1.4.7-.6 1.2-1.3 1.9-2 1.5-1.5 2.9-3 4.3-4.5.1-.1 0-.4 0-.6 0-.2-.1-.4 0-.6.1-.3.4-.5.6-.7l3-3.3c.1-.1.1-.4.2-.6-.1.1-.3.1-.4.2-.4.3-.9.7-1.3 1-.9.7-1.9.8-2.7.2-1-.8-2-1.7-2.7-2.7-1.3-2-2.4-4.2-3.5-6.2-.7-1.3-1.4-2.6-2.1-4-.4-.9-.9-1.6-2.1-2.1-.5.1-1.4.3-2.2.8zm-3.7 8.8c.5 1 .9 2.1 1.5 3l3 5.7c0 .1.1.3 0 .3 0 .1-.2.1-.3.1l-4.3-.6c-1.4-.3-2.9-.5-4.3-.8-2.2-.5-4.3-1-6.5-1.6-.6-.2-.8-.8-.2-1.2 1.4-1.3 2.8-2.5 4.2-3.8.9-.9 1.8-1.8 2.8-2.6.7-.5 1.5-.7 2.1-1 1.1.5 1.5 1.5 2 2.5z" id="path760"/><path d="M404.5 550.1c1.6.4 3.1.9 4.6 1.2.7.1 1.5.2 2.2.2.2 0 .4-.2.6-.3-.1-.2-.2-.4-.3-.5-1.1-1.4-2.1-2.8-3.2-4.3-1-1.5-2.1-2.9-3.1-4.4-1.1-1.6-2.3-3.1-3.4-4.5-.7-.9-1.3-.7-2.1.2-.6.7-1.3 1.3-2 1.9-.1.1-.4 0-.4 0 0-.2-.1-.5 0-.6.5-.7 1-1.5 1.6-2 1.5-1.5 3.1-2.9 4.7-4.4 1-.9 1.9-1.9 3-2.7 1.4-1.1 2-1.1 3.3.2 1.2 1.2 2.2 2.6 3.2 4 1.3 1.7 2.6 3.4 3.9 5.2 1.2 1.6 2.3 3.2 3.5 4.8.4.6.6 1.1-.1 1.8-.6.6-1 1.3-1.9 1.3 0 0-.1.1-.1.2-.3 1.7-1.7 2.3-2.6 3.5-.6.8-1.3 1.5-2 2.2-1.2 1.2-2.5 2.5-3.8 3.7-.5.5-1 .9-1.4 1.4-1 1.2-2.1 1.6-3.6 1.6-3.1.1-5.9-1-8.8-1.7-.1 0-.2-.4-.2-.5.7-.7 1.4-1.3 2.1-1.9.6-.5 1.2-1.1 1.8-1.6.6-.6 1.3-1.1 1.9-1.7l1.8-1.8c.3-.4.6-.4.8-.5z" id="path762"/><path d="M373.1 533.8v-.5c.1-.2.3-.4.5-.5 1.1-.7.7-1.6.1-2.3-1.4-1.5-2.9-3.1-4.1-4.9-.3-.5-.2-1.7.1-2.4.4-.8 1.2-1.6 1.9-2.2 1.3-1 2.6-1.9 3.9-2.8.8-.6 1.6-1.3 2.4-2 .7-.6 1.3-1.1 2-1.7h.2l-.1.1c-.3.3-.7.6-.9.9-1.5 2.1-1.3 3.3.2 4.8 1.2 1.2 2.3 2.4 3.4 3.7.5.6.5 1.9-.4 2.7-.4.3-.8.8-1.2 1.1-2.1 1.7-4.4 3.3-6.6 4.9-.6.4-.9.7-1.4 1.1z" id="path764"/><path d="M271.1 522.9c.2-.2.3-.4.5-.4 1.2-.2.9-1.3 1-2 0-.9-.3-1.7-.4-2.6-.2-1.8-.5-3.5-.6-5.2-.1-.8.7-1.2 1.4-1.3 1-.1 1.9-.4 2.9-.7.9-.2 1.7-.6 2.5-.8l4.2-.9c.9-.2 1.8-.2 2.7-.2h.1c-.1.1-.1.1-.2.1l-1.2.3c-1.3.4-1.8 1.2-1.5 2.5.1.6 0 1.3 0 1.9.1 1 .4 2.1.6 3.1.1 1.2.6 2.4-.1 3.5-.2.4-.9.5-1.4.7l-3.6.9-5.7 1.2c-.3.1-.6.1-.9.1-.1.1-.2-.1-.3-.2z" id="path766"/></g><g id="g780"><path d="M209.6 409.6c1.2.4 1.9 1.9 1.6 2.9-.6 1.7-1.3 3.4-1.9 5.2-.8 2.4-1.6 4.8-2.3 7.2-.1.2-.3.6-.5.6-.9 0-1.9-.1-2.7-.3-.7-.2-1.3-.6-2-1-.9-.5-1.6-1.4-1.5-2.4.2-1.5.5-3 1-4.5.4-1.2 1.1-2.5 1.6-3.7l2.7-6c.5-1.1 1.1-2.2 1.7-3.3.3-.7.6-1.3.9-2 .1-.3.3-.5.4-.8.1-.2.1-.5.3-.7.3-.4.5-.8.9-1 .5-.2-.3-.9.5-.9.1 0 .3-.7.4-1.1 0-.1-.1-.3-.1-.4.2-1-.4-1.9-1.3-2.2-.3-.1-.6 0-1-.1-.1 0-.1-.3-.2-.3-.3-.1-.7-.2-1-.3-.2-.1-.4-.3-.6-.4-1.5-.6-3.1-1.2-4.6-1.8-.3-.1-.6-.4-1-.5-.7-.3-1.5-.4-2.1-.7-.1 0-.2-.3-.1-.5.2-.4.5-.7.8-1 .7-1 1.3-2.1 1.9-3.1l1.8-2.4c.8-1.2 1.5-2.3 2.3-3.4.1-.1.1-.2.2-.4-.1 0-.3 0-.4-.1-.1 0-.2-.1-.2-.2v-.1c.1 0 .1.1.2.1.4 0 .9.2.8-.5 0 0 .1-.1.1-.2 0 0 .1 0 .1.1v.2c.1-.1.2-.1.2-.2.8-1.4 1.2-2.8.9-4.2-.2-1.1-1.4-1.9-2.7-1.9-.7 0-1.5-.2-2.2-.4-.7-.2-1.3-.6-2-.9 0 0-.1-.1 0-.2.4-.4.1-.7-.3-.9-.5-.2-.9-.4-1.4-.6-.1 0-.1-.2-.1-.2.7-1.2.7-2.5.7-3.8.2-2.4-.7-4.1-2.7-5.4-.8-.5-1.7-.9-2.6-1.3-1.5-.8-3.1-1.5-4.6-2.3-.4-.2-.6-.4-.1-.8.7-.7 1.4-1.3 2-2 .7-.7 1.4-1.3 2-2 .3-.3.9-.6.5-1.2 0 0 0-.1.1-.2h.4c.1-.2.1-.4.3-.5 1-.7.8-2.3 0-3-.6-.4-1.2-.9-1.9-1.3-1.7-1.1-3.3-2.2-4.9-3.3-.3-.2-.6-.3-.9-.5-.5-.4-.9-.9-1.4-1.4-.1-.1-.2-.5-.1-.6.6-.7 1.3-1.3 1.9-1.9.5-.6 1.1-1.1 1.6-1.7.7-.7 1.4-1.3 2-2 .8-.9 1-2 .6-3-.3-.8-1-1.6-1.8-2.2-1.5-1.3-3.2-2.4-4.7-3.7-1.5-1.2-3-2.4-4.4-3.6-.1-.1-.2-.5-.1-.6.6-.5 1.3-.9 2-1.4.9-.6 1.9-1.3 2.8-1.9.6-.4 1.1-.9 1.7-1.4.9-.7 1.8-1.3 2.7-2 .8-.6 1.7-1.2 2.5-1.8.5-.3 1.2-.6 1.5-1 .6-.7 1.5-1.2 1.8-2.2.3-.9.4-1.7.1-2.5-.6-2-2.4-3.2-3.8-4.7-.9-1-1.9-2.1-3-3.1-.8-.8-1.8-1.5-2.7-2.2h-.3v.3c.5.5.9 1.1 1.4 1.6 2 1.6 1.6 3.5.5 4.7-1.1 1.1-2.5 2-3.8 2.9-1.7 1.3-3.6 2.5-5.3 3.7-1.2.8-2.3 1.7-3.5 2.5-1.9 1.2-3.9 2.3-5.8 3.5-.6.4-.8.1-.8-.3 0-1.5.1-2.9.1-4.4 0-.4-.1-.9-.4-1.1-1.3-1.2-2.6-2.4-3.9-3.7-.7-.7-1.3-1.6-2-2.3-.5-.5-1-.9-1.6-1.4-.1-.1-.2 0-.3-.1v.1c0 .9 0 1.8-.1 2.7 0 .6-.1 1.2-.2 1.8 0 .9-.1 1.7-.1 2.6v2.6c0 1.4.2 2.9.2 4.3v5.4c0 .2-.1.6-.3.7-.7.6-1.5 1.2-2.2 1.9-1.9 1.8-3.8 3.5-5.6 5.5-1.5 1.6-3.1 3.3-4.4 5.3-.9 1.4-1.6 3.2-2.1 4.9-.3 1.2-.5 2.5-.3 3.8.3 2.1 1 4.1 2.8 5.4.6.5 1.2 1.1 1.8 1.5.8.6 1.6 1.1 2.4 1.6 1.7 1.1 3.4 2.2 5.1 3.2.2.1.6.2.8.3-.2-.2-.4-.5-.6-.7h-.1c-2.3-1.3-3.7-3.3-3.5-6.1.1-1.9.3-3.7 1.3-5.4.4-.6.6-1.4 1-2 .4-.6.9-1.1 1.3-1.7l3-3.6c.2-.2.8-.5 1-.3 1.6 1.1 3.1 2.4 4.7 3.4 2 1.3 4.1 2.4 6.1 3.6 1.4.8 2.7 1.8 4.1 2.6.3.2.9.2 1 .1 1.2-1.1 2.3-2.2 3.4-3.3.4-.4.7-.8 1.1-1.1l1.8-1.2c.1-.1.2-.1.3 0 .9.2 2 1.8 1.5 2.6-.7 1.2-1.6 2.3-2.4 3.4-.5.7-1 1.3-1.6 1.9-.2.2-.7.3-.9.6-.6.5-1.2 1.1-1.7 1.6-1.6 1.6-3.4 3.3-4.8 5.1-1 1.2-1.9 2.5-2.9 3.8-.5.7-.9 1.3-1.4 2-.4.7-.8 1.3-1.3 2-.8 1.2-1.4 2.6-1.3 4.1.1 1.3.6 2.6 1.2 3.8.5 1.2 1.4 2.1 2.2 3 1.7 1.7 3.9 2.5 6 3.5.5.2 1 .3 1.4.5 1.5.9 3.1 1.8 4.9 2.1.1 0 .2-.1.4-.2-.1-.1-.1-.2-.2-.3l-2.7-1.2c-1.5-.7-2.2-2.2-2.9-3.5-.6-1.1-1-2.4-.5-3.7.1-.2.5-.5.5-.5 1.4.7 2.8 1.5 4.3 2.1 1.3.6 2.6 1.2 4 1.8 1.2.5 2.4.9 3.8.5.3-.1.5-.3.7-.3.7-.1 1.3-.1 2-.3.6-.2 1.2-.6 1.7-1 .4-.3.8-.6 1.1-.9.6-.6 1.3-1.1 1.9-1.7.1-.1.1-.1.1-.2 0 .1.1.1.1.2 0 .3.1.7-.1 1-.7 1.3-1.3 2.6-2.1 3.8-1.7 2.4-3.5 4.8-5.1 7.2-.7 1-1.3 2-2 3-.9 1.3-1.8 2.7-2.7 4.1-.1.2-.3.3-.4.4-.1-.1-.3-.2-.4-.4-.4-1-.8-1.9-2.1-2.2-1.5-.4-2.8-1.3-4.2-2-1.4-.7-2.8-1.3-4.2-2-.1-.1-.2-.1-.4-.1v.4c.4 1 .7 2 1.1 3.1l2.1 6.3c.7 2.2 1.4 4.4 2.2 6.5.2.5.3 1.1.1 1.5-.9 2-1.9 3.9-2.8 5.9-1.4 3.1-2.5 6.4-3.3 9.7-.6 2.6-.2 4.9 1.8 6.7.9.8 1.9 1.6 3 2.2.8.4 1.8.5 2.8.7 2.3.5 4.5 1 6.7 1.4.2 0 .5.1.7.1.1 0 .2-.1.3-.1-.1-.1-.1-.2-.2-.3-.8-.5-1.7-.9-2.4-1.4-1.1-.7-1.9-1.9-1.9-3.1 0-1.6.3-3.3.7-4.9.3-1.6.7-3.1 1.3-4.6.5-1.3 1.2-2.5 1.8-3.8 0 0 .1-.1.2-.1 1.1.2 2.2.4 3.2.7.2 0 .4.4.3.6-.3 1.1-.8 2.2-1.1 3.4-.2.6-.2 1.3-.4 1.9-.1.4-.2.8-.2 1.2v.9c0 .5 0 1.2.2 1.6.4.5 1 .8 1.5 1.3 1.3 1.3 3.1 1.5 4.7 2.1 1 .4 2.2.6 3.3.8 1.2.3 2.4.5 3.6.7.8.1 1.6.2 2.3.3.6.1.9.4.7 1.2-.1.4-.1.8 0 1.2.3 1.8 1.5 2.9 3.1 3.4 1.3.5 2.8.6 4.2.8.5.1 1-.1 1.4-.1.6-.1 1.2-.2 1.8-.2.9.1 1.8.3 2.6.4.1 0 .3-.1.4-.1l-.3-.3c-1.4-.7-2.4-1.6-2.3-3.3.1-.7.1-1.5.3-2.2l1.8-6.6c.3-.9.6-1.7.9-2.6.1-.2 0-.5 0-.7 0 0 0-.1.1-.1.1-.1.3-.2.4-.3l.6-1.8c.7-2-.2-3.6-2.2-4l-3.9-.9c-1.6-.3-3.2-.7-4.8-1.1-.6-.1-1.2-.1-1.8-.2.9.2 1.1.3 1.3.4zM182 330c-1.6 1.4-3.3 2.8-5 4.2-1 .8-2.1 1.5-3.1 2.3-1.1.9-2.1 1.9-3.2 2.9-.1.1-.4 0-.5-.1-.2-1-.4-2-.5-3-.1-1.4-.2-2.8-.2-4.2-.1-1.2-.3-2.2 1.1-3.1 1.3-.8 2.4-2 3.6-3 .6-.5 1.3-1 1.9-1.5.7-.5 1.5-.9 2.2-1.4.4-.2.8-.5 1.2-.7h.4c.6.6 1.2 1.1 1.8 1.6.4.3.8.6 1.1 1 .3.5.5 1 .8 1.5-.2 1.4-.6 2.6-1.6 3.5zm-2.7 41.2c-.9-.1-1.1-.7-.6-1.4.3-.4.5-.9.8-1.3.3-.5.5-1.1.9-1.6.8-1.2 1.7-2.4 2.6-3.6.8-1 1.6-2.1 2.4-3 .8-.9 1.7-1.6 2.6-2.4.1-.1.5 0 .6.1 1 1.1 1.3 2.4 1.2 3.8-.1 1 0 2-.3 2.9-.5 1.7-1.7 3.2-3.1 4.4-1 .8-2.2 1.4-3.5 2.1-1.2 0-2.4.1-3.6 0zm11.4 34.8c.1-1.2.8-2.3 1.3-3.5.5-1.2 1.1-2.3 1.7-3.4.5-.9 1.1-1.9 1.6-2.8l2.4-3.9c.6-1 1.3-1 2.3.1 1.1 1.2.8 2.5 0 3.8-1.1 1.8-2.1 3.7-3.1 5.5-1.1 1.9-2.2 3.9-3.2 5.8-.3.6-.5 1.1-.7 1.7-.1.2-.3.4-.5.6l-.6-.6s0-.1-.2-.3c-.4-.8-1-1.9-1-3z" id="path770"/><path d="M231.3 438c-1.4-.4-3-.6-4.5-.8-1.7-.2-3.4-.3-5.1-.5-2-.2-3.9-.4-5.9-.6-1.5-.2-2.9-.3-4.4-.5-1.1-.1-2.2-.1-3.3-.2-1.2-.1-2.5-.3-3.7-.4-1.7-.2-3.4-.5-5.1-.7-.4 0-.9.4-1.3.6 0 0 .2.5.3.7.4.7.9 1.4 1.3 2.1.5.9 1 1.8 1.6 2.6l1.9 2.9c.3.4.5 1 .8 1.4 1.1 1.4 2.2 2.7 3.2 4.1.9 1.3 1.5 2.7 2.3 4 .4.7.6 1.4 1.2 2 1.8 1.7 3.5 3.4 5.4 4.9.7.6 1.8.7 2.8.8.9.1 1.9-.1 2.8-.1 2 0 4.2 0 6.2-.1.1 0 .3-.3.5-.4.1-.1.2-.4.4-.4.3-.1.6-.1.9-.1 1.5-.1 3-.1 4.4-.2.2 0 .4-.2.5-.3-.1 0-.3-.1-.4-.1-.5-.1-1.1-.1-1.7-.2-1.1-.1-1.9-.7-2.1-1.8-.2-1.2-.2-2.6.1-3.8.5-2.3 1.3-4.6 1.9-6.9.4-1.4.8-2.9 1.4-4.3.4-1 .5-1.8-.1-2.9-.6 0-1.4-.5-2.3-.8zm-8.8 3.5c-.3 1.1-.8 2.1-1.1 3.2-.7 2.1-1.3 4.1-1.9 6.1 0 .1-.1.2-.2.3-.1 0-.2-.1-.3-.2l-1.3-1.7-1.3-1.8c-.8-1.2-1.7-2.4-2.5-3.6-1.2-1.9-2.4-3.8-3.5-5.7-.3-.6 0-1.1.7-1.1.9.1 1.8.1 2.8.2l2.8.1c1.3 0 2.6 0 3.8.1.8.1 1.6.6 2.1.8.7 1.3.2 2.4-.1 3.3z" id="path772"/><path d="M230.8 464.5c.8 1.4 1.5 2.8 2.4 4.1.4.6.9 1.1 1.4 1.7.1.1.4.2.6.3.1-.2.1-.4.2-.5.2-1.8.5-3.5.8-5.3.3-1.8.6-3.5.9-5.3.3-1.9.6-3.8.7-5.6.1-1.1-.5-1.4-1.6-1.3-.9.1-1.9 0-2.8-.1-.1 0-.3-.3-.3-.3.1-.2.3-.4.5-.5.8-.1 1.7-.3 2.6-.3 2.2 0 4.3.1 6.4.2 1.4 0 2.7 0 4 .2 1.8.2 2.2.6 2.2 2.5 0 1.6-.3 3.4-.5 5.1-.3 2.1-.6 4.3-.9 6.4-.3 1.9-.6 3.9-.9 5.9-.1.7-.3 1.2-1.3 1.2-.8 0-1.6.2-2.3-.4h-.2c-1.4 1-2.8.5-4.3.6-1 .1-2 .1-3 .1h-5.3c-.7 0-1.3-.1-2 0-1.5.1-2.6-.4-3.7-1.4-2.3-2.1-3.5-4.8-5-7.4 0-.1.2-.4.2-.4 1 0 1.9.1 2.9.1.8 0 1.6 0 2.4.1.9 0 1.7.2 2.5.2h2.5c.5-.2.7 0 .9.1z" id="path774"/><path d="M220.2 430.7c.2-.2.3-.4.4-.4.2 0 .5-.1.7 0 1.3.3 1.7-.6 1.7-1.6.1-2.1.1-4.2.5-6.3.1-.6 1.1-1.3 1.8-1.6.9-.3 1.9-.3 2.9-.2 1.6.2 3.2.5 4.8.7l3 .3c.8.1 1.7.2 2.6.2.1 0 .1.1.1.1h-.2c-.4 0-.9-.1-1.3 0-2.5.4-3.2 1.4-3.2 3.6 0 1.6 0 3.3-.1 5 0 .8-.9 1.7-2.2 1.6-.5-.1-1.1 0-1.7-.1-2.7-.3-5.5-.7-8.2-1.2-.6 0-1 0-1.6-.1z" id="path776"/><path d="M155.7 351c.3 0 .5 0 .6.1 1 .7 1.6-.2 2.1-.7.6-.6 1.1-1.5 1.6-2.2 1.1-1.4 2.1-2.8 3.2-4.2.5-.6 1.4-.4 2 .1.8.6 1.7 1.1 2.5 1.6.8.4 1.6.8 2.3 1.2 1.2.8 2.3 1.6 3.5 2.4.8.5 1.4 1.2 2.1 1.7 0 0 0 .1.1.1h-.2c-.4-.2-.7-.4-1.1-.6-1.2-.6-2.1-.4-2.9.7-.4.5-.9.9-1.3 1.4-.6.8-1.1 1.7-1.8 2.6-.7.9-1.2 2.1-2.5 2.4-.4.1-1-.3-1.5-.5-1.1-.6-2.1-1.3-3.2-1.9-1.6-1-3.3-2.1-4.9-3.2-.2-.2-.5-.3-.7-.6 0 0 .1-.2.1-.4z" id="path778"/></g><g id="g792"><path d="M192.3 227.4c.6 1.2.1 2.7-.8 3.2-1.7.7-3.4 1.5-5 2.4-2.3 1.1-4.6 2.3-6.8 3.5-.2.1-.6.2-.7.1-.6-.7-1.3-1.4-1.8-2.1-.4-.6-.5-1.4-.7-2.1-.3-1-.1-2.1.7-2.7 1.2-.9 2.5-1.7 3.9-2.4 1.2-.6 2.5-1 3.7-1.5 2-.8 4.1-1.6 6.2-2.3l3.6-1.2c.7-.2 1.4-.5 2.1-.8l.9-.3c.3-.1.5-.3.7-.3.4-.1.9-.2 1.3 0 .5.2.4-.8 1-.3.1.1.7-.3 1-.6.1-.1.1-.3.2-.4.8-.6 1-1.7.5-2.5-.2-.3-.4-.5-.6-.7 0-.1.1-.2.1-.3-.1-.3-.4-.6-.5-.9-.1-.2-.1-.5-.1-.7-.6-1.5-1.3-3-2-4.5-.1-.3-.2-.7-.3-1.1-.3-.7-.7-1.3-1-2 0-.1.1-.4.2-.4.4-.1.8-.1 1.2-.2 1.2-.3 2.3-.6 3.5-.8 1-.2 2-.3 3-.4 1.4-.3 2.7-.5 4.1-.8.1 0 .3-.1.4-.1-.1-.1-.1-.2-.2-.3v-.3h.1c0 .1 0 .1.1.2.3.2.5.7.9.2h.2v.1c0 .1-.1.1-.2.1h.3c1.6-.4 2.9-1 3.7-2.3.6-.9.2-2.4-.7-3.2-.5-.5-.9-1.2-1.2-1.8-.3-.7-.5-1.4-.7-2.1l.1-.1c.6 0 .6-.4.5-.8-.2-.5-.3-1-.5-1.4 0-.1 0-.2.1-.2 1.4-.4 2.3-1.3 3.2-2.2.9-.8 1.4-1.7 1.7-2.6.3-1 .4-2 .1-3.2-.2-.9-.6-1.8-.9-2.8-.5-1.6-1.1-3.3-1.6-4.9-.1-.4-.1-.7.5-.7h2.8c.9 0 1.9 0 2.8-.1.4 0 1.1.2 1.2-.5 0 0 .1 0 .2-.1 0 0 0 .1.1.1l.2.2c.2 0 .4-.2.6-.2 1.2.2 2.2-1.1 2.1-2.1-.1-.7-.2-1.5-.4-2.2-.4-1.9-.8-3.9-1.2-5.8-.1-.3-.3-.6-.3-.9v-1.9c0-.2.2-.5.4-.5h7.8c1.3-.1 2.2-.7 2.6-1.7.3-.8.4-1.9.3-2.8-.2-1.9-.5-3.9-.7-5.9-.2-1.9-.4-3.8-.5-5.7 0-.2.3-.5.4-.5.8.1 1.6.2 2.3.4l3.3.6c.7.1 1.5.1 2.2.2 1.1.2 2.2.4 3.3.5 1 .2 2 .3 3 .5.6.1 1.2.4 1.7.4.9-.1 1.9.2 2.8-.3.9-.4 1.4-1 1.8-1.7 1-1.8.5-4 .7-6.1.1-1.4.1-2.8.1-4.2 0-1.1-.2-2.3-.3-3.5 0-.1-.1-.1-.2-.2-.1.1-.2.1-.2.2-.1.7-.2 1.4-.1 2.1.3 2.6-1.4 3.7-3 3.7-1.5 0-3.2-.3-4.8-.6-2.1-.4-4.2-.7-6.4-1.1-1.4-.2-2.8-.4-4.2-.8-2.2-.5-4.4-1.1-6.6-1.6-.6-.1-.6-.5-.3-.8 1.1-1 2.2-2 3.2-3 .3-.3.5-.7.5-1.1-.1-1.8-.1-3.6-.1-5.4 0-1 .2-2 .2-3 0-.7-.1-1.4-.1-2.1 0-.1-.1-.2-.1-.2l-.1.1c-.7.6-1.3 1.3-2 1.9-.4.4-.9.8-1.4 1.2-1.3 1.1-2.5 2.4-3.7 3.6-1 1-1.9 2.1-2.9 3.2L219 132c-.2.2-.5.3-.7.3-.9 0-1.9-.2-2.8-.2-2.6-.1-5.2-.2-7.9-.1-2.3.1-4.6.2-6.8.6-1.7.3-3.3 1.2-4.8 2-1.1.6-2.1 1.5-2.9 2.4-1.3 1.7-2.2 3.6-1.9 5.8.1.8.1 1.6.2 2.4.2 1 .4 1.9.6 2.8.4 2 .9 3.9 1.3 5.9.1.3.3.5.4.8 0-.3.1-.6.1-.9v-.1c-.7-2.6-.2-4.9 1.8-6.8 1.4-1.3 2.9-2.4 4.8-2.9.7-.2 1.4-.5 2.1-.7.7-.2 1.4-.2 2.1-.2 1.6-.2 3.1-.3 4.7-.4.3 0 .9.3.9.5.3 1.9.5 3.8.9 5.7.5 2.3 1.2 4.6 1.7 6.8.2.8.4 1.6.5 2.4l.6 2.4c.1.3.5.8.7.8 1.6.1 3.1 0 4.7.1h1.6c.7.1 1.4.2 2.1.4.1 0 .2.1.3.2.5.8 0 2.7-.8 2.9-1.3.3-2.7.5-4 .7-.8.1-1.7.2-2.5.2-.3 0-.7-.2-1.1-.2-.8-.1-1.6-.1-2.4-.1-2.3 0-4.7-.1-7 .1l-2.4.3c-.8.1-1.5.3-2.3.4-1.5.3-3.1.6-4.6 1-1.4.3-2.9.8-3.9 2-.9 1-1.4 2.2-1.9 3.5-.5 1.2-.4 2.5-.4 3.7 0 2.4.9 4.5 1.7 6.7.2.5.5.9.6 1.4.4 1.7.9 3.4 2 4.9.1.1.3.1.4.1v-.4c-.3-.9-.7-1.9-1-2.8-.5-1.6.1-3.1.5-4.5.4-1.2 1-2.4 2.3-3 .2-.1.7 0 .7 0 .5 1.5 1 3 1.5 4.6.5 1.4 1 2.7 1.5 4.1.5 1.2 1 2.3 2.3 3 .2.1.5.1.7.3.5.4 1 .9 1.6 1.2.6.3 1.3.4 1.9.5.5.1.9.2 1.4.2.9 0 1.7.1 2.6.1h.2v.2c-.2.2-.5.6-.8.7-1.4.4-2.8.9-4.2 1.1-2.8.5-5.8 1-8.7 1.5-1.2.2-2.4.5-3.5.7l-4.8.9h-.6v-.5c.4-1 .7-1.9.1-3.1-.7-1.4-1-2.9-1.6-4.4-.5-1.4-1.1-2.9-1.6-4.4 0-.1-.1-.2-.2-.3l-.3.3c-.4 1-.8 2-1.3 3-1 2-2 3.9-3.1 5.8-1.1 2-2 4.1-3 6.2-.2.4-.6 1-1.1 1.1-2 .8-4.1 1.4-6.2 2.2-3.3 1.1-6.2 2.8-9.1 4.6-2.2 1.4-3.6 3.3-3.5 6 0 .6.1 1.2.1 1.8.1.6.2 1.2.4 1.8.3.9 1 1.7 1.5 2.5 1.2 1.9 2.5 3.9 3.7 5.7.1.2.3.4.4.6.1.1.2.1.3.1 0-.1.1-.2.1-.3-.2-.9-.5-1.8-.7-2.7-.3-1.3 0-2.7.8-3.6.5-.6 1.2-1.1 1.8-1.6.7-.5 1.4-.9 2.1-1.4 1.3-.9 2.7-1.7 4.2-2.3 1.3-.6 2.6-1 4-1.4 0 0 .2 0 .2.1.6.9 1.2 1.8 1.8 2.8.1.1 0 .6-.2.6-1 .5-2.1 1-3.2 1.6-.6.3-1.1.7-1.6 1.1-.3.2-.7.5-1 .7l-.6.6c-.3.4-.9.8-.9 1.3-.1.6.2 1.3.2 2-.1 1.9 1.1 3.3 1.8 4.8.4 1 1.1 2 1.7 2.9.7 1 1.3 2.1 2 3.1.5.6 1 1.3 1.5 1.9.4.5.4 1-.3 1.3-.3.2-.6.5-.8.8-1.1 1.4-1 3.1-.3 4.6.6 1.3 1.6 2.4 2.4 3.5.3.4.7.6 1.1.9.5.4 1 .7 1.4 1.2.6.7 1.1 1.5 1.7 2.2.1.1.2.1.4.2v-.4c-.6-1.4-.7-2.8.6-3.9.6-.5 1.1-.9 1.8-1.3 2-1.2 4-2.3 6-3.3l2.4-1.2c.2-.1.3-.3.5-.5h.2c.2 0 .4.1.5 0 .6-.3 1.1-.6 1.6-.8 1.9-.9 2.4-2.6 1.3-4.3-.7-1.1-1.4-2.2-2.1-3.4l-2.7-4.2c-.3-.5-.8-.9-1.2-1.4-.2-.3-.1 0 0 .2zm36.8-75.9c-2.2-.1-4.4-.3-6.5-.5-1.2-.1-2.5-.4-3.8-.5-1.4-.1-2.9-.2-4.3-.3-.1 0-.3-.3-.3-.4.6-.8 1.2-1.7 1.8-2.5.4-.5.9-1.1 1.3-1.6.5-.5.9-1 1.4-1.6.8-.9 1.4-1.8 3-1.4 1.5.4 3.1.3 4.7.4l2.4.3c.9.2 1.7.4 2.6.6.4.1.9.2 1.3.3.1 0 .3.2.3.3 0 .8.1 1.6.1 2.4 0 .5.1 1 0 1.5-.1.6-.3 1.1-.5 1.6-1 1-2.2 1.5-3.5 1.4zm-31 27.3c-.6-.7-.4-1.3.5-1.5.5-.1 1-.3 1.5-.4.6-.2 1.1-.4 1.7-.5 1.5-.3 2.9-.5 4.4-.7 1.3-.2 2.6-.4 3.9-.4 1.2 0 2.4.1 3.5.2.1 0 .4.3.4.5-.1 1.5-.8 2.6-1.9 3.5-.8.6-1.4 1.4-2.3 1.9-1.6.8-3.4 1.1-5.3.9-1.3-.1-2.5-.6-3.9-.9-.8-.9-1.7-1.7-2.5-2.6zm-16.6 32.7c.8-.8 2.1-1.1 3.3-1.6 1.2-.5 2.4-.8 3.7-1.2 1-.3 2.1-.6 3.1-.8 1.5-.4 3-.7 4.5-1.1 1.1-.3 1.6.3 1.6 1.7-.1 1.6-1.2 2.3-2.8 2.6-2 .5-4.1 1.1-6.1 1.7-2.1.6-4.2 1.2-6.3 1.9-.6.2-1.2.5-1.8.7-.2.1-.5.1-.8.1v-.9s0-.1.1-.3c.4-.8.7-2.1 1.5-2.8z" id="path782"/><path d="M187.6 262.8c-.8-1.3-1.7-2.5-2.7-3.7-1-1.3-2.2-2.6-3.2-4-1.2-1.5-2.4-3-3.7-4.6-.9-1.1-1.9-2.3-2.9-3.4-.7-.8-1.5-1.6-2.2-2.5-.8-1-1.6-1.9-2.3-2.9-1-1.3-2-2.7-3.1-4.1-.3-.3-.9-.4-1.4-.5-.1 0-.2.5-.3.8l-.6 2.4c-.3 1-.5 2-.8 3-.1.6-.3 1.1-.4 1.7l-.3 1.7c-.1.5-.3 1-.4 1.5-.2 1.7-.4 3.5-.7 5.2-.3 1.5-.8 2.9-1.3 4.4-.2.7-.5 1.5-.5 2.2 0 2.4 0 4.9.3 7.3.1.9.8 1.8 1.4 2.5.6.7 1.3 1.2 2 1.9 1.5 1.5 3 2.9 4.5 4.3.1.1.4 0 .6 0 .2 0 .4-.1.6 0 .3.1.5.4.7.6l3.3 3c.1.1.4.1.6.2-.1-.1-.1-.3-.2-.4-.3-.4-.7-.9-1-1.3-.7-.9-.8-1.9-.2-2.7.8-1 1.7-2 2.7-2.7 2-1.3 4.2-2.4 6.2-3.5 1.3-.7 2.6-1.4 4-2.1.9-.4 1.6-.9 2.1-2.1-.1-.5-.3-1.4-.8-2.2zm-8.8-3.7c-1 .5-2.1.9-3 1.5l-5.7 3c-.1 0-.3.1-.3 0-.1 0-.1-.2-.1-.3l.6-4.3c.3-1.4.5-2.9.8-4.3.5-2.2 1-4.3 1.6-6.5.2-.6.8-.8 1.2-.2 1.3 1.4 2.5 2.8 3.8 4.2.9.9 1.8 1.8 2.6 2.8.5.7.7 1.5 1 2.1-.5 1.1-1.6 1.5-2.5 2z" id="path784"/><path d="M168.5 281.2c-.4 1.6-.9 3.1-1.2 4.6-.1.7-.2 1.5-.2 2.2 0 .2.2.4.3.6.2-.1.4-.2.5-.3 1.4-1.1 2.8-2.1 4.3-3.2 1.5-1 2.9-2.1 4.4-3.1 1.6-1.1 3.1-2.3 4.5-3.4.9-.7.7-1.3-.2-2.1-.7-.6-1.3-1.3-1.9-2-.1-.1 0-.4 0-.4.2 0 .5-.1.6 0 .7.5 1.5 1 2 1.6 1.5 1.5 2.9 3.1 4.4 4.7.9 1 1.9 1.9 2.7 3 1.1 1.4 1.1 2-.2 3.3-1.2 1.2-2.6 2.2-4 3.2-1.7 1.3-3.4 2.6-5.2 3.9-1.6 1.2-3.2 2.3-4.8 3.5-.6.4-1.1.6-1.8-.1-.6-.6-1.3-1-1.3-1.9 0 0-.1-.1-.2-.1-1.7-.3-2.3-1.7-3.5-2.6-.8-.6-1.5-1.3-2.2-2-1.2-1.2-2.5-2.5-3.7-3.8-.5-.5-.9-1-1.4-1.4-1.2-1-1.6-2.1-1.6-3.6-.1-3.1 1-5.9 1.7-8.8 0-.1.4-.2.5-.2.7.7 1.3 1.4 1.9 2.1.5.6 1.1 1.2 1.6 1.8.6.6 1.1 1.3 1.7 1.9l1.8 1.8c.4.3.4.6.5.8z" id="path786"/><path d="M184.8 249.8h.5c.2.1.4.3.5.5.7 1.1 1.6.7 2.3.1 1.5-1.4 3.1-2.9 4.9-4.1.5-.3 1.7-.2 2.4.1.8.4 1.6 1.2 2.2 1.9 1 1.3 1.9 2.6 2.8 3.9.6.8 1.3 1.6 2 2.4.6.7 1.1 1.3 1.7 2v.2l-.1-.1c-.3-.3-.6-.7-.9-.9-2.1-1.5-3.3-1.3-4.8.2-1.2 1.2-2.4 2.3-3.7 3.4-.6.5-1.9.5-2.7-.4-.3-.4-.8-.8-1.1-1.2-1.7-2.1-3.3-4.4-4.9-6.6-.4-.6-.7-.9-1.1-1.4z" id="path788"/><path d="M195.6 147.8c.2.2.4.3.4.5.2 1.2 1.3.9 2 1 .9 0 1.7-.3 2.6-.4 1.8-.2 3.5-.5 5.2-.6.8-.1 1.2.7 1.3 1.4.1 1 .4 1.9.7 2.9.2.9.6 1.7.8 2.5l.9 4.2c.2.9.2 1.8.2 2.7v.1c-.1-.1-.1-.1-.1-.2l-.3-1.2c-.4-1.3-1.2-1.8-2.5-1.5-.6.1-1.3 0-1.9 0-1 .1-2.1.4-3.1.6-1.2.1-2.4.6-3.5-.1-.4-.2-.5-.9-.7-1.4l-.9-3.6-1.2-5.7c-.1-.3-.1-.6-.1-.9 0-.1.1-.2.2-.3z" id="path790"/></g><g id="g804"><path d="M309 86.3c-.4 1.2-1.9 1.9-2.9 1.6-1.7-.6-3.4-1.3-5.2-1.9-2.4-.8-4.8-1.6-7.2-2.3-.2-.1-.6-.3-.6-.5 0-.9.1-1.9.3-2.7.2-.7.6-1.3 1-2 .5-.9 1.4-1.6 2.4-1.5 1.5.2 3 .5 4.5 1 1.2.4 2.5 1.1 3.7 1.6l6 2.7c1.1.5 2.2 1.1 3.3 1.7.7.3 1.3.6 2 .9.3.1.5.3.8.4.2.1.5.1.7.3.4.3.8.5 1 .9.2.5.9-.3.9.5 0 .1.7.3 1.1.4.1 0 .3-.1.4-.1 1 .2 1.9-.4 2.2-1.3.1-.3 0-.6.1-1 0-.1.3-.1.3-.2.1-.3.2-.7.3-1 .1-.2.3-.4.4-.6.6-1.5 1.2-3.1 1.8-4.6.1-.3.4-.6.5-1 .3-.7.4-1.5.7-2.1 0-.1.3-.2.5-.1.4.2.7.5 1 .8 1 .7 2.1 1.3 3.1 1.9l2.4 1.8c1.2.8 2.3 1.5 3.4 2.3.1.1.2.1.4.2 0-.1 0-.3.1-.4 0-.1.1-.2.2-.2h.1c0 .1-.1.1-.1.2 0 .4-.2.9.5.8 0 0 .1.1.2.1 0 0 0 .1-.1.1h-.2c.1.1.1.2.2.2 1.4.8 2.8 1.2 4.2.9 1.1-.2 1.9-1.4 1.9-2.7 0-.7.2-1.5.4-2.2.2-.7.6-1.3.9-2 0 0 .1-.1.2 0 .4.4.7.1.9-.3.2-.5.4-.9.6-1.4 0-.1.2-.1.2-.1 1.2.7 2.5.7 3.8.7 2.4.2 4.1-.7 5.4-2.7.5-.8.9-1.7 1.3-2.6.8-1.5 1.5-3.1 2.3-4.6.2-.4.4-.6.8-.1.7.7 1.3 1.4 2 2 .7.7 1.3 1.4 2 2 .3.3.6.9 1.2.5 0 0 .1 0 .2.1v.4c.2.1.4.1.5.3.7 1 2.3.8 3 0 .4-.6.9-1.2 1.3-1.9 1.1-1.7 2.2-3.3 3.3-4.9.2-.3.3-.6.5-.9.4-.5.9-.9 1.4-1.4.1-.1.5-.2.6-.1.7.6 1.3 1.3 1.9 1.9.6.5 1.1 1.1 1.7 1.6.7.7 1.3 1.4 2 2 .9.8 2 1 3 .6.8-.3 1.6-1 2.2-1.8 1.3-1.5 2.4-3.2 3.7-4.7 1.2-1.5 2.4-3 3.6-4.4.1-.1.5-.2.6-.1.5.6.9 1.3 1.4 2 .6.9 1.3 1.9 1.9 2.8.4.6.9 1.1 1.4 1.7.7.9 1.3 1.8 2 2.7.6.8 1.2 1.7 1.8 2.5.3.5.6 1.2 1 1.5.7.6 1.2 1.5 2.2 1.8.9.3 1.7.4 2.5.1 2-.6 3.2-2.4 4.7-3.8 1-.9 2.1-1.9 3.1-3 .8-.8 1.5-1.8 2.2-2.7v-.3h-.3c-.5.5-1.1.9-1.6 1.4-1.6 2-3.5 1.6-4.7.5-1.1-1.1-2-2.5-2.9-3.8-1.3-1.7-2.5-3.6-3.7-5.3-.8-1.2-1.7-2.3-2.5-3.5-1.2-1.9-2.3-3.9-3.5-5.8-.4-.6-.1-.8.3-.8 1.5 0 2.9.1 4.4.1.4 0 .9-.1 1.1-.4 1.2-1.3 2.4-2.6 3.7-3.9.7-.7 1.6-1.3 2.3-2 .5-.5.9-1 1.4-1.6.1-.1 0-.2.1-.3h-.1c-.9 0-1.8 0-2.7-.1-.6 0-1.2-.1-1.8-.2-.9 0-1.7-.1-2.6-.1h-2.6c-1.4 0-2.9.2-4.3.2h-5.4c-.2 0-.6-.1-.7-.3-.6-.7-1.2-1.5-1.9-2.2-1.8-1.9-3.5-3.8-5.5-5.6-1.6-1.5-3.3-3.1-5.3-4.4-1.4-.9-3.2-1.6-4.9-2.1-1.2-.3-2.5-.5-3.8-.3-2.1.3-4.1 1-5.4 2.8-.5.6-1.1 1.2-1.5 1.8-.6.8-1.1 1.6-1.6 2.4-1.1 1.7-2.2 3.4-3.2 5.1-.1.2-.2.6-.3.8.2-.2.5-.4.7-.6v-.1c1.3-2.3 3.3-3.7 6.1-3.5 1.9.1 3.7.3 5.4 1.3.6.4 1.4.6 2 1 .6.4 1.1.9 1.7 1.3l3.6 3c.2.2.5.8.3 1-1.1 1.6-2.4 3.1-3.4 4.7-1.3 2-2.4 4.1-3.6 6.1-.8 1.4-1.8 2.7-2.6 4.1-.2.3-.2.9-.1 1 1.1 1.2 2.2 2.3 3.3 3.4.4.4.8.7 1.1 1.1l1.2 1.8c.1.1.1.2 0 .3-.2.9-1.8 2-2.6 1.5-1.2-.7-2.3-1.6-3.4-2.4-.7-.5-1.3-1-1.9-1.6-.2-.2-.3-.7-.6-.9-.5-.6-1.1-1.2-1.6-1.7-1.6-1.6-3.3-3.4-5.1-4.8-1.2-1-2.5-1.9-3.8-2.9-.7-.5-1.3-.9-2-1.4-.7-.4-1.3-.8-2-1.3-1.2-.8-2.6-1.4-4.1-1.3-1.3.1-2.6.6-3.8 1.2-1.2.5-2.1 1.4-3 2.2-1.7 1.7-2.5 3.9-3.5 6-.2.5-.3 1-.5 1.4-.9 1.5-1.8 3.1-2.1 4.9 0 .1.1.2.2.4.1-.1.2-.1.3-.2l1.2-2.7c.7-1.5 2.2-2.2 3.5-2.9 1.1-.6 2.4-1 3.7-.5.2.1.5.5.5.5-.7 1.4-1.5 2.8-2.1 4.3-.6 1.3-1.2 2.6-1.8 4-.5 1.2-.9 2.4-.5 3.8.1.3.3.5.3.7.1.7.1 1.3.3 2 .2.6.6 1.2 1 1.7.3.4.6.8.9 1.1.6.6 1.1 1.3 1.7 1.9.1.1.1.1.2.1-.1 0-.1.1-.2.1-.3 0-.7.1-1-.1-1.3-.7-2.6-1.3-3.8-2.1-2.4-1.7-4.8-3.5-7.2-5.1-1-.7-2-1.3-3-2-1.3-.9-2.7-1.8-4.1-2.7-.2-.1-.3-.3-.4-.4.1-.1.2-.3.4-.4 1-.4 1.9-.8 2.2-2.1.4-1.5 1.3-2.8 2-4.2.7-1.4 1.3-2.8 2-4.2.1-.1.1-.2.1-.4h-.4c-1 .4-2 .7-3.1 1.1l-6.3 2.1c-2.2.7-4.4 1.4-6.5 2.2-.5.2-1.1.3-1.5.1-2-.9-3.9-1.9-5.9-2.8-3.1-1.4-6.4-2.5-9.7-3.3-2.6-.6-4.9-.2-6.7 1.8-.8.9-1.6 1.9-2.2 3-.4.8-.5 1.8-.7 2.8-.5 2.3-1 4.5-1.4 6.7 0 .2-.1.5-.1.7 0 .1.1.2.1.3.1-.1.2-.1.3-.2.5-.8.9-1.7 1.4-2.4.7-1.1 1.9-1.9 3.1-1.9 1.6 0 3.3.3 4.9.7 1.6.3 3.1.7 4.6 1.3 1.3.5 2.5 1.2 3.8 1.8 0 0 .1.1.1.2-.2 1.1-.4 2.2-.7 3.2 0 .2-.4.4-.6.3-1.1-.3-2.2-.8-3.4-1.1-.6-.2-1.3-.2-1.9-.4-.4-.1-.8-.2-1.2-.2h-.9c-.5 0-1.2 0-1.6.2-.5.4-.8 1-1.3 1.5-1.3 1.3-1.5 3.1-2.1 4.7-.4 1-.6 2.2-.8 3.3-.3 1.2-.5 2.4-.7 3.6-.1.8-.2 1.6-.3 2.3-.1.6-.4.9-1.2.7-.4-.1-.8-.1-1.2 0-1.8.3-2.9 1.5-3.4 3.1-.5 1.3-.6 2.8-.8 4.2-.1.5.1 1 .1 1.4.1.6.2 1.2.2 1.8-.1.9-.3 1.8-.4 2.6 0 .1.1.3.1.4l.3-.3c.7-1.4 1.6-2.4 3.3-2.3.7.1 1.5.1 2.2.3l6.6 1.8c.9.3 1.7.6 2.6.9.2.1.5 0 .7 0 0 0 .1 0 .1.1.1.1.2.3.3.4l1.8.6c2 .7 3.6-.2 4-2.2l.9-3.9c.3-1.6.7-3.2 1.1-4.8.1-.6.1-1.2.2-1.8-.2.9-.3 1.1-.4 1.3zm79.6-27.6c-1.4-1.6-2.8-3.3-4.2-5-.8-1-1.5-2.1-2.3-3.1-.9-1.1-1.9-2.1-2.9-3.2-.1-.1 0-.4.1-.5 1-.2 2-.4 3-.5 1.4-.1 2.8-.2 4.2-.2 1.2-.1 2.2-.3 3.1 1.1.8 1.3 2 2.4 3 3.6.5.6 1 1.3 1.5 1.9.5.7.9 1.5 1.4 2.2.2.4.5.8.7 1.2v.4c-.6.6-1.1 1.2-1.6 1.8-.3.4-.6.8-1 1.1-.5.3-1 .5-1.5.8-1.5-.2-2.6-.6-3.5-1.6zM347.4 56c.1-.9.7-1.1 1.4-.6.4.3.9.5 1.3.8.5.3 1.1.5 1.6.9 1.2.8 2.4 1.7 3.6 2.6 1 .8 2.1 1.6 3 2.4.9.8 1.6 1.7 2.4 2.6.1.1 0 .5-.1.6-1.1 1-2.4 1.3-3.8 1.2-1-.1-2 0-2.9-.3-1.7-.5-3.2-1.7-4.4-3.1-.8-1-1.4-2.2-2.1-3.5 0-1.2-.1-2.4 0-3.6zm-34.9 11.4c1.2.1 2.3.8 3.5 1.3 1.2.5 2.3 1.1 3.4 1.7.9.5 1.9 1.1 2.8 1.6l3.9 2.4c1 .6 1 1.3-.1 2.3-1.2 1.1-2.5.8-3.8 0-1.8-1.1-3.7-2.1-5.5-3.1-1.9-1.1-3.9-2.2-5.8-3.2-.6-.3-1.1-.5-1.7-.7-.2-.1-.4-.3-.6-.5l.6-.6s.1 0 .3-.2c.9-.4 1.9-1 3-1z" id="path794"/><path d="M280.5 108c.4-1.4.6-3 .8-4.5.2-1.7.3-3.4.5-5.1.2-2 .4-3.9.6-5.9.2-1.5.3-2.9.5-4.4.1-1.1.1-2.2.2-3.3.1-1.2.3-2.5.4-3.7.2-1.7.5-3.4.7-5.1 0-.4-.4-.9-.6-1.3 0 0-.5.2-.7.3-.7.4-1.4.9-2.1 1.3-.9.5-1.8 1-2.6 1.6l-2.9 1.9c-.4.3-1 .5-1.4.8-1.4 1.1-2.7 2.2-4.1 3.2-1.3.9-2.7 1.5-4 2.3-.7.4-1.4.6-2 1.2-1.7 1.8-3.4 3.5-4.9 5.4-.6.7-.7 1.8-.8 2.8-.1.9.1 1.9.1 2.8 0 2 0 4.2.1 6.2 0 .1.3.3.4.5.1.1.4.2.4.4.1.3.1.6.1.9.1 1.5.1 3 .2 4.4 0 .2.2.4.3.5 0-.1.1-.3.1-.4.1-.5.1-1.1.2-1.7.1-1.1.7-1.9 1.8-2.1 1.2-.2 2.6-.2 3.8.1 2.3.5 4.6 1.3 6.9 1.9 1.4.4 2.9.8 4.3 1.4 1 .4 1.8.5 2.9-.1.1-.6.6-1.4.8-2.3zm-3.5-8.8c-1.1-.3-2.1-.8-3.2-1.1-2.1-.7-4.1-1.3-6.1-1.9-.1 0-.2-.1-.3-.2 0-.1.1-.2.2-.3l1.7-1.3 1.8-1.3c1.2-.8 2.4-1.7 3.6-2.5 1.9-1.2 3.8-2.4 5.7-3.5.6-.3 1.1 0 1.1.7-.1.9-.1 1.8-.2 2.8l-.1 2.8c0 1.3 0 2.6-.1 3.8-.1.8-.6 1.6-.8 2.1-1.3.6-2.3.2-3.3-.1z" id="path796"/><path d="M254.1 107.5c-1.4.8-2.8 1.5-4.1 2.4-.6.4-1.1.9-1.7 1.4-.1.1-.2.4-.3.6.2.1.4.1.5.2 1.8.2 3.5.5 5.3.8 1.8.3 3.5.6 5.3.9 1.9.3 3.8.6 5.6.7 1.1.1 1.4-.5 1.3-1.6-.1-.9 0-1.9.1-2.8 0-.1.3-.3.3-.3.2.1.4.3.5.5.1.8.3 1.7.3 2.6 0 2.2-.1 4.3-.2 6.4 0 1.4 0 2.7-.2 4-.2 1.8-.6 2.2-2.5 2.2-1.6 0-3.4-.3-5.1-.5-2.1-.3-4.3-.6-6.4-.9-1.9-.3-3.9-.6-5.9-.9-.7-.1-1.2-.3-1.2-1.3 0-.8-.2-1.6.4-2.3v-.2c-1-1.4-.5-2.8-.6-4.3-.1-1-.1-2-.1-3v-5.3c0-.7.1-1.3 0-2-.1-1.5.4-2.6 1.4-3.7 2.1-2.3 4.8-3.5 7.4-5 .1 0 .4.2.4.2 0 1-.1 1.9-.1 2.9 0 .8 0 1.6-.1 2.4 0 .9-.2 1.7-.2 2.5v2.5c.1.4-.1.7-.1.9z" id="path798"/><path d="M287.9 96.8c.2.2.4.3.4.4 0 .2.1.5 0 .7-.3 1.3.6 1.7 1.6 1.7 2.1.1 4.2.1 6.3.5.6.1 1.3 1.1 1.6 1.8.3.9.3 1.9.2 2.9-.2 1.6-.5 3.2-.7 4.8l-.3 3c-.1.8-.2 1.7-.2 2.6 0 .1-.1.1-.1.1v-.2c0-.4.1-.9 0-1.3-.4-2.5-1.4-3.2-3.6-3.2-1.6 0-3.3 0-5-.1-.8 0-1.7-.9-1.6-2.2.1-.5 0-1.1.1-1.7.3-2.7.7-5.5 1.2-8.2-.1-.5 0-.9.1-1.6z" id="path800"/><path d="M367.6 32.3c0 .3 0 .5-.1.6-.7 1 .2 1.6.7 2.1.6.6 1.5 1.1 2.2 1.6 1.4 1.1 2.8 2.1 4.2 3.2.6.5.4 1.4-.1 2-.6.8-1.1 1.7-1.6 2.5-.4.8-.8 1.6-1.2 2.3-.8 1.2-1.6 2.3-2.4 3.5-.5.8-1.2 1.4-1.7 2.1 0 0-.1 0-.1.1v-.2c.2-.4.4-.7.6-1.1.6-1.2.4-2.1-.7-2.9-.5-.4-.9-.9-1.4-1.3-.8-.6-1.7-1.1-2.6-1.8-.9-.7-2.1-1.2-2.4-2.5-.1-.4.3-1 .5-1.5.6-1.1 1.3-2.1 1.9-3.2 1-1.6 2.1-3.3 3.2-4.9.2-.2.3-.5.6-.7 0 .1.2.2.4.1z" id="path802"/></g><g id="g816"><path d="M491.2 69c-1.2.6-2.7.1-3.2-.8-.7-1.7-1.5-3.4-2.4-5-1.1-2.3-2.3-4.6-3.5-6.8-.1-.2-.2-.6-.1-.7.7-.6 1.4-1.3 2.1-1.8.6-.4 1.4-.5 2.1-.7 1-.3 2.1-.1 2.7.7.9 1.2 1.7 2.5 2.4 3.9.6 1.2 1 2.5 1.5 3.7.8 2 1.6 4.1 2.3 6.2l1.2 3.6c.2.7.5 1.4.8 2.1l.3.9c.1.3.3.5.3.7.1.4.2.9 0 1.3-.2.5.8.4.3 1-.1.1.3.7.6 1 .1.1.3.1.4.2.6.8 1.7 1 2.5.5.3-.2.5-.4.7-.6.1 0 .2.1.3.1.3-.1.6-.4.9-.5.2-.1.5-.1.7-.1 1.5-.6 3-1.3 4.5-2 .3-.1.7-.2 1.1-.3.7-.3 1.3-.7 2-1 .1 0 .4.1.4.2.1.4.1.8.2 1.2.3 1.2.6 2.3.8 3.5.2 1 .3 2 .4 3 .3 1.4.5 2.7.8 4.1 0 .1.1.3.1.4.1-.1.2-.1.3-.2h.3v.1c-.1 0-.1 0-.2.1-.2.3-.7.5-.2.9v.2h-.1c-.1 0-.1-.1-.1-.2v.3c.4 1.6 1 2.9 2.3 3.7.9.6 2.4.2 3.2-.7.5-.5 1.2-.9 1.8-1.2.7-.3 1.4-.5 2.1-.7l.1.1c0 .6.4.6.8.5.5-.2 1-.3 1.4-.5.1 0 .2 0 .2.1.4 1.4 1.3 2.3 2.2 3.2.8.9 1.7 1.4 2.6 1.7 1 .3 2 .4 3.2.1.9-.2 1.8-.6 2.8-.9 1.6-.5 3.3-1.1 4.9-1.6.4-.1.7-.1.7.5v2.8c0 .9 0 1.9.1 2.8 0 .4-.2 1.1.5 1.2 0 0 0 .1.1.2 0 0-.1 0-.1.1l-.2.2c0 .2.2.4.2.6-.2 1.2 1.1 2.2 2.1 2.1.7-.1 1.5-.2 2.2-.4 1.9-.4 3.9-.8 5.8-1.2.3-.1.6-.3.9-.3h1.9c.2 0 .5.2.5.4v7.8c.1 1.3.7 2.2 1.7 2.6.8.3 1.9.4 2.8.3 1.9-.2 3.9-.5 5.9-.7 1.9-.2 3.8-.4 5.7-.5.2 0 .5.3.5.4-.1.8-.2 1.6-.4 2.3l-.6 3.3c-.1.7-.1 1.5-.2 2.2-.2 1.1-.4 2.2-.5 3.3-.2 1-.3 2-.5 3-.1.6-.4 1.2-.4 1.7.1.9-.2 1.9.3 2.8.4.9 1 1.4 1.7 1.8 1.8 1 4 .5 6.1.7 1.4.1 2.8.1 4.2.1 1.1 0 2.3-.2 3.5-.3.1 0 .1-.1.2-.2-.1-.1-.1-.2-.2-.2-.7-.1-1.4-.2-2.1-.1-2.6.3-3.7-1.4-3.7-3 0-1.5.3-3.2.6-4.8.4-2.1.7-4.2 1.1-6.4.2-1.4.4-2.8.8-4.2.5-2.2 1.1-4.4 1.6-6.6.1-.6.5-.6.8-.3 1 1.1 2 2.2 3 3.2.3.3.7.5 1.1.5 1.8-.1 3.6-.1 5.4-.1 1 0 2 .2 3 .2.7 0 1.4-.1 2.1-.1.1 0 .2-.1.2-.1l-.1-.1c-.6-.7-1.3-1.3-1.9-2-.4-.4-.8-.9-1.2-1.4-1.1-1.3-2.4-2.5-3.6-3.7-1-1-2.1-1.9-3.2-2.9l-3.8-3.8c-.2-.2-.3-.5-.3-.7 0-.9.2-1.9.2-2.8.1-2.6.2-5.2.1-7.9-.1-2.3-.2-4.6-.6-6.8-.3-1.7-1.2-3.3-2-4.8-.6-1.1-1.5-2.1-2.4-2.9-1.7-1.3-3.6-2.2-5.8-1.9-.8.1-1.6.1-2.4.2-1 .2-1.9.4-2.8.6-2 .4-3.9.9-5.9 1.3-.3.1-.5.3-.8.4.3 0 .6.1.9.1h.1c2.6-.7 4.9-.2 6.8 1.8 1.3 1.4 2.4 2.9 2.9 4.8.2.7.5 1.4.7 2.1.2.7.2 1.4.2 2.1.2 1.6.3 3.1.4 4.7 0 .3-.3.9-.5.9-1.9.3-3.8.5-5.7.9-2.3.5-4.6 1.2-6.8 1.7-.8.2-1.6.4-2.4.5l-2.4.6c-.3.1-.8.5-.8.7-.1 1.6 0 3.1-.1 4.7v1.6c-.1.7-.2 1.4-.4 2.1 0 .1-.1.2-.2.3-.8.5-2.7 0-2.9-.8-.3-1.3-.5-2.7-.7-4-.1-.8-.2-1.7-.2-2.5 0-.3.2-.7.2-1.1.1-.8.1-1.6.1-2.4 0-2.3.1-4.7-.1-7l-.3-2.4c-.1-.8-.3-1.5-.4-2.3-.3-1.5-.6-3.1-1-4.6-.3-1.4-.8-2.9-2-3.9-1-.9-2.2-1.4-3.5-1.9-1.2-.5-2.5-.4-3.7-.4-2.4 0-4.5.9-6.7 1.7-.5.2-.9.5-1.4.6-1.7.4-3.4.9-4.9 2-.1.1-.1.3-.1.4h.4c.9-.3 1.9-.7 2.8-1 1.6-.5 3.1.1 4.5.5 1.2.4 2.4 1 3 2.3.1.2 0 .7 0 .7-1.5.5-3 1-4.6 1.5-1.4.5-2.7 1-4.1 1.5-1.2.5-2.3 1-3 2.3-.1.2-.1.5-.3.7-.4.5-.9 1-1.2 1.6-.3.6-.4 1.3-.5 1.9-.1.5-.2.9-.2 1.4 0 .9-.1 1.7-.1 2.6v.2h-.2c-.2-.2-.6-.5-.7-.8-.4-1.4-.9-2.8-1.1-4.2-.5-2.8-1-5.8-1.5-8.7-.2-1.2-.5-2.4-.7-3.5l-.9-4.8V65h.5c1 .4 1.9.7 3.1.1 1.4-.7 2.9-1 4.4-1.6 1.4-.5 2.9-1.1 4.4-1.6.1 0 .2-.1.3-.2l-.3-.3c-1-.4-2-.8-3-1.3-2-1-3.9-2-5.8-3.1-2-1.1-4.1-2-6.2-3-.4-.2-1-.6-1.1-1.1-.8-2-1.4-4.1-2.2-6.2-1.1-3.3-2.8-6.2-4.6-9.1-1.4-2.2-3.3-3.6-6-3.5-.6 0-1.2.1-1.8.1-.6.1-1.2.2-1.8.4-.9.3-1.7 1-2.5 1.5-1.9 1.2-3.9 2.5-5.7 3.7-.2.1-.4.3-.6.4-.1.1-.1.2-.1.3.1 0 .2.1.3.1.9-.2 1.8-.5 2.7-.7 1.3-.3 2.7 0 3.6.8.6.5 1.1 1.2 1.6 1.8.5.7.9 1.4 1.4 2.1.9 1.3 1.7 2.7 2.3 4.2.6 1.3 1 2.6 1.4 4 0 0 0 .2-.1.2-.9.6-1.8 1.2-2.8 1.8-.1.1-.6 0-.6-.2-.5-1-1-2.1-1.6-3.2-.3-.6-.7-1.1-1.1-1.6-.2-.3-.5-.7-.7-1l-.6-.6c-.4-.3-.8-.9-1.3-.9-.6-.1-1.3.2-2 .2-1.9-.1-3.3 1.1-4.8 1.8-1 .4-2 1.1-2.9 1.7-1 .7-2.1 1.3-3.1 2-.6.5-1.3 1-1.9 1.5-.5.4-1 .4-1.3-.3-.2-.3-.5-.6-.8-.8-1.4-1.1-3.1-1-4.6-.3-1.3.6-2.4 1.6-3.5 2.4-.4.3-.6.7-.9 1.1-.4.5-.7 1-1.2 1.4-.7.6-1.5 1.1-2.2 1.7-.1.1-.1.2-.2.4h.4c1.4-.6 2.8-.7 3.9.6.5.6.9 1.1 1.3 1.8 1.2 2 2.3 4 3.3 6l1.2 2.4c.1.2.3.3.5.5v.2c0 .2-.1.4 0 .5.3.6.6 1.1.8 1.6.9 1.9 2.6 2.4 4.3 1.3 1.1-.7 2.2-1.4 3.4-2.1l4.2-2.7c.5-.3.9-.8 1.4-1.2.3-.2 0-.1-.2 0zm75.9 36.8c.1-2.2.3-4.4.5-6.5.1-1.2.4-2.5.5-3.8.1-1.4.2-2.9.3-4.3 0-.1.3-.3.4-.3.8.6 1.7 1.2 2.5 1.8.5.4 1.1.9 1.6 1.3.5.5 1 .9 1.6 1.4.9.8 1.8 1.4 1.4 3-.4 1.5-.3 3.1-.4 4.7l-.3 2.4c-.2.9-.4 1.7-.6 2.6-.1.4-.2.9-.3 1.3 0 .1-.2.3-.3.3-.8 0-1.6.1-2.4.1-.5 0-1 .1-1.5 0-.6-.1-1.1-.3-1.6-.5-1-1.1-1.5-2.2-1.4-3.5zm-27.4-31c.7-.6 1.3-.4 1.5.5.1.5.3 1 .4 1.5.2.6.4 1.1.5 1.7.3 1.5.5 2.9.7 4.4.2 1.3.4 2.6.4 3.9 0 1.2-.1 2.4-.2 3.5 0 .1-.3.4-.5.4-1.5-.1-2.6-.8-3.5-1.9-.6-.8-1.4-1.4-1.9-2.3-.8-1.6-1.1-3.4-.9-5.3.1-1.3.6-2.5.9-3.9 1-.9 1.8-1.7 2.6-2.5zm-32.6-16.6c.8.8 1.1 2.1 1.6 3.3.5 1.2.8 2.4 1.2 3.7.3 1 .6 2.1.8 3.1.4 1.5.7 3 1.1 4.5.3 1.1-.3 1.6-1.7 1.6-1.6-.1-2.3-1.2-2.6-2.8-.5-2-1.1-4.1-1.7-6.1-.6-2.1-1.2-4.2-1.9-6.3-.2-.6-.5-1.2-.7-1.8-.1-.2-.1-.5-.1-.8h.9s.1 0 .3.1c.8.4 2.1.7 2.8 1.5z" id="path806"/><path d="M455.8 64.2c1.3-.8 2.5-1.7 3.7-2.7 1.3-1 2.6-2.2 4-3.2 1.5-1.2 3-2.4 4.6-3.7 1.1-.9 2.3-1.9 3.4-2.9.8-.7 1.6-1.5 2.5-2.2 1-.8 1.9-1.6 2.9-2.3 1.3-1 2.7-2 4.1-3.1.3-.3.4-.9.5-1.4 0-.1-.5-.2-.8-.3l-2.4-.6c-1-.3-2-.5-3-.8-.6-.1-1.1-.3-1.7-.4l-1.7-.3c-.5-.1-1-.3-1.5-.4-1.7-.2-3.5-.4-5.2-.7-1.5-.3-2.9-.8-4.4-1.3-.7-.2-1.5-.5-2.2-.5-2.4 0-4.9 0-7.3.3-.9.1-1.8.8-2.5 1.4-.7.6-1.2 1.3-1.9 2-1.5 1.5-2.9 3-4.3 4.5-.1.1 0 .4 0 .6 0 .2.1.4 0 .6-.1.3-.4.5-.6.7l-3 3.3c-.1.1-.1.4-.2.6.1-.1.3-.1.4-.2.4-.3.9-.7 1.3-1 .9-.7 1.9-.8 2.7-.2 1 .8 2 1.7 2.7 2.7 1.3 2 2.4 4.2 3.5 6.2.7 1.3 1.4 2.6 2.1 4 .4.9.9 1.6 2.1 2.1.5 0 1.4-.3 2.2-.8zm3.7-8.7c-.5-1-.9-2.1-1.5-3l-3-5.7c0-.1-.1-.3 0-.3 0-.1.2-.1.3-.1l4.3.6c1.4.3 2.9.5 4.3.8 2.2.5 4.3 1 6.5 1.6.6.2.8.8.2 1.2-1.4 1.3-2.8 2.5-4.2 3.8-.9.9-1.8 1.8-2.8 2.6-.7.5-1.5.7-2.1 1-1.1-.5-1.5-1.6-2-2.5z" id="path808"/><path d="M437.4 45.2c-1.6-.4-3.1-.9-4.6-1.2-.7-.1-1.5-.2-2.2-.2-.2 0-.4.2-.6.3.1.2.2.4.3.5 1.1 1.4 2.1 2.8 3.2 4.3 1 1.5 2.1 2.9 3.1 4.4 1.1 1.6 2.3 3.1 3.4 4.5.7.9 1.3.7 2.1-.2.6-.7 1.3-1.3 2-1.9.1-.1.4 0 .4 0 0 .2.1.5 0 .6-.5.7-1 1.5-1.6 2-1.5 1.5-3.1 2.9-4.7 4.4-1 .9-1.9 1.9-3 2.7-1.4 1.1-2 1.1-3.3-.2-1.2-1.2-2.2-2.6-3.2-4-1.3-1.7-2.6-3.4-3.9-5.2-1.2-1.6-2.3-3.2-3.5-4.8-.4-.6-.6-1.1.1-1.8.6-.6 1-1.3 1.9-1.3 0 0 .1-.1.1-.2.3-1.7 1.7-2.3 2.6-3.5.6-.8 1.3-1.5 2-2.2 1.2-1.2 2.5-2.5 3.8-3.7.5-.5 1-.9 1.4-1.4 1-1.2 2.1-1.6 3.6-1.6 3.1-.1 5.9 1 8.8 1.7.1 0 .2.4.2.5-.7.7-1.4 1.3-2.1 1.9-.6.5-1.2 1.1-1.8 1.6-.6.6-1.3 1.1-1.9 1.7l-1.8 1.8c-.3.4-.6.4-.8.5z" id="path810"/><path d="M468.8 61.5v.5c-.1.2-.3.4-.5.5-1.1.7-.7 1.6-.1 2.3 1.4 1.5 2.9 3.1 4.1 4.9.3.5.2 1.7-.1 2.4-.4.8-1.2 1.6-1.9 2.2-1.3 1-2.6 1.9-3.9 2.8-.8.6-1.6 1.3-2.4 2-.7.6-1.3 1.1-2 1.7h-.2l.1-.1c.3-.3.7-.6.9-.9 1.5-2.1 1.3-3.3-.2-4.8-1.2-1.2-2.3-2.4-3.4-3.7-.5-.6-.5-1.9.4-2.7.4-.3.8-.8 1.2-1.1 2.1-1.7 4.4-3.3 6.6-4.9.6-.4.9-.7 1.4-1.1z" id="path812"/><path d="M570.8 72.3c-.2.2-.3.4-.5.4-1.2.2-.9 1.3-1 2 0 .9.3 1.7.4 2.6.2 1.8.5 3.5.6 5.2.1.8-.7 1.2-1.4 1.3-1 .1-1.9.4-2.9.7-.9.2-1.7.6-2.5.8l-4.2.9c-.9.2-1.8.2-2.7.2h-.1c.1-.1.1-.1.2-.1l1.2-.3c1.3-.4 1.8-1.2 1.5-2.5-.1-.6 0-1.3 0-1.9-.1-1-.4-2.1-.6-3.1-.1-1.2-.6-2.4.1-3.5.2-.4.9-.5 1.4-.7l3.6-.9 5.7-1.2c.3-.1.6-.1.9-.1 0 0 .2.1.3.2z" id="path814"/></g><g id="g828"><path d="M632.2 185.7c-1.2-.4-1.9-1.9-1.6-2.9.6-1.7 1.3-3.4 1.9-5.2.8-2.4 1.6-4.8 2.3-7.2.1-.2.3-.6.5-.6.9 0 1.9.1 2.7.3.7.2 1.3.6 2 1 .9.5 1.6 1.4 1.5 2.4-.2 1.5-.5 3-1 4.5-.4 1.2-1.1 2.5-1.6 3.7l-2.7 6c-.5 1.1-1.1 2.2-1.7 3.3-.3.7-.6 1.3-.9 2-.1.3-.3.5-.4.8-.1.2-.1.5-.3.7-.3.4-.5.8-.9 1-.5.2.3.9-.5.9-.1 0-.3.7-.4 1.1 0 .1.1.3.1.4-.2 1 .4 1.9 1.3 2.2.3.1.6 0 1 .1.1 0 .1.3.2.3.3.1.7.2 1 .3.2.1.4.3.6.4 1.5.6 3.1 1.2 4.6 1.8.3.1.6.4 1 .5.7.3 1.5.4 2.1.7.1 0 .2.3.1.5-.2.4-.5.7-.8 1-.7 1-1.3 2.1-1.9 3.1l-1.8 2.4c-.8 1.2-1.5 2.3-2.3 3.4-.1.1-.1.2-.2.4.1 0 .3 0 .4.1.1 0 .2.1.2.2v.1c-.1 0-.1-.1-.2-.1-.4 0-.9-.2-.8.5 0 0-.1.1-.1.2 0 0-.1 0-.1-.1v-.2c-.1.1-.2.1-.2.2-.8 1.4-1.2 2.8-.9 4.2.2 1.1 1.4 1.9 2.7 1.9.7 0 1.5.2 2.2.4.7.2 1.3.6 2 .9 0 0 .1.1 0 .2-.4.4-.1.7.3.9.5.2.9.4 1.4.6.1 0 .1.2.1.2-.7 1.2-.7 2.5-.7 3.8-.2 2.4.7 4.1 2.7 5.4.8.5 1.7.9 2.6 1.3 1.5.8 3.1 1.5 4.6 2.3.4.2.6.4.1.8-.7.7-1.4 1.3-2 2-.7.7-1.4 1.3-2 2-.3.3-.9.6-.5 1.2 0 0 0 .1-.1.2h-.4c-.1.2-.1.4-.3.5-1 .7-.8 2.3 0 3 .6.4 1.2.9 1.9 1.3 1.7 1.1 3.3 2.2 4.9 3.3.3.2.6.3.9.5.5.4.9.9 1.4 1.4.1.1.2.5.1.6-.6.7-1.3 1.3-1.9 1.9-.5.6-1.1 1.1-1.6 1.7-.7.7-1.4 1.3-2 2-.8.9-1 2-.6 3 .3.8 1 1.6 1.8 2.2 1.5 1.3 3.2 2.4 4.7 3.7 1.5 1.2 3 2.4 4.4 3.6.1.1.2.5.1.6-.6.5-1.3.9-2 1.4-.9.6-1.9 1.3-2.8 1.9-.6.4-1.1.9-1.7 1.4-.9.7-1.8 1.3-2.7 2-.8.6-1.7 1.2-2.5 1.8-.5.3-1.2.6-1.5 1-.6.7-1.5 1.2-1.8 2.2-.3.9-.4 1.7-.1 2.5.6 2 2.4 3.2 3.8 4.7.9 1 1.9 2.1 3 3.1.8.8 1.8 1.5 2.7 2.2h.3v-.3c-.5-.5-.9-1.1-1.4-1.6-2-1.6-1.6-3.5-.5-4.7 1.1-1.1 2.5-2 3.8-2.9 1.7-1.3 3.6-2.5 5.3-3.7 1.2-.8 2.3-1.7 3.5-2.5 1.9-1.2 3.9-2.3 5.8-3.5.6-.4.8-.1.8.3 0 1.5-.1 2.9-.1 4.4 0 .4.1.9.4 1.1 1.3 1.2 2.6 2.4 3.9 3.7.7.7 1.3 1.6 2 2.3.5.5 1 .9 1.6 1.4.1.1.2 0 .3.1v-.1c0-.9 0-1.8.1-2.7 0-.6.1-1.2.2-1.8 0-.9.1-1.7.1-2.6V282c0-1.4-.2-2.9-.2-4.3v-5.4c0-.2.1-.6.3-.7.7-.6 1.5-1.2 2.2-1.9 1.9-1.8 3.8-3.5 5.6-5.5 1.5-1.6 3.1-3.3 4.4-5.3.9-1.4 1.6-3.2 2.1-4.9.3-1.2.5-2.5.3-3.8-.3-2.1-1-4.1-2.8-5.4-.6-.5-1.2-1.1-1.8-1.5-.8-.6-1.6-1.1-2.4-1.6-1.7-1.1-3.4-2.2-5.1-3.2-.2-.1-.6-.2-.8-.3.2.2.4.5.6.7h.1c2.3 1.3 3.7 3.3 3.5 6.1-.1 1.9-.3 3.7-1.3 5.4-.4.6-.6 1.4-1 2-.4.6-.9 1.1-1.3 1.7l-3 3.6c-.2.2-.8.5-1 .3-1.6-1.1-3.1-2.4-4.7-3.4-2-1.3-4.1-2.4-6.1-3.6-1.4-.8-2.7-1.8-4.1-2.6-.3-.2-.9-.2-1-.1-1.2 1.1-2.3 2.2-3.4 3.3-.4.4-.7.8-1.1 1.1l-1.8 1.2c-.1.1-.2.1-.3 0-.9-.2-2-1.8-1.5-2.6.7-1.2 1.6-2.3 2.4-3.4.5-.7 1-1.3 1.6-1.9.2-.2.7-.3.9-.6.6-.5 1.2-1.1 1.7-1.6 1.6-1.6 3.4-3.3 4.8-5.1 1-1.2 1.9-2.5 2.9-3.8.5-.7.9-1.3 1.4-2 .4-.7.8-1.3 1.3-2 .8-1.2 1.4-2.6 1.3-4.1-.1-1.3-.6-2.6-1.2-3.8-.5-1.2-1.4-2.1-2.2-3-1.7-1.7-3.9-2.5-6-3.5-.5-.2-1-.3-1.4-.5-1.5-.9-3.1-1.8-4.9-2.1-.1 0-.2.1-.4.2.1.1.1.2.2.3l2.7 1.2c1.5.7 2.2 2.2 2.9 3.5.6 1.1 1 2.4.5 3.7-.1.2-.5.5-.5.5-1.4-.7-2.8-1.5-4.3-2.1-1.3-.6-2.6-1.2-4-1.8-1.2-.5-2.4-.9-3.8-.5-.3.1-.5.3-.7.3-.7.1-1.3.1-2 .3-.6.2-1.2.6-1.7 1-.4.3-.8.6-1.1.9-.6.6-1.3 1.1-1.9 1.7-.1.1-.1.1-.1.2 0-.1-.1-.1-.1-.2 0-.3-.1-.7.1-1 .7-1.3 1.3-2.6 2.1-3.8 1.7-2.4 3.5-4.8 5.1-7.2.7-1 1.3-2 2-3 .9-1.3 1.8-2.7 2.7-4.1.1-.2.3-.3.4-.4.1.1.3.2.4.4.4 1 .8 1.9 2.1 2.2 1.5.4 2.8 1.3 4.2 2 1.4.7 2.8 1.3 4.2 2 .1.1.2.1.4.1v-.4c-.4-1-.7-2-1.1-3.1l-2.1-6.3c-.7-2.2-1.4-4.4-2.2-6.5-.2-.5-.3-1.1-.1-1.5.9-2 1.9-3.9 2.8-5.9 1.4-3.1 2.5-6.4 3.3-9.7.6-2.6.2-4.9-1.8-6.7-.9-.8-1.9-1.6-3-2.2-.8-.4-1.8-.5-2.8-.7-2.3-.5-4.5-1-6.7-1.4-.2 0-.5-.1-.7-.1-.1 0-.2.1-.3.1.1.1.1.2.2.3.8.5 1.7.9 2.4 1.4 1.1.7 1.9 1.9 1.9 3.1 0 1.6-.3 3.3-.7 4.9-.3 1.6-.7 3.1-1.3 4.6-.5 1.3-1.2 2.5-1.8 3.8 0 0-.1.1-.2.1-1.1-.2-2.2-.4-3.2-.7-.2 0-.4-.4-.3-.6.3-1.1.8-2.2 1.1-3.4.2-.6.2-1.3.4-1.9.1-.4.2-.8.2-1.2v-.9c0-.5 0-1.2-.2-1.6-.4-.5-1-.8-1.5-1.3-1.3-1.3-3.1-1.5-4.7-2.1-1-.4-2.2-.6-3.3-.8-1.2-.3-2.4-.5-3.6-.7-.8-.1-1.6-.2-2.3-.3-.6-.1-.9-.4-.7-1.2.1-.4.1-.8 0-1.2-.3-1.8-1.5-2.9-3.1-3.4-1.3-.5-2.8-.6-4.2-.8-.5-.1-1 .1-1.4.1-.6.1-1.2.2-1.8.2-.9-.1-1.8-.3-2.6-.4-.1 0-.3.1-.4.1l.3.3c1.4.7 2.4 1.6 2.3 3.3-.1.7-.1 1.5-.3 2.2l-1.8 6.6c-.3.9-.6 1.7-.9 2.6-.1.2 0 .5 0 .7 0 0 0 .1-.1.1-.1.1-.3.2-.4.3l-.6 1.8c-.7 2 .2 3.6 2.2 4l3.9.9c1.6.3 3.2.7 4.8 1.1.6.1 1.2.1 1.8.2-.8-.2-1-.4-1.3-.4zm27.7 79.6c1.6-1.4 3.3-2.8 5-4.2 1-.8 2.1-1.5 3.1-2.3 1.1-.9 2.1-1.9 3.2-2.9.1-.1.4 0 .5.1.2 1 .4 2 .5 3 .1 1.4.2 2.8.2 4.2.1 1.2.3 2.2-1.1 3.1-1.3.8-2.4 2-3.6 3-.6.5-1.3 1-1.9 1.5-.7.5-1.5.9-2.2 1.4-.4.2-.8.5-1.2.7h-.4c-.6-.6-1.2-1.1-1.8-1.6-.4-.3-.8-.6-1.1-1-.3-.5-.5-1-.8-1.5.2-1.5.6-2.6 1.6-3.5zm2.7-41.2c.9.1 1.1.7.6 1.4-.3.4-.5.9-.8 1.3-.3.5-.5 1.1-.9 1.6-.8 1.2-1.7 2.4-2.6 3.6-.8 1-1.6 2.1-2.4 3-.8.9-1.7 1.6-2.6 2.4-.1.1-.5 0-.6-.1-1-1.1-1.3-2.4-1.2-3.8.1-1 0-2 .3-2.9.5-1.7 1.7-3.2 3.1-4.4 1-.8 2.2-1.4 3.5-2.1 1.2-.1 2.4-.1 3.6 0zm-11.4-34.9c-.1 1.2-.8 2.3-1.3 3.5-.5 1.2-1.1 2.3-1.7 3.4-.5.9-1.1 1.9-1.6 2.8l-2.4 3.9c-.6 1-1.3 1-2.3-.1-1.1-1.2-.8-2.5 0-3.8 1.1-1.8 2.1-3.7 3.1-5.5 1.1-1.9 2.2-3.9 3.2-5.8.3-.6.5-1.1.7-1.7.1-.2.3-.4.5-.6l.6.6s0 .1.2.3c.4.8 1 1.9 1 3z" id="path818"/><path d="M610.6 157.2c1.4.4 3 .6 4.5.8 1.7.2 3.4.3 5.1.5 2 .2 3.9.4 5.9.6 1.5.2 2.9.3 4.4.5 1.1.1 2.2.1 3.3.2 1.2.1 2.5.3 3.7.4 1.7.2 3.4.5 5.1.7.4 0 .9-.4 1.3-.6 0 0-.2-.5-.3-.7-.4-.7-.9-1.4-1.3-2.1-.5-.9-1-1.8-1.6-2.6l-1.9-2.9c-.3-.4-.5-1-.8-1.4-1.1-1.4-2.2-2.7-3.2-4.1-.9-1.3-1.5-2.7-2.3-4-.4-.7-.6-1.4-1.2-2-1.8-1.7-3.5-3.4-5.4-4.9-.7-.6-1.8-.7-2.8-.8-.9-.1-1.9.1-2.8.1-2 0-4.2 0-6.2.1-.1 0-.3.3-.5.4-.1.1-.2.4-.4.4-.3.1-.6.1-.9.1-1.5.1-3 .1-4.4.2-.2 0-.4.2-.5.3.1 0 .3.1.4.1.5.1 1.1.1 1.7.2 1.1.1 1.9.7 2.1 1.8.2 1.2.2 2.6-.1 3.8-.5 2.3-1.3 4.6-1.9 6.9-.4 1.4-.8 2.9-1.4 4.3-.4 1-.5 1.8.1 2.9.6.1 1.4.6 2.3.8zm8.8-3.5c.3-1.1.8-2.1 1.1-3.2.7-2.1 1.3-4.1 1.9-6.1 0-.1.1-.2.2-.3.1 0 .2.1.3.2l1.3 1.7 1.3 1.8c.8 1.2 1.7 2.4 2.5 3.6 1.2 1.9 2.4 3.8 3.5 5.7.3.6 0 1.1-.7 1.1-.9-.1-1.8-.1-2.8-.2l-2.8-.1c-1.3 0-2.6 0-3.8-.1-.8-.1-1.6-.6-2.1-.8-.7-1.3-.2-2.3.1-3.3z" id="path820"/><path d="M611.1 130.7c-.8-1.4-1.5-2.8-2.4-4.1-.4-.6-.9-1.1-1.4-1.7-.1-.1-.4-.2-.6-.3-.1.2-.1.4-.2.5-.2 1.8-.5 3.5-.8 5.3-.3 1.8-.6 3.5-.9 5.3-.3 1.9-.6 3.8-.7 5.6-.1 1.1.5 1.4 1.6 1.3.9-.1 1.9 0 2.8.1.1 0 .3.3.3.3-.1.2-.3.4-.5.5-.8.1-1.7.3-2.6.3-2.2 0-4.3-.1-6.4-.2-1.4 0-2.7 0-4-.2-1.8-.2-2.2-.6-2.2-2.5 0-1.6.3-3.4.5-5.1.3-2.1.6-4.3.9-6.4.3-1.9.6-3.9.9-5.9.1-.7.3-1.2 1.3-1.2.8 0 1.6-.2 2.3.4h.2c1.4-1 2.8-.5 4.3-.6 1-.1 2-.1 3-.1h5.3c.7 0 1.3.1 2 0 1.5-.1 2.6.4 3.7 1.4 2.3 2.1 3.5 4.8 5 7.4 0 .1-.2.4-.2.4-1 0-1.9-.1-2.9-.1-.8 0-1.6 0-2.4-.1-.9 0-1.7-.2-2.5-.2H612c-.5.2-.7 0-.9-.1z" id="path822"/><path d="M621.7 164.5c-.2.2-.3.4-.4.4-.2 0-.5.1-.7 0-1.3-.3-1.7.6-1.7 1.6-.1 2.1-.1 4.2-.5 6.3-.1.6-1.1 1.3-1.8 1.6-.9.3-1.9.3-2.9.2-1.6-.2-3.2-.5-4.8-.7l-3-.3c-.8-.1-1.7-.2-2.6-.2-.1 0-.1-.1-.1-.1h.2c.4 0 .9.1 1.3 0 2.5-.4 3.2-1.4 3.2-3.6 0-1.6 0-3.3.1-5 0-.8.9-1.7 2.2-1.6.5.1 1.1 0 1.7.1 2.7.3 5.5.7 8.2 1.2.6 0 1 .1 1.6.1z" id="path824"/><path d="M686.2 244.3c-.3 0-.5 0-.6-.1-1-.7-1.6.2-2.1.7-.6.6-1.1 1.5-1.6 2.2-1.1 1.4-2.1 2.8-3.2 4.2-.5.6-1.4.4-2-.1-.8-.6-1.7-1.1-2.5-1.6-.8-.4-1.6-.8-2.3-1.2-1.2-.8-2.3-1.6-3.5-2.4-.8-.5-1.4-1.2-2.1-1.7 0 0 0-.1-.1-.1h.2c.4.2.7.4 1.1.6 1.2.6 2.1.4 2.9-.7.4-.5.9-.9 1.3-1.4.6-.8 1.1-1.7 1.8-2.6.7-.9 1.2-2.1 2.5-2.4.4-.1 1 .3 1.5.5 1.1.6 2.1 1.3 3.2 1.9 1.6 1 3.3 2.1 4.9 3.2.2.2.5.3.7.6 0 0-.1.2-.1.4z" id="path826"/></g></g></g></g></svg>